<svg width="77" height="75" viewBox="0 0 77 75" fill="none" xmlns="http://www.w3.org/2000/svg">
<path fill-rule="evenodd" clip-rule="evenodd" d="M64.3115 0.144523C62.6898 0.57097 62.041 1.0611 58.7162 4.37051L55.5224 7.54969L54.8159 6.83925L54.1092 6.12896L52.3555 7.88741L50.6018 9.64601L50.1424 9.45466C49.5369 9.20251 49.0419 9.34466 48.3561 9.96758L47.7931 10.479L46.5727 10.1236C43.4156 9.20432 39.9602 9.63273 37.1443 11.2923C35.7807 12.0962 33.699 14.189 32.8995 15.56C30.0981 20.3642 30.9269 26.4156 34.917 30.2884C37.3279 32.6282 39.8463 33.6464 43.2231 33.6464C46.6977 33.6464 49.4188 32.4957 51.794 30.0222C53.3587 28.3926 54.2565 26.7921 54.8696 24.5383C55.2953 22.9742 55.2324 20.0037 54.7387 18.3557L54.3558 17.077L54.8645 16.5109C55.4841 15.8215 55.6255 15.3238 55.3747 14.7151L55.1843 14.2532L56.9335 12.49L58.6826 10.7269L57.9715 10.0119L57.2603 9.29697L60.4042 6.13348C64.033 2.48213 64.3259 2.28958 66.1151 2.38042C66.9938 2.42509 67.3275 2.51895 67.9244 2.89002C68.9443 3.52395 69.5346 4.51975 69.6117 5.73601C69.6679 6.6224 69.631 6.74554 68.8803 8.17216C68.4457 8.99864 67.9565 9.93408 67.7935 10.2511C67.6216 10.5849 67.4678 11.2513 67.4277 11.8356C67.2988 13.717 68.3349 15.4931 70.058 16.3437C70.8692 16.7442 71.0443 16.7699 73.2912 16.8183C75.9396 16.8754 76.4124 16.7723 76.6997 16.0751C76.9316 15.5123 76.6829 14.842 76.1517 14.5987C75.931 14.4976 74.912 14.4281 73.6478 14.4279C71.2322 14.4278 70.7215 14.2766 70.1306 13.3873C69.5466 12.5083 69.6547 11.7316 70.6009 10.01C71.047 9.19828 71.5192 8.26481 71.6502 7.93539C72.2311 6.47603 72.0822 4.64741 71.2545 3.07261C70.2984 1.25319 68.4832 0.128679 66.3175 0.0138431C65.5497 -0.0269001 64.7703 0.0239534 64.3115 0.144523ZM6.82922 3.40021C6.60363 4.08319 6.52468 4.16392 5.8416 4.4108C5.43319 4.55853 5.09908 4.7203 5.09908 4.77055C5.09908 4.8208 5.43319 4.98256 5.8416 5.13029C6.52468 5.37717 6.60363 5.4579 6.82922 6.14088C6.96416 6.54922 7.13106 6.88316 7.20041 6.88316C7.26975 6.88316 7.43726 6.54771 7.57264 6.13771C7.80139 5.44522 7.87148 5.37475 8.56026 5.14478C8.96807 5.00867 9.30173 4.84026 9.30173 4.77055C9.30173 4.70083 8.96807 4.53242 8.56026 4.39631C7.87148 4.16634 7.80139 4.09587 7.57264 3.40338C7.43726 2.99338 7.26975 2.65793 7.20041 2.65793C7.13106 2.65793 6.96416 2.99187 6.82922 3.40021ZM19.5598 7.13064L18.8116 9.18893L16.7583 9.95656C15.6291 10.3786 14.7051 10.7612 14.7051 10.8066C14.7051 10.852 15.6291 11.2345 16.7583 11.6566L18.8116 12.4242L19.5598 14.4825C19.9714 15.6146 20.3534 16.5408 20.4087 16.5408C20.4641 16.5408 20.8467 15.6131 21.2589 14.4792L22.0085 12.4175L24.0604 11.6672C25.189 11.2546 26.1123 10.8672 26.1123 10.8066C26.1123 10.7459 25.189 10.3586 24.0604 9.946L22.0085 9.19572L21.2589 7.13396C20.8467 6.00009 20.4641 5.07235 20.4087 5.07235C20.3534 5.07235 19.9714 5.99858 19.5598 7.13064ZM52.3046 11.2585L50.5122 13.0653L50.0519 12.6168L49.5917 12.1683L45.2917 16.5049C42.4418 19.3793 40.957 20.9843 40.8884 21.2646C40.7466 21.8451 40.9078 22.719 41.2411 23.177C41.8309 23.9869 43.1098 24.3146 43.9436 23.8695C44.1665 23.7504 46.225 21.7619 48.5183 19.4504L52.6878 15.2475L52.2294 14.8061L51.7712 14.3645L53.578 12.5436L55.385 10.7225L54.741 10.0872L54.0971 9.4518L52.3046 11.2585ZM40.854 12.3185C39.1254 12.7737 37.7526 13.5731 36.4672 14.8728C32.6632 18.7191 32.6626 24.6415 36.4659 28.465C39.506 31.5215 43.9224 32.1864 47.771 30.1669C49.2233 29.405 50.9153 27.7039 51.6732 26.2438C52.7117 24.2434 53.0722 21.8821 52.6567 19.8024L52.4844 18.9392L49.167 22.2484C45.2955 26.1107 44.8673 26.4033 43.073 26.4119C41.6907 26.4185 40.7014 26.0206 39.8008 25.0957C38.8744 24.1443 38.4977 23.1906 38.5081 21.8224C38.5216 20.0001 38.7364 19.6811 42.5821 15.7706L45.9367 12.3597L45.0803 12.1867C43.8334 11.935 42.1051 11.9889 40.854 12.3185ZM5.47357 18.3272L5.06411 19.51L3.88076 19.9424C3.22995 20.1804 2.69756 20.4152 2.69756 20.4643C2.69756 20.5133 3.22995 20.7481 3.88076 20.9861L5.06411 21.4186L5.47357 22.6013C5.69886 23.2518 5.93556 23.7841 5.99965 23.7841C6.06374 23.7841 6.29969 23.2541 6.52393 22.6064L6.93174 21.4287L8.11673 21.0054C8.76845 20.7725 9.30173 20.529 9.30173 20.4643C9.30173 20.3995 8.76845 20.156 8.11673 19.9231L6.93174 19.4998L6.52393 18.3221C6.29969 17.6744 6.06374 17.1444 5.99965 17.1444C5.93556 17.1444 5.69886 17.6767 5.47357 18.3272ZM24.6864 21.9217C20.261 22.1862 17.584 22.5538 16.6703 23.0225C14.9442 23.9078 12.0759 28.3621 10.6484 32.3741L10.1612 33.7435H9.59036H9.0194L9.38579 32.6608C9.58721 32.0654 9.75202 31.5123 9.75202 31.4319C9.75202 31.1914 4.57435 31.4222 3.52309 31.7095C1.38904 32.2931 -0.0107447 33.7606 6.2133e-05 35.4035C0.00336422 35.9195 0.480215 36.9173 0.91609 37.32C1.78004 38.1186 3.56676 38.5635 5.93346 38.5694C6.67898 38.5712 7.23388 38.5001 7.37977 38.3838C7.51005 38.2801 7.76491 37.7367 7.94608 37.1765L8.27553 36.158H8.9388C9.30353 36.158 9.60117 36.2088 9.60027 36.2711C9.59682 36.5159 9.16229 37.8121 8.937 38.2504C8.55561 38.9916 7.98405 39.4309 6.22479 40.3351C1.90296 42.5562 1.08675 43.6882 0.37635 48.4466C-0.432811 53.8654 0.174622 60.8421 1.94049 66.4136C2.19385 67.2129 2.40473 68.2768 2.45306 68.9992C2.61336 71.3894 3.36354 73.4002 4.4142 74.2555L4.97645 74.7132L11.079 74.7607C16.6085 74.8037 17.2273 74.7839 17.6668 74.5497C18.4381 74.1388 18.8376 73.0868 19.1373 70.6766L19.2264 69.9598H38.4201H57.6138L57.7029 70.6766C58.0027 73.0868 58.4021 74.1388 59.1734 74.5497C59.6129 74.7839 60.2317 74.8037 65.7612 74.7607L71.8638 74.7132L72.4404 74.2458C72.7574 73.9889 73.2085 73.3925 73.4425 72.9208C73.9217 71.9543 74.4379 69.6728 74.4409 68.5077C74.4419 68.0766 74.571 67.4425 74.7327 67.0741C75.4246 65.498 76.4673 60.1278 76.6416 57.2443C76.6958 56.3473 76.7972 55.578 76.8672 55.5346C76.9373 55.4911 76.9945 54.5388 76.9945 53.4183C76.9945 52.0987 76.9416 51.4141 76.8444 51.4744C76.7516 51.5321 76.694 51.2619 76.6934 50.7665C76.6923 49.803 76.3339 47.331 75.9981 45.9709C75.4515 43.7573 74.3735 42.4759 71.9393 41.1463C68.4249 39.2267 68.2628 39.0906 67.8402 37.7039C67.6695 37.1441 67.4936 36.5672 67.449 36.422C67.3813 36.2011 67.4658 36.158 67.9664 36.158H68.5647L68.8971 37.1765C69.08 37.7367 69.2963 38.2801 69.3781 38.3838C69.721 38.8196 73.617 38.5185 74.8751 37.959C75.7796 37.5567 76.1975 37.1492 76.6348 36.2429C76.9841 35.5192 77.1288 34.5477 76.8627 34.7131C76.7902 34.7581 76.6907 34.5928 76.6414 34.3456C76.5202 33.7362 75.4713 32.6255 74.6306 32.2164C74.2521 32.0322 73.5652 31.7865 73.1045 31.6705C72.097 31.4171 67.0882 31.2193 67.0882 31.4329C67.0882 31.5128 67.253 32.0654 67.4544 32.6608L67.8208 33.7435H67.1904H66.5602L66.2062 32.7512C65.6995 31.3308 63.707 27.4146 62.6804 25.8212C61.2321 23.5734 60.4833 22.9407 58.8632 22.5954C57.6373 22.3342 57.6693 22.3138 57.5359 23.4445C57.4697 24.0048 57.4136 24.5256 57.4113 24.6021C57.409 24.6785 57.793 24.8185 58.2646 24.9133C58.7363 25.0079 59.2678 25.217 59.4458 25.3779C59.6237 25.5388 60.2386 26.3833 60.8121 27.2548C62.8275 30.317 64.9893 35.3686 64.7754 36.5154C64.6429 37.2257 64.1109 37.9603 63.4883 38.2929C62.9854 38.5617 62.0182 38.5724 38.3024 38.5724C11.5036 38.5724 13.2749 38.6291 12.4537 37.7438C11.6096 36.8335 12.1842 33.9764 13.908 30.5129C14.8458 28.6288 16.0453 26.8099 16.9902 25.8398C17.7184 25.0919 17.8615 25.013 18.7712 24.8579C20.3555 24.5875 22.6686 24.393 25.847 24.2629C27.476 24.1962 28.8409 24.1093 28.8802 24.0696C28.9197 24.03 28.9112 23.5082 28.8612 22.9099L28.7705 21.8224L27.1037 21.8495C26.1869 21.8645 25.0992 21.8969 24.6864 21.9217ZM4.79889 33.848C3.5498 34.0588 2.39738 34.7401 2.39738 35.2679C2.39738 35.74 3.31656 36.0486 4.77758 36.0668L6.03192 36.0825L6.46194 34.913L6.89196 33.7435L6.03312 33.7641C5.56062 33.7754 5.00527 33.8131 4.79889 33.848ZM70.3699 34.8902L70.8083 36.0825L72.0626 36.0668C74.22 36.0398 75.0356 35.4084 73.955 34.602C73.2649 34.0868 72.5992 33.8922 71.1741 33.7885L69.9316 33.6981L70.3699 34.8902ZM0.0336834 35.328C0.0353344 35.66 0.0661038 35.778 0.101976 35.5903C0.137849 35.4026 0.136498 35.1309 0.0989746 34.9867C0.0614509 34.8424 0.0320323 34.996 0.0336834 35.328ZM65.5116 39.7802C65.362 39.9465 64.8619 40.2691 64.4002 40.497L63.561 40.9113L38.7203 40.9516C21.2421 40.9799 13.6458 40.9432 13.0906 40.8274C12.6566 40.7371 11.9638 40.4346 11.5511 40.1555L10.8006 39.6477L10.581 40.0746C10.2521 40.714 9.39134 41.3304 7.20041 42.4958C4.88294 43.7285 4.18065 44.2523 3.66898 45.1301C2.17929 47.6859 1.99182 56.5429 3.30335 62.4147C3.92414 65.1939 4.46103 66.6136 5.12745 67.2378C5.45586 67.5454 5.45751 67.5454 38.4369 67.5454H71.418L71.8492 67.1805C72.754 66.4151 73.8997 61.7232 74.3055 57.1214C74.6575 53.1328 74.2114 47.4081 73.4075 45.593C73.0094 44.6943 72.0251 43.8793 70.0823 42.8397C67.8864 41.6645 66.5536 40.683 66.2313 40.0037C65.9416 39.3928 65.8781 39.3731 65.5116 39.7802ZM5.66028 46.0797C5.28009 46.5057 4.8993 48.2103 4.8933 49.5127C4.88685 50.9692 5.24857 52.0113 6.22284 53.3418C7.42195 54.9794 9.50931 55.604 13.204 55.4306C15.1548 55.3391 16.7834 54.9614 18.2391 54.2628L19.2078 53.798L18.9917 53.378C18.0165 51.4821 15.6588 49.6369 12.3272 48.1624C10.8258 47.4979 6.32776 45.8156 6.05263 45.8156C5.96648 45.8156 5.78997 45.9345 5.66028 46.0797ZM70.1651 45.9705C70 46.0442 68.9194 46.4557 67.7636 46.8849C64.9914 47.9141 62.8303 48.9437 61.3139 49.9582C59.9845 50.8474 58.5142 52.3226 57.9715 53.3118L57.6352 53.9244L58.5226 54.3248C60.371 55.1588 61.5377 55.3722 64.3115 55.3841C67.2273 55.3965 68.1707 55.2355 69.3524 54.5237C70.2657 53.9735 71.1056 52.8748 71.614 51.5656C72.0281 50.4991 72.0554 48.7224 71.6795 47.3246C71.3026 45.9234 70.9581 45.6155 70.1651 45.9705ZM7.20041 49.4104C7.20041 50.7797 8.19403 52.402 9.26661 52.7839C10.0027 53.0459 14.9079 53.0663 15.1644 52.8084C15.5496 52.4212 12.733 50.813 9.4077 49.5213C8.43404 49.1431 7.53902 48.8336 7.41894 48.8336C7.2657 48.8336 7.20041 49.0061 7.20041 49.4104ZM67.0132 49.719C65.8574 50.1966 64.6754 50.7106 64.3865 50.861C63.603 51.2687 61.5347 52.6516 61.5347 52.7675C61.5347 53.0808 65.7806 53.174 67.1184 52.8902C68.5004 52.597 69.6398 51.0244 69.6398 49.4104C69.6398 48.9584 69.5829 48.8355 69.3771 48.8421C69.2328 48.8466 68.1689 49.2412 67.0132 49.719ZM22.0484 51.0351C21.7182 51.3898 21.6859 51.5464 21.6997 52.7328C21.7353 55.7835 23.134 58.6934 25.0882 59.7817L25.8872 60.2267H38.4201H50.953L51.7574 59.7788C52.757 59.2221 53.4489 58.423 54.1133 57.0578C54.8087 55.6286 55.1255 54.2966 55.1419 52.7319C55.1543 51.5455 55.1219 51.388 54.7918 51.0342L54.4279 50.6445H38.4201H22.4124L22.0484 51.0351ZM0.0551469 53.587C0.055297 54.749 0.0788619 55.2044 0.10738 54.599C0.136048 53.9937 0.135748 53.043 0.10708 52.4864C0.0782615 51.9298 0.0548467 52.4251 0.0551469 53.587ZM24.0133 53.2475C24.0191 53.7476 24.4987 55.4064 24.8238 56.0517C25.0243 56.4495 25.4641 57.0255 25.8009 57.3313L26.4134 57.8877H38.4201H50.4268L51.0393 57.3313C51.3761 57.0255 51.8159 56.4495 52.0164 56.0517C52.3415 55.4064 52.8211 53.7476 52.827 53.2475C52.8288 53.098 49.8485 53.0589 38.4201 53.0589C26.9917 53.0589 24.0115 53.098 24.0133 53.2475ZM4.86208 58.7723C5.0539 60.6705 5.96318 62.0799 7.5006 62.862C8.17242 63.2038 13.8349 65.131 14.1672 65.131C14.3316 65.131 14.0788 64.3239 13.6777 63.5679C13.0289 62.3446 11.4278 60.9927 9.60687 60.1307C8.73738 59.719 7.29136 59.0196 6.39335 58.5764L4.76092 57.7705L4.86208 58.7723ZM70.4653 58.5669C69.6398 58.982 68.3227 59.6115 67.5385 59.9655C65.7657 60.7658 64.2691 61.8795 63.4831 62.983C62.8929 63.8116 62.4495 64.8937 62.6269 65.0721C62.7953 65.2414 69.1409 63.0164 69.8651 62.5343C70.8449 61.8818 71.542 60.7675 71.8253 59.4008C72.1802 57.6899 72.1935 57.698 70.4653 58.5669ZM21.9847 62.9616C20.734 63.224 19.3016 63.8976 19.2364 64.2541C19.2105 64.3941 19.3288 64.6488 19.499 64.82C19.8081 65.1307 19.8235 65.131 38.4201 65.131C57.0167 65.131 57.0322 65.1307 57.3412 64.82C57.8029 64.3558 57.6483 64.0442 56.7317 63.5915C54.9508 62.712 55.0216 62.7153 38.3138 62.7289C25.5285 62.7392 22.864 62.7771 21.9847 62.9616ZM5.01593 70.3517C5.07597 70.6757 5.26253 71.2631 5.43079 71.6574L5.73638 72.3742H11.1051H16.4737L16.56 72.0283C16.6076 71.8382 16.6916 71.295 16.747 70.8211L16.8477 69.9598L11.2362 69.9577C8.14961 69.9566 5.46291 69.9123 5.26569 69.8591C4.92032 69.7662 4.91101 69.7846 5.01593 70.3517ZM65.7545 69.9221L59.9928 69.9634L60.0933 70.8229C60.1486 71.2957 60.2326 71.8382 60.2802 72.0283L60.3665 72.3742H65.7351H71.1038L71.4094 71.6574C71.8389 70.6508 71.985 69.7983 71.7203 69.8448C71.608 69.8646 68.9233 69.8993 65.7545 69.9221Z" fill="black"/>
<mask id="mask0_486_125" style="mask-type:alpha" maskUnits="userSpaceOnUse" x="0" y="0" width="77" height="75">
<path fill-rule="evenodd" clip-rule="evenodd" d="M64.3115 0.144523C62.6898 0.57097 62.041 1.0611 58.7162 4.37051L55.5224 7.54969L54.8159 6.83925L54.1092 6.12896L52.3555 7.88741L50.6018 9.64601L50.1424 9.45466C49.5369 9.20251 49.0419 9.34466 48.3561 9.96758L47.7931 10.479L46.5727 10.1236C43.4156 9.20432 39.9602 9.63273 37.1443 11.2923C35.7807 12.0962 33.699 14.189 32.8995 15.56C30.0981 20.3642 30.9269 26.4156 34.917 30.2884C37.3279 32.6282 39.8463 33.6464 43.2231 33.6464C46.6977 33.6464 49.4188 32.4957 51.794 30.0222C53.3587 28.3926 54.2565 26.7921 54.8696 24.5383C55.2953 22.9742 55.2324 20.0037 54.7387 18.3557L54.3558 17.077L54.8645 16.5109C55.4841 15.8215 55.6255 15.3238 55.3747 14.7151L55.1843 14.2532L56.9335 12.49L58.6826 10.7269L57.9715 10.0119L57.2603 9.29697L60.4042 6.13348C64.033 2.48213 64.3259 2.28958 66.1151 2.38042C66.9938 2.42509 67.3275 2.51895 67.9244 2.89002C68.9443 3.52395 69.5346 4.51975 69.6117 5.73601C69.6679 6.6224 69.631 6.74554 68.8803 8.17216C68.4457 8.99864 67.9565 9.93408 67.7935 10.2511C67.6216 10.5849 67.4678 11.2513 67.4277 11.8356C67.2988 13.717 68.3349 15.4931 70.058 16.3438C70.8692 16.7442 71.0443 16.7699 73.2912 16.8183C75.9396 16.8754 76.4124 16.7723 76.6997 16.0751C76.9316 15.5123 76.6829 14.842 76.1517 14.5987C75.931 14.4976 74.912 14.4281 73.6478 14.4279C71.2322 14.4278 70.7215 14.2766 70.1306 13.3873C69.5466 12.5083 69.6547 11.7316 70.6009 10.01C71.047 9.19828 71.5191 8.26481 71.6502 7.93539C72.2311 6.47603 72.0822 4.64741 71.2545 3.07261C70.2984 1.25319 68.4832 0.128679 66.3175 0.0138431C65.5497 -0.0269001 64.7703 0.0239534 64.3115 0.144523ZM6.82922 3.40021C6.60363 4.08319 6.52468 4.16392 5.8416 4.4108C5.43319 4.55853 5.09908 4.7203 5.09908 4.77055C5.09908 4.8208 5.43319 4.98256 5.8416 5.13029C6.52468 5.37717 6.60363 5.4579 6.82922 6.14088C6.96416 6.54922 7.13106 6.88316 7.20041 6.88316C7.26975 6.88316 7.43726 6.54771 7.57264 6.13771C7.80139 5.44522 7.87148 5.37475 8.56026 5.14478C8.96807 5.00867 9.30173 4.84026 9.30173 4.77055C9.30173 4.70083 8.96807 4.53242 8.56026 4.39631C7.87148 4.16634 7.80139 4.09587 7.57264 3.40338C7.43726 2.99338 7.26975 2.65793 7.20041 2.65793C7.13106 2.65793 6.96416 2.99187 6.82922 3.40021ZM19.5598 7.13064L18.8116 9.18893L16.7583 9.95656C15.6291 10.3786 14.7051 10.7612 14.7051 10.8066C14.7051 10.852 15.6291 11.2345 16.7583 11.6566L18.8116 12.4242L19.5598 14.4825C19.9714 15.6146 20.3534 16.5408 20.4087 16.5408C20.4641 16.5408 20.8467 15.6131 21.2589 14.4792L22.0085 12.4175L24.0604 11.6672C25.189 11.2546 26.1123 10.8672 26.1123 10.8066C26.1123 10.7459 25.189 10.3586 24.0604 9.946L22.0085 9.19572L21.2589 7.13396C20.8467 6.00009 20.4641 5.07235 20.4087 5.07235C20.3534 5.07235 19.9714 5.99858 19.5598 7.13064ZM52.3046 11.2585L50.5122 13.0653L50.0519 12.6168L49.5917 12.1683L45.2917 16.5049C42.4417 19.3793 40.957 20.9843 40.8884 21.2646C40.7466 21.8451 40.9078 22.719 41.2411 23.177C41.8309 23.9869 43.1098 24.3146 43.9436 23.8695C44.1665 23.7504 46.225 21.7619 48.5183 19.4503L52.6878 15.2475L52.2294 14.8061L51.7712 14.3645L53.578 12.5436L55.385 10.7225L54.741 10.0872L54.0971 9.4518L52.3046 11.2585ZM40.854 12.3185C39.1254 12.7737 37.7526 13.5731 36.4672 14.8728C32.6632 18.7191 32.6626 24.6415 36.4659 28.465C39.506 31.5215 43.9224 32.1864 47.771 30.1669C49.2233 29.405 50.9153 27.7039 51.6732 26.2438C52.7117 24.2434 53.0722 21.8821 52.6567 19.8024L52.4844 18.9392L49.167 22.2484C45.2955 26.1107 44.8673 26.4033 43.073 26.4119C41.6907 26.4185 40.7014 26.0206 39.8008 25.0957C38.8744 24.1443 38.4977 23.1906 38.5081 21.8224C38.5216 20.0001 38.7364 19.6811 42.5821 15.7706L45.9367 12.3597L45.0803 12.1867C43.8334 11.935 42.1051 11.9889 40.854 12.3185ZM5.47357 18.3272L5.06411 19.51L3.88076 19.9424C3.22995 20.1804 2.69756 20.4152 2.69756 20.4643C2.69756 20.5133 3.22995 20.7481 3.88076 20.9861L5.06411 21.4186L5.47357 22.6013C5.69886 23.2518 5.93556 23.7841 5.99965 23.7841C6.06374 23.7841 6.29969 23.2541 6.52393 22.6064L6.93174 21.4287L8.11673 21.0054C8.76845 20.7725 9.30173 20.529 9.30173 20.4643C9.30173 20.3995 8.76845 20.156 8.11673 19.9231L6.93174 19.4998L6.52393 18.3221C6.29969 17.6744 6.06374 17.1444 5.99965 17.1444C5.93556 17.1444 5.69886 17.6767 5.47357 18.3272ZM24.6864 21.9217C20.261 22.1862 17.584 22.5538 16.6703 23.0225C14.9442 23.9078 12.0759 28.3621 10.6484 32.3741L10.1612 33.7435H9.59036H9.0194L9.38579 32.6608C9.58721 32.0654 9.75202 31.5123 9.75202 31.4319C9.75202 31.1914 4.57435 31.4222 3.52309 31.7095C1.38904 32.2931 -0.0107447 33.7606 6.2133e-05 35.4035C0.00336422 35.9195 0.480215 36.9173 0.91609 37.32C1.78004 38.1186 3.56676 38.5635 5.93346 38.5694C6.67898 38.5712 7.23388 38.5001 7.37977 38.3838C7.51005 38.2801 7.76491 37.7367 7.94608 37.1765L8.27553 36.158H8.9388C9.30353 36.158 9.60117 36.2088 9.60027 36.2711C9.59682 36.5159 9.16229 37.8121 8.937 38.2504C8.55561 38.9916 7.98405 39.4309 6.22479 40.3351C1.90296 42.5562 1.08675 43.6882 0.37635 48.4466C-0.432811 53.8654 0.174622 60.842 1.94049 66.4136C2.19385 67.2129 2.40473 68.2768 2.45306 68.9992C2.61336 71.3894 3.36354 73.4002 4.4142 74.2555L4.97645 74.7132L11.079 74.7607C16.6085 74.8037 17.2273 74.7839 17.6668 74.5498C18.4381 74.1388 18.8376 73.0868 19.1373 70.6766L19.2264 69.9598H38.4201H57.6138L57.7029 70.6766C58.0027 73.0868 58.4021 74.1388 59.1734 74.5498C59.6129 74.7839 60.2317 74.8037 65.7612 74.7607L71.8638 74.7132L72.4404 74.2458C72.7574 73.9889 73.2085 73.3925 73.4425 72.9208C73.9217 71.9543 74.4379 69.6728 74.4409 68.5077C74.4419 68.0766 74.571 67.4425 74.7327 67.0741C75.4246 65.498 76.4673 60.1278 76.6416 57.2443C76.6958 56.3473 76.7972 55.578 76.8672 55.5346C76.9373 55.4911 76.9945 54.5388 76.9945 53.4183C76.9945 52.0987 76.9416 51.4141 76.8444 51.4744C76.7516 51.5321 76.694 51.2619 76.6934 50.7665C76.6923 49.803 76.3339 47.331 75.9981 45.9709C75.4515 43.7573 74.3735 42.4759 71.9393 41.1463C68.4249 39.2267 68.2628 39.0906 67.8402 37.7039C67.6695 37.1441 67.4936 36.5672 67.449 36.422C67.3813 36.2011 67.4658 36.158 67.9664 36.158H68.5647L68.8971 37.1765C69.08 37.7367 69.2962 38.2801 69.3781 38.3838C69.721 38.8196 73.617 38.5185 74.8751 37.959C75.7796 37.5567 76.1975 37.1492 76.6348 36.2429C76.9841 35.5192 77.1288 34.5477 76.8627 34.7131C76.7902 34.7581 76.6907 34.5928 76.6414 34.3456C76.5202 33.7362 75.4713 32.6255 74.6306 32.2164C74.2521 32.0322 73.5652 31.7865 73.1045 31.6705C72.097 31.4171 67.0882 31.2193 67.0882 31.4329C67.0882 31.5128 67.253 32.0654 67.4544 32.6608L67.8208 33.7435H67.1904H66.5602L66.2062 32.7512C65.6995 31.3308 63.707 27.4146 62.6804 25.8212C61.2321 23.5734 60.4833 22.9407 58.8632 22.5954C57.6373 22.3342 57.6693 22.3138 57.5359 23.4445C57.4697 24.0048 57.4136 24.5256 57.4113 24.6021C57.409 24.6785 57.793 24.8185 58.2646 24.9133C58.7363 25.0079 59.2678 25.217 59.4458 25.3779C59.6237 25.5388 60.2386 26.3833 60.8121 27.2548C62.8275 30.317 64.9893 35.3686 64.7754 36.5154C64.6429 37.2257 64.1109 37.9603 63.4883 38.2929C62.9854 38.5617 62.0182 38.5724 38.3024 38.5724C11.5036 38.5724 13.2749 38.6291 12.4537 37.7438C11.6096 36.8335 12.1842 33.9764 13.908 30.5129C14.8458 28.6288 16.0453 26.8099 16.9902 25.8398C17.7184 25.0919 17.8615 25.013 18.7712 24.8579C20.3555 24.5875 22.6686 24.393 25.847 24.2629C27.476 24.1962 28.8409 24.1093 28.8802 24.0696C28.9197 24.03 28.9112 23.5082 28.8612 22.9099L28.7705 21.8224L27.1037 21.8495C26.1869 21.8645 25.0992 21.8969 24.6864 21.9217ZM4.79889 33.848C3.5498 34.0588 2.39738 34.7401 2.39738 35.2679C2.39738 35.74 3.31656 36.0486 4.77758 36.0668L6.03192 36.0825L6.46194 34.913L6.89196 33.7435L6.03312 33.7641C5.56062 33.7754 5.00527 33.8131 4.79889 33.848ZM70.3699 34.8902L70.8083 36.0825L72.0626 36.0668C74.22 36.0398 75.0356 35.4084 73.955 34.602C73.2649 34.0868 72.5992 33.8922 71.1741 33.7885L69.9316 33.6981L70.3699 34.8902ZM0.0336834 35.328C0.0353344 35.66 0.0661038 35.778 0.101976 35.5903C0.137849 35.4025 0.136498 35.1309 0.0989746 34.9867C0.0614509 34.8424 0.0320323 34.996 0.0336834 35.328ZM65.5116 39.7802C65.362 39.9465 64.8618 40.2691 64.4002 40.497L63.561 40.9113L38.7203 40.9516C21.2421 40.9799 13.6458 40.9432 13.0906 40.8274C12.6566 40.7371 11.9638 40.4346 11.5511 40.1555L10.8006 39.6477L10.581 40.0746C10.2521 40.714 9.39134 41.3304 7.20041 42.4958C4.88294 43.7285 4.18065 44.2523 3.66898 45.1301C2.17929 47.6859 1.99182 56.5429 3.30335 62.4147C3.92414 65.1939 4.46103 66.6136 5.12745 67.2378C5.45586 67.5454 5.45751 67.5454 38.4369 67.5454H71.418L71.8492 67.1805C72.754 66.4151 73.8997 61.7232 74.3055 57.1214C74.6575 53.1328 74.2114 47.4081 73.4075 45.593C73.0094 44.6943 72.0251 43.8793 70.0823 42.8397C67.8864 41.6645 66.5536 40.683 66.2313 40.0037C65.9416 39.3928 65.8781 39.3731 65.5116 39.7802ZM5.66028 46.0797C5.28009 46.5057 4.8993 48.2103 4.8933 49.5127C4.88685 50.9692 5.24857 52.0113 6.22284 53.3418C7.42195 54.9794 9.50931 55.604 13.204 55.4306C15.1548 55.3391 16.7834 54.9614 18.2391 54.2628L19.2078 53.798L18.9917 53.378C18.0165 51.4821 15.6588 49.6369 12.3272 48.1624C10.8258 47.4979 6.32776 45.8156 6.05263 45.8156C5.96648 45.8156 5.78997 45.9345 5.66028 46.0797ZM70.1651 45.9705C70 46.0442 68.9194 46.4557 67.7636 46.8849C64.9914 47.9141 62.8303 48.9437 61.3139 49.9582C59.9845 50.8474 58.5142 52.3226 57.9715 53.3118L57.6352 53.9244L58.5226 54.3248C60.371 55.1588 61.5377 55.3722 64.3115 55.3841C67.2273 55.3965 68.1707 55.2355 69.3524 54.5237C70.2657 53.9735 71.1056 52.8748 71.614 51.5656C72.0281 50.4991 72.0554 48.7224 71.6795 47.3246C71.3026 45.9234 70.9581 45.6155 70.1651 45.9705ZM7.20041 49.4104C7.20041 50.7797 8.19403 52.402 9.26661 52.7839C10.0027 53.0459 14.9079 53.0663 15.1644 52.8084C15.5496 52.4212 12.733 50.813 9.4077 49.5213C8.43404 49.1431 7.53902 48.8336 7.41894 48.8336C7.2657 48.8336 7.20041 49.0061 7.20041 49.4104ZM67.0132 49.719C65.8574 50.1966 64.6754 50.7106 64.3865 50.861C63.603 51.2687 61.5347 52.6516 61.5347 52.7675C61.5347 53.0808 65.7806 53.174 67.1184 52.8902C68.5004 52.597 69.6398 51.0244 69.6398 49.4104C69.6398 48.9584 69.5829 48.8355 69.3772 48.8421C69.2328 48.8466 68.1689 49.2412 67.0132 49.719ZM22.0484 51.0351C21.7182 51.3898 21.6859 51.5464 21.6997 52.7328C21.7353 55.7835 23.134 58.6934 25.0882 59.7817L25.8872 60.2267H38.4201H50.953L51.7574 59.7788C52.757 59.2221 53.4489 58.423 54.1133 57.0578C54.8087 55.6286 55.1255 54.2966 55.1419 52.7319C55.1543 51.5455 55.1219 51.388 54.7918 51.0342L54.4279 50.6445H38.4201H22.4124L22.0484 51.0351ZM0.0551469 53.587C0.055297 54.749 0.0788619 55.2044 0.10738 54.599C0.136048 53.9937 0.135748 53.043 0.10708 52.4864C0.0782615 51.9298 0.0548467 52.4251 0.0551469 53.587ZM24.0133 53.2475C24.0191 53.7476 24.4987 55.4064 24.8238 56.0517C25.0243 56.4495 25.4641 57.0255 25.8009 57.3313L26.4134 57.8877H38.4201H50.4268L51.0393 57.3313C51.3761 57.0255 51.8159 56.4495 52.0164 56.0517C52.3415 55.4064 52.8211 53.7476 52.827 53.2475C52.8288 53.098 49.8485 53.0589 38.4201 53.0589C26.9917 53.0589 24.0115 53.098 24.0133 53.2475ZM4.86208 58.7723C5.0539 60.6705 5.96318 62.0799 7.5006 62.862C8.17242 63.2038 13.8349 65.131 14.1672 65.131C14.3316 65.131 14.0788 64.3239 13.6777 63.5679C13.0289 62.3446 11.4278 60.9927 9.60687 60.1307C8.73738 59.719 7.29136 59.0196 6.39335 58.5764L4.76092 57.7705L4.86208 58.7723ZM70.4653 58.5669C69.6398 58.982 68.3227 59.6115 67.5385 59.9655C65.7657 60.7658 64.2691 61.8795 63.4831 62.983C62.8929 63.8116 62.4495 64.8937 62.6269 65.0721C62.7953 65.2414 69.1409 63.0164 69.8651 62.5343C70.8449 61.8818 71.542 60.7675 71.8253 59.4008C72.1802 57.6899 72.1935 57.698 70.4653 58.5669ZM21.9847 62.9616C20.734 63.224 19.3016 63.8976 19.2364 64.2541C19.2105 64.3941 19.3288 64.6488 19.499 64.82C19.8081 65.1307 19.8235 65.131 38.4201 65.131C57.0167 65.131 57.0322 65.1307 57.3412 64.82C57.8029 64.3558 57.6483 64.0442 56.7317 63.5915C54.9508 62.712 55.0216 62.7153 38.3138 62.7289C25.5285 62.7392 22.864 62.7771 21.9847 62.9616ZM5.01593 70.3517C5.07597 70.6757 5.26253 71.2631 5.43079 71.6574L5.73638 72.3742H11.1051H16.4737L16.56 72.0283C16.6076 71.8382 16.6916 71.295 16.747 70.8211L16.8477 69.9598L11.2362 69.9577C8.14961 69.9566 5.46291 69.9123 5.26569 69.8591C4.92032 69.7662 4.91101 69.7846 5.01593 70.3517ZM65.7545 69.9221L59.9928 69.9634L60.0933 70.8229C60.1486 71.2957 60.2326 71.8382 60.2802 72.0283L60.3665 72.3742H65.7351H71.1038L71.4094 71.6574C71.8389 70.6508 71.985 69.7983 71.7203 69.8448C71.608 69.8646 68.9233 69.8993 65.7545 69.9221Z" fill="black"/>
</mask>
<g mask="url(#mask0_486_125)">
<path d="M29 25.5L32 7.5L45.5 -12H74L87 5.5L74 24L64 14.5L56 21L52 36.5L31 34L29 25.5Z" fill="#EDBC18"/>
</g>
</svg>
