<svg width="78" height="78" viewBox="0 0 78 78" fill="none" xmlns="http://www.w3.org/2000/svg">
<path fill-rule="evenodd" clip-rule="evenodd" d="M22.6926 0.165379C21.8247 0.401483 21.0198 0.893505 20.4636 1.52804C20.2273 1.79768 15.5264 9.71226 10.017 19.116L0 36.2138V46.9778V57.7416L0.374018 58.1156C0.684658 58.4266 0.897186 58.49 1.6309 58.4907C3.02139 58.4921 5.37687 58.9005 6.85801 59.397C9.67708 60.3419 12.0016 61.782 14.1059 63.8873C17.3559 67.1389 19.1525 71.114 19.4483 75.7076C19.5371 77.0881 19.5978 77.3488 19.8997 77.6509L20.2486 78H42.6578H65.067L65.4409 77.6258L65.8149 77.2518V72.3603V67.4689L65.4409 67.0949C64.9462 66.5998 64.246 66.5998 63.7514 67.0949L63.3773 67.4689V71.5152V75.5612H42.6757H21.9738L21.8819 75.2183C21.8315 75.0296 21.7881 74.6695 21.7857 74.4181C21.7782 73.653 21.2268 71.297 20.7154 69.8454C18.9549 64.8468 15.2066 60.6212 10.38 58.1932C8.99319 57.4956 6.07173 56.5609 4.64666 56.3588C3.97632 56.2638 3.20513 56.1526 2.93273 56.1117L2.43759 56.0372V46.4533V36.8692L12.1974 20.2052C17.5654 11.04 22.1388 3.35102 22.3605 3.11873C22.5821 2.88629 23.0064 2.62595 23.3031 2.54013C23.662 2.43633 30.2011 2.39914 42.8371 2.42917C61.7487 2.47413 61.8334 2.47566 62.2522 2.78858C62.4837 2.96143 62.8143 3.29219 62.987 3.52372C63.301 3.94441 63.3012 3.95584 63.3773 32.4968C63.4515 60.3035 63.4611 61.0574 63.7437 61.3699C64.1802 61.8524 65.0902 61.8093 65.5011 61.2866L65.8189 60.8826L65.7788 32.2119L65.7388 3.54125L65.3282 2.76282C64.7201 1.60944 64.261 1.13479 63.1947 0.556345L62.2347 0.0355146L42.8102 0.0062493C27.783 -0.0164618 23.2287 0.0196626 22.6926 0.165379ZM34.5003 11.308C34.2644 11.5438 34.1263 11.8562 34.1263 12.1532C34.1263 12.4501 34.2644 12.7625 34.5003 12.9983C34.8231 13.3215 35.0157 13.373 35.9095 13.3756C36.4788 13.3773 37.423 13.4477 38.0075 13.5323C39.2754 13.7155 39.803 13.5553 40.072 12.9052C40.3034 12.3463 40.1608 11.7634 39.7227 11.4778C39.3334 11.2241 37.2602 10.9338 35.8373 10.9338C35.0178 10.9338 34.8184 10.9896 34.5003 11.308ZM45.1827 13.7286C44.4356 14.4761 44.7095 15.3073 45.9007 15.9064C46.3377 16.1262 47.2778 16.6835 47.9901 17.1446C54.1867 21.1568 58.0235 27.7997 58.449 35.2531C58.5407 36.8591 58.5914 37.1013 58.9012 37.4112C59.3706 37.8808 60.082 37.8702 60.5657 37.3861C60.9989 36.9529 61.0456 36.1917 60.7809 33.8797C59.8328 25.5998 55.0959 18.3554 47.9578 14.2685C46.2716 13.3032 45.7161 13.1951 45.1827 13.7286ZM32.8013 17.1815C30.3247 17.5326 27.5291 18.5196 25.4216 19.7868C23.6864 20.8302 22.7813 21.5586 21.2678 23.1292C17.1256 27.4281 15.2001 33.404 16.0619 39.2845C16.6899 43.5682 18.5106 47.1736 21.614 50.2786C26.9637 55.631 34.4293 57.3767 41.6372 54.9606L43.0034 54.5026L45.6209 57.106C48.6641 60.1326 48.7258 60.161 49.9045 59.0741L50.5933 58.4388L53.0727 60.9031C56.0743 63.8864 56.0253 63.8694 57.5245 62.4292L58.5009 61.491L60.025 62.9708C62.0458 64.9324 63.0314 65.426 64.9008 65.4123C66.5691 65.3999 67.641 64.9974 68.7816 63.9544C70.0024 62.838 70.5004 61.7299 70.6892 59.7092C70.8144 58.3674 70.9247 57.9336 71.3714 57.0252C72.3117 55.1132 74.1343 53.8584 76.2597 53.6598C77.0624 53.5848 77.386 53.4812 77.654 53.2131C78.1321 52.7348 78.1129 52.0318 77.6078 51.5265C77.2343 51.1529 77.1529 51.1363 76.1224 51.2244C72.6705 51.5198 69.7178 53.8815 68.6485 57.2022C68.5121 57.6256 68.3438 58.5858 68.2743 59.3361C68.1392 60.798 67.9212 61.3709 67.2415 62.051C66.3649 62.9281 65.2145 63.2319 64.0241 62.9005C63.4371 62.7373 63.0151 62.4207 61.7794 61.2171L60.2575 59.7348L61.208 58.7444C62.6624 57.2291 62.6808 57.2839 59.6955 54.2772L57.2323 51.7965L57.8673 51.1074C58.9537 49.9281 58.9254 49.8663 55.9002 46.8217L53.2981 44.2029L53.7559 42.8361C55.1371 38.7112 55.1733 34.5342 53.8624 30.5304C52.8604 27.4702 51.4257 25.1538 49.0762 22.8031C46.301 20.0266 43.2537 18.3374 39.4585 17.4718C37.9696 17.1322 34.2827 16.9714 32.8013 17.1815ZM32.6028 19.6946C25.3426 20.9269 19.6816 26.6197 18.506 33.87C17.5225 39.937 19.9887 46.192 24.8448 49.947C28.6513 52.8901 33.3944 54.1412 37.935 53.3997C39.3991 53.1605 40.982 52.7293 40.982 52.5696C40.982 52.511 40.3438 51.8273 39.5639 51.0502L38.1458 49.6374L37.0121 49.8148C31.4317 50.6882 25.4571 47.3108 23.0821 41.9405C22.293 40.1561 22.023 38.7798 22.023 36.5409C22.023 34.3019 22.293 32.9257 23.0821 31.1413C26.8469 22.6284 37.9819 20.4581 44.6454 26.9382C47.691 29.9001 49.2287 34.2682 48.6126 38.2087L48.4352 39.343L49.8473 40.7618C50.624 41.542 51.3075 42.1805 51.366 42.1805C51.5256 42.1805 51.9566 40.5969 52.1957 39.1321C53.6812 30.0271 47.2612 21.194 38.0745 19.7034C36.3789 19.4283 34.1927 19.4248 32.6028 19.6946ZM33.136 25.785C30.8303 26.3255 29.2872 27.1801 27.638 28.8301C26.2672 30.2016 25.4679 31.4916 24.8596 33.3145C24.518 34.3379 24.4696 34.7391 24.4696 36.5409C24.4696 38.3427 24.518 38.7439 24.8596 39.7672C25.4679 41.5902 26.2672 42.8802 27.638 44.2517C29.6118 46.2265 31.8751 47.2713 34.5975 47.4646C36.0104 47.565 36.2014 47.4814 35.6665 46.9971C35.2137 46.5871 34.4739 44.9411 34.2704 43.8906C33.4728 39.7759 36.5642 35.749 40.8164 35.3633C42.4276 35.2171 44.5662 35.8285 45.6506 36.7456C45.9141 36.9683 46.1815 37.1506 46.2447 37.1506C46.4724 37.1506 46.1596 34.4111 45.8038 33.2908C45.2438 31.5262 44.4327 30.2114 43.0521 28.8301C40.9345 26.7114 38.6902 25.7306 35.7259 25.6284C34.627 25.5906 33.7355 25.6444 33.136 25.785ZM10.1244 35.6957C9.80612 36.014 9.75036 36.2135 9.75036 37.0334C9.75036 41.6506 11.6674 47.3701 14.5894 51.4709C15.8221 53.2009 18.2083 55.6541 19.8816 56.9118C22.0072 58.5093 24.6663 59.9827 26.3171 60.4776C27.9 60.9521 28.7389 59.0329 27.2675 58.3031C26.9759 58.1585 26.1241 57.7622 25.3747 57.4226C21.5843 55.7052 17.7274 52.1774 15.4481 48.343C13.546 45.1433 12.4556 41.5289 12.2341 37.6901C12.1496 36.2243 12.095 35.9768 11.7889 35.6705C11.3196 35.2009 10.6081 35.2116 10.1244 35.6957ZM39.8138 38.0331C37.708 38.7861 36.4092 40.7894 36.6077 42.9785C36.7633 44.6958 36.9936 44.9833 43.1102 51.0967L48.7521 56.7357L52.1411 53.3451L55.5301 49.9544L49.8938 44.3097C43.6511 38.0578 43.4753 37.9197 41.6235 37.8113C40.8904 37.7685 40.3784 37.8313 39.8138 38.0331ZM53.8544 55.1376L52.3357 56.6629L54.2 58.5281L56.0644 60.3934L57.6245 58.8326L59.1844 57.272L57.3603 55.4421C56.3569 54.4357 55.4995 53.6123 55.4547 53.6123C55.4099 53.6123 54.6898 54.2986 53.8544 55.1376ZM32.347 59.7296C31.925 59.9444 31.6258 60.6573 31.7501 61.1524C31.9125 61.8003 32.4295 62.0029 34.1723 62.1016C35.7465 62.1908 35.778 62.1859 36.1677 61.7959C36.685 61.2786 36.6938 60.5875 36.1898 60.0834C35.8774 59.7706 35.6683 59.7092 34.9162 59.7092C34.4214 59.7092 33.7155 59.6758 33.3478 59.635C32.9798 59.5943 32.5296 59.6368 32.347 59.7296Z" fill="black"/>
<mask id="mask0_486_131" style="mask-type:alpha" maskUnits="userSpaceOnUse" x="0" y="0" width="78" height="78">
<path fill-rule="evenodd" clip-rule="evenodd" d="M22.6926 0.165379C21.8247 0.401483 21.0198 0.893505 20.4636 1.52804C20.2273 1.79768 15.5264 9.71226 10.017 19.116L0 36.2138V46.9778V57.7416L0.374018 58.1156C0.684658 58.4266 0.897186 58.49 1.6309 58.4907C3.02139 58.4921 5.37687 58.9005 6.85801 59.397C9.67708 60.3419 12.0016 61.782 14.1059 63.8873C17.3559 67.1389 19.1525 71.114 19.4483 75.7076C19.5371 77.0881 19.5978 77.3488 19.8997 77.6509L20.2486 78H42.6578H65.067L65.4409 77.6258L65.8149 77.2518V72.3603V67.4689L65.4409 67.0949C64.9462 66.5998 64.246 66.5998 63.7514 67.0949L63.3773 67.4689V71.5152V75.5612H42.6757H21.9738L21.8819 75.2183C21.8315 75.0296 21.7881 74.6695 21.7857 74.4181C21.7782 73.653 21.2268 71.297 20.7154 69.8454C18.9549 64.8468 15.2066 60.6212 10.38 58.1932C8.99319 57.4956 6.07173 56.5609 4.64666 56.3588C3.97632 56.2638 3.20513 56.1526 2.93273 56.1117L2.43759 56.0372V46.4533V36.8692L12.1974 20.2052C17.5654 11.04 22.1388 3.35102 22.3605 3.11873C22.5821 2.88629 23.0064 2.62595 23.3031 2.54013C23.662 2.43633 30.2011 2.39914 42.8371 2.42917C61.7487 2.47413 61.8334 2.47566 62.2522 2.78858C62.4837 2.96143 62.8143 3.29219 62.987 3.52372C63.301 3.94441 63.3012 3.95584 63.3773 32.4968C63.4515 60.3035 63.4611 61.0574 63.7437 61.3699C64.1802 61.8524 65.0902 61.8093 65.5011 61.2866L65.8189 60.8826L65.7788 32.2119L65.7388 3.54125L65.3282 2.76282C64.7201 1.60944 64.261 1.13479 63.1947 0.556345L62.2347 0.0355146L42.8102 0.0062493C27.783 -0.0164618 23.2287 0.0196626 22.6926 0.165379ZM34.5003 11.308C34.2644 11.5438 34.1263 11.8562 34.1263 12.1532C34.1263 12.4501 34.2644 12.7625 34.5003 12.9983C34.8231 13.3215 35.0157 13.373 35.9095 13.3756C36.4788 13.3773 37.423 13.4477 38.0075 13.5323C39.2754 13.7155 39.803 13.5553 40.072 12.9052C40.3034 12.3463 40.1608 11.7634 39.7227 11.4778C39.3334 11.2241 37.2602 10.9338 35.8373 10.9338C35.0178 10.9338 34.8184 10.9896 34.5003 11.308ZM45.1827 13.7286C44.4356 14.4761 44.7095 15.3073 45.9007 15.9064C46.3377 16.1262 47.2778 16.6835 47.9901 17.1446C54.1867 21.1568 58.0235 27.7997 58.449 35.2531C58.5407 36.8591 58.5914 37.1013 58.9012 37.4112C59.3706 37.8808 60.082 37.8702 60.5657 37.3861C60.9989 36.9529 61.0456 36.1917 60.7809 33.8797C59.8328 25.5998 55.0959 18.3554 47.9578 14.2685C46.2716 13.3032 45.7161 13.1951 45.1827 13.7286ZM32.8013 17.1815C30.3247 17.5326 27.5291 18.5196 25.4216 19.7868C23.6864 20.8302 22.7813 21.5586 21.2678 23.1292C17.1256 27.4281 15.2001 33.404 16.0619 39.2845C16.6899 43.5682 18.5106 47.1736 21.614 50.2786C26.9637 55.631 34.4293 57.3767 41.6372 54.9606L43.0034 54.5026L45.6209 57.106C48.6641 60.1326 48.7258 60.161 49.9045 59.0741L50.5933 58.4388L53.0727 60.9031C56.0743 63.8864 56.0253 63.8694 57.5245 62.4292L58.5009 61.491L60.025 62.9708C62.0458 64.9324 63.0314 65.426 64.9008 65.4123C66.5691 65.3999 67.641 64.9974 68.7816 63.9544C70.0024 62.838 70.5004 61.7299 70.6892 59.7092C70.8144 58.3674 70.9247 57.9336 71.3714 57.0252C72.3117 55.1132 74.1343 53.8584 76.2597 53.6598C77.0624 53.5848 77.386 53.4812 77.654 53.2131C78.1321 52.7348 78.1129 52.0318 77.6078 51.5265C77.2343 51.1529 77.1529 51.1363 76.1224 51.2244C72.6705 51.5198 69.7178 53.8815 68.6485 57.2022C68.5121 57.6256 68.3438 58.5858 68.2743 59.3361C68.1392 60.798 67.9212 61.3709 67.2415 62.051C66.3649 62.9281 65.2145 63.2319 64.0241 62.9005C63.4371 62.7373 63.0151 62.4207 61.7794 61.2171L60.2575 59.7348L61.208 58.7444C62.6624 57.2291 62.6808 57.2839 59.6955 54.2772L57.2323 51.7965L57.8673 51.1074C58.9537 49.9281 58.9254 49.8663 55.9002 46.8217L53.2981 44.2029L53.7559 42.8361C55.1371 38.7112 55.1733 34.5342 53.8624 30.5304C52.8604 27.4702 51.4257 25.1538 49.0762 22.8031C46.301 20.0266 43.2537 18.3374 39.4585 17.4718C37.9696 17.1322 34.2827 16.9714 32.8013 17.1815ZM32.6028 19.6946C25.3426 20.9269 19.6816 26.6197 18.506 33.87C17.5225 39.937 19.9887 46.192 24.8448 49.947C28.6513 52.8901 33.3944 54.1412 37.935 53.3997C39.3991 53.1605 40.982 52.7293 40.982 52.5696C40.982 52.511 40.3438 51.8273 39.5639 51.0502L38.1458 49.6374L37.0121 49.8148C31.4317 50.6882 25.4571 47.3108 23.0821 41.9405C22.293 40.1561 22.023 38.7798 22.023 36.5409C22.023 34.3019 22.293 32.9257 23.0821 31.1413C26.8469 22.6284 37.9819 20.4581 44.6454 26.9382C47.691 29.9001 49.2287 34.2682 48.6126 38.2087L48.4352 39.343L49.8473 40.7618C50.624 41.542 51.3075 42.1805 51.366 42.1805C51.5256 42.1805 51.9566 40.5969 52.1957 39.1321C53.6812 30.0271 47.2612 21.194 38.0745 19.7034C36.3789 19.4283 34.1927 19.4248 32.6028 19.6946ZM33.136 25.785C30.8303 26.3255 29.2872 27.1801 27.638 28.8301C26.2672 30.2016 25.4679 31.4916 24.8596 33.3145C24.518 34.3379 24.4696 34.7391 24.4696 36.5409C24.4696 38.3427 24.518 38.7439 24.8596 39.7672C25.4679 41.5902 26.2672 42.8802 27.638 44.2517C29.6118 46.2265 31.8751 47.2713 34.5975 47.4646C36.0104 47.565 36.2014 47.4814 35.6665 46.9971C35.2137 46.5871 34.4739 44.9411 34.2704 43.8906C33.4728 39.7759 36.5642 35.749 40.8164 35.3633C42.4276 35.2171 44.5662 35.8285 45.6506 36.7456C45.9141 36.9683 46.1815 37.1506 46.2447 37.1506C46.4724 37.1506 46.1596 34.4111 45.8038 33.2908C45.2438 31.5262 44.4327 30.2114 43.0521 28.8301C40.9345 26.7114 38.6902 25.7306 35.7259 25.6284C34.627 25.5906 33.7355 25.6444 33.136 25.785ZM10.1244 35.6957C9.80612 36.014 9.75036 36.2135 9.75036 37.0334C9.75036 41.6506 11.6674 47.3701 14.5894 51.4709C15.8221 53.2009 18.2083 55.6541 19.8816 56.9118C22.0072 58.5093 24.6663 59.9827 26.3171 60.4776C27.9 60.9521 28.7389 59.0329 27.2675 58.3031C26.9759 58.1585 26.1241 57.7622 25.3747 57.4226C21.5843 55.7052 17.7274 52.1774 15.4481 48.343C13.546 45.1433 12.4556 41.5289 12.2341 37.6901C12.1496 36.2243 12.095 35.9768 11.7889 35.6705C11.3196 35.2009 10.6081 35.2116 10.1244 35.6957ZM39.8138 38.0331C37.708 38.7861 36.4092 40.7894 36.6077 42.9785C36.7633 44.6958 36.9936 44.9833 43.1102 51.0967L48.7521 56.7357L52.1411 53.3451L55.5301 49.9544L49.8938 44.3097C43.6511 38.0578 43.4753 37.9197 41.6235 37.8113C40.8904 37.7685 40.3784 37.8313 39.8138 38.0331ZM53.8544 55.1376L52.3357 56.6629L54.2 58.5281L56.0644 60.3934L57.6245 58.8326L59.1844 57.272L57.3603 55.4421C56.3569 54.4357 55.4995 53.6123 55.4547 53.6123C55.4099 53.6123 54.6898 54.2986 53.8544 55.1376ZM32.347 59.7296C31.925 59.9444 31.6258 60.6573 31.7501 61.1524C31.9125 61.8003 32.4295 62.0029 34.1723 62.1016C35.7465 62.1908 35.778 62.1859 36.1677 61.7959C36.685 61.2786 36.6938 60.5875 36.1898 60.0834C35.8774 59.7706 35.6683 59.7092 34.9162 59.7092C34.4214 59.7092 33.7155 59.6758 33.3478 59.635C32.9798 59.5943 32.5296 59.6368 32.347 59.7296Z" fill="black"/>
</mask>
<g mask="url(#mask0_486_131)">
<path d="M14 41.5V29.5L17.5 20.5L37 15L52.5 21.5L56 35.5L59 41.5L62.5 54.5V61L64.5 62L66 61.5L67 58.5L68.5 44.5L88 40.5L82 57L75.5 66.5L59 65L52.5 66.5L40 58.5L30.5 57L20 50.5L14 41.5Z" fill="#EDBC18"/>
</g>
</svg>
