<svg width="88" height="62" viewBox="0 0 88 62" fill="none" xmlns="http://www.w3.org/2000/svg">
<path fill-rule="evenodd" clip-rule="evenodd" d="M39.6032 0.828095C37.2808 2.42725 33.4783 4.06407 30.0485 4.94071C29.2269 5.1506 28.4469 5.41203 28.3153 5.52136C28.1244 5.68005 28.0885 6.92728 28.1383 11.6761C28.2002 17.5791 28.2051 17.6439 28.6831 18.9688C29.018 19.8972 29.0998 20.3264 28.9512 20.3741C28.8335 20.4118 28.0614 20.6125 27.2352 20.8199C24.4426 21.5214 19.3364 23.8348 15.5159 26.1296C13.0451 27.6138 12.7441 27.7207 10.5965 27.8781C6.3555 28.1888 3.58551 29.6897 1.61193 32.7467C0.186391 34.9547 0.0886895 35.5215 0.0154586 41.998C-0.0579549 48.5072 0.0892374 49.5857 1.36247 51.865C2.97446 54.7505 6.61829 57.0305 9.6182 57.0305C10.3432 57.0305 10.5335 57.1352 11.6223 58.1342C13.7462 60.0825 16.328 61.0696 19.3323 61.0822C21.3326 61.0904 22.8876 60.742 24.5224 59.9191C25.5482 59.4028 27.5063 57.9568 28.0596 57.3069C28.2665 57.0641 30.2103 57.0305 44.0157 57.0305H59.7362L60.9032 58.1232C62.1779 59.3171 64.371 60.4871 66.06 60.8747C67.3933 61.1806 70.1359 61.1356 71.4705 60.7859C73.2226 60.3266 75.1244 59.2958 76.3671 58.1322L77.503 57.0683L79.9655 57.0014C82.3317 56.9371 82.4756 56.9104 83.6554 56.32C85.6693 55.3119 87.1628 53.4704 87.7495 51.2715C88.0965 49.9711 88.0786 43.8227 87.723 42.142C86.8832 38.1731 83.8206 34.8278 79.8711 33.5649C79.3689 33.4044 74.9807 32.6102 70.1195 31.7999L61.281 30.3269L59.7463 28.8723C57.9022 27.1247 55.6636 25.436 53.6396 24.2654C52.8195 23.7909 52.0689 23.3763 51.9714 23.3437C51.8741 23.3112 52.0841 22.8313 52.4382 22.2772C53.1864 21.1064 53.8657 19.5513 54.3078 17.9976C54.7624 16.4008 54.9386 6.41318 54.5237 5.77896C54.317 5.46322 53.8363 5.24895 52.6318 4.93596C49.3106 4.07267 45.6556 2.49728 43.0323 0.798295C42.3 0.324051 41.5779 -0.00612971 41.2868 8.62978e-05C41.0112 0.00611948 40.2621 0.374509 39.6032 0.828095ZM40.5163 2.85086C39.3408 3.70903 35.2108 5.62045 33.0581 6.30257C31.887 6.6737 30.7333 7.05361 30.4945 7.14666L30.0602 7.31596L30.1588 11.9255C30.2651 16.8897 30.3614 17.5097 31.3539 19.6332C32.9673 23.0847 36.1806 26.2852 39.9217 28.1666L41.2868 28.8533L42.2783 28.4144C45.0848 27.1717 48.6373 24.1502 50.2643 21.6219C51.3072 20.0014 52.1215 18.0018 52.3744 16.4401C52.4802 15.7884 52.5671 13.4369 52.5678 11.2145L52.5693 7.17391L51.3366 6.84683C48.5241 6.10091 44.6377 4.42277 42.3847 2.98176C41.8553 2.64317 41.3622 2.37021 41.289 2.37515C41.2156 2.38009 40.8679 2.59417 40.5163 2.85086ZM39.8772 5.38022C38.5901 6.1234 35.2647 7.5646 33.5817 8.10868C31.901 8.65204 31.8937 8.67379 31.9973 12.8786C32.1118 17.5325 32.5568 18.9269 34.8507 21.8166C36.5266 23.9281 40.2335 26.6817 41.3995 26.6817C41.8933 26.6817 43.7907 25.5707 45.209 24.4511C48.0396 22.2166 50.0937 19.0618 50.5497 16.2487C50.8505 14.3927 50.8015 9.29557 50.4785 8.83395C50.3125 8.59664 49.4056 8.17048 48.0425 7.68929C46.8483 7.26769 44.9069 6.43219 43.7285 5.83289C42.55 5.23341 41.4479 4.744 41.2793 4.74528C41.1108 4.74637 40.4798 5.03213 39.8772 5.38022ZM40.5246 7.5061C39.6728 8.02586 36.8625 9.26468 35.403 9.7636L34.2159 10.1695L34.1635 12.3467C34.0928 15.2878 34.3197 16.5806 35.2287 18.4203C35.7943 19.5646 36.3299 20.2948 37.3975 21.3766C38.7743 22.7717 40.8577 24.305 41.3765 24.305C41.8619 24.305 43.8992 22.7783 45.2645 21.3912C47.8982 18.7157 48.603 16.8162 48.5129 12.6376L48.4603 10.2027L46.6341 9.51094C45.6297 9.13049 44.0493 8.43685 43.1223 7.96937C42.1952 7.50207 41.3734 7.11997 41.2961 7.12034C41.2187 7.1207 40.8715 7.2942 40.5246 7.5061ZM28.1894 22.8329C25.1477 23.6054 19.7478 26.0468 16.3443 28.1886C14.2518 29.5053 13.3842 29.7903 10.5665 30.0863C8.46404 30.3071 7.91125 30.4351 6.81096 30.9565C4.55249 32.0266 2.8585 34.1868 2.34825 36.6478C2.2122 37.3033 2.16271 39.507 2.20362 43.0867C2.26206 48.2222 2.28872 48.587 2.67551 49.5539C3.28382 51.0744 4.11566 52.225 5.25704 53.1246C6.60551 54.1874 7.93133 54.6774 9.8704 54.8293L11.4568 54.9536L12.747 56.1719C14.8074 58.1177 16.7948 58.9209 19.515 58.9068C22.1456 58.8933 24.4587 57.8596 26.3251 55.8637L27.2002 54.928H43.9772H60.7544L61.9069 56.0818C63.8651 58.0422 67.1346 59.2984 69.352 58.9423C72.088 58.5029 73.536 57.8172 75.2733 56.1378L76.5247 54.928L79.2936 54.8275C81.6484 54.7419 82.1749 54.668 82.8137 54.3338C83.9134 53.7581 85.2012 52.239 85.5305 51.1291C85.9146 49.8345 85.9109 44.0606 85.525 42.4216C84.8166 39.413 82.5231 36.8049 79.7181 35.8178C79.1961 35.6343 74.826 34.8178 70.0065 34.0035C65.1869 33.189 60.9728 32.4348 60.6415 32.3275C60.3104 32.2202 59.2861 31.4282 58.3653 30.5677C57.4445 29.7071 56.1131 28.5765 55.4063 28.0551C54.1681 27.1417 51.314 25.3566 50.7374 25.1352C50.5616 25.0678 50.2224 25.2756 49.8243 25.6954C49.4759 26.0625 49.2763 26.3945 49.3807 26.4333C49.9034 26.6273 53.6252 28.9407 54.5321 29.6353C55.1024 30.0722 56.2796 31.1008 57.148 31.9209C58.0161 32.7413 59.0556 33.5804 59.4578 33.7857C59.9724 34.0486 62.7783 34.5942 68.9343 35.6282C73.7442 36.4363 78.1316 37.2327 78.6841 37.398C80.7709 38.0225 82.3863 39.4659 83.3811 41.5947C83.871 42.6432 83.8897 42.7955 83.9512 46.2366C84.0219 50.1894 83.918 50.8218 83.0315 51.8324C82.0231 52.9822 81.6675 53.0813 78.2732 53.1585C76.5909 53.1969 75.2143 53.2974 75.2143 53.382C75.2143 53.4667 74.7548 54.0329 74.1932 54.6401C71.8193 57.2071 68.2575 57.8594 65.161 56.2946C64.0808 55.7487 62.349 54.1631 62.151 53.5387C62.0438 53.2003 61.5678 53.1912 44.0807 53.1912H26.1203L25.4666 54.083C22.6646 57.904 17.0452 58.1718 13.779 54.6401C13.2175 54.0329 12.758 53.4702 12.758 53.3899C12.758 53.3095 11.9158 53.1978 10.8861 53.1415C8.80883 53.0279 7.86102 52.7522 6.62779 51.9028C5.6115 51.2028 4.85637 50.1878 4.35599 48.8491C3.99842 47.8922 3.98034 47.5262 4.03056 42.241L4.08352 36.6456L4.5671 35.613C5.16007 34.347 6.22694 33.25 7.48757 32.6105C8.23248 32.2326 8.93794 32.0756 10.7424 31.8862C12.0096 31.7531 13.2896 31.5851 13.5869 31.5125C14.5174 31.286 15.9024 30.611 17.3003 29.7033C19.0951 28.5378 24.8579 25.7576 26.9111 25.0669C27.8151 24.7628 29.0888 24.4184 29.7417 24.3017C31.5186 23.9844 31.4693 24.0286 30.9037 23.2554C30.6272 22.8775 30.3555 22.513 30.2996 22.4455C30.2439 22.3779 29.2943 22.5523 28.1894 22.8329ZM32.8463 26.2644C32.8463 26.4369 33.2336 28.288 33.7071 30.3779L34.5682 34.1775L45.4405 34.1698L56.313 34.1622L54.9726 32.8908C53.4002 31.3993 51.005 29.753 48.8584 28.6881L47.3296 27.9295L46.0687 28.78C44.5418 29.81 42.3851 30.8748 41.5704 31.001C40.476 31.1704 36.8396 29.1641 34.2413 26.9573C33.5894 26.4035 33.0086 25.9504 32.9511 25.9504C32.8934 25.9504 32.8463 26.0918 32.8463 26.2644ZM29.0191 26.7114C27.6184 27.0805 25.7836 27.8017 23.3043 28.9579C21.9283 29.5998 21.8881 29.6369 21.8562 30.298C21.7612 32.2687 22.2086 33.2769 23.424 33.8294C24.0807 34.128 24.6696 34.17 28.2548 34.1735L32.338 34.1775L32.2381 33.7662C32.1832 33.5398 31.7958 31.8328 31.3775 29.9726C30.9589 28.1123 30.5635 26.5368 30.4987 26.4713C30.4339 26.4059 29.768 26.5139 29.0191 26.7114ZM17.8774 31.9048C15.8607 33.1707 14.0018 33.7766 11.4196 34.0097C8.81485 34.2448 8.31137 34.4146 7.34238 35.3845C6.15151 36.5767 6.24209 36.737 8.10702 36.737C9.8872 36.737 10.7181 37.0085 11.6241 37.8863C13.349 39.5577 12.8656 42.5872 10.6929 43.7218C10.0932 44.035 9.52178 44.1381 8.05552 44.1979L6.18365 44.2743V45.832C6.18365 47.8602 6.45466 48.7162 7.39571 49.6598C8.25914 50.5254 9.52689 50.9973 10.989 50.9973H11.8929L11.7932 50.2532C11.5291 48.2816 12.3444 45.9391 13.8488 44.3465C17.755 40.2116 24.4306 41.5404 26.5095 46.8666C26.7416 47.4611 26.8945 48.3597 26.9325 49.3519L26.9918 50.9059L31.7452 50.9547C34.3596 50.9814 36.4987 50.9593 36.4987 50.9053C36.4987 50.8514 36.3033 50.4973 36.0644 50.1185C34.8043 48.1202 33.7112 45.1994 33.143 42.3132C32.8833 40.9939 32.481 37.593 32.481 36.7177C32.481 36.3882 32.2834 36.3714 28.4119 36.3714C23.9327 36.3714 22.9424 36.2233 21.7123 35.3699C20.8176 34.7492 19.9229 33.4416 19.784 32.5515C19.7273 32.1889 19.6231 31.6767 19.5524 31.4132L19.4237 30.9342L17.8774 31.9048ZM34.7556 37.8797C34.9174 39.8964 35.3316 42.3746 35.7866 44.05C36.3188 46.0086 37.777 48.9261 38.7844 50.0477L39.637 50.9973H47.8186H56.0002L56.4549 49.8546C57.488 47.2589 58.1595 43.4397 58.3514 39.068L58.47 36.3714H46.5521H34.6345L34.7556 37.8797ZM60.5409 39.2088C60.3513 43.3862 59.7472 47.0348 58.7886 49.7919C58.5821 50.3858 58.4132 50.9035 58.4132 50.9425C58.4132 50.9814 58.9955 50.9891 59.7076 50.9596L61.0018 50.9059L61.0544 49.3519C61.1169 47.5037 61.5369 46.2788 62.5853 44.8888C65.3221 41.2599 70.7625 40.9162 73.9916 44.1679C75.5187 45.7058 76.4997 48.3617 76.2231 50.209L76.1049 50.9973H78.3195C81.6728 50.9973 81.7747 50.8991 81.7828 47.6608L81.7886 45.3298H80.2688C79.3419 45.3298 78.3981 45.212 77.8491 45.0281C75.2716 44.1641 73.3271 41.9232 72.88 39.3017L72.7408 38.4858L67.0836 37.5314C63.9721 37.0063 61.2542 36.5718 61.0438 36.5656C60.678 36.5548 60.6561 36.6696 60.5409 39.2088ZM6.18365 40.5027V42.0742L7.9138 42.011C9.41093 41.9561 9.69855 41.8927 10.0505 41.5402C10.6495 40.94 10.6044 39.9246 9.95367 39.3642C9.50534 38.9783 9.27232 38.9309 7.81701 38.9309H6.18365V40.5027ZM75.0316 39.1693C75.0316 39.6792 76.0019 41.3201 76.6299 41.872C77.6968 42.8099 78.5942 43.1273 80.1907 43.1319C80.969 43.134 81.606 43.0914 81.606 43.0372C81.606 42.9829 81.4456 42.6236 81.2495 42.2389C80.3622 40.4977 79.113 39.614 76.9548 39.2006C75.2314 38.8704 75.0316 38.8671 75.0316 39.1693ZM37.4949 39.5626C36.9724 40.0855 36.9408 40.3438 37.3309 40.9012C37.6004 41.2866 37.7409 41.3076 40.0477 41.3076C42.7553 41.3076 42.9582 41.2263 42.8572 40.1811C42.7728 39.3068 42.2554 39.1196 39.9146 39.1165C38.063 39.1139 37.9158 39.141 37.4949 39.5626ZM17.8387 44.2942C15.6067 44.9243 13.9596 47.1543 13.9686 49.5347C13.9865 54.3631 19.8002 56.7449 23.2174 53.3239C24.2888 52.2513 24.7122 51.1785 24.7122 49.5347C24.7122 47.9772 24.3329 46.9355 23.3639 45.8305C22.1398 44.4348 19.7221 43.7626 17.8387 44.2942ZM66.8743 44.3769C63.0769 45.7373 61.9425 50.5084 64.7485 53.3175C66.9047 55.4761 70.3281 55.4761 72.4386 53.3177C75.057 50.6399 74.2913 46.2309 70.9243 44.5994C69.7972 44.0529 68.0468 43.9568 66.8743 44.3769ZM17.7801 46.5859C16.6051 47.3163 16.0452 48.2683 16.0452 49.5347C16.0452 51.4463 17.4674 52.8255 19.4386 52.8255C20.973 52.8255 22.3133 51.675 22.6944 50.0307C22.8405 49.4007 22.5198 48.1537 22.0373 47.4756C21.2152 46.3194 18.9649 45.8492 17.7801 46.5859ZM66.9087 46.662C64.8036 47.8555 64.8323 51.2203 66.9576 52.4162C67.7535 52.8639 69.0008 52.9563 69.8607 52.631C71.4724 52.0215 72.3599 49.9742 71.7328 48.3125C71.4948 47.682 70.7264 46.8481 70.0644 46.5018C69.2979 46.1009 67.7604 46.179 66.9087 46.662ZM18.5389 48.7722C17.6016 49.8089 19.0098 51.2176 20.1498 50.3834C20.5455 50.0936 20.6048 49.1455 20.2535 48.7217C19.9297 48.3312 18.9103 48.3612 18.5389 48.7722ZM67.7664 48.6663C67.1278 49.4442 67.6463 50.6316 68.6246 50.6316C69.5751 50.6316 70.112 49.3892 69.4487 48.725C69.106 48.3818 68.0309 48.3443 67.7664 48.6663Z" fill="black"/>
<mask id="mask0_486_137" style="mask-type:alpha" maskUnits="userSpaceOnUse" x="0" y="0" width="88" height="62">
<path fill-rule="evenodd" clip-rule="evenodd" d="M39.6032 0.828095C37.2808 2.42725 33.4783 4.06407 30.0485 4.94071C29.2269 5.1506 28.4469 5.41203 28.3153 5.52136C28.1244 5.68005 28.0885 6.92728 28.1383 11.6761C28.2002 17.5791 28.2051 17.6439 28.6831 18.9688C29.018 19.8972 29.0998 20.3264 28.9512 20.3741C28.8335 20.4118 28.0614 20.6125 27.2352 20.8199C24.4426 21.5214 19.3364 23.8348 15.5159 26.1296C13.0451 27.6138 12.7441 27.7207 10.5965 27.8781C6.3555 28.1888 3.58551 29.6897 1.61193 32.7467C0.186391 34.9547 0.0886895 35.5215 0.0154586 41.998C-0.0579549 48.5072 0.0892374 49.5857 1.36247 51.865C2.97446 54.7505 6.61829 57.0305 9.6182 57.0305C10.3432 57.0305 10.5335 57.1352 11.6223 58.1342C13.7462 60.0825 16.328 61.0696 19.3323 61.0822C21.3326 61.0904 22.8876 60.742 24.5224 59.9191C25.5482 59.4028 27.5063 57.9568 28.0596 57.3069C28.2665 57.0641 30.2103 57.0305 44.0157 57.0305H59.7362L60.9032 58.1232C62.1779 59.3171 64.371 60.4871 66.06 60.8747C67.3933 61.1806 70.1359 61.1356 71.4705 60.7859C73.2226 60.3266 75.1244 59.2958 76.3671 58.1322L77.503 57.0683L79.9655 57.0014C82.3317 56.9371 82.4756 56.9104 83.6554 56.32C85.6693 55.3119 87.1628 53.4704 87.7495 51.2715C88.0965 49.9711 88.0786 43.8227 87.7231 42.142C86.8832 38.1731 83.8206 34.8278 79.8711 33.5649C79.3689 33.4044 74.9807 32.6102 70.1195 31.7999L61.281 30.3269L59.7463 28.8723C57.9022 27.1247 55.6636 25.436 53.6396 24.2654C52.8195 23.7909 52.0689 23.3763 51.9714 23.3438C51.8741 23.3112 52.0841 22.8313 52.4382 22.2772C53.1864 21.1064 53.8657 19.5513 54.3078 17.9976C54.7624 16.4008 54.9386 6.41318 54.5237 5.77896C54.317 5.46322 53.8363 5.24895 52.6318 4.93596C49.3106 4.07267 45.6556 2.49728 43.0323 0.798295C42.3 0.324051 41.5779 -0.00612971 41.2868 8.62978e-05C41.0112 0.00611948 40.2621 0.374509 39.6032 0.828095ZM40.5163 2.85086C39.3408 3.70903 35.2108 5.62045 33.0581 6.30257C31.887 6.6737 30.7333 7.05361 30.4945 7.14666L30.0602 7.31596L30.1588 11.9255C30.2651 16.8897 30.3614 17.5097 31.3539 19.6332C32.9673 23.0847 36.1806 26.2852 39.9217 28.1666L41.2868 28.8533L42.2783 28.4144C45.0848 27.1717 48.6373 24.1502 50.2643 21.6219C51.3072 20.0014 52.1215 18.0018 52.3745 16.4401C52.4802 15.7884 52.5671 13.4369 52.5678 11.2145L52.5693 7.17391L51.3366 6.84684C48.5241 6.10091 44.6377 4.42277 42.3847 2.98176C41.8553 2.64317 41.3622 2.37021 41.289 2.37515C41.2156 2.38009 40.8679 2.59417 40.5163 2.85086ZM39.8772 5.38022C38.5901 6.1234 35.2647 7.5646 33.5817 8.10868C31.901 8.65204 31.8937 8.67379 31.9973 12.8786C32.1118 17.5325 32.5568 18.9269 34.8507 21.8166C36.5266 23.9281 40.2335 26.6817 41.3995 26.6817C41.8933 26.6817 43.7907 25.5707 45.209 24.4511C48.0396 22.2166 50.0937 19.0618 50.5497 16.2487C50.8505 14.3927 50.8015 9.29558 50.4785 8.83395C50.3125 8.59664 49.4056 8.17048 48.0425 7.68929C46.8483 7.26769 44.9069 6.43219 43.7285 5.83289C42.55 5.23341 41.4479 4.744 41.2793 4.74528C41.1108 4.74637 40.4798 5.03213 39.8772 5.38022ZM40.5246 7.5061C39.6728 8.02586 36.8625 9.26468 35.403 9.76361L34.2159 10.1695L34.1635 12.3467C34.0928 15.2878 34.3197 16.5806 35.2287 18.4203C35.7943 19.5646 36.3299 20.2948 37.3975 21.3766C38.7743 22.7717 40.8577 24.305 41.3765 24.305C41.8619 24.305 43.8992 22.7783 45.2645 21.3912C47.8982 18.7157 48.603 16.8162 48.5129 12.6376L48.4603 10.2027L46.6341 9.51094C45.6297 9.13049 44.0493 8.43685 43.1223 7.96937C42.1952 7.50207 41.3734 7.11997 41.2961 7.12034C41.2187 7.1207 40.8715 7.2942 40.5246 7.5061ZM28.1894 22.8329C25.1477 23.6054 19.7478 26.0468 16.3443 28.1886C14.2518 29.5053 13.3842 29.7903 10.5666 30.0863C8.46404 30.3071 7.91125 30.4351 6.81096 30.9565C4.55249 32.0266 2.8585 34.1868 2.34825 36.6478C2.2122 37.3032 2.16271 39.507 2.20362 43.0867C2.26206 48.2222 2.28872 48.587 2.67551 49.5539C3.28382 51.0745 4.11566 52.225 5.25704 53.1246C6.60551 54.1874 7.93133 54.6774 9.8704 54.8293L11.4568 54.9536L12.747 56.1719C14.8074 58.1177 16.7948 58.9209 19.515 58.9068C22.1456 58.8933 24.4587 57.8596 26.3251 55.8637L27.2002 54.928H43.9772H60.7544L61.9069 56.0818C63.8651 58.0422 67.1346 59.2984 69.352 58.9423C72.088 58.5029 73.536 57.8172 75.2733 56.1378L76.5247 54.928L79.2936 54.8275C81.6484 54.7419 82.1749 54.668 82.8137 54.3338C83.9134 53.7581 85.2012 52.239 85.5305 51.1291C85.9146 49.8345 85.9109 44.0606 85.525 42.4216C84.8166 39.413 82.5231 36.8049 79.7181 35.8178C79.1961 35.6343 74.826 34.8178 70.0065 34.0035C65.1869 33.189 60.9728 32.4348 60.6415 32.3275C60.3104 32.2202 59.2861 31.4282 58.3653 30.5677C57.4445 29.7071 56.1131 28.5765 55.4063 28.0551C54.1681 27.1417 51.314 25.3566 50.7374 25.1352C50.5616 25.0678 50.2224 25.2756 49.8243 25.6954C49.4759 26.0625 49.2763 26.3945 49.3807 26.4333C49.9034 26.6273 53.6252 28.9407 54.5321 29.6353C55.1024 30.0722 56.2796 31.1008 57.148 31.9209C58.0161 32.7413 59.0556 33.5804 59.4578 33.7857C59.9724 34.0486 62.7783 34.5942 68.9343 35.6282C73.7442 36.4363 78.1316 37.2327 78.6841 37.398C80.7709 38.0225 82.3863 39.4659 83.3811 41.5947C83.871 42.6432 83.8897 42.7955 83.9512 46.2366C84.0219 50.1894 83.918 50.8218 83.0315 51.8324C82.0231 52.9822 81.6675 53.0813 78.2732 53.1585C76.5909 53.1968 75.2143 53.2974 75.2143 53.382C75.2143 53.4667 74.7548 54.0329 74.1932 54.6401C71.8193 57.2071 68.2575 57.8594 65.161 56.2946C64.0808 55.7487 62.349 54.1631 62.151 53.5387C62.0438 53.2003 61.5678 53.1912 44.0807 53.1912H26.1203L25.4666 54.083C22.6646 57.904 17.0452 58.1718 13.779 54.6401C13.2175 54.0329 12.758 53.4702 12.758 53.3899C12.758 53.3095 11.9158 53.1978 10.8861 53.1415C8.80883 53.0279 7.86102 52.7522 6.62779 51.9028C5.6115 51.2028 4.85637 50.1878 4.35599 48.8491C3.99842 47.8922 3.98034 47.5262 4.03056 42.241L4.08352 36.6456L4.5671 35.613C5.16007 34.347 6.22693 33.25 7.48757 32.6105C8.23248 32.2326 8.93794 32.0756 10.7424 31.8862C12.0096 31.7531 13.2896 31.5851 13.5869 31.5125C14.5174 31.286 15.9024 30.611 17.3003 29.7033C19.0951 28.5378 24.8579 25.7576 26.9111 25.0669C27.8151 24.7628 29.0888 24.4184 29.7417 24.3017C31.5186 23.9844 31.4693 24.0286 30.9037 23.2554C30.6272 22.8775 30.3555 22.513 30.2996 22.4455C30.2439 22.3779 29.2943 22.5523 28.1894 22.8329ZM32.8463 26.2644C32.8463 26.4369 33.2336 28.288 33.7071 30.3779L34.5682 34.1775L45.4405 34.1698L56.313 34.1622L54.9726 32.8908C53.4002 31.3993 51.005 29.753 48.8584 28.6881L47.3296 27.9295L46.0687 28.78C44.5418 29.81 42.3851 30.8748 41.5704 31.001C40.476 31.1704 36.8396 29.1641 34.2413 26.9573C33.5894 26.4035 33.0086 25.9504 32.9511 25.9504C32.8934 25.9504 32.8463 26.0918 32.8463 26.2644ZM29.0191 26.7114C27.6184 27.0805 25.7836 27.8017 23.3043 28.9579C21.9283 29.5998 21.8881 29.6369 21.8562 30.298C21.7612 32.2687 22.2086 33.2769 23.424 33.8294C24.0807 34.128 24.6696 34.17 28.2548 34.1735L32.338 34.1775L32.2381 33.7662C32.1832 33.5398 31.7958 31.8328 31.3775 29.9726C30.9589 28.1123 30.5635 26.5368 30.4987 26.4713C30.4339 26.4059 29.768 26.5139 29.0191 26.7114ZM17.8774 31.9048C15.8607 33.1707 14.0018 33.7766 11.4196 34.0097C8.81485 34.2448 8.31137 34.4146 7.34238 35.3845C6.15151 36.5767 6.24209 36.737 8.10701 36.737C9.8872 36.737 10.7181 37.0085 11.6241 37.8863C13.349 39.5577 12.8656 42.5872 10.6929 43.7218C10.0932 44.035 9.52178 44.1381 8.05552 44.1979L6.18365 44.2743V45.832C6.18365 47.8602 6.45466 48.7162 7.39571 49.6598C8.25914 50.5254 9.52689 50.9973 10.989 50.9973H11.8929L11.7932 50.2532C11.5291 48.2816 12.3444 45.9391 13.8488 44.3465C17.755 40.2116 24.4306 41.5404 26.5095 46.8666C26.7416 47.4611 26.8945 48.3597 26.9325 49.3519L26.9918 50.9059L31.7452 50.9547C34.3596 50.9814 36.4987 50.9593 36.4987 50.9053C36.4987 50.8514 36.3033 50.4973 36.0644 50.1185C34.8043 48.1202 33.7112 45.1994 33.143 42.3132C32.8833 40.9939 32.481 37.593 32.481 36.7177C32.481 36.3882 32.2834 36.3714 28.4119 36.3714C23.9327 36.3714 22.9424 36.2233 21.7123 35.3699C20.8176 34.7492 19.9229 33.4416 19.784 32.5515C19.7274 32.1889 19.6231 31.6767 19.5524 31.4132L19.4237 30.9342L17.8774 31.9048ZM34.7556 37.8797C34.9174 39.8964 35.3316 42.3746 35.7866 44.05C36.3188 46.0086 37.777 48.9261 38.7844 50.0477L39.637 50.9973H47.8186H56.0002L56.4549 49.8546C57.488 47.2589 58.1595 43.4397 58.3514 39.0681L58.47 36.3714H46.5521H34.6345L34.7556 37.8797ZM60.5409 39.2088C60.3513 43.3862 59.7472 47.0348 58.7886 49.7919C58.5821 50.3858 58.4132 50.9035 58.4132 50.9425C58.4132 50.9814 58.9955 50.9891 59.7076 50.9596L61.0018 50.9059L61.0544 49.3519C61.1169 47.5037 61.5369 46.2788 62.5853 44.8888C65.3221 41.2599 70.7625 40.9162 73.9916 44.1679C75.5187 45.7058 76.4997 48.3617 76.2231 50.209L76.1049 50.9973H78.3195C81.6728 50.9973 81.7747 50.8991 81.7828 47.6608L81.7886 45.3298H80.2688C79.3419 45.3298 78.3981 45.212 77.8491 45.0281C75.2716 44.1641 73.3271 41.9232 72.88 39.3017L72.7409 38.4858L67.0836 37.5314C63.9721 37.0063 61.2542 36.5718 61.0438 36.5656C60.678 36.5548 60.6561 36.6696 60.5409 39.2088ZM6.18365 40.5027V42.0742L7.9138 42.011C9.41093 41.9561 9.69855 41.8927 10.0505 41.5402C10.6495 40.94 10.6044 39.9246 9.95367 39.3642C9.50534 38.9783 9.27232 38.9309 7.81701 38.9309H6.18365V40.5027ZM75.0316 39.1693C75.0316 39.6792 76.0019 41.3201 76.6299 41.872C77.6968 42.8099 78.5942 43.1273 80.1907 43.1319C80.969 43.134 81.606 43.0914 81.606 43.0372C81.606 42.9829 81.4456 42.6236 81.2495 42.2389C80.3622 40.4977 79.113 39.614 76.9548 39.2006C75.2314 38.8704 75.0316 38.8671 75.0316 39.1693ZM37.4949 39.5626C36.9724 40.0855 36.9408 40.3438 37.3309 40.9012C37.6004 41.2866 37.7409 41.3076 40.0477 41.3076C42.7553 41.3076 42.9582 41.2263 42.8572 40.1811C42.7728 39.3068 42.2554 39.1196 39.9146 39.1165C38.063 39.1139 37.9158 39.141 37.4949 39.5626ZM17.8387 44.2942C15.6067 44.9243 13.9596 47.1543 13.9686 49.5347C13.9865 54.3631 19.8002 56.7449 23.2174 53.3239C24.2888 52.2513 24.7122 51.1785 24.7122 49.5347C24.7122 47.9772 24.3329 46.9355 23.3639 45.8305C22.1398 44.4348 19.7221 43.7626 17.8387 44.2942ZM66.8743 44.3769C63.0769 45.7373 61.9425 50.5084 64.7485 53.3175C66.9047 55.4761 70.3281 55.4761 72.4386 53.3177C75.057 50.6399 74.2913 46.2309 70.9243 44.5994C69.7972 44.0529 68.0468 43.9568 66.8743 44.3769ZM17.7801 46.5859C16.6051 47.3163 16.0452 48.2683 16.0452 49.5347C16.0452 51.4463 17.4674 52.8255 19.4386 52.8255C20.973 52.8255 22.3133 51.675 22.6944 50.0307C22.8405 49.4007 22.5198 48.1537 22.0373 47.4756C21.2152 46.3194 18.9649 45.8492 17.7801 46.5859ZM66.9087 46.662C64.8036 47.8555 64.8323 51.2203 66.9576 52.4162C67.7535 52.8639 69.0008 52.9563 69.8607 52.631C71.4724 52.0215 72.3599 49.9742 71.7328 48.3125C71.4948 47.682 70.7264 46.8481 70.0644 46.5018C69.2979 46.1009 67.7604 46.179 66.9087 46.662ZM18.5389 48.7722C17.6016 49.8089 19.0098 51.2176 20.1498 50.3834C20.5455 50.0936 20.6048 49.1455 20.2535 48.7217C19.9297 48.3312 18.9103 48.3612 18.5389 48.7722ZM67.7664 48.6663C67.1278 49.4442 67.6463 50.6316 68.6246 50.6316C69.5751 50.6316 70.112 49.3892 69.4487 48.725C69.106 48.3818 68.0309 48.3443 67.7664 48.6663Z" fill="black"/>
</mask>
<g mask="url(#mask0_486_137)">
<path d="M27.5 18.5L25.5 5L29 -6.5L56.5 -4.5L68 10L52.5 23L49.5 26L47.5 28L46.5 29.5L45 33.5L38.5 32L33 26L31.5 24L29 20.5L27.5 18.5Z" fill="#EDBC18"/>
</g>
</svg>
