<svg width="86" height="64" viewBox="0 0 86 64" fill="none" xmlns="http://www.w3.org/2000/svg">
<path fill-rule="evenodd" clip-rule="evenodd" d="M38.4699 0.155872C31.3315 0.436092 24.5732 1.28015 23.0782 2.0784C21.4141 2.96702 19.1186 5.88051 17.4257 9.25299L16.6929 10.7128L15.939 10.2468C13.931 9.00534 12.0914 8.50252 9.55779 8.50252C5.45223 8.50252 1.99552 10.2998 0.586152 13.1673L0 14.3598V36.019V57.6782L0.586152 58.8707C1.32969 60.3836 2.54166 61.4925 4.45107 62.407C6.2181 63.2533 7.54583 63.5421 9.64712 63.5372C12.7212 63.5301 15.2905 62.564 17.1592 60.7127C18.2565 59.6254 18.9003 58.5253 19.1174 57.3661C19.2355 56.7359 19.2483 56.7279 20.3374 56.6062C20.9428 56.5385 23.1665 56.0352 25.279 55.4876C30.9258 54.0241 32.4399 53.6932 34.561 53.4584C36.7852 53.2126 39.3306 53.4182 41.5816 54.0259C43.29 54.4872 43.9451 54.3888 44.7578 53.549C45.3097 52.9787 45.3725 52.805 45.4363 51.6721L45.5069 50.4236H54.5916H63.6763L64.3372 51.0052C64.9821 51.5728 65.0436 51.5882 66.9131 51.6467L68.8284 51.7068L68.9053 53.3466C69.0125 55.6315 69.6672 56.7862 71.3708 57.695C71.9223 57.9892 72.4277 58.0286 75.6584 58.0286C78.8891 58.0286 79.3945 57.9892 79.946 57.695C80.8237 57.2267 81.5226 56.538 81.9682 55.7024C82.3326 55.0184 82.355 54.6713 82.4689 47.9185C82.5347 44.031 82.5968 37.3385 82.607 33.0461L82.6258 25.2418L80.845 23.2135C79.8656 22.098 79.0892 21.1604 79.1196 21.1299C79.15 21.0995 79.8508 20.992 80.6771 20.8912C83.6914 20.5232 85.1328 19.8858 85.68 18.6788C86.2569 17.4067 86.0469 15.8858 85.1058 14.5154C84.7317 13.9709 84.2554 13.598 83.3877 13.17C82.2708 12.6192 82.0621 12.5779 80.3966 12.5779C78.3514 12.5779 76.7464 13.0215 75.4882 13.9344C74.8291 14.4125 74.7459 14.4335 74.644 14.1477C74.2358 13.0023 72.6396 9.63288 71.8103 8.16575C69.9361 4.85018 68.0097 2.59536 66.4797 1.92648C64.8249 1.20285 58.0437 0.435554 50.7367 0.144956C45.8101 -0.0509829 43.6945 -0.0491926 38.4699 0.155872ZM38.8565 2.30583C33.4031 2.49605 26.708 3.16206 24.5491 3.72894C23.7526 3.9383 22.0712 5.64843 20.9426 7.39739C19.9034 9.00767 18.3117 11.9954 18.3117 12.3354C18.3117 12.4811 18.4653 12.9186 18.6531 13.3079C18.8408 13.6971 19.0513 14.3188 19.1206 14.6892C19.2465 15.3613 19.2492 15.3575 20.5435 12.7176C21.8838 9.98378 23.6195 7.2052 24.504 6.37725C25.1974 5.72824 27.5552 5.29932 33.4076 4.75731C36.855 4.4379 53.0452 4.44041 56.4535 4.76071C60.449 5.13612 64.0844 5.6835 64.7608 6.01168C65.6819 6.45849 67.2059 8.70078 68.9562 12.1847C70.4556 15.1691 71.5495 18.089 71.5495 19.1072C71.5495 19.7412 71.1011 20.0828 69.7296 20.4934C68.9167 20.7368 67.1052 20.7882 57.1234 20.8517L45.4665 20.9258V24.491V28.0562H50.1171C55.2971 28.0562 55.7244 28.1319 56.3692 29.1638C56.6802 29.6618 56.7299 29.9841 56.6802 31.1876C56.6141 32.7952 56.2729 33.6829 55.3757 34.5816C54.2075 35.7515 53.8354 35.834 49.4415 35.8971L45.4665 35.954V37.7313V39.5083H52.1395C58.7845 39.5083 58.8149 39.5101 59.4152 39.9152C60.3002 40.5125 60.8312 41.3961 60.8265 42.2636C60.8219 43.1295 60.3354 44.2704 59.735 44.8232C58.7449 45.7349 58.4383 45.7712 51.725 45.7712H45.4665V47.0238V48.2764H54.6727C64.5242 48.2764 64.6225 48.2846 65.5761 49.182C65.9354 49.5198 66.1992 49.5316 72.3564 49.4865L78.7628 49.4395L79.1684 48.429C79.3913 47.8732 79.7517 46.6251 79.9687 45.6554C80.3423 43.9881 80.3669 43.4062 80.4223 34.9453L80.4811 25.9984L77.1137 22.2174C74.1917 18.9361 73.7176 18.3211 73.5282 17.5649C73.1782 16.1676 71.8117 12.8024 70.7504 10.7241C68.708 6.72475 66.6402 4.12994 65.1838 3.73896C62.8462 3.1116 56.7408 2.52181 50.2007 2.29152C44.7655 2.10023 44.7507 2.10023 38.8565 2.30583ZM36.534 6.69773C31.6075 6.97902 26.2852 7.69908 25.7691 8.15394C24.963 8.86433 22.5475 13.1879 21.4625 15.8623L21.0114 16.9744L21.6714 16.8515C22.0344 16.7838 23.698 16.3759 25.3683 15.9446C32.02 14.2277 33.083 14.0468 36.534 14.0434C40.0218 14.0402 41.4896 14.3125 43.6286 15.3604C45.0989 16.0806 45.4665 16.5668 45.4665 17.7913V18.7513L56.0515 18.7422C65.7246 18.7338 68.8586 18.6432 69.1373 18.3639C69.4241 18.0767 67.39 13.4325 65.8398 10.8348C63.9952 7.74399 64.1966 7.89162 61.2771 7.48686C59.9015 7.29593 57.8916 7.04827 56.8108 6.93626C54.9495 6.74318 39.018 6.55583 36.534 6.69773ZM7.83328 10.7049C3.20624 11.5345 0.716566 15.1215 2.83607 17.9047C4.77515 20.4512 8.67383 21.4774 12.4108 20.4251C13.7638 20.0441 14.6359 19.5689 15.5872 18.6939C19.0699 15.4912 16.0073 10.9755 10.1129 10.6215C9.36539 10.5766 8.33958 10.6142 7.83328 10.7049ZM7.53958 12.5675C5.71413 13.2197 4.57184 14.6716 4.81677 16.0284C5.00114 17.0489 5.65732 17.8965 6.71868 18.4854C7.6164 18.9834 7.80952 19.0197 9.55779 19.0197C11.2537 19.0197 11.5219 18.973 12.3539 18.5335C13.9147 17.709 14.6334 16.363 14.2311 15.0177C13.9213 13.9824 13.368 13.3956 12.1627 12.8246C11.2405 12.3875 10.8603 12.3109 9.64712 12.3175C8.86106 12.3216 7.9126 12.4342 7.53958 12.5675ZM7.80827 14.7552C6.67045 15.3171 6.66187 16.0371 7.78612 16.6117C9.56512 17.5207 12.7299 16.6072 12.0714 15.3747C11.6078 14.5074 9.06043 14.1372 7.80827 14.7552ZM78.648 14.8198C77.128 15.2024 75.6529 16.2796 75.6657 16.998C75.6699 17.2242 75.993 17.7637 76.3839 18.1968L77.0948 18.9845L79.1016 18.8696C81.0194 18.7599 82.7982 18.422 83.5337 18.0277C84.3403 17.5953 83.7014 15.71 82.5443 15.1086C81.7701 14.7062 79.7075 14.5534 78.648 14.8198ZM34.1222 16.1787C32.5124 16.4229 30.3271 16.9111 26.9432 17.7823C24.8615 18.3183 22.289 18.9034 21.2263 19.0825L19.2942 19.4084L19.2487 36.9738L19.2031 54.5392H19.5688C20.2361 54.5392 22.6414 53.9946 26.7082 52.9225C31.9814 51.5323 33.5764 51.2632 36.534 51.2639C38.9672 51.2645 40.5633 51.4654 42.1129 51.9661C42.5774 52.1162 43.0395 52.1882 43.1401 52.1261C43.2625 52.0502 43.3227 46.3273 43.3227 34.7779V17.5427L42.4454 17.1648C40.795 16.4535 39.543 16.2189 37.0699 16.1574C35.7435 16.1245 34.417 16.1339 34.1222 16.1787ZM2.05555 38.5603C2.05609 50.3805 2.1204 57.0065 2.23849 57.4325C2.33871 57.7938 2.77247 58.4811 3.20249 58.9603C4.65849 60.5822 6.78871 61.4 9.55779 61.4C12.1461 61.4 14.0253 60.7497 15.5872 59.3132C17.1738 57.8543 17.0527 59.5463 17.0572 38.7614L17.0611 20.3889L15.9794 21.1124C12.157 23.6691 6.7487 23.5678 2.81374 20.8658L2.05448 20.3446L2.05555 38.5603ZM69.0484 26.3664C66.5428 26.8909 63.8094 27.4607 62.9742 27.6324C61.7317 27.888 61.3501 28.0492 60.8751 28.5194C60.3486 29.0405 60.2945 29.1939 60.2945 30.1651C60.2945 32.2573 61.7546 34.0771 63.7691 34.496C64.3965 34.6265 66.313 34.6798 69.0877 34.6438C73.1246 34.5914 73.475 34.5608 74.1422 34.2029C75.9398 33.2384 76.4834 32.1777 76.6553 29.2978C76.7955 26.9464 76.6178 26.3412 75.605 25.7228C74.7964 25.2289 74.2062 25.2867 69.0484 26.3664ZM68.1104 28.7386C62.4494 29.9116 62.4383 29.9148 62.439 30.3718C62.4399 31.0649 63.0863 31.9832 63.7764 32.272C64.252 32.471 65.3321 32.5297 68.5244 32.5297C74.1533 32.5297 74.3178 32.4389 74.529 29.2189L74.6405 27.5193L74.2115 27.5414C73.9755 27.5533 71.23 28.0921 68.1104 28.7386ZM45.4665 31.9928V33.7822H49.0572C51.9846 33.7822 52.7596 33.7291 53.2526 33.4949C54.1055 33.0894 54.5777 32.2437 54.5777 31.1218V30.2034H50.0221H45.4665V31.9928ZM67.3017 41.7553C66.8301 42.0859 66.7686 42.9253 67.1852 43.3428C67.4178 43.5756 67.9722 43.6239 70.4127 43.6239C72.1024 43.6239 73.5069 43.5448 73.7051 43.4387C73.9428 43.3111 74.0506 43.0635 74.0506 42.6437C74.0506 41.6001 73.6725 41.4766 70.4776 41.4766C68.2516 41.4766 67.6197 41.5321 67.3017 41.7553ZM45.4665 42.6398V43.6239H51.638H57.8096L58.2481 43.1846C58.7247 42.7074 58.8097 42.2083 58.4723 41.8703C58.3134 41.7112 56.5984 41.6556 51.8622 41.6556H45.4665V42.6398ZM79.7781 51.2958C79.4137 51.5391 78.6585 51.596 75.16 51.6435L70.9778 51.7004L71.0403 53.206C71.0994 54.6307 71.1341 54.7429 71.6868 55.2963L72.2709 55.8813H75.6475C78.9811 55.8813 79.0299 55.8757 79.488 55.4447C80.1181 54.8519 80.3369 53.9915 80.2701 52.3694L80.214 51.0048L79.7781 51.2958Z" fill="black"/>
<mask id="mask0_486_141" style="mask-type:alpha" maskUnits="userSpaceOnUse" x="0" y="0" width="86" height="64">
<path fill-rule="evenodd" clip-rule="evenodd" d="M38.4699 0.155872C31.3315 0.436092 24.5732 1.28015 23.0782 2.0784C21.4141 2.96702 19.1186 5.88051 17.4257 9.25299L16.6929 10.7128L15.939 10.2468C13.931 9.00534 12.0914 8.50252 9.55779 8.50252C5.45223 8.50252 1.99552 10.2998 0.586152 13.1673L0 14.3598V36.019V57.6782L0.586152 58.8707C1.32969 60.3836 2.54166 61.4925 4.45107 62.407C6.2181 63.2533 7.54583 63.5421 9.64712 63.5372C12.7212 63.5301 15.2905 62.564 17.1592 60.7127C18.2565 59.6254 18.9003 58.5253 19.1174 57.3661C19.2355 56.7359 19.2483 56.7279 20.3374 56.6062C20.9428 56.5385 23.1665 56.0352 25.279 55.4876C30.9258 54.0241 32.4399 53.6932 34.561 53.4585C36.7852 53.2126 39.3306 53.4182 41.5816 54.0259C43.29 54.4872 43.9451 54.3888 44.7578 53.549C45.3097 52.9787 45.3725 52.805 45.4363 51.6721L45.5069 50.4236H54.5916H63.6763L64.3372 51.0052C64.9821 51.5728 65.0436 51.5882 66.9131 51.6467L68.8284 51.7068L68.9053 53.3466C69.0125 55.6315 69.6672 56.7862 71.3708 57.695C71.9223 57.9892 72.4277 58.0286 75.6584 58.0286C78.8891 58.0286 79.3945 57.9892 79.946 57.695C80.8237 57.2267 81.5226 56.538 81.9682 55.7024C82.3326 55.0184 82.355 54.6713 82.4689 47.9185C82.5347 44.031 82.5968 37.3385 82.607 33.0461L82.6258 25.2418L80.845 23.2135C79.8656 22.098 79.0892 21.1604 79.1196 21.1299C79.15 21.0995 79.8508 20.992 80.6771 20.8912C83.6914 20.5232 85.1328 19.8858 85.68 18.6788C86.2569 17.4067 86.0469 15.8858 85.1058 14.5154C84.7317 13.9709 84.2554 13.598 83.3877 13.17C82.2708 12.6192 82.0621 12.5779 80.3966 12.5779C78.3514 12.5779 76.7464 13.0215 75.4882 13.9344C74.8291 14.4125 74.7459 14.4335 74.644 14.1477C74.2358 13.0023 72.6396 9.63288 71.8103 8.16575C69.9361 4.85018 68.0097 2.59536 66.4797 1.92648C64.8249 1.20285 58.0437 0.435554 50.7367 0.144956C45.8101 -0.0509829 43.6945 -0.0491926 38.4699 0.155872ZM38.8564 2.30583C33.4031 2.49605 26.708 3.16206 24.5491 3.72894C23.7526 3.9383 22.0712 5.64843 20.9426 7.39739C19.9034 9.00767 18.3117 11.9954 18.3117 12.3354C18.3117 12.4811 18.4653 12.9186 18.6531 13.3079C18.8408 13.6971 19.0513 14.3188 19.1206 14.6892C19.2465 15.3613 19.2492 15.3575 20.5435 12.7176C21.8838 9.98378 23.6195 7.2052 24.504 6.37725C25.1974 5.72824 27.5552 5.29932 33.4076 4.75731C36.855 4.4379 53.0452 4.44041 56.4535 4.76071C60.449 5.13612 64.0844 5.6835 64.7607 6.01168C65.6819 6.45849 67.2059 8.70078 68.9562 12.1847C70.4556 15.1691 71.5495 18.089 71.5495 19.1072C71.5495 19.7412 71.1011 20.0828 69.7296 20.4935C68.9167 20.7368 67.1052 20.7882 57.1234 20.8517L45.4665 20.9258V24.491V28.0562H50.1171C55.2971 28.0562 55.7244 28.1319 56.3692 29.1638C56.6802 29.6618 56.7299 29.9841 56.6802 31.1876C56.6141 32.7952 56.2729 33.6829 55.3757 34.5816C54.2075 35.7515 53.8354 35.834 49.4415 35.8971L45.4665 35.954V37.7313V39.5083H52.1395C58.7845 39.5083 58.8149 39.5101 59.4152 39.9152C60.3002 40.5125 60.8312 41.3961 60.8265 42.2636C60.8219 43.1295 60.3354 44.2704 59.735 44.8232C58.7449 45.7349 58.4383 45.7712 51.725 45.7712H45.4665V47.0238V48.2764H54.6727C64.5242 48.2764 64.6225 48.2846 65.5761 49.182C65.9354 49.5198 66.1992 49.5316 72.3564 49.4865L78.7628 49.4395L79.1684 48.429C79.3913 47.8732 79.7517 46.6251 79.9687 45.6554C80.3423 43.9881 80.3669 43.4062 80.4223 34.9453L80.4811 25.9984L77.1137 22.2174C74.1917 18.9361 73.7176 18.3211 73.5282 17.5649C73.1782 16.1676 71.8117 12.8024 70.7504 10.7241C68.708 6.72475 66.6402 4.12994 65.1838 3.73896C62.8462 3.1116 56.7408 2.52181 50.2007 2.29152C44.7655 2.10023 44.7507 2.10023 38.8564 2.30583ZM36.534 6.69773C31.6075 6.97902 26.2852 7.69908 25.7691 8.15394C24.963 8.86433 22.5475 13.1879 21.4625 15.8623L21.0114 16.9744L21.6714 16.8515C22.0344 16.7838 23.698 16.3759 25.3683 15.9446C32.02 14.2277 33.083 14.0468 36.534 14.0434C40.0218 14.0402 41.4896 14.3125 43.6286 15.3604C45.0989 16.0806 45.4665 16.5668 45.4665 17.7913V18.7513L56.0515 18.7422C65.7246 18.7338 68.8586 18.6432 69.1373 18.3639C69.4241 18.0767 67.39 13.4325 65.8398 10.8348C63.9952 7.74399 64.1966 7.89162 61.2771 7.48686C59.9015 7.29593 57.8916 7.04827 56.8108 6.93626C54.9495 6.74318 39.018 6.55583 36.534 6.69773ZM7.83328 10.7049C3.20624 11.5345 0.716567 15.1215 2.83607 17.9047C4.77515 20.4512 8.67383 21.4774 12.4108 20.4251C13.7638 20.0441 14.6359 19.5689 15.5872 18.6939C19.0699 15.4912 16.0072 10.9755 10.1129 10.6215C9.36539 10.5766 8.33958 10.6142 7.83328 10.7049ZM7.53958 12.5675C5.71413 13.2197 4.57184 14.6716 4.81677 16.0284C5.00114 17.0489 5.65732 17.8965 6.71868 18.4854C7.6164 18.9834 7.80952 19.0197 9.55779 19.0197C11.2537 19.0197 11.5219 18.973 12.3539 18.5335C13.9147 17.709 14.6334 16.363 14.2311 15.0177C13.9213 13.9824 13.368 13.3956 12.1627 12.8246C11.2405 12.3875 10.8603 12.3109 9.64712 12.3175C8.86106 12.3216 7.9126 12.4342 7.53958 12.5675ZM7.80827 14.7552C6.67045 15.3171 6.66187 16.0371 7.78612 16.6117C9.56512 17.5207 12.7299 16.6072 12.0714 15.3747C11.6078 14.5074 9.06043 14.1372 7.80827 14.7552ZM78.648 14.8198C77.128 15.2024 75.6529 16.2796 75.6657 16.998C75.6699 17.2242 75.993 17.7637 76.3839 18.1968L77.0948 18.9845L79.1016 18.8696C81.0194 18.7599 82.7982 18.422 83.5337 18.0277C84.3403 17.5953 83.7014 15.71 82.5443 15.1086C81.7701 14.7062 79.7075 14.5534 78.648 14.8198ZM34.1222 16.1787C32.5124 16.4229 30.3271 16.9111 26.9432 17.7823C24.8615 18.3183 22.289 18.9034 21.2263 19.0825L19.2942 19.4084L19.2487 36.9738L19.2031 54.5392H19.5688C20.2361 54.5392 22.6414 53.9946 26.7082 52.9225C31.9814 51.5323 33.5764 51.2632 36.534 51.2639C38.9672 51.2645 40.5633 51.4654 42.1129 51.9661C42.5774 52.1162 43.0395 52.1882 43.1401 52.1261C43.2625 52.0502 43.3227 46.3273 43.3227 34.7779V17.5427L42.4454 17.1648C40.795 16.4535 39.543 16.2189 37.0699 16.1574C35.7435 16.1245 34.417 16.1339 34.1222 16.1787ZM2.05555 38.5603C2.05609 50.3805 2.1204 57.0065 2.23849 57.4325C2.33871 57.7938 2.77247 58.4811 3.20249 58.9603C4.65849 60.5822 6.78871 61.4 9.55779 61.4C12.1461 61.4 14.0253 60.7497 15.5872 59.3132C17.1738 57.8543 17.0527 59.5463 17.0572 38.7614L17.0611 20.3889L15.9794 21.1124C12.157 23.6691 6.7487 23.5678 2.81374 20.8658L2.05448 20.3446L2.05555 38.5603ZM69.0484 26.3664C66.5428 26.8909 63.8094 27.4607 62.9742 27.6324C61.7317 27.888 61.3501 28.0492 60.8751 28.5194C60.3486 29.0405 60.2945 29.1939 60.2945 30.1651C60.2945 32.2573 61.7546 34.0771 63.7691 34.496C64.3965 34.6265 66.313 34.6798 69.0877 34.6438C73.1246 34.5914 73.475 34.5608 74.1422 34.2029C75.9398 33.2384 76.4834 32.1777 76.6553 29.2978C76.7955 26.9464 76.6178 26.3412 75.605 25.7228C74.7964 25.2289 74.2062 25.2867 69.0484 26.3664ZM68.1104 28.7386C62.4494 29.9116 62.4383 29.9148 62.439 30.3718C62.4399 31.0649 63.0863 31.9832 63.7764 32.272C64.252 32.471 65.3321 32.5297 68.5244 32.5297C74.1533 32.5297 74.3178 32.4389 74.529 29.2189L74.6405 27.5193L74.2115 27.5414C73.9755 27.5533 71.23 28.0921 68.1104 28.7386ZM45.4665 31.9928V33.7822H49.0572C51.9846 33.7822 52.7596 33.7291 53.2526 33.4949C54.1055 33.0894 54.5777 32.2437 54.5777 31.1218V30.2034H50.0221H45.4665V31.9928ZM67.3017 41.7553C66.8301 42.0859 66.7686 42.9253 67.1852 43.3428C67.4178 43.5756 67.9722 43.6239 70.4127 43.6239C72.1024 43.6239 73.5069 43.5448 73.7051 43.4387C73.9428 43.3111 74.0506 43.0635 74.0506 42.6437C74.0506 41.6001 73.6725 41.4766 70.4776 41.4766C68.2516 41.4766 67.6197 41.5321 67.3017 41.7553ZM45.4665 42.6398V43.6239H51.638H57.8096L58.2481 43.1846C58.7247 42.7074 58.8097 42.2083 58.4723 41.8703C58.3134 41.7112 56.5984 41.6556 51.8622 41.6556H45.4665V42.6398ZM79.7781 51.2958C79.4137 51.5391 78.6585 51.596 75.16 51.6435L70.9778 51.7004L71.0403 53.206C71.0994 54.6307 71.1341 54.7429 71.6869 55.2963L72.2709 55.8813H75.6475C78.9811 55.8813 79.0299 55.8757 79.488 55.4447C80.1181 54.8519 80.3369 53.9915 80.2701 52.3694L80.214 51.0048L79.7781 51.2958Z" fill="black"/>
</mask>
<g mask="url(#mask0_486_141)">
<path d="M17 11L10 5.5L4 6.5L-7.5 17L-12 35L-6 63L9 68.5L33 61L45.5 55V17L46.5 13.5L34 13L20.5 17L17 11Z" fill="#EDBC18"/>
</g>
</svg>
