<svg width="71" height="71" viewBox="0 0 71 71" fill="none" xmlns="http://www.w3.org/2000/svg">
<path fill-rule="evenodd" clip-rule="evenodd" d="M46.0312 0.15744C42.8052 0.618022 39.1819 2.64985 37.125 5.15171C35.7962 6.76804 35.1039 8.14735 33.5828 12.2096L32.152 16.0302H31.5438H30.9355V15.2366C30.9355 14.5846 30.8727 14.38 30.5842 14.0916C30.2523 13.7595 30.1434 13.7402 28.5962 13.7402C25.545 13.7402 21.8911 14.2411 20.6787 14.8255C19.2221 15.5278 18.4212 16.8689 18.4212 18.6065C18.4212 20.372 19.2154 21.6754 20.7503 22.4294C21.5457 22.8201 21.6301 22.8303 24.6528 22.9003L27.7424 22.9719L26.0343 25.0472C24.1101 27.3853 23.173 28.7092 22.5051 30.033C22.1411 30.7547 21.9983 30.9187 21.8055 30.8365C19.8748 30.0141 19.1307 29.8518 17.2707 29.8468C15.1558 29.8412 14.0582 30.1009 12.2626 31.0313C10.8851 31.7452 8.86985 33.7615 8.15842 35.1376C6.76274 37.8374 6.54697 40.5647 7.49936 43.4665L7.79998 44.3826L5.9357 46.2725C4.91019 47.3119 3.96109 48.3787 3.82659 48.6435C3.4497 49.3846 3.38574 50.5044 3.67134 51.3644L3.91587 52.1009L3.3481 53.0003C1.99206 55.1479 0.99131 57.5869 0.441282 60.0848C0.173422 61.3011 0.127205 62.0621 0.0676803 66.2319L0 70.9909H1.1457H2.29155L2.3578 66.3035C2.41532 62.2305 2.46225 61.4567 2.71551 60.3995C3.27341 58.0719 4.08214 56.1003 5.16574 54.4258C5.70919 53.5863 5.76542 53.5416 6.11484 53.6744C6.6633 53.8831 7.46974 53.8466 8.26645 53.5772C8.84238 53.3826 9.33259 52.984 10.9415 51.403L12.9112 49.4671L13.5886 49.7098C15.7981 50.5022 18.2039 50.5601 20.3671 49.8734C20.6173 49.7938 20.6334 49.9025 20.6356 51.695C20.6385 53.8141 20.8599 55.1365 21.4153 56.3499L21.7779 57.1422V62.5829C21.7779 66.4362 21.8287 68.1955 21.9519 68.6127C22.1841 69.3989 23.3695 70.5846 24.1555 70.8169C24.9819 71.061 34.5997 71.061 35.4262 70.8169C36.2121 70.5846 37.3975 69.3989 37.6297 68.6127C37.735 68.2559 37.8037 67.1046 37.8037 65.6938V63.364L38.9842 63.4673C39.6335 63.5243 41.2915 63.6693 42.6687 63.7896C44.5935 63.9579 48.1595 64.0245 58.0864 64.0775L71 64.1464V62.9887V61.8308H60.0033C48.9899 61.8308 45.2815 61.7332 40.737 61.3237C35.771 60.8763 29.3118 59.9092 27.7238 59.3755C25.4238 58.6023 23.5784 56.5178 23.0807 54.1307C22.8937 53.2333 22.8664 48.52 23.0482 48.52C23.3301 48.52 25.2114 46.6087 25.7628 45.7621C26.7691 44.2173 27.5014 41.9625 27.5014 40.4094C27.5014 39.94 27.5253 39.9145 27.8949 39.9909C30.0469 40.435 36.6188 41.0366 40.7616 41.1684L43.7909 41.265L44.2489 40.8067C44.6819 40.3738 44.7018 40.3078 44.6117 39.6038C43.9948 34.7834 40.5332 30.3993 35.834 28.4862C34.0844 27.774 32.9477 27.5841 29.892 27.4931L27.0598 27.4088L29.8681 23.9737L32.6762 20.5387L34.2025 20.2947C38.2599 19.6462 44.9229 18.9261 49.8946 18.5988C51.2325 18.5107 56.5286 18.4045 61.6635 18.3626L71 18.2865V17.1409V15.9953L61.6635 16.072C51.2163 16.1577 48.5308 16.2881 41.4524 17.0533C39.9572 17.215 37.6719 17.497 36.3741 17.68C35.0763 17.8631 33.9867 17.985 33.9528 17.9511C33.8711 17.8692 36.5601 10.6681 37.1737 9.32614C38.446 6.5429 40.8785 4.26489 43.8134 3.10814C45.8592 2.30191 46.0796 2.29003 59.0679 2.29003H71V1.14501V0L58.9449 0.0174614C52.3146 0.0270509 46.5034 0.0900268 46.0312 0.15744ZM25.2957 16.1876C23.5798 16.3686 21.9247 16.7105 21.5381 16.964C20.3137 17.7663 20.383 19.5402 21.6693 20.3247C22.1046 20.5902 22.3877 20.6087 25.9274 20.6012L29.7193 20.5932L30.4705 19.6522C30.8836 19.1346 31.2217 18.6232 31.2217 18.5157C31.2217 18.3705 30.9813 18.3202 30.2852 18.3202C29.4815 18.3202 29.2987 18.2704 28.9974 17.9689C28.7089 17.6805 28.6461 17.4758 28.6461 16.8238V16.0302L27.5372 16.0492C26.9273 16.0597 25.9186 16.1219 25.2957 16.1876ZM7.2481 17.5266C7.05493 17.7198 6.89682 17.9961 6.89682 18.1405C6.89682 18.6357 6.46097 20.1093 6.11356 20.7887C5.33945 22.303 4.12464 23.3612 2.53265 23.9082C1.57139 24.2384 1.17332 24.6092 1.17332 25.1743C1.17332 25.7801 1.54005 26.1537 2.37253 26.3957C4.65292 27.0588 6.39529 29.1871 6.83443 31.8457C6.88637 32.1606 7.01615 32.5575 7.12261 32.7278C7.38918 33.1538 8.05811 33.2781 8.59326 33.0013C9.05529 32.7624 9.08033 32.7091 9.33431 31.4292C9.8158 29.0029 11.5316 27.0294 13.7105 26.3957C14.552 26.1511 14.9097 25.7801 14.9097 25.152C14.9097 24.7147 14.3535 24.0453 13.9902 24.0453C13.6086 24.0453 12.2826 23.3836 11.6545 22.8797C10.3873 21.8629 9.5176 20.2755 9.23873 18.4697C9.053 17.2674 8.00388 16.7705 7.2481 17.5266ZM7.56432 22.8274C7.34125 23.1807 6.73627 23.857 6.22001 24.33L5.2815 25.1903L6.22001 26.0507C6.73627 26.5237 7.34125 27.2 7.56432 27.5532C7.78739 27.9064 8.00217 28.1954 8.04152 28.1954C8.08086 28.1954 8.2902 27.915 8.50655 27.5724C8.90161 26.9468 10.1541 25.677 10.6886 25.3601L10.9748 25.1903L10.6886 25.0206C10.1541 24.7037 8.90161 23.4339 8.50655 22.8083C8.2902 22.4656 8.08086 22.1852 8.04152 22.1852C8.00217 22.1852 7.78739 22.4742 7.56432 22.8274ZM24.5956 31.0203L23.9361 32.2976L24.6308 32.982L25.3255 33.6664L25.4289 33.1947C25.5726 32.5407 26.8323 31.3133 27.5896 31.0894C28.7901 30.7346 29.8821 30.9563 30.7984 31.741C31.8454 32.6374 32.2531 33.892 31.9321 35.2302C31.7002 36.1972 30.5529 37.4238 29.7372 37.5769C29.4501 37.6308 29.187 37.7208 29.1522 37.7769C28.9879 38.0427 38.3665 38.9229 41.428 38.9291L42.1191 38.9305L42.0189 38.4653C41.7152 37.0534 40.4995 34.8688 39.2795 33.5425C37.926 32.071 35.8318 30.7933 33.7708 30.1814C32.846 29.9069 32.289 29.8633 28.9897 29.8069L25.2551 29.743L24.5956 31.0203ZM50.4581 29.9046C49.7766 30.0678 48.5487 30.7866 48.1578 31.2513C47.3754 32.1812 47.064 33.0496 46.9949 34.4936C46.9128 36.2115 47.1127 37.2999 47.7477 38.5934C48.6256 40.3814 50.5551 41.8456 52.5261 42.2194C52.9979 42.309 56.7256 42.3655 62.148 42.3655H71V41.2205V40.0755H69.8553H68.7106V38.358V36.6405H69.8553H71V35.4955V34.3504H69.8553H68.7106V33.2054V32.0604H69.8553H71V30.9154V29.7704L60.9481 29.785C55.4196 29.7931 50.699 29.847 50.4581 29.9046ZM15.4821 32.2847C11.4252 33.1633 8.63762 37.2621 9.32501 41.3379C9.42016 41.9025 9.54551 42.3939 9.60346 42.4297C9.66155 42.4656 10.0988 42.0955 10.5753 41.6073L11.4416 40.7196L11.523 39.6685C11.6841 37.5868 12.8379 35.8986 14.7437 34.9566C15.7654 34.4515 15.9006 34.422 17.1991 34.422C18.4976 34.422 18.6328 34.4515 19.6545 34.9566C20.9569 35.6004 21.768 36.4291 22.3982 37.7597C22.8083 38.6255 22.8511 38.8449 22.8511 40.083C22.8511 41.3732 22.821 41.5108 22.3166 42.5316C21.3705 44.4466 19.6755 45.6005 17.5751 45.7594L16.5079 45.8401L15.6111 46.7451C14.6479 47.7172 14.6443 47.6897 15.7682 47.9402C17.3412 48.2906 19.3387 47.9813 20.941 47.139C24.3851 45.3287 26.0522 41.0805 24.7388 37.4614C24.2543 36.1264 23.7653 35.3615 22.7568 34.362C20.8739 32.4962 18.1269 31.7118 15.4821 32.2847ZM50.61 32.2625C50.0838 32.4964 49.6064 33.0005 49.4034 33.5368C49.0963 34.3473 49.1023 34.3504 50.9678 34.3504H52.6848V33.2054V32.0604L51.8621 32.066C51.4095 32.0691 50.8461 32.1575 50.61 32.2625ZM54.9742 33.2054V34.3504H56.1189H57.2636V33.2054V32.0604H56.1189H54.9742V33.2054ZM59.553 33.2054V34.3504H60.6977H61.8424V33.2054V32.0604H60.6977H59.553V33.2054ZM64.1318 33.2054V34.3504H65.2765H66.4212V33.2054V32.0604H65.2765H64.1318V33.2054ZM27.8527 33.5568C27.1428 34.2667 27.6458 35.4955 28.6461 35.4955C28.9248 35.4955 29.2182 35.3656 29.4395 35.1441C29.661 34.9227 29.7908 34.6293 29.7908 34.3504C29.7908 34.0716 29.661 33.7782 29.4395 33.5568C29.2182 33.3352 28.9248 33.2054 28.6461 33.2054C28.3674 33.2054 28.074 33.3352 27.8527 33.5568ZM34.5771 33.4068C33.1152 34.0437 32.7861 35.988 33.9524 37.0976C34.863 37.9642 36.0932 38.0049 37.011 37.1988C38.937 35.5073 36.9306 32.3813 34.5771 33.4068ZM15.9714 36.8615C15.6505 36.9803 15.1676 37.3109 14.8983 37.5961C14.5408 37.975 14.486 38.0869 14.6951 38.0115C17.4906 37.003 20.2708 39.784 19.2626 42.5802C19.1872 42.7892 19.2995 42.7341 19.6784 42.3764C20.6148 41.4923 20.8994 39.708 20.2917 38.5325C20.0043 37.9767 19.2913 37.2664 18.7286 36.9752C18.1086 36.6546 16.6893 36.596 15.9714 36.8615ZM49.5373 36.9993C49.8099 37.7164 50.0926 38.1542 50.6321 38.6938C51.1715 39.2334 51.6092 39.5162 52.3261 39.7888L52.6848 39.9252V38.2828V36.6405H51.0429H49.4009L49.5373 36.9993ZM54.9742 38.358V40.0755H56.1189H57.2636V38.358V36.6405H56.1189H54.9742V38.358ZM59.553 38.358V40.0755H60.6977H61.8424V38.358V36.6405H60.6977H59.553V38.358ZM64.1318 38.358V40.0755H65.2765H66.4212V38.358V36.6405H65.2765H64.1318V38.358ZM10.5836 44.9083C6.18295 49.3103 5.75212 49.7835 5.75212 50.215C5.75212 50.866 6.41161 51.5257 7.06237 51.5257C7.49378 51.5257 7.96682 51.0947 12.3676 46.6928C16.7683 42.2908 17.1991 41.8177 17.1991 41.3861C17.1991 40.7352 16.5396 40.0755 15.8889 40.0755C15.4575 40.0755 14.9844 40.5065 10.5836 44.9083ZM35.9871 43.7251C35.8096 43.8495 35.5479 44.3461 35.3649 44.9059C34.9266 46.2463 34.2181 46.9456 33.2985 46.9456C33.0951 46.9456 32.7861 47.0382 32.6118 47.1514C32.3366 47.3302 31.9364 47.3306 29.5762 47.1556C25.9274 46.8849 25.9768 46.8832 25.5633 47.297L25.212 47.6482V50.9927C25.212 54.8796 25.3074 55.3499 26.2966 56.3393C26.7287 56.7717 27.13 57.0126 27.6694 57.1637C28.1826 57.3076 31.3203 57.5461 37.28 57.8945C47.0419 58.4652 46.6833 58.4776 46.8842 57.5622C47.0145 56.9689 44.643 48.6829 44.2501 48.3585C44.0583 48.2003 43.5296 48.0926 42.6006 48.0229C41.4034 47.9332 41.2131 47.8821 41.0691 47.612C40.8319 47.1662 40.5072 46.9553 40.0502 46.9502C39.0926 46.9393 38.3959 46.2602 37.9531 44.9059C37.6186 43.8828 37.2734 43.5106 36.659 43.5106C36.458 43.5106 36.1556 43.6072 35.9871 43.7251ZM36.3668 47.8831C36.2149 48.0664 36.2242 48.1464 36.4209 48.3431C36.643 48.5654 36.675 48.5654 36.8971 48.3431C37.0939 48.1464 37.1032 48.0664 36.9512 47.8831C36.8499 47.7611 36.7184 47.6612 36.659 47.6612C36.5996 47.6612 36.4681 47.7611 36.3668 47.8831ZM48.4371 48.462C48.0788 48.8204 48.0691 48.8752 48.1578 50.0301C48.5105 54.6198 51.9568 58.4656 56.4955 59.3342C57.3407 59.496 59.0316 59.5408 64.2875 59.5408H71V58.3957V57.2507H64.2978C58.0917 57.2507 57.5137 57.2298 56.4904 56.9681C55.018 56.5913 53.8757 55.9606 52.8452 54.955C51.8817 54.0148 51.3535 53.1861 50.8717 51.8583C50.2692 50.1982 49.0465 50.3806 60.7692 50.3806H71V49.2356V48.0906H59.9043H48.8084L48.4371 48.462ZM27.5014 51.78C27.5014 54.2884 27.5727 54.6168 28.1884 54.945C28.4431 55.0806 44.0596 56.0502 44.1725 55.9373C44.2406 55.8693 42.9162 51.1027 42.6836 50.5784C42.5591 50.2981 42.397 50.2676 40.5155 50.1707C38.2088 50.0517 38.4011 49.964 37.9374 51.3469C37.6191 52.2955 37.257 52.6707 36.659 52.6707C36.0537 52.6707 35.6992 52.2967 35.3721 51.3135C34.8515 49.7487 34.9932 49.817 31.7915 49.5882C30.2583 49.4785 28.6657 49.3866 28.2526 49.3838L27.5014 49.3788V51.78ZM24.0673 63.9773V67.9983L24.4186 68.3495L24.7697 68.7009H29.7908H34.8119L35.163 68.3495C35.5086 68.004 35.5143 67.9583 35.5143 65.5541C35.5143 63.7225 35.4695 63.0966 35.3354 63.0568C35.2371 63.0276 33.9976 62.8333 32.581 62.6247C27.6728 61.9025 26.3533 61.5297 24.7141 60.4015L24.0673 59.9564V63.9773Z" fill="black"/>
<mask id="mask0_486_155" style="mask-type:alpha" maskUnits="userSpaceOnUse" x="0" y="0" width="71" height="71">
<path fill-rule="evenodd" clip-rule="evenodd" d="M46.0312 0.15744C42.8052 0.618022 39.1819 2.64985 37.125 5.15171C35.7962 6.76804 35.1039 8.14735 33.5828 12.2096L32.152 16.0302H31.5438H30.9355V15.2366C30.9355 14.5846 30.8727 14.38 30.5842 14.0916C30.2523 13.7595 30.1434 13.7402 28.5962 13.7402C25.545 13.7402 21.8911 14.2411 20.6787 14.8255C19.2221 15.5278 18.4212 16.8689 18.4212 18.6065C18.4212 20.372 19.2154 21.6754 20.7503 22.4294C21.5457 22.8201 21.6301 22.8303 24.6528 22.9003L27.7424 22.9719L26.0343 25.0472C24.1101 27.3853 23.173 28.7092 22.5051 30.033C22.1411 30.7547 21.9983 30.9187 21.8055 30.8365C19.8748 30.0141 19.1306 29.8518 17.2707 29.8468C15.1558 29.8412 14.0582 30.1009 12.2626 31.0313C10.8851 31.7452 8.86985 33.7615 8.15842 35.1376C6.76274 37.8374 6.54697 40.5647 7.49936 43.4665L7.79998 44.3826L5.9357 46.2725C4.91019 47.3119 3.96109 48.3787 3.82659 48.6435C3.4497 49.3846 3.38574 50.5044 3.67134 51.3644L3.91587 52.1009L3.3481 53.0003C1.99206 55.1479 0.99131 57.5869 0.441282 60.0848C0.173422 61.3011 0.127205 62.0621 0.0676803 66.2319L0 70.9909H1.1457H2.29155L2.3578 66.3035C2.41532 62.2305 2.46225 61.4567 2.71551 60.3995C3.27341 58.0718 4.08214 56.1003 5.16574 54.4258C5.70919 53.5863 5.76542 53.5416 6.11484 53.6744C6.6633 53.8831 7.46974 53.8466 8.26645 53.5772C8.84238 53.3826 9.33259 52.984 10.9415 51.403L12.9112 49.4671L13.5886 49.7098C15.7981 50.5022 18.2039 50.5601 20.3671 49.8734C20.6173 49.7938 20.6334 49.9025 20.6356 51.695C20.6385 53.8141 20.8599 55.1365 21.4153 56.3499L21.7779 57.1422V62.5829C21.7779 66.4362 21.8287 68.1955 21.9519 68.6127C22.1841 69.3989 23.3695 70.5846 24.1555 70.8169C24.9819 71.061 34.5997 71.061 35.4262 70.8169C36.2121 70.5846 37.3975 69.3989 37.6297 68.6127C37.735 68.2559 37.8037 67.1046 37.8037 65.6938V63.364L38.9842 63.4673C39.6335 63.5243 41.2915 63.6693 42.6687 63.7896C44.5935 63.9579 48.1595 64.0245 58.0864 64.0775L71 64.1464V62.9887V61.8308H60.0033C48.9899 61.8308 45.2815 61.7332 40.737 61.3237C35.771 60.8763 29.3118 59.9092 27.7238 59.3755C25.4238 58.6023 23.5784 56.5178 23.0807 54.1307C22.8937 53.2333 22.8664 48.52 23.0482 48.52C23.3301 48.52 25.2114 46.6087 25.7628 45.7621C26.7691 44.2173 27.5014 41.9625 27.5014 40.4094C27.5014 39.94 27.5253 39.9145 27.8949 39.9909C30.0469 40.435 36.6188 41.0366 40.7616 41.1684L43.7909 41.265L44.2489 40.8067C44.6819 40.3738 44.7018 40.3078 44.6117 39.6038C43.9948 34.7834 40.5332 30.3993 35.834 28.4862C34.0844 27.774 32.9477 27.5841 29.892 27.4931L27.0598 27.4088L29.8681 23.9737L32.6762 20.5387L34.2025 20.2947C38.2599 19.6462 44.9229 18.9261 49.8946 18.5988C51.2325 18.5107 56.5286 18.4045 61.6635 18.3626L71 18.2865V17.1409V15.9953L61.6635 16.072C51.2163 16.1577 48.5308 16.2881 41.4524 17.0533C39.9572 17.215 37.6719 17.497 36.3741 17.68C35.0763 17.8631 33.9867 17.985 33.9528 17.9511C33.8711 17.8692 36.5601 10.6681 37.1737 9.32615C38.446 6.5429 40.8785 4.26489 43.8134 3.10814C45.8592 2.30191 46.0796 2.29003 59.0679 2.29003H71V1.14501V0L58.9449 0.0174614C52.3146 0.0270509 46.5034 0.0900268 46.0312 0.15744ZM25.2957 16.1876C23.5798 16.3686 21.9247 16.7105 21.5381 16.964C20.3137 17.7663 20.383 19.5402 21.6693 20.3247C22.1046 20.5902 22.3878 20.6087 25.9274 20.6012L29.7193 20.5932L30.4705 19.6522C30.8836 19.1346 31.2217 18.6232 31.2217 18.5157C31.2217 18.3705 30.9813 18.3202 30.2852 18.3202C29.4815 18.3202 29.2987 18.2704 28.9974 17.9689C28.7089 17.6805 28.6461 17.4758 28.6461 16.8238V16.0302L27.5372 16.0492C26.9273 16.0597 25.9186 16.1219 25.2957 16.1876ZM7.2481 17.5266C7.05493 17.7198 6.89682 17.9961 6.89682 18.1405C6.89682 18.6357 6.46097 20.1093 6.11355 20.7887C5.33945 22.303 4.12464 23.3612 2.53265 23.9082C1.57139 24.2384 1.17332 24.6092 1.17332 25.1743C1.17332 25.7801 1.54005 26.1537 2.37253 26.3957C4.65292 27.0588 6.39529 29.1871 6.83443 31.8457C6.88637 32.1606 7.01615 32.5575 7.12261 32.7278C7.38918 33.1538 8.05811 33.2781 8.59326 33.0013C9.05529 32.7624 9.08033 32.7091 9.33431 31.4292C9.8158 29.0029 11.5316 27.0294 13.7105 26.3957C14.552 26.1511 14.9097 25.7801 14.9097 25.152C14.9097 24.7147 14.3535 24.0453 13.9902 24.0453C13.6086 24.0453 12.2826 23.3836 11.6545 22.8797C10.3873 21.8629 9.5176 20.2755 9.23873 18.4697C9.053 17.2674 8.00388 16.7705 7.2481 17.5266ZM7.56432 22.8274C7.34125 23.1807 6.73627 23.857 6.22001 24.33L5.2815 25.1903L6.22001 26.0507C6.73627 26.5237 7.34125 27.2 7.56432 27.5532C7.78739 27.9064 8.00217 28.1954 8.04152 28.1954C8.08086 28.1954 8.2902 27.915 8.50655 27.5724C8.90161 26.9468 10.1541 25.677 10.6886 25.3601L10.9748 25.1903L10.6886 25.0206C10.1541 24.7037 8.90161 23.4339 8.50655 22.8083C8.2902 22.4656 8.08086 22.1852 8.04152 22.1852C8.00217 22.1852 7.78739 22.4742 7.56432 22.8274ZM24.5956 31.0203L23.9361 32.2976L24.6308 32.982L25.3255 33.6664L25.4289 33.1947C25.5726 32.5407 26.8323 31.3133 27.5896 31.0894C28.7901 30.7346 29.8821 30.9563 30.7984 31.741C31.8454 32.6374 32.2531 33.892 31.9321 35.2302C31.7002 36.1972 30.5529 37.4238 29.7372 37.5769C29.4501 37.6308 29.187 37.7208 29.1522 37.7769C28.9879 38.0427 38.3665 38.9229 41.428 38.9291L42.1191 38.9305L42.0189 38.4653C41.7151 37.0534 40.4995 34.8688 39.2795 33.5425C37.926 32.071 35.8318 30.7933 33.7708 30.1814C32.846 29.9069 32.289 29.8633 28.9897 29.8069L25.2551 29.743L24.5956 31.0203ZM50.4581 29.9046C49.7766 30.0678 48.5487 30.7866 48.1578 31.2513C47.3754 32.1812 47.064 33.0496 46.9949 34.4936C46.9128 36.2115 47.1127 37.2999 47.7477 38.5934C48.6256 40.3814 50.5551 41.8456 52.5261 42.2194C52.9979 42.309 56.7256 42.3655 62.148 42.3655H71V41.2205V40.0755H69.8553H68.7106V38.358V36.6405H69.8553H71V35.4955V34.3504H69.8553H68.7106V33.2054V32.0604H69.8553H71V30.9154V29.7704L60.9481 29.785C55.4196 29.7931 50.699 29.847 50.4581 29.9046ZM15.4821 32.2847C11.4252 33.1633 8.63762 37.2621 9.32501 41.3379C9.42016 41.9025 9.54551 42.3939 9.60346 42.4297C9.66155 42.4656 10.0988 42.0955 10.5753 41.6073L11.4416 40.7196L11.523 39.6685C11.6841 37.5868 12.8379 35.8986 14.7437 34.9566C15.7654 34.4515 15.9006 34.422 17.1991 34.422C18.4976 34.422 18.6328 34.4515 19.6545 34.9566C20.9569 35.6004 21.768 36.4291 22.3982 37.7597C22.8083 38.6255 22.8511 38.8449 22.8511 40.083C22.8511 41.3732 22.821 41.5108 22.3166 42.5316C21.3705 44.4466 19.6755 45.6005 17.5751 45.7594L16.5079 45.8401L15.6111 46.7451C14.6479 47.7172 14.6443 47.6897 15.7682 47.9402C17.3412 48.2906 19.3387 47.9813 20.941 47.139C24.3851 45.3287 26.0522 41.0805 24.7388 37.4614C24.2543 36.1264 23.7653 35.3615 22.7568 34.362C20.8739 32.4962 18.1269 31.7118 15.4821 32.2847ZM50.61 32.2625C50.0838 32.4964 49.6064 33.0005 49.4034 33.5368C49.0963 34.3473 49.1023 34.3504 50.9678 34.3504H52.6848V33.2054V32.0604L51.8621 32.066C51.4095 32.0691 50.8461 32.1575 50.61 32.2625ZM54.9742 33.2054V34.3504H56.1189H57.2636V33.2054V32.0604H56.1189H54.9742V33.2054ZM59.553 33.2054V34.3504H60.6977H61.8424V33.2054V32.0604H60.6977H59.553V33.2054ZM64.1318 33.2054V34.3504H65.2765H66.4212V33.2054V32.0604H65.2765H64.1318V33.2054ZM27.8527 33.5568C27.1428 34.2667 27.6458 35.4955 28.6461 35.4955C28.9248 35.4955 29.2182 35.3656 29.4395 35.1441C29.661 34.9227 29.7908 34.6292 29.7908 34.3504C29.7908 34.0716 29.661 33.7782 29.4395 33.5568C29.2182 33.3352 28.9248 33.2054 28.6461 33.2054C28.3674 33.2054 28.074 33.3352 27.8527 33.5568ZM34.5771 33.4068C33.1152 34.0437 32.7861 35.988 33.9524 37.0976C34.863 37.9642 36.0932 38.0049 37.011 37.1988C38.937 35.5073 36.9306 32.3813 34.5771 33.4068ZM15.9714 36.8615C15.6505 36.9803 15.1676 37.3109 14.8983 37.5961C14.5408 37.975 14.486 38.0869 14.6951 38.0115C17.4906 37.003 20.2708 39.784 19.2626 42.5802C19.1872 42.7892 19.2995 42.7341 19.6784 42.3764C20.6148 41.4923 20.8994 39.708 20.2917 38.5325C20.0043 37.9767 19.2913 37.2664 18.7286 36.9752C18.1086 36.6546 16.6893 36.596 15.9714 36.8615ZM49.5373 36.9993C49.8099 37.7164 50.0926 38.1542 50.6321 38.6938C51.1715 39.2334 51.6092 39.5162 52.3261 39.7888L52.6848 39.9252V38.2828V36.6405H51.0429H49.4009L49.5373 36.9993ZM54.9742 38.358V40.0755H56.1189H57.2636V38.358V36.6405H56.1189H54.9742V38.358ZM59.553 38.358V40.0755H60.6977H61.8424V38.358V36.6405H60.6977H59.553V38.358ZM64.1318 38.358V40.0755H65.2765H66.4212V38.358V36.6405H65.2765H64.1318V38.358ZM10.5836 44.9083C6.18295 49.3103 5.75212 49.7835 5.75212 50.215C5.75212 50.866 6.41161 51.5257 7.06237 51.5257C7.49378 51.5257 7.96682 51.0947 12.3676 46.6928C16.7683 42.2908 17.1991 41.8177 17.1991 41.3861C17.1991 40.7352 16.5396 40.0755 15.8889 40.0755C15.4575 40.0755 14.9844 40.5065 10.5836 44.9083ZM35.9871 43.7251C35.8096 43.8495 35.5479 44.3461 35.3649 44.9059C34.9266 46.2463 34.2181 46.9456 33.2985 46.9456C33.0951 46.9456 32.7861 47.0382 32.6118 47.1514C32.3366 47.3302 31.9364 47.3306 29.5762 47.1556C25.9274 46.8849 25.9768 46.8832 25.5633 47.297L25.212 47.6482V50.9927C25.212 54.8796 25.3074 55.3499 26.2966 56.3393C26.7287 56.7717 27.13 57.0126 27.6694 57.1637C28.1826 57.3076 31.3203 57.5461 37.28 57.8945C47.0419 58.4652 46.6833 58.4776 46.8842 57.5622C47.0145 56.9689 44.643 48.6829 44.2501 48.3586C44.0583 48.2003 43.5296 48.0926 42.6006 48.0229C41.4034 47.9332 41.2131 47.8821 41.0691 47.612C40.8319 47.1662 40.5072 46.9553 40.0502 46.9502C39.0926 46.9393 38.396 46.2602 37.9531 44.9059C37.6186 43.8828 37.2734 43.5106 36.659 43.5106C36.458 43.5106 36.1556 43.6072 35.9871 43.7251ZM36.3668 47.8831C36.2149 48.0664 36.2242 48.1464 36.4209 48.3431C36.643 48.5654 36.675 48.5654 36.8971 48.3431C37.0939 48.1464 37.1032 48.0664 36.9512 47.8831C36.8499 47.7611 36.7184 47.6612 36.659 47.6612C36.5996 47.6612 36.4681 47.7611 36.3668 47.8831ZM48.4371 48.462C48.0788 48.8204 48.0691 48.8752 48.1578 50.0301C48.5105 54.6198 51.9568 58.4656 56.4955 59.3342C57.3407 59.496 59.0316 59.5408 64.2875 59.5408H71V58.3957V57.2507H64.2978C58.0917 57.2507 57.5137 57.2298 56.4904 56.9681C55.018 56.5913 53.8757 55.9606 52.8452 54.955C51.8817 54.0148 51.3535 53.1861 50.8717 51.8583C50.2692 50.1982 49.0465 50.3806 60.7692 50.3806H71V49.2356V48.0906H59.9043H48.8084L48.4371 48.462ZM27.5014 51.78C27.5014 54.2884 27.5727 54.6168 28.1884 54.945C28.4431 55.0806 44.0596 56.0502 44.1725 55.9373C44.2406 55.8693 42.9162 51.1027 42.6836 50.5784C42.5591 50.2981 42.397 50.2676 40.5155 50.1707C38.2088 50.0517 38.4011 49.964 37.9374 51.3469C37.6191 52.2955 37.257 52.6707 36.659 52.6707C36.0537 52.6707 35.6992 52.2967 35.3721 51.3135C34.8515 49.7487 34.9932 49.817 31.7915 49.5882C30.2583 49.4785 28.6657 49.3866 28.2526 49.3838L27.5014 49.3788V51.78ZM24.0673 63.9773V67.9983L24.4186 68.3495L24.7697 68.7009H29.7908H34.8119L35.163 68.3495C35.5086 68.004 35.5143 67.9583 35.5143 65.5541C35.5143 63.7225 35.4695 63.0966 35.3354 63.0568C35.2371 63.0276 33.9976 62.8333 32.581 62.6247C27.6728 61.9025 26.3533 61.5297 24.7141 60.4015L24.0673 59.9564V63.9773Z" fill="black"/>
</mask>
<g mask="url(#mask0_486_155)">
<path d="M22.5 31L10.5 14L-4 16.5L-15 32L-18 73L1 80.5L17 68L21 50L23.5 48.5L25.5 47.5L29 44.5L28 40C28.4 35.2 24.5 32 22.5 31Z" fill="#EDBC18"/>
</g>
</svg>
