<svg width="94" height="41" viewBox="0 0 94 41" fill="none" xmlns="http://www.w3.org/2000/svg">
<path fill-rule="evenodd" clip-rule="evenodd" d="M3.50019 0.320112C3.20768 0.560836 2.7253 1.98909 1.55564 6.07737L0 11.5145V16.3744C0 19.9832 0.0707442 21.5765 0.275096 22.5635C0.725953 24.7425 4.70009 36.3596 5.32946 37.3382C6.34792 38.9225 7.99831 40.1349 9.8844 40.6844C10.778 40.9447 14.5614 40.9744 46.9184 40.9744C79.2755 40.9744 83.0588 40.9447 83.9525 40.6844C85.8424 40.1338 87.489 38.9227 88.5131 37.3296C89.1502 36.3388 93.3919 23.8944 93.5852 22.4496C93.6494 21.9694 93.7735 21.5324 93.8611 21.4784C93.9485 21.4243 94.0104 19.0185 93.9985 16.132C93.9866 13.2455 93.921 11.1308 93.8528 11.4326C93.7366 11.9462 93.7207 11.925 93.6016 11.1015C93.3391 9.28654 91.0914 1.96 90.5995 1.3163C89.8169 0.292308 88.9368 0.00859788 86.5271 0.00402485C83.8576 -0.00109695 83.1717 0.205604 82.0094 1.36569C80.8768 2.49633 80.6411 3.21758 80.6411 5.55459V7.31685H46.9184H13.1958V5.55459C13.1958 3.21758 12.9601 2.49633 11.8275 1.36569C10.6131 0.153837 10.0294 0 6.64281 0C4.29084 0 3.83265 0.0466449 3.50019 0.320112ZM5.15077 4.16146C4.951 4.84064 4.3702 6.85205 3.85996 8.6315L2.9324 11.8666V14.7078V17.5487L13.15 17.6003L23.3676 17.6519L24.4388 18.1932C25.8997 18.9312 26.9449 20.1438 27.6724 21.9449L28.2656 23.4139H29.5278H30.7902V20.2046C30.7902 17.0408 30.7966 16.9886 31.2402 16.5461L31.6899 16.0971H46.9184H62.147L62.5967 16.5461C63.0402 16.9886 63.0467 17.0408 63.0467 20.2046V23.4139H64.3091H65.5713L66.1788 21.9048C66.8828 20.1565 68.0578 18.8316 69.5529 18.1002L70.4693 17.6519L80.7052 17.6003L90.9411 17.5487L90.8691 14.4907L90.7969 11.4326L89.6382 7.40831C89.0008 5.19496 88.3964 3.28124 88.295 3.15539C88.1698 3.00027 87.5262 2.92674 86.2918 2.92674C84.6053 2.92674 84.4405 2.9593 84.0234 3.37581C83.5854 3.81281 83.5735 3.89823 83.5735 6.58516C83.5735 9.27209 83.5616 9.35752 83.1235 9.79452L82.6738 10.2436H46.9184H11.1631L10.7133 9.79452C10.2753 9.35752 10.2634 9.27209 10.2634 6.58516C10.2634 3.89823 10.2515 3.81281 9.81347 3.37581C9.39304 2.95601 9.23817 2.92674 7.43877 2.92674H5.51383L5.15077 4.16146ZM0.0808243 16.3714C0.0810076 19.289 0.1063 20.457 0.13709 18.9669C0.16788 17.4768 0.16788 15.0897 0.136907 13.6622C0.106116 12.2347 0.0808243 13.4539 0.0808243 16.3714ZM33.7226 21.2189V23.4139H46.9184H60.1143V21.2189V19.0238H46.9184H33.7226V21.2189ZM3.00058 21.3561C3.06546 21.834 4.11838 25.2204 5.34027 28.8816C7.77582 36.1789 7.8889 36.4017 9.69819 37.4632L10.5383 37.9562H46.9184H83.2986L84.1387 37.4632C85.948 36.4017 86.0611 36.1789 88.4966 28.8816C89.7185 25.2204 90.7714 21.834 90.8363 21.3561L90.9543 20.4872H81.1821C71.6727 20.4872 71.3886 20.4974 70.6256 20.866C70.1946 21.0744 69.6809 21.5064 69.4842 21.8263C69.2875 22.1461 68.2449 24.6106 67.167 27.3026C64.9632 32.8071 64.5204 33.4978 62.5601 34.4881L61.4888 35.0294H46.9184H32.3481L31.4317 34.5792C30.9277 34.3316 30.0985 33.7142 29.589 33.2073C28.7139 32.3364 28.5535 32.0127 26.6863 27.3467C25.5995 24.6303 24.5493 22.1461 24.3527 21.8263C24.156 21.5064 23.6423 21.0744 23.2113 20.866C22.4483 20.4974 22.1642 20.4872 12.6548 20.4872H2.88255L3.00058 21.3561ZM13.2761 23.5758C12.3837 23.8043 10.8237 24.7207 10.3298 25.3066C10.0805 25.6022 9.65768 26.2644 9.3901 26.7784C8.97682 27.5723 8.90314 27.9462 8.89966 29.2674C8.89599 30.6913 8.94823 30.9194 9.5184 31.9748C10.2097 33.2543 10.7799 33.8055 12.1682 34.5364C13.075 35.014 13.1982 35.0294 16.1282 35.0294C19.0733 35.0294 19.1772 35.0162 20.1084 34.5264C21.3274 33.8851 22.228 32.9838 22.8562 31.7765C23.2822 30.958 23.3527 30.6013 23.3527 29.2674C23.3527 27.9414 23.2811 27.575 22.8663 26.7784C22.1483 25.3993 21.5929 24.8257 20.3071 24.1352C19.1611 23.5196 19.1319 23.5145 16.4948 23.4735C15.0331 23.4507 13.5847 23.4968 13.2761 23.5758ZM74.8565 23.5758C73.9642 23.8043 72.4041 24.7207 71.9102 25.3066C71.661 25.6022 71.2381 26.2644 70.9706 26.7784C70.5573 27.5723 70.4836 27.9462 70.4801 29.2674C70.4764 30.6913 70.5287 30.9194 71.0988 31.9748C71.7902 33.2543 72.3603 33.8055 73.7486 34.5364C74.6555 35.014 74.7786 35.0294 77.7087 35.0294C80.6537 35.0294 80.7576 35.0162 81.6889 34.5264C82.9078 33.8851 83.8084 32.9838 84.4367 31.7765C84.8626 30.958 84.9332 30.6013 84.9332 29.2674C84.9332 27.9414 84.8615 27.575 84.4468 26.7784C83.7287 25.3993 83.1734 24.8257 81.8875 24.1352C80.7415 23.5196 80.7124 23.5145 78.0752 23.4735C76.6136 23.4507 75.1652 23.4968 74.8565 23.5758ZM13.4616 26.598C11.1957 27.5831 11.2216 30.9936 13.5021 31.9446C14.6871 32.4387 14.662 32.4965 14.662 29.2674C14.662 26.0262 14.6809 26.0679 13.4616 26.598ZM17.5944 29.2674V32.2399L18.1901 32.1233C18.8894 31.9867 19.5309 31.547 20.0573 30.8433C20.5871 30.135 20.5871 28.3998 20.0573 27.6915C19.5309 26.9878 18.8894 26.5481 18.1901 26.4114L17.5944 26.2949V29.2674ZM29.5073 26.4285C29.5073 26.4768 29.844 27.3615 30.2556 28.3949C31.7264 32.0869 31.9007 32.1941 36.438 32.1941H39.5874V29.2674V26.3407H34.5474C31.7753 26.3407 29.5073 26.3802 29.5073 26.4285ZM42.5198 29.2674V32.1941H46.9184H51.317V29.2674V26.3407H46.9184H42.5198V29.2674ZM54.2494 29.2674V32.1941H57.371C61.8132 32.1941 62.1294 32.0094 63.4898 28.6164C63.9517 27.4643 64.3296 26.481 64.3296 26.4312C64.3296 26.3814 62.0616 26.3407 59.2895 26.3407H54.2494V29.2674ZM75.042 26.598C72.7762 27.5831 72.802 30.9936 75.0825 31.9446C76.2676 32.4387 76.2425 32.4965 76.2425 29.2674C76.2425 26.0262 76.2613 26.0679 75.042 26.598ZM79.1749 29.2674V32.2399L79.7705 32.1233C80.4699 31.9867 81.1114 31.547 81.6377 30.8433C82.1676 30.135 82.1676 28.3998 81.6377 27.6915C81.1114 26.9878 80.4699 26.5481 79.7705 26.4114L79.1749 26.2949V29.2674Z" fill="black"/>
<mask id="mask0_486_154" style="mask-type:alpha" maskUnits="userSpaceOnUse" x="0" y="0" width="94" height="41">
<path fill-rule="evenodd" clip-rule="evenodd" d="M3.50019 0.320112C3.20768 0.560836 2.7253 1.98909 1.55564 6.07737L0 11.5145V16.3744C0 19.9832 0.0707442 21.5765 0.275096 22.5635C0.725953 24.7425 4.70009 36.3596 5.32946 37.3382C6.34792 38.9225 7.99831 40.1349 9.8844 40.6844C10.778 40.9447 14.5614 40.9744 46.9184 40.9744C79.2755 40.9744 83.0588 40.9447 83.9525 40.6844C85.8424 40.1338 87.489 38.9227 88.5131 37.3297C89.1502 36.3388 93.3919 23.8944 93.5853 22.4496C93.6494 21.9694 93.7735 21.5324 93.8611 21.4784C93.9485 21.4243 94.0105 19.0185 93.9985 16.132C93.9866 13.2455 93.921 11.1308 93.8528 11.4326C93.7366 11.9462 93.7207 11.925 93.6016 11.1015C93.3391 9.28654 91.0914 1.96 90.5995 1.3163C89.8169 0.292308 88.9368 0.00859788 86.5271 0.00402485C83.8576 -0.00109695 83.1717 0.205604 82.0094 1.36569C80.8768 2.49633 80.6411 3.21758 80.6411 5.55458V7.31685H46.9184H13.1958V5.55458C13.1958 3.21758 12.9601 2.49633 11.8275 1.36569C10.6131 0.153837 10.0294 0 6.64281 0C4.29084 0 3.83265 0.0466449 3.50019 0.320112ZM5.15077 4.16146C4.951 4.84064 4.3702 6.85205 3.85996 8.6315L2.9324 11.8666V14.7078V17.5487L13.15 17.6003L23.3676 17.6519L24.4388 18.1932C25.8997 18.9312 26.9449 20.1438 27.6724 21.9449L28.2656 23.4139H29.5278H30.7902V20.2046C30.7902 17.0408 30.7966 16.9886 31.2402 16.5461L31.6899 16.0971H46.9184H62.147L62.5967 16.5461C63.0402 16.9886 63.0467 17.0408 63.0467 20.2046V23.4139H64.3091H65.5713L66.1788 21.9048C66.8828 20.1565 68.0578 18.8316 69.5529 18.1002L70.4693 17.6519L80.7052 17.6003L90.9411 17.5487L90.8691 14.4907L90.7969 11.4326L89.6382 7.40831C89.0008 5.19496 88.3964 3.28124 88.295 3.15539C88.1698 3.00027 87.5262 2.92674 86.2918 2.92674C84.6053 2.92674 84.4405 2.9593 84.0234 3.37581C83.5854 3.81281 83.5735 3.89823 83.5735 6.58516C83.5735 9.27209 83.5616 9.35752 83.1235 9.79452L82.6738 10.2436H46.9184H11.1631L10.7134 9.79452C10.2753 9.35752 10.2634 9.27209 10.2634 6.58516C10.2634 3.89823 10.2515 3.81281 9.81347 3.37581C9.39303 2.95601 9.23817 2.92674 7.43877 2.92674H5.51383L5.15077 4.16146ZM0.0808244 16.3714C0.0810076 19.289 0.1063 20.457 0.13709 18.9669C0.16788 17.4768 0.16788 15.0897 0.136907 13.6622C0.106116 12.2347 0.0808244 13.4539 0.0808244 16.3714ZM33.7226 21.2189V23.4139H46.9184H60.1143V21.2189V19.0238H46.9184H33.7226V21.2189ZM3.00058 21.3561C3.06546 21.834 4.11838 25.2204 5.34027 28.8816C7.77582 36.1789 7.8889 36.4017 9.69819 37.4632L10.5383 37.9562H46.9184H83.2986L84.1387 37.4632C85.948 36.4017 86.0611 36.1789 88.4966 28.8816C89.7185 25.2204 90.7714 21.834 90.8363 21.3561L90.9543 20.4872H81.1821C71.6727 20.4872 71.3886 20.4974 70.6256 20.866C70.1946 21.0744 69.6808 21.5064 69.4842 21.8263C69.2875 22.1461 68.2449 24.6106 67.167 27.3026C64.9632 32.8071 64.5204 33.4978 62.5601 34.4881L61.4888 35.0294H46.9184H32.3481L31.4317 34.5792C30.9277 34.3316 30.0985 33.7142 29.589 33.2073C28.7139 32.3364 28.5535 32.0127 26.6863 27.3467C25.5995 24.6303 24.5493 22.1461 24.3527 21.8263C24.156 21.5064 23.6423 21.0744 23.2113 20.866C22.4483 20.4974 22.1642 20.4872 12.6548 20.4872H2.88255L3.00058 21.3561ZM13.2761 23.5758C12.3837 23.8043 10.8237 24.7207 10.3298 25.3066C10.0805 25.6022 9.65769 26.2644 9.3901 26.7784C8.97682 27.5723 8.90314 27.9462 8.89966 29.2674C8.89599 30.6913 8.94823 30.9194 9.5184 31.9748C10.2097 33.2543 10.7799 33.8055 12.1682 34.5364C13.075 35.014 13.1982 35.0294 16.1282 35.0294C19.0733 35.0294 19.1772 35.0162 20.1084 34.5264C21.3274 33.8851 22.228 32.9838 22.8562 31.7765C23.2822 30.958 23.3527 30.6013 23.3527 29.2674C23.3527 27.9414 23.2811 27.575 22.8663 26.7784C22.1483 25.3993 21.5929 24.8257 20.3071 24.1352C19.1611 23.5196 19.1319 23.5145 16.4948 23.4735C15.0331 23.4507 13.5847 23.4968 13.2761 23.5758ZM74.8565 23.5758C73.9642 23.8043 72.4041 24.7207 71.9102 25.3066C71.661 25.6022 71.2381 26.2644 70.9706 26.7784C70.5573 27.5723 70.4836 27.9462 70.4801 29.2674C70.4764 30.6913 70.5287 30.9194 71.0988 31.9748C71.7902 33.2543 72.3603 33.8055 73.7486 34.5364C74.6555 35.014 74.7786 35.0294 77.7087 35.0294C80.6537 35.0294 80.7576 35.0162 81.6889 34.5264C82.9078 33.8851 83.8084 32.9838 84.4367 31.7765C84.8626 30.958 84.9332 30.6013 84.9332 29.2674C84.9332 27.9414 84.8615 27.575 84.4468 26.7784C83.7287 25.3993 83.1734 24.8257 81.8875 24.1352C80.7415 23.5196 80.7124 23.5145 78.0752 23.4735C76.6136 23.4507 75.1652 23.4968 74.8565 23.5758ZM13.4616 26.598C11.1957 27.5831 11.2216 30.9936 13.5021 31.9446C14.6871 32.4387 14.662 32.4965 14.662 29.2674C14.662 26.0262 14.6809 26.0679 13.4616 26.598ZM17.5944 29.2674V32.2399L18.1901 32.1233C18.8894 31.9867 19.5309 31.547 20.0573 30.8433C20.5871 30.135 20.5871 28.3998 20.0573 27.6915C19.5309 26.9878 18.8894 26.5481 18.1901 26.4114L17.5944 26.2949V29.2674ZM29.5073 26.4285C29.5073 26.4768 29.844 27.3615 30.2556 28.3949C31.7264 32.0869 31.9007 32.1941 36.438 32.1941H39.5874V29.2674V26.3407H34.5474C31.7753 26.3407 29.5073 26.3802 29.5073 26.4285ZM42.5198 29.2674V32.1941H46.9184H51.317V29.2674V26.3407H46.9184H42.5198V29.2674ZM54.2494 29.2674V32.1941H57.371C61.8132 32.1941 62.1294 32.0094 63.4898 28.6164C63.9517 27.4643 64.3296 26.481 64.3296 26.4312C64.3296 26.3814 62.0616 26.3407 59.2895 26.3407H54.2494V29.2674ZM75.042 26.598C72.7762 27.5831 72.802 30.9936 75.0825 31.9446C76.2676 32.4387 76.2425 32.4965 76.2425 29.2674C76.2425 26.0262 76.2613 26.0679 75.042 26.598ZM79.1749 29.2674V32.2399L79.7705 32.1233C80.4699 31.9867 81.1114 31.547 81.6377 30.8433C82.1676 30.135 82.1676 28.3998 81.6377 27.6915C81.1114 26.9878 80.4699 26.5481 79.7705 26.4114L79.1749 26.2949V29.2674Z" fill="black"/>
</mask>
<g mask="url(#mask0_486_154)">
<path d="M24 29.5C24 33.6421 20.1944 37 15.5 37C10.8056 37 7 33.6421 7 29.5C7 25.3579 10.8056 22 15.5 22C20.1944 22 24 25.3579 24 29.5Z" fill="#EDBC18"/>
<path d="M86 29.5C86 33.6421 82.1944 37 77.5 37C72.8056 37 69 33.6421 69 29.5C69 25.3579 72.8056 22 77.5 22C82.1944 22 86 25.3579 86 29.5Z" fill="#EDBC18"/>
</g>
</svg>
