<svg width="94" height="46" viewBox="0 0 94 46" fill="none" xmlns="http://www.w3.org/2000/svg">
<path fill-rule="evenodd" clip-rule="evenodd" d="M16.7472 0.279952C15.166 0.663244 13.5677 1.58714 12.3227 2.83761C11.0996 4.06605 11.2164 3.84687 6.54488 13.6759C1.52592 24.236 1.44452 24.5936 4.01982 24.7706L5.35596 24.8624L5.40711 27.4182C5.44561 29.3378 5.39996 30.0122 5.22377 30.1278C5.09489 30.2125 4.25247 30.2695 3.35193 30.2549C1.92174 30.2314 1.67718 30.2741 1.42032 30.5917C1.20986 30.8518 0.950805 32.3617 0.510437 35.8941C-0.0850323 40.6691 -0.0954824 40.8666 0.191252 41.8542C0.766371 43.8338 2.28053 45.2708 4.25815 45.7139C4.80082 45.8356 5.52719 45.8723 5.92136 45.7983C6.87433 45.6194 7.91677 44.5552 8.1848 43.4879C9.11522 39.7813 10.6956 37.6595 13.5794 36.2443C19.0338 33.5679 25.4639 36.6111 27.0856 42.6367C27.5706 44.4387 27.9906 45.0777 28.9879 45.5313C29.7042 45.8569 30.5793 45.8731 47.6315 45.8769L65.5235 45.881L66.3292 45.4543C67.3005 44.94 67.638 44.3983 68.2027 42.4464C68.75 40.5542 69.6067 39.1304 70.95 37.8805C73.1984 35.7885 76.3209 34.8841 79.2396 35.4792C82.9721 36.2401 85.5844 38.6636 86.7781 42.4728C87.3639 44.3415 88.8086 45.3703 90.4217 45.0672C91.7346 44.8207 93.6185 42.4976 93.6324 41.1082C93.6359 40.7442 93.6737 40.7062 93.8147 40.9246C94.0517 41.2917 94.0662 39.7641 93.8301 39.3158C93.7377 39.1405 93.2726 36.932 92.7964 34.4079C91.886 29.5804 91.6229 28.763 90.5913 27.5562C89.3501 26.1044 88.6258 25.8993 82.5884 25.2914C76.1528 24.6434 75.5584 24.5013 74.4075 23.3371C73.6237 22.5442 73.2384 21.7404 69.5493 13.2057C67.3454 8.10713 65.2617 3.50231 64.9186 2.97254C64.129 1.75309 62.8803 0.827171 61.3911 0.356869C60.2519 -0.00292557 59.7547 -0.0108213 39.0244 0.00404778C21.3764 0.0168976 17.6425 0.063158 16.7472 0.279952ZM16.906 2.26488C15.2582 2.78658 13.8165 3.79566 12.9843 5.0096C12.4845 5.73891 5.60108 20.0721 4.88277 21.8794L4.53627 22.7513H5.01001C5.87058 22.7513 6.69173 23.2884 7.08957 24.1114C7.41205 24.7785 7.4643 25.2429 7.46393 27.4444C7.46375 30.345 7.27583 30.9768 6.19966 31.6966C5.69568 32.0338 5.32406 32.1133 4.2532 32.1133H2.9299L2.73538 33.6277C2.09958 38.5777 1.91753 40.536 2.03504 41.1579C2.19876 42.0255 3.10993 43.0821 4.07097 43.5193C5.54296 44.1888 6.07683 43.8977 6.4699 42.2105C7.4995 37.7916 11.0356 34.3811 15.524 33.478C21.4534 32.2848 27.1533 35.8135 28.8673 41.7389C29.0999 42.5428 29.4246 43.3492 29.5891 43.5311C29.873 43.8452 30.7719 43.8617 47.6145 43.8617C67.8337 43.8617 65.7272 44.0611 66.2326 42.1005C67.249 38.1577 70.0196 35.1613 73.8313 33.8824C80.0175 31.8067 86.3995 35.156 88.5746 41.6196C88.9096 42.6147 89.085 42.886 89.4867 43.0287C90.0849 43.2409 90.3784 43.0841 91.1365 42.1461C92.007 41.0694 91.987 40.1 90.9889 34.9412C90.0869 30.2793 89.8383 29.4754 89.072 28.7404C88.1981 27.9022 87.4235 27.7354 81.7302 27.1586C77.7152 26.7516 75.9376 26.4972 75.2125 26.2257C74.0549 25.7919 72.5461 24.5071 71.916 23.4184C71.6743 23.001 69.7713 18.6944 67.687 13.8482C65.6027 9.00203 63.703 4.69882 63.465 4.28542C63.2272 3.87221 62.7412 3.3114 62.3848 3.03935C60.9676 1.95685 62.1193 2.00697 38.9288 2.02037C22.299 2.02991 17.4789 2.08351 16.906 2.26488ZM17.9677 5.52487C17.4699 5.63648 16.9023 5.97186 16.3694 6.46897C15.6471 7.14248 15.1834 8.0003 12.6952 13.2663C10.1419 18.6702 9.84764 19.3929 9.84764 20.2607C9.84764 22.0119 11.036 23.1866 13.0166 23.3931C13.6432 23.4584 17.4973 23.4852 21.581 23.4527C28.1768 23.4004 29.0702 23.3587 29.5801 23.0792C30.3589 22.6522 31.0611 21.7802 31.2897 20.9558C31.5522 20.009 31.541 8.7487 31.2767 7.7947C31.0171 6.85886 29.9365 5.77691 29.0018 5.51698C28.1061 5.26806 19.0833 5.27449 17.9677 5.52487ZM35.4565 5.57829C34.5429 5.90449 34.0719 6.33992 33.6593 7.23977C33.341 7.93366 33.3223 8.82599 33.3184 23.447C33.3146 38.2724 33.3289 38.9485 33.6616 39.6011C34.1046 40.4703 34.5802 40.8965 35.4565 41.2093C36.3895 41.5425 45.7522 41.5577 46.6624 41.2275C47.5798 40.8947 48.4609 39.9295 48.6941 39.0017C48.9787 37.8704 48.9779 8.82103 48.6934 7.7947C48.4338 6.85886 47.3532 5.77691 46.4186 5.51698C45.309 5.20859 36.3515 5.2587 35.4565 5.57829ZM52.8646 5.58123C51.9364 5.91257 51.1358 6.69824 50.9015 7.50741C50.7774 7.93604 50.7319 13.4783 50.768 23.7753L50.8228 39.3929L51.3365 40.0672C52.323 41.362 52.4312 41.3835 57.9862 41.3835H62.9496L63.678 40.9009C64.1675 40.5766 64.6088 40.0345 65.0233 39.2488C65.8857 37.6134 66.5982 36.581 67.628 35.4744L68.5146 34.5217V28.3417V22.1617L65.1995 14.4913C62.9832 9.36274 61.7224 6.6652 61.3953 6.35167C60.4579 5.45255 59.7967 5.31157 56.5579 5.32038C54.5066 5.32589 53.3514 5.40757 52.8646 5.58123ZM17.8973 7.60507C17.5268 7.80681 16.7823 9.20799 14.5241 13.9542C12.0302 19.1961 11.65 20.111 11.7943 20.5221C12.1177 21.4427 12.2887 21.4606 20.7184 21.4636L28.5644 21.4663L29.0143 21.0157L29.4644 20.5652V14.3154C29.4644 8.31053 29.4501 8.05151 29.0977 7.69869C28.7479 7.34844 28.4918 7.33192 23.5519 7.3389C19.4533 7.34477 18.2735 7.40021 17.8973 7.60507ZM35.7386 7.61737L35.3311 7.903V23.3938V38.8846L35.7386 39.1702C36.0829 39.4118 36.9144 39.4561 41.1149 39.4561C46.0719 39.4561 46.0849 39.455 46.4826 39.0313L46.8811 38.6063V23.3681V8.12989L46.4569 7.73063C46.0428 7.34128 45.9122 7.33155 41.0892 7.33155C36.912 7.33155 36.0829 7.3758 35.7386 7.61737ZM53.089 7.68254L52.6562 8.03334V23.3938V38.7543L53.089 39.1051C53.4874 39.4283 53.8609 39.4561 57.8013 39.4561C60.3987 39.4561 62.2462 39.3804 62.5018 39.2635C62.7463 39.1515 63.2301 38.487 63.6562 37.6776C64.0595 36.9114 64.864 35.7184 65.4437 35.0265L66.4979 33.7684V28.0856V22.4029L63.3845 15.1885C61.5481 10.9332 60.1111 7.84224 59.8808 7.6528C59.5446 7.37598 59.0776 7.33155 56.5062 7.33155C53.8409 7.33155 53.4755 7.369 53.089 7.68254ZM3.47078e-05 40.4657C0.00150138 40.9705 0.0370682 41.1552 0.079235 40.8761C0.121219 40.5971 0.120119 40.1841 0.0766684 39.9583C0.0332182 39.7325 -0.00124863 39.9609 3.47078e-05 40.4657Z" fill="black"/>
<path fill-rule="evenodd" clip-rule="evenodd" d="M35.4568 5.57806C34.5433 5.90426 34.0723 6.33968 33.6596 7.23953C33.3413 7.93342 33.3226 8.82575 33.3188 23.4468C33.3149 38.2722 33.3292 38.9482 33.662 39.6008C34.1049 40.47 34.5805 40.8963 35.4568 41.2091C36.3898 41.5423 45.7525 41.5575 46.6628 41.2272C47.5802 40.8944 48.4613 39.9292 48.6945 39.0015C48.979 37.8701 48.9783 8.82079 48.6938 7.79446C48.4342 6.85863 47.3536 5.77668 46.4189 5.51674C45.3094 5.20835 36.3519 5.25846 35.4568 5.57806ZM52.865 5.58099C51.9367 5.91233 51.1361 6.698 50.9018 7.50717C50.7777 7.93581 50.7322 13.4781 50.7684 23.775L50.8232 39.3927L51.3369 40.0669C52.3234 41.3618 52.4316 41.3833 57.9866 41.3833H62.95L63.6784 40.9007C64.1679 40.5763 64.6092 40.0342 65.0237 39.2486C65.8861 37.6132 66.5985 36.5808 67.6283 35.4742L68.5149 34.5215V28.3415V22.1615L65.1999 14.491C62.9835 9.3625 61.7228 6.66496 61.3957 6.35143C60.4583 5.45231 59.797 5.31133 56.5582 5.32014C54.5069 5.32565 53.3517 5.40734 52.865 5.58099ZM35.739 7.61714L35.3314 7.90277V23.3936V38.8844L35.739 39.17C36.0833 39.4116 36.9147 39.4558 41.1153 39.4558C46.0723 39.4558 46.0853 39.4547 46.4829 39.031L46.8815 38.6061V23.3679V8.12966L46.4573 7.73039C46.0431 7.34105 45.9126 7.33132 41.0896 7.33132C36.9123 7.33132 36.0833 7.37556 35.739 7.61714ZM53.0894 7.6823L52.6565 8.0331V23.3936V38.754L53.0894 39.1048C53.4878 39.4281 53.8612 39.4558 57.8016 39.4558C60.3991 39.4558 62.2465 39.3802 62.5021 39.2632C62.7467 39.1513 63.2305 38.4868 63.6566 37.6774C64.0599 36.9112 64.8644 35.7182 65.4441 35.0263L66.4982 33.7681V28.0854V22.4027L63.3849 15.1882C61.5484 10.9329 60.1114 7.84201 59.8812 7.65256C59.5449 7.37574 59.078 7.33132 56.5065 7.33132C53.8412 7.33132 53.4758 7.36877 53.0894 7.6823Z" fill="#EDBC18"/>
</svg>
