<svg width="95" height="43" viewBox="0 0 95 43" fill="none" xmlns="http://www.w3.org/2000/svg">
<path fill-rule="evenodd" clip-rule="evenodd" d="M15.8447 0.355062C12.9752 1.27065 11.8931 2.46419 9.42525 7.43624C5.48206 15.3796 2.51518 23.6963 0.599267 32.1766C-0.153201 35.507 -0.172286 36.4028 0.481793 37.6824C0.907036 38.5144 1.9732 39.5097 2.81535 39.8608C4.2017 40.4389 21.0273 41.5796 34.3186 41.9966C41.7818 42.2309 59.8862 42.1225 66.6519 41.8032C78.412 41.2482 90.9164 40.291 91.9297 39.8684C92.8644 39.4786 93.972 38.3903 94.3409 37.4991C94.5214 37.0632 94.7438 36.5622 94.8353 36.3856C95.0656 35.9407 95.0499 34.5284 94.8162 34.6724C94.7143 34.7353 94.6309 34.6242 94.6309 34.4256C94.6309 33.5765 92.3307 25.0616 91.1437 21.5165C88.3751 13.2482 84.4996 4.78063 82.4942 2.6188C80.5225 0.493205 79.0116 0.0033231 74.4201 0.000179277C71.2542 -0.00203989 71.1523 0.00979602 70.7606 0.42589C70.1906 1.03154 70.2284 1.90386 70.846 2.38856C71.2942 2.74048 71.5798 2.77192 74.3328 2.77192C78.1461 2.77192 78.9249 2.97442 80.2592 4.31294C81.0187 5.07486 81.536 5.92406 82.8121 8.50477C86.3388 15.6362 88.9013 22.6061 90.835 30.3266C92.0231 35.0695 92.1462 35.7652 91.8947 36.3159C91.4691 37.2483 90.9892 37.3807 86.7049 37.7469C75.069 38.7416 65.0225 39.199 51.9213 39.3301C37.6249 39.4734 25.9877 39.1058 12.4542 38.0833C3.47962 37.4052 3.57801 37.4216 2.98082 36.5119C2.57577 35.8948 2.69343 35.1146 3.9221 30.2742C5.83393 22.742 8.1951 16.3044 11.6022 9.33492C12.6966 7.09633 13.8704 4.948 14.2108 4.56112C14.5512 4.17425 15.254 3.63425 15.7728 3.36111L16.7159 2.86438L41.1744 2.77192C54.6265 2.72106 65.7711 2.61103 65.94 2.52744C66.7487 2.12762 66.7433 0.627651 65.9319 0.194173C65.678 0.0586194 58.0476 0.00110531 41.2329 0.00794774C18.2131 0.0173792 16.8443 0.036057 15.8447 0.355062ZM16.9992 5.86988C16.214 6.26452 15.5495 7.38242 13.4898 11.773C10.4718 18.2064 8.20307 24.5403 6.53415 31.1922C5.97327 33.4275 5.95456 33.8523 6.39388 34.3937C6.77299 34.8611 7.23214 34.9232 13.8439 35.4022C20.0172 35.8495 20.0658 35.8493 20.54 35.3763C21.053 34.8644 21.0732 33.9458 20.5822 33.456C20.2565 33.1309 19.6367 33.0506 14.7609 32.7027C11.7597 32.4886 9.27053 32.2835 9.2294 32.2469C9.07505 32.11 10.2233 28.0615 11.5311 24.1314C13.016 19.6688 14.9627 14.9555 16.985 10.9266L18.2933 8.31984H28.2073H38.1215L38.0066 9.03625C37.8161 10.2252 38.3448 11.6551 39.2998 12.5335C39.7489 12.9468 40.4378 13.374 40.8307 13.4829C41.804 13.7525 52.9693 13.7488 53.9595 13.4785C55.062 13.1774 56.3486 11.7773 56.641 10.5603C56.7674 10.0345 56.8165 9.31458 56.7498 8.96044L56.6288 8.31669L66.5813 8.3644L76.5339 8.4123L77.7922 10.9089C80.4852 16.2519 82.7517 22.1071 84.5476 28.3615C85.0999 30.2846 85.5516 31.9567 85.5516 32.0777C85.5516 32.2291 84.617 32.366 82.5407 32.5187C76.3853 32.9718 71.2364 33.2692 66.2813 33.4582C63.4788 33.5649 60.206 33.6905 59.0087 33.7372C57.2013 33.8075 56.8315 33.777 56.8315 33.5566C56.8315 32.7869 57.9883 32.1283 65.4475 28.6511C69.6259 26.7034 73.1903 24.9808 73.3687 24.823C74.1507 24.1318 73.5079 22.5604 72.4423 22.5586C72.1621 22.5582 68.4307 24.2 64.1505 26.2072C57.0889 29.519 56.2801 29.9441 55.4149 30.8C54.6962 31.5109 54.3777 32.0083 54.1216 32.8194L53.7816 33.8955L42.6604 33.7739C31.3554 33.6501 27.926 33.5342 27.926 33.276C27.926 32.7751 29.8245 31.7452 36.4663 28.6428C43.8251 25.2053 44.7875 24.6531 44.7875 23.8686C44.7875 23.2707 44.0692 22.5595 43.4653 22.5595C43.1327 22.5595 39.7882 24.0188 35.0944 26.2119C28.1276 29.467 27.1834 29.9595 26.4115 30.7404C25.4442 31.7193 24.7761 33.2202 24.7761 34.4141C24.7761 35.4016 25.0186 35.8059 25.7474 36.0328C27.6092 36.6125 56.0733 36.7681 66.5593 36.2556C75.0052 35.843 86.5187 35.0691 87.6425 34.8385C87.9262 34.7804 88.2901 34.5321 88.4511 34.2869C88.8432 33.6895 88.7186 32.948 87.4937 28.584C85.8183 22.6148 83.9554 17.5113 81.5482 12.2958C79.6216 8.12122 78.6694 6.43724 77.969 5.96622L77.344 5.54588L47.4932 5.54625C19.443 5.54643 17.6036 5.56603 16.9992 5.86988ZM41.0952 8.80713C40.5909 9.44699 40.6103 9.90044 41.166 10.4549L41.6207 10.9089H47.3816H53.1425L53.5972 10.4549C54.1529 9.90044 54.1724 9.44699 53.668 8.80713L53.2841 8.31984H47.3816H41.4792L41.0952 8.80713ZM3.50783e-05 35.5971C0.00151741 36.1056 0.0374639 36.2917 0.0800809 36.0106C0.122513 35.7295 0.121401 35.3134 0.0774869 35.0859C0.0335728 34.8585 -0.00126196 35.0885 3.50783e-05 35.5971Z" fill="black"/>
<path fill-rule="evenodd" clip-rule="evenodd" d="M16.9986 5.8699C16.2133 6.26454 15.5489 7.38244 13.4892 11.7731C10.4711 18.2064 8.20244 24.5403 6.53352 31.1922C5.97264 33.4275 5.95393 33.8523 6.39326 34.3938C6.77236 34.8611 7.23151 34.9232 13.8433 35.4022C20.0166 35.8495 20.0652 35.8494 20.5393 35.3763C21.0524 34.8644 21.0726 33.9459 20.5816 33.456C20.2558 33.1309 19.636 33.0506 14.7603 32.7028C11.7591 32.4886 9.2699 32.2835 9.22877 32.2469C9.07442 32.1101 10.2227 28.0616 11.5305 24.1314C13.0154 19.6689 14.9621 14.9555 16.9843 10.9266L18.2927 8.31986H28.2067H38.1209L38.006 9.03628C37.8155 10.2252 38.3442 11.6551 39.2991 12.5335C39.7483 12.9468 40.4372 13.374 40.83 13.4829C41.8034 13.7526 52.9687 13.7489 53.9589 13.4785C55.0613 13.1774 56.348 11.7773 56.6404 10.5603C56.7668 10.0345 56.8159 9.3146 56.7492 8.96046L56.6282 8.31671L66.5807 8.36442L76.5333 8.41232L77.7916 10.9089C80.4846 16.2519 82.7511 22.1072 84.5469 28.3615C85.0993 30.2846 85.551 31.9567 85.551 32.0777C85.551 32.2292 84.6164 32.366 82.54 32.5188C76.3847 32.9718 71.2358 33.2692 66.2807 33.4582C63.4782 33.5649 60.2054 33.6905 59.008 33.7373C57.2007 33.8075 56.8309 33.777 56.8309 33.5566C56.8309 32.7869 57.9876 32.1284 65.4469 28.6511C69.6252 26.7034 73.1897 24.9808 73.3681 24.8231C74.1501 24.1318 73.5073 22.5604 72.4417 22.5586C72.1615 22.5582 68.4301 24.2 64.1499 26.2073C57.0882 29.519 56.2794 29.9442 55.4143 30.8C54.6956 31.5109 54.3771 32.0083 54.121 32.8195L53.781 33.8956L42.6598 33.7739C31.3548 33.6502 27.9254 33.5342 27.9254 33.276C27.9254 32.7751 29.8239 31.7452 36.4657 28.6428C43.8245 25.2053 44.7869 24.6531 44.7869 23.8686C44.7869 23.2708 44.0685 22.5595 43.4647 22.5595C43.1321 22.5595 39.7876 24.0188 35.0938 26.2119C28.127 29.467 27.1828 29.9595 26.4108 30.7405C25.4436 31.7193 24.7755 33.2202 24.7755 34.4141C24.7755 35.4016 25.018 35.8059 25.7468 36.0328C27.6086 36.6126 56.0727 36.7681 66.5587 36.2556C75.0046 35.8431 86.5181 35.0691 87.6419 34.8385C87.9255 34.7805 88.2895 34.5321 88.4505 34.2869C88.8425 33.6895 88.718 32.948 87.4931 28.584C85.8177 22.6148 83.9548 17.5113 81.5476 12.2959C79.621 8.12124 78.6688 6.43726 77.9684 5.96624L77.3434 5.5459L47.4925 5.54627C19.4424 5.54645 17.603 5.56606 16.9986 5.8699ZM41.0946 8.80715C40.5903 9.44701 40.6097 9.90046 41.1654 10.4549L41.6201 10.9089H47.381H53.1419L53.5966 10.4549C54.1523 9.90046 54.1718 9.44701 53.6674 8.80715L53.2835 8.31986H47.381H41.4785L41.0946 8.80715Z" fill="#EDBC18"/>
</svg>
