<svg width="106" height="73" viewBox="0 0 106 73" fill="none" xmlns="http://www.w3.org/2000/svg">
<path fill-rule="evenodd" clip-rule="evenodd" d="M83.0498 0.164608C82.5785 0.464538 76.8594 14.7097 77.0306 15.1573C77.0938 15.3226 77.3906 15.6192 77.6903 15.8163C78.7474 16.5114 79.0238 16.0496 82.0889 8.46588C83.6254 4.66439 84.8842 1.35658 84.8863 1.11529C84.8938 0.278757 83.7782 -0.298692 83.0498 0.164608ZM69.4725 3.48667C69.0112 3.86828 63.6016 17.2393 63.6016 17.9972C63.6016 18.8585 65.1192 19.4447 65.6307 18.7812C65.9359 18.3856 71.3248 4.74482 71.3244 4.36928C71.3233 3.46237 70.1675 2.91152 69.4725 3.48667ZM104.056 8.83242C103.675 9.14051 98.247 22.7134 98.2474 23.3566C98.2482 24.3383 99.5466 24.8282 100.207 24.0957C100.611 23.6482 105.97 10.1993 105.97 9.63377C105.97 8.79597 104.739 8.28031 104.056 8.83242ZM90.2431 12.1712C89.7138 13.0025 84.6815 26.0685 84.6815 26.6118C84.6815 26.8957 84.7942 27.2408 84.932 27.3791C85.2609 27.7091 86.4537 27.7022 86.7102 27.3686C86.8208 27.2247 88.1608 23.907 89.6875 19.9962C92.3012 13.302 92.4462 12.8542 92.1664 12.3514C91.7504 11.6038 90.6691 11.5027 90.2431 12.1712ZM74.1702 18.0821C71.1434 19.2064 70.6106 23.2098 73.2441 25.0412C73.9842 25.556 74.3046 25.6406 75.5132 25.6406C76.7761 25.6406 77.0026 25.574 77.7224 24.9901C78.8948 24.0392 79.3525 23.1342 79.3525 21.7667C79.3525 19.0782 76.6538 17.1595 74.1702 18.0821ZM74.4653 20.6679C73.8561 21.1631 73.8283 22.2777 74.4108 22.8623C75.0098 23.4632 76.074 23.4448 76.5743 22.8248C77.732 21.3899 75.8922 19.5082 74.4653 20.6679ZM60.2685 21.4577C58.8179 22.1121 57.9664 23.4188 57.9664 24.9903C57.9664 27.3055 59.5808 28.947 61.8578 28.947C64.0718 28.947 65.7484 27.2465 65.7484 25.0012C65.7484 23.6963 65.3041 22.824 64.1724 21.906C63.213 21.1279 61.4485 20.9251 60.2685 21.4577ZM61.1641 23.6859C59.7482 24.3871 60.3271 26.5832 61.9278 26.5832C62.5251 26.5832 63.3929 25.6721 63.3929 25.045C63.3929 23.978 62.1296 23.2077 61.1641 23.6859ZM96.0563 26.4701C95.9415 26.5122 95.5911 26.6033 95.2774 26.6726C94.5125 26.8418 93.2427 27.9886 92.8946 28.8247C92.2772 30.3074 92.7862 32.5237 93.9561 33.4472C96.5702 35.5107 100.395 33.7346 100.395 30.4569C100.395 28.4091 99.0269 26.824 96.9857 26.5059C96.5894 26.4439 96.1711 26.428 96.0563 26.4701ZM95.6796 29.1198C95.1027 29.4566 94.8468 30.3266 95.1257 31.0021C95.5851 32.1151 97.2667 32.2479 97.8177 31.2149C98.5646 29.8143 97.0433 28.3237 95.6796 29.1198ZM81.4223 29.9031C78.9555 31.0645 78.3857 34.6218 80.3844 36.3828C83.1371 38.8082 87.2334 36.8059 86.9339 33.1814C86.768 31.1751 85.3882 29.7772 83.3973 29.5988C82.5702 29.5246 82.0591 29.6034 81.4223 29.9031ZM81.9764 32.4873C81.055 33.4797 81.7285 34.9611 83.101 34.9611C84.4674 34.9611 85.061 33.4531 84.1111 32.3953C83.6421 31.873 82.5011 31.9222 81.9764 32.4873ZM41.0912 33.9149C32.659 34.6247 23.6525 37.0696 16.8005 40.5087C15.281 41.2713 13.1968 42.0459 10.3304 42.9134C5.35866 44.4181 4.2502 44.9157 2.93781 46.2328C0.954007 48.2236 0.696039 49.2612 0.132726 57.5099C-0.166567 61.8934 -0.0396705 62.558 1.35494 63.9146C2.16161 64.6992 3.96593 65.5405 4.8421 65.5405C5.50935 65.5405 5.99711 65.0144 5.99711 64.2945C5.99711 63.5755 5.77859 63.3914 4.38231 62.9342C3.76724 62.7329 3.10541 62.3421 2.86915 62.0404C2.34612 61.3731 2.3313 60.2756 2.77022 54.6645C3.1123 50.2891 3.38321 49.2563 4.49522 48.0893C5.48974 47.0454 6.35902 46.664 10.7574 45.3416L15.073 44.0442L18.2266 45.1426C34.2448 50.7221 53.1765 51.5754 74.8959 47.697L78.5723 47.0406L83.7661 48.1358C86.6228 48.7382 89.1634 49.28 89.4116 49.3401C89.9905 49.48 90.7342 48.7583 90.7342 48.0564C90.7342 47.7481 90.5438 47.4145 90.2646 47.2339C90.0062 47.067 87.2781 46.3978 84.2019 45.747L78.6088 44.5637L77.2606 43.5395C72.4272 39.8682 64.4753 36.4017 57.6533 34.9917C52.6785 33.9635 45.8139 33.5171 41.0912 33.9149ZM39.0792 36.56C33.0044 37.2221 26.2835 39.012 20.2421 41.5771C19.1806 42.0277 18.312 42.4468 18.3115 42.5081C18.3113 42.5693 19.3676 42.9645 20.6591 43.3861C28.3072 45.8828 36.0283 47.1826 45.9853 47.6497L48.9269 47.7877L47.9724 42.0027L47.0182 36.2178L44.4047 36.241C42.9673 36.2538 40.5709 36.3973 39.0792 36.56ZM49.5476 36.3581C49.4349 36.4714 51.326 47.4101 51.4896 47.5902C51.8006 47.9326 62.3946 47.1411 67.9846 46.358C70.6861 45.9793 75.1517 45.2226 75.2467 45.1273C75.4057 44.9679 71.2378 42.5452 68.6616 41.2996C63.971 39.0317 57.953 37.2713 52.7486 36.6451C49.9928 36.3133 49.6252 36.2804 49.5476 36.3581ZM95.88 51.6811C95.3701 52.2466 95.4569 52.9782 96.1676 54.1026C97.3956 56.0462 99.0841 57.172 101.56 57.6988C103.42 58.0944 103.808 58.0758 104.316 57.5658C104.673 57.2072 104.725 56.9779 104.611 56.2567C104.418 55.0421 103.593 53.2775 102.715 52.2029L101.977 51.298H99.101C96.5802 51.298 96.1828 51.3454 95.88 51.6811ZM15.8239 52.6779C12.1353 53.6732 9.12445 57.1054 8.50291 61.0238C7.36585 68.1924 14.1348 74.3763 21.12 72.5506C26.257 71.2078 29.62 66.1065 28.7538 60.9704C28.0801 56.9741 25.1128 53.6552 21.3301 52.6664C19.8084 52.2686 17.3214 52.2739 15.8239 52.6779ZM29.4146 52.5966C29.2768 52.7349 29.1641 53.1556 29.1641 53.5318C29.1641 54.4835 29.6444 54.6773 31.8244 54.605C33.5905 54.5464 33.6556 54.5263 33.927 53.9574C34.1676 53.452 34.1601 53.2987 33.8721 52.8578C33.5569 52.375 33.425 52.3453 31.6013 52.3453C30.3736 52.3453 29.5734 52.4372 29.4146 52.5966ZM53.4442 52.893C53.1234 53.3842 53.1184 53.4979 53.3946 53.9926C53.6876 54.5177 53.7949 54.5474 55.6034 54.6044C57.6834 54.67 58.1751 54.4584 58.1751 53.4973C58.1751 52.57 57.6846 52.3453 55.6605 52.3453C53.8863 52.3453 53.7855 52.3702 53.4442 52.893ZM85.1163 52.6779C81.4651 53.6629 78.4137 57.126 77.8028 60.9771C76.6593 68.1867 83.4086 74.3811 90.4123 72.5506C95.5667 71.2032 98.9153 66.1238 98.0462 60.9704C97.3725 56.9741 94.4052 53.6552 90.6225 52.6664C89.1008 52.2686 86.6138 52.2739 85.1163 52.6779ZM99.2724 54.1026C99.5276 54.4113 101.574 55.3603 101.704 55.23C101.746 55.1879 101.597 54.8516 101.374 54.4825C101.01 53.8824 100.865 53.8114 99.9993 53.8114C99.1966 53.8114 99.0726 53.8611 99.2724 54.1026ZM16.6464 54.972C14.3464 55.6183 12.4943 57.2093 11.457 59.4299C10.9766 60.4583 10.9023 60.8866 10.9056 62.6083C10.9089 64.3148 10.9878 64.7672 11.4608 65.7866C14.3045 71.9157 22.9282 71.9157 25.7914 65.7866C26.2706 64.7603 26.3465 64.3255 26.3465 62.6039C26.3465 60.7743 26.2902 60.4947 25.6632 59.2167C23.9941 55.8146 20.1267 53.9939 16.6464 54.972ZM85.9388 54.972C83.6388 55.6183 81.7867 57.2093 80.7494 59.4299C80.2689 60.4583 80.1946 60.8866 80.198 62.6083C80.2013 64.3088 80.2804 64.7656 80.7427 65.75C82.2753 69.0134 85.5137 70.7849 89.0981 70.321C91.5774 70.0001 93.7956 68.3643 94.9541 66.0026C95.5828 64.7214 95.6389 64.443 95.6389 62.6127C95.6389 60.8541 95.5673 60.4631 95.0334 59.3027C93.4756 55.9172 89.4301 53.9909 85.9388 54.972ZM16.2591 57.9172C14.0004 59.0468 12.9111 61.5596 13.6159 64.0143C14.068 65.5881 15.6384 67.2065 17.116 67.6218C20.541 68.584 23.8055 66.1419 23.8176 62.6083C23.8311 58.6562 19.7932 56.1501 16.2591 57.9172ZM85.5514 57.9172C83.1569 59.1149 82.0975 61.956 83.0824 64.5398C83.5401 65.7408 85.1198 67.24 86.302 67.5954C89.7685 68.6376 93.0976 66.1988 93.1099 62.6083C93.1235 58.6562 89.0856 56.1501 85.5514 57.9172ZM17.4804 60.0429C15.5225 61.0301 15.2627 63.5395 16.9785 64.8938C17.7482 65.5014 19.5002 65.5014 20.2699 64.8938C22.0558 63.484 21.7108 60.8562 19.6222 59.9631C18.7421 59.5868 18.3564 59.6012 17.4804 60.0429ZM86.7728 60.0429C85.253 60.8091 84.6713 62.6349 85.508 64.0118C86.0313 64.8732 86.9264 65.3311 88.0867 65.3311C91.0673 65.3311 91.7107 61.1587 88.9146 59.9631C88.0345 59.5868 87.6488 59.6012 86.7728 60.0429ZM104.057 60.5982C103.622 60.8173 103.57 60.9882 103.57 62.2034C103.57 64.2143 103.097 64.7312 100.594 65.453C100.45 65.4947 100.225 65.7632 100.095 66.0497C99.9044 66.4692 99.9259 66.6743 100.206 67.1028C100.66 67.799 101.73 67.811 103.153 67.1359C105.042 66.2393 106 64.7373 106 62.67C106 60.9057 105.181 60.0323 104.057 60.5982ZM31.5257 65.5405C30.5805 65.9259 30.468 67.369 31.3567 67.7113C31.547 67.7846 41.4629 67.8445 53.3919 67.8445C74.8026 67.8445 75.0862 67.839 75.4982 67.4256C76.0198 66.9022 76.0242 66.5591 75.5168 65.9303L75.1177 65.4358L53.5498 65.3952C41.369 65.3723 31.7833 65.4356 31.5257 65.5405Z" fill="black"/>
<path fill-rule="evenodd" clip-rule="evenodd" d="M83.0502 0.164608C82.579 0.464538 76.8598 14.7097 77.031 15.1573C77.0942 15.3226 77.391 15.6192 77.6907 15.8163C78.7478 16.5114 79.0242 16.0496 82.0893 8.46588C83.6259 4.66439 84.8846 1.35658 84.8867 1.11529C84.8942 0.278757 83.7786 -0.298692 83.0502 0.164608ZM69.4729 3.48667C69.0116 3.86828 63.602 17.2393 63.602 17.9972C63.602 18.8585 65.1196 19.4447 65.6311 18.7812C65.9363 18.3856 71.3252 4.74482 71.3248 4.36928C71.3237 3.46237 70.1679 2.91152 69.4729 3.48667ZM104.057 8.83242C103.676 9.14051 98.2474 22.7134 98.2478 23.3566C98.2486 24.3383 99.547 24.8282 100.208 24.0957C100.611 23.6482 105.971 10.1993 105.971 9.63377C105.971 8.79597 104.74 8.28031 104.057 8.83242ZM90.2435 12.1712C89.7142 13.0025 84.6819 26.0685 84.6819 26.6118C84.6819 26.8957 84.7946 27.2408 84.9324 27.3791C85.2613 27.7091 86.4541 27.7022 86.7106 27.3686C86.8212 27.2247 88.1612 23.907 89.6879 19.9962C92.3016 13.302 92.4466 12.8542 92.1668 12.3514C91.7508 11.6038 90.6695 11.5027 90.2435 12.1712ZM74.1706 18.0821C71.1438 19.2064 70.611 23.2098 73.2445 25.0412C73.9846 25.556 74.305 25.6406 75.5136 25.6406C76.7765 25.6406 77.003 25.574 77.7229 24.9901C78.8952 24.0392 79.3529 23.1342 79.3529 21.7667C79.3529 19.0782 76.6542 17.1594 74.1706 18.0821ZM74.4657 20.6679C73.8565 21.1631 73.8287 22.2777 74.4112 22.8623C75.0102 23.4632 76.0744 23.4448 76.5747 22.8248C77.7325 21.3899 75.8927 19.5082 74.4657 20.6679ZM60.2689 21.4577C58.8183 22.1121 57.9668 23.4188 57.9668 24.9903C57.9668 27.3055 59.5812 28.947 61.8582 28.947C64.0722 28.947 65.7488 27.2465 65.7488 25.0012C65.7488 23.6963 65.3045 22.824 64.1728 21.906C63.2134 21.1279 61.4489 20.9251 60.2689 21.4577ZM61.1645 23.6859C59.7486 24.3871 60.3275 26.5832 61.9282 26.5832C62.5255 26.5832 63.3933 25.6721 63.3933 25.045C63.3933 23.978 62.13 23.2077 61.1645 23.6859ZM96.0567 26.4701C95.9419 26.5122 95.5915 26.6033 95.2778 26.6726C94.5129 26.8418 93.2431 27.9886 92.895 28.8247C92.2776 30.3074 92.7866 32.5237 93.9565 33.4472C96.5706 35.5107 100.395 33.7346 100.395 30.4569C100.395 28.4091 99.0273 26.824 96.9861 26.5059C96.5898 26.4439 96.1715 26.428 96.0567 26.4701ZM95.68 29.1198C95.1031 29.4566 94.8473 30.3266 95.1261 31.0021C95.5855 32.1151 97.267 32.2479 97.818 31.2149C98.565 29.8143 97.0437 28.3237 95.68 29.1198ZM81.4227 29.9031C78.9559 31.0645 78.3861 34.6218 80.3848 36.3828C83.1375 38.8082 87.2339 36.8059 86.9343 33.1814C86.7684 31.1751 85.3886 29.7772 83.3977 29.5988C82.5706 29.5246 82.0595 29.6034 81.4227 29.9031ZM81.9768 32.4873C81.0554 33.4797 81.7289 34.9611 83.1014 34.9611C84.4678 34.9611 85.0614 33.4531 84.1115 32.3953C83.6425 31.873 82.5015 31.9222 81.9768 32.4873Z" fill="#EDBC18"/>
</svg>
