<svg width="82" height="82" viewBox="0 0 82 82" fill="none" xmlns="http://www.w3.org/2000/svg">
<path fill-rule="evenodd" clip-rule="evenodd" d="M37.1717 0.159517C36.5774 0.400973 36.4599 0.870406 36.4561 3.01788L36.4525 5.06735L35.1774 5.57572L33.9023 6.08409L32.3166 4.53568C30.5428 2.80355 30.1902 2.67192 29.3929 3.44488C28.6328 4.1819 25.4887 7.69224 25.1866 8.14138C24.6741 8.90302 24.8224 9.23467 26.4228 10.9031L27.936 12.4806L27.5979 13.1005C27.4121 13.4414 27.1709 14.0014 27.062 14.3445L26.8641 14.9685H24.9713C22.898 14.9685 22.2225 15.1687 22.0455 15.8355C21.9897 16.045 21.9432 17.7364 21.942 19.5938C21.9397 22.9592 21.9412 22.9727 22.3448 23.3796C22.7327 23.7709 22.8388 23.7881 24.8708 23.7881H26.9917L27.2557 24.5785C27.4009 25.0133 27.6162 25.6104 27.7342 25.9054L27.9489 26.4419L26.4294 28.0048C25.2313 29.2367 24.9097 29.6679 24.9097 30.0417C24.9097 30.4312 25.3593 30.9692 27.4319 33.0593C30.6725 36.3277 30.4887 36.297 32.8814 33.9635L34.5623 32.3241L35.2878 32.6492L36.0133 32.9744L35.9044 35.0791C35.8443 36.2366 35.7486 37.7641 35.6914 38.4735L35.5872 39.7631L27.3197 39.766C18.3239 39.7691 17.6388 39.8254 15.8375 40.7066C14.5906 41.3169 12.7219 43.2259 12.1324 44.4921C11.827 45.1479 11.3062 47.1887 10.5728 50.6043C9.96724 53.4246 9.3998 55.7986 9.31185 55.8799C9.22407 55.9613 8.26113 56.2266 7.17212 56.4692C3.72195 57.2381 1.82082 58.5183 0.75491 60.7909C0.0826963 62.2237 0.00283602 62.9139 0.000196003 67.3034C-0.00211401 71.3363 0.00976597 71.489 0.388443 72.2956C0.86117 73.3022 1.63783 74.0745 2.6346 74.529C3.222 74.7969 3.72641 74.8684 5.04873 74.8713L6.72051 74.8749L6.91753 75.6653C7.6724 78.6915 10.5261 81.3054 13.6997 81.8773C17.1956 82.5075 20.8896 80.6006 22.4986 77.3356C22.8272 76.6686 23.1731 75.8043 23.267 75.4149L23.4379 74.7068L38.5594 74.7493L53.6807 74.7917L53.8832 75.592C54.699 78.8168 57.6333 81.4332 60.9797 81.9194C63.4866 82.2837 65.9566 81.4045 67.9051 79.4548C69.1181 78.2408 69.8153 77.06 70.1864 75.592L70.3886 74.7917L74.668 74.7067C77.4857 74.6508 79.1021 74.5529 79.3999 74.4201C80.2668 74.0339 81.3121 72.889 81.6639 71.941C81.9484 71.1744 82 70.643 82 68.4847C82 67.0821 81.9254 65.531 81.8342 65.038C81.4547 62.9873 79.9309 60.8265 78.0923 59.7319C77.4324 59.339 75.41 58.6078 71.8785 57.4854L66.6432 55.8214L60.8466 48.9493C57.6586 45.1695 54.7839 41.8662 54.4587 41.6086C52.8877 40.3639 51.4282 39.9177 48.5677 39.8081L46.238 39.7187L46.1394 38.6177C46.0851 38.012 45.9901 36.5245 45.9282 35.3117C45.8345 33.4794 45.8544 33.1065 46.0463 33.1047C46.1734 33.1035 46.6486 32.9261 47.1023 32.7103L47.9273 32.3181L49.5343 33.8985C51.6582 35.9872 51.4659 36.0283 54.6511 32.8033C57.7396 29.6762 57.7107 29.8363 55.5769 27.6755L54.0692 26.1484L54.4005 25.5923C54.5826 25.2864 54.863 24.6805 55.0232 24.2457L55.3147 23.4553H57.4279C59.4246 23.4553 59.5553 23.4348 59.798 23.0854C60.0115 22.7782 60.0549 22.1022 60.0549 19.0916C60.0549 14.5076 60.2466 14.8021 57.2627 14.8021H55.1304L54.9303 14.1781C54.8202 13.835 54.5871 13.267 54.4122 12.9162L54.0942 12.2784L55.507 10.8004C56.5973 9.65984 56.9192 9.21636 56.9172 8.85892C56.9149 8.48734 56.4115 7.87563 54.3794 5.77458C51.1975 2.48488 51.4021 2.52881 49.2369 4.6703L47.7034 6.18693L46.6753 5.66874C46.1098 5.38369 45.5535 5.15055 45.4391 5.15055C45.285 5.15055 45.2169 4.58493 45.1766 2.97245C45.123 0.821483 45.1165 0.789366 44.6593 0.393152C44.2021 -0.00306199 44.1549 -0.00788786 40.8643 0.00242935C39.0316 0.00825358 37.3701 0.0789764 37.1717 0.159517ZM39.0998 4.53102C39.0998 6.82743 39.0123 6.98751 37.4919 7.47625C36.8789 7.67327 35.8702 8.09179 35.2503 8.40613C34.6306 8.72064 33.9638 8.9779 33.7686 8.9779C33.5435 8.9779 32.8926 8.45472 31.9886 7.54714L30.5633 6.11637L29.8191 6.92311C29.4099 7.36675 28.8846 7.96033 28.6518 8.24205L28.2282 8.75425L29.6215 10.1521C31.2523 11.7883 31.2901 11.9443 30.4438 13.5529C30.1298 14.1498 29.7187 15.1607 29.5301 15.7992C29.3189 16.5146 29.0671 17.0253 28.8744 17.1293C28.7023 17.2222 27.7027 17.2982 26.6531 17.2982H24.7447V19.1287V20.9592H26.633C28.939 20.9592 29.1054 21.0692 29.7748 23.0393C30.0237 23.7714 30.4044 24.6767 30.621 25.0508C31.315 26.2499 31.1987 26.634 29.6603 28.2237L28.3056 29.6231L29.5766 30.905L30.8474 32.1866L32.2133 30.8163C33.7745 29.2497 34.0082 29.1805 35.2914 29.903C35.7379 30.1545 36.1393 30.3229 36.1832 30.2774C36.2273 30.232 36.2877 29.6518 36.3175 28.988L36.3718 27.7812L35.5496 27.2156C33.7769 25.996 32.3674 24.1068 31.6424 21.9784C31.1449 20.5177 31.1128 17.8382 31.5764 16.4662C32.4719 13.8162 34.3461 11.5429 36.5195 10.4709C37.5753 9.95005 37.6809 9.92892 38.0845 10.1574C38.8062 10.5659 38.9297 11.0402 38.9323 13.4161L38.9348 15.6079L39.8679 16.2753L40.8008 16.943L41.7654 16.2823L42.7298 15.6217V13.2907C42.7298 11.0377 42.7433 10.946 43.1349 10.5513C43.3576 10.3266 43.6799 10.1427 43.851 10.1427C44.5882 10.1427 46.3037 11.2261 47.5204 12.4598C49.5603 14.5287 50.3198 16.4186 50.3198 19.4264C50.3198 20.6102 50.2263 21.3957 49.9958 22.1482C49.3746 24.176 47.8678 26.196 46.1409 27.3162C45.5025 27.7304 45.363 27.9022 45.4375 28.1817C45.4885 28.3738 45.5313 28.9613 45.5325 29.4875C45.5353 30.6324 45.6191 30.6582 47.0198 29.9451C47.5592 29.6706 48.1606 29.4459 48.3563 29.4459C48.5814 29.4459 49.2529 29.9794 50.1812 30.8955L51.6501 32.345L52.9137 31.0707L54.1772 29.7964L52.826 28.3771C51.2351 26.7057 51.1919 26.5098 52.0387 24.814C52.3487 24.1931 52.7259 23.2401 52.8767 22.6965C53.0369 22.1192 53.321 21.5523 53.5596 21.3336C53.9335 20.991 54.1292 20.9592 55.8622 20.9592H57.7561L57.7092 19.1703L57.6624 17.3814L55.7279 17.2982C53.4742 17.2012 53.2737 17.0949 52.8897 15.7909C52.7503 15.3173 52.3337 14.2675 51.9639 13.4579C51.1752 11.7313 51.1551 11.8196 52.7388 10.066C53.3141 9.42903 53.7849 8.86558 53.7849 8.81383C53.7849 8.76224 53.2298 8.16384 52.5513 7.48424L51.3178 6.2485L49.9525 7.59007C49.2016 8.32792 48.4182 8.98522 48.2116 9.05062C47.9387 9.13699 47.4876 8.98872 46.5616 8.50797C45.8607 8.14404 44.8418 7.7202 44.2973 7.56594C42.8166 7.14643 42.7298 6.98385 42.7298 4.63286V2.65445H40.9148H39.0998V4.53102ZM35.6417 14.2314C35.2594 14.6497 34.7116 15.4922 34.4245 16.1034C33.9325 17.151 33.9023 17.3254 33.9023 19.1287C33.9023 20.9653 33.9244 21.0868 34.4519 22.1465C35.5336 24.3198 37.7001 25.952 39.9068 26.2566C42.9438 26.6754 45.9455 25.0242 47.3777 22.1465C47.9013 21.0946 47.9273 20.9552 47.9273 19.2041C47.9273 17.4204 47.9093 17.3292 47.3186 16.1256C46.9839 15.4435 46.4085 14.5893 46.0399 14.2275L45.3698 13.5697L45.3662 15.1428C45.3617 17.0421 45.3825 17.0103 43.1532 18.5388C42.033 19.3068 41.3489 19.6674 40.9927 19.6775C40.4798 19.6922 39.2475 18.9089 37.326 17.3468L36.6248 16.7767V15.1238C36.6248 14.2147 36.5599 13.4709 36.4807 13.4709C36.4015 13.4709 36.024 13.8132 35.6417 14.2314ZM38.8388 29.7469C38.7785 30.2327 38.7782 31.0659 38.8379 31.5982C38.9015 32.1648 38.8749 32.7299 38.7739 32.9613C38.6789 33.1786 38.5074 34.7979 38.3929 36.5598L38.1845 39.7631H40.9143H43.6441L43.2807 34.3965C43.0808 31.4448 42.9123 28.9925 42.906 28.9467C42.8999 28.9009 42.0068 28.8635 40.9216 28.8635H38.9481L38.8388 29.7469ZM17.2081 43.0768C16.0351 43.6384 15.0201 44.6177 14.5104 45.6794C14.3079 46.1012 13.6375 48.9215 12.9468 52.2564C12.2819 55.4677 11.7128 58.1146 11.6824 58.1387C11.6521 58.1627 10.402 58.4258 8.90463 58.7235C5.83198 59.334 4.75189 59.7702 3.86815 60.7566C2.64516 62.1218 2.55853 62.5059 2.50425 66.8042C2.46118 70.2157 2.48808 70.6948 2.75142 71.214C3.1763 72.0508 3.93761 72.3783 5.45974 72.3785L6.71738 72.3788L6.82298 71.7137C7.06322 70.1986 8.30617 68.1662 9.71957 66.9778C11.2359 65.7028 13.0465 65.0569 15.1047 65.0569C18.8043 65.0569 22.029 67.4845 23.1176 71.0892L23.4569 72.2124H38.5998H53.7426L53.8428 71.5884C53.9921 70.6565 54.9699 68.738 55.7426 67.8605C56.6283 66.8549 58.0114 65.9384 59.3762 65.4525C60.9103 64.9063 63.1595 64.9063 64.6936 65.4525C66.0551 65.9372 67.4451 66.8571 68.3056 67.8429C69.0867 68.7378 70.0831 70.6738 70.2259 71.5739L70.3272 72.2124L74.1423 72.2117C77.629 72.2112 78.0027 72.1833 78.4832 71.8879C79.3707 71.3421 79.4426 71.0605 79.4417 68.1301L79.4407 65.4623L78.8985 64.3514C78.3635 63.2556 77.4712 62.2994 76.5096 61.7914C76.1266 61.589 65.4804 58.0678 65.2518 58.0678C65.2103 58.0678 62.7144 55.1662 59.7051 51.6196C53.2461 44.0077 52.9594 43.696 51.8873 43.1192L51.0623 42.6752L34.6448 42.6321L18.2272 42.5889L17.2081 43.0768ZM35.179 52.2796L35.2223 58.6503L43.8807 58.6934C49.2556 58.7202 52.8846 58.6721 53.4499 58.5667C55.606 58.1647 56.3241 55.9708 54.893 54.1573C53.4547 52.3345 48.5908 46.6542 48.2082 46.3505C47.7846 46.0144 47.5708 46.0019 41.4534 45.9561L35.1358 45.9089L35.179 52.2796ZM20.7218 46.2586C20.2179 46.4109 19.5365 46.9772 19.28 47.4569C19.0441 47.8982 17.4881 55.5674 17.4863 56.298C17.4853 56.6516 17.6454 57.2292 17.8417 57.5816C18.4854 58.7366 18.4628 58.7335 25.9659 58.7335H32.6648V52.41V46.0866L26.931 46.1009C23.7773 46.1087 20.9834 46.1798 20.7218 46.2586ZM37.7798 52.2436V56.071H45.4644H53.1488L52.8481 55.6871C52.6827 55.4759 51.2534 53.7536 49.6719 51.8597L46.7964 48.4163H42.2881H37.7798V52.2436ZM21.3863 49.0403C21.1521 49.885 19.9427 56.1092 20.0011 56.1682C20.0389 56.2063 22.3096 56.188 25.0472 56.1274L30.0247 56.0172V52.3832V48.7491H25.7458C21.8115 48.7491 21.4604 48.7725 21.3863 49.0403ZM13.5049 67.7727C11.9185 68.2245 10.5913 69.37 9.71033 71.0476C9.37175 71.6924 9.31713 72.0277 9.31713 73.4605C9.31713 74.9706 9.36185 75.2136 9.80042 76.0865C10.3703 77.2208 11.4673 78.3072 12.6171 78.8763C13.326 79.2273 13.6745 79.2847 15.0922 79.2845C16.5818 79.2845 16.8278 79.2389 17.6229 78.8168C18.7981 78.1927 19.7988 77.153 20.3846 75.9476C20.8007 75.0914 20.8655 74.7676 20.8664 73.5437C20.867 72.3415 20.7972 71.9766 20.4012 71.1125C19.205 68.5017 16.1462 67.0205 13.5049 67.7727ZM60.2717 67.8521C56.9035 69.0655 55.27 72.692 56.6722 75.8432C57.2652 77.1757 58.6718 78.53 59.9729 79.0209C62.0549 79.8065 64.3015 79.3414 65.9758 77.7782C69.0342 74.9225 68.326 70.0599 64.5809 68.2005C63.2052 67.5176 61.5676 67.3851 60.2717 67.8521ZM13.5247 69.8148C10.9703 70.9289 10.3212 74.3155 12.2829 76.2937C14.7564 78.7883 18.9745 77.0302 18.968 73.5074C18.9662 72.5161 18.4308 71.189 17.7952 70.6003C16.7521 69.6339 14.7735 69.2702 13.5247 69.8148ZM60.2565 69.9721C57.3558 71.4519 57.3822 75.5457 60.3024 77.0835C61.2163 77.5647 62.8563 77.5622 63.7831 77.078C65.8524 75.9968 66.5906 73.3758 65.3813 71.4032C64.3315 69.6907 62.0545 69.0547 60.2565 69.9721ZM14.1974 72.4768C13.8108 72.8048 13.6897 73.0448 13.6897 73.4828C13.6897 74.7969 15.2298 75.367 16.0675 74.3629C16.6273 73.6919 16.6105 73.1356 16.0124 72.5324C15.4142 71.9292 14.8626 71.9122 14.1974 72.4768ZM61.3358 72.3064C60.8812 72.5552 60.6116 73.1764 60.6905 73.7933C60.7532 74.2835 61.4882 74.8749 62.0349 74.8749C62.5815 74.8749 63.3166 74.2835 63.3793 73.7933C63.4608 73.1551 63.1871 72.5524 62.7007 72.2986C62.1077 71.9894 61.9131 71.9904 61.3358 72.3064Z" fill="black"/>
<mask id="mask0_474_278" style="mask-type:alpha" maskUnits="userSpaceOnUse" x="0" y="0" width="82" height="82">
<path fill-rule="evenodd" clip-rule="evenodd" d="M37.1717 0.159517C36.5774 0.400973 36.4599 0.870406 36.4561 3.01788L36.4525 5.06735L35.1774 5.57572L33.9023 6.08409L32.3166 4.53568C30.5428 2.80355 30.1902 2.67192 29.393 3.44488C28.6328 4.1819 25.4887 7.69225 25.1866 8.14138C24.6741 8.90302 24.8224 9.23467 26.4228 10.9031L27.936 12.4806L27.5979 13.1005C27.4121 13.4414 27.1709 14.0014 27.062 14.3445L26.8641 14.9685H24.9713C22.898 14.9685 22.2225 15.1687 22.0455 15.8355C21.9897 16.045 21.9432 17.7364 21.942 19.5938C21.9397 22.9592 21.9412 22.9727 22.3448 23.3796C22.7327 23.771 22.8388 23.7881 24.8708 23.7881H26.9917L27.2557 24.5785C27.4009 25.0133 27.6162 25.6104 27.7342 25.9054L27.9489 26.4419L26.4294 28.0048C25.2313 29.2367 24.9097 29.6679 24.9097 30.0417C24.9097 30.4312 25.3593 30.9692 27.4319 33.0593C30.6725 36.3277 30.4887 36.297 32.8814 33.9635L34.5623 32.3241L35.2878 32.6492L36.0133 32.9744L35.9044 35.0791C35.8443 36.2366 35.7486 37.7641 35.6914 38.4735L35.5872 39.7631L27.3197 39.766C18.3239 39.7691 17.6388 39.8254 15.8375 40.7066C14.5906 41.3169 12.7219 43.2259 12.1324 44.4921C11.827 45.1479 11.3062 47.1887 10.5728 50.6043C9.96724 53.4246 9.3998 55.7986 9.31185 55.8799C9.22407 55.9613 8.26113 56.2266 7.17212 56.4692C3.72195 57.2381 1.82081 58.5183 0.75491 60.7909C0.0826963 62.2237 0.00283602 62.9139 0.000196003 67.3034C-0.00211401 71.3363 0.00976597 71.489 0.388443 72.2956C0.86117 73.3022 1.63783 74.0745 2.6346 74.529C3.222 74.7969 3.72641 74.8684 5.04873 74.8713L6.72051 74.8749L6.91753 75.6653C7.6724 78.6915 10.5261 81.3054 13.6997 81.8773C17.1956 82.5075 20.8896 80.6006 22.4986 77.3356C22.8272 76.6686 23.1731 75.8043 23.267 75.4149L23.4379 74.7068L38.5594 74.7493L53.6807 74.7917L53.8832 75.592C54.699 78.8168 57.6333 81.4332 60.9797 81.9194C63.4866 82.2837 65.9566 81.4045 67.9051 79.4548C69.118 78.2408 69.8153 77.06 70.1864 75.592L70.3886 74.7917L74.668 74.7067C77.4857 74.6508 79.1021 74.5529 79.3999 74.4201C80.2668 74.0339 81.3121 72.889 81.6639 71.941C81.9484 71.1744 82 70.643 82 68.4847C82 67.0821 81.9254 65.531 81.8342 65.038C81.4547 62.9873 79.9309 60.8265 78.0923 59.7319C77.4324 59.339 75.41 58.6078 71.8785 57.4854L66.6432 55.8214L60.8466 48.9493C57.6586 45.1695 54.7839 41.8662 54.4587 41.6086C52.8877 40.3638 51.4282 39.9177 48.5677 39.8081L46.238 39.7187L46.1394 38.6177C46.0851 38.012 45.9901 36.5245 45.9282 35.3117C45.8345 33.4794 45.8544 33.1065 46.0463 33.1047C46.1734 33.1035 46.6486 32.9261 47.1023 32.7103L47.9273 32.3181L49.5343 33.8985C51.6582 35.9872 51.4659 36.0283 54.6511 32.8033C57.7396 29.6762 57.7107 29.8363 55.5769 27.6755L54.0692 26.1484L54.4005 25.5923C54.5826 25.2864 54.863 24.6805 55.0232 24.2457L55.3147 23.4553H57.4279C59.4246 23.4553 59.5553 23.4348 59.798 23.0854C60.0115 22.7782 60.0549 22.1022 60.0549 19.0916C60.0549 14.5076 60.2466 14.8021 57.2627 14.8021H55.1304L54.9303 14.1781C54.8202 13.835 54.5871 13.267 54.4122 12.9162L54.0942 12.2784L55.507 10.8004C56.5973 9.65984 56.9192 9.21636 56.9172 8.85892C56.9149 8.48734 56.4115 7.87563 54.3794 5.77458C51.1975 2.48488 51.4021 2.52881 49.2369 4.6703L47.7034 6.18693L46.6753 5.66874C46.1098 5.38369 45.5535 5.15055 45.4391 5.15055C45.285 5.15055 45.2169 4.58493 45.1766 2.97245C45.123 0.821483 45.1165 0.789366 44.6593 0.393152C44.2021 -0.00306199 44.1549 -0.00788786 40.8643 0.00242935C39.0316 0.00825358 37.3701 0.0789764 37.1717 0.159517ZM39.0998 4.53102C39.0998 6.82743 39.0123 6.98751 37.4919 7.47625C36.8789 7.67327 35.8702 8.09179 35.2503 8.40613C34.6306 8.72064 33.9638 8.9779 33.7686 8.9779C33.5435 8.9779 32.8926 8.45472 31.9886 7.54714L30.5633 6.11637L29.8191 6.92311C29.4099 7.36675 28.8846 7.96033 28.6518 8.24205L28.2282 8.75425L29.6215 10.1521C31.2523 11.7883 31.2901 11.9443 30.4438 13.5529C30.1298 14.1498 29.7187 15.1607 29.5301 15.7992C29.3189 16.5146 29.0671 17.0253 28.8744 17.1293C28.7023 17.2222 27.7027 17.2982 26.6531 17.2982H24.7447V19.1287V20.9592H26.633C28.939 20.9592 29.1054 21.0692 29.7748 23.0393C30.0237 23.7715 30.4044 24.6767 30.621 25.0508C31.315 26.2499 31.1987 26.634 29.6602 28.2237L28.3056 29.6231L29.5766 30.905L30.8474 32.1866L32.2133 30.8163C33.7745 29.2497 34.0082 29.1805 35.2914 29.903C35.7379 30.1545 36.1393 30.3229 36.1832 30.2774C36.2273 30.232 36.2877 29.6518 36.3175 28.988L36.3718 27.7812L35.5496 27.2156C33.7769 25.996 32.3674 24.1068 31.6424 21.9784C31.1449 20.5177 31.1128 17.8382 31.5764 16.4662C32.4719 13.8162 34.3461 11.5429 36.5195 10.4709C37.5753 9.95005 37.6809 9.92892 38.0845 10.1574C38.8062 10.5659 38.9297 11.0402 38.9323 13.4161L38.9348 15.6079L39.8679 16.2753L40.8008 16.943L41.7654 16.2823L42.7298 15.6217V13.2907C42.7298 11.0377 42.7433 10.946 43.1349 10.5513C43.3576 10.3266 43.6799 10.1427 43.851 10.1427C44.5882 10.1427 46.3037 11.2261 47.5204 12.4598C49.5603 14.5287 50.3198 16.4186 50.3198 19.4264C50.3198 20.6102 50.2263 21.3957 49.9958 22.1482C49.3745 24.176 47.8678 26.196 46.1409 27.3162C45.5025 27.7304 45.363 27.9022 45.4375 28.1817C45.4884 28.3738 45.5313 28.9613 45.5325 29.4875C45.5353 30.6324 45.6191 30.6582 47.0198 29.9451C47.5592 29.6706 48.1606 29.4459 48.3563 29.4459C48.5814 29.4459 49.2529 29.9794 50.1812 30.8955L51.6501 32.3451L52.9137 31.0707L54.1772 29.7964L52.826 28.3771C51.2351 26.7057 51.1919 26.5098 52.0387 24.814C52.3487 24.1931 52.7259 23.2401 52.8767 22.6965C53.0369 22.1192 53.321 21.5522 53.5596 21.3336C53.9335 20.991 54.1292 20.9592 55.8622 20.9592H57.7561L57.7092 19.1703L57.6624 17.3814L55.7279 17.2982C53.4742 17.2012 53.2737 17.0949 52.8897 15.7909C52.7503 15.3173 52.3337 14.2675 51.9639 13.4579C51.1752 11.7313 51.1551 11.8196 52.7388 10.066C53.3141 9.42903 53.7849 8.86558 53.7849 8.81383C53.7849 8.76224 53.2298 8.16384 52.5513 7.48424L51.3178 6.2485L49.9525 7.59007C49.2016 8.32792 48.4182 8.98522 48.2116 9.05062C47.9387 9.13699 47.4876 8.98872 46.5616 8.50797C45.8607 8.14404 44.8418 7.7202 44.2973 7.56594C42.8166 7.14643 42.7298 6.98385 42.7298 4.63286V2.65445H40.9148H39.0998V4.53102ZM35.6417 14.2314C35.2594 14.6497 34.7116 15.4922 34.4245 16.1034C33.9324 17.151 33.9023 17.3254 33.9023 19.1287C33.9023 20.9653 33.9244 21.0868 34.4519 22.1465C35.5336 24.3198 37.7001 25.952 39.9068 26.2566C42.9438 26.6754 45.9455 25.0242 47.3777 22.1465C47.9013 21.0946 47.9273 20.9552 47.9273 19.2041C47.9273 17.4204 47.9093 17.3292 47.3186 16.1256C46.9839 15.4435 46.4085 14.5893 46.0399 14.2275L45.3698 13.5697L45.3662 15.1428C45.3617 17.0421 45.3825 17.0103 43.1532 18.5388C42.033 19.3068 41.3489 19.6674 40.9927 19.6775C40.4798 19.6922 39.2475 18.9089 37.326 17.3468L36.6248 16.7767V15.1238C36.6248 14.2147 36.5599 13.4709 36.4807 13.4709C36.4015 13.4709 36.024 13.8132 35.6417 14.2314ZM38.8388 29.7469C38.7785 30.2327 38.7782 31.0659 38.8379 31.5982C38.9015 32.1648 38.8749 32.7299 38.7739 32.9613C38.6789 33.1786 38.5074 34.7979 38.3929 36.5598L38.1845 39.7631H40.9143H43.6441L43.2807 34.3965C43.0808 31.4448 42.9123 28.9925 42.906 28.9467C42.8999 28.9009 42.0068 28.8635 40.9216 28.8635H38.9481L38.8388 29.7469ZM17.2081 43.0768C16.0351 43.6384 15.0201 44.6177 14.5104 45.6794C14.3079 46.1012 13.6375 48.9215 12.9468 52.2564C12.2819 55.4677 11.7128 58.1146 11.6824 58.1387C11.6521 58.1627 10.402 58.4258 8.90463 58.7235C5.83198 59.334 4.75189 59.7702 3.86815 60.7566C2.64516 62.1218 2.55853 62.5059 2.50425 66.8042C2.46118 70.2157 2.48808 70.6948 2.75142 71.214C3.1763 72.0508 3.93761 72.3783 5.45974 72.3785L6.71738 72.3788L6.82298 71.7137C7.06322 70.1986 8.30617 68.1662 9.71957 66.9778C11.2359 65.7028 13.0465 65.0569 15.1047 65.0569C18.8043 65.0569 22.029 67.4845 23.1176 71.0892L23.4569 72.2124H38.5998H53.7426L53.8428 71.5884C53.9921 70.6565 54.9699 68.738 55.7426 67.8605C56.6283 66.8549 58.0114 65.9384 59.3762 65.4525C60.9103 64.9063 63.1595 64.9063 64.6936 65.4525C66.0551 65.9372 67.4451 66.8571 68.3056 67.8429C69.0867 68.7378 70.0831 70.6738 70.2259 71.5739L70.3272 72.2124L74.1423 72.2117C77.629 72.2112 78.0027 72.1833 78.4832 71.8879C79.3707 71.3421 79.4426 71.0605 79.4417 68.1301L79.4407 65.4623L78.8985 64.3514C78.3635 63.2556 77.4712 62.2994 76.5096 61.7914C76.1266 61.589 65.4804 58.0678 65.2518 58.0678C65.2103 58.0678 62.7144 55.1662 59.7051 51.6196C53.2461 44.0077 52.9594 43.696 51.8873 43.1192L51.0623 42.6752L34.6448 42.6321L18.2272 42.5889L17.2081 43.0768ZM35.179 52.2796L35.2223 58.6503L43.8807 58.6934C49.2556 58.7202 52.8846 58.6721 53.4499 58.5667C55.606 58.1647 56.3241 55.9708 54.893 54.1573C53.4547 52.3345 48.5908 46.6542 48.2082 46.3505C47.7846 46.0144 47.5708 46.0019 41.4534 45.9561L35.1358 45.9089L35.179 52.2796ZM20.7218 46.2586C20.2179 46.4109 19.5365 46.9772 19.28 47.4569C19.0441 47.8982 17.4881 55.5674 17.4863 56.298C17.4853 56.6516 17.6454 57.2292 17.8417 57.5816C18.4854 58.7366 18.4628 58.7335 25.9659 58.7335H32.6647V52.41V46.0866L26.931 46.1009C23.7773 46.1087 20.9834 46.1798 20.7218 46.2586ZM37.7798 52.2436V56.071H45.4644H53.1488L52.8481 55.6871C52.6827 55.4759 51.2534 53.7536 49.6719 51.8597L46.7964 48.4163H42.2881H37.7798V52.2436ZM21.3863 49.0403C21.1521 49.885 19.9427 56.1092 20.0011 56.1682C20.0389 56.2063 22.3096 56.188 25.0472 56.1274L30.0247 56.0172V52.3832V48.7491H25.7458C21.8115 48.7491 21.4604 48.7725 21.3863 49.0403ZM13.5049 67.7727C11.9185 68.2245 10.5913 69.37 9.71033 71.0476C9.37175 71.6924 9.31713 72.0277 9.31713 73.4605C9.31713 74.9706 9.36185 75.2136 9.80042 76.0865C10.3703 77.2207 11.4673 78.3072 12.6171 78.8763C13.326 79.2273 13.6745 79.2847 15.0922 79.2845C16.5818 79.2845 16.8278 79.2389 17.6229 78.8168C18.7981 78.1927 19.7988 77.153 20.3846 75.9476C20.8007 75.0914 20.8655 74.7676 20.8664 73.5437C20.867 72.3415 20.7972 71.9766 20.4012 71.1125C19.205 68.5017 16.1462 67.0205 13.5049 67.7727ZM60.2717 67.8521C56.9035 69.0655 55.27 72.692 56.6722 75.8432C57.2652 77.1757 58.6718 78.53 59.9729 79.0209C62.0549 79.8065 64.3015 79.3414 65.9758 77.7782C69.0342 74.9225 68.326 70.0599 64.5809 68.2005C63.2052 67.5176 61.5676 67.3851 60.2717 67.8521ZM13.5247 69.8148C10.9703 70.9289 10.3212 74.3155 12.2829 76.2937C14.7564 78.7883 18.9745 77.0302 18.968 73.5074C18.9662 72.5161 18.4308 71.189 17.7952 70.6003C16.7521 69.6339 14.7735 69.2702 13.5247 69.8148ZM60.2565 69.9721C57.3558 71.4519 57.3822 75.5457 60.3024 77.0835C61.2163 77.5647 62.8563 77.5622 63.7831 77.078C65.8524 75.9968 66.5906 73.3758 65.3813 71.4032C64.3315 69.6907 62.0545 69.0547 60.2565 69.9721ZM14.1974 72.4768C13.8108 72.8048 13.6897 73.0448 13.6897 73.4828C13.6897 74.7969 15.2298 75.367 16.0675 74.3629C16.6273 73.6919 16.6105 73.1356 16.0124 72.5324C15.4142 71.9292 14.8626 71.9122 14.1974 72.4768ZM61.3358 72.3064C60.8812 72.5552 60.6116 73.1764 60.6905 73.7933C60.7532 74.2835 61.4883 74.8749 62.0349 74.8749C62.5815 74.8749 63.3166 74.2835 63.3793 73.7933C63.4608 73.1551 63.1871 72.5524 62.7007 72.2986C62.1077 71.9894 61.9131 71.9904 61.3358 72.3064Z" fill="black"/>
</mask>
<g mask="url(#mask0_474_278)">
<rect x="15" y="-11" width="55" height="51" fill="#EDBC18"/>
</g>
</svg>
