<svg width="90" height="72" viewBox="0 0 90 72" fill="none" xmlns="http://www.w3.org/2000/svg">
<path fill-rule="evenodd" clip-rule="evenodd" d="M36.5619 6.68075L35.6303 13.4114L30.7558 13.4585L25.8813 13.5054L29.9467 19.3491C32.1826 22.5632 34.1356 25.3681 34.2867 25.5821L34.5615 25.9712L35.5611 25.2569C36.1109 24.864 36.5607 24.4736 36.5607 24.3892C36.5607 24.3047 35.2911 22.4189 33.7392 20.1984L30.9177 16.1611L34.4173 16.1133L37.9168 16.0653L38.5656 11.2446C38.9224 8.593 39.2732 6.27461 39.3453 6.09243C39.4543 5.81678 40.061 6.38119 42.962 9.45626C44.8792 11.4885 46.5154 13.1774 46.598 13.2091C46.6806 13.2409 47.9095 12.417 49.3287 11.3781C50.7479 10.3392 52.015 9.44812 52.1447 9.39801C52.331 9.32613 52.3802 9.64428 52.3802 10.9193V12.5317H53.7001H55.02L54.9061 8.41542C54.8435 6.15157 54.7736 4.27579 54.7505 4.24728C54.7275 4.2186 53.0071 5.43365 50.9275 6.9472C48.8477 8.46074 47.0726 9.69899 46.9828 9.69899C46.893 9.69899 44.7749 7.52808 42.276 4.87455C39.777 2.22102 37.6786 0.0276281 37.6131 0.000186392C37.5473 -0.0272554 37.0743 2.97895 36.5619 6.68075ZM50.7104 16.897C49.4654 17.556 49.0388 18.2204 46.2106 23.9067L43.4148 29.5279L26.5851 29.5318C10.5787 29.5355 9.72093 29.5518 9.05229 29.8635C8.15954 30.2798 7.49495 30.9936 7.05657 32.0065C6.86691 32.4447 6.11249 35.5249 5.38005 38.8515L4.0484 44.8998L2.0242 48.2897L0 51.6796L0.003867 60.2113C0.00755822 68.416 0.0214443 68.7735 0.36631 69.5397C0.8133 70.5328 1.29544 71.0609 2.19716 71.5453C2.80234 71.8703 3.25935 71.9318 5.48112 71.9866C8.51267 72.0615 9.60141 71.8328 10.5202 70.9281C11.4317 70.0303 11.7768 69.1893 11.7768 67.8649V66.707H17.5773H23.3778V65.3792V64.0514H13.0072H2.63659V60.7761C2.63659 58.9746 2.68651 57.5008 2.74768 57.5008C2.80885 57.5008 3.10995 57.6571 3.41684 57.8483C4.48748 58.5147 5.87696 58.7401 8.91343 58.7401H11.7768V56.0844V53.4287H27.3326H42.8885V56.1032V58.7776L46.2722 58.7123L49.6558 58.6469L50.8619 58.0738C51.5255 57.7587 52.1006 57.5008 52.1403 57.5008C52.1799 57.5008 52.1908 58.9546 52.1646 60.7318L52.1166 63.9628L41.7021 64.0085L31.2875 64.0542V65.3806V66.707H37.088H42.8885L42.8924 67.725C42.8989 69.423 43.6855 70.7932 45.0857 71.5453C45.6909 71.8703 46.1479 71.9318 48.3696 71.9866C51.4334 72.0622 52.5001 71.833 53.4618 70.8923C54.76 69.6224 54.7467 69.7088 54.8086 62.1336C54.8504 56.9972 54.9145 55.3654 55.0722 55.4226C55.1868 55.4642 59.6941 56.606 65.0886 57.96C74.3012 60.2724 74.8902 60.4434 74.7874 60.7761C74.7273 60.9708 74.6348 61.6923 74.5819 62.3794C74.4714 63.8155 74.77 64.6114 75.7865 65.5897C76.4913 66.2678 76.7706 66.38 79.4528 67.062C81.9779 67.7041 82.7696 67.7215 83.9648 67.161C85.6291 66.3805 85.6544 66.3165 87.9529 57.0565L90 48.8104L88.8455 45.0006L87.6909 41.1908L87.8705 34.8725C88.0477 28.6483 88.0013 27.5977 87.5074 26.6279C87.2237 26.0711 86.4555 25.2804 85.9287 25.0033C85.5275 24.7921 70.9302 21.0298 70.5121 21.0298C70.3801 21.0298 69.8724 22.9123 69.8703 23.4092C69.87 23.5008 73.2313 24.4198 77.34 25.4516L84.8103 27.3276L85.1163 27.9513C85.3979 28.5249 85.4099 29.0113 85.2673 34.0188C85.1821 37.0129 85.0652 39.5103 85.0073 39.5684C84.9497 39.6266 80.1754 38.4824 74.3979 37.0258L63.8934 34.3776L63.7766 33.1479C63.5712 30.9828 62.8396 29.4579 61.3048 27.9957C58.8571 25.6642 55.4881 25.157 52.4005 26.6555C51.2339 27.2217 49.5923 28.7926 49.0515 29.8604C48.84 30.2778 48.573 30.5832 48.4582 30.5388C48.3435 30.4945 47.7949 30.3557 47.2389 30.2304C46.6829 30.1052 46.2282 29.9351 46.2282 29.8526C46.2282 29.5426 51.025 20.0392 51.3741 19.6577C51.5879 19.424 51.945 19.2593 52.2384 19.2593C52.5135 19.2593 55.8994 20.056 59.7627 21.0298C63.626 22.0035 66.892 22.8002 67.0204 22.8002C67.2395 22.8002 67.9177 20.5094 67.7488 20.3395C67.709 20.2995 64.3734 19.4438 60.3361 18.4379C52.7749 16.5539 51.6874 16.3799 50.7104 16.897ZM74.1855 28.5809C74.059 29.1504 73.9196 29.7104 73.8758 29.8255C73.7955 30.0365 74.5698 30.3207 75.7701 30.5207L76.3975 30.6252L76.6274 29.5897C76.7539 29.0201 76.8933 28.4601 76.9371 28.345C77.0174 28.134 76.2431 27.8498 75.0428 27.6498L74.4155 27.5453L74.1855 28.5809ZM53.9694 28.8443C53.0978 29.1911 51.3256 30.7086 51.3256 31.108C51.3256 31.185 53.5497 31.8069 56.268 32.4898L61.2105 33.7318L61.1051 32.957C60.6597 29.6842 57.0649 27.6123 53.9694 28.8443ZM79.2543 29.9262C79.1205 30.5349 79.0109 31.1073 79.0105 31.1985C79.01 31.3342 81.4088 32.0658 81.4833 31.9527C81.5608 31.8346 82.0911 29.4744 82.0493 29.4331C81.9767 29.3614 79.8736 28.8197 79.6675 28.8197C79.5739 28.8197 79.3879 29.3177 79.2543 29.9262ZM9.68033 32.65C9.47995 32.9066 9.31367 33.1656 9.31085 33.2254C9.30804 33.2853 8.76613 35.7444 8.10663 38.6899L6.90751 44.0454H8.87494H10.8422L11.0656 43.293C12.5169 38.4048 17.8474 36.0746 22.3152 38.3753C24.0766 39.2821 25.9665 41.6909 26.2933 43.4454L26.4051 44.0454H37.1267H47.8483L47.7502 43.6471C47.6961 43.4279 47.1718 41.0578 46.5849 38.38C45.4258 33.0923 45.2834 32.6093 44.8095 32.3538C44.6134 32.2481 37.9597 32.1835 27.269 32.1835H10.0445L9.68033 32.65ZM48.1617 33.3106C48.1617 33.6879 49.1012 37.4228 49.2135 37.4916C49.4863 37.6588 86.4912 46.9261 86.5698 46.847C86.6122 46.8043 86.3506 45.8178 85.9887 44.655L85.3304 42.5406L67.0538 37.9091C49.9852 33.5839 48.1617 33.1399 48.1617 33.3106ZM34.9788 36.167V37.4948H36.2971H37.6153V36.167V34.8392H36.2971H34.9788V36.167ZM40.2519 36.167V37.4948H41.5702H42.8885V36.167V34.8392H41.5702H40.2519V36.167ZM16.9977 40.4058C15.5225 40.9358 14.3752 42.0073 13.8013 43.3911L13.5297 44.0454H18.6414H23.753L23.6332 43.6471C23.2589 42.4021 21.7452 40.8785 20.4364 40.4293C19.4508 40.0912 17.9031 40.0805 16.9977 40.4058ZM49.8071 40.8144C49.8551 40.9847 49.9926 41.5859 50.1124 42.1504C50.2323 42.7146 50.3764 43.2048 50.4325 43.2397C50.4888 43.2746 55.9528 44.6766 62.5751 46.3551C69.1973 48.0339 74.6709 49.4557 74.7387 49.515C74.8364 49.6004 74.4141 51.7723 74.2606 51.9745C74.2393 52.0023 69.1708 50.7526 62.9969 49.1974C56.8231 47.6423 51.7473 46.3945 51.7172 46.4245C51.6874 46.4548 52.378 47.6763 53.2519 49.1388C54.126 50.6015 54.8411 51.9864 54.8411 52.2162C54.8411 52.6227 55.2438 52.7354 69.4741 56.3119C77.5224 58.3344 84.1967 59.9871 84.3062 59.9845C84.5143 59.9792 86.0678 54.0165 85.904 53.8515C85.8523 53.7997 85.506 53.8421 85.1344 53.9461C83.9411 54.2798 82.671 54.1534 79.7048 53.4056C77.3034 52.8002 76.8181 52.625 76.8881 52.3876C77.3758 50.7313 78.0309 47.6839 77.9204 47.5849C77.7797 47.459 50.2657 40.5046 49.9084 40.5046C49.8048 40.5046 49.7593 40.6441 49.8071 40.8144ZM4.85713 48.6617C4.21591 49.7409 3.69123 50.6573 3.69123 50.6984C3.69123 50.7395 14.3299 50.7731 27.3326 50.7731C40.3354 50.7731 50.9739 50.7134 50.9735 50.6403C50.9734 50.5672 50.4745 49.671 49.8653 48.6486L48.7574 46.7896L27.3901 46.7446L6.02303 46.6997L4.85713 48.6617ZM80.2877 49.4886C80.1316 50.1453 80.0302 50.7092 80.0623 50.7414C80.2513 50.9317 82.8397 51.4756 83.5683 51.4783C84.5725 51.4818 85.6609 51.011 86.3685 50.2669L86.851 49.7597L83.9446 49.0271C82.3463 48.6241 80.9333 48.2945 80.8048 48.2945C80.6617 48.2945 80.4613 48.7569 80.2877 49.4886ZM2.98814 53.6539C2.98814 54.0565 4.05841 55.1997 4.80685 55.5966C5.4203 55.9219 5.83143 55.9847 7.38245 55.9899L9.22806 55.9959L9.27974 54.7123L9.33142 53.4287H6.15978C3.71021 53.4287 2.98814 53.4801 2.98814 53.6539ZM45.5251 54.7566V56.0844H47.0849C48.7386 56.0844 49.7953 55.8165 50.5733 55.2002C51.0616 54.8134 51.8529 53.806 51.8529 53.5714C51.8529 53.493 50.4292 53.4287 48.689 53.4287H45.5251V54.7566ZM14.5891 57.4122V58.7401H27.4205H40.2519V57.4122V56.0844H27.4205H14.5891V57.4122ZM77.3287 61.5142C77.0178 62.3378 77.1283 63.289 77.576 63.6438C78.1336 64.0855 82.0575 65.0265 82.6828 64.8684C83.1589 64.748 83.476 64.2259 83.7302 63.1435L83.8395 62.678L80.6663 61.8783L77.4931 61.0784L77.3287 61.5142ZM26.0144 65.3792V66.707H27.3326H28.6509V65.3792V64.0514H27.3326H26.0144V65.3792ZM2.63659 67.5726C2.63659 68.1605 2.74416 68.5723 2.97214 68.8561C3.29134 69.2536 3.42845 69.277 5.75989 69.3313C8.11419 69.3862 8.23055 69.3722 8.68141 68.9772C9.03788 68.6649 9.17656 68.3424 9.25795 67.6365L9.36499 66.707H6.0007H2.63659V67.5726ZM45.5251 67.5726C45.5251 68.1605 45.6327 68.5723 45.8607 68.8561C46.1799 69.2536 46.317 69.277 48.6484 69.3313C51.0182 69.3866 51.1166 69.3744 51.5872 68.9668C51.9693 68.6357 52.0927 68.3479 52.1616 67.6261L52.2491 66.707H48.8871H45.5251V67.5726Z" fill="black"/>
<path fill-rule="evenodd" clip-rule="evenodd" d="M36.5615 6.68075L35.6299 13.4114L30.7554 13.4585L25.8809 13.5054L29.9463 19.3491C32.1821 22.5632 34.1351 25.3681 34.2863 25.5821L34.561 25.9712L35.5607 25.2569C36.1105 24.864 36.5603 24.4736 36.5603 24.3892C36.5603 24.3047 35.2907 22.4189 33.7388 20.1984L30.9173 16.1611L34.4169 16.1133L37.9164 16.0653L38.5651 11.2446C38.922 8.593 39.2728 6.27461 39.3449 6.09243C39.4538 5.81678 40.0606 6.38119 42.9616 9.45626C44.8787 11.4885 46.515 13.1774 46.5976 13.2091C46.6802 13.2409 47.909 12.417 49.3282 11.3781C50.7474 10.3392 52.0146 9.44812 52.1443 9.39801C52.3306 9.32613 52.3798 9.64428 52.3798 10.9193V12.5317H53.6997H55.0196L54.9057 8.41542C54.8431 6.15157 54.7731 4.27579 54.7501 4.24728C54.7271 4.2186 53.0066 5.43365 50.9271 6.9472C48.8473 8.46074 47.0722 9.69899 46.9824 9.69899C46.8925 9.69899 44.7745 7.52808 42.2755 4.87455C39.7766 2.22102 37.6782 0.0276281 37.6126 0.000186392C37.5469 -0.0272554 37.0739 2.97895 36.5615 6.68075Z" fill="#EDBC18"/>
</svg>
