<svg width="64" height="75" viewBox="0 0 64 75" fill="none" xmlns="http://www.w3.org/2000/svg">
<path fill-rule="evenodd" clip-rule="evenodd" d="M19.6866 0.0872813C18.2301 0.443668 16.8908 1.60493 16.3847 2.95025C16.0728 3.77903 16.0647 3.96163 16.1056 9.24788C16.1463 14.5337 16.157 14.7113 16.475 15.3521C16.8249 16.0574 17.3924 16.7352 17.9908 17.1635L18.3594 17.4272L17.9908 17.6717C16.4672 18.6819 14.9483 20.7071 14.2438 22.6678L13.7898 23.9317L13.7152 29.8715C13.656 34.5845 13.5979 35.887 13.4341 36.1779C13.3204 36.3796 12.8864 36.9129 12.4695 37.363C11.057 38.8884 10.2061 40.3962 9.55429 42.5291C9.24417 43.5436 9.22971 43.873 9.17781 51.064L9.12369 58.5438L8.38444 58.9837C6.70673 59.9822 5.25582 61.9815 4.79351 63.9321C4.11281 66.803 4.96118 69.3741 7.3774 71.7637C8.88568 73.2552 10.0481 74.0065 11.7204 74.5707L12.9032 74.9698H30.8203C50.9887 74.9698 49.2791 75.0634 51.6712 73.8291C53.1308 73.076 55.1379 71.22 55.9301 69.8909C57.485 67.2826 57.4959 64.1706 55.959 61.6236C55.2577 60.4615 54.6949 59.8864 53.4931 59.1042L52.4977 58.4562V51.2692C52.4977 45.192 52.4611 43.9219 52.2604 43.0448C51.7772 40.9317 50.8136 39.1059 49.3408 37.5126C47.9198 35.9753 48.0106 36.4787 47.9218 29.6515L47.8437 23.6384L47.4327 22.5669C46.6976 20.6501 45.5878 19.0966 44.2267 18.0789L43.3871 17.4514L44.0739 16.8631C44.4707 16.523 44.9463 15.9098 45.2005 15.4101L45.6406 14.5454V9.04564V3.54584L45.2321 2.71838C44.7553 1.75306 43.7674 0.791695 42.7909 0.342912C42.1054 0.0277369 42.0384 0.0258303 31.1152 0.00251117C25.0728 -0.010395 19.93 0.0277369 19.6866 0.0872813ZM19.6483 2.46202C19.3028 2.63215 18.8714 2.97856 18.6898 3.23184C18.3652 3.68459 18.3587 3.78021 18.3164 8.75231C18.2928 11.5352 18.3093 13.9556 18.3533 14.1308C18.4814 14.6422 19.1838 15.372 19.8281 15.663C20.2492 15.8534 20.7807 15.9333 21.6406 15.9355L22.8571 15.9387V13.819C22.8571 12.556 22.9245 11.5524 23.0238 11.3357C23.3646 10.5916 24.5341 10.5254 24.9127 11.2288C25.0031 11.3969 25.0691 12.4521 25.0691 13.7291V15.9387H30.8203H36.5714V9.04564V2.15256H30.8203H25.0691V4.69361C25.0691 7.16001 25.0591 7.2439 24.7279 7.55351C24.2449 8.00464 23.5493 7.97472 23.1628 7.4859C22.881 7.12966 22.8571 6.90629 22.8571 4.626V2.15256L21.5668 2.15271C20.5514 2.15271 20.1426 2.21871 19.6483 2.46202ZM38.7834 9.03229V15.9387L40 15.9323C41.8821 15.9223 42.7014 15.5328 43.2249 14.3988C43.4702 13.8677 43.4958 13.3603 43.4958 9.04564C43.4958 3.66567 43.4609 3.46386 42.3875 2.64886C41.8706 2.2564 41.7206 2.22223 40.3069 2.17588L38.7834 2.12587V9.03229ZM55.0301 7.26238C54.8133 7.49147 54.1848 8.24721 53.6333 8.9418C53.0345 9.69608 52.1194 10.6061 51.361 11.2017C49.421 12.7252 49.2535 12.9075 49.2535 13.4955C49.2535 13.7775 49.2942 14.1135 49.3439 14.2423C49.3934 14.3709 50.0509 14.9375 50.8049 15.5011C52.2799 16.6035 53.1265 17.464 54.3556 19.1098C55.1742 20.2058 55.3559 20.3385 56.0369 20.3385C56.7236 20.3385 56.8961 20.2079 57.8435 18.9703C58.9521 17.5218 60.1094 16.3743 61.5474 15.2979C62.6983 14.4366 62.8203 14.271 62.8203 13.5704C62.8203 12.911 62.6168 12.6448 61.4528 11.7822C60.1711 10.8321 58.6446 9.30317 57.7396 8.06271C56.9851 7.02831 56.7182 6.84572 55.9615 6.84572C55.5622 6.84572 55.3231 6.95264 55.0301 7.26238ZM55.0919 10.6674C54.6211 11.2368 53.7451 12.1098 53.1455 12.6074C52.5459 13.1051 52.0553 13.5496 52.0553 13.5954C52.0553 13.6411 52.3824 13.9267 52.7823 14.23C53.5566 14.8172 55.2755 16.5688 55.68 17.1825C55.8137 17.3858 55.9689 17.552 56.0245 17.552C56.0801 17.552 56.5085 17.0891 56.9765 16.5233C57.4444 15.9575 58.3039 15.0887 58.886 14.5925C59.4682 14.0965 59.9621 13.6493 59.9835 13.599C60.0047 13.5487 59.5521 13.118 58.9775 12.6421C58.403 12.166 57.5248 11.2941 57.0262 10.7044C56.5275 10.1148 56.081 9.63228 56.0339 9.63228C55.9867 9.63228 55.5629 10.0981 55.0919 10.6674ZM5.00217 13.8095C4.79307 13.9227 4.45405 14.2674 4.24892 14.5758C3.62131 15.5188 2.39602 16.7653 1.26201 17.6142C0.120479 18.4686 0 18.6332 0 19.3386C0 19.8173 0.314249 20.1728 1.8097 21.3863C2.27126 21.7607 2.99856 22.4827 3.42592 22.9905C4.87417 24.7117 5.08018 24.885 5.67742 24.885C6.28734 24.885 6.6619 24.5643 7.79605 23.0711C8.15012 22.6049 9.05703 21.7348 9.81117 21.1377C10.8501 20.3151 11.2066 19.9421 11.2824 19.5989C11.4275 18.9419 11.1351 18.3882 10.3487 17.8311C9.30433 17.0912 8.15233 15.9727 7.3423 14.9121C6.3363 13.5948 5.8355 13.3589 5.00217 13.8095ZM4.20276 17.9112L2.87558 19.2543L4.26809 20.6396L5.66076 22.0251L7.06994 20.6408L8.47926 19.2563L7.08129 17.8909C6.3124 17.1399 5.64881 16.535 5.60664 16.5468C5.56446 16.5585 4.93272 17.1724 4.20276 17.9112ZM21.718 18.3643C18.8094 19.1434 16.5382 21.6212 16.0453 24.5534L15.8668 25.6153L19.6296 29.3933C23.2058 32.984 23.4224 33.2333 23.9973 34.418C25.085 36.6596 25.0691 36.4496 25.0691 48.4897V59.2037H30.8151H36.5611L36.6031 53.7925C36.6427 48.7098 36.6623 48.3625 36.9261 48.0727C37.2927 47.67 38.0911 47.6622 38.4885 48.0575C38.7728 48.3403 38.7834 48.5463 38.7834 53.7773V59.2037L41.2535 59.202C43.8835 59.2001 44.138 59.1572 46.5184 58.3157C47.6244 57.9247 48.0513 57.8489 49.1485 57.8489H50.458L50.3966 51.0099C50.3279 43.3723 50.3325 43.411 49.2529 41.2172C48.8715 40.4423 48.3073 39.6312 47.6446 38.9057C45.8887 36.9831 45.7186 36.356 45.711 31.7781L45.706 28.7716L43.0045 31.4908C40.5402 33.9713 40.2494 34.319 39.693 35.4507C38.9195 37.0239 38.7859 37.8915 38.7846 41.3477C38.7836 43.9013 38.7623 44.1186 38.4885 44.391C38.0912 44.7861 37.2927 44.7784 36.9261 44.376C36.6764 44.102 36.64 43.78 36.5984 41.4863C36.5273 37.5592 36.8692 35.7485 38.0642 33.723C38.3881 33.1739 39.8123 31.6187 42.1382 29.2743C45.6286 25.7562 45.7143 25.6554 45.7143 25.0729C45.7143 23.0221 43.9732 20.347 41.8224 19.0935C40.2091 18.1531 40.0285 18.1376 30.8235 18.1483C24.1454 18.1561 22.3353 18.1989 21.718 18.3643ZM57.7252 22.9126C57.4776 23.0342 57.1544 23.3369 57.0067 23.5855C56.5865 24.2931 54.8731 26.041 53.8986 26.7563C52.9548 27.449 52.6587 27.8337 52.6503 28.3779C52.6419 28.9254 52.8603 29.1916 54.1551 30.2121C54.829 30.7431 55.7105 31.5888 56.1141 32.0912C57.4525 33.7574 57.7146 33.9785 58.3447 33.9733C59.0189 33.9678 59.1898 33.8465 59.9072 32.8638C60.517 32.0283 62.3183 30.285 63.1474 29.7275C63.7282 29.3371 64 28.8937 64 28.3367C64 27.7452 63.8556 27.555 62.8369 26.804C61.7158 25.9772 60.4443 24.6925 59.7564 23.6908C59.4685 23.2718 59.1084 22.9473 58.8204 22.8475C58.2416 22.6467 58.2704 22.6449 57.7252 22.9126ZM57.582 26.3448C57.1939 26.7922 56.5708 27.4218 56.1976 27.744L55.519 28.3298L56.96 29.763L58.4012 31.1963L58.8779 30.6438C59.4781 29.9487 59.9459 29.483 60.6338 28.8959L61.1756 28.4336L59.7316 26.9823L58.2876 25.5311L57.582 26.3448ZM15.8988 32.5145C15.8443 36.92 15.8468 36.911 14.1704 38.7527C12.9242 40.1221 11.9028 42.0236 11.5753 43.5843C11.4051 44.396 11.3594 46.0044 11.3573 51.2667L11.3548 57.9224L11.9456 57.8436C12.946 57.7101 14.5121 57.9935 15.9525 58.5685L17.3272 59.1174L20.0922 59.1743L22.8571 59.2312V48.5421C22.8571 36.8108 22.8756 37.082 21.9555 35.2603C21.59 34.5365 20.9119 33.7614 18.7191 31.5612L15.9451 28.7777L15.8988 32.5145ZM11.5061 60.1044C11.0621 60.1776 10.6407 60.2953 10.5694 60.3662C10.4953 60.4399 10.7128 61.0168 11.08 61.7193C12.1806 63.8255 14.0133 65.3188 16.0779 65.7919C16.4406 65.8749 17.9384 65.9446 19.4066 65.9466C22.1686 65.9503 22.8989 66.0665 23.1552 66.5425C23.3873 66.9738 23.3224 67.5407 23.0046 67.8567C22.7286 68.1313 22.5131 68.1501 19.6365 68.1501C16.1022 68.1501 15.0444 67.9637 13.2276 67.0205C11.7537 66.2555 10.1726 64.6543 9.23237 62.9744L8.51082 61.6852L8.1569 62.016C7.96225 62.1978 7.59019 62.7765 7.33006 63.302C6.89298 64.1849 6.85714 64.369 6.85714 65.7302C6.85714 67.0909 6.89312 67.2755 7.32948 68.157C7.94308 69.3968 9.86234 71.2901 11.169 71.9449C13.0209 72.8728 12.2706 72.8387 30.8499 72.841C42.5578 72.8425 48.0049 72.7937 48.5458 72.6823C51.1069 72.1551 53.9616 69.7141 54.6575 67.4562C54.9322 66.565 54.9582 65.213 54.7193 64.227C54.5416 63.4931 53.5151 61.6957 53.2751 61.6981C53.2125 61.6989 52.929 62.1405 52.6452 62.6796C51.5721 64.7175 50.024 66.2705 48.1481 67.1909C46.2048 68.1445 46.1912 68.1455 36.0292 68.1479L26.8601 68.1501L26.5545 67.7636C26.1565 67.2606 26.1688 66.9391 26.6047 66.435L26.9604 66.0235L36.3005 65.9501C45.4359 65.8784 45.6575 65.8699 46.414 65.5612C48.3685 64.7637 49.7571 63.4711 50.7327 61.5412L51.3159 60.3877L50.6902 60.2116C49.4984 59.876 48.1382 59.9978 46.6616 60.5722C45.9255 60.8585 44.8969 61.1658 44.3759 61.2548C43.7192 61.3671 39.3793 61.4035 30.2304 61.3736L17.0323 61.3303L15.9263 60.9131C13.9575 60.1702 13.7983 60.1224 13.0507 60.0463C12.6452 60.0051 11.9502 60.0313 11.5061 60.1044Z" fill="black"/>
<path fill-rule="evenodd" clip-rule="evenodd" d="M55.0301 7.26237C54.8133 7.49145 54.1848 8.2472 53.6333 8.94178C53.0345 9.69606 52.1194 10.6061 51.361 11.2017C49.421 12.7252 49.2535 12.9075 49.2535 13.4955C49.2535 13.7775 49.2942 14.1135 49.3439 14.2423C49.3934 14.3709 50.0509 14.9374 50.8049 15.5011C52.2799 16.6035 53.1265 17.464 54.3556 19.1098C55.1742 20.2058 55.3559 20.3385 56.0369 20.3385C56.7236 20.3385 56.8961 20.2079 57.8435 18.9703C58.9521 17.5218 60.1094 16.3743 61.5474 15.2979C62.6983 14.4366 62.8203 14.271 62.8203 13.5704C62.8203 12.911 62.6168 12.6448 61.4528 11.7822C60.1711 10.8321 58.6446 9.30316 57.7397 8.0627C56.9851 7.0283 56.7182 6.8457 55.9615 6.8457C55.5622 6.8457 55.3231 6.95262 55.0301 7.26237ZM55.0919 10.6674C54.6211 11.2367 53.7451 12.1098 53.1455 12.6074C52.5459 13.1051 52.0553 13.5496 52.0553 13.5953C52.0553 13.6411 52.3824 13.9266 52.7823 14.2299C53.5566 14.8172 55.2755 16.5687 55.68 17.1825C55.8137 17.3858 55.9689 17.552 56.0245 17.552C56.0801 17.552 56.5085 17.0891 56.9765 16.5233C57.4444 15.9575 58.3039 15.0886 58.886 14.5925C59.4682 14.0965 59.9621 13.6493 59.9835 13.599C60.0047 13.5487 59.5521 13.118 58.9775 12.642C58.4029 12.166 57.5248 11.2941 57.0262 10.7044C56.5275 10.1148 56.081 9.63226 56.0339 9.63226C55.9867 9.63226 55.5629 10.0981 55.0919 10.6674ZM5.00217 13.8095C4.79307 13.9227 4.45405 14.2673 4.24892 14.5758C3.62131 15.5188 2.39602 16.7653 1.26201 17.6142C0.120479 18.4686 0 18.6332 0 19.3386C0 19.8173 0.314249 20.1728 1.8097 21.3863C2.27126 21.7607 2.99856 22.4827 3.42592 22.9905C4.87417 24.7117 5.08018 24.885 5.67742 24.885C6.28734 24.885 6.6619 24.5643 7.79605 23.0711C8.15012 22.6049 9.05703 21.7347 9.81117 21.1377C10.8501 20.3151 11.2066 19.9421 11.2824 19.5989C11.4275 18.9419 11.1351 18.3882 10.3487 17.8311C9.30433 17.0912 8.15233 15.9727 7.3423 14.9121C6.3363 13.5948 5.8355 13.3589 5.00217 13.8095ZM4.20276 17.9111L2.87558 19.2543L4.26809 20.6396L5.66076 22.0251L7.06994 20.6408L8.47926 19.2563L7.08129 17.8909C6.3124 17.1398 5.64881 16.535 5.60664 16.5468C5.56446 16.5585 4.93272 17.1724 4.20276 17.9111ZM57.7252 22.9126C57.4776 23.0342 57.1544 23.3369 57.0067 23.5855C56.5865 24.2931 54.8731 26.041 53.8986 26.7563C52.9548 27.449 52.6587 27.8336 52.6503 28.3779C52.6419 28.9254 52.8603 29.1916 54.1551 30.212C54.829 30.7431 55.7105 31.5888 56.1141 32.0912C57.4525 33.7574 57.7146 33.9784 58.3447 33.9733C59.0189 33.9677 59.1898 33.8465 59.9072 32.8638C60.517 32.0283 62.3183 30.2849 63.1474 29.7275C63.7282 29.3371 64 28.8937 64 28.3367C64 27.7452 63.8556 27.555 62.8369 26.8039C61.7158 25.9772 60.4443 24.6925 59.7564 23.6908C59.4685 23.2717 59.1084 22.9473 58.8204 22.8475C58.2416 22.6467 58.2704 22.6449 57.7252 22.9126ZM57.582 26.3447C57.1939 26.7922 56.5708 27.4218 56.1976 27.744L55.519 28.3298L56.96 29.763L58.4012 31.1963L58.8779 30.6438C59.4781 29.9486 59.9459 29.483 60.6338 28.8959L61.1756 28.4336L59.7316 26.9823L58.2876 25.5311L57.582 26.3447Z" fill="#EDBC18"/>
</svg>
