<svg width="81" height="49" viewBox="0 0 81 49" fill="none" xmlns="http://www.w3.org/2000/svg">
<path fill-rule="evenodd" clip-rule="evenodd" d="M0.387632 0.385561L0 0.770964V24.5V48.229L0.387632 48.6144L0.775105 49H40.4294H80.0839L80.5419 48.5122L81 48.0244L80.9616 24.287L80.9233 0.549679L80.8432 17.3542C80.7971 27.0431 80.7114 33.5603 80.6408 32.7457C80.4802 30.8903 79.8767 27.9611 79.1926 25.7162C76.6061 17.2287 70.6121 9.69085 62.7409 5.02721C58.3821 2.4445 52.8401 0.668253 47.5491 0.157679C46.5404 0.0604644 37.2669 0 23.3446 0H0.775105L0.387632 0.385561ZM0.0768947 24.5C0.0768947 37.5863 0.0955263 42.9399 0.118421 36.3966C0.141158 29.8536 0.141158 19.1466 0.118421 12.6034C0.0955263 6.0603 0.0768947 11.4137 0.0768947 24.5ZM2.52632 24.5V46.4872H40.4211H78.3158V40.6929C78.3158 32.6544 78.0433 30.3506 76.5583 25.8349C72.3459 13.0261 61.005 4.02083 47.3912 2.67458C46.3577 2.57234 37.8024 2.51282 24.1412 2.51282H2.52632V24.5ZM4.1771 4.15479L3.78947 4.54019V20.1318V35.7234L8.56863 40.4771L13.3479 45.2308H44.8127H76.2775L76.665 44.8452L77.0526 44.4598V39.7684C77.0526 37.1882 76.9773 34.305 76.8851 33.3615C75.7822 22.0618 68.9076 12.1734 58.6579 7.14285C56.4251 6.04695 53.6571 5.06915 51.345 4.55936C47.8367 3.78588 47.2858 3.76923 25.2175 3.76923H4.56458L4.1771 4.15479ZM6.31579 20.1026V33.9231H10.3492H14.3828L14.7703 34.3086L15.1579 34.694V38.7061V42.7179H44.8421H74.5263L74.5236 38.8309C74.5197 33.2969 74.1676 30.5545 73.0061 27.0128C72.2883 24.8237 70.3563 21.0081 69.0369 19.1739C64.4591 12.8096 57.8136 8.43491 50.4474 6.93664C47.3531 6.30734 46.4127 6.28205 26.0588 6.28205H6.31579V20.1026ZM10.3421 38.6346C11.5555 39.8439 12.5672 40.8333 12.5901 40.8333C12.6128 40.8333 12.6316 39.8439 12.6316 38.6346V36.4359H10.3836H8.13584L10.3421 38.6346Z" fill="black"/>
<path fill-rule="evenodd" clip-rule="evenodd" d="M4.17669 4.1546L3.78906 4.54001V20.1316V35.7232L8.56822 40.477L13.3475 45.2306H44.8123H76.2771L76.6646 44.845L77.0522 44.4596V39.7682C77.0522 37.188 76.9769 34.3048 76.8847 33.3613C75.7818 22.0616 68.9072 12.1732 58.6575 7.14266C56.4247 6.04676 53.6566 5.06896 51.3446 4.55917C47.8363 3.78569 47.2854 3.76904 25.2171 3.76904H4.56417L4.17669 4.1546ZM6.31538 20.1024V33.9229H10.3488H14.3824L14.7699 34.3084L15.1575 34.6939V38.7059V42.7178H44.8417H74.5259L74.5232 38.8307C74.5193 33.2967 74.1672 30.5543 73.0057 27.0126C72.2879 24.8235 70.3559 21.0079 69.0365 19.1737C64.4587 12.8094 57.8132 8.43472 50.447 6.93645C47.3527 6.30715 46.4123 6.28186 26.0584 6.28186H6.31538V20.1024ZM10.3417 38.6344C11.5551 39.8437 12.5667 40.8331 12.5896 40.8331C12.6124 40.8331 12.6312 39.8437 12.6312 38.6344V36.4357H10.3832H8.13543L10.3417 38.6344Z" fill="#EDBC18"/>
</svg>
