<svg width="82" height="81" viewBox="0 0 82 81" fill="none" xmlns="http://www.w3.org/2000/svg">
<path fill-rule="evenodd" clip-rule="evenodd" d="M16.8547 0.303744C15.6999 0.928369 15.6895 0.997772 15.6895 8.03292C15.6895 14.8635 15.7251 15.1668 16.5947 15.7413C16.8352 15.9004 17.417 16.0911 17.8871 16.165C19.1376 16.3614 19.4844 16.8264 19.4844 18.3065V19.4523L16.363 19.5038L13.2418 19.5556L12.5268 20.0559C11.602 20.7032 10.9046 22.0395 10.9046 23.1637V23.9661H10.0169H9.12925L9.05731 22.9625C8.95964 21.6007 8.74003 21.4087 7.1894 21.3296L5.95473 21.2667V17.1538C5.95473 12.4769 5.86712 11.9972 4.78557 10.7578C3.89525 9.73769 2.69062 9.15351 1.47674 9.15351C0.683939 9.15351 0.486439 9.2141 0.271779 9.5235C-0.135925 10.1105 -0.0567273 10.9032 0.449645 11.305C0.688724 11.4947 1.06227 11.65 1.2799 11.65C1.92322 11.65 2.72939 12.0696 3.07489 12.5844C3.36974 13.0238 3.40175 13.4219 3.44877 17.258L3.50025 21.4513L2.85875 21.8794C1.83842 22.5606 1.43071 23.4605 1.42345 25.0479C1.41586 26.6978 1.53268 27.1313 2.18672 27.8828C3.03497 28.8572 3.49349 29.0132 5.74865 29.0936C8.59879 29.1953 9.08965 28.9295 9.08965 27.2839V26.629H9.97915H10.8685L10.9297 27.8518C10.98 28.8556 11.0798 29.2196 11.4865 29.8833C12.1916 31.0337 13.3411 31.622 14.8833 31.622H16.0195L16.0185 33.328C16.0173 35.3323 15.7281 37.4181 15.0155 40.562C14.4259 43.1622 14.4324 44.1029 15.046 45.0173C15.7626 46.0851 16.4084 46.2682 19.4593 46.2682C22.2319 46.2682 22.9348 46.1349 23.6614 45.4716C24.4597 44.743 24.5121 44.4289 24.5993 39.8638L24.6818 35.5397L25.495 36.7016C26.8274 38.6046 29.7288 41.3852 31.4451 42.4036C33.136 43.407 35.3045 44.1718 36.0133 44.0148C36.5359 43.899 36.974 43.3707 36.974 42.8563C36.974 42.1792 36.5111 41.8144 35.061 41.3486C32.6156 40.5632 30.2182 38.7148 28.1059 35.9861C27.0732 34.652 25.4242 32.0546 25.4242 31.7618C25.4242 31.6849 27.7702 31.622 30.6376 31.622H35.8508L36.6012 32.2883C37.6105 33.1845 38.1852 33.3263 40.5374 33.2596C42.3932 33.207 42.5739 33.1719 43.2242 32.7371C44.0742 32.1691 44.8436 30.9909 44.9848 30.0413L45.0898 29.3357L47.1313 29.2564C49.0097 29.1835 49.227 29.1408 49.8527 28.7231C50.8252 28.074 51.2154 27.1109 51.1374 25.5522C51.0879 24.5614 50.9999 24.2489 50.6348 23.766C49.92 22.8209 49.3343 22.6346 47.0762 22.6346H45.1012L45.0248 21.3448C44.9137 19.4679 44.322 18.4495 42.9138 17.7104C42.4942 17.4902 41.855 17.389 40.5763 17.34C38.2619 17.2517 37.4322 17.5135 36.4173 18.652L35.686 19.4724H31.4626H27.2392V18.4846C27.2392 16.7878 27.6408 16.2973 29.1941 16.0971C29.9618 15.9981 30.6366 15.4963 30.8889 14.8367C30.9714 14.6214 31.044 11.5209 31.0504 7.9467C31.0613 1.80764 31.0445 1.42417 30.7475 1.01525C30.0265 0.0221387 29.8666 0.000169577 23.3592 3.14327e-06C17.9189 -0.000329724 17.3693 0.025301 16.8547 0.303744ZM18.3294 3.82764V4.99268H23.4443H28.5592V3.82764V2.66261H23.4443H18.3294V3.82764ZM18.3294 10.6301V13.6046L18.9764 13.709C19.725 13.8298 20.8829 14.6623 21.4195 15.4655C21.9206 16.2153 22.1223 17.0203 22.1233 18.2727L22.1243 19.3199L23.403 19.2713L24.6818 19.2227L24.7664 17.8081C24.8312 16.7236 24.9398 16.2484 25.2319 15.7721C25.8016 14.8427 26.8366 14.0297 27.7512 13.7932L28.5592 13.5843V10.62V7.65561H23.4443H18.3294V10.6301ZM65.1354 16.5348C63.9721 16.8333 62.9504 17.1856 62.8653 17.3179C62.398 18.0437 62.5632 18.9393 63.2434 19.368C63.6267 19.6095 67.9064 18.5613 68.3456 18.1183C68.8145 17.6453 68.7508 16.7445 68.2184 16.3223C67.6683 15.8857 67.6657 15.8859 65.1354 16.5348ZM57.8459 18.3055C55.5503 18.8879 55.5234 18.9004 55.2849 19.481C55.0261 20.1113 55.1905 20.7315 55.7069 21.0727C56.0978 21.3311 56.2417 21.3161 58.3731 20.796C60.8277 20.197 61.2298 19.9577 61.2259 19.0979C61.2229 18.4638 61.1102 18.2594 60.6205 17.9995C60.1447 17.7468 59.9734 17.7656 57.8459 18.3055ZM38.5249 20.099C38.025 20.4357 37.9639 21.0194 37.9639 25.4607V29.9728L38.369 30.3813C38.7361 30.7518 38.9064 30.7899 40.1914 30.7899C41.4764 30.7899 41.6466 30.7518 42.0138 30.3813L42.4188 29.9728V25.2476C42.4188 19.5767 42.5799 19.9704 40.2608 19.9742C39.406 19.9757 38.6247 20.0318 38.5249 20.099ZM13.8516 22.2871C13.469 22.5995 13.462 22.6573 13.462 25.5266C13.462 29.0969 13.4459 29.0655 15.2414 28.9967C17.1383 28.924 23.3803 28.9453 29.5904 29.0455L35.324 29.138V25.5534V21.9689H24.7826C14.6494 21.9689 14.226 21.9812 13.8516 22.2871ZM4.17278 24.1658C3.91588 24.425 3.91588 26.0037 4.17278 26.2629C4.28481 26.3759 4.82171 26.4626 5.41025 26.4626H6.44972V25.2143V23.9661H5.41025C4.82171 23.9661 4.28481 24.0528 4.17278 24.1658ZM16.5833 24.1418C15.6826 24.4113 15.4176 25.5377 16.0946 26.2204L16.4995 26.629H24.4085C31.8901 26.629 32.3381 26.6122 32.6987 26.3176C33.2142 25.8966 33.2213 24.9334 32.7126 24.4201L32.3452 24.0493L24.7186 24.0195C20.4927 24.003 16.8651 24.0576 16.5833 24.1418ZM56.7735 24.9647C56.3139 25.4282 56.3392 26.3057 56.8253 26.7665C57.1813 27.1039 57.3701 27.1283 59.612 27.1283C61.7157 27.1283 62.0645 27.0894 62.398 26.8169C62.8775 26.4253 62.9166 25.4672 62.4732 24.973C62.1901 24.6573 61.9781 24.6318 59.6353 24.6318C57.3234 24.6318 57.0747 24.6608 56.7735 24.9647ZM64.4388 24.9724C64.0102 25.4502 64.0597 26.4461 64.5312 26.8314C64.8434 27.0862 65.2384 27.1283 67.3226 27.1283C69.6473 27.1283 69.7659 27.1119 70.1094 26.7432C70.566 26.2529 70.5797 25.4101 70.1381 24.9647C69.8368 24.6608 69.5882 24.6318 67.2763 24.6318C64.9348 24.6318 64.7215 24.6575 64.4388 24.9724ZM72.1181 24.9647C71.6594 25.4274 71.693 26.2154 72.1931 26.7197C72.516 27.0456 72.7667 27.1283 73.4306 27.1283C74.4585 27.1283 74.923 26.7399 74.923 25.8801C74.923 24.9978 74.4633 24.6318 73.3555 24.6318C72.668 24.6318 72.368 24.7125 72.1181 24.9647ZM45.0588 25.8743V26.629H46.7881H48.5174L48.6273 26.1872C48.833 25.3603 48.5707 25.219 46.7325 25.1669L45.0588 25.1195V25.8743ZM55.6185 30.9563C55.1812 31.3974 55.1824 32.3057 55.6208 32.706C55.9797 33.0336 59.319 33.9393 60.1971 33.9473C60.9012 33.9536 61.3933 33.4526 61.3933 32.7297C61.3933 31.901 60.9639 31.6324 58.7991 31.1073C56.4676 30.5419 56.0491 30.5219 55.6185 30.9563ZM18.3971 34.0778C18.3835 36.4499 18.3223 36.9822 17.7506 39.6941C17.4031 41.3418 17.1129 42.8771 17.1055 43.1059L17.092 43.522L19.6081 43.568L22.1243 43.6139V37.5348V31.4556L20.2681 31.4564L18.4119 31.4573L18.3971 34.0778ZM63.1708 32.7455C62.5503 33.4585 62.7206 34.4499 63.5185 34.7675C64.2281 35.0497 67.2769 35.7829 67.7419 35.7829C68.735 35.7829 69.3638 34.3512 68.655 33.7041C68.3095 33.3887 64.8086 32.4645 63.9351 32.458C63.6513 32.4559 63.3117 32.5837 63.1708 32.7455ZM17.5619 48.8326C15.3798 49.3715 13.0553 51.2148 12.1901 53.092C11.9581 53.5954 11.2787 55.7968 10.6804 57.9839C10.0821 60.171 9.57227 61.976 9.54735 61.995C9.52244 62.014 8.463 62.2656 7.19286 62.5542C5.92272 62.8428 4.48891 63.2737 4.00663 63.5117C2.26889 64.3693 0.785082 66.2635 0.23944 68.3206C-0.0938514 69.5774 -0.0737218 77.0963 0.265675 78.0663C0.820721 79.6533 2.03724 80.6127 3.88651 80.9218C5.1121 81.1267 6.17269 80.9181 6.42431 80.4228C6.504 80.2659 6.6167 79.6571 6.67477 79.0699C6.81337 77.6687 7.39878 76.4178 8.37819 75.4308C10.7924 72.9981 14.4175 73.0495 16.7357 75.5493C17.7209 76.6118 18.1735 77.6224 18.3372 79.1262C18.55 81.0833 16.4453 80.8864 37.1495 80.8864C50.3479 80.8864 55.2185 80.8356 55.5251 80.6946C55.9934 80.4794 56.0432 80.3553 56.1915 79.0369C56.3291 77.8133 57.0708 76.2592 57.9314 75.3911C58.3107 75.0084 59.1106 74.4644 59.7089 74.1819C60.6256 73.7492 60.9945 73.6685 62.0533 73.6685C63.1121 73.6685 63.481 73.7492 64.3978 74.1819C66.3795 75.1174 67.7056 76.992 67.9321 79.1784C68.0138 79.9665 68.1326 80.2947 68.442 80.5876C68.8439 80.9682 68.8629 80.9696 73.7403 80.9696C78.3567 80.9696 78.6778 80.9498 79.3797 80.6221C80.2774 80.203 81.078 79.4252 81.569 78.4954C81.8936 77.8806 81.9385 77.5091 81.9891 75.0084C82.0568 71.6774 81.8216 70.3014 80.928 68.799C79.5921 66.5528 78.3836 65.7634 74.195 64.401C68.8592 62.6654 66.8786 61.5326 63.5015 58.2855C62.3871 57.214 60.4773 55.5136 59.2575 54.5066C58.0377 53.4997 56.5157 52.2074 55.8754 51.6347C54.2886 50.2155 53.23 49.4992 52.0646 49.0556L51.0811 48.6815L34.7465 48.652C22.0758 48.6292 18.2212 48.6697 17.5619 48.8326ZM18.5162 51.2742C16.8509 51.6042 15.1417 52.9069 14.5362 54.3076C14.37 54.6917 13.6998 56.9532 13.0467 59.3332C12.183 62.481 11.7585 63.766 11.4895 64.0476C11.2034 64.347 10.4872 64.586 8.33084 65.1018C6.7972 65.4688 5.2997 65.884 5.0032 66.0248C4.7067 66.1656 4.14225 66.642 3.74874 67.0834C2.65465 68.311 2.48982 69.1237 2.48982 73.2912C2.48982 76.8938 2.5573 77.2996 3.25672 77.9072C3.90598 78.4714 4.11915 78.4241 4.29966 77.6755C4.39239 77.2904 4.7435 76.4171 5.07992 75.7349C6.76206 72.3232 10.5406 70.4729 14.2377 71.2507C17.1195 71.8568 19.775 74.3217 20.5725 77.1306L20.8827 78.2234H37.3221H53.7613L53.8626 77.5848C54.0307 76.5243 55.0443 74.7004 56.0085 73.7234C58.7277 70.9683 62.4066 70.309 65.7727 71.9738C67.8539 73.0034 69.6324 75.1892 70.1957 77.4099L70.4231 78.3066L74.2117 78.3512C77.9287 78.395 78.0111 78.3885 78.5653 78.0126C79.3228 77.4989 79.5226 76.8202 79.5327 74.7283C79.5475 71.619 79.1372 70.1973 77.8499 68.8988C76.9531 67.9942 76.3987 67.7256 73.755 66.9146C68.1113 65.1834 65.4854 63.6816 61.8058 60.0813C60.7169 59.0158 58.5637 57.1073 57.021 55.8401C55.4782 54.5729 53.8819 53.2191 53.4735 52.832C52.5471 51.9532 51.6784 51.5097 50.4269 51.2763C49.2472 51.0563 19.625 51.0543 18.5162 51.2742ZM35.72 54.7172C35.2252 55.0504 35.159 55.6412 35.159 59.7198C35.159 63.561 35.1828 63.9028 35.4743 64.2661L35.7896 64.6591L44.5903 64.7062C54.448 64.7588 54.3815 64.7656 55.25 63.6171C55.6177 63.1307 55.701 62.8478 55.701 62.085C55.701 61.4847 55.6005 60.9946 55.4205 60.7176C55.1492 60.2999 49.2615 55.6031 48.16 54.9256C47.6421 54.607 47.337 54.5912 41.7588 54.593C38.5373 54.594 35.8198 54.6499 35.72 54.7172ZM20.3444 55.1098C19.9348 55.3142 19.5268 55.6777 19.3757 55.9726C18.8992 56.9021 17.5044 61.6355 17.5044 62.3234C17.5044 63.1991 17.9767 64.0752 18.6698 64.4858C19.2946 64.8558 19.0267 64.8458 26.7104 64.7839L31.8741 64.7423L32.279 64.3337L32.6841 63.9253V59.6857V55.4462L32.2493 55.1013C31.8297 54.7683 31.6276 54.7563 26.4332 54.7565C21.2807 54.7566 21.0218 54.7716 20.3444 55.1098ZM37.7989 59.5829V62.0794H45.4039H53.0087L52.1275 61.3644C51.6427 60.9711 50.2325 59.8477 48.9937 58.8679L46.7415 57.0864H42.2702H37.7989V59.5829ZM20.7867 59.6245C20.4085 60.8374 20.0642 61.9234 20.0216 62.0378C19.9611 62.2 20.7007 62.2456 23.3854 62.245C25.2781 62.2445 27.5505 62.1957 28.4354 62.1366L30.0441 62.0291V59.7242V57.4192H25.7592H21.4744L20.7867 59.6245Z" fill="black"/>
<path fill-rule="evenodd" clip-rule="evenodd" d="M16.8552 0.303744C15.7004 0.928369 15.69 0.997772 15.69 8.03292C15.69 14.8635 15.7257 15.1668 16.5952 15.7413C16.8358 15.9004 17.4175 16.0911 17.8876 16.165C19.1381 16.3614 19.4849 16.8264 19.4849 18.3065V19.4522L16.3635 19.5038L13.2423 19.5556L12.5274 20.0559C11.6026 20.7032 10.9052 22.0395 10.9052 23.1637V23.9661H10.0175H9.1298L9.05786 22.9625C8.96018 21.6007 8.74057 21.4087 7.18994 21.3296L5.95528 21.2667V17.1538C5.95528 12.4769 5.86766 11.9972 4.78611 10.7578C3.8958 9.73769 2.69116 9.15351 1.47729 9.15351C0.684482 9.15351 0.486981 9.21409 0.272322 9.52349C-0.135383 10.1105 -0.056185 10.9032 0.450187 11.305C0.689266 11.4947 1.06282 11.65 1.28045 11.65C1.92377 11.65 2.72994 12.0696 3.07544 12.5844C3.37028 13.0238 3.40229 13.4219 3.44932 17.258L3.5008 21.4513L2.85929 21.8794C1.83896 22.5606 1.43125 23.4605 1.42399 25.0479C1.4164 26.6978 1.53322 27.1313 2.18726 27.8828C3.03551 28.8572 3.49403 29.0132 5.7492 29.0936C8.59933 29.1953 9.0902 28.9295 9.0902 27.2839V26.629H9.97969H10.869L10.9302 27.8518C10.9806 28.8556 11.0804 29.2196 11.4871 29.8833C12.1921 31.0337 13.3416 31.622 14.8839 31.622H16.02L16.019 33.328C16.0179 35.3323 15.7286 37.4181 15.016 40.562C14.4265 43.1622 14.4329 44.1029 15.0465 45.0173C15.7631 46.0851 16.4089 46.2682 19.4599 46.2682C22.2324 46.2682 22.9353 46.1349 23.662 45.4716C24.4602 44.743 24.5127 44.4289 24.5998 39.8638L24.6823 35.5397L25.4956 36.7016C26.8279 38.6046 29.7294 41.3852 31.4457 42.4036C33.1365 43.407 35.3051 44.1718 36.0139 44.0148C36.5364 43.899 36.9745 43.3707 36.9745 42.8563C36.9745 42.1792 36.5117 41.8144 35.0615 41.3486C32.6161 40.5632 30.2187 38.7148 28.1065 35.9861C27.0738 34.652 25.4248 32.0546 25.4248 31.7618C25.4248 31.6849 27.7707 31.622 30.6382 31.622H35.8514L36.6018 32.2883C37.6111 33.1845 38.1857 33.3263 40.5379 33.2596C42.3938 33.207 42.5745 33.1719 43.2247 32.7371C44.0748 32.1691 44.8441 30.9909 44.9854 30.0412L45.0903 29.3357L47.1318 29.2563C49.0103 29.1834 49.2276 29.1408 49.8533 28.7231C50.8257 28.074 51.216 27.1109 51.1379 25.5522C51.0884 24.5614 51.0005 24.2489 50.6353 23.766C49.9206 22.8209 49.3348 22.6346 47.0767 22.6346H45.1017L45.0253 21.3448C44.9143 19.4679 44.3226 18.4495 42.9144 17.7104C42.4948 17.4902 41.8556 17.389 40.5769 17.34C38.2625 17.2517 37.4327 17.5135 36.4178 18.652L35.6865 19.4724H31.4631H27.2397V18.4846C27.2397 16.7878 27.6413 16.2973 29.1946 16.0971C29.9623 15.9981 30.6372 15.4963 30.8895 14.8367C30.9719 14.6214 31.0445 11.5209 31.051 7.9467C31.0619 1.80764 31.045 1.42417 30.7481 1.01525C30.027 0.0221387 29.8671 0.000169577 23.3597 3.14328e-06C17.9195 -0.000329724 17.3699 0.025301 16.8552 0.303744ZM18.33 3.82764V4.99268H23.4448H28.5597V3.82764V2.66261H23.4448H18.33V3.82764ZM18.33 10.6301V13.6046L18.9769 13.709C19.7255 13.8298 20.8834 14.6623 21.42 15.4655C21.9211 16.2153 22.1229 17.0203 22.1239 18.2727L22.1249 19.3199L23.4036 19.2713L24.6823 19.2227L24.767 17.8081C24.8318 16.7236 24.9404 16.2484 25.2324 15.7721C25.8021 14.8427 26.8372 14.0297 27.7517 13.7932L28.5597 13.5843V10.62V7.65561H23.4448H18.33V10.6301ZM65.136 16.5348C63.9726 16.8333 62.951 17.1856 62.8658 17.3179C62.3985 18.0437 62.5637 18.9393 63.244 19.368C63.6273 19.6095 67.9069 18.5613 68.3462 18.1183C68.8151 17.6453 68.7514 16.7445 68.2189 16.3223C67.6688 15.8857 67.6662 15.8859 65.136 16.5348ZM57.8465 18.3055C55.5509 18.8879 55.524 18.9004 55.2854 19.481C55.0267 20.1113 55.191 20.7315 55.7075 21.0726C56.0983 21.3311 56.2422 21.3161 58.3736 20.796C60.8283 20.197 61.2304 19.9577 61.2264 19.0979C61.2234 18.4638 61.1108 18.2594 60.6211 17.9995C60.1452 17.7468 59.9739 17.7656 57.8465 18.3055ZM38.5255 20.099C38.0255 20.4357 37.9645 21.0194 37.9645 25.4607V29.9728L38.3695 30.3813C38.7367 30.7518 38.9069 30.7899 40.1919 30.7899C41.4769 30.7899 41.6472 30.7518 42.0143 30.3813L42.4194 29.9728V25.2476C42.4194 19.5767 42.5804 19.9704 40.2614 19.9742C39.4065 19.9757 38.6253 20.0318 38.5255 20.099ZM13.8521 22.2871C13.4695 22.5995 13.4626 22.6573 13.4626 25.5266C13.4626 29.0969 13.4464 29.0654 15.2419 28.9967C17.1389 28.924 23.3808 28.9453 29.5909 29.0455L35.3245 29.138V25.5534V21.9689H24.7831C14.6499 21.9689 14.2265 21.9812 13.8521 22.2871ZM4.17332 24.1658C3.91642 24.4249 3.91642 26.0037 4.17332 26.2629C4.28535 26.3759 4.82225 26.4626 5.41079 26.4626H6.45026V25.2143V23.9661H5.41079C4.82225 23.9661 4.28535 24.0528 4.17332 24.1658ZM16.5838 24.1418C15.6831 24.4113 15.4181 25.5377 16.0951 26.2204L16.5 26.629H24.4091C31.8906 26.629 32.3386 26.6122 32.6993 26.3176C33.2147 25.8966 33.2218 24.9334 32.7132 24.4201L32.3457 24.0493L24.7191 24.0195C20.4932 24.003 16.8656 24.0576 16.5838 24.1418ZM56.774 24.9647C56.3145 25.4282 56.3397 26.3056 56.8258 26.7665C57.1819 27.1039 57.3706 27.1283 59.6126 27.1283C61.7163 27.1283 62.0651 27.0894 62.3985 26.8169C62.878 26.4253 62.9171 25.4672 62.4738 24.973C62.1907 24.6573 61.9786 24.6318 59.6359 24.6318C57.3239 24.6318 57.0753 24.6608 56.774 24.9647ZM64.4394 24.9723C64.0107 25.4502 64.0602 26.4461 64.5318 26.8314C64.844 27.0862 65.239 27.1283 67.3232 27.1283C69.6478 27.1283 69.7664 27.1119 70.11 26.7432C70.5665 26.2529 70.5802 25.4101 70.1387 24.9647C69.8374 24.6608 69.5887 24.6318 67.2768 24.6318C64.9354 24.6318 64.722 24.6575 64.4394 24.9723ZM72.1186 24.9647C71.6599 25.4274 71.6936 26.2154 72.1937 26.7197C72.5166 27.0456 72.7672 27.1283 73.4312 27.1283C74.4591 27.1283 74.9236 26.7399 74.9236 25.8801C74.9236 24.9978 74.4639 24.6318 73.3561 24.6318C72.6685 24.6318 72.3686 24.7125 72.1186 24.9647ZM45.0593 25.8743V26.629H46.7886H48.5179L48.6278 26.1871C48.8336 25.3603 48.5712 25.219 46.733 25.1669L45.0593 25.1195V25.8743ZM55.619 30.9563C55.1818 31.3973 55.183 32.3057 55.6213 32.706C55.9802 33.0336 59.3196 33.9393 60.1977 33.9473C60.9017 33.9536 61.3939 33.4526 61.3939 32.7296C61.3939 31.901 60.9644 31.6324 58.7997 31.1073C56.4681 30.5419 56.0497 30.5219 55.619 30.9563ZM18.3976 34.0778C18.3841 36.4499 18.3229 36.9822 17.7512 39.6941C17.4037 41.3417 17.1135 42.8771 17.106 43.1059L17.0925 43.522L19.6087 43.568L22.1249 43.6139V37.5348V31.4556L20.2687 31.4564L18.4125 31.4573L18.3976 34.0778ZM63.1714 32.7455C62.5508 33.4585 62.7211 34.4499 63.519 34.7675C64.2287 35.0497 67.2775 35.7829 67.7424 35.7829C68.7355 35.7829 69.3643 34.3512 68.6555 33.7041C68.31 33.3887 64.8091 32.4645 63.9356 32.458C63.6519 32.4559 63.3123 32.5837 63.1714 32.7455Z" fill="#EDBC18"/>
</svg>
