<svg width="83" height="75" viewBox="0 0 83 75" fill="none" xmlns="http://www.w3.org/2000/svg">
<path fill-rule="evenodd" clip-rule="evenodd" d="M24.1481 0.184588C21.8764 0.604505 20.1881 1.53648 18.4128 3.35087C17.0573 4.73624 16.9986 4.83228 8.97755 18.8017C2.89597 29.3934 0.800289 33.179 0.476158 34.1586C0.102647 35.2877 0.0459806 35.7258 0.0459806 37.49C0.0459806 40.4205 0.282845 41.0331 3.7513 47.0779C5.31545 49.8039 6.75348 52.1684 6.94663 52.332C7.60817 52.8927 8.84965 52.2883 8.84722 51.4069C8.84673 51.2158 7.58081 48.8575 6.03398 46.1664C4.48732 43.4753 3.05366 40.8426 2.84788 40.3161C2.53428 39.513 2.47405 39.0577 2.47405 37.49C2.47405 35.9257 2.5346 35.4663 2.84562 34.6702C3.24034 33.66 7.62857 25.901 7.84698 25.827C8.09906 25.7417 12.3748 30.2654 12.6367 30.8945C13.1038 32.0167 12.9746 32.8437 11.7403 36.6284C10.7188 39.7605 10.5853 40.3127 10.5885 41.3901C10.5911 42.201 10.6975 42.8808 10.9065 43.4215C11.3041 44.4501 14.5435 49.6915 15.3031 50.5355C15.6936 50.9694 16.4416 51.4444 17.6638 52.0348C19.5154 52.9291 19.9374 53.2627 20.439 54.2282C20.8464 55.0123 20.8355 56.5583 20.4173 57.3361C20.1076 57.9119 15.9776 62.9754 15.8024 62.9941C15.7537 62.9993 14.8627 61.5226 13.8225 59.7128C11.3201 55.3589 11.3383 55.3868 10.8796 55.1772C10.3003 54.9122 9.56494 55.258 9.34183 55.9002C9.14059 56.4799 8.97285 56.1568 14.0804 65.0349C17.7823 71.47 18.626 72.4847 21.4386 73.8853C23.658 74.9905 22.5889 74.9293 40.6622 74.9876C51.5009 75.0227 57.3836 74.9832 58.1094 74.8704C59.777 74.6115 61.2423 74.0678 62.5071 73.2387C64.8551 71.6996 64.9531 71.5516 73.7925 56.1782C81.8696 42.1308 82.6762 40.589 82.6762 39.1974C82.6762 38.9839 82.749 38.764 82.8381 38.7088C82.9271 38.6535 83 38.0233 83 37.3083C83 36.4829 82.9409 36.045 82.8381 36.1087C82.7466 36.1654 82.6762 36.032 82.6762 35.8017C82.6762 34.4963 81.8189 32.7604 77.2503 24.8144C74.7065 20.3902 72.5049 16.679 72.3579 16.5672C71.6253 16.0105 70.4795 16.5593 70.4795 17.4669C70.4795 17.8491 72.3259 21.2226 75.3905 26.4397L75.8762 27.2663L73.3263 28.489C71.9237 29.1615 70.586 29.7504 70.3534 29.7977C69.8419 29.9019 68.9934 29.4914 68.7408 29.0177C68.64 28.8287 68.3816 28.1546 68.1664 27.5197C67.3753 25.1851 66.7485 24.6732 63.5884 23.7809C62.4846 23.4692 61.4529 23.0807 61.2959 22.9173C61.1387 22.7542 60.3133 20.5911 59.4613 18.1104C58.6096 15.6297 57.8052 13.3918 57.6741 13.1374C57.3632 12.5338 56.4245 11.7138 55.6935 11.4073C54.9993 11.1161 53.819 11.1021 50.4206 11.3444C49.0202 11.4444 47.7088 11.4835 47.5064 11.4315C47.304 11.3795 46.1912 10.6544 45.0336 9.82026C42.4673 7.97094 42.4964 8.03025 42.5604 4.75948L42.6051 2.46976L49.8098 2.42442C57.8854 2.37355 58.5976 2.43433 60.3853 3.32747C62.3558 4.31193 63.337 5.46655 65.6637 9.5388C66.7616 11.4604 67.8091 13.1972 67.9915 13.3983C68.7225 14.2042 70.2002 13.5137 69.9911 12.4639C69.9459 12.2376 68.9749 10.411 67.8332 8.40483C65.9274 5.05605 65.6378 4.6363 64.3001 3.28213C63.167 2.13499 62.573 1.67461 61.6287 1.21131C59.0805 -0.0388589 60.4115 0.0423944 41.8765 0.00680541C28.9152 -0.0178956 25.0332 0.0209435 24.1481 0.184588ZM24.6338 2.55377C23.6195 2.75934 22.241 3.32292 21.425 3.86537C19.8852 4.88916 19.2464 5.84047 14.1358 14.7234C11.4058 19.4685 9.172 23.4014 9.172 23.463C9.172 23.5248 10.3374 24.7585 11.7616 26.2048C14.8028 29.293 15.1807 29.9181 15.2919 32.046C15.3554 33.2586 15.3052 33.5154 14.5446 35.8649C12.94 40.8215 12.8762 41.0671 12.9919 41.8417C13.0676 42.3478 13.5664 43.3348 14.6573 45.138C16.9715 48.9626 17.0575 49.0683 18.3427 49.672C20.6014 50.733 20.882 50.9093 21.6455 51.7478C22.9877 53.2221 23.5105 55.2609 23.0293 57.146C22.6747 58.5354 22.4495 58.8724 19.5792 62.3087C18.2185 63.9375 17.1053 65.3012 17.1053 65.3394C17.1053 65.3776 17.5494 66.1857 18.0922 67.1353C19.6742 69.9026 21.0216 71.1619 23.3905 72.0877L24.4719 72.5102L40.7432 72.5578C52.0931 72.5911 57.3328 72.5511 58.0669 72.4258C59.7073 72.1457 61.3679 71.261 62.6073 70.0069C63.5735 69.0293 64.3657 67.7187 71.612 55.1075C75.9818 47.5023 79.726 40.8477 79.9324 40.3194C80.2475 39.5127 80.3075 39.0593 80.3075 37.49C80.3077 35.8883 80.2512 35.4801 79.9133 34.6341C79.4352 33.4367 77.3229 29.677 77.0742 29.5803C76.9761 29.5421 75.5918 30.1175 73.998 30.8587C71.277 32.1243 71.0358 32.2059 70.0477 32.1953C68.0553 32.1742 66.805 31.0986 66.0432 28.7508C65.7987 27.9975 65.4359 27.2174 65.2369 27.0177C64.9994 26.7795 64.2185 26.4751 62.9643 26.1322C61.9134 25.8449 60.7674 25.4487 60.4177 25.2517C59.2411 24.5894 58.8908 23.9025 57.178 18.9C55.9377 15.2776 55.489 14.1572 55.1816 13.9146C54.7065 13.5396 54.1987 13.5259 50.3452 13.7861C48.1882 13.9315 47.4045 13.9297 46.8643 13.7778C46.4783 13.6692 45.2059 12.9064 44.0144 12.0692C40.2544 9.42732 40.3638 9.61697 40.2575 5.55739L40.1765 2.46976L32.729 2.44619C28.6328 2.43319 24.99 2.48162 24.6338 2.55377ZM39.8116 18.3366C35.2815 18.6629 31.2088 20.562 27.8557 23.9116C24.1353 27.6279 22.2744 32.1554 22.2744 37.49C22.2744 41.5876 23.3042 44.9934 25.557 48.3451C28.2242 52.3134 32.76 55.3605 37.4242 56.3175C38.9967 56.6403 39.4922 56.6851 41.4434 56.681C46.72 56.6702 51.2329 54.7929 54.9188 51.0755C58.6627 47.2997 60.5072 42.8156 60.5072 37.49C60.5072 32.1562 58.656 27.652 54.9241 23.9062C50.8523 19.8191 45.6822 17.9138 39.8116 18.3366ZM39.7494 20.7597C34.8641 21.1959 30.1045 24.0856 27.4048 28.2544C21.1619 37.8941 26.0174 50.6992 37.0696 53.7424C39.5886 54.4362 43.1929 54.4362 45.712 53.7424C51.5012 52.1484 55.9948 47.638 57.5829 41.8273C58.5212 38.395 58.211 34.1963 56.7677 30.7921C54.5513 25.5641 48.9747 21.3378 43.6328 20.8379C41.5844 20.6461 41.1246 20.6369 39.7494 20.7597ZM38.8125 24.1786C37.2495 24.4863 34.6548 25.586 34.0435 26.1996C33.623 26.6217 33.708 27.4956 34.2079 27.8902C34.7748 28.3377 34.8941 28.3234 36.2324 27.6469C39.4789 26.0059 43.4305 26.0222 46.6203 27.6898C48.1954 28.5131 50.3088 30.6335 51.1478 32.2322C52.832 35.4414 52.832 39.5385 51.1478 42.7477C50.3186 44.3274 48.2029 46.4511 46.629 47.2833C45.0257 48.1311 43.3199 48.5404 41.3908 48.5404C39.4617 48.5404 37.7559 48.1311 36.1526 47.2833C34.5598 46.4412 32.4472 44.32 31.627 42.7389C29.9656 39.5372 29.9494 35.5709 31.5843 32.3123C32.2583 30.9691 32.2726 30.8493 31.8267 30.2804C31.4336 29.7785 30.5629 29.6932 30.1424 30.1152C29.7313 30.5279 28.8292 32.4284 28.4129 33.7593C28.0836 34.812 28.0338 35.302 28.0338 37.49C28.0338 40.4159 28.2685 41.4174 29.5382 43.909C30.1553 45.1201 30.563 45.6509 31.9109 46.9974C33.2357 48.3209 33.8095 48.7639 34.9956 49.3793C37.2278 50.5375 38.3643 50.8401 40.8241 50.9309C43.1857 51.0182 44.4955 50.8145 46.3426 50.0727C48.2341 49.3131 49.3406 48.5578 50.9431 46.9319C52.1686 45.6886 52.6347 45.0743 53.2363 43.909C54.5079 41.4464 54.7478 40.4273 54.7478 37.49C54.7478 34.5621 54.5121 33.558 53.2415 31.0709C52.6379 29.8899 52.1969 29.3081 50.9496 28.048C48.8796 25.9567 46.8244 24.8019 44.1663 24.2364C42.993 23.9868 39.9533 23.954 38.8125 24.1786ZM0 37.49C0 38.2497 0.0280093 38.5604 0.062009 38.1806C0.0961707 37.8008 0.0961707 37.1793 0.062009 36.7993C0.0280093 36.4194 0 36.7302 0 37.49Z" fill="black"/>
<path fill-rule="evenodd" clip-rule="evenodd" d="M39.8107 18.3365C35.2806 18.6628 31.2079 20.5619 27.8547 23.9115C24.1344 27.6278 22.2734 32.1553 22.2734 37.4899C22.2734 41.5875 23.3033 44.9933 25.556 48.345C28.2232 52.3133 32.7591 55.3604 37.4232 56.3174C38.9958 56.6402 39.4912 56.685 41.4425 56.681C46.7191 56.6701 51.232 54.7928 54.9179 51.0755C58.6617 47.2996 60.5063 42.8156 60.5063 37.4899C60.5063 32.1561 58.6551 27.6519 54.9232 23.9061C50.8514 19.8191 45.6813 17.9137 39.8107 18.3365ZM39.7485 20.7597C34.8632 21.1958 30.1036 24.0855 27.4038 28.2543C21.161 37.894 26.0165 50.6991 37.0687 53.7423C39.5877 54.4361 43.192 54.4361 45.7111 53.7423C51.5003 52.1483 55.9939 47.6379 57.582 41.8272C58.5202 38.3949 58.21 34.1962 56.7668 30.792C54.5504 25.564 48.9738 21.3377 43.6319 20.8378C41.5835 20.6461 41.1237 20.6368 39.7485 20.7597ZM38.8116 24.1785C37.2485 24.4863 34.6539 25.5859 34.0425 26.1996C33.6221 26.6216 33.7071 27.4956 34.207 27.8901C34.7738 28.3377 34.8932 28.3234 36.2315 27.6469C39.478 26.0059 43.4295 26.0221 46.6194 27.6898C48.1945 28.513 50.3078 30.6334 51.1468 32.2321C52.8311 35.4413 52.8311 39.5384 51.1468 42.7476C50.3177 44.3274 48.202 46.451 46.6281 47.2832C45.0248 48.131 43.319 48.5403 41.3899 48.5403C39.4608 48.5403 37.755 48.131 36.1516 47.2832C34.5588 46.4411 32.4463 44.3199 31.6261 42.7389C29.9647 39.5371 29.9485 35.5708 31.5834 32.3123C32.2574 30.969 32.2716 30.8492 31.8257 30.2803C31.4326 29.7785 30.5619 29.6931 30.1415 30.1152C29.7304 30.5278 28.8283 32.4283 28.412 33.7592C28.0827 34.8119 28.0328 35.3019 28.0328 37.4899C28.0328 40.4158 28.2676 41.4173 29.5372 43.9089C30.1544 45.1201 30.5621 45.6508 31.9099 46.9973C33.2348 48.3208 33.8086 48.7638 34.9947 49.3792C37.2268 50.5374 38.3634 50.84 40.8232 50.9308C43.1847 51.0181 44.4945 50.8145 46.3417 50.0726C48.2332 49.3131 49.3397 48.5577 50.9422 46.9319C52.1676 45.6885 52.6337 45.0742 53.2354 43.9089C54.507 41.4463 54.7469 40.4272 54.7469 37.4899C54.7469 34.562 54.5112 33.5579 53.2406 31.0709C52.637 29.8898 52.196 29.308 50.9487 28.0479C48.8787 25.9566 46.8235 24.8018 44.1654 24.2363C42.9921 23.9867 39.9523 23.9539 38.8116 24.1785Z" fill="#EDBC18"/>
</svg>
