<svg width="79" height="79" viewBox="0 0 79 79" fill="none" xmlns="http://www.w3.org/2000/svg">
<path fill-rule="evenodd" clip-rule="evenodd" d="M36.5411 0.0459496C32.0668 0.505589 28.8797 1.22804 25.3677 2.57843C16.1511 6.12246 8.53535 13.0354 4.0794 21.9019C2.08575 25.8688 0.884932 29.8027 0.199206 34.6139C-0.0664018 36.4776 -0.0664018 42.4721 0.199206 44.3358C1.50378 53.4878 5.23856 61.0637 11.5554 67.3708C17.6686 73.4748 25.3207 77.3119 33.9872 78.6196C36.6371 79.0193 42.3392 79.0241 44.9212 78.6287C51.6996 77.5906 58.2794 74.8862 63.1617 71.1318L63.7563 70.6747V74.8373V79H65.0333H66.3102V70.075V61.1499H67.5872H68.8641V70.075V79H70.1411H71.4181V70.075V61.1499H72.3032C73.0302 61.1499 73.2585 61.08 73.5801 60.7587C73.959 60.3805 73.972 60.2933 73.972 58.129C73.972 56.3433 74.016 55.8905 74.19 55.8905C74.3099 55.8905 74.912 55.6387 75.5279 55.3311C76.8889 54.6512 77.811 53.6948 78.4948 52.2536L79 51.189L78.9992 43.5389C78.9984 34.9293 78.9267 34.0985 77.8014 29.6732C76.055 22.8056 72.5566 16.7005 67.4317 11.5774C61.2792 5.42695 53.8461 1.69373 45.0808 0.351951C43.4764 0.106353 37.8989 -0.0935041 36.5411 0.0459496ZM36.5411 2.59787C28.4792 3.44049 21.6856 6.22956 15.8102 11.1085L14.2336 12.4176L17.8718 16.0528L21.51 19.688L22.4014 18.928C26.9213 15.0727 33.4025 12.7071 39.4604 12.701C42.4084 12.6981 46.2334 13.4 48.9318 14.4392C51.655 15.4879 54.6069 17.216 56.5868 18.9206L57.4781 19.688L61.1164 16.0528L64.7546 12.4176L63.1812 11.1167C57.7752 6.64633 51.8281 3.97057 44.9212 2.90116C43.313 2.65222 37.8969 2.45603 36.5411 2.59787ZM11.0843 15.8272C9.77129 17.4036 7.90789 20.111 6.96262 21.816C5.02866 25.3048 3.49871 29.8981 2.83309 34.2155C2.44107 36.7586 2.44107 42.1911 2.83309 44.7342C3.89903 51.6476 6.67019 57.8233 11.0843 63.1225L12.3954 64.6967L16.0362 61.064L19.677 57.4314L18.9084 56.5414C15.0772 52.1052 12.6805 45.5375 12.6805 39.4748C12.6805 33.4122 15.0772 26.8445 18.9084 22.4083L19.677 21.5183L16.0362 17.8857L12.3954 14.253L11.0843 15.8272ZM62.9213 17.9261L59.3091 21.5451L60.0238 22.342C63.1954 25.8791 65.6504 31.7306 66.1163 36.8636L66.2304 38.1202L71.3881 38.1622L76.5457 38.2043L76.4454 37.0466C75.7511 29.0283 73.0791 22.2409 68.2683 16.2764C67.5573 15.3948 66.8761 14.591 66.7544 14.4903C66.5766 14.3429 65.8272 15.0147 62.9213 17.9261ZM36.1098 15.4826C34.2367 15.7508 32.6055 16.1858 30.6587 16.9363C25.0965 19.0803 20.2232 23.6029 17.6321 29.0255C16.5334 31.325 15.4846 34.6716 15.9246 34.4743C24.7848 30.499 31.6237 29.0961 41.0105 29.3282C49.3396 29.5343 54.9937 30.8536 63.0636 34.4743C63.1996 34.5352 63.211 34.3901 63.1071 33.9279C62.5317 31.3709 61.193 28.3256 59.5859 25.9177C58.2309 23.8876 55.0767 20.7356 53.072 19.4087C50.2842 17.5632 46.9376 16.1952 43.8452 15.637C41.8948 15.285 38.0293 15.2078 36.1098 15.4826ZM37.2594 32.0714C34.4675 32.6668 31.7319 34.8016 30.428 37.403C28.9036 40.444 28.9036 43.6057 30.428 46.6467C32.1126 50.0075 35.7113 52.2193 39.4941 52.2193C44.2236 52.2193 48.5089 48.7644 49.4705 44.1764C50.9925 36.9134 44.5416 30.5186 37.2594 32.0714ZM28.6399 32.8694C24.5704 33.727 20.2441 35.2112 16.8442 36.9161L15.1845 37.7483L15.2882 40.0859C15.3452 41.3714 15.4344 42.6112 15.4862 42.841L15.5805 43.2587L18.5587 43.3416C21.9433 43.4358 23.6193 43.7711 25.8509 44.8007C26.5349 45.1163 27.1177 45.351 27.1461 45.3227C27.1746 45.2943 27.1256 45.0246 27.0374 44.7237C26.7508 43.7475 26.6707 41.3746 26.8816 40.1123C27.3065 37.5703 28.4162 35.2959 30.1177 33.4798C31.2207 32.3023 31.2579 32.3178 28.6399 32.8694ZM48.8515 33.4594C50.5725 35.2963 51.6801 37.5599 52.1066 40.1123C52.3175 41.3746 52.2373 43.7475 51.9508 44.7237C51.8626 45.0246 51.8179 45.2984 51.8515 45.3321C51.8852 45.3657 52.261 45.2176 52.6868 45.0031C53.1125 44.7887 54.0533 44.4176 54.7777 44.1785L56.0946 43.7439V41.3631C56.0946 38.0048 55.8341 38.1998 60.3173 38.1998C62.2088 38.1998 63.7552 38.146 63.7539 38.0803C63.7478 37.7831 63.4126 37.5501 61.9207 36.8053C58.1484 34.9223 52.7285 33.1852 48.595 32.5344L47.8792 32.4217L48.8515 33.4594ZM58.6485 45.4728C58.6485 48.7151 58.7093 50.4013 58.8426 50.8517C59.1016 51.7272 60.4239 53.0474 61.3007 53.3061C62.2227 53.578 72.9517 53.578 73.8736 53.3061C74.7504 53.0474 76.0727 51.7272 76.3318 50.8517C76.4651 50.4013 76.5259 48.7151 76.5259 45.4728V40.7499H75.2489H73.972V43.2999V45.8499H72.695H71.4181V43.2999V40.7499H70.1411H68.8641V44.5749V48.3999H67.5872H66.3102V44.5749V40.7499H65.0333H63.7563V43.2999V45.8499H62.4793H61.2024V43.2999V40.7499H59.9254H58.6485V45.4728ZM16.1896 46.0016C16.1896 46.4351 17.0771 48.7379 17.8147 50.2187C20.1758 54.958 24.3522 59.0769 29.0615 61.3109C30.4301 61.9602 32.6764 62.7674 33.7066 62.9802L34.2239 63.0871L34.1419 62.3975C34.0967 62.018 33.9562 60.7738 33.83 59.6322C33.5722 57.3042 33.1795 55.858 32.3596 54.2171C30.4663 50.4281 26.8176 47.4953 22.4946 46.288C21.1121 45.902 16.1896 45.6784 16.1896 46.0016ZM54.4398 46.9759C52.9815 47.5922 50.8686 49.013 49.5165 50.2866C47.5761 52.1141 46.0479 54.8202 45.4771 57.4392C45.2452 58.5038 44.7437 62.9322 44.8434 63.0358C44.8715 63.0651 45.4498 62.937 46.1284 62.7512C48.6114 62.071 51.3537 60.7477 53.7003 59.0972C54.7697 58.3449 57.9243 55.3915 58.1924 54.8916C58.3102 54.6719 58.2054 54.444 57.7158 53.8556C56.4436 52.3272 56.099 51.1748 56.0965 48.4397C56.0942 46.1716 56.1745 46.2426 54.4398 46.9759ZM35.1844 54.1245C35.1844 54.1815 35.3311 54.6447 35.5101 55.1537C35.9796 56.4874 36.2537 58.0137 36.5429 60.9059C36.6829 62.3057 36.8355 63.4891 36.8819 63.5356C36.9925 63.6461 41.9952 63.6461 42.106 63.5356C42.1527 63.4891 42.3053 62.3057 42.4453 60.9059C42.7345 58.0137 43.0086 56.4874 43.478 55.1537C43.6571 54.6447 43.8038 54.1815 43.8038 54.1245C43.8038 54.0674 43.3189 54.165 42.7264 54.3412C41.8788 54.5934 41.1893 54.6617 39.4941 54.6617C37.7989 54.6617 37.1094 54.5934 36.2618 54.3412C35.6691 54.165 35.1844 54.0674 35.1844 54.1245ZM59.6956 57.0296C54.876 62.6911 47.0513 66.2562 39.4604 66.2487C33.4105 66.2426 26.8329 63.8445 22.4014 60.029L21.51 59.2616L17.8718 62.8968L14.2336 66.532L15.7906 67.8195C21.1817 72.2775 27.2872 75.0131 34.2266 76.0798C36.7777 76.4718 42.2228 76.4715 44.7392 76.0791C47.1017 75.7106 50.3412 74.8872 52.3435 74.1459C55.7946 72.8683 59.6595 70.6938 62.5129 68.4241L63.7434 67.4453L63.7499 64.2976L63.7563 61.1499H62.8712C62.1441 61.1499 61.9159 61.08 61.5943 60.7587C61.2156 60.3808 61.2024 60.2922 61.2024 58.146C61.2024 56.4386 61.1531 55.9057 60.989 55.8429C60.8611 55.7938 60.3425 56.2697 59.6956 57.0296ZM63.7563 57.3249V58.5999H67.5872H71.4181V57.3249V56.0499H67.5872H63.7563V57.3249Z" fill="black"/>
<mask id="mask0_486_179" style="mask-type:alpha" maskUnits="userSpaceOnUse" x="0" y="0" width="79" height="79">
<path fill-rule="evenodd" clip-rule="evenodd" d="M36.5411 0.0459496C32.0668 0.505589 28.8797 1.22804 25.3677 2.57843C16.1511 6.12246 8.53535 13.0354 4.0794 21.9019C2.08575 25.8688 0.884932 29.8027 0.199206 34.6139C-0.0664018 36.4776 -0.0664018 42.4721 0.199206 44.3358C1.50378 53.4878 5.23856 61.0637 11.5554 67.3708C17.6686 73.4748 25.3207 77.3119 33.9872 78.6196C36.6371 79.0193 42.3392 79.0241 44.9212 78.6287C51.6996 77.5906 58.2794 74.8862 63.1617 71.1318L63.7563 70.6747V74.8373V79H65.0333H66.3102V70.075V61.1499H67.5872H68.8641V70.075V79H70.1411H71.4181V70.075V61.1499H72.3032C73.0302 61.1499 73.2585 61.08 73.5801 60.7587C73.959 60.3805 73.972 60.2933 73.972 58.129C73.972 56.3433 74.016 55.8905 74.19 55.8905C74.3099 55.8905 74.912 55.6387 75.5279 55.3311C76.8889 54.6512 77.811 53.6948 78.4948 52.2536L79 51.189L78.9992 43.5389C78.9984 34.9293 78.9267 34.0985 77.8014 29.6732C76.055 22.8056 72.5566 16.7005 67.4317 11.5774C61.2792 5.42695 53.8462 1.69373 45.0808 0.351951C43.4764 0.106353 37.8989 -0.0935041 36.5411 0.0459496ZM36.5411 2.59787C28.4792 3.44049 21.6856 6.22956 15.8102 11.1085L14.2336 12.4176L17.8718 16.0528L21.51 19.688L22.4014 18.928C26.9213 15.0727 33.4025 12.7071 39.4604 12.701C42.4084 12.6981 46.2334 13.4 48.9318 14.4392C51.6551 15.4879 54.6069 17.216 56.5868 18.9206L57.4781 19.688L61.1164 16.0528L64.7546 12.4176L63.1812 11.1167C57.7752 6.64633 51.8281 3.97057 44.9212 2.90116C43.313 2.65222 37.8969 2.45603 36.5411 2.59787ZM11.0843 15.8272C9.77129 17.4036 7.90789 20.111 6.96262 21.816C5.02866 25.3048 3.49871 29.8981 2.83309 34.2155C2.44107 36.7586 2.44107 42.1911 2.83309 44.7342C3.89903 51.6476 6.67019 57.8233 11.0843 63.1225L12.3954 64.6967L16.0362 61.064L19.677 57.4314L18.9084 56.5414C15.0772 52.1052 12.6805 45.5375 12.6805 39.4748C12.6805 33.4122 15.0772 26.8445 18.9084 22.4083L19.677 21.5183L16.0362 17.8857L12.3954 14.253L11.0843 15.8272ZM62.9213 17.9261L59.3091 21.5451L60.0238 22.342C63.1954 25.8791 65.6504 31.7306 66.1163 36.8636L66.2304 38.1202L71.3881 38.1622L76.5457 38.2043L76.4454 37.0466C75.7511 29.0283 73.0791 22.2409 68.2683 16.2764C67.5573 15.3948 66.8761 14.591 66.7544 14.4903C66.5766 14.3429 65.8272 15.0147 62.9213 17.9261ZM36.1098 15.4826C34.2367 15.7508 32.6055 16.1858 30.6587 16.9363C25.0965 19.0803 20.2232 23.6029 17.6321 29.0255C16.5334 31.325 15.4846 34.6716 15.9246 34.4743C24.7848 30.499 31.6237 29.0961 41.0105 29.3282C49.3396 29.5343 54.9937 30.8536 63.0636 34.4743C63.1996 34.5352 63.211 34.3901 63.1071 33.9279C62.5317 31.3709 61.193 28.3256 59.5859 25.9177C58.2309 23.8876 55.0767 20.7356 53.072 19.4087C50.2842 17.5632 46.9376 16.1952 43.8452 15.637C41.8948 15.285 38.0293 15.2078 36.1098 15.4826ZM37.2594 32.0714C34.4675 32.6668 31.7319 34.8016 30.428 37.403C28.9036 40.444 28.9036 43.6057 30.428 46.6467C32.1126 50.0075 35.7113 52.2193 39.4941 52.2193C44.2236 52.2193 48.5089 48.7644 49.4705 44.1764C50.9925 36.9134 44.5416 30.5186 37.2594 32.0714ZM28.6399 32.8694C24.5704 33.727 20.2441 35.2112 16.8442 36.9161L15.1845 37.7483L15.2882 40.0859C15.3452 41.3714 15.4344 42.6112 15.4862 42.841L15.5805 43.2587L18.5587 43.3416C21.9433 43.4358 23.6193 43.7711 25.8509 44.8007C26.5349 45.1163 27.1177 45.351 27.1461 45.3227C27.1746 45.2943 27.1256 45.0246 27.0374 44.7237C26.7508 43.7475 26.6707 41.3746 26.8816 40.1123C27.3065 37.5703 28.4162 35.2959 30.1177 33.4798C31.2207 32.3023 31.2579 32.3178 28.6399 32.8694ZM48.8515 33.4594C50.5725 35.2963 51.6801 37.5599 52.1066 40.1123C52.3175 41.3746 52.2373 43.7475 51.9508 44.7237C51.8626 45.0246 51.8179 45.2984 51.8515 45.3321C51.8852 45.3657 52.261 45.2176 52.6868 45.0031C53.1125 44.7887 54.0533 44.4176 54.7777 44.1785L56.0946 43.7439V41.3631C56.0946 38.0048 55.8341 38.1998 60.3173 38.1998C62.2088 38.1998 63.7552 38.146 63.7539 38.0803C63.7478 37.7831 63.4126 37.5501 61.9207 36.8053C58.1484 34.9223 52.7285 33.1852 48.595 32.5344L47.8792 32.4217L48.8515 33.4594ZM58.6485 45.4728C58.6485 48.7151 58.7093 50.4013 58.8426 50.8517C59.1016 51.7272 60.4239 53.0474 61.3007 53.3061C62.2227 53.578 72.9517 53.578 73.8736 53.3061C74.7504 53.0474 76.0727 51.7272 76.3318 50.8517C76.4651 50.4013 76.5259 48.7151 76.5259 45.4728V40.7499H75.2489H73.972V43.2999V45.8499H72.695H71.4181V43.2999V40.7499H70.1411H68.8641V44.5749V48.3999H67.5872H66.3102V44.5749V40.7499H65.0333H63.7563V43.2999V45.8499H62.4793H61.2024V43.2999V40.7499H59.9254H58.6485V45.4728ZM16.1896 46.0016C16.1896 46.4351 17.0771 48.7379 17.8147 50.2187C20.1758 54.958 24.3522 59.0769 29.0615 61.3109C30.4301 61.9602 32.6764 62.7674 33.7066 62.9802L34.2239 63.0871L34.1419 62.3975C34.0967 62.018 33.9562 60.7738 33.83 59.6322C33.5722 57.3042 33.1795 55.858 32.3596 54.2171C30.4663 50.4281 26.8176 47.4953 22.4946 46.288C21.1121 45.902 16.1896 45.6784 16.1896 46.0016ZM54.4398 46.9759C52.9815 47.5922 50.8686 49.013 49.5165 50.2866C47.5761 52.1141 46.0479 54.8202 45.4771 57.4392C45.2452 58.5038 44.7437 62.9322 44.8434 63.0358C44.8715 63.0651 45.4498 62.937 46.1284 62.7512C48.6114 62.071 51.3537 60.7477 53.7003 59.0972C54.7697 58.3449 57.9243 55.3915 58.1924 54.8916C58.3102 54.6719 58.2054 54.444 57.7158 53.8556C56.4436 52.3272 56.099 51.1748 56.0965 48.4397C56.0942 46.1716 56.1745 46.2426 54.4398 46.9759ZM35.1844 54.1245C35.1844 54.1815 35.331 54.6447 35.5101 55.1537C35.9796 56.4874 36.2536 58.0137 36.5429 60.9059C36.6829 62.3057 36.8355 63.4891 36.8819 63.5356C36.9925 63.6461 41.9952 63.6461 42.106 63.5356C42.1527 63.4891 42.3053 62.3057 42.4453 60.9059C42.7345 58.0137 43.0086 56.4874 43.478 55.1537C43.6571 54.6447 43.8038 54.1815 43.8038 54.1245C43.8038 54.0674 43.3189 54.165 42.7264 54.3412C41.8788 54.5934 41.1893 54.6617 39.4941 54.6617C37.7989 54.6617 37.1094 54.5934 36.2618 54.3412C35.6691 54.165 35.1844 54.0674 35.1844 54.1245ZM59.6956 57.0296C54.876 62.6911 47.0513 66.2562 39.4604 66.2487C33.4105 66.2426 26.8329 63.8445 22.4014 60.029L21.51 59.2616L17.8718 62.8968L14.2336 66.532L15.7906 67.8195C21.1817 72.2775 27.2872 75.0131 34.2266 76.0798C36.7777 76.4718 42.2228 76.4715 44.7392 76.0791C47.1017 75.7106 50.3412 74.8872 52.3435 74.1459C55.7946 72.8683 59.6595 70.6938 62.5129 68.4241L63.7434 67.4453L63.7499 64.2976L63.7563 61.1499H62.8712C62.1441 61.1499 61.9159 61.08 61.5943 60.7587C61.2156 60.3808 61.2024 60.2922 61.2024 58.146C61.2024 56.4386 61.1531 55.9057 60.989 55.8429C60.8611 55.7938 60.3425 56.2697 59.6956 57.0296ZM63.7563 57.3249V58.5999H67.5872H71.4181V57.3249V56.0499H67.5872H63.7563V57.3249Z" fill="black"/>
</mask>
<g mask="url(#mask0_486_179)">
<path d="M81 38.5H55.5V51.5L58.5 55L61 56V61.5H63.5V79L60 82.5L73.5 83.5L74.5 69L82 61.5L81 38.5Z" fill="#EDBC18"/>
</g>
</svg>
