<svg width="81" height="61" viewBox="0 0 81 61" fill="none" xmlns="http://www.w3.org/2000/svg">
<path fill-rule="evenodd" clip-rule="evenodd" d="M26.1174 0.243987C25.4952 0.636594 25.4448 0.775469 24.3885 5.01046L23.504 8.55728L23.79 9.14524C24.2605 10.1123 24.4152 10.1417 28.7899 10.0954L32.7136 10.0537L33.1745 9.53419C33.6902 8.95275 33.7691 8.30992 33.4101 7.61108C33.0857 6.97954 32.5371 6.79342 30.9812 6.7869L29.6061 6.78117L30.0754 6.39509C30.7727 5.82129 33.2228 4.6492 34.6623 4.20044C36.6089 3.59387 38.1026 3.38182 40.4294 3.38182C42.7562 3.38182 44.25 3.59387 46.1966 4.20044C47.636 4.6492 50.0862 5.82129 50.7835 6.39509L51.2527 6.78117L49.8776 6.7869C48.3217 6.79342 47.7732 6.97954 47.4488 7.61108C47.0898 8.30992 47.1686 8.95275 47.6844 9.53419L48.1453 10.0537L52.069 10.0954C56.4436 10.1417 56.5983 10.1123 57.0689 9.14524L57.3549 8.55728L56.4737 5.01046C55.9889 3.05952 55.4896 1.23409 55.3642 0.953637C54.875 -0.138438 53.4599 -0.321856 52.6842 0.60621C52.2417 1.13578 52.1767 1.71976 52.4501 2.7113C52.5428 3.04759 52.5836 3.35827 52.5405 3.40154C52.4975 3.44497 51.9754 3.1941 51.3804 2.84429C44.9722 -0.92381 36.1195 -0.934627 29.5428 2.81756C28.9093 3.17899 28.3569 3.44052 28.3155 3.39868C28.274 3.35684 28.316 3.04759 28.4088 2.7113C28.6914 1.6862 28.6208 1.11733 28.1446 0.58553C27.5802 -0.04474 26.787 -0.178367 26.1174 0.243987ZM34.0236 18.5715C26.4749 19.6693 22.9995 20.2378 22.3559 20.4802C20.6534 21.1215 20.0661 21.7691 16.9484 26.4416L14.0871 30.73L9.20617 31.9554C6.52183 32.6292 3.95505 33.295 3.50252 33.4348C2.24449 33.8234 1.20956 34.7383 0.586076 36.0125L0.059289 37.0893L0.0114137 42.1778C-0.0429399 47.9584 0.0663992 48.8624 1.01553 50.4798C1.67725 51.6077 2.90037 52.7976 3.94588 53.3311C5.32953 54.0369 6.31184 54.1981 9.23176 54.1981H11.9385L12.137 54.8742C13.311 58.8742 17.3951 61.5353 21.3986 60.9087C24.61 60.406 27.3571 57.9942 28.273 54.8731L28.4718 54.196L39.5944 54.2368L50.7169 54.2776L51.0747 55.3479C52.3148 59.0583 56.2199 61.4702 60.0827 60.9117C63.2603 60.4521 65.7899 58.3529 66.9051 55.2499L67.2546 54.2776L71.6043 54.1981L75.954 54.1186L76.6388 53.6388C77.2445 53.2144 77.5094 52.7925 78.9372 49.98C79.8247 48.2315 80.6066 46.5504 80.6751 46.2442C80.7932 45.7143 80.8037 45.7335 80.8914 46.6419C80.9419 47.1668 80.9904 45.2698 80.999 42.4263C81.008 39.4178 80.9576 37.3892 80.8786 37.5744C80.7539 37.8663 80.7417 37.8597 80.7302 37.4948C80.6913 36.2728 79.0854 34.297 77.7141 33.784C77.3254 33.6388 73.1781 32.8793 68.4978 32.0966C63.8176 31.3138 59.97 30.6513 59.9477 30.6242C59.9254 30.597 58.5378 28.4989 56.8641 25.9616C55.1905 23.4243 53.6395 21.1523 53.4177 20.9128C53.1959 20.6734 52.7866 20.4343 52.5082 20.3818C51.4799 20.1875 50.4012 21.2381 50.6003 22.2403C50.6496 22.4878 51.8348 24.4174 53.2344 26.5282C54.6339 28.6391 55.7497 30.3955 55.714 30.4314C55.6784 30.4674 47.2475 30.4785 36.9786 30.4562L18.3079 30.4158L20.1443 27.6319C22.2501 24.4402 22.7016 23.9093 23.5915 23.5807C23.9448 23.4502 29.0334 22.6607 34.8993 21.8264C40.7652 20.9918 45.7306 20.2715 45.9337 20.2257C47.0936 19.9635 47.4869 18.3279 46.6038 17.4387C46.2271 17.0594 46.0158 16.9768 45.4582 16.9907C45.0822 17.0001 39.9366 17.7115 34.0236 18.5715ZM9.81891 35.2524C6.7571 36.0243 4.13944 36.7499 4.00182 36.8649C3.34215 37.4161 3.29838 37.7694 3.29838 42.5486C3.29838 47.7751 3.38955 48.3609 4.37376 49.4603C4.69482 49.8187 5.31294 50.279 5.74745 50.4831C6.47822 50.8264 6.74114 50.8544 9.25183 50.8558L11.9662 50.8574L12.2079 50.0223C13.1997 46.597 16.4952 44.1731 20.1537 44.178C20.9205 44.179 21.9034 44.2754 22.3379 44.392C25.0545 45.1212 27.4483 47.4196 28.2018 50.0223L28.4435 50.8574H39.5765C50.0421 50.8574 50.7147 50.8407 50.7936 50.5791C51.5709 48.0017 53.1022 46.0666 55.2028 45.0072C57.4922 43.8526 60.7139 43.8898 62.9229 45.0961C64.7011 46.0671 66.4167 48.1346 66.9443 49.9423L67.2112 50.857L71.0053 50.8573L74.7997 50.8574L76.18 48.0724L77.5605 45.2873L77.5598 41.6695C77.5594 38.3831 77.5316 38.0058 77.2562 37.551C77.0784 37.2576 76.7354 36.9805 76.4271 36.8816C76.138 36.7888 72.0196 36.0655 67.2752 35.2744L58.6489 33.836L37.0173 33.8425L15.3857 33.8491L9.81891 35.2524ZM0.0509148 42.5853C0.0509148 45.4289 0.0722454 46.5922 0.0984741 45.1704C0.124703 43.7487 0.124703 41.4222 0.0984741 40.0003C0.0722454 38.5786 0.0509148 39.7418 0.0509148 42.5853ZM58.183 47.5324C56.5859 47.7379 55.0993 48.8844 54.3123 50.5176C53.8201 51.5389 53.808 53.48 54.2869 54.5442C55.0294 56.1937 56.6946 57.4298 58.4473 57.6324C60.7731 57.9013 63.2279 56.2305 63.8335 53.9665C64.0964 52.9834 63.9457 51.2185 63.5245 50.3495C62.545 48.3287 60.4754 47.2373 58.183 47.5324ZM18.3232 47.8069C17.3854 48.1658 16.1734 49.291 15.655 50.2835C15.2852 50.9915 15.2309 51.2801 15.2323 52.5278C15.2344 54.2091 15.5595 55.0492 16.6265 56.1295C18.6033 58.1308 21.8739 58.1267 23.8077 56.1206C24.6953 55.1995 25.1351 54.1804 25.2207 52.8459C25.3555 50.7453 24.257 48.8874 22.3379 47.9702C21.5457 47.5916 21.1951 47.519 20.2049 47.5286C19.5055 47.5354 18.7343 47.6495 18.3232 47.8069Z" fill="black"/>
<path fill-rule="evenodd" clip-rule="evenodd" d="M26.1173 0.243987C25.4951 0.636594 25.4447 0.775469 24.3884 5.01046L23.5039 8.55728L23.7899 9.14524C24.2604 10.1123 24.4151 10.1417 28.7898 10.0954L32.7135 10.0537L33.1744 9.53419C33.6901 8.95275 33.769 8.30992 33.41 7.61108C33.0856 6.97954 32.537 6.79342 30.9812 6.7869L29.606 6.78117L30.0753 6.39508C30.7726 5.82129 33.2228 4.6492 34.6622 4.20043C36.6088 3.59387 38.1026 3.38182 40.4293 3.38182C42.7561 3.38182 44.2499 3.59387 46.1965 4.20043C47.6359 4.6492 50.0861 5.82129 50.7834 6.39508L51.2526 6.78117L49.8775 6.7869C48.3217 6.79342 47.7731 6.97954 47.4487 7.61108C47.0897 8.30992 47.1685 8.95275 47.6843 9.53419L48.1452 10.0537L52.0689 10.0954C56.4436 10.1417 56.5982 10.1123 57.0688 9.14524L57.3548 8.55728L56.4736 5.01046C55.9888 3.05952 55.4895 1.23409 55.3641 0.953637C54.8749 -0.138438 53.4598 -0.321856 52.6842 0.60621C52.2416 1.13578 52.1767 1.71976 52.45 2.7113C52.5428 3.04759 52.5835 3.35827 52.5404 3.40154C52.4974 3.44497 51.9754 3.1941 51.3803 2.84429C44.9721 -0.92381 36.1195 -0.934627 29.5427 2.81756C28.9092 3.17899 28.3569 3.44052 28.3155 3.39868C28.2739 3.35684 28.3159 3.04759 28.4087 2.7113C28.6913 1.6862 28.6207 1.11733 28.1445 0.58553C27.5801 -0.04474 26.7869 -0.178367 26.1173 0.243987Z" fill="#EDBC18"/>
</svg>
