<svg width="87" height="66" viewBox="0 0 87 66" fill="none" xmlns="http://www.w3.org/2000/svg">
<path fill-rule="evenodd" clip-rule="evenodd" d="M17.6294 0.250636C17.3723 0.389917 17.1621 0.563129 17.1621 0.635739C17.1621 0.896659 15.6005 2.58704 14.6495 3.35572C13.3718 4.38837 13.2656 4.53563 13.2593 5.28479C13.2544 5.8689 13.3506 5.99885 14.4527 6.89646C15.112 7.43323 16.0987 8.416 16.6454 9.08018C18.1434 10.9 18.7844 10.901 20.2132 9.08578C20.6859 8.48505 21.6068 7.56284 22.2593 7.03659C23.4547 6.0723 23.7464 5.58202 23.5541 4.86135C23.4129 4.33239 23.3403 4.25282 22.0756 3.2407C21.4603 2.74837 20.6192 1.89657 20.2064 1.34775C19.1803 -0.0170697 18.5886 -0.268829 17.6294 0.250636ZM61.2385 0.227903C61.0466 0.362095 60.5559 0.903783 60.1479 1.43156C59.7401 1.95934 58.848 2.84677 58.1658 3.40339C56.2885 4.93481 56.281 5.56488 58.1226 7.03184C58.7801 7.55554 59.7088 8.48064 60.1867 9.08781C60.6647 9.69498 61.2458 10.2638 61.4781 10.352C62.1284 10.5989 62.9353 10.2485 63.4611 9.49124C63.8915 8.871 65.3712 7.40439 66.5759 6.40346C67.0301 6.02616 67.1191 5.83463 67.1191 5.23458C67.1191 4.6174 67.032 4.44317 66.4962 3.98936C65.0592 2.77213 63.8578 1.58272 63.5292 1.05172C62.9445 0.107282 61.9319 -0.256954 61.2385 0.227903ZM17.4726 4.26368L16.5263 5.23509L17.4703 6.17783L18.4144 7.12039L19.3561 6.22414C19.8741 5.73114 20.322 5.31822 20.3515 5.30634C20.3811 5.29463 19.9583 4.83658 19.4122 4.28845L18.419 3.2921L17.4726 4.26368ZM60.9907 4.2613L60.045 5.23068L61.0089 6.18308L61.9731 7.13549L62.9399 6.17019L63.9068 5.20489L62.9216 4.24841L61.9365 3.2921L60.9907 4.2613ZM1.62139 8.07009C0.996082 8.24941 0.463547 8.70508 0.231773 9.25899C0.0409512 9.71466 0 12.9911 0 27.7758V45.7389L0.387422 46.313C1.05521 47.3024 1.11027 47.3107 6.97971 47.3134L12.345 47.316L12.7146 46.9234C13.2046 46.4024 13.1854 45.7055 12.6668 45.1877L12.2498 44.7712H7.39925H2.54883V43.4386V42.1062L4.63037 42.0088C6.92958 41.9011 8.58173 41.536 10.6407 40.6802C12.1844 40.0385 14.5815 38.4776 15.5399 37.4901L16.2116 36.7977H37.9891C59.7636 36.7977 59.7668 36.7977 60.2144 36.4461C60.7997 35.9865 60.8127 35.2361 60.245 34.6695C59.845 34.27 59.7377 34.253 57.6195 34.253H55.4112L55.3604 28.4347C55.3048 22.0626 55.3101 22.0961 54.2527 21.4045C53.8284 21.1269 53.0498 21.1052 43.5 21.1052C33.9502 21.1052 33.1716 21.1269 32.7473 21.4045C31.6899 22.0961 31.6952 22.0626 31.6396 28.4347L31.5888 34.253H24.9834H18.3779L19.124 32.7686C21.3556 28.3287 21.6056 23.2226 19.8088 18.7812C19.5889 18.238 19.4579 17.766 19.5176 17.7323C19.5772 17.6985 20.6936 17.5339 21.9983 17.3667C24.0066 17.109 24.4303 17.0026 24.7595 16.674C25.2648 16.1695 25.2538 15.5117 24.7313 14.9902C24.2261 14.4857 24.1163 14.4854 20.6792 14.9756L17.9942 15.3589L17.4243 14.5846C16.1453 12.8472 13.6841 10.8133 11.5668 9.74401C9.19617 8.54697 7.39755 8.1181 4.41797 8.03955C3.06284 8.00393 1.8044 8.01767 1.62139 8.07009ZM2.54883 11.8594V13.2166H3.96598C5.73299 13.2166 7.64835 13.6827 9.3457 14.5257C11.2374 15.4652 13.4599 17.718 14.414 19.6632C15.3637 21.5992 15.6819 22.94 15.6828 25.0071C15.684 28.2965 14.6157 30.8536 12.2374 33.2543C11.016 34.4873 10.538 34.8374 9.17578 35.4974C7.37223 36.3709 5.59009 36.7977 3.74542 36.7977H2.54883V38.1799V39.562L4.54541 39.459C5.64362 39.4025 7.00078 39.2314 7.56152 39.0788C12.7198 37.6755 16.6546 33.7249 18.028 28.5698C18.5419 26.6412 18.5436 23.3465 18.0318 21.4445C16.2933 14.9848 10.5725 10.5022 4.06708 10.5022H2.54883V11.8594ZM66.6683 10.671C66.4671 10.7521 65.8826 11.3389 65.3695 11.9751C64.8563 12.6112 64.1034 13.45 63.6962 13.839L62.9561 14.5461L60.8767 14.3145C55.1978 13.6822 51.1993 13.4871 43.7549 13.4792C35.6425 13.4703 30.1215 13.7386 29.4313 14.1752C28.9114 14.5042 28.6818 15.1385 28.8876 15.6785C29.1754 16.4348 29.6208 16.5066 32.6595 16.287C39.7177 15.7769 49.9555 15.8785 57.3486 16.532C58.8439 16.6642 60.1877 16.7738 60.3348 16.7756C60.5003 16.7778 60.6621 17.0186 60.7596 17.4074C60.8873 17.9168 61.1712 18.2295 62.2609 19.0596C63.0001 19.6228 64.0526 20.6188 64.5997 21.273C66.5577 23.6135 66.5027 23.5655 67.2226 23.5614C67.9944 23.557 68.3606 23.2903 69.1969 22.1231C69.8493 21.2129 71.6673 19.4047 72.4246 18.9129C72.8771 18.6188 73.0139 18.636 78.6687 19.6892L84.4501 20.7659L84.4507 22.2504L84.4512 23.7348H80.051C75.0655 23.7348 74.2137 23.8827 72.6751 25.0161C71.2069 26.0976 70.6666 27.1859 69.7344 30.941L68.9122 34.253H66.93C64.7032 34.253 64.3161 34.4096 64.127 35.3869C64.0427 35.8226 64.1069 36.0112 64.4587 36.3624L64.8947 36.7977H74.673H84.4512V40.7796V44.7616L70.8149 44.8087L57.1787 44.8561L56.1957 45.2522C54.8861 45.78 53.3354 47.2213 52.7514 48.454C52.3762 49.2459 52.1568 50.4253 51.3891 55.7791C50.8858 59.2888 50.4308 62.4083 50.3778 62.7116L50.2814 63.2629H43.5H36.7186L36.6222 62.7116C36.5692 62.4083 36.114 59.2879 35.6107 55.7772C34.8129 50.2148 34.6343 49.2698 34.2209 48.4267C33.6051 47.1712 32.1028 45.7755 30.8043 45.2522C29.8354 44.8617 29.7306 44.8561 23.4767 44.8561H17.1324L16.8073 45.2566C16.3655 45.8012 16.3992 46.4 16.8996 46.8995L17.3166 47.316H23.1245C27.0844 47.316 29.1445 47.3794 29.5992 47.5155C30.5219 47.7915 31.6923 48.8657 32.0191 49.7365C32.1672 50.1315 32.7332 53.5541 33.2768 57.3425C34.3716 64.9716 34.3842 65.0144 35.6848 65.5339C36.2773 65.7707 37.3354 65.8077 43.5 65.8077C49.6646 65.8077 50.7227 65.7707 51.3152 65.5339C52.6158 65.0144 52.6284 64.9716 53.7232 57.3425C54.2668 53.5541 54.8328 50.1315 54.9809 49.7365C55.3077 48.8657 56.4781 47.7915 57.4008 47.5155C57.8876 47.3699 61.7557 47.3153 71.7267 47.3134C82.3117 47.3115 85.4802 47.2632 85.8055 47.099C86.0362 46.9823 86.3995 46.6285 86.6126 46.313L87 45.7389L86.9993 32.8283C86.9988 20.3226 86.9883 19.9007 86.667 19.3746C86.4846 19.0759 86.1217 18.7235 85.8605 18.5917C85.5993 18.4599 82.7859 17.8734 79.6084 17.2885C74.0924 16.2731 73.7911 16.1981 72.9488 15.6324C71.5645 14.7027 70.2635 13.4705 69.2996 12.1763C68.1713 10.6615 67.5603 10.3118 66.6683 10.671ZM66.4541 14.6782C66.0513 15.1597 65.328 15.8821 64.8468 16.2835L63.9717 17.0133L65.6182 18.657L67.2646 20.3009L68.8647 18.7033L70.4649 17.1058L68.8258 15.4544L67.1866 13.8029L66.4541 14.6782ZM2.54883 17.1185V18.4757L6.49951 18.4685L10.4502 18.4616L9.81061 17.8972C8.3034 16.5675 6.05058 15.7613 3.84125 15.7613H2.54883V17.1185ZM2.54883 27.6367V34.253H3.71704C4.35952 34.253 5.11057 34.2081 5.38601 34.1531L5.88694 34.053L6.78549 29.9543C7.29526 27.6292 7.84139 25.5668 8.04767 25.1887C8.62676 24.1265 9.5559 23.7348 11.4964 23.7348C13.3236 23.7348 13.2716 23.8033 12.7202 22.1267L12.3565 21.0204H7.4526H2.54883V27.6367ZM34.269 23.6768C34.206 23.7397 34.1543 26.1452 34.1543 29.0222V34.253H43.5024H52.8505L52.8056 28.9515L52.7607 23.65L43.5722 23.606C38.5186 23.5819 34.3322 23.6138 34.269 23.6768ZM24.1585 24.1273C23.6358 24.6829 23.6705 25.4832 24.2368 25.9278C24.62 26.229 24.9224 26.2795 26.3379 26.2795C27.7533 26.2795 28.0558 26.229 28.439 25.9278C29.0242 25.4683 29.0493 24.6251 28.4935 24.1036C28.1411 23.7733 27.9141 23.7348 26.3141 23.7348C24.6669 23.7348 24.4993 23.7653 24.1585 24.1273ZM58.4827 24.1273C57.96 24.6829 57.9947 25.4832 58.561 25.9278C58.9456 26.23 59.2463 26.2795 60.6927 26.2795C62.2541 26.2795 62.4072 26.2491 62.7938 25.863C63.329 25.3288 63.3391 24.5927 62.8177 24.1036C62.4653 23.7733 62.2383 23.7348 60.6383 23.7348C58.9911 23.7348 58.8236 23.7653 58.4827 24.1273ZM10.224 26.5764C9.99497 27.0202 8.79346 32.5708 8.90289 32.6799C9.04086 32.8176 10.4279 31.6416 11.1153 30.804C11.8091 29.9587 12.8469 27.8276 13.0089 26.9157L13.1219 26.2795H11.7494C10.6142 26.2795 10.3508 26.3307 10.224 26.5764ZM75.0205 26.5995C74.2006 26.9766 73.5311 27.5819 73.1762 28.2675C73.0316 28.5465 72.6385 29.874 72.3026 31.2171C71.9667 32.5602 71.652 33.7929 71.603 33.9561C71.5196 34.2352 71.9016 34.253 77.9828 34.253H84.4512V30.2663V26.2795L80.0757 26.2832C76.1891 26.2865 75.6242 26.3219 75.0205 26.5995ZM24.2368 29.3456C23.9121 29.6006 23.7891 29.8535 23.7891 30.2663C23.7891 30.679 23.9121 30.932 24.2368 31.1869C24.62 31.4881 24.9224 31.5386 26.3379 31.5386C27.7533 31.5386 28.0558 31.4881 28.439 31.1869C28.7637 30.932 28.8867 30.679 28.8867 30.2663C28.8867 29.8535 28.7637 29.6006 28.439 29.3456C28.0558 29.0444 27.7533 28.9939 26.3379 28.9939C24.9224 28.9939 24.62 29.0444 24.2368 29.3456ZM58.561 29.3456C57.9418 29.8318 57.9418 30.7007 58.561 31.1869C58.9442 31.4881 59.2467 31.5386 60.6621 31.5386C62.0776 31.5386 62.38 31.4881 62.7632 31.1869C63.0879 30.932 63.2109 30.679 63.2109 30.2663C63.2109 29.8535 63.0879 29.6006 62.7632 29.3456C62.38 29.0444 62.0776 28.9939 60.6621 28.9939C59.2467 28.9939 58.9442 29.0444 58.561 29.3456ZM77.0997 29.206C76.6866 29.5191 76.4834 30.1998 76.6609 30.6749C76.9347 31.407 77.2837 31.5274 79.1488 31.5332C80.7832 31.5383 80.9256 31.5113 81.3153 31.1221C81.5447 30.8931 81.7324 30.508 81.7324 30.2663C81.7324 30.0245 81.5447 29.6394 81.3153 29.4104C80.9261 29.0219 80.7803 28.9939 79.1389 28.9939C77.9938 28.9939 77.2817 29.0679 77.0997 29.206ZM29.4738 39.9286C28.9061 40.4952 28.919 41.2456 29.5044 41.7052C30.1045 42.1766 30.6797 42.1483 31.2073 41.6215C31.5591 41.2704 31.6233 41.0817 31.539 40.646C31.3282 39.5559 30.2293 39.1742 29.4738 39.9286ZM34.7414 39.9286C34.512 40.1576 34.3242 40.5427 34.3242 40.7845C34.3242 41.3501 35.0321 42.0569 35.5986 42.0569C36.1652 42.0569 36.873 41.3501 36.873 40.7845C36.873 40.2189 36.1652 39.5121 35.5986 39.5121C35.3565 39.5121 34.9708 39.6996 34.7414 39.9286ZM41.8356 39.8231C39.0074 40.831 37.5306 44.0171 38.6545 46.6862C39.3333 48.2984 40.8351 49.5014 42.6351 49.8749C44.9579 50.3569 47.4454 48.8967 48.4396 46.4677C48.8024 45.5815 48.7355 43.6641 48.3088 42.7147C47.1961 40.2392 44.299 38.9452 41.8356 39.8231ZM50.5441 39.9286C50.3147 40.1576 50.127 40.5427 50.127 40.7845C50.127 41.0262 50.3147 41.4113 50.5441 41.6404C50.7735 41.8694 51.1592 42.0569 51.4014 42.0569C51.6435 42.0569 52.0292 41.8694 52.2586 41.6404C52.488 41.4113 52.6758 41.0262 52.6758 40.7845C52.6758 40.5427 52.488 40.1576 52.2586 39.9286C52.0292 39.6996 51.6435 39.5121 51.4014 39.5121C51.1592 39.5121 50.7735 39.6996 50.5441 39.9286ZM55.9237 39.809C55.7267 39.9722 55.5184 40.349 55.461 40.646C55.3767 41.0817 55.4409 41.2704 55.7927 41.6215C56.3203 42.1483 56.8954 42.1766 57.4956 41.7052C58.081 41.2456 58.0939 40.4952 57.5262 39.9286C57.0361 39.4393 56.4248 39.3937 55.9237 39.809ZM42.3461 42.3398C40.6863 43.1565 40.3325 45.315 41.6439 46.6243C43.0689 48.047 45.4832 47.4018 46.0716 45.4408C46.7112 43.3097 44.3571 41.3503 42.3461 42.3398ZM41.8762 53.0647C40.9852 53.4688 40.0285 54.5925 39.7597 55.551C39.2934 57.2139 40.0159 59.0114 41.525 59.9427C42.2242 60.3745 42.5143 60.4488 43.5 60.4488C44.4857 60.4488 44.7758 60.3745 45.475 59.9427C47.5661 58.6521 48.005 55.9339 46.4206 54.086C45.6476 53.1845 44.7012 52.7522 43.5 52.7522C42.9547 52.7522 42.2783 52.8823 41.8762 53.0647ZM42.5578 55.7059C41.8694 56.393 42.0502 57.3351 42.9636 57.821C43.7561 58.2425 44.8594 57.5361 44.8594 56.6069C44.8594 55.9504 44.1775 55.2895 43.5 55.2895C43.169 55.2895 42.8207 55.4433 42.5578 55.7059Z" fill="black"/>
<path fill-rule="evenodd" clip-rule="evenodd" d="M41.8364 39.8233C39.0082 40.8312 37.5314 44.0173 38.6553 46.6864C39.3341 48.2986 40.8359 49.5016 42.6359 49.8751C44.9587 50.3571 47.4462 48.8969 48.4404 46.4679C48.8032 45.5817 48.7363 43.6643 48.3096 42.7149C47.1969 40.2394 44.2998 38.9454 41.8364 39.8233ZM42.3469 42.34C40.6871 43.1567 40.3333 45.3152 41.6447 46.6245C43.0697 48.0472 45.484 47.402 46.0724 45.441C46.712 43.3099 44.3579 41.3505 42.3469 42.34ZM41.877 53.0649C40.9859 53.469 40.0293 54.5927 39.7605 55.5513C39.2942 57.2141 40.0167 59.0116 41.5258 59.943C42.225 60.3747 42.5151 60.449 43.5008 60.449C44.4865 60.449 44.7766 60.3747 45.4758 59.943C47.5668 58.6523 48.0058 55.9342 46.4214 54.0862C45.6484 53.1847 44.702 52.7524 43.5008 52.7524C42.9555 52.7524 42.2791 52.8825 41.877 53.0649ZM42.5586 55.7061C41.8702 56.3932 42.051 57.3353 42.9643 57.8212C43.7569 58.2427 44.8602 57.5363 44.8602 56.6071C44.8602 55.9506 44.1783 55.2897 43.5008 55.2897C43.1698 55.2897 42.8214 55.4435 42.5586 55.7061Z" fill="#EDBC18"/>
</svg>
