<svg width="86" height="86" viewBox="0 0 86 86" fill="none" xmlns="http://www.w3.org/2000/svg">
<path fill-rule="evenodd" clip-rule="evenodd" d="M58.6317 1.097C56.4376 1.6922 53.6033 2.45497 52.333 2.79195C48.743 3.74461 48.2412 4.39865 48.2412 8.12628V9.95732L39.8627 12.1862C30.5363 14.6672 30.2571 14.7791 29.3272 16.4063L28.7627 17.394L28.765 24.7479C28.7677 33.0421 28.757 32.9702 30.1903 34.2669C30.8881 34.8983 31.4544 35.1626 32.702 35.4399L33.2122 35.5532V37.2973V39.0414L31.9194 39.1148C30.9885 39.1677 30.482 39.2956 30.1103 39.5719C29.4171 40.0872 28.7592 41.0866 28.7592 41.6245C28.7592 42.0607 28.7503 42.0623 26.46 42.0623H24.1609L24.0334 41.5504C23.8054 40.6333 23.1948 39.8623 22.3852 39.4691C21.6907 39.1317 21.244 39.0835 18.8133 39.0835C16.3002 39.0835 15.9569 39.1235 15.2118 39.5024C14.3484 39.9414 13.7638 40.7366 13.5565 41.7533L13.4367 42.3414L7.69244 43.1427C2.77851 43.8284 1.85172 44.0077 1.28136 44.383C0.235454 45.0713 0 45.7825 0 48.2533C0 50.1577 0.0445304 50.4509 0.417472 51.0007C1.33573 52.3546 0.989688 52.2704 11.9 53.7874L13.5024 54.01L13.6204 54.7501C13.7 55.2494 13.974 55.7439 14.4627 56.2698L15.1871 57.0496L18.3849 57.1088C20.1439 57.1413 21.7767 57.1192 22.0134 57.0594C22.799 56.8617 23.7406 55.8536 23.9612 54.9742L24.1674 54.1526L26.4097 54.2048L28.6518 54.2569L28.7739 54.8573C28.9314 55.632 29.3785 56.3086 30.0059 56.7211C30.4573 57.0181 31.2694 57.0585 38.4919 57.1426L46.4786 57.2357L46.5714 66.5146L46.6641 75.7934L47.128 76.1712C47.5202 76.4907 47.7655 76.5327 48.7173 76.4441C51.8154 76.1555 54.5727 74.1229 55.7064 71.2921C56.0589 70.4124 56.1304 69.7959 56.2144 66.9169L56.3124 63.5657L58.1678 63.5114C60.7264 63.4363 62.1598 63.8949 63.6265 65.2573C64.2534 65.8399 64.8867 66.6594 65.1901 67.2811C65.5237 67.9649 66.3087 70.9056 67.4613 75.7903C68.43 79.8958 69.3421 83.487 69.4885 83.7709C69.8658 84.5028 71.1987 85.5962 71.9787 85.8135C72.3426 85.9149 74.899 85.9983 77.6599 85.9989L82.6794 86L83.6605 85.5094C85.6939 84.4927 86.2385 83.0039 85.9119 79.3528C85.5427 75.2208 84.9569 72.6506 82.4634 64.2174C80.3597 57.103 79.9424 54.1383 80.6295 51.185C81.3256 48.1918 81.1911 47.4749 79.7033 46.2515C78.5746 45.3236 78.079 44.2443 78.0905 42.7398C78.1102 40.1667 76.8962 39.0835 73.9924 39.0835H72.3619V36.5578C72.3619 35.1688 72.28 33.879 72.1802 33.6917C72.0804 33.5044 71.7464 33.2629 71.438 33.1551L70.8775 32.9591V31.096V29.2331L71.5733 29.116C74.0698 28.6962 75.0302 28.2668 75.9638 27.1537C76.9748 25.9478 77.0225 25.4048 76.9626 15.7809C76.9088 7.15425 76.8991 6.95225 76.5065 6.22337C75.9883 5.26158 75.0472 4.3629 74.1768 3.99874C73.115 3.55434 71.749 3.65171 69.1149 4.35993C67.7882 4.71645 66.6507 5.00949 66.5868 5.0108C66.5232 5.0121 66.4341 4.30817 66.389 3.44654C66.3185 2.09732 66.2367 1.78734 65.7996 1.21224C65.1474 0.354337 64.4175 -0.0170849 63.4187 0.00060182C62.9799 0.00842123 60.8257 0.501789 58.6317 1.097ZM57.7357 4.45115C54.7427 5.25413 52.0916 5.96197 51.8447 6.02434C51.4161 6.13214 51.3955 6.20586 51.3955 7.6357C51.3955 8.97468 51.43 9.12418 51.7202 9.03966C52.6965 8.75555 63.2563 5.9441 63.3474 5.9441C63.407 5.9441 63.4558 5.27387 63.4558 4.45469C63.4558 3.63551 63.3933 2.97105 63.3166 2.97831C63.24 2.98538 60.7287 3.64817 57.7357 4.45115ZM52.0449 12.0081C36.0674 16.2996 32.3164 17.3655 32.0526 17.6889C31.7567 18.0517 31.7279 18.6851 31.7279 24.8617C31.7279 31.3883 31.7414 31.65 32.099 32.0088C32.3383 32.249 32.7168 32.381 33.1659 32.3806C33.8177 32.38 72.4439 25.981 73.1525 25.7561C73.9958 25.4885 74.0318 25.0933 74.0318 16.0915V7.60275L73.5762 7.14587C73.2425 6.81094 72.9328 6.69365 72.4166 6.70705C72.0294 6.71711 62.862 9.10258 52.0449 12.0081ZM52.2304 15.169C42.944 17.6663 35.3272 19.7124 35.3044 19.7154C35.2814 19.7186 35.1354 19.9684 34.9797 20.2704C34.7565 20.7034 34.6966 21.533 34.6966 24.1894C34.6966 27.8688 34.8472 28.5483 35.7115 28.766C35.9616 28.8289 43.7142 27.621 53.1027 26.056C67.7687 23.6115 70.0986 23.1799 70.46 22.8407C70.8745 22.4516 70.8775 22.4112 70.8775 16.9806V11.5125L70.422 11.0556C70.1715 10.8042 69.775 10.6052 69.5407 10.6134C69.3065 10.6214 61.5169 12.6716 52.2304 15.169ZM52.8798 18.0556C44.971 20.1881 38.3125 21.9815 38.0827 22.0407C37.6888 22.1426 37.6653 22.2427 37.6653 23.8206C37.6653 25.2875 37.7052 25.493 37.99 25.4962C38.1687 25.498 44.9733 24.3886 53.1118 23.0308L67.9088 20.5617V17.3489C67.9088 14.4049 67.8816 14.1377 67.5841 14.1569C67.4056 14.1686 60.7886 15.923 52.8798 18.0556ZM66.0998 30.0128L64.9401 30.199V31.6625V33.1259H66.4245H67.9088V31.4503C67.9088 29.5567 68.0821 29.6945 66.0998 30.0128ZM52.0449 32.389C46.7383 33.2936 42.3757 34.0389 42.3502 34.0452C42.3248 34.0515 42.3039 35.1878 42.3039 36.5701V39.0835H51.3955H60.4871V36.5578C60.4871 35.1688 60.5689 33.879 60.6687 33.6917C60.7686 33.5044 61.1025 33.2629 61.4109 33.1551C61.9514 32.9661 61.9714 32.9187 61.9714 31.8323C61.9714 31.2125 61.9089 30.7143 61.8323 30.7249C61.7557 30.7357 57.3514 31.4845 52.0449 32.389ZM37.2478 34.8465L36.1809 35.0299V37.0568V39.0835H37.758H39.3352V36.8494V34.6153L38.8249 34.6391C38.5444 34.6523 37.8345 34.7456 37.2478 34.8465ZM63.4558 37.5941V39.0835H66.5173H69.5787V37.5941V36.1047H66.5173H63.4558V37.5941ZM16.5571 48.1596L16.6061 54.2569L18.879 54.3092L21.1519 54.3615V48.2119V42.0623H18.83H16.5083L16.5571 48.1596ZM31.7279 48.2062V54.35H46.3858C60.7964 54.35 61.05 54.3563 61.4148 54.7223C61.7534 55.0621 61.7859 55.3431 61.7861 57.9339L61.7863 60.7731L63.2224 61.421C64.2894 61.9024 64.9789 62.3848 65.9066 63.2993C67.92 65.2836 68.3055 66.2964 70.3324 74.9225C71.5969 80.3045 72.1366 82.2917 72.4181 82.6023C72.7929 83.016 72.8576 83.0212 77.5545 83.0212C83.552 83.0212 83.2304 83.1887 83.0633 80.1498C82.8599 76.4545 82.1825 73.335 80.1294 66.6376C77.368 57.6301 76.8999 54.2508 77.8393 50.1065L78.1369 48.7937L77.2903 48.0109C76.0725 46.8843 75.2973 45.2061 75.1851 43.4531L75.0962 42.0623H53.412H31.7279V48.2062ZM24.1206 48.1073V51.185H26.4445H28.7685L28.7175 48.1596L28.6664 45.1343L26.3935 45.0819L24.1206 45.0296V48.1073ZM7.65366 46.1258L2.96869 46.7905V48.1352C2.96869 49.727 2.29907 49.4539 8.1639 50.2543C10.46 50.5678 12.6101 50.8728 12.9416 50.9322L13.5447 51.0403V48.2268V45.4135L12.9416 45.4373C12.6101 45.4504 10.2305 45.7602 7.65366 46.1258ZM49.54 65.2251V73.3206L50.0969 73.1259C51.0057 72.8079 52.4162 71.3967 52.901 70.32C53.3383 69.3489 53.3437 69.2646 53.3437 63.2865V57.2357L51.4419 57.1827L49.54 57.1296V65.2251ZM56.4051 58.9113V60.4938H57.6112H58.8172V58.9113V57.3288H57.6112H56.4051V58.9113Z" fill="black"/>
<mask id="mask0_486_188" style="mask-type:alpha" maskUnits="userSpaceOnUse" x="0" y="0" width="86" height="86">
<path fill-rule="evenodd" clip-rule="evenodd" d="M58.6317 1.097C56.4376 1.6922 53.6033 2.45497 52.333 2.79195C48.743 3.74461 48.2412 4.39865 48.2412 8.12628V9.95732L39.8627 12.1862C30.5363 14.6672 30.2571 14.7791 29.3272 16.4063L28.7627 17.394L28.765 24.7479C28.7677 33.0421 28.757 32.9702 30.1903 34.2669C30.8881 34.8983 31.4544 35.1626 32.702 35.4399L33.2122 35.5532V37.2973V39.0414L31.9194 39.1148C30.9885 39.1677 30.482 39.2956 30.1103 39.5719C29.4171 40.0872 28.7592 41.0866 28.7592 41.6245C28.7592 42.0607 28.7503 42.0623 26.46 42.0623H24.1609L24.0334 41.5504C23.8054 40.6333 23.1948 39.8623 22.3852 39.4691C21.6907 39.1317 21.244 39.0835 18.8133 39.0835C16.3002 39.0835 15.9569 39.1235 15.2118 39.5024C14.3484 39.9414 13.7638 40.7366 13.5565 41.7533L13.4367 42.3414L7.69244 43.1427C2.77851 43.8284 1.85172 44.0077 1.28136 44.383C0.235454 45.0713 0 45.7825 0 48.2533C0 50.1577 0.0445304 50.4509 0.417472 51.0007C1.33573 52.3546 0.989688 52.2704 11.9 53.7874L13.5024 54.01L13.6204 54.7501C13.7 55.2494 13.974 55.7439 14.4627 56.2699L15.1871 57.0496L18.3849 57.1088C20.1439 57.1413 21.7767 57.1192 22.0134 57.0594C22.799 56.8617 23.7406 55.8536 23.9612 54.9742L24.1674 54.1526L26.4097 54.2048L28.6518 54.2569L28.7739 54.8573C28.9314 55.632 29.3785 56.3086 30.0059 56.7211C30.4573 57.0181 31.2694 57.0585 38.4919 57.1426L46.4786 57.2357L46.5714 66.5146L46.6641 75.7934L47.128 76.1712C47.5202 76.4907 47.7655 76.5327 48.7173 76.4441C51.8154 76.1555 54.5727 74.1229 55.7064 71.2921C56.0589 70.4124 56.1304 69.7959 56.2144 66.9169L56.3124 63.5657L58.1678 63.5114C60.7264 63.4363 62.1598 63.8949 63.6265 65.2573C64.2534 65.8399 64.8867 66.6594 65.1901 67.2811C65.5237 67.9649 66.3087 70.9056 67.4613 75.7903C68.43 79.8958 69.3421 83.487 69.4885 83.7709C69.8658 84.5028 71.1987 85.5962 71.9787 85.8135C72.3426 85.9149 74.899 85.9983 77.6599 85.9989L82.6794 86L83.6605 85.5094C85.6939 84.4927 86.2385 83.0039 85.9119 79.3528C85.5427 75.2207 84.9569 72.6506 82.4634 64.2174C80.3597 57.103 79.9424 54.1383 80.6295 51.185C81.3256 48.1918 81.1911 47.4749 79.7032 46.2515C78.5746 45.3236 78.079 44.2443 78.0905 42.7398C78.1102 40.1667 76.8962 39.0835 73.9924 39.0835H72.3619V36.5578C72.3619 35.1688 72.28 33.879 72.1802 33.6917C72.0804 33.5044 71.7464 33.2629 71.438 33.1551L70.8775 32.9591V31.096V29.2331L71.5733 29.116C74.0698 28.6962 75.0302 28.2668 75.9638 27.1537C76.9748 25.9478 77.0225 25.4048 76.9626 15.7809C76.9088 7.15425 76.8991 6.95225 76.5065 6.22337C75.9883 5.26158 75.0472 4.3629 74.1768 3.99874C73.115 3.55434 71.749 3.65171 69.1149 4.35992C67.7882 4.71645 66.6507 5.00949 66.5868 5.0108C66.5232 5.0121 66.4341 4.30817 66.389 3.44654C66.3185 2.09732 66.2367 1.78734 65.7996 1.21224C65.1474 0.354337 64.4175 -0.0170849 63.4187 0.00060182C62.9799 0.00842123 60.8257 0.501789 58.6317 1.097ZM57.7357 4.45115C54.7427 5.25413 52.0916 5.96197 51.8447 6.02434C51.4161 6.13214 51.3955 6.20586 51.3955 7.6357C51.3955 8.97468 51.43 9.12418 51.7202 9.03966C52.6965 8.75555 63.2563 5.9441 63.3474 5.9441C63.407 5.9441 63.4558 5.27387 63.4558 4.45469C63.4558 3.63551 63.3933 2.97105 63.3166 2.97831C63.24 2.98538 60.7287 3.64817 57.7357 4.45115ZM52.0449 12.0081C36.0674 16.2996 32.3164 17.3655 32.0526 17.6889C31.7567 18.0517 31.7279 18.6851 31.7279 24.8617C31.7279 31.3883 31.7414 31.65 32.099 32.0088C32.3383 32.249 32.7168 32.381 33.1659 32.3806C33.8177 32.38 72.4439 25.981 73.1525 25.7561C73.9958 25.4885 74.0318 25.0933 74.0318 16.0915V7.60275L73.5762 7.14587C73.2425 6.81094 72.9328 6.69365 72.4166 6.70705C72.0294 6.71711 62.862 9.10258 52.0449 12.0081ZM52.2304 15.169C42.944 17.6663 35.3272 19.7124 35.3044 19.7154C35.2814 19.7186 35.1354 19.9684 34.9797 20.2704C34.7565 20.7034 34.6966 21.533 34.6966 24.1894C34.6966 27.8688 34.8472 28.5483 35.7115 28.766C35.9616 28.8289 43.7142 27.621 53.1027 26.056C67.7687 23.6115 70.0986 23.1799 70.46 22.8407C70.8745 22.4516 70.8775 22.4112 70.8775 16.9806V11.5125L70.422 11.0556C70.1715 10.8042 69.775 10.6052 69.5407 10.6134C69.3065 10.6214 61.5169 12.6716 52.2304 15.169ZM52.8798 18.0556C44.971 20.1881 38.3125 21.9815 38.0827 22.0407C37.6888 22.1426 37.6653 22.2427 37.6653 23.8206C37.6653 25.2875 37.7052 25.493 37.99 25.4962C38.1687 25.498 44.9733 24.3886 53.1118 23.0308L67.9088 20.5617V17.3489C67.9088 14.4049 67.8816 14.1377 67.5841 14.1569C67.4056 14.1686 60.7886 15.923 52.8798 18.0556ZM66.0998 30.0128L64.9401 30.199V31.6625V33.1259H66.4245H67.9088V31.4503C67.9088 29.5567 68.0821 29.6945 66.0998 30.0128ZM52.0449 32.389C46.7383 33.2936 42.3757 34.0389 42.3502 34.0452C42.3248 34.0515 42.3039 35.1878 42.3039 36.5701V39.0835H51.3955H60.4871V36.5578C60.4871 35.1688 60.5689 33.879 60.6687 33.6917C60.7686 33.5044 61.1025 33.2629 61.4109 33.1551C61.9514 32.9661 61.9714 32.9187 61.9714 31.8323C61.9714 31.2125 61.9089 30.7143 61.8323 30.7249C61.7557 30.7357 57.3514 31.4845 52.0449 32.389ZM37.2478 34.8465L36.1809 35.0299V37.0568V39.0835H37.758H39.3352V36.8494V34.6153L38.8249 34.6391C38.5444 34.6523 37.8345 34.7456 37.2478 34.8465ZM63.4558 37.5941V39.0835H66.5173H69.5787V37.5941V36.1047H66.5173H63.4558V37.5941ZM16.5571 48.1596L16.6061 54.2569L18.879 54.3092L21.1519 54.3615V48.2119V42.0623H18.83H16.5083L16.5571 48.1596ZM31.7279 48.2062V54.35H46.3858C60.7964 54.35 61.05 54.3563 61.4148 54.7223C61.7534 55.0621 61.7859 55.3431 61.7861 57.9339L61.7863 60.7731L63.2224 61.421C64.2894 61.9024 64.9789 62.3848 65.9066 63.2993C67.92 65.2836 68.3055 66.2964 70.3324 74.9225C71.5969 80.3045 72.1366 82.2917 72.4181 82.6023C72.7929 83.016 72.8576 83.0212 77.5545 83.0212C83.552 83.0212 83.2304 83.1887 83.0633 80.1498C82.8599 76.4545 82.1825 73.335 80.1294 66.6376C77.368 57.6301 76.8999 54.2508 77.8393 50.1065L78.1369 48.7937L77.2903 48.0109C76.0725 46.8843 75.2973 45.2061 75.1851 43.4531L75.0962 42.0623H53.412H31.7279V48.2062ZM24.1206 48.1073V51.185H26.4445H28.7685L28.7175 48.1596L28.6664 45.1343L26.3935 45.0819L24.1206 45.0296V48.1073ZM7.65366 46.1258L2.96869 46.7905V48.1352C2.96869 49.727 2.29907 49.4539 8.1639 50.2543C10.46 50.5678 12.6101 50.8728 12.9416 50.9322L13.5447 51.0403V48.2268V45.4135L12.9416 45.4373C12.6101 45.4504 10.2305 45.7602 7.65366 46.1258ZM49.54 65.2251V73.3206L50.0969 73.1259C51.0057 72.8079 52.4162 71.3967 52.901 70.32C53.3383 69.3489 53.3437 69.2646 53.3437 63.2865V57.2357L51.4419 57.1827L49.54 57.1296V65.2251ZM56.4051 58.9113V60.4938H57.6112H58.8172V58.9113V57.3288H57.6112H56.4051V58.9113Z" fill="black"/>
</mask>
<g mask="url(#mask0_486_188)">
<path d="M28.5 36L23 6.5L50.5 -9L88.5 -10L81.5 28L34.5 36H28.5Z" fill="#EDBC18"/>
</g>
</svg>
