<svg width="63" height="72" viewBox="0 0 63 72" fill="none" xmlns="http://www.w3.org/2000/svg">
<path fill-rule="evenodd" clip-rule="evenodd" d="M23.2503 0.0871147C22.2051 0.408805 21.3676 1.14444 20.8319 2.21134C19.8129 4.24035 17.6448 6.54443 15.6267 7.7426C15.0041 8.11218 13.8716 8.63528 13.1102 8.90513C11.0786 9.62471 9.64856 9.83795 6.86563 9.83612C4.27398 9.83457 3.73566 9.93795 2.84919 10.6082C1.94551 11.2913 1.70847 11.9064 0.787603 15.9575C-0.173058 20.184 -0.208585 20.7706 0.430197 21.851C0.885089 22.6203 1.40095 23.0519 2.63233 23.6933C5.90511 25.3977 8.27805 28.8045 8.98775 32.8176C9.28589 34.5036 9.28632 37.5217 8.98888 39.2043C8.26668 43.2873 5.78744 46.7769 2.41689 48.4542C1.4477 48.9365 0.866331 49.4396 0.434745 50.1695C-0.202332 51.2469 -0.173342 51.7382 0.778792 55.9937C1.69739 60.099 1.94636 60.7566 2.83583 61.429C3.70341 62.0849 4.30169 62.1987 6.87273 62.1972C9.65339 62.1954 11.0954 62.4094 13.1102 63.1231C15.0766 63.8197 16.5365 64.7328 18.07 66.2254C19.3589 67.4799 20.2117 68.5893 20.8306 69.8169C21.2362 70.6214 21.8858 71.3065 22.6116 71.6955C23.1758 71.9977 23.242 72 31.4935 72C39.74 72 39.8114 71.9976 40.3753 71.6961C41.1487 71.2824 41.5965 70.7808 42.304 69.5352C45.2149 64.4117 50.3477 61.8461 57.0209 62.1793C58.4808 62.2523 59.0909 62.1103 60.0187 61.4823C61.0302 60.7972 61.2374 60.271 62.2088 55.9209C63.064 52.0899 63.0874 51.9316 62.9146 51.1659C62.6847 50.1476 62.0369 49.3061 61.0464 48.7388C59.4183 47.8062 58.7198 47.3264 57.8645 46.5523C56.9703 45.7431 55.8158 44.2152 55.2249 43.059C54.0578 40.7757 53.4871 37.2705 53.7977 34.2951C54.3238 29.2578 56.4712 25.8502 60.5698 23.5493C62.0522 22.7171 62.6506 22.0313 62.9146 20.8623C63.0874 20.0967 63.064 19.9384 62.2088 16.1074C61.2683 11.8953 61.0332 11.266 60.1512 10.5992C59.2802 9.94063 58.6722 9.82443 56.107 9.82598C54.617 9.82696 53.284 9.74865 52.5257 9.61556C48.0399 8.82823 44.503 6.36373 42.304 2.49303C41.5965 1.2474 41.1487 0.745846 40.3753 0.332185C39.8137 0.0319035 39.7105 0.0279598 31.7067 0.00288945C27.2515 -0.0110542 23.4461 0.0268331 23.2503 0.0871147ZM23.581 2.56176C23.415 2.67697 23.0422 3.19979 22.7528 3.72373C21.5343 5.92824 19.2596 8.34514 17.214 9.60865C14.1819 11.4818 9.8144 12.527 6.16346 12.2533C4.8805 12.1571 4.42305 12.2519 4.14707 12.6713C3.84694 13.1272 2.31841 20.0517 2.42485 20.4726C2.47856 20.6843 2.76378 20.9674 3.15628 21.1986C6.61793 23.2372 8.33234 24.8962 9.74519 27.5747C11.0475 30.0434 11.6354 32.6679 11.6354 36.0141C11.6354 39.3603 11.0475 41.9848 9.74519 44.4535C8.33234 47.132 6.61793 48.791 3.15628 50.8296C2.76378 51.0609 2.47856 51.344 2.42485 51.5557C2.31841 51.9765 3.84694 58.901 4.14707 59.3569C4.4249 59.779 4.88505 59.8721 6.19657 59.7718C8.48525 59.5969 11.9713 60.0906 14.1296 60.8952C17.7401 62.2413 20.9039 64.9597 22.7528 68.3045C23.0422 68.8284 23.415 69.3513 23.581 69.4665C24.0413 69.7861 38.9537 69.7806 39.4144 69.4607C39.5851 69.3423 39.9516 68.8193 40.2288 68.2987C41.2585 66.3649 43.3447 64.0597 45.2405 62.761C48.3438 60.6347 52.8177 59.499 57.0147 59.7723C58.9104 59.8958 58.8088 60.0499 59.8222 55.5158C60.7582 51.328 60.7582 51.3295 59.6741 50.7237C55.0098 48.1176 52.5189 44.6607 51.575 39.484C51.2601 37.7569 51.2601 34.2713 51.575 32.5443C52.5175 27.375 55.0137 23.893 59.6015 21.3484C60.7696 20.7006 60.7676 20.7424 59.8222 16.5125C58.8116 11.991 58.9138 12.147 57.0273 12.2471C53.5226 12.4332 49.9313 11.7632 47.1966 10.4132C44.3868 9.02612 41.6529 6.40373 40.2288 3.72951C39.9516 3.20894 39.5851 2.68599 39.4144 2.56753C38.9537 2.24768 24.0413 2.24218 23.581 2.56176ZM25.2096 4.83781C24.8938 4.92641 23.1234 7.45739 23.0204 7.96739C22.9061 8.53387 23.5415 9.25358 24.1558 9.25358C24.7993 9.25358 25.0896 9.00288 25.9998 7.66091C26.8756 6.36964 27.0176 5.73711 26.5552 5.18514C26.3017 4.88246 25.6499 4.71429 25.2096 4.83781ZM29.493 5.15824C28.9629 5.68359 28.9375 6.31063 29.4265 6.79514C29.7583 7.12415 29.8587 7.14091 31.4935 7.14091C33.1283 7.14091 33.2286 7.12415 33.5605 6.79514C34.0495 6.31063 34.024 5.68359 33.494 5.15824C33.0845 4.75246 33.056 4.74655 31.4935 4.74655C29.931 4.74655 29.9024 4.75246 29.493 5.15824ZM36.7963 4.88838C36.4038 5.04514 36.1831 5.4495 36.1831 6.01232C36.1831 6.49978 37.5337 8.66739 38.0689 9.03908C38.546 9.3702 39.2075 9.30908 39.5974 8.89767C40.1612 8.30288 40.0448 7.80852 38.9808 6.27809C37.9383 4.77838 37.6042 4.56584 36.7963 4.88838ZM18.9168 11.372C18.2134 11.8368 17.526 12.3496 17.3891 12.5115C16.7918 13.2185 17.3635 14.324 18.3263 14.324C18.6827 14.324 19.1545 14.1023 20.0737 13.5032C21.5725 12.526 21.7448 12.3387 21.7448 11.687C21.7448 11.0896 21.1732 10.5196 20.5786 10.5241C20.3511 10.5258 19.6769 10.8698 18.9168 11.372ZM41.6339 10.855C41.3438 11.1023 41.2422 11.3181 41.2422 11.687C41.2422 12.3387 41.4144 12.526 42.9133 13.5032C43.8324 14.1023 44.3042 14.324 44.6606 14.324C45.5397 14.324 46.1174 13.3987 45.7098 12.6437C45.4899 12.2364 42.8122 10.5212 42.3961 10.5212C42.1923 10.5212 41.8492 10.6715 41.6339 10.855ZM11.4619 14.324C10.1138 14.6078 9.75073 14.8923 9.75073 15.6651C9.75073 16.0113 9.86243 16.223 10.188 16.4946C10.7093 16.9294 10.735 16.9303 12.4339 16.5829C14.011 16.2603 14.4403 15.9578 14.4403 15.1691C14.4403 14.464 13.9737 14.0374 13.2233 14.0567C12.9157 14.0646 12.1231 14.1848 11.4619 14.324ZM48.8338 14.3912C48.238 15.0199 48.4823 16.0191 49.2971 16.2857C49.8613 16.4702 51.8711 16.8592 52.2604 16.8592C52.7437 16.8592 53.2362 16.2336 53.2362 15.6198C53.2362 14.8565 52.9068 14.6181 51.429 14.312C49.6908 13.9519 49.2371 13.9657 48.8338 14.3912ZM5.55211 18.0501C5.16557 18.433 5.07988 19.1888 5.38087 19.5592C5.64022 19.8782 7.71672 21.3565 8.11818 21.5077C8.54593 21.6689 9.27609 21.4372 9.4695 21.0791C9.54595 20.9374 9.60862 20.6027 9.60862 20.3355C9.60862 19.7744 9.03607 19.1864 7.58356 18.256C6.5753 17.6101 6.04963 17.5568 5.55211 18.0501ZM55.4034 18.256C54.9298 18.5594 54.2803 19.042 53.9603 19.3286C53.4783 19.7603 53.3784 19.9393 53.3784 20.3722C53.3784 21.1775 54.1637 21.7734 54.8729 21.5062C55.192 21.386 56.6327 20.3712 57.464 19.6812C58.1815 19.0855 57.6306 17.7043 56.6753 17.7043C56.439 17.7043 55.8991 17.9384 55.4034 18.256ZM11.0188 23.1864C10.48 23.7203 10.4853 24.22 11.0381 25.0282C11.2766 25.3768 11.6597 26.0241 11.8895 26.4665C12.3457 27.3447 12.627 27.5634 13.3006 27.5634C13.8559 27.5634 14.4403 27.0155 14.4403 26.495C14.4403 25.9875 13.3558 23.9791 12.7215 23.312C12.0847 22.6424 11.6036 22.6068 11.0188 23.1864ZM50.2654 23.312C49.6312 23.9791 48.5466 25.9875 48.5466 26.495C48.5466 27.0155 49.1311 27.5634 49.6863 27.5634C50.3599 27.5634 50.6413 27.3447 51.0975 26.4665C51.3273 26.0241 51.7104 25.3768 51.9489 25.0282C52.5017 24.22 52.5069 23.7203 51.9682 23.1864C51.3834 22.6068 50.9022 22.6424 50.2654 23.312ZM14.3528 30.161C13.6707 30.4534 13.5857 30.9 13.8703 32.6943C14.0692 33.9474 14.1736 34.2791 14.4351 34.4889C14.824 34.8012 15.546 34.823 15.9606 34.5351C16.4108 34.2226 16.4694 33.6758 16.2187 32.1251C16.0469 31.0631 15.9187 30.6606 15.6788 30.43C15.2451 30.0133 14.8732 29.9378 14.3528 30.161ZM47.7069 30.1113C47.5186 30.186 47.284 30.3562 47.1855 30.4896C46.9871 30.7584 46.7597 31.8223 46.6165 33.1514C46.5294 33.9596 46.5487 34.0468 46.8888 34.3838C47.3307 34.8219 48.0782 34.8691 48.5519 34.4889C48.8134 34.2791 48.9178 33.9474 49.1166 32.6943C49.4054 30.8745 49.3197 30.4507 48.603 30.1538C48.3426 30.0461 48.1114 29.9619 48.0893 29.9667C48.0673 29.9716 47.8952 30.0367 47.7069 30.1113ZM47.3114 37.28C46.7332 37.5165 46.5143 38.0395 46.6179 38.9367C46.8639 41.0665 47.1061 41.679 47.8074 41.9448C48.2917 42.1283 49.0439 41.7712 49.2185 41.2745C49.4274 40.6807 48.9714 37.92 48.6056 37.5643C48.2657 37.2336 47.7188 37.1134 47.3114 37.28ZM14.4351 37.5393C14.1736 37.7492 14.0692 38.0809 13.8703 39.334C13.5824 41.1483 13.6681 41.5779 14.3764 41.8712C15.0145 42.1354 15.6281 41.9148 15.9062 41.3212C16.0928 40.9227 16.4299 38.939 16.4299 38.2389C16.4299 37.4589 15.1114 36.9965 14.4351 37.5393ZM12.6213 44.5454C12.446 44.6672 12.1153 45.1266 11.8866 45.5665C11.658 46.0064 11.3401 46.5564 11.1802 46.7888C10.766 47.3909 10.8063 47.9271 11.303 48.4193C12.1274 49.2364 12.8732 48.8289 13.8364 47.0351C14.5651 45.6778 14.6245 45.0514 14.0659 44.6159C13.6198 44.2681 13.0602 44.2409 12.6213 44.5454ZM48.9211 44.6159C48.3625 45.0514 48.4219 45.6778 49.1506 47.0351C50.1138 48.8289 50.8596 49.2364 51.684 48.4193C52.1807 47.9271 52.221 47.3909 51.8068 46.7888C51.6469 46.5564 51.329 46.0064 51.1003 45.5665C50.4545 44.3242 49.7111 44 48.9211 44.6159ZM7.94864 50.628C7.3397 50.9604 5.80094 52.0414 5.47096 52.3685C5.05274 52.783 5.10944 53.6671 5.57769 54.032C5.78361 54.1926 6.12538 54.324 6.33726 54.324C6.76672 54.324 8.13651 53.4966 9.02669 52.6996C9.50872 52.2679 9.60862 52.0889 9.60862 51.6561C9.60862 50.7448 8.73053 50.201 7.94864 50.628ZM54.0036 50.5814C53.5105 50.7941 53.3784 51.0335 53.3784 51.7134C53.3784 52.2516 53.9727 52.8558 55.4034 53.7723C56.4117 54.4182 56.9373 54.4714 57.4349 53.9782C57.7822 53.6341 57.9055 52.8976 57.675 52.5441C57.4084 52.1354 54.73 50.3314 54.4705 50.3858C54.456 50.3889 54.2459 50.4769 54.0036 50.5814ZM10.3902 55.3256C9.94102 55.5786 9.75073 55.8916 9.75073 56.3775C9.75073 57.1463 10.1121 57.4171 11.5312 57.7109C13.2701 58.0709 13.7507 58.0614 14.1314 57.66C14.5273 57.2421 14.5478 56.4023 14.1709 56.0287C13.7106 55.5725 10.8849 55.0471 10.3902 55.3256ZM51.4599 55.2613C51.3036 55.294 50.7064 55.419 50.1329 55.539C49.5408 55.6628 48.9727 55.8735 48.8183 56.0265C48.424 56.4173 48.4541 57.2873 48.8755 57.6797C49.2803 58.0565 49.7584 58.0623 51.4558 57.7109C52.8493 57.4223 53.2362 57.1445 53.2362 56.4325C53.2362 55.8454 53.1042 55.604 52.6576 55.3751C52.2587 55.1706 52.0067 55.1466 51.4599 55.2613ZM17.4472 57.7889C16.5757 58.394 16.8237 59.3941 18.0134 60.0717C18.4321 60.3101 18.995 60.6672 19.2641 60.8654C19.904 61.3361 20.5889 61.3416 21.0548 60.8796C21.8489 60.0927 21.3226 59.2018 19.4078 58.0916C18.4139 57.5152 17.9456 57.443 17.4472 57.7889ZM43.3271 58.2694C42.0183 59.0678 41.5833 59.5303 41.5833 60.124C41.5833 61.1249 42.7977 61.5458 43.7229 60.8654C43.992 60.6672 44.5549 60.3101 44.9736 60.0717C46.1633 59.3941 46.4113 58.394 45.5397 57.7889C45.0121 57.4225 44.5515 57.5225 43.3271 58.2694ZM23.1737 62.8387C22.5939 63.4132 22.7053 63.8631 23.8278 65.4825C24.3795 66.2785 24.991 67.013 25.187 67.1148C25.9562 67.5151 26.8607 66.909 26.8349 66.0106C26.8219 65.5562 25.8463 63.9732 25.022 63.0689C24.3798 62.3642 23.7335 62.2838 23.1737 62.8387ZM37.965 63.0689C37.1406 63.9732 36.1651 65.5562 36.1521 66.0106C36.1263 66.909 37.0308 67.5151 37.8 67.1148C38.34 66.8339 40.1622 64.1303 40.1622 63.61C40.1622 63.0173 39.6058 62.493 38.9773 62.493C38.5873 62.493 38.3851 62.608 37.965 63.0689ZM29.4265 65.2331C28.9375 65.7176 28.9629 66.3446 29.493 66.87C29.9024 67.2758 29.931 67.2817 31.4935 67.2817C33.056 67.2817 33.0845 67.2758 33.494 66.87C34.024 66.3446 34.0495 65.7176 33.5605 65.2331C33.2286 64.9041 33.1283 64.8873 31.4935 64.8873C29.8587 64.8873 29.7583 64.9041 29.4265 65.2331Z" fill="black"/>
<path fill-rule="evenodd" clip-rule="evenodd" d="M25.2099 4.83785C24.8942 4.92644 23.1238 7.45742 23.0207 7.96742C22.9065 8.5339 23.5418 9.25362 24.1562 9.25362C24.7997 9.25362 25.09 9.00292 26.0002 7.66095C26.876 6.36968 27.018 5.73714 26.5556 5.18517C26.302 4.8825 25.6503 4.71433 25.2099 4.83785ZM29.4934 5.15827C28.9633 5.68362 28.9379 6.31066 29.4269 6.79517C29.7587 7.12418 29.859 7.14095 31.4939 7.14095C33.1287 7.14095 33.229 7.12418 33.5609 6.79517C34.0498 6.31066 34.0244 5.68362 33.4943 5.15827C33.0849 4.7525 33.0564 4.74658 31.4939 4.74658C29.9314 4.74658 29.9028 4.7525 29.4934 5.15827ZM36.7967 4.88841C36.4042 5.04517 36.1835 5.44954 36.1835 6.01236C36.1835 6.49982 37.5341 8.66742 38.0693 9.03911C38.5463 9.37024 39.2079 9.30911 39.5978 8.8977C40.1615 8.30292 40.0452 7.80855 38.9812 6.27813C37.9387 4.77841 37.6046 4.56588 36.7967 4.88841ZM18.9172 11.3721C18.2137 11.8369 17.5263 12.3497 17.3895 12.5115C16.7922 13.2185 17.3639 14.324 18.3267 14.324C18.6831 14.324 19.1549 14.1023 20.0741 13.5032C21.5729 12.526 21.7452 12.3387 21.7452 11.687C21.7452 11.0897 21.1736 10.5197 20.579 10.5242C20.3515 10.5259 19.6773 10.8698 18.9172 11.3721ZM41.6342 10.855C41.3442 11.1024 41.2426 11.3181 41.2426 11.687C41.2426 12.3387 41.4148 12.526 42.9136 13.5032C43.8328 14.1023 44.3046 14.324 44.661 14.324C45.5401 14.324 46.1178 13.3987 45.7102 12.6438C45.4902 12.2364 42.8126 10.5212 42.3965 10.5212C42.1927 10.5212 41.8495 10.6715 41.6342 10.855ZM11.4622 14.324C10.1142 14.6078 9.75111 14.8923 9.75111 15.6652C9.75111 16.0114 9.86281 16.2231 10.1884 16.4946C10.7096 16.9294 10.7354 16.9304 12.4343 16.5829C14.0114 16.2604 14.4407 15.9578 14.4407 15.1691C14.4407 14.464 13.974 14.0374 13.2237 14.0567C12.916 14.0646 12.1235 14.1849 11.4622 14.324ZM48.8342 14.3912C48.2383 15.02 48.4826 16.0191 49.2975 16.2857C49.8617 16.4702 51.8715 16.8592 52.2608 16.8592C52.7441 16.8592 53.2366 16.2336 53.2366 15.6198C53.2366 14.8566 52.9072 14.6181 51.4294 14.3121C49.6911 13.9519 49.2375 13.9657 48.8342 14.3912ZM5.55248 18.0501C5.16595 18.433 5.08025 19.1888 5.38124 19.5592C5.64059 19.8783 7.7171 21.3566 8.11856 21.5077C8.5463 21.669 9.27646 21.4373 9.46987 21.0791C9.54633 20.9374 9.609 20.6028 9.609 20.3356C9.609 19.7745 9.03644 19.1864 7.58394 18.256C6.57567 17.6101 6.05001 17.5569 5.55248 18.0501ZM55.4038 18.256C54.9301 18.5594 54.2807 19.0421 53.9607 19.3287C53.4786 19.7604 53.3787 19.9394 53.3787 20.3722C53.3787 21.1776 54.164 21.7735 54.8733 21.5063C55.1923 21.386 56.633 20.3712 57.4644 19.6812C58.1819 19.0856 57.6309 17.7043 56.6757 17.7043C56.4393 17.7043 55.8995 17.9384 55.4038 18.256ZM11.0192 23.1864C10.4804 23.7204 10.4857 24.2201 11.0385 25.0283C11.2769 25.3768 11.6601 26.0242 11.8899 26.4666C12.346 27.3447 12.6274 27.5635 13.301 27.5635C13.8562 27.5635 14.4407 27.0156 14.4407 26.495C14.4407 25.9875 13.3561 23.9791 12.7219 23.3121C12.0851 22.6425 11.6039 22.6068 11.0192 23.1864ZM50.2658 23.3121C49.6316 23.9791 48.547 25.9875 48.547 26.495C48.547 27.0156 49.1315 27.5635 49.6867 27.5635C50.3603 27.5635 50.6417 27.3447 51.0979 26.4666C51.3277 26.0242 51.7108 25.3768 51.9492 25.0283C52.5021 24.2201 52.5073 23.7204 51.9686 23.1864C51.3838 22.6068 50.9026 22.6425 50.2658 23.3121ZM14.3532 30.1611C13.6711 30.4535 13.5861 30.9001 13.8707 32.6943C14.0695 33.9474 14.174 34.2791 14.4355 34.4889C14.8244 34.8012 15.5463 34.823 15.961 34.5351C16.4112 34.2226 16.4698 33.6758 16.2191 32.1251C16.0473 31.0632 15.9191 30.6606 15.6792 30.4301C15.2455 30.0133 14.8736 29.9378 14.3532 30.1611ZM47.7073 30.1113C47.519 30.186 47.2844 30.3563 47.1859 30.4897C46.9875 30.7584 46.7601 31.8223 46.6169 33.1515C46.5298 33.9597 46.5491 34.0468 46.8892 34.3839C47.3311 34.8219 48.0786 34.8691 48.5523 34.4889C48.8137 34.2791 48.9182 33.9474 49.117 32.6943C49.4058 30.8746 49.3201 30.4508 48.6034 30.1539C48.3429 30.0461 48.1117 29.9619 48.0897 29.9667C48.0677 29.9716 47.8956 30.0367 47.7073 30.1113ZM47.3118 37.2801C46.7335 37.5165 46.5147 38.0395 46.6183 38.9367C46.8643 41.0665 47.1064 41.6791 47.8078 41.9449C48.2921 42.1284 49.0442 41.7712 49.2189 41.2746C49.4278 40.6808 48.9718 37.9201 48.606 37.5643C48.2661 37.2336 47.7192 37.1134 47.3118 37.2801ZM14.4355 37.5394C14.174 37.7492 14.0695 38.0809 13.8707 39.334C13.5828 41.1484 13.6685 41.5779 14.3768 41.8712C15.0148 42.1354 15.6285 41.9149 15.9066 41.3212C16.0932 40.9227 16.4303 38.9391 16.4303 38.2389C16.4303 37.4589 15.1118 36.9965 14.4355 37.5394ZM12.6217 44.5454C12.4464 44.6672 12.1157 45.1267 11.887 45.5665C11.6584 46.0064 11.3405 46.5564 11.1806 46.7888C10.7663 47.3909 10.8067 47.9271 11.3034 48.4193C12.1277 49.2364 12.8735 48.8289 13.8368 47.0351C14.5655 45.6778 14.6249 45.0515 14.0663 44.616C13.6202 44.2681 13.0606 44.2409 12.6217 44.5454ZM48.9215 44.616C48.3628 45.0515 48.4222 45.6778 49.151 47.0351C50.1142 48.8289 50.86 49.2364 51.6844 48.4193C52.181 47.9271 52.2214 47.3909 51.8071 46.7888C51.6473 46.5564 51.3294 46.0064 51.1007 45.5665C50.4548 44.3243 49.7115 44.0001 48.9215 44.616ZM7.94902 50.6281C7.34008 50.9605 5.80132 52.0415 5.47134 52.3685C5.05311 52.783 5.10981 53.6671 5.57806 54.032C5.78398 54.1926 6.12575 54.324 6.33764 54.324C6.76709 54.324 8.13689 53.4967 9.02706 52.6996C9.5091 52.2679 9.609 52.0889 9.609 51.6561C9.609 50.7448 8.7309 50.201 7.94902 50.6281ZM54.004 50.5815C53.5109 50.7941 53.3787 51.0336 53.3787 51.7134C53.3787 52.2516 53.973 52.8558 55.4038 53.7723C56.4121 54.4182 56.9377 54.4715 57.4352 53.9782C57.7826 53.6341 57.9059 52.8977 57.6754 52.5441C57.4088 52.1354 54.7303 50.3315 54.4708 50.3858C54.4563 50.3889 54.2463 50.477 54.004 50.5815ZM10.3906 55.3257C9.94139 55.5786 9.75111 55.8916 9.75111 56.3775C9.75111 57.1464 10.1125 57.4171 11.5316 57.7109C13.2705 58.0709 13.7511 58.0615 14.1318 57.66C14.5277 57.2422 14.5482 56.4023 14.1713 56.0288C13.711 55.5726 10.8853 55.0471 10.3906 55.3257ZM51.4603 55.2613C51.3039 55.294 50.7068 55.4191 50.1332 55.5391C49.5412 55.6629 48.973 55.8736 48.8187 56.0265C48.4244 56.4174 48.4545 57.2874 48.8758 57.6798C49.2807 58.0565 49.7588 58.0623 51.4561 57.7109C52.8497 57.4223 53.2366 57.1446 53.2366 56.4326C53.2366 55.8454 53.1046 55.604 52.658 55.3751C52.259 55.1706 52.0071 55.1467 51.4603 55.2613ZM17.4476 57.7889C16.5761 58.394 16.824 59.3941 18.0138 60.0717C18.4324 60.3102 18.9953 60.6672 19.2645 60.8654C19.9044 61.3361 20.5892 61.3416 21.0552 60.8796C21.8493 60.0927 21.3229 59.2019 19.4082 58.0916C18.4142 57.5153 17.946 57.443 17.4476 57.7889ZM43.3275 58.2695C42.0186 59.0678 41.5836 59.5303 41.5836 60.124C41.5836 61.125 42.7981 61.5458 43.7232 60.8654C43.9924 60.6672 44.5553 60.3102 44.9739 60.0717C46.1637 59.3941 46.4117 58.394 45.5401 57.7889C45.0125 57.4226 44.5519 57.5226 43.3275 58.2695ZM23.1741 62.8388C22.5943 63.4133 22.7057 63.8631 23.8282 65.4826C24.3799 66.2785 24.9914 67.013 25.1873 67.1148C25.9566 67.5151 26.8611 66.9091 26.8352 66.0106C26.8223 65.5562 25.8467 63.9733 25.0223 63.0689C24.3801 62.3643 23.7338 62.2838 23.1741 62.8388ZM37.9654 63.0689C37.141 63.9733 36.1654 65.5562 36.1525 66.0106C36.1266 66.9091 37.0312 67.5151 37.8004 67.1148C38.3404 66.834 40.1625 64.1303 40.1625 63.61C40.1625 63.0174 39.6062 62.493 38.9776 62.493C38.5877 62.493 38.3855 62.6081 37.9654 63.0689ZM29.4269 65.2331C28.9379 65.7176 28.9633 66.3447 29.4934 66.87C29.9028 67.2758 29.9314 67.2817 31.4939 67.2817C33.0564 67.2817 33.0849 67.2758 33.4943 66.87C34.0244 66.3447 34.0498 65.7176 33.5609 65.2331C33.229 64.9041 33.1287 64.8874 31.4939 64.8874C29.859 64.8874 29.7587 64.9041 29.4269 65.2331Z" fill="#EDBC18"/>
</svg>
