<svg width="95" height="94" viewBox="0 0 95 94" fill="none" xmlns="http://www.w3.org/2000/svg">
<path fill-rule="evenodd" clip-rule="evenodd" d="M44.131 0.524561C43.6358 1.01835 43.605 1.18758 43.605 3.41873C43.605 5.64988 43.6358 5.8191 44.131 6.3129C44.8268 7.0069 45.8116 7.0069 46.5073 6.3129C47.0025 5.8191 47.0334 5.64988 47.0334 3.41873C47.0334 1.18758 47.0025 1.01835 46.5073 0.524561C46.1758 0.193799 45.7366 0 45.3192 0C44.9017 0 44.4625 0.193799 44.131 0.524561ZM32.7528 5.07639C31.9257 5.21249 31.507 5.94431 31.5809 7.12527C31.6133 7.64278 34.2506 10.36 35.0348 10.6837C36.2973 11.2053 37.7053 9.81944 37.1853 8.56733C36.8696 7.80774 34.4445 5.41954 33.7483 5.18279C33.4537 5.08258 33.0056 5.03472 32.7528 5.07639ZM56.7617 5.23365C55.9296 5.58855 53.5216 8.12717 53.3427 8.83805C53.0474 10.0109 54.4558 11.1579 55.6071 10.6825C56.3498 10.3756 58.7362 7.95645 59.0064 7.23638C59.1662 6.81011 59.13 6.50178 58.8573 5.96504C58.4317 5.12809 57.6494 4.85502 56.7617 5.23365ZM43.3088 10.4801C41.9529 10.8198 40.0231 11.9587 39.0863 12.9722C38.6053 13.4927 37.9063 14.561 37.5335 15.3458C36.9194 16.6383 36.8553 16.9659 36.8553 18.8141C36.8553 20.7404 36.9003 20.9457 37.6556 22.4696C38.6194 24.4144 39.8601 25.6257 41.8522 26.5667C43.1466 27.1783 43.4783 27.243 45.3192 27.243C47.16 27.243 47.4917 27.1783 48.7861 26.5667C50.7782 25.6257 52.0189 24.4144 52.9827 22.4696C53.7389 20.944 53.783 20.7421 53.783 18.803C53.783 16.8639 53.7389 16.662 52.9827 15.1364C51.5348 12.2149 48.9625 10.5006 45.8011 10.3506C44.8878 10.3073 43.7663 10.3656 43.3088 10.4801ZM44.0322 13.8621C41.069 14.8296 39.5155 17.7355 40.4896 20.4889C41.7558 24.067 46.2474 25.1093 48.9192 22.445C50.0424 21.325 50.3433 20.5782 50.3433 18.9098C50.3433 16.7622 49.4266 15.217 47.5952 14.2781C46.6714 13.8044 44.8574 13.5927 44.0322 13.8621ZM26.989 17.6182C26.6573 17.9488 26.463 18.3868 26.463 18.803C26.463 19.2192 26.6573 19.6573 26.989 19.9878C27.4842 20.4816 27.6539 20.5124 29.8914 20.5124C32.1288 20.5124 32.2985 20.4816 32.7937 19.9878C33.1254 19.6573 33.3198 19.2192 33.3198 18.803C33.3198 18.3868 33.1254 17.9488 32.7937 17.6182C32.2985 17.1244 32.1288 17.0936 29.8914 17.0936C27.6539 17.0936 27.4842 17.1244 26.989 17.6182ZM57.8446 17.6182C57.5129 17.9488 57.3186 18.3868 57.3186 18.803C57.3186 19.2192 57.5129 19.6573 57.8446 19.9878C58.3398 20.4816 58.5095 20.5124 60.747 20.5124C62.9844 20.5124 63.1541 20.4816 63.6493 19.9878C63.981 19.6573 64.1753 19.2192 64.1753 18.803C64.1753 18.3868 63.981 17.9488 63.6493 17.6182C63.1541 17.1244 62.9844 17.0936 60.747 17.0936C58.5095 17.0936 58.3398 17.1244 57.8446 17.6182ZM34.7125 27.1127C33.7965 27.6861 31.8788 29.7096 31.6527 30.3412C31.3538 31.1769 31.6456 31.9038 32.4402 32.3029C33.401 32.7854 33.9643 32.5523 35.5324 31.0239C36.8054 29.7829 37.391 28.9265 37.391 28.3056C37.391 27.8338 36.2318 26.7086 35.7468 26.7097C35.5315 26.7101 35.0661 26.8915 34.7125 27.1127ZM53.8737 27.3334C53.1708 28.0342 53.11 28.3936 53.5525 29.2301C53.9724 30.0239 56.2356 32.2001 56.8889 32.4382C58.1495 32.8974 59.4658 31.5948 58.9989 30.3504C58.7497 29.6867 56.572 27.4319 55.7758 27.0131C54.9369 26.5719 54.5765 26.6325 53.8737 27.3334ZM44.131 31.2931C43.6358 31.7869 43.605 31.9561 43.605 34.1873C43.605 36.4184 43.6358 36.5877 44.131 37.0815C44.4625 37.4122 44.9017 37.606 45.3192 37.606C45.7366 37.606 46.1758 37.4122 46.5073 37.0815C47.0025 36.5877 47.0334 36.4184 47.0334 34.1873C47.0334 31.9561 47.0025 31.7869 46.5073 31.2931C46.1758 30.9624 45.7366 30.7686 45.3192 30.7686C44.9017 30.7686 44.4625 30.9624 44.131 31.2931ZM52.0864 41.7356C51.4253 42.3948 51.3617 43.3302 51.9302 44.0304C52.276 44.4561 52.5895 44.5366 54.3549 44.6524C55.7923 44.7469 56.5969 44.9084 57.1184 45.2073C57.6029 45.4851 59.2314 47.4513 61.8873 50.9656C64.1053 53.9007 66.1302 56.4086 66.3871 56.5387C66.6438 56.6688 69.3126 56.9872 72.3178 57.2462C75.323 57.5052 80.2888 57.9562 83.353 58.2483L88.9241 58.7793L89.6741 59.5201L90.424 60.2609L90.5442 63.5166C90.6394 66.0979 90.7688 67.1039 91.1686 68.3746C91.6623 69.944 91.6653 70.0051 91.3171 71.3318C90.8654 73.052 90.2715 73.8796 89.1253 74.3851C88.2549 74.7691 82.3127 76.2849 81.7127 76.2761C81.5541 76.2738 81.1352 75.7832 80.7817 75.1858C79.2817 72.6512 75.9907 70.4213 72.7463 69.741C67.8272 68.7098 62.3592 71.1908 59.868 75.5843L59.3542 76.4909L43.474 76.4923L27.5939 76.4941L26.7049 75.1229C24.4038 71.5749 20.6694 69.5645 16.392 69.5709C13.0204 69.576 10.3229 70.6476 7.94489 72.9264C6.72095 74.099 6.59003 74.1687 5.77128 74.0828C5.29216 74.0326 4.65834 73.8334 4.36307 73.6405C3.82931 73.2918 3.82417 73.2584 3.54475 68.2145C3.16398 61.3452 3.22762 60.4673 4.215 58.9731C4.97482 57.8231 5.00375 57.7013 5.55808 53.3108C5.86963 50.8429 6.27226 48.4177 6.45268 47.9216C6.86601 46.7842 7.81354 45.9796 8.95326 45.7979C10.985 45.4738 11.5027 43.4508 9.78701 42.5392C8.73192 41.9788 6.18826 42.8666 4.75476 44.296C3.31976 45.727 2.95121 46.8631 2.3416 51.7343C1.81619 55.9342 1.76498 56.152 0.898455 57.8776L0 59.6669V62.8988C0 67.1107 0.302771 72.9546 0.577043 74.0332C0.862457 75.1561 2.26596 76.5291 3.64267 77.0327C4.23193 77.2483 4.74019 77.4417 4.77233 77.4626C4.80447 77.4836 4.68534 78.1154 4.5077 78.8669C3.51561 83.064 4.68319 87.2289 7.71326 90.3019C10.8697 93.5029 15.1445 94.6982 19.4808 93.5924C21.8016 93.0005 23.1033 92.2429 24.9875 90.3869C27.5472 87.8658 28.6057 85.3511 28.6057 81.791V79.9128H43.3907H58.1757L58.1793 81.4619C58.1879 84.9873 59.4131 88 61.8104 90.3905C68.3593 96.921 79.3737 94.2011 82.1772 85.3614C82.5194 84.2823 82.6598 83.2757 82.6808 81.748L82.7101 79.6305L86.3528 78.7382C88.3563 78.2474 90.333 77.6722 90.7454 77.4603C92.6264 76.4938 93.8061 75.0035 94.5218 72.6903C95.1413 70.6884 95.1574 69.2855 94.5788 67.7336C94.2403 66.8259 94.1061 65.78 93.9887 63.1396C93.8597 60.232 93.7676 59.5893 93.3729 58.8415C92.3999 56.9975 90.8657 55.7471 89.2455 55.4772C88.0814 55.2832 80.4787 54.5443 74.6748 54.0608C71.7875 53.8204 69.1075 53.5721 68.7195 53.5093C68.0895 53.4072 67.6097 52.8565 64.2465 48.3754C62.1744 45.6148 60.1725 43.1228 59.7977 42.8377C58.4195 41.7895 57.1298 41.3867 54.8184 41.2822C52.7005 41.1867 52.6242 41.1993 52.0864 41.7356ZM44.7738 41.9767C44.4421 42.3072 44.2478 42.7452 44.2478 43.1615C44.2478 43.9852 45.0839 44.8708 45.8615 44.8708C46.493 44.8708 47.6762 43.8275 47.6762 43.2706C47.6762 42.8108 47.2648 42.0529 46.8377 41.726C46.2744 41.2948 45.3442 41.4076 44.7738 41.9767ZM37.3955 42.195C36.4025 43.2493 37.1619 45.0845 38.5911 45.0845C39.3726 45.0845 40.1766 44.1873 40.1766 43.3153C40.1766 41.8292 38.4103 41.1179 37.3955 42.195ZM29.9889 42.404C29.6977 42.6942 29.4628 43.1788 29.4628 43.4886C29.4628 44.1183 30.5091 45.2982 31.0675 45.2982C31.5286 45.2982 32.2887 44.8879 32.6165 44.4621C33.3605 43.4958 32.4594 41.8794 31.177 41.8794C30.7596 41.8794 30.3203 42.0732 29.9889 42.404ZM15.7207 42.4848C14.9206 42.8867 14.6481 43.6012 14.9517 44.5014C15.5026 46.1347 18.1062 45.7225 18.1062 44.002C18.1062 42.5583 16.9892 41.8476 15.7207 42.4848ZM22.6433 42.5875C22.0553 43.2117 22.0425 44.2183 22.6144 44.8304C23.6656 45.9556 25.4773 45.2229 25.4773 43.6728C25.4773 42.2198 23.6495 41.5198 22.6433 42.5875ZM14.3564 73.1578C11.8678 73.7612 9.39874 75.7934 8.29158 78.1494C7.77368 79.2513 7.7139 79.6224 7.7139 81.7335C7.7139 83.9697 7.7499 84.1612 8.42679 85.5325C11.7386 92.2407 21.2062 92.2106 24.404 85.4815C25.0239 84.177 25.0702 83.9159 25.0702 81.729C25.0702 79.6228 25.0102 79.2508 24.4925 78.1494C23.3313 75.6787 20.7982 73.6629 18.1493 73.102C16.7499 72.8059 15.7473 72.8204 14.3564 73.1578ZM68.2691 73.186C64.4389 74.2586 61.9 77.3605 61.6632 81.2568C61.576 82.6907 61.6418 83.2612 62.0232 84.3821C62.8751 86.8857 64.4756 88.657 66.9346 89.819C68.2258 90.429 68.5371 90.4882 70.3893 90.4762C71.9739 90.4658 72.6979 90.3559 73.6574 89.9799C79.0703 87.859 81.0116 81.1726 77.5714 76.4992C76.6417 75.2362 75.0549 74.033 73.5846 73.476C72.0928 72.9106 69.7154 72.7809 68.2691 73.186Z" fill="black"/>
<path fill-rule="evenodd" clip-rule="evenodd" d="M44.1309 0.524561C43.6357 1.01835 43.6049 1.18758 43.6049 3.41873C43.6049 5.64988 43.6357 5.8191 44.1309 6.3129C44.8267 7.0069 45.8115 7.0069 46.5072 6.3129C47.0024 5.8191 47.0333 5.64988 47.0333 3.41873C47.0333 1.18758 47.0024 1.01835 46.5072 0.524561C46.1758 0.193799 45.7365 0 45.3191 0C44.9017 0 44.4624 0.193799 44.1309 0.524561ZM32.7527 5.07639C31.9256 5.21249 31.5069 5.94431 31.5808 7.12527C31.6132 7.64278 34.2505 10.36 35.0347 10.6837C36.2973 11.2053 37.7053 9.81944 37.1852 8.56733C36.8696 7.80774 34.4444 5.41954 33.7482 5.18279C33.4536 5.08258 33.0056 5.03472 32.7527 5.07639ZM56.7616 5.23365C55.9296 5.58855 53.5215 8.12717 53.3426 8.83805C53.0473 10.0109 54.4558 11.1579 55.6071 10.6825C56.3497 10.3756 58.7361 7.95645 59.0063 7.23638C59.1662 6.81011 59.13 6.50178 58.8572 5.96504C58.4316 5.12809 57.6493 4.85502 56.7616 5.23365ZM43.3088 10.4801C41.9528 10.8198 40.0231 11.9587 39.0863 12.9722C38.6052 13.4927 37.9062 14.561 37.5334 15.3458C36.9193 16.6383 36.8552 16.9659 36.8552 18.8141C36.8552 20.7404 36.9002 20.9457 37.6555 22.4696C38.6194 24.4144 39.86 25.6257 41.8521 26.5667C43.1466 27.1783 43.4783 27.243 45.3191 27.243C47.1599 27.243 47.4916 27.1783 48.7861 26.5667C50.7782 25.6257 52.0188 24.4144 52.9826 22.4696C53.7388 20.944 53.7829 20.7421 53.7829 18.803C53.7829 16.8639 53.7388 16.662 52.9826 15.1364C51.5348 12.2149 48.9624 10.5006 45.801 10.3506C44.8877 10.3073 43.7662 10.3656 43.3088 10.4801ZM44.0322 13.8621C41.0689 14.8296 39.5154 17.7355 40.4895 20.4889C41.7557 24.067 46.2473 25.1093 48.9191 22.445C50.0423 21.325 50.3432 20.5782 50.3432 18.9098C50.3432 16.7622 49.4265 15.217 47.5951 14.2781C46.6714 13.8044 44.8573 13.5927 44.0322 13.8621ZM26.9889 17.6182C26.6572 17.9488 26.4629 18.3868 26.4629 18.803C26.4629 19.2192 26.6572 19.6573 26.9889 19.9878C27.4841 20.4816 27.6538 20.5124 29.8913 20.5124C32.1287 20.5124 32.2985 20.4816 32.7936 19.9878C33.1253 19.6573 33.3197 19.2192 33.3197 18.803C33.3197 18.3868 33.1253 17.9488 32.7936 17.6182C32.2985 17.1244 32.1287 17.0936 29.8913 17.0936C27.6538 17.0936 27.4841 17.1244 26.9889 17.6182ZM57.8445 17.6182C57.5128 17.9488 57.3185 18.3868 57.3185 18.803C57.3185 19.2192 57.5128 19.6573 57.8445 19.9878C58.3397 20.4816 58.5094 20.5124 60.7469 20.5124C62.9843 20.5124 63.154 20.4816 63.6492 19.9878C63.9809 19.6573 64.1753 19.2192 64.1753 18.803C64.1753 18.3868 63.9809 17.9488 63.6492 17.6182C63.154 17.1244 62.9843 17.0936 60.7469 17.0936C58.5094 17.0936 58.3397 17.1244 57.8445 17.6182ZM34.7125 27.1127C33.7965 27.6861 31.8787 29.7096 31.6526 30.3412C31.3537 31.1769 31.6456 31.9038 32.4401 32.3029C33.4009 32.7854 33.9642 32.5523 35.5323 31.0239C36.8053 29.7829 37.3909 28.9265 37.3909 28.3056C37.3909 27.8338 36.2317 26.7086 35.7468 26.7097C35.5314 26.7101 35.066 26.8915 34.7125 27.1127ZM53.8736 27.3334C53.1708 28.0342 53.1099 28.3936 53.5524 29.2301C53.9724 30.0239 56.2355 32.2002 56.8889 32.4382C58.1494 32.8974 59.4657 31.5948 58.9988 30.3504C58.7496 29.6867 56.5719 27.4319 55.7757 27.0131C54.9368 26.5719 54.5764 26.6325 53.8736 27.3334ZM44.1309 31.2931C43.6357 31.7869 43.6049 31.9561 43.6049 34.1873C43.6049 36.4184 43.6357 36.5877 44.1309 37.0815C44.4624 37.4122 44.9017 37.606 45.3191 37.606C45.7365 37.606 46.1758 37.4122 46.5072 37.0815C47.0024 36.5877 47.0333 36.4184 47.0333 34.1873C47.0333 31.9561 47.0024 31.7869 46.5072 31.2931C46.1758 30.9624 45.7365 30.7686 45.3191 30.7686C44.9017 30.7686 44.4624 30.9624 44.1309 31.2931Z" fill="#EDBC18"/>
</svg>
