<svg width="45" height="67" viewBox="0 0 45 67" fill="none" xmlns="http://www.w3.org/2000/svg">
<path fill-rule="evenodd" clip-rule="evenodd" d="M1.62104 0.165003C1.04163 0.389378 0.727543 0.64748 0.343093 1.21512C0.0244509 1.68549 0 1.82235 0 3.13592C0 4.72855 0.161142 5.07104 0.910405 5.07104C1.59776 5.07104 1.82081 4.69521 1.82081 3.5374C1.82081 1.8932 1.7221 1.94568 4.81214 1.94568C7.33747 1.94568 7.40328 1.95258 7.60097 2.23516C7.7768 2.48636 7.80347 3.27981 7.80347 8.26151C7.80347 13.2432 7.7768 14.0366 7.60097 14.2878C7.40328 14.5704 7.33747 14.5773 4.81214 14.5773C2.28681 14.5773 2.221 14.5704 2.02331 14.2878C1.85384 14.0456 1.82081 13.4943 1.82081 10.9071C1.82081 7.8948 1.81353 7.80911 1.53611 7.55036C1.37965 7.40438 1.09808 7.28483 0.910405 7.28483C0.722731 7.28483 0.441156 7.40438 0.284697 7.55036C0.00546281 7.81067 0 7.88347 0 11.3008V14.7857L0.356879 15.3368C0.591373 15.6988 0.934856 15.9983 1.35793 16.2093C1.98286 16.5212 2.08509 16.5307 4.81214 16.5307C7.53919 16.5307 7.64142 16.5212 8.26634 16.2093C8.68942 15.9983 9.0329 15.6988 9.2674 15.3368C9.6127 14.8035 9.62428 14.7275 9.62428 12.9886V11.1915H13.8242H18.0243L18.8315 11.9776L19.6387 12.7636V33.3295V53.8954L18.8315 54.6814L18.0243 55.4674H13.8242H9.62428V53.6704C9.62428 51.9315 9.6127 51.8554 9.2674 51.3222C9.0329 50.9602 8.68942 50.6606 8.26634 50.4497C7.63934 50.1368 7.54855 50.1286 4.81916 50.1382C1.43363 50.1502 1.09418 50.2421 0.343093 51.3511L0 51.8575V58.3895V64.9217L0.356879 65.4728C0.591373 65.8348 0.934856 66.1343 1.35793 66.3453C1.98286 66.6571 2.08509 66.6666 4.81214 66.6666C7.53919 66.6666 7.64142 66.6571 8.26634 66.3453C8.68942 66.1343 9.0329 65.8348 9.2674 65.4728C9.6127 64.9395 9.62428 64.8634 9.62428 63.1246V61.3275H13.8638H18.1033L18.6862 61.9765C19.0793 62.4143 19.5914 62.7852 20.26 63.116C21.1979 63.5801 21.3179 63.6064 22.5 63.6064C23.6821 63.6064 23.8021 63.5801 24.74 63.116C25.4086 62.7852 25.9207 62.4143 26.3138 61.9765L26.8967 61.3275H31.1362H35.3757V63.1246C35.3757 64.8634 35.3873 64.9395 35.7326 65.4728C35.9671 65.8348 36.3106 66.1343 36.7337 66.3453C37.3586 66.6571 37.4608 66.6666 40.1879 66.6666C42.9149 66.6666 43.0171 66.6571 43.6421 66.3453C44.0651 66.1343 44.4086 65.8348 44.6431 65.4728L45 64.9217V58.3975V51.8733L44.6431 51.3222C44.4086 50.9602 44.0651 50.6606 43.6421 50.4497C43.0151 50.1368 42.9243 50.1286 40.1949 50.1382C36.8093 50.1502 36.4699 50.2421 35.7188 51.3511C35.3889 51.8381 35.3757 51.9269 35.3757 53.6626V55.4674H31.1758H26.9757L26.1685 54.6814L25.3613 53.8954V51.7609V49.6263L25.0186 49.3565C24.5872 49.0166 24.3155 49.0159 23.8868 49.3536C23.5549 49.615 23.547 49.6581 23.5116 51.3859L23.4754 53.1512L22.5 53.151L21.5246 53.1509V33.3295V13.5081H22.5H23.4754L23.5085 29.8451C23.5411 46.02 23.5441 46.1845 23.8028 46.4189C24.1379 46.7227 24.764 46.7224 25.0995 46.4185C25.3592 46.183 25.3613 46.0515 25.3613 29.4724V12.7636L26.1685 11.9776L26.9757 11.1915H31.1758H35.3757V12.9886C35.3757 14.7275 35.3873 14.8035 35.7326 15.3368C35.9671 15.6988 36.3106 15.9983 36.7337 16.2093C37.3586 16.5212 37.4608 16.5307 40.1879 16.5307C42.9149 16.5307 43.0171 16.5212 43.6421 16.2093C44.0651 15.9983 44.4086 15.6988 44.6431 15.3368L45 14.7857V8.26151V1.73732L44.6431 1.18621C44.4086 0.824193 44.0651 0.52468 43.6421 0.313718C43.0151 0.00079128 42.9243 -0.00741277 40.1949 0.00222375C36.8093 0.0142043 36.4699 0.106142 35.7188 1.21512C35.3889 1.70216 35.3757 1.79097 35.3757 3.52659V5.33148H34.5479C33.5087 5.33148 33.0347 5.63751 33.0347 6.30816C33.0347 6.97881 33.5087 7.28483 34.5479 7.28483H35.3757V8.26151V9.23818H31.539H27.7023V8.26151V7.28483H28.9437C30.0885 7.28483 30.2101 7.25996 30.5044 6.96513C30.68 6.78933 30.8237 6.49372 30.8237 6.30816C30.8237 6.12259 30.68 5.82698 30.5044 5.65118C30.1992 5.34542 30.1133 5.33148 28.5409 5.33148H26.8967L26.3138 4.68245C25.9207 4.24464 25.4086 3.87376 24.74 3.54299C23.8021 3.07888 23.6821 3.05257 22.5 3.05257C21.3179 3.05257 21.1979 3.07888 20.26 3.54299C19.5914 3.87376 19.0793 4.24464 18.6862 4.68245L18.1033 5.33148H13.8638H9.62428V3.5344C9.62428 1.79553 9.6127 1.71948 9.2674 1.18621C9.0329 0.824193 8.68942 0.52468 8.26634 0.313718C7.63934 0.00079128 7.54855 -0.00741277 4.81916 0.00222375C3.00759 0.00860469 1.87621 0.0661634 1.62104 0.165003ZM37.399 2.23516C37.2232 2.48636 37.1965 3.27981 37.1965 8.26151C37.1965 13.2432 37.2232 14.0366 37.399 14.2878C37.5967 14.5704 37.6625 14.5773 40.1879 14.5773C42.7132 14.5773 42.779 14.5704 42.9767 14.2878C43.1525 14.0366 43.1792 13.2432 43.1792 8.26151C43.1792 3.27981 43.1525 2.48636 42.9767 2.23516C42.779 1.95258 42.7132 1.94568 40.1879 1.94568C37.6625 1.94568 37.5967 1.95258 37.399 2.23516ZM21.5589 5.0627C20.6397 5.36 19.7995 6.12793 19.4313 7.00759C19.1772 7.61456 19.1772 8.90845 19.4313 9.51543C20.2673 11.5125 22.7644 12.1928 24.4779 10.8903C26.4448 9.39523 26.1328 6.40661 23.8884 5.24449C23.4199 5.00189 22.072 4.89667 21.5589 5.0627ZM9.62428 8.26151V9.23818H13.461H17.2977V8.26151V7.28483H13.461H9.62428V8.26151ZM2.02331 52.3711C1.84747 52.6223 1.82081 53.4158 1.82081 58.3975C1.82081 63.3792 1.84747 64.1726 2.02331 64.4238C2.221 64.7064 2.28681 64.7133 4.81214 64.7133C7.33747 64.7133 7.40328 64.7064 7.60097 64.4238C7.7768 64.1726 7.80347 63.3792 7.80347 58.3975C7.80347 53.4158 7.7768 52.6223 7.60097 52.3711C7.40328 52.0885 7.33747 52.0816 4.81214 52.0816C2.28681 52.0816 2.221 52.0885 2.02331 52.3711ZM37.399 52.3711C37.2232 52.6223 37.1965 53.4158 37.1965 58.3975C37.1965 63.3792 37.2232 64.1726 37.399 64.4238C37.5967 64.7064 37.6625 64.7133 40.1879 64.7133C42.7132 64.7133 42.779 64.7064 42.9767 64.4238C43.1525 64.1726 43.1792 63.3792 43.1792 58.3975C43.1792 53.4158 43.1525 52.6223 42.9767 52.3711C42.779 52.0885 42.7132 52.0816 40.1879 52.0816C37.6625 52.0816 37.5967 52.0885 37.399 52.3711ZM21.5589 55.1987C20.6397 55.496 19.7995 56.2639 19.4313 57.1436C19.1772 57.7505 19.1772 59.0444 19.4313 59.6514C20.2673 61.6485 22.7644 62.3288 24.4779 61.0263C26.4448 59.5312 26.1328 56.5426 23.8884 55.3805C23.4199 55.1379 22.072 55.0326 21.5589 55.1987ZM9.62428 58.3975V59.3741H13.461H17.2977V58.3975V57.4208H13.461H9.62428V58.3975ZM27.7023 58.3975V59.3741H31.539H35.3757V58.3975V57.4208H31.539H27.7023V58.3975Z" fill="black"/>
<mask id="mask0_486_93" style="mask-type:alpha" maskUnits="userSpaceOnUse" x="0" y="0" width="45" height="67">
<path fill-rule="evenodd" clip-rule="evenodd" d="M1.62104 0.165003C1.04163 0.389378 0.727543 0.64748 0.343093 1.21512C0.0244509 1.68549 0 1.82235 0 3.13592C0 4.72855 0.161142 5.07104 0.910405 5.07104C1.59776 5.07104 1.82081 4.69521 1.82081 3.5374C1.82081 1.8932 1.7221 1.94568 4.81214 1.94568C7.33747 1.94568 7.40328 1.95258 7.60097 2.23516C7.7768 2.48636 7.80347 3.27981 7.80347 8.26151C7.80347 13.2432 7.7768 14.0366 7.60097 14.2878C7.40328 14.5704 7.33747 14.5773 4.81214 14.5773C2.28681 14.5773 2.221 14.5704 2.02331 14.2878C1.85384 14.0456 1.82081 13.4943 1.82081 10.9071C1.82081 7.8948 1.81353 7.80911 1.53611 7.55036C1.37965 7.40438 1.09808 7.28483 0.910405 7.28483C0.722731 7.28483 0.441156 7.40438 0.284697 7.55036C0.00546281 7.81067 0 7.88347 0 11.3008V14.7857L0.356879 15.3368C0.591373 15.6988 0.934856 15.9983 1.35793 16.2093C1.98286 16.5212 2.08509 16.5307 4.81214 16.5307C7.53919 16.5307 7.64142 16.5212 8.26634 16.2093C8.68942 15.9983 9.0329 15.6988 9.2674 15.3368C9.6127 14.8035 9.62428 14.7275 9.62428 12.9886V11.1915H13.8242H18.0243L18.8315 11.9776L19.6387 12.7636V33.3295V53.8954L18.8315 54.6814L18.0243 55.4674H13.8242H9.62428V53.6704C9.62428 51.9315 9.6127 51.8554 9.2674 51.3222C9.0329 50.9602 8.68942 50.6606 8.26634 50.4497C7.63934 50.1368 7.54855 50.1286 4.81916 50.1382C1.43363 50.1502 1.09418 50.2421 0.343093 51.3511L0 51.8575V58.3895V64.9217L0.356879 65.4728C0.591373 65.8348 0.934856 66.1343 1.35793 66.3453C1.98286 66.6571 2.08509 66.6666 4.81214 66.6666C7.53919 66.6666 7.64142 66.6571 8.26634 66.3453C8.68942 66.1343 9.0329 65.8348 9.2674 65.4728C9.6127 64.9395 9.62428 64.8634 9.62428 63.1246V61.3275H13.8638H18.1033L18.6862 61.9765C19.0793 62.4143 19.5914 62.7852 20.26 63.116C21.1979 63.5801 21.3179 63.6064 22.5 63.6064C23.6821 63.6064 23.8021 63.5801 24.74 63.116C25.4086 62.7852 25.9207 62.4143 26.3138 61.9765L26.8967 61.3275H31.1362H35.3757V63.1246C35.3757 64.8634 35.3873 64.9395 35.7326 65.4728C35.9671 65.8348 36.3106 66.1343 36.7337 66.3453C37.3586 66.6571 37.4608 66.6666 40.1879 66.6666C42.9149 66.6666 43.0171 66.6571 43.6421 66.3453C44.0651 66.1343 44.4086 65.8348 44.6431 65.4728L45 64.9217V58.3975V51.8733L44.6431 51.3222C44.4086 50.9602 44.0651 50.6606 43.6421 50.4497C43.0151 50.1368 42.9243 50.1286 40.1949 50.1382C36.8093 50.1502 36.4699 50.2421 35.7188 51.3511C35.3889 51.8381 35.3757 51.9269 35.3757 53.6626V55.4674H31.1758H26.9757L26.1685 54.6814L25.3613 53.8954V51.7609V49.6263L25.0186 49.3565C24.5872 49.0166 24.3155 49.0159 23.8868 49.3536C23.5549 49.615 23.547 49.6581 23.5116 51.3859L23.4754 53.1512L22.5 53.151L21.5246 53.1509V33.3295V13.5081H22.5H23.4754L23.5085 29.8451C23.5411 46.02 23.5441 46.1845 23.8028 46.4189C24.1379 46.7227 24.764 46.7224 25.0995 46.4185C25.3592 46.183 25.3613 46.0515 25.3613 29.4724V12.7636L26.1685 11.9776L26.9757 11.1915H31.1758H35.3757V12.9886C35.3757 14.7275 35.3873 14.8035 35.7326 15.3368C35.9671 15.6988 36.3106 15.9983 36.7337 16.2093C37.3586 16.5212 37.4608 16.5307 40.1879 16.5307C42.9149 16.5307 43.0171 16.5212 43.6421 16.2093C44.0651 15.9983 44.4086 15.6988 44.6431 15.3368L45 14.7857V8.26151V1.73732L44.6431 1.18621C44.4086 0.824193 44.0651 0.52468 43.6421 0.313718C43.0151 0.00079128 42.9243 -0.00741277 40.1949 0.00222375C36.8093 0.0142043 36.4699 0.106142 35.7188 1.21512C35.3889 1.70216 35.3757 1.79097 35.3757 3.52659V5.33148H34.5479C33.5087 5.33148 33.0347 5.63751 33.0347 6.30816C33.0347 6.97881 33.5087 7.28483 34.5479 7.28483H35.3757V8.26151V9.23818H31.539H27.7023V8.26151V7.28483H28.9437C30.0885 7.28483 30.2101 7.25996 30.5044 6.96513C30.68 6.78933 30.8237 6.49372 30.8237 6.30816C30.8237 6.12259 30.68 5.82698 30.5044 5.65118C30.1992 5.34542 30.1133 5.33148 28.5409 5.33148H26.8967L26.3138 4.68245C25.9207 4.24464 25.4086 3.87376 24.74 3.54299C23.8021 3.07888 23.6821 3.05257 22.5 3.05257C21.3179 3.05257 21.1979 3.07888 20.26 3.54299C19.5914 3.87376 19.0793 4.24464 18.6862 4.68245L18.1033 5.33148H13.8638H9.62428V3.5344C9.62428 1.79553 9.6127 1.71948 9.2674 1.18621C9.0329 0.824193 8.68942 0.52468 8.26634 0.313718C7.63934 0.00079128 7.54855 -0.00741277 4.81916 0.00222375C3.00759 0.00860469 1.87621 0.0661634 1.62104 0.165003ZM37.399 2.23516C37.2232 2.48636 37.1965 3.27981 37.1965 8.26151C37.1965 13.2432 37.2232 14.0366 37.399 14.2878C37.5967 14.5704 37.6625 14.5773 40.1879 14.5773C42.7132 14.5773 42.779 14.5704 42.9767 14.2878C43.1525 14.0366 43.1792 13.2432 43.1792 8.26151C43.1792 3.27981 43.1525 2.48636 42.9767 2.23516C42.779 1.95258 42.7132 1.94568 40.1879 1.94568C37.6625 1.94568 37.5967 1.95258 37.399 2.23516ZM21.5589 5.0627C20.6397 5.36 19.7995 6.12793 19.4313 7.00759C19.1772 7.61456 19.1772 8.90845 19.4313 9.51543C20.2673 11.5125 22.7644 12.1928 24.4779 10.8903C26.4448 9.39523 26.1328 6.40661 23.8884 5.24449C23.4199 5.00189 22.072 4.89667 21.5589 5.0627ZM9.62428 8.26151V9.23818H13.461H17.2977V8.26151V7.28483H13.461H9.62428V8.26151ZM2.02331 52.3711C1.84747 52.6223 1.82081 53.4158 1.82081 58.3975C1.82081 63.3792 1.84747 64.1726 2.02331 64.4238C2.221 64.7064 2.28681 64.7133 4.81214 64.7133C7.33747 64.7133 7.40328 64.7064 7.60097 64.4238C7.7768 64.1726 7.80347 63.3792 7.80347 58.3975C7.80347 53.4158 7.7768 52.6223 7.60097 52.3711C7.40328 52.0885 7.33747 52.0816 4.81214 52.0816C2.28681 52.0816 2.221 52.0885 2.02331 52.3711ZM37.399 52.3711C37.2232 52.6223 37.1965 53.4158 37.1965 58.3975C37.1965 63.3792 37.2232 64.1726 37.399 64.4238C37.5967 64.7064 37.6625 64.7133 40.1879 64.7133C42.7132 64.7133 42.779 64.7064 42.9767 64.4238C43.1525 64.1726 43.1792 63.3792 43.1792 58.3975C43.1792 53.4158 43.1525 52.6223 42.9767 52.3711C42.779 52.0885 42.7132 52.0816 40.1879 52.0816C37.6625 52.0816 37.5967 52.0885 37.399 52.3711ZM21.5589 55.1987C20.6397 55.496 19.7995 56.2639 19.4313 57.1436C19.1772 57.7505 19.1772 59.0444 19.4313 59.6514C20.2673 61.6485 22.7644 62.3288 24.4779 61.0263C26.4448 59.5312 26.1328 56.5426 23.8884 55.3805C23.4199 55.1379 22.072 55.0326 21.5589 55.1987ZM9.62428 58.3975V59.3741H13.461H17.2977V58.3975V57.4208H13.461H9.62428V58.3975ZM27.7023 58.3975V59.3741H31.539H35.3757V58.3975V57.4208H31.539H27.7023V58.3975Z" fill="black"/>
</mask>
<g mask="url(#mask0_486_93)">
<rect x="17" width="11" height="66" fill="#EDBC18"/>
</g>
</svg>
