<svg width="82" height="83" viewBox="0 0 82 83" fill="none" xmlns="http://www.w3.org/2000/svg">
<path fill-rule="evenodd" clip-rule="evenodd" d="M29.5423 0.209481C29.1691 0.326154 27.1116 1.52449 24.97 2.8724C22.8284 4.2203 21.0449 5.32319 21.0068 5.32319C20.9687 5.32319 20.8903 5.13489 20.8326 4.90462C20.6485 4.17153 19.9489 3.23246 19.2651 2.80093C17.6264 1.76659 15.6667 1.96137 14.3374 3.2908C13.6254 4.00267 13.1235 5.17816 13.1235 6.13391C13.1235 6.85859 13.6 8.00831 14.1821 8.68842L14.737 9.33661L11.2968 11.4879C6.96768 14.1953 6.23695 14.7362 5.82872 15.5362C5.01355 17.1341 5.33427 18.9935 6.64388 20.2612C7.49048 21.0806 8.20322 21.3634 9.42581 21.3649L10.1847 21.3658L12.1808 24.5314C15.4677 29.7443 16.0606 30.6119 17.078 31.6996C20.4679 35.3229 25.3212 36.7621 30.5604 35.6974C31.0461 35.5987 31.0905 35.6407 31.9695 37.0286L32.8771 38.4618L23.3649 38.5428L13.8528 38.6238L13.0902 38.9994C12.6707 39.206 12.1086 39.6243 11.8412 39.9289C11.3585 40.4784 10.8547 41.8161 10.8547 42.5475C10.8547 42.9281 10.8536 42.9283 8.96458 42.8827L7.07464 42.837L6.89702 42.3086C5.9125 39.3804 1.61434 39.1967 0.303923 42.0268C0.0381438 42.6009 0.00330085 43.1263 0.000221701 46.6207C-0.0038298 51.0157 0.036199 51.2192 1.10628 52.2584C1.7939 52.9261 3.15391 53.3712 4.01381 53.21C5.33881 52.9614 6.65522 51.8669 6.93948 50.7773L7.06637 50.2912L8.93736 50.2458L10.8083 50.2003L10.9036 51.0044C11.0941 52.6125 12.275 54.05 13.7003 54.4088C14.0961 54.5086 14.42 54.6183 14.42 54.6528C14.42 54.6874 14.026 55.7259 13.5446 56.9607C11.2652 62.8069 10.1236 68.2374 9.93905 74.1121C9.8577 76.6992 9.88492 77.3358 10.1095 78.0976C10.8343 80.5554 12.9289 82.3954 15.4841 82.8188C18.8924 83.3834 22.3464 80.9775 22.9818 77.5961C23.0739 77.1059 23.1935 75.8298 23.2474 74.7603C23.4228 71.2831 23.7994 68.9491 24.7309 65.5677C25.2351 63.7375 25.275 63.4547 25.0857 63.0597C24.7953 62.4538 24.0961 62.218 23.5249 62.5332C23.0039 62.8206 22.3935 64.5071 21.7795 67.3568C21.2343 69.8873 21.0805 71.0547 20.8368 74.5177C20.5976 77.9166 20.4307 78.4387 19.2646 79.4368C17.4292 81.0077 14.9336 80.807 13.3055 78.9576C12.3518 77.8743 12.2557 77.3592 12.3703 73.95C12.5784 67.7532 13.9912 61.8599 16.8279 55.3551L17.1635 54.5854H21.9425H26.7214L25.5135 56.9996C24.1767 59.6718 24.0649 60.2062 24.7327 60.7314C25.597 61.4112 26.2164 61.0624 26.9779 59.4668C27.3022 58.7875 28.0188 57.4118 28.5701 56.4102L29.5726 54.5888L30.4766 54.5872L31.3806 54.5854L31.5699 56.6515C31.9045 60.302 32.6178 62.9704 34.0282 65.8477C34.9657 67.76 35.7961 68.8912 36.7599 69.5684C37.4031 70.0205 37.57 70.0609 38.7963 70.0609C40.0003 70.0609 40.2103 70.0124 40.9253 69.5705C41.9476 68.9386 42.6067 67.8911 42.7292 66.7038C42.8384 65.6463 42.6196 64.8824 41.8709 63.7059C41.0609 62.4332 40.5864 61.4322 40.1973 60.176C39.8103 58.9262 39.3797 56.3495 39.3783 55.2741L39.3773 54.5854H40.683C42.4563 54.5854 43.2847 54.348 44.1411 53.5942L44.8561 52.965H47.1964C49.3694 52.965 49.5589 52.9893 49.8454 53.3059C50.0151 53.4934 50.4821 53.8397 50.8834 54.0756C51.5556 54.4707 51.7825 54.5088 53.7772 54.5613C56.5565 54.6342 57.1728 54.4718 58.2685 53.3783C59.0851 52.5634 59.4728 51.6825 59.4728 50.6417C59.4728 50.2457 59.4794 50.244 61.377 50.1867C63.1167 50.1342 63.3479 50.0899 64.0545 49.6746C65.1761 49.0152 65.6894 48.1564 65.7654 46.8111C65.838 45.5268 65.5103 44.7309 64.5692 43.9046C63.7272 43.1653 63.3492 43.0556 61.3159 42.9597L59.5128 42.8746L59.4207 42.0971C59.2444 40.6097 58.2502 39.3086 56.9342 38.8435C56.5241 38.6985 55.5407 38.624 54.0437 38.6243C51.8443 38.6246 51.749 38.639 50.9268 39.0941C50.4604 39.3524 49.9665 39.735 49.8292 39.9445C49.5866 40.3146 49.515 40.3253 47.2808 40.3253H44.982L44.3963 39.7534C44.0743 39.4389 43.4685 39.0516 43.0502 38.893C42.3096 38.6118 42.2309 38.5109 40.0166 35.0038C38.6357 32.8165 37.7909 31.3257 37.8645 31.2055C37.9311 31.0966 38.2314 30.6848 38.5317 30.2902C40.1459 28.1703 41.1624 24.9712 41.1578 22.0247C41.1535 19.1456 40.3777 16.7825 38.3879 13.586C37.2603 11.7744 37.2071 11.7146 36.585 11.5584C36.2264 11.4685 36.0499 11.5422 35.6374 11.9546C34.9842 12.6078 35.0214 12.7443 36.5234 15.2001C37.2908 16.455 37.886 17.664 38.1839 18.5723C38.6041 19.8547 38.6474 20.195 38.6409 22.1761C38.6346 24.1328 38.5868 24.4987 38.1887 25.6422C36.8676 29.4379 34.1936 32.0042 30.2962 33.2171C29.3231 33.5201 28.7379 33.5914 27.3038 33.5817C23.598 33.5568 20.4102 32.0742 18.2717 29.3808C17.5502 28.4721 12.2541 20.2208 12.3499 20.1545C12.9124 19.7658 31.7864 7.91594 31.843 7.91594C31.8878 7.91594 32.2497 8.42299 32.6469 9.04265C33.0441 9.66232 33.5464 10.2854 33.763 10.4273C34.5012 10.9111 35.4878 10.3197 35.4878 9.39381C35.4878 9.17683 35.1201 8.42007 34.6707 7.71241L33.8538 6.4256L34.1778 5.75278C34.6699 4.73059 34.7506 3.87482 34.4516 2.84647C34.0957 1.62237 33.0811 0.577813 31.9102 0.230061C30.8954 -0.0711845 30.4526 -0.0750736 29.5423 0.209481ZM30.1541 2.52237C29.9499 2.60307 10.7696 14.671 8.8748 15.911C8.01313 16.4749 7.69419 17.0612 7.85382 17.7882C7.98379 18.3801 8.63479 18.9351 9.19925 18.9351C9.75625 18.9351 10.3748 18.564 21.4696 11.5754C26.8176 8.20665 31.4303 5.20409 31.7199 4.903C32.0095 4.60208 32.2466 4.20507 32.2466 4.02115C32.2466 2.96784 31.1017 2.14772 30.1541 2.52237ZM16.3466 4.75603C14.7375 5.63043 15.9773 8.12725 17.6721 7.42526C18.3947 7.12596 18.7182 6.4068 18.483 5.62184C18.1939 4.65669 17.2404 4.27021 16.3466 4.75603ZM34.6372 33.8885L33.3812 34.6968L33.7371 35.2829C33.9327 35.6052 34.4781 36.4707 34.9488 37.2059L35.8047 38.5428H37.592H39.3796L38.5915 37.2869C38.158 36.5963 37.4156 35.4112 36.9417 34.6537C36.4678 33.8961 36.038 33.2322 35.9865 33.1782C35.9351 33.1243 35.3279 33.4438 34.6372 33.8885ZM73.572 38.5489C70.5076 39.8628 68.1864 40.9511 68.0214 41.1514C67.8655 41.3407 67.7378 41.6731 67.7378 41.89C67.7378 42.3622 68.4073 43.0801 68.8476 43.0801C69.2618 43.0801 79.8332 38.5788 80.1405 38.2717C80.8589 37.5532 80.4082 36.3825 79.3901 36.3229C78.9937 36.2996 77.359 36.9251 73.572 38.5489ZM14.1641 41.2034C13.3172 41.5721 13.2658 41.9174 13.3187 46.873L13.3666 51.373L13.8214 51.7639L14.2761 52.1547H28.2167H42.1573L42.631 51.6811L43.1047 51.2074V46.7492C43.1047 44.1882 43.0361 42.1107 42.9436 41.8675C42.5976 40.9573 42.8588 40.973 28.1598 40.9798C17.2428 40.985 14.5678 41.0278 14.1641 41.2034ZM52.3421 41.0879C51.7896 41.2898 51.3698 41.8474 51.3698 42.3791V42.9181H54.2058C56.902 42.9181 57.0419 42.9027 57.0419 42.6045C57.0419 41.9599 56.7129 41.441 56.1567 41.2088C55.6032 40.9774 52.8803 40.8912 52.3421 41.0879ZM2.69577 42.7283C2.46321 42.9851 2.42756 43.5008 2.42756 46.6056V50.1867L2.85459 50.5224C3.41532 50.9635 3.81269 50.9465 4.29855 50.4605C4.6964 50.0629 4.6964 50.0624 4.6964 46.5714C4.6964 43.2961 4.67631 43.06 4.37228 42.756C3.95838 42.3421 3.05862 42.3274 2.69577 42.7283ZM45.5356 46.6508V50.5456L47.1967 50.4994L48.8578 50.4532L48.9012 46.6046L48.9447 42.756H47.2401H45.5356V46.6508ZM7.12731 46.5641V47.7795H8.991H10.8547V46.5641V45.3488H8.991H7.12731V46.5641ZM51.3698 46.5641V47.7795H54.2058H57.0419V46.5641V45.3488H54.2058H51.3698V46.5641ZM59.4728 46.5489V47.7795H60.942C62.8759 47.7795 63.3549 47.5356 63.3598 46.5487C63.364 45.6709 62.911 45.4377 61.0767 45.374L59.4728 45.3185V46.5489ZM69.0854 45.5119C68.3255 45.8182 68.172 46.7697 68.7839 47.3816L69.1816 47.7795H75.238H81.2943L81.6468 47.4045C82.1453 46.8738 82.1123 46.1094 81.5721 45.6847C81.1574 45.3585 80.976 45.3491 75.2923 45.359C72.0733 45.3646 69.2802 45.4335 69.0854 45.5119ZM68.4671 50.2353C67.6652 50.6738 67.5168 51.4111 68.1025 52.0455C68.5669 52.5488 78.6484 56.8541 79.3623 56.8541C79.9126 56.8541 80.5406 56.2427 80.5406 55.707C80.5406 55.0168 79.771 54.5895 74.4539 52.3275C71.5074 51.0739 69.0278 50.0504 68.9439 50.053C68.8599 50.0557 68.6454 50.1377 68.4671 50.2353ZM51.3698 50.7846C51.3698 51.1786 51.4949 51.4842 51.7676 51.7569C52.1462 52.1356 52.2601 52.1547 54.1298 52.1547C56.0852 52.1547 56.0967 52.1525 56.5682 51.6811C56.8864 51.3628 57.0419 51.0437 57.0419 50.7088V50.2102H54.2058H51.3698V50.7846ZM33.9424 56.0844C34.232 59.7964 34.9906 62.5306 36.5335 65.4241C37.4376 67.1194 38.0343 67.7125 38.8292 67.706C39.5144 67.7005 39.8696 67.4994 40.1612 66.9522C40.4646 66.3824 40.3829 65.8824 39.8484 65.0397C38.1187 62.3126 37.2989 59.717 37.0198 56.0844L36.9046 54.5854H35.365H33.8254L33.9424 56.0844Z" fill="black"/>
<mask id="mask0_486_99" style="mask-type:alpha" maskUnits="userSpaceOnUse" x="0" y="0" width="82" height="83">
<path fill-rule="evenodd" clip-rule="evenodd" d="M29.5423 0.209481C29.1691 0.326154 27.1116 1.52449 24.97 2.8724C22.8284 4.2203 21.0449 5.32319 21.0068 5.32319C20.9687 5.32319 20.8903 5.13489 20.8326 4.90462C20.6485 4.17153 19.9489 3.23246 19.2651 2.80093C17.6264 1.76659 15.6667 1.96137 14.3374 3.2908C13.6254 4.00267 13.1235 5.17816 13.1235 6.13391C13.1235 6.85859 13.6 8.00831 14.1821 8.68842L14.737 9.33661L11.2968 11.4879C6.96768 14.1953 6.23695 14.7362 5.82872 15.5362C5.01355 17.1341 5.33427 18.9935 6.64388 20.2612C7.49048 21.0806 8.20322 21.3634 9.42581 21.3649L10.1847 21.3658L12.1808 24.5314C15.4677 29.7443 16.0606 30.6119 17.078 31.6996C20.4679 35.3229 25.3212 36.7621 30.5604 35.6974C31.0461 35.5987 31.0905 35.6407 31.9695 37.0286L32.8771 38.4618L23.3649 38.5428L13.8528 38.6238L13.0902 38.9994C12.6707 39.206 12.1086 39.6243 11.8412 39.9289C11.3585 40.4784 10.8547 41.8161 10.8547 42.5475C10.8547 42.9281 10.8536 42.9283 8.96458 42.8827L7.07464 42.837L6.89702 42.3086C5.9125 39.3804 1.61434 39.1967 0.303923 42.0268C0.0381438 42.6009 0.00330085 43.1263 0.000221701 46.6207C-0.0038298 51.0157 0.036199 51.2192 1.10628 52.2584C1.7939 52.9261 3.15391 53.3712 4.01381 53.21C5.33881 52.9614 6.65522 51.8669 6.93948 50.7773L7.06637 50.2912L8.93736 50.2458L10.8083 50.2003L10.9036 51.0044C11.0941 52.6125 12.275 54.05 13.7003 54.4088C14.0961 54.5086 14.42 54.6183 14.42 54.6528C14.42 54.6874 14.026 55.7259 13.5446 56.9607C11.2652 62.8069 10.1236 68.2374 9.93905 74.1121C9.8577 76.6992 9.88492 77.3358 10.1095 78.0976C10.8343 80.5554 12.9289 82.3954 15.4841 82.8188C18.8924 83.3834 22.3464 80.9775 22.9818 77.5961C23.0739 77.1059 23.1935 75.8298 23.2474 74.7603C23.4228 71.2831 23.7994 68.9491 24.7309 65.5677C25.2351 63.7375 25.275 63.4547 25.0857 63.0597C24.7953 62.4538 24.0961 62.218 23.5249 62.5332C23.0039 62.8206 22.3935 64.5071 21.7795 67.3568C21.2343 69.8873 21.0805 71.0547 20.8368 74.5177C20.5976 77.9166 20.4307 78.4387 19.2646 79.4368C17.4292 81.0077 14.9336 80.807 13.3055 78.9576C12.3518 77.8743 12.2557 77.3592 12.3703 73.95C12.5784 67.7532 13.9912 61.8599 16.8279 55.3551L17.1635 54.5854H21.9425H26.7214L25.5135 56.9996C24.1767 59.6718 24.0649 60.2062 24.7327 60.7314C25.597 61.4112 26.2164 61.0624 26.9779 59.4668C27.3022 58.7875 28.0188 57.4118 28.5701 56.4102L29.5726 54.5888L30.4766 54.5872L31.3806 54.5854L31.5699 56.6515C31.9045 60.302 32.6178 62.9704 34.0282 65.8477C34.9657 67.76 35.7961 68.8912 36.7599 69.5684C37.4031 70.0205 37.57 70.0609 38.7963 70.0609C40.0003 70.0609 40.2103 70.0124 40.9253 69.5705C41.9476 68.9386 42.6067 67.8911 42.7292 66.7038C42.8384 65.6463 42.6196 64.8824 41.8709 63.7059C41.0609 62.4332 40.5864 61.4322 40.1973 60.176C39.8103 58.9262 39.3797 56.3495 39.3783 55.2741L39.3773 54.5854H40.683C42.4563 54.5854 43.2847 54.348 44.1411 53.5942L44.8561 52.965H47.1964C49.3694 52.965 49.5589 52.9893 49.8454 53.3059C50.0151 53.4934 50.4821 53.8397 50.8834 54.0756C51.5556 54.4707 51.7825 54.5088 53.7772 54.5613C56.5565 54.6342 57.1728 54.4718 58.2685 53.3783C59.0851 52.5634 59.4728 51.6825 59.4728 50.6417C59.4728 50.2457 59.4794 50.244 61.377 50.1867C63.1167 50.1342 63.3479 50.0899 64.0545 49.6746C65.1761 49.0152 65.6894 48.1564 65.7654 46.8111C65.838 45.5268 65.5103 44.7309 64.5692 43.9046C63.7272 43.1653 63.3492 43.0556 61.3159 42.9597L59.5128 42.8746L59.4207 42.0971C59.2444 40.6097 58.2502 39.3086 56.9342 38.8435C56.5241 38.6985 55.5407 38.624 54.0437 38.6243C51.8443 38.6246 51.749 38.639 50.9268 39.0941C50.4604 39.3524 49.9665 39.735 49.8292 39.9445C49.5866 40.3146 49.515 40.3253 47.2808 40.3253H44.982L44.3963 39.7534C44.0743 39.4389 43.4685 39.0516 43.0502 38.893C42.3096 38.6118 42.2309 38.5109 40.0166 35.0038C38.6357 32.8165 37.7909 31.3257 37.8645 31.2055C37.9311 31.0966 38.2314 30.6848 38.5317 30.2902C40.1459 28.1703 41.1624 24.9712 41.1578 22.0247C41.1535 19.1456 40.3777 16.7825 38.3879 13.586C37.2603 11.7744 37.2071 11.7146 36.585 11.5584C36.2264 11.4685 36.0499 11.5422 35.6374 11.9546C34.9842 12.6078 35.0214 12.7443 36.5234 15.2001C37.2908 16.455 37.886 17.664 38.1839 18.5723C38.6041 19.8547 38.6474 20.195 38.6409 22.1761C38.6346 24.1328 38.5868 24.4987 38.1887 25.6422C36.8676 29.4379 34.1936 32.0042 30.2962 33.2171C29.3231 33.5201 28.7379 33.5914 27.3038 33.5817C23.598 33.5568 20.4102 32.0742 18.2717 29.3808C17.5502 28.4721 12.2541 20.2208 12.3499 20.1545C12.9124 19.7658 31.7864 7.91594 31.843 7.91594C31.8878 7.91594 32.2497 8.42299 32.6469 9.04265C33.0441 9.66232 33.5464 10.2854 33.763 10.4273C34.5012 10.9111 35.4878 10.3197 35.4878 9.39381C35.4878 9.17683 35.1201 8.42007 34.6707 7.71241L33.8538 6.4256L34.1778 5.75278C34.6699 4.73059 34.7506 3.87482 34.4516 2.84647C34.0957 1.62237 33.0811 0.577813 31.9102 0.230061C30.8954 -0.0711845 30.4526 -0.0750736 29.5423 0.209481ZM30.1541 2.52237C29.9499 2.60307 10.7696 14.671 8.8748 15.911C8.01313 16.4749 7.69419 17.0612 7.85382 17.7882C7.98379 18.3801 8.63479 18.9351 9.19925 18.9351C9.75625 18.9351 10.3748 18.564 21.4696 11.5754C26.8176 8.20665 31.4303 5.20409 31.7199 4.903C32.0095 4.60208 32.2466 4.20507 32.2466 4.02115C32.2466 2.96784 31.1017 2.14772 30.1541 2.52237ZM16.3466 4.75603C14.7375 5.63043 15.9773 8.12725 17.6721 7.42526C18.3947 7.12596 18.7182 6.4068 18.483 5.62184C18.1939 4.65669 17.2404 4.27021 16.3466 4.75603ZM34.6372 33.8885L33.3812 34.6968L33.7371 35.2829C33.9327 35.6052 34.4781 36.4707 34.9488 37.2059L35.8047 38.5428H37.592H39.3796L38.5915 37.2869C38.158 36.5963 37.4156 35.4112 36.9417 34.6537C36.4678 33.8961 36.038 33.2322 35.9865 33.1782C35.9351 33.1243 35.3279 33.4438 34.6372 33.8885ZM73.572 38.5489C70.5076 39.8628 68.1864 40.9511 68.0214 41.1514C67.8655 41.3407 67.7378 41.6731 67.7378 41.89C67.7378 42.3622 68.4073 43.0801 68.8476 43.0801C69.2618 43.0801 79.8332 38.5788 80.1405 38.2717C80.8589 37.5532 80.4082 36.3825 79.3901 36.3229C78.9937 36.2996 77.359 36.9251 73.572 38.5489ZM14.1641 41.2034C13.3172 41.5721 13.2658 41.9174 13.3187 46.873L13.3666 51.373L13.8214 51.7639L14.2761 52.1547H28.2167H42.1573L42.631 51.6811L43.1047 51.2074V46.7492C43.1047 44.1882 43.0361 42.1107 42.9436 41.8675C42.5976 40.9573 42.8588 40.973 28.1598 40.9798C17.2428 40.985 14.5678 41.0278 14.1641 41.2034ZM52.3421 41.0879C51.7896 41.2898 51.3698 41.8474 51.3698 42.3791V42.9181H54.2058C56.902 42.9181 57.0419 42.9027 57.0419 42.6045C57.0419 41.9599 56.7129 41.441 56.1567 41.2088C55.6032 40.9774 52.8803 40.8912 52.3421 41.0879ZM2.69577 42.7283C2.46321 42.9851 2.42756 43.5008 2.42756 46.6056V50.1867L2.85459 50.5224C3.41532 50.9635 3.81269 50.9465 4.29855 50.4605C4.6964 50.0629 4.6964 50.0624 4.6964 46.5714C4.6964 43.2961 4.67631 43.06 4.37228 42.756C3.95838 42.3421 3.05862 42.3274 2.69577 42.7283ZM45.5356 46.6508V50.5456L47.1967 50.4994L48.8578 50.4532L48.9012 46.6046L48.9447 42.756H47.2401H45.5356V46.6508ZM7.12731 46.5641V47.7795H8.991H10.8547V46.5641V45.3488H8.991H7.12731V46.5641ZM51.3698 46.5641V47.7795H54.2058H57.0419V46.5641V45.3488H54.2058H51.3698V46.5641ZM59.4728 46.5489V47.7795H60.942C62.8759 47.7795 63.3549 47.5356 63.3598 46.5487C63.364 45.6709 62.911 45.4377 61.0767 45.374L59.4728 45.3185V46.5489ZM69.0854 45.5119C68.3255 45.8182 68.172 46.7697 68.7839 47.3816L69.1816 47.7795H75.238H81.2943L81.6468 47.4045C82.1453 46.8738 82.1123 46.1094 81.5721 45.6847C81.1574 45.3585 80.976 45.3491 75.2923 45.359C72.0733 45.3646 69.2802 45.4335 69.0854 45.5119ZM68.4671 50.2353C67.6652 50.6738 67.5168 51.4111 68.1025 52.0455C68.5669 52.5488 78.6484 56.8541 79.3623 56.8541C79.9126 56.8541 80.5406 56.2427 80.5406 55.707C80.5406 55.0168 79.771 54.5895 74.4539 52.3275C71.5074 51.0739 69.0278 50.0504 68.9439 50.053C68.8599 50.0557 68.6454 50.1377 68.4671 50.2353ZM51.3698 50.7846C51.3698 51.1786 51.4949 51.4842 51.7676 51.7569C52.1462 52.1356 52.2601 52.1547 54.1298 52.1547C56.0852 52.1547 56.0967 52.1525 56.5682 51.6811C56.8864 51.3628 57.0419 51.0437 57.0419 50.7088V50.2102H54.2058H51.3698V50.7846ZM33.9424 56.0844C34.232 59.7964 34.9906 62.5306 36.5335 65.4241C37.4376 67.1194 38.0343 67.7125 38.8292 67.706C39.5144 67.7005 39.8696 67.4994 40.1612 66.9522C40.4646 66.3824 40.3829 65.8824 39.8484 65.0397C38.1187 62.3126 37.2989 59.717 37.0198 56.0844L36.9046 54.5854H35.365H33.8254L33.9424 56.0844Z" fill="black"/>
</mask>
<g mask="url(#mask0_486_99)">
<path d="M56.5123 38H24.0123L9.51172 32.5C4.67857 18.6667 -5.18771 -9.4 -5.98771 -11C-6.78771 -12.6 31.679 -13 51.0123 -13L56.5123 38Z" fill="#EDBC18"/>
</g>
</svg>
