<svg width="74" height="70" viewBox="0 0 74 70" fill="none" xmlns="http://www.w3.org/2000/svg">
<path fill-rule="evenodd" clip-rule="evenodd" d="M50.042 0.204615C48.3735 0.657114 47.1153 1.63081 47.1153 2.46973C47.1153 2.91204 47.3758 3.22322 49.752 5.61874L52.3885 8.27683L49.0317 11.6575L45.6748 15.0381L43.0259 12.3847C40.6574 10.0122 40.3263 9.73126 39.8972 9.73126C39.2707 9.73126 38.5553 10.4804 37.9513 11.7689C37.5597 12.6046 37.5078 12.8676 37.5062 14.0248C37.504 15.5704 37.7932 16.5045 38.5984 17.5527L39.1307 18.2456L33.223 24.217C27.6806 29.8192 27.3153 30.2202 27.3153 30.7017C27.3153 31.0971 27.4313 31.3281 27.8211 31.7085C28.0993 31.9801 28.327 32.2708 28.327 32.3546C28.327 32.4384 21.9534 38.9268 14.1635 46.7732C1.7424 59.2843 0 61.0924 0 61.471C0 61.8413 0.523037 62.4294 3.67297 65.6016C7.27988 69.2341 7.3546 69.2988 7.82807 69.2045C8.2258 69.1254 10.7773 66.6246 22.4017 54.9205C30.152 47.1169 36.5616 40.7323 36.6453 40.7323C36.7288 40.7323 37.0178 40.9615 37.2875 41.2417C37.6652 41.6341 37.8948 41.7511 38.2872 41.7511C38.7649 41.7511 39.1483 41.3973 44.4447 36.0699L50.0928 30.3886L56.775 33.159C60.4502 34.6827 63.65 35.9293 63.8855 35.9293C64.4512 35.9293 64.8919 35.4693 64.8919 34.8785C64.8919 34.456 64.3477 33.8613 59.3652 28.8374L53.8386 23.2647L57.1963 19.8833L60.5541 16.5019L66.5208 22.5041C72.9872 29.0093 72.8759 28.9211 73.6422 28.1492C73.8373 27.9527 73.9983 27.6745 74 27.5307C74.0016 27.387 72.4953 23.0777 70.6526 17.9545L67.3023 8.63967L63.7524 5.03743C59.5225 0.745169 59.8005 0.877906 58.2316 2.40322L57.2359 3.37123L56.0193 2.19494C54.6999 0.919386 54.0763 0.532673 52.798 0.197338C51.7866 -0.0679906 51.04 -0.0659531 50.042 0.204615ZM50.6436 2.29318C49.7247 2.52868 49.7291 2.53624 52.3984 5.22737C54.6395 7.48695 54.9678 7.87643 54.9678 8.27624C54.9678 8.68202 54.5217 9.18415 51.0874 12.6445L47.2069 16.5544L47.8114 17.2147C48.7493 18.2394 48.7055 18.3613 46.6529 20.4522C45.0386 22.0967 44.8455 22.2481 44.3629 22.2481C43.7071 22.2481 43.3576 21.8888 43.3576 21.2145C43.3576 20.7812 43.5147 20.5557 44.5138 19.5555C45.1497 18.9189 45.67 18.3316 45.67 18.2504C45.67 18.0924 40.1712 12.4966 40.0159 12.4966C39.89 12.4966 39.5999 13.6907 39.5999 14.2089C39.5999 15.0601 40.0575 16.005 40.9192 16.9325C42.3313 18.4527 42.7178 17.8544 35.842 24.7919L29.9162 30.7709L30.7855 31.6374L31.6547 32.5036L36.1702 27.958C40.2382 23.8629 40.732 23.4125 41.1545 23.4125C41.7655 23.4125 42.2014 23.8529 42.2014 24.4704C42.2014 24.9018 41.7265 25.4238 37.1021 30.0739C33.4375 33.759 31.9119 35.2016 31.6792 35.2016C31.5012 35.2016 31.0734 34.9396 30.7284 34.6194C30.3834 34.2992 30.0433 34.0373 29.9725 34.0373C29.7932 34.0373 2.74598 61.2936 2.74598 61.4744C2.74598 61.5551 3.85131 62.7329 5.20219 64.0915L7.6584 66.5619L8.95595 65.2613L10.2535 63.9607L9.24572 62.9139C8.11828 61.743 7.99673 61.3383 8.59275 60.7382C9.18863 60.138 9.59056 60.2604 10.7533 61.3958L11.7927 62.4106L13.0839 61.1042L14.3751 59.7978L12.6217 58.0153C11.6573 57.0349 10.8258 56.0888 10.7741 55.9126C10.5827 55.2613 11.2023 54.5687 11.9832 54.5611C12.0956 54.56 13.0233 55.3919 14.0447 56.4097L15.902 58.2603L17.2002 56.9588L18.4987 55.6574L17.5306 54.6749C16.6911 53.8229 16.5626 53.6221 16.5626 53.1611C16.5626 52.7812 16.658 52.5517 16.8966 52.3571C17.4931 51.8707 17.8693 52.004 18.9912 53.0997L20.0306 54.1146L21.3192 52.8108L22.6078 51.5071L20.8608 49.7219C19.8998 48.7401 19.0697 47.7927 19.0158 47.6166C18.9013 47.2421 19.2444 46.4869 19.5897 46.3534C20.2733 46.0892 20.5425 46.2555 22.3861 48.0783L24.222 49.8936L25.4807 48.6201L26.7392 47.3467L25.9322 46.5502C25.4883 46.1121 25.0312 45.574 24.9165 45.3547C24.5192 44.5952 25.0341 43.7888 25.9163 43.7888C26.2328 43.7888 26.5708 44.0212 27.3351 44.7643L28.3385 45.7399L29.5931 44.4765L30.8476 43.213L29.0815 41.4139C27.4699 39.7723 27.3153 39.5681 27.3153 39.082C27.3153 38.4106 27.7272 37.967 28.3507 37.967C28.7422 37.967 29.0701 38.2281 30.6319 39.7844L32.4558 41.6018L33.7409 40.3015L35.0261 39.0012L34.4225 38.3417C34.0866 37.9748 33.8189 37.537 33.8189 37.3547C33.8189 37.1157 36.0387 34.7902 42.019 28.7643C48.9303 21.8001 50.2824 20.5016 50.6214 20.5016C50.8892 20.5016 51.2312 20.694 51.6432 21.0765L52.2625 21.6514L55.9395 17.9377C59.4995 14.3423 60.1105 13.8065 60.6521 13.8065C60.7937 13.8065 62.9486 15.8588 65.5009 18.4245C68.0275 20.9644 70.0948 23.0017 70.0948 22.952C70.0948 22.9022 69.0212 19.8907 67.7092 16.26L65.3236 9.65848L62.512 6.82662L59.7004 3.9946L58.6261 5.04369C58.0353 5.62063 57.4442 6.09263 57.3125 6.09263C56.8454 6.09263 56.2757 5.65949 54.9196 4.27303C54.1645 3.50092 53.3122 2.74656 53.0256 2.59664C52.4134 2.27645 51.2751 2.13134 50.6436 2.29318ZM43.5041 30.3238L36.4977 37.3807L37.3588 38.257L38.2199 39.1334L43.7154 33.6169C46.7379 30.5829 49.3544 28.0574 49.5298 28.0047C49.7567 27.9364 51.1326 28.4409 54.2992 29.7534C56.7469 30.768 58.8471 31.6317 58.9663 31.6724C59.0856 31.7133 57.2975 29.8389 54.9928 27.5068C52.6882 25.1749 50.7368 23.2669 50.6566 23.2669C50.5762 23.2669 47.3576 26.4426 43.5041 30.3238Z" fill="black"/>
<mask id="mask0_486_105" style="mask-type:alpha" maskUnits="userSpaceOnUse" x="0" y="0" width="74" height="70">
<path fill-rule="evenodd" clip-rule="evenodd" d="M50.042 0.204615C48.3735 0.657114 47.1153 1.63081 47.1153 2.46973C47.1153 2.91204 47.3758 3.22322 49.752 5.61874L52.3885 8.27683L49.0317 11.6575L45.6748 15.0381L43.0259 12.3847C40.6574 10.0122 40.3263 9.73126 39.8972 9.73126C39.2707 9.73126 38.5553 10.4804 37.9513 11.7689C37.5597 12.6046 37.5078 12.8676 37.5062 14.0248C37.504 15.5704 37.7932 16.5045 38.5984 17.5527L39.1307 18.2456L33.223 24.217C27.6806 29.8192 27.3153 30.2202 27.3153 30.7017C27.3153 31.0971 27.4313 31.3281 27.8211 31.7085C28.0993 31.9801 28.327 32.2708 28.327 32.3546C28.327 32.4384 21.9534 38.9268 14.1635 46.7732C1.7424 59.2843 0 61.0924 0 61.471C0 61.8413 0.523037 62.4294 3.67297 65.6016C7.27988 69.2341 7.3546 69.2988 7.82807 69.2045C8.2258 69.1254 10.7773 66.6246 22.4017 54.9205C30.152 47.1169 36.5616 40.7323 36.6453 40.7323C36.7288 40.7323 37.0178 40.9615 37.2875 41.2417C37.6652 41.6341 37.8948 41.7511 38.2872 41.7511C38.7649 41.7511 39.1483 41.3973 44.4447 36.0699L50.0928 30.3886L56.775 33.159C60.4502 34.6827 63.65 35.9293 63.8855 35.9293C64.4512 35.9293 64.8919 35.4693 64.8919 34.8785C64.8919 34.456 64.3477 33.8613 59.3652 28.8374L53.8386 23.2647L57.1963 19.8833L60.5541 16.5019L66.5208 22.5041C72.9872 29.0093 72.8759 28.9211 73.6422 28.1492C73.8373 27.9527 73.9983 27.6745 74 27.5307C74.0016 27.387 72.4953 23.0777 70.6526 17.9545L67.3023 8.63967L63.7524 5.03743C59.5225 0.745169 59.8005 0.877906 58.2316 2.40322L57.2359 3.37123L56.0193 2.19494C54.6999 0.919386 54.0763 0.532673 52.798 0.197338C51.7866 -0.0679906 51.04 -0.0659531 50.042 0.204615ZM50.6436 2.29318C49.7247 2.52868 49.7291 2.53624 52.3984 5.22737C54.6395 7.48695 54.9678 7.87643 54.9678 8.27624C54.9678 8.68202 54.5217 9.18415 51.0874 12.6445L47.2069 16.5544L47.8114 17.2147C48.7493 18.2394 48.7055 18.3613 46.6529 20.4522C45.0386 22.0967 44.8455 22.2481 44.3629 22.2481C43.7071 22.2481 43.3576 21.8888 43.3576 21.2145C43.3576 20.7812 43.5147 20.5557 44.5138 19.5555C45.1497 18.9189 45.67 18.3316 45.67 18.2504C45.67 18.0924 40.1712 12.4966 40.0159 12.4966C39.89 12.4966 39.5999 13.6907 39.5999 14.2089C39.5999 15.0601 40.0575 16.005 40.9192 16.9325C42.3313 18.4527 42.7178 17.8544 35.842 24.7919L29.9162 30.7709L30.7855 31.6374L31.6547 32.5036L36.1702 27.958C40.2382 23.8629 40.732 23.4125 41.1545 23.4125C41.7655 23.4125 42.2014 23.8529 42.2014 24.4704C42.2014 24.9018 41.7265 25.4238 37.1021 30.0739C33.4375 33.759 31.9119 35.2016 31.6792 35.2016C31.5012 35.2016 31.0734 34.9396 30.7284 34.6194C30.3834 34.2992 30.0433 34.0373 29.9725 34.0373C29.7932 34.0373 2.74598 61.2936 2.74598 61.4744C2.74598 61.5551 3.85131 62.7329 5.20219 64.0915L7.6584 66.5619L8.95595 65.2613L10.2535 63.9607L9.24572 62.9139C8.11828 61.743 7.99673 61.3383 8.59275 60.7382C9.18863 60.138 9.59056 60.2604 10.7533 61.3958L11.7927 62.4106L13.0839 61.1042L14.3751 59.7978L12.6217 58.0153C11.6573 57.0349 10.8258 56.0888 10.7741 55.9126C10.5827 55.2613 11.2023 54.5687 11.9832 54.5611C12.0956 54.56 13.0233 55.3919 14.0447 56.4097L15.902 58.2603L17.2002 56.9588L18.4987 55.6574L17.5306 54.6749C16.6911 53.8229 16.5626 53.6221 16.5626 53.1611C16.5626 52.7812 16.658 52.5517 16.8966 52.3571C17.4931 51.8707 17.8693 52.004 18.9912 53.0997L20.0306 54.1146L21.3192 52.8108L22.6078 51.5071L20.8608 49.7219C19.8998 48.7401 19.0697 47.7927 19.0158 47.6166C18.9013 47.2421 19.2444 46.4869 19.5897 46.3534C20.2733 46.0892 20.5425 46.2555 22.3861 48.0783L24.222 49.8936L25.4807 48.6201L26.7392 47.3467L25.9322 46.5502C25.4883 46.1121 25.0312 45.574 24.9165 45.3547C24.5192 44.5952 25.0341 43.7888 25.9163 43.7888C26.2328 43.7888 26.5708 44.0212 27.3351 44.7643L28.3385 45.7399L29.5931 44.4765L30.8476 43.213L29.0815 41.4139C27.4699 39.7723 27.3153 39.5681 27.3153 39.082C27.3153 38.4106 27.7272 37.967 28.3507 37.967C28.7422 37.967 29.0701 38.2281 30.6319 39.7844L32.4558 41.6018L33.7409 40.3015L35.0261 39.0012L34.4225 38.3417C34.0866 37.9748 33.8189 37.537 33.8189 37.3547C33.8189 37.1157 36.0387 34.7902 42.019 28.7643C48.9303 21.8001 50.2824 20.5016 50.6214 20.5016C50.8892 20.5016 51.2312 20.694 51.6432 21.0765L52.2625 21.6514L55.9395 17.9377C59.4995 14.3423 60.1105 13.8065 60.6521 13.8065C60.7937 13.8065 62.9486 15.8588 65.5009 18.4245C68.0275 20.9644 70.0948 23.0017 70.0948 22.952C70.0948 22.9022 69.0212 19.8907 67.7092 16.26L65.3236 9.65848L62.512 6.82662L59.7004 3.9946L58.6261 5.04369C58.0353 5.62063 57.4442 6.09263 57.3125 6.09263C56.8454 6.09263 56.2757 5.65949 54.9196 4.27303C54.1645 3.50092 53.3122 2.74656 53.0256 2.59664C52.4134 2.27645 51.2751 2.13134 50.6436 2.29318ZM43.5041 30.3238L36.4977 37.3807L37.3588 38.257L38.2199 39.1334L43.7154 33.6169C46.7379 30.5829 49.3544 28.0574 49.5298 28.0047C49.7567 27.9364 51.1326 28.4409 54.2992 29.7534C56.7469 30.768 58.8471 31.6317 58.9663 31.6724C59.0856 31.7133 57.2975 29.8389 54.9928 27.5068C52.6882 25.1749 50.7368 23.2669 50.6566 23.2669C50.5762 23.2669 47.3576 26.4426 43.5041 30.3238Z" fill="black"/>
</mask>
<g mask="url(#mask0_486_105)">
<path d="M68 37.5L37 6V-11L48.5 -24L88 -13L91.5 35.5L68 37.5Z" fill="#EDBC18"/>
</g>
</svg>
