<svg width="72" height="72" viewBox="0 0 72 72" fill="none" xmlns="http://www.w3.org/2000/svg">
<path fill-rule="evenodd" clip-rule="evenodd" d="M50.274 0.356371L49.9178 0.712597V6.39827V12.0838L51.0787 13.2735L52.2395 14.4634V15.3607V16.2581L50.9698 16.2617C49.299 16.2665 44.771 17.3649 44.3675 17.8634C44.1456 18.1375 44.1134 18.5229 44.1134 20.9032C44.1134 23.2836 44.1456 23.669 44.3675 23.943C44.5608 24.1818 45.2285 24.4103 47.1608 24.8991L49.7001 25.5411L53.9929 25.5448L58.2857 25.5484L59.197 29.6492C60.202 34.1717 60.552 35.4398 60.8878 35.7757C61.0579 35.9459 61.4377 36 62.4611 36H63.8103L63.882 37.4879C63.9645 39.2027 64.3037 40.3515 65.155 41.8014C65.853 42.9899 66.1701 44.0655 66.1701 45.2442C66.1701 45.7486 66.1387 46.1613 66.1006 46.1613C66.0624 46.1613 65.5236 45.9864 64.9034 45.7724C63.8442 45.4073 63.5642 45.378 60.2931 45.2915C57.1847 45.2092 56.7247 45.1653 56.0124 44.8826C55.4499 44.6593 54.0647 43.6472 51.3198 41.4537C46.4644 37.5737 45.0141 36.7746 41.8089 36.2131C40.0458 35.9042 26.9681 35.9067 24.9149 36.2161C21.3689 36.7509 18.3641 38.2745 15.3091 41.087C12.5434 43.633 10.635 44.5393 6.15106 45.4356C4.88294 45.6891 3.56274 46.02 3.21708 46.171C1.81155 46.7852 0.745284 48.0012 0.268163 49.5348C0.0282963 50.3059 0 50.9474 0 55.6164V60.8358L0.356245 61.192L0.712344 61.5484H4.04044C8.21844 61.5484 8.01587 61.65 8.13979 59.4928C8.24035 57.7434 8.56946 56.8883 9.50121 55.9562C10.4546 55.0025 11.3174 54.6603 12.7697 54.6603C14.2219 54.6603 15.0847 55.0025 16.0381 55.9562C16.9699 56.8883 17.299 57.7434 17.3995 59.4928C17.5282 61.7335 16.9179 61.5484 24.1769 61.5484H30.1828V63.2903V65.0323H21.2521H12.3211L11.965 65.3886C11.6117 65.7419 11.6088 65.7674 11.6088 68.5161C11.6088 71.2649 11.6117 71.2903 11.965 71.6436L12.3211 72H35.9872H59.6533L60.0094 71.6436C60.3628 71.2903 60.3657 71.2649 60.3657 68.5161C60.3657 65.7674 60.3628 65.7419 60.0094 65.3886L59.6533 65.0323H50.7224H41.7916V63.2903V61.5484H46.0563C51.3108 61.5484 50.9662 61.689 51.0923 59.4928C51.1929 57.7434 51.522 56.8883 52.4537 55.9562C53.4071 55.0025 54.2699 54.6603 55.7222 54.6603C57.1744 54.6603 58.0372 55.0025 58.9906 55.9562C59.9224 56.8883 60.2515 57.7434 60.352 59.4928C60.4796 61.7129 60.0122 61.5484 66.1927 61.5484H71.2621L71.631 61.1794L72 60.8102L71.9422 57.1512C71.8871 53.6551 71.8672 53.4401 71.4979 52.3306C71.013 50.8741 70.2574 49.5912 69.2812 48.5668L68.5238 47.7719L68.4608 45.6238C68.3897 43.1946 68.1649 42.3189 67.1851 40.6502C66.4649 39.4238 66.1701 38.3817 66.1701 37.0623V36H66.9747C67.6357 36 67.8432 35.9363 68.1356 35.6436C68.3315 35.4477 68.4918 35.1523 68.4918 34.9869C68.4918 34.7584 67.033 27.9739 66.5327 25.875C66.4565 25.5556 66.4823 25.5484 67.6975 25.5484C68.8235 25.5484 68.9739 25.5149 69.2965 25.192C69.6498 24.8387 69.6527 24.8133 69.6527 22.0645C69.6527 19.3157 69.6498 19.2903 69.2965 18.937C68.9588 18.5992 68.8518 18.5806 67.2387 18.5806H65.537L64.3475 17.4194L63.1582 16.2581H61.1815H59.2048V15.3607V14.4634L60.3657 13.2735L61.5266 12.0838V6.39827V0.712597L61.1703 0.356371L60.8142 0H55.7222H50.6301L50.274 0.356371ZM52.2395 3.48387V4.64516H55.7222H59.2048V3.48387V2.32258H55.7222H52.2395V3.48387ZM52.2395 9.02642V11.085L53.4004 12.2748L54.5613 13.4646V14.8613V16.2581H55.7222H56.883V14.8613V13.4646L58.0439 12.2748L59.2048 11.085V9.02642V6.96774H55.7222H52.2395V9.02642ZM33.6632 9.36523L32.8727 10.1659L36.3158 13.6102L39.7589 17.0544L40.5924 16.2206L41.4261 15.3867L38.0186 11.9757C36.1444 10.0995 34.5756 8.56452 34.5324 8.56452C34.4891 8.56452 34.0979 8.92481 33.6632 9.36523ZM51.0787 20.9032V23.2258H55.3659C59.62 23.2258 59.6558 23.2283 59.9752 23.5524C60.2365 23.8175 60.4986 24.8015 61.3672 28.7782L62.4376 33.6774H64.1615C65.8755 33.6774 65.8849 33.6755 65.8074 33.3508C65.3071 31.2519 63.8483 24.4674 63.8483 24.2389C63.8483 24.0735 64.0087 23.7781 64.2046 23.5822C64.5329 23.2535 64.6686 23.2258 65.9459 23.2258H67.3309V22.0645V20.9032H65.9347H64.5385L63.3491 19.7419L62.1597 18.5806H56.6192H51.0787V20.9032ZM47.5597 19.1916L46.4351 19.4841V20.9015V22.319L47.596 22.6106L48.7569 22.9022V20.8865C48.7569 19.7779 48.7405 18.8774 48.7206 18.885C48.7007 18.8929 48.1782 19.0308 47.5597 19.1916ZM26.7002 20.9032V22.0645H34.2459H41.7916V20.9032V19.7419H34.2459H26.7002V20.9032ZM36.2776 28.2337L32.8701 31.6447L33.7038 32.4787L34.5373 33.3125L37.9805 29.8682L41.4235 26.424L40.6331 25.6233C40.1983 25.1829 39.8071 24.8226 39.7639 24.8226C39.7206 24.8226 38.1518 26.3575 36.2776 28.2337ZM25.0033 38.5342C21.9492 39.1002 19.5845 40.3258 17.0748 42.6436C13.9253 45.5523 11.6233 46.6913 7.03115 47.613C4.44921 48.1313 3.88909 48.3222 3.28296 48.8908C2.36761 49.7494 2.32843 49.9921 2.32495 54.8347L2.32176 59.2258H4.03724H5.75288L5.91395 58.1849C6.37525 55.2037 8.75912 52.8275 11.7539 52.3637C15.4697 51.7885 19.0448 54.4321 19.6254 58.1849L19.7864 59.2258H34.2459H48.7054L48.8665 58.1849C49.447 54.4321 53.0221 51.7885 56.7379 52.3637C59.7327 52.8275 62.1166 55.2037 62.5779 58.1849L62.739 59.2258H66.1959H69.6527V57.0025C69.6527 54.3147 69.5002 53.3913 68.8214 51.9677C67.8233 49.8748 65.6144 48.1798 63.35 47.7691C62.8765 47.6832 61.3093 47.6119 59.8674 47.6107C56.9395 47.6084 55.9609 47.4487 54.5707 46.7467C54.0985 46.5082 52.0914 45.0208 50.11 43.4411C46.3173 40.4173 45.5108 39.8543 44.1523 39.2828C42.056 38.401 42.2476 38.4177 33.8106 38.3776C27.8312 38.3491 25.8073 38.3851 25.0033 38.5342ZM24.6838 40.8696C22.1706 41.4149 19.9892 43.0897 18.358 45.7258C17.3139 47.4132 17.2154 47.8637 17.7694 48.4178L18.1255 48.7742H22.6371H27.1487L27.5048 48.4178L27.8611 48.0616V44.7097V41.3578L27.5048 41.0015C27.2123 40.7087 27.0118 40.6472 26.3802 40.6566C25.9577 40.663 25.1943 40.7588 24.6838 40.8696ZM30.5537 40.9867L30.1828 41.3578V44.7097V48.0616L30.5391 48.4178L30.8952 48.7742H40.0503H49.2054L49.5615 48.4178C50.1408 47.8385 50.0379 47.3356 49.1184 46.2513C47.5552 44.408 44.9787 42.6343 42.534 41.7186C40.2622 40.8675 39.5012 40.763 35.0159 40.686L30.9248 40.6155L30.5537 40.9867ZM32.5046 44.6939V46.4516L39.2885 46.4484L46.0724 46.4452L45.7096 46.1568C44.1867 44.9464 42.0921 43.8987 40.1954 43.3984C39.1508 43.1229 38.4677 43.0625 35.7333 43.0046L32.5046 42.9362V44.6939ZM24.185 43.468C22.8446 44.0193 21.663 44.9383 20.8797 46.0386L20.5859 46.4516H23.0626H25.5393V44.7823C25.5393 42.8565 25.5787 42.8947 24.185 43.468ZM32.5046 63.2903V65.0323H35.9872H39.4699V63.2903V61.5484H35.9872H32.5046V63.2903ZM13.9305 68.5161V69.6774H35.9872H58.0439V68.5161V67.3548H35.9872H13.9305V68.5161Z" fill="black"/>
<mask id="mask0_474_194" style="mask-type:alpha" maskUnits="userSpaceOnUse" x="0" y="0" width="72" height="72">
<path fill-rule="evenodd" clip-rule="evenodd" d="M50.274 0.356371L49.9178 0.712597V6.39827V12.0838L51.0787 13.2735L52.2395 14.4634V15.3607V16.2581L50.9698 16.2617C49.299 16.2665 44.771 17.3649 44.3675 17.8634C44.1456 18.1375 44.1134 18.5229 44.1134 20.9032C44.1134 23.2836 44.1456 23.669 44.3675 23.943C44.5608 24.1818 45.2285 24.4103 47.1608 24.8991L49.7001 25.5411L53.9929 25.5448L58.2857 25.5484L59.197 29.6492C60.202 34.1717 60.552 35.4398 60.8878 35.7757C61.0578 35.9459 61.4377 36 62.4611 36H63.8103L63.882 37.4879C63.9645 39.2027 64.3037 40.3515 65.155 41.8014C65.853 42.9899 66.1701 44.0655 66.1701 45.2442C66.1701 45.7486 66.1387 46.1613 66.1006 46.1613C66.0624 46.1613 65.5236 45.9864 64.9034 45.7724C63.8442 45.4073 63.5642 45.378 60.2931 45.2915C57.1847 45.2092 56.7247 45.1653 56.0124 44.8826C55.4499 44.6593 54.0647 43.6472 51.3198 41.4537C46.4644 37.5737 45.0141 36.7746 41.8089 36.2131C40.0458 35.9042 26.9681 35.9067 24.9149 36.2161C21.3689 36.7509 18.3641 38.2745 15.3091 41.087C12.5434 43.633 10.635 44.5393 6.15106 45.4356C4.88294 45.6891 3.56274 46.02 3.21708 46.171C1.81155 46.7852 0.745284 48.0012 0.268163 49.5348C0.0282963 50.3059 0 50.9474 0 55.6164V60.8358L0.356245 61.192L0.712344 61.5484H4.04044C8.21844 61.5484 8.01587 61.65 8.13979 59.4928C8.24035 57.7434 8.56946 56.8883 9.50121 55.9562C10.4546 55.0025 11.3174 54.6603 12.7697 54.6603C14.2219 54.6603 15.0847 55.0025 16.0381 55.9562C16.9699 56.8883 17.299 57.7434 17.3995 59.4928C17.5282 61.7335 16.9179 61.5484 24.1769 61.5484H30.1828V63.2903V65.0323H21.2521H12.3211L11.965 65.3886C11.6117 65.742 11.6088 65.7673 11.6088 68.5161C11.6088 71.2649 11.6117 71.2903 11.965 71.6436L12.3211 72H35.9872H59.6533L60.0094 71.6436C60.3628 71.2903 60.3657 71.2649 60.3657 68.5161C60.3657 65.7673 60.3628 65.742 60.0094 65.3886L59.6533 65.0323H50.7224H41.7916V63.2903V61.5484H46.0563C51.3108 61.5484 50.9662 61.689 51.0923 59.4928C51.1929 57.7434 51.522 56.8883 52.4537 55.9562C53.4071 55.0025 54.2699 54.6603 55.7222 54.6603C57.1744 54.6603 58.0372 55.0025 58.9906 55.9562C59.9224 56.8883 60.2515 57.7434 60.352 59.4928C60.4796 61.7129 60.0122 61.5484 66.1927 61.5484H71.2621L71.631 61.1794L72 60.8102L71.9423 57.1512C71.8871 53.6551 71.8672 53.4401 71.4979 52.3306C71.013 50.8741 70.2574 49.5912 69.2812 48.5668L68.5238 47.7719L68.4608 45.6238C68.3897 43.1946 68.1649 42.3189 67.1851 40.6502C66.4649 39.4238 66.1701 38.3817 66.1701 37.0623V36H66.9747C67.6357 36 67.8432 35.9363 68.1356 35.6436C68.3315 35.4477 68.4918 35.1523 68.4918 34.9869C68.4918 34.7584 67.033 27.9739 66.5327 25.875C66.4565 25.5556 66.4823 25.5484 67.6975 25.5484C68.8235 25.5484 68.9739 25.5149 69.2965 25.192C69.6498 24.8387 69.6527 24.8133 69.6527 22.0645C69.6527 19.3157 69.6498 19.2903 69.2965 18.937C68.9588 18.5992 68.8518 18.5806 67.2387 18.5806H65.537L64.3475 17.4194L63.1582 16.2581H61.1815H59.2048V15.3607V14.4634L60.3657 13.2735L61.5266 12.0838V6.39827V0.712597L61.1703 0.356371L60.8142 0H55.7222H50.6301L50.274 0.356371ZM52.2395 3.48387V4.64516H55.7222H59.2048V3.48387V2.32258H55.7222H52.2395V3.48387ZM52.2395 9.02642V11.085L53.4004 12.2748L54.5613 13.4646V14.8613V16.2581H55.7222H56.883V14.8613V13.4646L58.0439 12.2748L59.2048 11.085V9.02642V6.96774H55.7222H52.2395V9.02642ZM33.6632 9.36523L32.8727 10.1659L36.3158 13.6102L39.7589 17.0544L40.5924 16.2206L41.4261 15.3867L38.0186 11.9757C36.1444 10.0995 34.5756 8.56452 34.5324 8.56452C34.4891 8.56452 34.0979 8.92481 33.6632 9.36523ZM51.0787 20.9032V23.2258H55.3659C59.62 23.2258 59.6558 23.2283 59.9752 23.5524C60.2365 23.8175 60.4986 24.8015 61.3672 28.7782L62.4376 33.6774H64.1615C65.8755 33.6774 65.8849 33.6755 65.8074 33.3508C65.3071 31.2519 63.8483 24.4674 63.8483 24.2389C63.8483 24.0735 64.0087 23.7781 64.2046 23.5822C64.5329 23.2535 64.6686 23.2258 65.9459 23.2258H67.3309V22.0645V20.9032H65.9347H64.5385L63.3491 19.7419L62.1597 18.5806H56.6192H51.0787V20.9032ZM47.5597 19.1916L46.4351 19.4841V20.9015V22.319L47.596 22.6106L48.7569 22.9022V20.8865C48.7569 19.7779 48.7405 18.8774 48.7206 18.885C48.7007 18.8929 48.1782 19.0308 47.5597 19.1916ZM26.7002 20.9032V22.0645H34.2459H41.7916V20.9032V19.7419H34.2459H26.7002V20.9032ZM36.2776 28.2337L32.8701 31.6447L33.7038 32.4787L34.5373 33.3125L37.9805 29.8682L41.4235 26.424L40.6331 25.6233C40.1983 25.1829 39.8071 24.8226 39.7639 24.8226C39.7206 24.8226 38.1518 26.3575 36.2776 28.2337ZM25.0033 38.5342C21.9492 39.1002 19.5845 40.3258 17.0748 42.6436C13.9253 45.5523 11.6233 46.6913 7.03115 47.613C4.44921 48.1313 3.88909 48.3222 3.28296 48.8908C2.36761 49.7494 2.32843 49.9921 2.32495 54.8347L2.32176 59.2258H4.03724H5.75288L5.91395 58.1849C6.37525 55.2037 8.75912 52.8275 11.7539 52.3637C15.4697 51.7885 19.0448 54.4321 19.6254 58.1849L19.7864 59.2258H34.2459H48.7054L48.8665 58.1849C49.447 54.4321 53.0221 51.7885 56.7379 52.3637C59.7327 52.8275 62.1166 55.2037 62.5779 58.1849L62.7389 59.2258H66.1959H69.6527V57.0025C69.6527 54.3147 69.5002 53.3913 68.8214 51.9677C67.8233 49.8748 65.6144 48.1798 63.35 47.7691C62.8765 47.6832 61.3093 47.6119 59.8674 47.6107C56.9395 47.6084 55.9609 47.4487 54.5707 46.7467C54.0985 46.5082 52.0914 45.0208 50.11 43.4411C46.3173 40.4173 45.5108 39.8543 44.1523 39.2828C42.056 38.401 42.2476 38.4177 33.8106 38.3776C27.8312 38.3491 25.8073 38.3851 25.0033 38.5342ZM24.6838 40.8696C22.1706 41.4149 19.9892 43.0897 18.358 45.7258C17.3139 47.4132 17.2154 47.8637 17.7694 48.4178L18.1255 48.7742H22.6371H27.1487L27.5048 48.4178L27.8611 48.0616V44.7097V41.3578L27.5048 41.0015C27.2123 40.7087 27.0118 40.6472 26.3802 40.6566C25.9577 40.663 25.1943 40.7588 24.6838 40.8696ZM30.5537 40.9867L30.1828 41.3578V44.7097V48.0616L30.5391 48.4178L30.8952 48.7742H40.0503H49.2054L49.5615 48.4178C50.1408 47.8385 50.0379 47.3356 49.1184 46.2513C47.5552 44.408 44.9787 42.6343 42.534 41.7186C40.2622 40.8675 39.5012 40.763 35.0159 40.686L30.9248 40.6155L30.5537 40.9867ZM32.5046 44.6939V46.4516L39.2885 46.4484L46.0724 46.4452L45.7096 46.1568C44.1867 44.9464 42.0921 43.8987 40.1954 43.3984C39.1508 43.1229 38.4677 43.0625 35.7333 43.0046L32.5046 42.9362V44.6939ZM24.185 43.468C22.8446 44.0193 21.663 44.9383 20.8797 46.0386L20.5859 46.4516H23.0626H25.5393V44.7823C25.5393 42.8565 25.5787 42.8947 24.185 43.468ZM32.5046 63.2903V65.0323H35.9872H39.4699V63.2903V61.5484H35.9872H32.5046V63.2903ZM13.9305 68.5161V69.6774H35.9872H58.0439V68.5161V67.3548H35.9872H13.9305V68.5161Z" fill="black"/>
</mask>
<g mask="url(#mask0_474_194)">
<path d="M89.5 -12L23.5 -17L21 8L25.5 35.5H43L66 46.5L74.5 50.5L92.5 44.5L89.5 -12Z" fill="#EDBC18"/>
</g>
</svg>
