<svg width="70" height="70" viewBox="0 0 70 70" fill="none" xmlns="http://www.w3.org/2000/svg">
<path fill-rule="evenodd" clip-rule="evenodd" d="M31.7145 0.090913C24.7122 0.807701 18.1642 3.46646 12.8778 7.73941C11.322 8.9971 8.87912 11.4439 7.60246 13.0237C2.4894 19.3503 -0.294057 27.712 0.0246651 35.7875C0.312948 43.0907 2.70043 49.7762 7.10315 55.6093C8.32167 57.2238 11.2233 60.2014 12.8778 61.5348C15.6269 63.7508 19.662 66.0281 22.9591 67.2245C24.5657 67.8074 27.3958 68.5385 29.1893 68.8336C38.6991 70.3985 48.2427 68.0545 56.0793 62.2292C57.6794 61.0397 60.6844 58.151 62.0195 56.5188C64.2724 53.7646 66.5239 49.8325 67.75 46.5113C68.7215 43.8792 69.7266 39.2103 69.7283 37.3198C69.7288 36.9703 69.7905 36.6466 69.8655 36.6005C69.9473 36.5504 70.0012 35.6642 70 34.3906C69.9985 32.9679 69.9541 32.3317 69.8655 32.4678C69.7703 32.614 69.7324 32.4811 69.7305 31.9935C69.7225 30.0116 68.7397 25.4429 67.7373 22.7275C67.1363 21.0998 65.4586 17.6893 64.5967 16.3434C61.7568 11.9084 57.4455 7.66177 53.1446 5.06277C49.0824 2.60807 44.7462 1.04225 40.0699 0.341315C37.9805 0.0281771 33.6078 -0.10285 31.7145 0.090913ZM31.851 2.39453C31.1753 2.46417 30.5484 2.54899 30.4577 2.583C30.3378 2.62826 30.384 2.9105 30.6278 3.62228C31.1021 5.00667 31.7369 7.60811 32.0456 9.433C32.4939 12.0832 32.6354 14.5485 32.5823 18.7853L32.5322 22.7796L32.1469 23.5598C31.7265 24.4112 31.4214 24.6758 29.8544 25.5487C29.2818 25.8676 28.2757 26.6104 27.6187 27.1993C26.285 28.3946 25.4172 28.7731 24.3448 28.6272C23.5024 28.5126 17.3768 26.5901 15.4006 25.8201C12.4525 24.6713 9.27947 22.9612 6.73925 21.152C6.15572 20.7364 5.65655 20.418 5.62994 20.4444C5.50368 20.5696 4.67131 22.509 4.24954 23.6604C3.75896 24.9996 2.84525 28.3536 2.84525 28.8151C2.84525 29.0592 2.94598 29.0804 4.10785 29.0817C6.88803 29.0848 10.5165 29.5499 13.5954 30.2982C15.9007 30.8583 22.4579 33.0787 23.0892 33.513C23.7872 33.9934 24.3553 35.0092 24.5434 36.1135C24.7463 37.3048 25.0138 38.1225 25.6721 39.5636C26.1758 40.6663 26.2154 40.8362 26.1517 41.6246C26.1046 42.2069 25.9696 42.6746 25.7327 43.0757C25.1002 44.1472 21.3247 49.3117 20.2141 50.6246C18.6579 52.4644 15.7328 55.2343 13.8472 56.6532L12.2284 57.8717L13.0991 58.6626C14.3936 59.8385 16.5822 61.4429 18.182 62.3889C18.9606 62.8493 19.6293 63.226 19.668 63.226C19.7068 63.226 19.8119 62.9364 19.9017 62.5824C20.1929 61.4333 21.5472 58.188 22.4885 56.3833C23.728 54.0069 24.6348 52.585 26.5501 50.0149C29.5162 46.0347 29.8475 45.6368 30.5233 45.2425C31.1339 44.8861 31.2415 44.8686 32.5335 44.916C34.2607 44.9793 35.5836 44.9793 37.3109 44.916C39.4645 44.8369 39.431 44.8086 43.2497 49.9471C45.1643 52.5233 46.1659 54.0925 47.3579 56.3833C48.2989 58.1915 49.6526 61.4382 49.9426 62.5824C50.0324 62.9364 50.1375 63.226 50.1763 63.226C50.2151 63.226 50.8681 62.8582 51.6274 62.4086C53.2197 61.4661 55.4863 59.8072 56.7453 58.6631L57.616 57.8717L55.9971 56.6532C54.1118 55.2344 51.1867 52.4647 49.63 50.6246C48.5547 49.3535 45.0583 44.5782 44.2045 43.2146C43.867 42.6757 43.748 42.3084 43.6939 41.6386C43.6287 40.8332 43.6659 40.6717 44.1722 39.5636C44.8305 38.1225 45.0981 37.3048 45.3009 36.1135C45.4894 35.0066 46.0574 33.9931 46.7603 33.5096C47.3848 33.08 53.7373 30.9209 56.1728 30.3106C59.1047 29.5758 62.9257 29.0848 65.7365 29.0817C66.8983 29.0804 66.9991 29.0592 66.9991 28.8151C66.9991 28.3536 66.0854 24.9996 65.5948 23.6604C65.173 22.509 64.3407 20.5696 64.2144 20.4444C64.1878 20.418 63.6886 20.7364 63.1051 21.152C60.6802 22.8791 57.2746 24.7221 54.5096 25.804C52.1756 26.7171 45.8052 28.6738 45.1664 28.6738C44.2167 28.6738 43.4204 28.2752 42.2489 27.2129C41.6118 26.6351 40.6085 25.8938 40.0197 25.5656C38.4206 24.6743 38.1195 24.4144 37.6969 23.5598L37.3109 22.7796V17.8339C37.3109 14.5859 37.372 12.3999 37.4889 11.4655C37.7492 9.38449 38.3889 6.33049 38.9479 4.49977C39.2168 3.61903 39.4499 2.83178 39.4659 2.75034C39.4817 2.66891 39.2184 2.55631 38.8806 2.50021C37.8573 2.3303 33.1609 2.2597 31.851 2.39453ZM25.8791 3.53935C18.4088 5.71478 11.8972 10.4994 7.64355 16.9383L6.75822 18.2784L7.22464 18.6639C8.0484 19.3449 9.52899 20.2917 9.65197 20.2163C9.71763 20.176 9.99813 19.7652 10.2752 19.3034C10.5523 18.8415 11.1986 17.9103 11.7113 17.2342C15.5362 12.1897 21.0741 8.46283 27.2353 6.78644C28.1846 6.52818 28.9832 6.29526 29.0099 6.2687C29.0365 6.24228 28.8269 5.52576 28.5438 4.67646C28.1292 3.43285 27.9759 3.12649 27.756 3.10237C27.6059 3.08584 26.7612 3.28245 25.8791 3.53935ZM41.7674 3.30169C41.5781 3.65859 40.7737 6.20854 40.8321 6.26654C40.8601 6.29418 41.6455 6.52466 42.5776 6.77845C49.3538 8.62381 55.3515 12.9211 59.1068 18.6217C60.3903 20.5699 60.1333 20.4394 61.2158 19.6926C61.7315 19.3367 62.3647 18.8717 62.6231 18.6592L63.0928 18.2729L62.0562 16.7323C57.7567 10.3418 51.3021 5.64487 43.922 3.53624C42.0191 2.99248 41.9361 2.98354 41.7674 3.30169ZM28.9845 8.71134C27.9084 8.94711 25.6409 9.68923 24.4378 10.1994C20.5464 11.8492 17.1814 14.3088 14.5573 17.4209C13.4633 18.7185 11.7176 21.1959 11.7176 21.4511C11.7176 21.6336 14.5879 22.9718 16.8887 23.862C19.6062 24.9133 24.6042 26.4138 24.988 26.2936C25.1592 26.2401 25.7351 25.7934 26.2681 25.301C26.801 24.8084 27.7838 24.0902 28.452 23.7047C29.1202 23.3192 29.7684 22.9136 29.8925 22.8033C30.5142 22.2508 30.375 13.9577 29.6651 9.26363C29.5691 8.62895 29.5246 8.59291 28.9845 8.71134ZM40.1257 9.67013C39.7143 12.5271 39.6444 13.7 39.638 17.8471C39.6306 22.686 39.6502 22.8174 40.4218 23.1348C41.1815 23.4471 42.8865 24.6316 43.7201 25.4262C44.174 25.8587 44.7004 26.2514 44.89 26.2985C45.3051 26.402 50.4819 24.8317 53.1113 23.8049C55.2857 22.9558 58.1267 21.6286 58.1267 21.4619C58.1267 21.3929 57.843 20.9011 57.4961 20.3688C53.8768 14.815 48.5774 10.8922 42.248 9.08193C41.3599 8.82787 40.5531 8.62001 40.4551 8.62001C40.3369 8.62001 40.2261 8.97339 40.1257 9.67013ZM34.0928 23.4681C33.8033 23.774 33.7619 23.9449 33.7619 24.8347C33.7619 25.7812 33.7886 25.8745 34.1449 26.1789C34.3586 26.3613 34.7021 26.5058 34.9222 26.5058C35.1422 26.5058 35.4858 26.3613 35.6994 26.1789C36.0558 25.8745 36.0824 25.7812 36.0824 24.8347C36.0824 23.9449 36.041 23.774 35.7515 23.4681C35.5129 23.2159 35.2814 23.1184 34.9222 23.1184C34.5629 23.1184 34.3314 23.2159 34.0928 23.4681ZM33.9278 28.9456C30.8984 29.4726 28.6992 32.4935 29.1815 35.4658C29.692 38.6126 32.6822 40.8263 35.7584 40.3344C39.6099 39.7187 41.7902 35.7235 40.1799 32.232C39.093 29.8753 36.4799 28.5017 33.9278 28.9456ZM24.0645 30.6324C23.3006 31.3906 23.8042 32.2922 25.2263 32.7136C26.2124 33.0057 26.7213 32.926 27.0757 32.4236C27.5817 31.7064 27.2051 30.9862 26.1118 30.5801C25.0872 30.1995 24.4849 30.215 24.0645 30.6324ZM43.6792 30.5921C43.1003 30.8129 42.9103 30.9637 42.7592 31.3227C42.5477 31.825 42.6086 32.116 43.0196 32.5694C43.3521 32.9361 43.884 32.9618 44.8281 32.6572C45.7523 32.3588 46.1667 31.8903 46.0649 31.2584C45.9104 30.3001 45.0645 30.0639 43.6792 30.5921ZM34.0584 31.3038C32.4996 31.727 31.4643 33.0568 31.4643 34.6358C31.4643 36.2577 32.6218 37.6662 34.2375 38.0101C36.6221 38.5178 38.8334 36.3257 38.3223 33.9606C37.9052 32.0298 35.9265 30.7969 34.0584 31.3038ZM2.36164 32.8404C2.08933 36.794 2.83433 41.7902 4.27902 45.6983C5.44157 48.8428 7.6228 52.6393 9.69115 55.1179L10.5574 56.1559L10.9669 55.9048C11.5908 55.5225 13.3545 54.2243 13.3543 54.1476C13.3543 54.1103 12.9506 53.592 12.4571 52.9958C9.39194 49.2926 7.24975 44.7557 6.30082 39.9576C5.96217 38.2452 5.93105 37.8139 5.92409 34.7374L5.91644 31.3838H4.1892H2.46196L2.36164 32.8404ZM63.9261 34.6696C63.9246 37.5197 63.8831 38.171 63.6131 39.5815C62.6258 44.7392 60.5893 49.1273 57.3872 52.9958C56.8938 53.592 56.4914 54.1103 56.4929 54.1476C56.4963 54.2256 58.2863 55.5467 58.8383 55.8786C59.1937 56.0922 59.2231 56.0878 59.5692 55.768C60.1217 55.2577 61.8037 52.9985 62.6965 51.5677C66.1009 46.1125 67.9095 39.0359 67.4827 32.8404L67.3824 31.3838H65.6551H63.9279L63.9261 34.6696ZM8.2571 32.3662C8.10354 33.6351 8.1636 36.6159 8.3749 38.2162C8.84432 41.7706 10.117 45.3442 12.0102 48.4231C12.7057 49.5543 14.2831 51.646 14.8262 52.1574L15.231 52.5385L16.678 51.0056C18.5149 49.06 19.7308 47.5454 22.0414 44.3247C24.1471 41.3897 24.0796 41.6389 23.2605 39.8221C22.8398 38.8889 22.4204 37.4612 22.1457 36.0284C22.1141 35.8627 21.9636 35.6122 21.8114 35.4714C21.4781 35.1631 15.4451 33.1697 13.1508 32.6096C11.9331 32.3125 8.63916 31.6548 8.36849 31.6548C8.35456 31.6548 8.30447 31.975 8.2571 32.3662ZM59.833 31.9442C57.5124 32.3556 55.3382 32.9338 51.9161 34.049C48.383 35.2008 47.9489 35.3752 47.8183 35.6963C47.7675 35.821 47.6156 36.4493 47.4805 37.0925C47.2707 38.0918 47.0003 38.8514 46.0844 41.0142C46.0032 41.2059 45.9764 41.5108 46.025 41.6917C46.139 42.1168 49.4892 46.7522 51.0014 48.5775C51.6442 49.3532 52.721 50.5601 53.3945 51.2593L54.6188 52.5307L54.9545 52.2212C55.1391 52.051 55.766 51.2845 56.3475 50.5177C59.0781 46.9175 60.8809 42.5374 61.4708 38.0698C61.7625 35.8612 61.7277 31.6236 61.4182 31.6663C61.3721 31.6727 60.6588 31.7977 59.833 31.9442ZM0.0340835 34.568C0.03422 35.7604 0.0551041 36.23 0.0804926 35.6118C0.105745 34.9933 0.105608 34.0177 0.0800831 33.4438C0.0545581 32.8697 0.033947 33.3756 0.0340835 34.568ZM28.3815 41.6478C27.6468 42.4979 27.469 43.0275 27.7417 43.5513C28.0064 44.0593 28.6016 44.3167 29.0876 44.1333C29.655 43.9192 30.5542 42.6956 30.5542 42.1376C30.5542 41.5039 30.0502 41.0042 29.4108 41.0042C29.0152 41.0042 28.8463 41.1099 28.3815 41.6478ZM39.6498 41.2851C39.0818 41.7286 39.1494 42.4291 39.8444 43.302C40.1493 43.6849 40.5599 44.059 40.7567 44.1333C41.2427 44.3167 41.8379 44.0593 42.1026 43.5513C42.3753 43.0275 42.1975 42.4979 41.4629 41.6478C41.009 41.1225 40.8243 41.0042 40.4581 41.0042C40.2109 41.0042 39.8479 41.1302 39.6498 41.2851ZM31.5377 47.3388C31.1961 47.6329 28.2227 51.6005 27.159 53.1816C26.0414 54.8427 23.8659 58.558 23.8659 58.8056C23.8659 58.8407 24.5052 59.1176 25.2868 59.4209C31.3781 61.7851 38.4662 61.7851 44.5575 59.4209C45.3391 59.1176 45.9785 58.8476 45.9785 58.8208C45.9785 58.7209 44.3615 55.8059 43.7996 54.8928C42.4873 52.7605 38.7208 47.6396 38.1969 47.2752C37.964 47.1133 37.6839 47.1098 36.374 47.2524C35.1668 47.3839 34.5381 47.3859 33.5172 47.2614C31.8499 47.0579 31.8643 47.0573 31.5377 47.3388ZM22.6572 61.6482C22.419 62.2818 21.8184 64.1421 21.8184 64.2463C21.8184 64.3551 24.7718 65.4192 26.1193 65.7956C31.8555 67.3984 37.9889 67.3984 43.725 65.7956C45.0725 65.4192 48.0259 64.3551 48.0259 64.2463C48.0259 64.1421 47.4253 62.2818 47.1871 61.6482L46.9252 60.9512L45.8035 61.4225C44.3561 62.0306 41.8577 62.7444 39.8519 63.123C38.4861 63.3807 37.8029 63.4222 34.9222 63.4219C31.9947 63.4216 31.3746 63.3827 29.9459 63.1093C27.8838 62.7149 25.4879 62.0303 24.0409 61.4225L22.9191 60.9512L22.6572 61.6482Z" fill="black"/>
<mask id="mask0_474_211" style="mask-type:alpha" maskUnits="userSpaceOnUse" x="0" y="0" width="70" height="70">
<path fill-rule="evenodd" clip-rule="evenodd" d="M31.7145 0.090913C24.7122 0.807701 18.1642 3.46646 12.8778 7.73941C11.322 8.9971 8.87912 11.4439 7.60246 13.0237C2.4894 19.3503 -0.294057 27.712 0.0246651 35.7875C0.312948 43.0907 2.70043 49.7762 7.10315 55.6093C8.32167 57.2238 11.2233 60.2014 12.8778 61.5348C15.6269 63.7508 19.662 66.0281 22.9591 67.2245C24.5657 67.8074 27.3958 68.5385 29.1893 68.8336C38.6991 70.3985 48.2427 68.0545 56.0793 62.2292C57.6794 61.0397 60.6844 58.151 62.0195 56.5188C64.2724 53.7646 66.5239 49.8325 67.75 46.5113C68.7215 43.8792 69.7266 39.2103 69.7283 37.3198C69.7288 36.9703 69.7905 36.6466 69.8655 36.6005C69.9473 36.5504 70.0012 35.6642 70 34.3906C69.9985 32.9679 69.9541 32.3317 69.8655 32.4678C69.7703 32.614 69.7324 32.4811 69.7305 31.9935C69.7225 30.0116 68.7397 25.4429 67.7373 22.7275C67.1363 21.0998 65.4586 17.6893 64.5967 16.3434C61.7568 11.9084 57.4455 7.66177 53.1446 5.06277C49.0824 2.60807 44.7462 1.04225 40.0699 0.341315C37.9805 0.0281771 33.6078 -0.10285 31.7145 0.090913ZM31.851 2.39453C31.1753 2.46417 30.5484 2.54899 30.4577 2.583C30.3378 2.62826 30.384 2.9105 30.6278 3.62228C31.1021 5.00667 31.7369 7.60811 32.0456 9.433C32.4939 12.0832 32.6354 14.5485 32.5823 18.7853L32.5322 22.7796L32.1469 23.5598C31.7265 24.4112 31.4214 24.6758 29.8544 25.5487C29.2818 25.8676 28.2757 26.6104 27.6187 27.1993C26.285 28.3946 25.4172 28.7731 24.3448 28.6272C23.5024 28.5126 17.3768 26.5901 15.4006 25.8201C12.4525 24.6713 9.27947 22.9612 6.73925 21.152C6.15572 20.7364 5.65655 20.418 5.62994 20.4444C5.50368 20.5696 4.67131 22.509 4.24954 23.6604C3.75896 24.9996 2.84525 28.3536 2.84525 28.8151C2.84525 29.0592 2.94598 29.0804 4.10785 29.0817C6.88803 29.0848 10.5165 29.5499 13.5954 30.2982C15.9007 30.8583 22.4579 33.0787 23.0892 33.513C23.7872 33.9934 24.3553 35.0092 24.5434 36.1135C24.7463 37.3048 25.0138 38.1225 25.6721 39.5636C26.1758 40.6663 26.2154 40.8362 26.1517 41.6246C26.1046 42.2069 25.9696 42.6746 25.7327 43.0757C25.1002 44.1472 21.3247 49.3117 20.2141 50.6246C18.6579 52.4644 15.7328 55.2343 13.8472 56.6532L12.2284 57.8717L13.0991 58.6626C14.3936 59.8385 16.5822 61.4429 18.182 62.3889C18.9606 62.8493 19.6293 63.226 19.668 63.226C19.7068 63.226 19.8119 62.9364 19.9017 62.5824C20.1929 61.4333 21.5472 58.188 22.4885 56.3833C23.728 54.0069 24.6348 52.585 26.5501 50.0149C29.5162 46.0347 29.8475 45.6368 30.5233 45.2425C31.1339 44.8861 31.2415 44.8686 32.5335 44.916C34.2607 44.9793 35.5836 44.9793 37.3109 44.916C39.4645 44.8369 39.431 44.8086 43.2497 49.9471C45.1643 52.5233 46.1659 54.0925 47.3579 56.3833C48.2989 58.1915 49.6526 61.4382 49.9426 62.5824C50.0324 62.9364 50.1375 63.226 50.1763 63.226C50.2151 63.226 50.8681 62.8582 51.6274 62.4086C53.2197 61.4661 55.4863 59.8072 56.7453 58.6631L57.616 57.8717L55.9971 56.6532C54.1118 55.2344 51.1867 52.4647 49.63 50.6246C48.5547 49.3535 45.0583 44.5782 44.2045 43.2146C43.867 42.6757 43.748 42.3084 43.6939 41.6386C43.6287 40.8332 43.6659 40.6717 44.1722 39.5636C44.8305 38.1225 45.0981 37.3048 45.3009 36.1135C45.4894 35.0066 46.0574 33.9931 46.7603 33.5096C47.3848 33.08 53.7373 30.9209 56.1728 30.3106C59.1047 29.5758 62.9257 29.0848 65.7365 29.0817C66.8983 29.0804 66.9991 29.0592 66.9991 28.8151C66.9991 28.3536 66.0854 24.9996 65.5948 23.6604C65.173 22.509 64.3407 20.5696 64.2144 20.4444C64.1878 20.418 63.6886 20.7364 63.1051 21.152C60.6802 22.8791 57.2746 24.7221 54.5096 25.804C52.1756 26.7171 45.8052 28.6738 45.1664 28.6738C44.2167 28.6738 43.4204 28.2752 42.2489 27.2129C41.6118 26.6351 40.6085 25.8938 40.0197 25.5656C38.4206 24.6743 38.1195 24.4144 37.6969 23.5598L37.3109 22.7796V17.8339C37.3109 14.5859 37.372 12.3999 37.4889 11.4655C37.7492 9.38449 38.3889 6.33049 38.9479 4.49977C39.2168 3.61903 39.4499 2.83178 39.4659 2.75034C39.4817 2.66891 39.2184 2.55631 38.8806 2.50021C37.8573 2.3303 33.1609 2.2597 31.851 2.39453ZM25.8791 3.53935C18.4088 5.71478 11.8972 10.4994 7.64355 16.9383L6.75822 18.2784L7.22464 18.6639C8.0484 19.3449 9.52899 20.2917 9.65197 20.2163C9.71763 20.176 9.99813 19.7652 10.2752 19.3034C10.5523 18.8415 11.1986 17.9103 11.7113 17.2342C15.5362 12.1897 21.0741 8.46283 27.2353 6.78644C28.1846 6.52818 28.9832 6.29526 29.0099 6.2687C29.0365 6.24228 28.8269 5.52576 28.5438 4.67646C28.1292 3.43285 27.9759 3.12649 27.756 3.10237C27.6059 3.08584 26.7612 3.28245 25.8791 3.53935ZM41.7674 3.30169C41.5781 3.65859 40.7737 6.20854 40.8321 6.26654C40.8601 6.29418 41.6455 6.52466 42.5776 6.77845C49.3538 8.62381 55.3515 12.9211 59.1068 18.6217C60.3903 20.5699 60.1333 20.4394 61.2158 19.6926C61.7315 19.3367 62.3647 18.8717 62.6231 18.6592L63.0928 18.2729L62.0562 16.7323C57.7567 10.3418 51.3021 5.64487 43.922 3.53624C42.0191 2.99248 41.9361 2.98354 41.7674 3.30169ZM28.9845 8.71134C27.9084 8.94711 25.6409 9.68923 24.4378 10.1994C20.5464 11.8492 17.1814 14.3088 14.5573 17.4209C13.4633 18.7185 11.7176 21.1959 11.7176 21.4511C11.7176 21.6336 14.5879 22.9718 16.8887 23.862C19.6062 24.9133 24.6042 26.4138 24.988 26.2936C25.1592 26.2401 25.7351 25.7934 26.2681 25.301C26.801 24.8084 27.7838 24.0902 28.452 23.7047C29.1202 23.3192 29.7684 22.9136 29.8925 22.8033C30.5142 22.2508 30.375 13.9577 29.6651 9.26363C29.5691 8.62895 29.5246 8.59291 28.9845 8.71134ZM40.1257 9.67013C39.7143 12.5271 39.6444 13.7 39.638 17.8471C39.6306 22.686 39.6502 22.8174 40.4218 23.1348C41.1815 23.4471 42.8865 24.6316 43.7201 25.4262C44.174 25.8587 44.7004 26.2514 44.89 26.2985C45.3051 26.402 50.4819 24.8317 53.1113 23.8049C55.2857 22.9558 58.1267 21.6286 58.1267 21.4619C58.1267 21.3929 57.843 20.9011 57.4961 20.3688C53.8768 14.815 48.5774 10.8922 42.248 9.08193C41.3599 8.82787 40.5531 8.62001 40.4551 8.62001C40.3369 8.62001 40.2261 8.97339 40.1257 9.67013ZM34.0928 23.4681C33.8033 23.774 33.7619 23.9449 33.7619 24.8347C33.7619 25.7812 33.7886 25.8745 34.1449 26.1789C34.3586 26.3613 34.7021 26.5058 34.9222 26.5058C35.1422 26.5058 35.4858 26.3613 35.6994 26.1789C36.0558 25.8745 36.0824 25.7812 36.0824 24.8347C36.0824 23.9449 36.041 23.774 35.7515 23.4681C35.5129 23.2159 35.2814 23.1184 34.9222 23.1184C34.5629 23.1184 34.3314 23.2159 34.0928 23.4681ZM33.9278 28.9456C30.8984 29.4726 28.6992 32.4935 29.1815 35.4658C29.692 38.6126 32.6822 40.8263 35.7584 40.3344C39.6099 39.7187 41.7902 35.7235 40.1799 32.232C39.093 29.8753 36.4799 28.5017 33.9278 28.9456ZM24.0645 30.6324C23.3006 31.3906 23.8042 32.2922 25.2263 32.7136C26.2124 33.0057 26.7213 32.926 27.0757 32.4236C27.5817 31.7064 27.2051 30.9862 26.1118 30.5801C25.0872 30.1995 24.4849 30.215 24.0645 30.6324ZM43.6792 30.5921C43.1003 30.8129 42.9103 30.9637 42.7592 31.3227C42.5477 31.825 42.6086 32.116 43.0196 32.5694C43.3521 32.9361 43.884 32.9618 44.8281 32.6572C45.7523 32.3588 46.1667 31.8903 46.0649 31.2584C45.9104 30.3001 45.0645 30.0639 43.6792 30.5921ZM34.0584 31.3038C32.4996 31.727 31.4643 33.0568 31.4643 34.6358C31.4643 36.2577 32.6218 37.6662 34.2375 38.0101C36.6221 38.5178 38.8334 36.3257 38.3223 33.9606C37.9052 32.0298 35.9265 30.7969 34.0584 31.3038ZM2.36164 32.8404C2.08933 36.794 2.83433 41.7902 4.27902 45.6983C5.44157 48.8428 7.6228 52.6393 9.69115 55.1179L10.5574 56.1559L10.9669 55.9048C11.5908 55.5225 13.3545 54.2243 13.3543 54.1476C13.3543 54.1103 12.9506 53.592 12.4571 52.9958C9.39194 49.2926 7.24975 44.7557 6.30082 39.9576C5.96217 38.2452 5.93105 37.8139 5.92409 34.7374L5.91644 31.3838H4.1892H2.46196L2.36164 32.8404ZM63.9261 34.6696C63.9246 37.5197 63.8831 38.171 63.6131 39.5815C62.6258 44.7392 60.5893 49.1273 57.3872 52.9958C56.8938 53.592 56.4914 54.1103 56.4929 54.1476C56.4963 54.2256 58.2863 55.5467 58.8383 55.8786C59.1937 56.0922 59.2231 56.0878 59.5692 55.768C60.1217 55.2577 61.8037 52.9985 62.6965 51.5677C66.1009 46.1125 67.9095 39.0359 67.4827 32.8404L67.3824 31.3838H65.6551H63.9279L63.9261 34.6696ZM8.2571 32.3662C8.10354 33.6351 8.1636 36.6159 8.3749 38.2162C8.84432 41.7706 10.117 45.3442 12.0102 48.4231C12.7057 49.5543 14.2831 51.646 14.8262 52.1574L15.231 52.5385L16.678 51.0056C18.5149 49.06 19.7308 47.5454 22.0414 44.3247C24.1471 41.3897 24.0796 41.6389 23.2605 39.8221C22.8398 38.8889 22.4204 37.4612 22.1457 36.0284C22.1141 35.8627 21.9636 35.6122 21.8114 35.4714C21.4781 35.1631 15.4451 33.1697 13.1508 32.6096C11.9331 32.3125 8.63916 31.6548 8.36849 31.6548C8.35456 31.6548 8.30447 31.975 8.2571 32.3662ZM59.833 31.9442C57.5124 32.3556 55.3382 32.9338 51.9161 34.049C48.383 35.2008 47.9489 35.3752 47.8183 35.6963C47.7675 35.821 47.6156 36.4493 47.4805 37.0925C47.2707 38.0918 47.0003 38.8514 46.0844 41.0142C46.0032 41.2059 45.9764 41.5108 46.025 41.6917C46.139 42.1168 49.4892 46.7522 51.0014 48.5775C51.6442 49.3532 52.721 50.5601 53.3945 51.2593L54.6188 52.5307L54.9545 52.2212C55.1391 52.051 55.766 51.2845 56.3475 50.5177C59.0781 46.9175 60.8809 42.5374 61.4708 38.0698C61.7625 35.8612 61.7277 31.6236 61.4182 31.6663C61.3721 31.6727 60.6588 31.7977 59.833 31.9442ZM0.0340835 34.568C0.03422 35.7604 0.0551041 36.23 0.0804926 35.6118C0.105745 34.9933 0.105608 34.0177 0.0800831 33.4438C0.0545581 32.8697 0.033947 33.3756 0.0340835 34.568ZM28.3815 41.6478C27.6468 42.4979 27.469 43.0275 27.7417 43.5513C28.0064 44.0593 28.6016 44.3167 29.0876 44.1333C29.655 43.9192 30.5542 42.6956 30.5542 42.1376C30.5542 41.5039 30.0502 41.0042 29.4108 41.0042C29.0152 41.0042 28.8463 41.1099 28.3815 41.6478ZM39.6498 41.2851C39.0818 41.7286 39.1494 42.4291 39.8444 43.302C40.1493 43.6849 40.5599 44.059 40.7567 44.1333C41.2427 44.3167 41.8379 44.0593 42.1026 43.5513C42.3753 43.0275 42.1975 42.4979 41.4629 41.6478C41.009 41.1225 40.8243 41.0042 40.4581 41.0042C40.2109 41.0042 39.8479 41.1302 39.6498 41.2851ZM31.5377 47.3388C31.1961 47.6329 28.2227 51.6005 27.159 53.1816C26.0414 54.8427 23.8659 58.558 23.8659 58.8056C23.8659 58.8407 24.5052 59.1176 25.2868 59.4209C31.3781 61.7851 38.4662 61.7851 44.5575 59.4209C45.3391 59.1176 45.9785 58.8476 45.9785 58.8208C45.9785 58.7209 44.3615 55.8059 43.7996 54.8928C42.4873 52.7605 38.7208 47.6396 38.1969 47.2752C37.964 47.1133 37.6839 47.1098 36.374 47.2524C35.1668 47.3839 34.5381 47.3859 33.5172 47.2614C31.8499 47.0579 31.8643 47.0573 31.5377 47.3388ZM22.6572 61.6482C22.419 62.2818 21.8184 64.1421 21.8184 64.2463C21.8184 64.3551 24.7718 65.4192 26.1193 65.7956C31.8555 67.3984 37.9889 67.3984 43.725 65.7956C45.0725 65.4192 48.0259 64.3551 48.0259 64.2463C48.0259 64.1421 47.4253 62.2818 47.1871 61.6482L46.9252 60.9512L45.8035 61.4225C44.3561 62.0306 41.8577 62.7444 39.8519 63.123C38.4861 63.3807 37.8029 63.4222 34.9222 63.4219C31.9947 63.4216 31.3746 63.3827 29.9459 63.1093C27.8838 62.7149 25.4879 62.0303 24.0409 61.4225L22.9191 60.9512L22.6572 61.6482Z" fill="black"/>
</mask>
<g mask="url(#mask0_474_211)">
<circle cx="35" cy="35" r="15" fill="#EDBC18"/>
</g>
</svg>
