<svg width="62" height="66" viewBox="0 0 62 66" fill="none" xmlns="http://www.w3.org/2000/svg">
<path fill-rule="evenodd" clip-rule="evenodd" d="M39.1502 0.0861811C33.9377 0.936135 28.127 3.53905 21.0305 8.20304C15.1516 12.0668 7.89816 17.9849 1.63936 24.0243L0 25.6063V32.2498C0 38.3972 0.0190657 38.9098 0.254695 39.1115C0.39485 39.2316 1.06579 39.6505 1.74575 40.0424C2.67284 40.577 3.43212 41.2007 4.78113 42.5358C6.33346 44.072 6.64462 44.3162 7.04879 44.3162C7.65074 44.3162 8.15023 43.8049 8.15023 43.1886C8.15023 42.3156 5.57694 39.7268 3.23914 38.2478L2.1831 37.5798V32.1647V26.7494L3.60211 25.3834C12.5844 16.736 21.9272 9.74714 29.6833 5.87322C32.2237 4.6044 33.0253 4.26255 35.2821 3.48542C38.7225 2.30074 38.5759 2.31266 49.6883 2.31266C57.4573 2.31266 59.5274 2.35088 59.5334 2.49434C59.5375 2.59433 57.9166 16.198 55.9313 32.7248L52.3216 62.7738L33.1665 62.7741L14.0114 62.7745L13.9165 61.0667C13.8643 60.1276 13.7815 58.7868 13.7324 58.0873L13.6432 56.8155H31.2562C47.8166 56.8155 48.8874 56.8003 49.1759 56.5612C49.3446 56.4214 49.5233 56.097 49.5729 55.8403C49.6485 55.4499 49.591 55.3017 49.2207 54.9319L48.7783 54.4901H31.0167H13.2553L13.1179 53.945C13.0424 53.6453 12.8996 53.0403 12.8005 52.6006C12.7016 52.161 12.3723 51.0818 12.069 50.2025C11.0508 47.2501 10.7187 46.7318 9.86077 46.7562C9.36113 46.7703 8.73239 47.3265 8.73239 47.7542C8.73239 47.8778 9.03381 48.7312 9.40231 49.6508C10.7748 53.0765 11.4284 56.6745 11.5965 61.7285C11.6882 64.4898 11.6954 64.5385 12.05 64.817C12.4031 65.0944 12.8181 65.1 33.0491 65.1H53.6879L54.0694 64.7724L54.4507 64.4448L58.2254 33.1364C60.3014 15.9169 62 1.54947 62 1.20894C62 0.713037 61.9236 0.529617 61.6165 0.288496C61.2358 -0.0106157 61.1544 -0.0126504 50.3735 0.00697058C44.4009 0.0178712 39.3504 0.0534794 39.1502 0.0861811ZM45.6995 5.08693C44.3505 5.25988 42.8231 5.61103 40.8967 6.19123C37.8702 7.10281 32.6228 9.30603 32.2218 9.83347C31.7376 10.4705 32.2912 11.6145 33.084 11.6145C33.2768 11.6145 34.4751 11.1681 35.7466 10.6225C44.2869 6.95819 49.2442 6.3059 51.2983 8.57642C52.5903 10.0045 52.6044 10.4967 51.6074 19.3902C50.748 27.0574 50.6891 27.3533 49.9037 27.9307C49.61 28.1467 47.0766 28.6361 38.7699 30.0812C32.8555 31.1102 27.8099 31.9888 27.5575 32.0337L27.0987 32.1154L23.5552 25.7544C21.6063 22.2559 19.9922 19.3199 19.9685 19.2299C19.9179 19.0384 24.2042 16.4719 28.4247 14.167C29.7155 13.4621 29.9991 12.8481 29.3627 12.1367C28.7568 11.4595 28.4825 11.511 26.27 12.7157C22.7218 14.6479 17.6154 17.7181 14.4812 19.8036C12.9465 20.8247 11.2837 22.3764 10.4073 23.6051C8.41337 26.4002 7.44611 30.0979 7.85261 33.371C8.0632 35.0673 8.35428 35.7978 9.06961 36.4249C9.94576 37.1932 10.5353 37.2932 12.5009 37.0073C14.1279 36.7705 24.5786 34.9512 38.1315 32.5452C41.6935 31.9128 45.8196 31.1913 47.3005 30.9418C50.3337 30.4308 50.9413 30.2158 51.8122 29.3461C52.9032 28.2566 52.9246 28.1589 53.8745 19.9119C54.9033 10.9812 54.9156 10.3746 54.1014 8.69037C53.2133 6.8534 51.498 5.50783 49.5128 5.09085C48.6434 4.90816 47.1063 4.90656 45.6995 5.08693ZM17.4648 20.5891C15.7659 21.6468 14.9788 22.229 14.0238 23.1351C12.711 24.3804 11.8381 25.5611 11.1417 27.0336C10.3118 28.7881 10.1147 29.7391 10.1355 31.8895C10.1548 33.8851 10.2721 34.5349 10.6563 34.7769C10.8267 34.8843 12.7429 34.607 17.6105 33.7707C21.306 33.1357 24.3966 32.5754 24.4784 32.5256C24.5647 32.4728 23.2381 29.9417 21.3171 26.4939C19.4967 23.2264 17.967 20.5101 17.9179 20.4578C17.8688 20.4054 17.6649 20.4646 17.4648 20.5891ZM41.6774 35.0391C41.0056 35.3639 40.8611 36.3001 41.3996 36.8377L41.7567 37.1945H46.0314H50.306L50.6226 36.8582C51.0841 36.3675 51.0521 35.5603 50.5555 35.1703C50.1874 34.8811 50.0072 34.8695 46.0801 34.8789C43.5803 34.8849 41.8673 34.9472 41.6774 35.0391ZM36.8252 39.0803C36.4237 39.4813 36.3327 39.9664 36.4266 41.2059C36.6225 43.792 38.3153 45.5551 40.7755 45.7357C41.6723 45.8016 41.7743 45.7785 42.1217 45.4315C42.5703 44.9836 42.6142 44.3469 42.2294 43.8723C42.0258 43.6212 41.7408 43.5155 41.0452 43.4337C39.7729 43.2838 39.0698 42.6891 38.7807 41.5184L38.682 41.1187H43.7218H48.7614L48.6685 41.5184C48.3954 42.6932 47.669 43.3189 46.4696 43.4122C45.4102 43.4944 44.9718 43.8441 44.9718 44.6069C44.9718 44.9827 45.0763 45.2356 45.3299 45.4735C45.6509 45.7747 45.7903 45.8022 46.6761 45.7384C48.4025 45.6141 49.8982 44.6024 50.5862 43.0933C51.2449 41.6488 51.1966 39.3096 50.5003 38.9374C50.3332 38.8482 47.732 38.7932 43.6716 38.7932C37.3349 38.7932 37.1029 38.803 36.8252 39.0803ZM25.1451 43.4437C21.9084 44.5384 18.8039 46.6982 16.8711 49.1999C16.1183 50.1745 16.0571 50.7352 16.6482 51.2429C17.3632 51.8572 17.6531 51.7279 19.1923 50.1086C19.9631 49.2976 21.0064 48.3215 21.5105 47.9395C22.738 47.0098 24.6729 46.0322 26.2585 45.5408C26.9726 45.3195 27.6766 45.0189 27.823 44.8727C28.2036 44.4926 28.1681 43.7142 27.7524 43.3241C27.2953 42.8953 26.6837 42.9234 25.1451 43.4437ZM24.8994 48.315C23.2321 49.1252 21.6118 50.1601 21.4046 50.5468C21.319 50.7067 21.2488 50.9776 21.2488 51.1488C21.2488 51.536 22.0024 52.31 22.3794 52.31C22.5332 52.31 23.0786 52.0382 23.5913 51.7059C24.104 51.3737 25.1656 50.7799 25.9505 50.3864C27.3504 49.6844 27.6526 49.3902 27.6526 48.7285C27.6526 48.4161 26.8546 47.659 26.5252 47.659C26.3733 47.659 25.6415 47.9542 24.8994 48.315ZM31.7222 49.6841C29.272 50.513 28.5258 51.0113 28.5258 51.8193C28.5258 52.1364 29.3237 52.8913 29.6589 52.8913C29.814 52.8913 30.3593 52.7053 30.8708 52.4778C31.382 52.2505 32.2262 51.9502 32.7465 51.8107C33.2668 51.6712 33.8318 51.4686 34.0021 51.3604C34.6576 50.9443 34.5464 49.752 33.8213 49.422C33.3087 49.1888 33.1154 49.2129 31.7222 49.6841Z" fill="black"/>
<path fill-rule="evenodd" clip-rule="evenodd" d="M45.7 5.08707C44.351 5.26003 42.8236 5.61117 40.8972 6.19138C37.8707 7.10295 32.6232 9.30618 32.2223 9.83362C31.7381 10.4707 32.2917 11.6146 33.0845 11.6146C33.2773 11.6146 34.4755 11.1683 35.7471 10.6227C44.2874 6.95834 49.2446 6.30605 51.2988 8.57657C52.5907 10.0047 52.6049 10.4968 51.6079 19.3904C50.7485 27.0575 50.6896 27.3535 49.9042 27.9309C49.6105 28.1469 47.0771 28.6362 38.7704 30.0814C32.856 31.1104 27.8104 31.989 27.558 32.0339L27.0991 32.1156L23.5557 25.7546C21.6068 22.2561 19.9927 19.32 19.969 19.2301C19.9183 19.0385 24.2046 16.4721 28.4252 14.1671C29.7159 13.4622 29.9996 12.8483 29.3632 12.1368C28.7573 11.4597 28.4829 11.5111 26.2704 12.7159C22.7223 14.648 17.6159 17.7182 14.4817 19.8037C12.947 20.8249 11.2842 22.3765 10.4077 23.6053C8.41385 26.4003 7.44659 30.0981 7.85309 33.3712C8.06368 35.0674 8.35476 35.7979 9.07009 36.4251C9.94624 37.1933 10.5358 37.2933 12.5013 37.0074C14.1283 36.7707 24.5791 34.9513 38.1319 32.5453C41.694 31.9129 45.8201 31.1915 47.3009 30.9419C50.3341 30.4309 50.9418 30.2159 51.8127 29.3462C52.9037 28.2568 52.9251 28.1591 53.875 19.912C54.9038 10.9814 54.916 10.3747 54.1019 8.69051C53.2138 6.85355 51.4985 5.50798 49.5133 5.091C48.6438 4.90831 47.1068 4.90671 45.7 5.08707ZM17.4653 20.5893C15.7664 21.6469 14.9793 22.2292 14.0243 23.1352C12.7115 24.3805 11.8386 25.5613 11.1421 27.0337C10.3123 28.7883 10.1152 29.7392 10.136 31.8897C10.1552 33.8852 10.2725 34.535 10.6568 34.777C10.8272 34.8844 12.7434 34.6071 17.611 33.7708C21.3065 33.1358 24.397 32.5756 24.4788 32.5257C24.5651 32.4729 23.2385 29.9418 21.3176 26.4941C19.4972 23.2265 17.9675 20.5102 17.9183 20.4579C17.8693 20.4056 17.6654 20.4647 17.4653 20.5893Z" fill="#EDBC18"/>
</svg>
