<svg width="78" height="67" viewBox="0 0 78 67" fill="none" xmlns="http://www.w3.org/2000/svg">
<path fill-rule="evenodd" clip-rule="evenodd" d="M0.253118 0.279652C0.0192706 0.537899 0 3.04239 0 33.2057C0 64.6389 0.0104 65.8616 0.279729 66.1052C0.537129 66.338 2.23095 66.3582 21.526 66.3582C33.0576 66.3582 42.6068 66.3145 42.7463 66.261C43.1871 66.0917 43.2694 65.559 43.0162 64.5126C42.6782 63.1148 42.6888 60.5942 43.0389 59.146C43.1947 58.501 43.6069 57.3725 43.9548 56.6381L44.5876 55.3032L46.6258 58.8464C47.7469 60.7953 48.7658 62.4914 48.8901 62.6157C49.0204 62.746 49.3988 62.8415 49.7847 62.8415C50.9072 62.8415 50.9294 62.7567 50.9294 58.4498V54.7379H53.3765H55.8235V58.4498C55.8235 62.7391 55.85 62.8432 56.9411 62.8392C57.2938 62.8379 57.6672 62.783 57.7708 62.7172C57.8745 62.6513 58.8921 60.9838 60.0323 59.0117C61.4582 56.5452 62.081 55.3276 62.0276 55.111C61.9849 54.9377 61.0876 53.3061 60.0338 51.4853L58.1176 48.1747V33.8317V19.4887L60.1051 16.0515C61.1983 14.1609 62.093 12.5172 62.0934 12.3987C62.0946 12.0653 58.2787 5.47195 57.8599 5.0839C57.6342 4.87458 57.2976 4.74079 57.0003 4.74217C55.8905 4.74752 55.8235 5.00332 55.8235 9.2403V12.8435H53.3765H50.9294V9.0975C50.9294 5.55528 50.9127 5.3348 50.6235 5.04567C50.2305 4.65272 49.2393 4.6307 48.9023 5.00745C48.7706 5.15469 47.7585 6.84346 46.6529 8.76051C45.1895 11.2977 44.6694 12.3299 44.7405 12.5544C44.7945 12.724 45.6962 14.3485 46.7446 16.1645C48.2809 18.8254 48.642 19.5621 48.6049 19.9601L48.5588 20.4539L44.2765 17.5216C39.0873 13.9684 23.7123 3.47142 21.7813 2.16337C21.017 1.64581 19.9547 1.04476 19.4203 0.827643C17.5101 0.0516797 16.8183 0 8.34554 0C0.945177 0 0.492012 0.0155955 0.253118 0.279652ZM1.68235 29.2037V56.5727H21.8628H42.0432L42.514 55.5865C43.4258 53.6765 44.8948 51.9391 46.8384 50.472C47.3868 50.0581 47.8733 49.5176 48.1691 48.9936L48.6353 48.1678V35.4062V22.6447L48.1382 22.2748C46.5221 21.0721 19.9252 3.00737 19.3185 2.7002C17.6208 1.84091 17.5508 1.83479 9.30158 1.83479H1.68235V29.2037ZM68.8576 4.97794C68.5251 5.21065 68.5176 5.28481 68.5176 8.34508V11.4742L69.1305 12.6926L69.7433 13.9111L69.704 24.6536L69.6647 35.3961L69.0117 35.4833C67.827 35.6414 66.989 36.6096 66.9885 37.8205C66.9882 38.2671 66.8956 38.483 66.6059 38.7108L66.2235 39.0114L66.2269 51.4999C66.2301 63.2854 66.246 64.023 66.5111 64.6061C66.8611 65.3769 67.5806 65.9943 68.3792 66.2093C68.759 66.3114 70.3107 66.3565 72.4635 66.3279C76.4825 66.2744 76.808 66.1899 77.5618 65.0014L78 64.3106V51.5749C78 39.0046 77.996 38.8365 77.6941 38.648C77.5208 38.5398 77.3879 38.2907 77.3873 38.0733C77.3844 36.7537 76.4948 35.6423 75.3367 35.5119L74.6353 35.4328V24.6082V13.7837L75.2471 12.5189L75.8588 11.2543V8.44569C75.8588 5.71353 75.7772 5.14949 75.3388 4.85684C75.2463 4.79507 73.8267 4.74354 72.1841 4.74217C69.7257 4.74033 69.1374 4.78192 68.8576 4.97794ZM70.302 6.52375C70.2459 6.57971 70.2 7.5789 70.2 8.74415V10.8626L70.8118 12.079L71.4235 13.2955V24.384V35.4726H72.1118H72.8V24.4816V13.4906L73.4118 12.2686L74.0235 11.0467V8.73421V6.42176H72.2138C71.2183 6.42176 70.358 6.46763 70.302 6.52375ZM6.9628 7.38809C6.7496 7.7133 6.72697 8.77885 6.76398 16.7334C6.80451 25.419 6.81552 25.7189 7.10274 25.9288C7.35494 26.1132 10.0134 26.1457 24.782 26.1457C41.702 26.1457 42.1714 26.138 42.4289 25.8534C42.583 25.6834 42.6727 25.3851 42.6438 25.1398C42.6009 24.7752 41.9346 24.268 37.7 21.3765C35.0082 19.5385 30.5164 16.4711 27.7181 14.56C24.9199 12.6489 21.3151 10.1907 19.7072 9.0975L16.7839 7.10981L11.9936 7.06547L7.20338 7.02113L6.9628 7.38809ZM47.8324 10.1722C47.1805 11.3066 46.6471 12.3049 46.6471 12.3905C46.6471 12.4761 47.4729 13.9872 48.4824 15.7486L50.3176 18.9511V33.8251V48.6991L48.4724 51.9011C47.4576 53.6622 46.6145 55.1477 46.5989 55.2022C46.5833 55.2568 47.1212 56.2585 47.7941 57.4278L49.0176 59.5542L49.0941 56.5574C49.1509 54.3333 49.2247 53.4956 49.3804 53.3083C49.5652 53.0863 50.0446 53.056 53.3765 53.056C56.7083 53.056 57.1878 53.0863 57.3725 53.3083C57.5282 53.4956 57.6021 54.3333 57.6588 56.5574L57.7353 59.5542L58.9588 57.4278C59.6318 56.2585 60.1698 55.2573 60.1544 55.2033C60.1389 55.1493 59.2965 53.6636 58.2824 51.9018L56.4385 48.6984L56.4368 33.8621L56.4353 19.0258L58.342 15.7142L60.2489 12.4026L58.992 10.2242L57.7353 8.0457L57.6588 11.1453C57.5886 13.9877 57.5577 14.2629 57.2855 14.4617C56.8282 14.7954 50.0673 14.7766 49.587 14.4403C49.255 14.2078 49.2471 14.1308 49.2471 11.1529C49.2471 9.47577 49.1955 8.10503 49.1324 8.10671C49.0692 8.10824 48.4842 9.03787 47.8324 10.1722ZM8.56471 16.5896V24.4639H23.8129C32.6103 24.4639 38.9997 24.4068 38.9159 24.3292C38.731 24.1578 18.1371 10.0887 16.9199 9.30223L16.0114 8.71525H12.2881H8.56471V16.5896ZM32.8167 30.5142C32.6846 30.6465 32.5765 30.9595 32.5765 31.2099C32.5765 31.7767 32.2094 32.5076 31.8202 32.7158C31.428 32.9258 30.5425 32.9157 30.0601 32.6958C29.5394 32.4586 28.9482 32.7277 28.8138 33.2632C28.7292 33.6 28.8296 33.7815 29.4464 34.4077C30.1114 35.0825 30.186 35.2313 30.2505 36.0085C30.3165 36.8042 30.2804 36.9254 29.7445 37.7032C29.2361 38.4413 29.1881 38.5862 29.3412 38.9223C29.5981 39.4859 29.8992 39.5289 31.025 39.1625C31.5839 38.9807 32.4 38.833 32.8383 38.8342C33.6887 38.8365 35.0735 39.2805 35.6608 39.7389C36.6143 40.4833 37.25 40.1669 37.457 38.8449C37.6287 37.7473 38.4434 36.9279 39.5238 36.766C40.3392 36.6438 40.6824 36.3738 40.6824 35.8548C40.6824 35.3211 40.2855 35.0139 39.5959 35.0139C38.783 35.0139 37.9676 34.6534 37.7624 34.2031C37.6263 33.9045 37.6569 33.7132 37.9244 33.1889C38.231 32.5882 38.2371 32.5166 38.0118 32.1729C37.7965 31.8443 37.6581 31.803 36.7727 31.803C35.6082 31.803 34.7664 31.4454 34.2613 30.7362C33.8884 30.2126 33.2211 30.1101 32.8167 30.5142ZM16.8631 32.147C16.7802 32.2522 16.6726 32.7854 16.6238 33.332C16.4121 35.7061 15.0609 37.115 12.8471 37.2698C12.0808 37.3234 11.6602 37.2656 11.0118 37.0176C9.91778 36.5993 9.54536 36.6105 9.24376 37.0705C8.89766 37.5987 9.07002 37.9676 9.97161 38.6293C12.597 40.556 12.9371 44.273 10.7091 46.6894C10.1874 47.2553 10.082 47.4695 10.122 47.8831C10.197 48.6615 10.7472 48.7823 11.887 48.271C15.1612 46.802 19.5213 47.2328 22.5116 49.321C24.0379 50.3867 24.5189 50.1855 24.6752 48.4158C24.7921 47.0932 25.307 45.954 26.2377 44.9594C27.1211 44.0151 28.2274 43.4744 29.6969 43.2688C30.8696 43.1046 31.2 42.8853 31.2 42.2711C31.2 41.672 30.7393 41.4357 29.5716 41.4357C27.6475 41.4357 25.9664 40.6441 25.341 39.4438C24.9545 38.702 25.0897 37.6375 25.6889 36.7039C26.2288 35.8629 26.2589 35.6159 25.8656 35.2601C25.6207 35.0384 25.3783 35.0151 24.2214 35.1023C23.1498 35.183 22.6611 35.1474 21.8957 34.9324C20.6163 34.5734 19.2752 33.688 18.5602 32.7305C18.078 32.0847 17.9013 31.9559 17.4978 31.9559C17.2317 31.9559 16.946 32.042 16.8631 32.147ZM33.594 33.3913C33.3864 33.6635 32.9006 34.0537 32.5144 34.2586C31.8338 34.6194 31.8156 34.6474 31.9266 35.1665C31.9896 35.461 32.0351 36.0119 32.0274 36.3909L32.0136 37.0797L33.0215 37.1111C33.5759 37.1283 34.4364 37.2831 34.9339 37.4548C35.4314 37.6263 35.8528 37.7496 35.8704 37.7283C35.888 37.7071 36.0085 37.4832 36.1382 37.2309C36.2679 36.9787 36.5225 36.6149 36.7039 36.4227L37.0338 36.0733L36.5716 35.5469C36.3173 35.2573 36.066 34.761 36.0132 34.4437C35.8693 33.5788 35.8219 33.4852 35.5253 33.4815C35.3756 33.4797 34.9646 33.3473 34.6123 33.1874L33.9714 32.8965L33.594 33.3913ZM18.0471 35.0778C18.0471 35.5452 17.4146 36.5781 16.6767 37.3159C15.79 38.2023 14.6146 38.8226 13.592 38.9437C13.1188 38.9997 12.8601 39.0975 12.907 39.2026C13.7912 41.1762 13.8289 41.3338 13.8273 43.0411C13.8262 44.2871 13.7584 44.8765 13.5659 45.315C13.4229 45.6407 13.3059 45.9275 13.3059 45.9526C13.3059 45.9775 13.5296 45.9401 13.8029 45.8691C15.9955 45.3006 19.6465 45.8168 22.0607 47.0364C22.4597 47.2379 22.833 47.4056 22.8902 47.409C22.9474 47.4123 23.1116 47.0364 23.2547 46.5732C23.6384 45.3338 24.182 44.5027 25.2818 43.4741L26.2628 42.5567L25.604 42.1401C24.7618 41.6074 24.0488 40.7935 23.6657 39.9278C23.4219 39.377 23.3771 39.0136 23.433 38.047L23.5023 36.8487H22.8555C21.6704 36.8487 19.8476 36.1233 18.3912 35.072C18.0728 34.8422 18.0471 34.8427 18.0471 35.0778ZM68.8541 37.338C68.7532 37.4389 68.6706 37.7485 68.6706 38.026V38.5306H72.1118H75.5529V38.026C75.5529 37.7485 75.4704 37.4389 75.3694 37.338C75.11 37.0786 69.1135 37.0786 68.8541 37.338ZM68.0079 40.3145C67.9518 40.3704 67.9059 45.6645 67.9059 52.0791V63.7418L68.2748 64.1708L68.6435 64.5999L71.6661 64.6502C75.0548 64.7064 75.5757 64.6503 76.0124 64.1817C76.312 63.8603 76.3176 63.6351 76.3176 52.0333V40.2125H72.2138C69.9565 40.2125 68.0639 40.2583 68.0079 40.3145ZM1.68235 61.4661V64.6775L21.45 64.6387C38.3231 64.6055 41.2109 64.5684 41.1716 64.3852C40.8978 63.1097 41.0127 60.1241 41.3941 58.5986L41.4803 58.2546H21.5812H1.68235V61.4661Z" fill="black"/>
<path fill-rule="evenodd" clip-rule="evenodd" d="M68.8568 4.97801C68.5243 5.21073 68.5168 5.28488 68.5168 8.34516V11.4742L69.1296 12.6927L69.7424 13.9111L69.7031 24.6537L69.6638 35.3962L69.0108 35.4834C67.8261 35.6415 66.9881 36.6096 66.9877 37.8206C66.9874 38.2672 66.8947 38.4831 66.605 38.7109L66.2227 39.0115L66.226 51.5C66.2292 63.2855 66.2451 64.0231 66.5102 64.6062C66.8603 65.377 67.5797 65.9944 68.3784 66.2094C68.7581 66.3115 70.3099 66.3566 72.4627 66.328C76.4816 66.2745 76.8071 66.19 77.561 65.0015L77.9991 64.3107V51.5749C77.9991 39.0046 77.9952 38.8366 77.6932 38.6481C77.52 38.5398 77.3871 38.2908 77.3864 38.0733C77.3835 36.7538 76.4939 35.6424 75.3358 35.512L74.6344 35.4329V24.6083V13.7838L75.2462 12.519L75.8579 11.2544V8.44577C75.8579 5.71361 75.7763 5.14957 75.338 4.85692C75.2454 4.79515 73.8258 4.74362 72.1832 4.74224C69.7249 4.74041 69.1365 4.782 68.8568 4.97801ZM70.3011 6.52383C70.245 6.57979 70.1991 7.57898 70.1991 8.74423V10.8626L70.8109 12.0791L71.4227 13.2956V24.3841V35.4727H72.1109H72.7991V24.4817V13.4907L73.4109 12.2687L74.0227 11.0467V8.73429V6.42184H72.2129C71.2174 6.42184 70.3571 6.46771 70.3011 6.52383ZM68.8532 37.338C68.7523 37.439 68.6697 37.7486 68.6697 38.0261V38.5307H72.1109H75.5521V38.0261C75.5521 37.7486 75.4695 37.439 75.3685 37.338C75.1091 37.0787 69.1126 37.0787 68.8532 37.338ZM68.007 40.3145C67.9509 40.3705 67.905 45.6646 67.905 52.0792V63.7419L68.2739 64.1709L68.6426 64.6L71.6652 64.6503C75.0539 64.7065 75.5749 64.6504 76.0115 64.1818C76.3111 63.8604 76.3168 63.6352 76.3168 52.0333V40.2125H72.2129C69.9556 40.2125 68.063 40.2584 68.007 40.3145Z" fill="#EDBC18"/>
</svg>
