<svg width="39" height="39" viewBox="0 0 39 39" fill="none" xmlns="http://www.w3.org/2000/svg">
<path d="M22.7472 11.3519C22.7472 11.994 22.5566 12.6216 22.1995 13.1555C21.8425 13.6894 21.3349 14.1055 20.7412 14.3512C20.1474 14.5969 19.494 14.6612 18.8636 14.5359C18.2333 14.4107 17.6543 14.1015 17.1998 13.6475C16.7453 13.1934 16.4358 12.615 16.3104 11.9852C16.1851 11.3555 16.2494 10.7027 16.4954 10.1095C16.7413 9.51633 17.1578 9.00931 17.6922 8.65259C18.2266 8.29587 18.8549 8.10547 19.4976 8.10547C20.3594 8.10547 21.186 8.4475 21.7954 9.05633C22.4048 9.66515 22.7472 10.4909 22.7472 11.3519ZM27.5403 19.3981L19.4976 27.2593L11.4679 19.4095C9.87424 17.8224 8.78766 15.7987 8.34563 13.5945C7.9036 11.3903 8.12598 9.10461 8.98463 7.0267C9.84328 4.94878 11.2996 3.17202 13.1693 1.92122C15.0391 0.670429 17.2382 0.00182176 19.4884 3.71752e-06C21.7386 -0.00181433 23.9388 0.663239 25.8105 1.91101C27.6823 3.15878 29.1415 4.93319 30.0035 7.00972C30.8655 9.08624 31.0916 11.3716 30.6531 13.5765C30.2147 15.7814 29.1314 17.8085 27.5403 19.3981ZM25.9968 11.3519C25.9968 10.0677 25.6156 8.81241 24.9015 7.74466C24.1873 6.67692 23.1723 5.84472 21.9847 5.35329C20.7972 4.86187 19.4904 4.73329 18.2297 4.98381C16.969 5.23434 15.8109 5.85272 14.902 6.76076C13.9931 7.6688 13.3741 8.82571 13.1233 10.0852C12.8725 11.3447 13.0012 12.6502 13.4931 13.8366C13.985 15.023 14.8181 16.037 15.8868 16.7505C16.9556 17.4639 18.2122 17.8447 19.4976 17.8447C21.2213 17.8447 22.8744 17.1607 24.0932 15.943C25.312 14.7254 25.9968 13.0739 25.9968 11.3519ZM35.5294 17.2165L33.1979 16.4374C32.4722 18.4124 31.3257 20.2062 29.8378 21.695L19.4976 31.8043L9.1964 21.7404C7.24095 19.7941 5.87762 17.3341 5.2644 14.6454C4.59456 14.5838 3.91923 14.6629 3.28181 14.8776C2.64439 15.0922 2.05897 15.4378 1.56319 15.892C1.0674 16.3461 0.672209 16.8989 0.403009 17.5148C0.133809 18.1306 -0.00344578 18.7959 6.57143e-05 19.4679V35.2975L12.9708 39L26.0016 35.7536L39 38.9156V21.8752C38.9993 20.829 38.6615 19.8108 38.0364 18.9715C37.4113 18.1321 36.5323 17.5178 35.5294 17.2165Z" fill="#EDBC18"/>
</svg>
