<svg width="29" height="29" viewBox="0 0 29 29" fill="none" xmlns="http://www.w3.org/2000/svg">
<path d="M29 7.5467C29 16.7755 16.7615 29 7.54344 29C5.52585 29 3.64115 28.239 2.25179 26.8498L1.04365 25.4607C-0.357792 24.0595 -0.357792 21.6919 1.10406 20.2302C1.1403 20.194 4.05192 17.9593 4.05192 17.9593C5.50169 16.5822 7.78507 16.5822 9.22276 17.9593L10.9866 19.3726C14.8527 17.7298 17.5952 14.9756 19.359 10.9773L17.9576 9.21368C16.5682 7.77622 16.5682 5.4811 17.9576 4.04363C17.9576 4.04363 20.1927 1.13246 20.2289 1.09622C21.6908 -0.365407 24.0587 -0.365407 25.5206 1.09622L26.7891 2.19546C28.2389 3.63293 29 5.51734 29 7.53463V7.5467Z" fill="#EDBC18"/>
</svg>
