<svg width="20" height="20" viewBox="0 0 20 20" fill="none" xmlns="http://www.w3.org/2000/svg">
<path d="M10.0106 2.40978C12.4837 2.40978 12.7771 2.41904 13.7535 2.46381C14.7631 2.51012 15.8028 2.74014 16.5384 3.47575C17.281 4.2183 17.5041 5.24799 17.5504 6.2607C17.5952 7.23713 17.6044 7.53044 17.6044 10.0036C17.6044 12.4767 17.5952 12.77 17.5504 13.7464C17.5048 14.7506 17.2694 15.8004 16.5384 16.5314C15.7959 17.2739 14.767 17.497 13.7535 17.5433C12.7771 17.5881 12.4837 17.5973 10.0106 17.5973C7.53752 17.5973 7.24421 17.5881 6.26778 17.5433C5.27128 17.4978 4.20762 17.2569 3.48283 16.5314C2.74413 15.7927 2.5172 14.753 2.47089 13.7464C2.42612 12.77 2.41686 12.4767 2.41686 10.0036C2.41686 7.53044 2.42612 7.23713 2.47089 6.2607C2.51643 5.26034 2.75417 4.2044 3.48283 3.47575C4.22383 2.73474 5.25738 2.51012 6.26778 2.46381C7.24421 2.41904 7.53752 2.40978 10.0106 2.40978ZM10.0106 0.740967C7.49507 0.740967 7.17937 0.751773 6.19136 0.796542C4.75952 0.862152 3.33771 1.26044 2.30262 2.29554C1.26366 3.33449 0.869232 4.75321 0.803622 6.18428C0.758853 7.17229 0.748047 7.48799 0.748047 10.0036C0.748047 12.5191 0.758853 12.8348 0.803622 13.8228C0.869232 15.2531 1.26907 16.6788 2.30262 17.7116C3.3408 18.7498 4.76184 19.145 6.19136 19.2106C7.17937 19.2553 7.49507 19.2661 10.0106 19.2661C12.5262 19.2661 12.8419 19.2553 13.8299 19.2106C15.261 19.145 16.6843 18.7459 17.7187 17.7116C18.7584 16.6718 19.152 15.2539 19.2176 13.8228C19.2624 12.8348 19.2732 12.5191 19.2732 10.0036C19.2732 7.48799 19.2624 7.17229 19.2176 6.18428C19.152 4.75244 18.753 3.32986 17.7187 2.29554C16.682 1.2589 15.2571 0.86138 13.8299 0.796542C12.8419 0.751773 12.5262 0.740967 10.0106 0.740967Z" fill="black"/>
<path d="M10.0106 5.24722C7.38392 5.24722 5.2543 7.37684 5.2543 10.0036C5.2543 12.6303 7.38392 14.7599 10.0106 14.7599C12.6374 14.7599 14.767 12.6303 14.767 10.0036C14.767 7.37684 12.6374 5.24722 10.0106 5.24722ZM10.0106 13.0911C8.30555 13.0911 6.92311 11.7086 6.92311 10.0036C6.92311 8.29847 8.30555 6.91603 10.0106 6.91603C11.7157 6.91603 13.0982 8.29847 13.0982 10.0036C13.0982 11.7086 11.7157 13.0911 10.0106 13.0911Z" fill="black"/>
<path d="M14.9553 6.17039C15.5692 6.17039 16.0668 5.67275 16.0668 5.05888C16.0668 4.44501 15.5692 3.94737 14.9553 3.94737C14.3414 3.94737 13.8438 4.44501 13.8438 5.05888C13.8438 5.67275 14.3414 6.17039 14.9553 6.17039Z" fill="black"/>
</svg>
