<svg xmlns="http://www.w3.org/2000/svg" viewBox="0 0 187 269" preserveAspectRatio="xMidYMid meet"><path fill="#36a854" d="M148.652 16.84c2.544 1.965 4.954 4.014 7.348 6.16.894.8 1.79 1.6 2.711 2.426 9.766 9.233 17 19.757 22.226 32.137l.82 1.924c4.494 11.402 5.78 23.094 5.68 35.263l-.025 3.975c-.177 10.212-1.154 19.588-4.412 29.275-.23.693-.462 1.386-.7 2.099-6.662 19.235-18.614 35.236-31.3 50.9-19.45 24.075-37.068 47.516-46.516 77.3-2.625 7.997-2.625 7.997-6.484 10.7-2.219.568-2.219.568-4.5.564l-2.282.066c-3.463-.982-4.32-2.576-6.218-5.63-1.39-3.484-2.496-7.048-3.625-10.624-7.938-23.745-21.65-43.388-37.37-62.664C38.492 183.945 33.238 176.977 28 170l-1.4-1.855C6.304 141.083-3.75 112.539.325 78.265c4.075-24.658 18.64-47.307 38.8-61.89 33.033-22.522 76.588-22.383 109.527.465M65 72c-5.902 8.155-7.953 17.037-7 27 1.754 9.597 6.502 17.625 14.136 23.719 9.164 6.3 17.944 7.06 28.864 6.28 9.148-2.051 16.991-7.775 22.375-15.374 4.987-8.216 6.741-16.011 5.625-25.625-2.937-11.567-9.11-20.01-19.21-26.398C93.777 53.897 76.37 59.439 65 72"/><path fill="#f9bd05" d="M21 33c6.151 4.394 11.801 9.252 17.475 14.234 3.395 2.968 6.803 5.812 10.463 8.454L52 58v2l1.672.742c2.804 1.515 5.109 3.369 7.578 5.383l2.703 2.195L66 70a174 174 0 0 1-4.062 9.5c-3.914 8.859-4.078 17.851-.973 27.051 4.022 9.517 10.36 15.428 19.597 19.824 9.26 3.396 19.46 2.817 28.387-1.207 2.165-1.233 4.095-2.627 6.051-4.168l2 1c-7.024 8.655-14.198 17.173-21.416 25.666-4.719 5.555-9.425 11.115-14.022 16.772-3.952 4.857-8.015 9.61-12.105 14.351-3.9 4.531-7.688 9.139-11.422 13.809-2.215 2.615-4.583 5.01-7.035 7.402l-2.203-2.973c-4.677-6.284-9.358-12.543-14.324-18.603C10.313 148.906-2.324 119.668 0 81c2.064-17.715 10.413-33.884 21-48"/><path fill="#4387f3" d="M151.125 18.75A226 226 0 0 1 156 23l2.711 2.426C166.284 32.585 175.769 42.503 178 53l-1.676.629c-3.172 1.871-5.217 4.49-7.511 7.309-.726.873-.726.873-1.465 1.765A955 955 0 0 0 163 68l-2.332 2.848q-2.176 2.662-4.348 5.328a784 784 0 0 1-18.562 21.777c-3.006 3.5-5.868 7.118-8.742 10.727C127 111 127 111 124 113l.621-1.828.816-2.422.809-2.391C129.527 96.092 128.563 86.729 124 77c-4.093-7.602-10.822-13.433-18.965-16.34C95.175 58.516 83.743 58.514 75 64a82 82 0 0 0-8 7c-3.669-2.109-6.997-4.434-10.313-7.062l-2.675-2.098L52 60v-2l-1.59-.652c-3.355-1.877-6.102-4.382-8.973-6.91A360 360 0 0 0 24.914 36.84L23 35c0-4.171 1.82-5.289 4.622-8.192C35.219 19.239 42.273 13.595 52 9l2.98-1.445C57.951 6.216 60.924 5.075 64 4l3.391-1.191c28.16-8.454 60.557-1.963 83.734 15.941"/><path fill="#e84737" d="M21 33c6.151 4.394 11.801 9.252 17.475 14.234 3.395 2.968 6.803 5.812 10.463 8.454L52 58v2l1.672.742c2.804 1.515 5.109 3.369 7.578 5.383l2.703 2.195L66 70c-1.725 3.78-4.067 6.067-7 9l-1 3h-2l-.691 1.629c-1.711 3.099-3.939 5.649-6.247 8.309l-2.996 3.5L43 99a1985 1985 0 0 0-5.5 6.438l-1.373 1.612c-3.316 3.924-6.485 7.948-9.627 12.012C21.354 125.715 15.78 131.896 10 138c-3.144-3.565-4.793-6.571-6.125-11.125l-.945-3.133C-4.109 95.409-.73 67.719 14.285 42.715A146 146 0 0 1 21 33"/><path fill="#1c74e7" d="M120 3c0 4.975-1.91 6.694-5.062 10.188a1415 1415 0 0 0-3.032 3.46l-1.504 1.714c-2.505 2.926-4.783 6.023-7.062 9.126L102 29h-2l-.727 1.695c-1.547 2.8-3.461 4.848-5.648 7.18-2.591 2.811-5.032 5.507-7.063 8.75L85 49h-2l-.73 1.664c-1.563 2.875-3.488 5.198-5.582 7.711l-2.422 2.918L72 64l-1.703 2.051A1253 1253 0 0 1 67 70c-3.876-.566-5.809-2.363-8.625-5-2.955-2.835-2.955-2.835-6.375-5v-2l-1.59-.652c-3.355-1.877-6.102-4.382-8.972-6.91A360 360 0 0 0 24.914 36.84L23 35c0-4.171 1.82-5.289 4.622-8.192C35.219 19.239 42.273 13.595 52 9l2.98-1.445C57.951 6.216 60.924 5.075 64 4l3.391-1.191C83.964-2.167 103.449-2.056 120 3"/><path fill="#dcc23d" d="m115 121 2 1c-2.718 4.033-4.479 6.234-9.312 7.312q-2.34.379-4.688.688l-3.875.688c-8.585.921-16.656-.241-24.125-4.688-2.562-2.25-2.562-2.25-4-4 2.431.947 4.812 1.906 7.148 3.07 8.183 3.876 17.128 4.436 25.895 2.129 4.134-1.581 7.477-3.458 10.957-6.199m-5 7v3l-3 2c1.875-3.875 1.875-3.875 3-5m-5 6v3l-2 1zm-4 4 2 1-6 7c0-3.908 1.506-5.116 4-8m-7 9v3l-2 1zm-5 6v3c-2 1.688-2 1.688-4 3 1.152-2.468 2.048-4.048 4-6m-6 7v3l-2 1zm-59 3 9 9-1 3a986 986 0 0 1-4-4.875l-2.25-2.742C24 165 24 165 24 163m55 2v3l-3 2c1.875-3.875 1.875-3.875 3-5m-6 7v3l-2 1zm-40 3h2l2 5c-2-1.375-2-1.375-4-3zm35 3v3c-2 1.688-2 1.688-4 3 1.152-2.468 2.048-4.048 4-6m-31 2c4.044 2.956 6.774 6.126 9.688 10.188 2.623 4.015 2.623 4.015 6.312 6.812l-1 3c-3.441-3.265-6.312-6.809-9.188-10.562l-1.365-1.749c-1.963-2.551-3.421-4.612-4.447-7.689m26 4v3l-3 2c1.875-3.875 1.875-3.875 3-5m-6 7v3l-2 1z"/><path fill="#528db8" d="M164 32c4.01 3.676 6.453 7.19 9 12h-2c-1.727-1.863-1.727-1.863-3.625-4.312l-1.914-2.426C164 35 164 35 164 32m9 12c4.429 5.143 4.429 5.143 5 9l-1.676.629c-3.172 1.871-5.217 4.49-7.512 7.309l-1.456 1.754A967 967 0 0 0 163 68l-2.473 3.023a4598 4598 0 0 0-4.445 5.454C153.131 80.053 150.084 83.539 147 87l-1-2q2.177-3.008 4.375-6l1.25-1.734c1.077-1.459 2.222-2.867 3.375-4.266h2l.75-1.672c1.492-2.779 3.287-5.109 5.25-7.578l2.125-2.703L167 59h2l.812-1.75C171 55 171 55 172.688 53.188c1.936-3.227 1.066-5.622.312-9.188m-28 43v3Zm-4 5v3l-2 1z"/><path fill="#e7cd6d" d="m115 121 2 1c-2.718 4.033-4.479 6.234-9.312 7.312q-2.34.379-4.688.688l-3.875.688c-8.585.921-16.656-.241-24.125-4.688-2.562-2.25-2.562-2.25-4-4 2.431.947 4.812 1.906 7.148 3.07 8.183 3.876 17.128 4.436 25.895 2.129 4.134-1.581 7.477-3.458 10.957-6.199"/><path fill="#e4cb67" d="m24 163 9 9-1 3a986 986 0 0 1-4-4.875l-2.25-2.742C24 165 24 165 24 163m9 12h2l2 5c-2-1.375-2-1.375-4-3zm4 5c4.044 2.956 6.774 6.126 9.688 10.188 2.623 4.015 2.623 4.015 6.312 6.812l-1 3c-3.441-3.265-6.312-6.809-9.188-10.562l-1.365-1.749c-1.963-2.551-3.421-4.612-4.447-7.689"/><path fill="#e5c95b" d="M62 75c0 3.085-.59 5.133-1.5 8.062C57.874 92.565 58.878 99.781 62 109c.347 1.33.685 2.662 1 4-4.814-4.383-5.837-9.536-6.258-15.902a259 259 0 0 1-.054-4.223l-.017-2.026c.074-5.226.498-10.666 3.954-14.787zm1 38 2 1v2h-2zm2 3 6 5c-3 0-3 0-4.688-1.375C65 118 65 118 65 116"/><path fill="#6eb181" d="m119 221 1 2a160 160 0 0 1-4.125 7.75c-4.155 7.554-7.283 15.03-9.875 23.25h-1c1.003-9.7 4.255-16.784 9.062-25.188l1.104-1.943c2.712-4.747 2.712-4.747 3.834-5.869"/><path fill="#3771bd" d="m46 12 2 1-1.574 1.172C42.566 17.054 38.74 19.961 35 23l-2-1c8.923-8.081 8.923-8.081 13-10M23 32l5 5h-3c-1.688-2-1.688-2-3-4z"/><path fill="#83b4de" d="M164 32c4.01 3.676 6.453 7.19 9 12h-2c-1.727-1.863-1.727-1.863-3.625-4.312l-1.914-2.426C164 35 164 35 164 32m9 12c4 4.75 4 4.75 4 7h-2c-2-3-2-3-2-7"/><path fill="#73a7dd" d="M132 8q3.349 1.614 6.688 3.25l1.896.91c3.87 1.905 7.128 3.998 10.416 6.84l-1 2-2.75-2.125C142.201 15.242 136.596 12.674 131 10z"/><path fill="#67a1aa" d="M128 100c1.47 2.334 2.007 3.714 1.938 6.5-1.232 3.284-3.098 4.534-5.938 6.5l.621-1.828.817-2.422.808-2.391A84 84 0 0 0 128 100"/><path fill="#73b586" d="M110 237c1.327 3.982-.001 6.448-1.438 10.188l-.736 1.982c-.6 1.613-1.212 3.222-1.826 4.83h-1c1.176-13.176 1.176-13.176 5-17"/><path fill="#3b75b6" d="m47 54 4 1v2h2v2l2.375.75C58.323 61.154 58.902 62.007 60 65c-2.712-1.613-5.374-3.249-8-5v-2l-1.938-.875C48 56 48 56 47 54"/><path fill="#6c9ed6" d="m46 12 2 1a287 287 0 0 1-3.812 3.062l-2.145 1.723L40 19l-3-1z"/><path fill="#f1bd6f" d="M62 75c0 3.38-.875 5.835-2 9h-2c-.25-2.25-.25-2.25 0-5 2-2.312 2-2.312 4-4"/><path fill="#7fb1e0" d="m154 22 6 5-1 2c-2.5-1.813-2.5-1.813-5-4z"/><path fill="#74a7dc" d="m122 4 9 3-1 2c-3.438-.812-3.438-.812-7-2z"/><path fill="#7caddd" d="M128 100c1.188 1.688 1.188 1.688 2 4-1.375 2.75-1.375 2.75-3 5-1.6-3.201-.032-5.723 1-9"/><path fill="#81b2e0" d="m164 32 3 2-1 3-2-2z"/><path fill="#e5c95b" d="m30 171 3 1v2l-3-1z"/></svg>