<svg width="23" height="21" viewBox="0 0 23 21" fill="none" xmlns="http://www.w3.org/2000/svg">
<path fill-rule="evenodd" clip-rule="evenodd" d="M10.6908 0.0580955C8.4768 0.430231 6.56806 1.90738 5.69643 3.92315C5.32355 4.78547 5.20846 5.36728 5.15418 6.66459C5.13084 7.22224 5.10578 7.68434 5.09853 7.69154C5.09124 7.6987 4.94324 7.67531 4.76959 7.63955C4.15323 7.51263 3.55001 7.70739 3.1349 8.16733C2.82999 8.50518 2.73606 8.77066 2.73588 9.29496C2.73576 9.78795 2.8196 10.0421 3.10173 10.4039C3.34164 10.7116 3.62669 10.8894 4.31873 11.1631C4.64914 11.2938 4.92556 11.4065 4.93298 11.4135C4.9562 11.4354 4.6397 12.1653 4.50745 12.3948C4.17705 12.968 3.65179 13.4777 3.10126 13.7594C2.92125 13.8515 2.51331 14.0166 2.19471 14.1262C1.87611 14.2358 1.53819 14.3702 1.44379 14.4248C0.601218 14.9119 0.512267 15.985 1.25735 16.6738C1.58441 16.9761 2.08143 17.1926 2.81183 17.3507C3.07423 17.4075 3.331 17.4631 3.3824 17.4743C3.45711 17.4905 3.48616 17.5436 3.52675 17.7382C3.65428 18.3494 3.98867 18.7931 4.5032 19.0338L4.79074 19.1683H6.09948H7.40823L7.70658 19.3078C7.8707 19.3846 8.27538 19.6021 8.60592 19.7914C9.99893 20.5888 10.7498 20.8421 11.7206 20.8421C12.6915 20.8421 13.4423 20.5888 14.8354 19.7914C15.1659 19.6021 15.5706 19.3846 15.7347 19.3078L16.0331 19.1683H17.3418H18.6505L18.9381 19.0338C19.4526 18.7931 19.787 18.3494 19.9145 17.7382C19.9551 17.5436 19.9842 17.4905 20.0589 17.4743C20.1103 17.4631 20.3671 17.4075 20.6294 17.3507C21.771 17.1035 22.4454 16.6492 22.619 16.0104C22.6474 15.9061 22.6881 15.7876 22.7095 15.7471C22.7632 15.6456 22.7598 15.3214 22.7055 15.3546C22.6819 15.369 22.6624 15.3463 22.6622 15.3041C22.6614 15.1613 22.4592 14.8045 22.2923 14.6514C22.0461 14.4256 21.8854 14.3448 21.2466 14.1256C20.928 14.0163 20.52 13.8515 20.34 13.7594C19.7722 13.4689 19.2493 12.9534 18.9083 12.3479C18.7668 12.0966 18.4849 11.4355 18.5094 11.4124C18.5162 11.406 18.7921 11.2938 19.1225 11.1631C19.8146 10.8894 20.0996 10.7116 20.3395 10.4039C20.6217 10.0421 20.7055 9.78795 20.7054 9.29496C20.7052 8.77066 20.6113 8.50518 20.3064 8.16733C19.8913 7.70739 19.288 7.51263 18.6717 7.63955C18.498 7.67531 18.35 7.6987 18.3427 7.69154C18.3355 7.68434 18.3104 7.22224 18.2871 6.66459C18.2302 5.30554 18.1049 4.71598 17.6753 3.78623C17.3548 3.09239 16.9783 2.55558 16.4022 1.97085C15.3516 0.90466 14.0812 0.26069 12.592 0.0395353C12.1861 -0.020764 11.0968 -0.0101279 10.6908 0.0580955ZM10.8839 1.19772C9.48968 1.45142 8.3228 2.13832 7.49512 3.19243C6.64044 4.281 6.31875 5.30253 6.31128 6.9521C6.30978 7.28512 6.29313 7.78307 6.27434 8.05868C6.23692 8.60743 6.19766 8.70074 5.92827 8.88181C5.74333 9.00609 5.54651 9.00385 4.99181 8.87117C4.74843 8.81291 4.48196 8.76528 4.3997 8.76528C4.00948 8.76528 3.76902 9.13618 3.91384 9.51468C4.00721 9.7588 4.16126 9.8552 4.95757 10.1678C5.38504 10.3356 5.79916 10.52 5.87785 10.5774C6.21444 10.8233 6.25863 11.0979 6.06022 11.7103C5.73458 12.7155 5.27171 13.487 4.63485 14.0861C4.12993 14.561 3.59674 14.8626 2.73108 15.163C1.88756 15.4558 1.84058 15.4892 1.95798 15.7133C2.08546 15.9568 2.47242 16.1051 3.55417 16.3252C3.9525 16.4062 4.32899 16.4915 4.39091 16.5147C4.52238 16.5641 4.57808 16.7114 4.61721 17.1131C4.65596 17.5102 4.7501 17.8009 4.87866 17.9202C5.0046 18.0371 4.97611 18.0357 6.55003 18.004C7.70005 17.9809 7.81093 18.0144 9.24557 18.8176C10.1284 19.3119 10.4841 19.4714 10.9808 19.5959C11.5137 19.7294 11.9276 19.7294 12.4604 19.5959C12.9572 19.4714 13.3129 19.3119 14.1957 18.8176C15.1268 18.2964 15.354 18.188 15.7413 18.0805C16.0446 17.9963 16.1524 17.9892 16.8912 18.004C18.464 18.0356 18.4368 18.037 18.5621 17.9207C18.6942 17.7981 18.7818 17.5307 18.8214 17.1294C18.8627 16.7118 18.9175 16.5646 19.0504 16.5147C19.1123 16.4915 19.4888 16.4062 19.8871 16.3252C20.9689 16.1051 21.3558 15.9568 21.4833 15.7133C21.6007 15.4892 21.5537 15.4558 20.7102 15.163C19.8445 14.8626 19.3113 14.561 18.8064 14.0861C18.1696 13.487 17.7067 12.7155 17.3811 11.7103C17.1826 11.0979 17.2268 10.8233 17.5634 10.5774C17.6421 10.52 18.0562 10.3356 18.4837 10.1678C19.28 9.8552 19.4341 9.7588 19.5274 9.51468C19.6723 9.13618 19.4318 8.76528 19.0416 8.76528C18.9593 8.76528 18.6928 8.81291 18.4495 8.87117C17.966 8.98681 17.73 9.00279 17.5857 8.92961C17.4133 8.84214 17.255 8.66481 17.2138 8.51306C17.1914 8.43035 17.1534 7.79066 17.1294 7.09147C17.0958 6.11198 17.066 5.72679 16.9996 5.41305C16.6531 3.77594 15.5057 2.34701 13.9734 1.64431C13.2146 1.29633 12.7011 1.18014 11.8279 1.15878C11.4179 1.14878 11.0752 1.16289 10.8839 1.19772ZM0.748055 15.5664C0.748398 15.683 0.756723 15.7256 0.766592 15.6612C0.776418 15.5968 0.776161 15.5014 0.765991 15.4493C0.755822 15.3972 0.747755 15.4499 0.748055 15.5664Z" fill="black"/>
</svg>
