<svg width="19" height="21" viewBox="0 0 19 21" fill="none" xmlns="http://www.w3.org/2000/svg">
<path fill-rule="evenodd" clip-rule="evenodd" d="M10.214 6.74347C10.2136 13.7798 10.2033 14.5794 10.1077 15.0132C9.97717 15.6059 9.59424 16.221 9.08412 16.6574C8.8327 16.8725 8.25484 17.1654 7.89093 17.2623C7.53696 17.3564 6.76657 17.3541 6.40872 17.2579C5.36243 16.9764 4.53708 16.1677 4.23807 15.1313C4.10659 14.6757 4.10747 13.9405 4.24003 13.5132C4.40832 12.9706 4.62461 12.6117 5.02665 12.2081C5.34637 11.8871 5.44107 11.8184 5.80942 11.6403C6.46167 11.3249 7.10287 11.237 7.75072 11.374C7.90491 11.4066 8.05366 11.4333 8.08122 11.4333C8.12048 11.4333 8.13129 11.0714 8.13129 9.7558V8.07834L7.94101 8.04638C7.59689 7.98863 6.49913 8.01506 6.06821 8.09146C3.71473 8.50885 1.79734 10.1421 1.06505 12.3533C0.798407 13.1583 0.705387 13.913 0.765678 14.7821C0.923233 17.0538 2.32389 19.0716 4.42575 20.0548C6.34995 20.9549 8.7088 20.823 10.514 19.7143C10.98 19.4281 11.3757 19.1053 11.7968 18.6677C12.7326 17.6952 13.2971 16.5453 13.5027 15.1931C13.5349 14.9814 13.5461 13.7192 13.5409 10.9033C13.5368 8.70888 13.5457 6.91347 13.5607 6.91347C13.5757 6.91347 13.6536 6.96514 13.7339 7.0283C14.1787 7.37829 15.1008 7.87211 15.7827 8.12562C16.5423 8.40797 17.4085 8.58432 18.2168 8.6212L18.748 8.64544L18.7376 6.98946L18.7271 5.33353L18.3152 5.30625C16.6477 5.19581 15.1104 4.22797 14.2286 2.73363C13.8734 2.13157 13.6478 1.42164 13.5709 0.663707L13.5232 0.193726H11.8688H10.2144L10.214 6.74347Z" fill="black"/>
</svg>
