<svg width="80" height="80" viewBox="0 0 80 80" fill="none" xmlns="http://www.w3.org/2000/svg">
<circle cx="40" cy="40" r="40" fill="#4CAF50"/>
<path fill-rule="evenodd" clip-rule="evenodd" d="M38.576 18.1208C34.572 18.6139 30.7732 20.2536 27.6725 22.8272C26.8792 23.4858 25.3953 24.9825 24.7821 25.7429C22.2858 28.8377 20.6483 32.7989 20.2403 36.7296C20.0915 38.1636 20.1816 40.8788 20.4237 42.2493C20.8076 44.4241 21.4159 46.2556 22.4142 48.243L22.924 49.258L21.4481 54.6183C20.6364 57.5664 19.9848 59.988 20.0003 59.9996C20.0156 60.0111 20.8807 59.7947 21.9226 59.5186C22.9646 59.2425 25.4377 58.5945 27.4185 58.0787L31.0199 57.1408L31.8682 57.5352C34.2094 58.6239 36.3033 59.2346 38.7081 59.5303C39.9648 59.6848 42.4469 59.6615 43.8187 59.4822C50.5909 58.5975 56.5818 54.392 59.703 48.332C61.4079 45.0218 62.0918 41.9934 61.9902 38.204C61.9017 34.9035 61.2407 32.289 59.7579 29.3735C56.5431 23.053 50.2541 18.7701 43.1705 18.0772C41.957 17.9584 39.722 17.9796 38.576 18.1208ZM39.1928 21.5834C32.423 22.4036 26.8218 26.8702 24.6236 33.2014C22.9506 38.0197 23.5365 43.4623 26.1928 47.781C26.4745 48.2389 26.702 48.6726 26.6987 48.7449C26.6953 48.8172 26.3138 50.2539 25.8511 51.9375C25.3883 53.6211 25.0231 55.0121 25.0397 55.0286C25.0563 55.045 26.5299 54.6774 28.3144 54.2117L31.5591 53.365L32.0496 53.6457C33.6031 54.5349 35.5472 55.3204 37.078 55.6775C39.437 56.2278 42.4869 56.2556 44.7879 55.7477C52.0942 54.135 57.5495 48.1142 58.3975 40.7271C58.6108 38.8687 58.454 36.5158 57.9916 34.637C56.9772 30.516 54.3472 26.7925 50.7796 24.4268C48.6336 23.0037 46.5697 22.1886 43.9068 21.7125C42.9657 21.5443 40.1519 21.4672 39.1928 21.5834ZM32.8616 29.393C32.3519 29.6439 31.4209 30.7376 31.0314 31.5429C30.3918 32.8654 30.293 34.6372 30.7759 36.1266C31.7879 39.2484 35.457 43.6617 39.0156 46.0376C40.1581 46.8004 41.1623 47.3047 42.7173 47.8967C44.8004 48.6898 45.2175 48.785 46.5942 48.782C47.6516 48.7797 47.8556 48.7539 48.4301 48.5493C49.3441 48.2239 49.9857 47.8249 50.6525 47.1676C51.157 46.6703 51.2553 46.5181 51.4282 45.9672C51.6432 45.2822 51.7631 44.2562 51.6709 43.8908C51.6224 43.6986 51.3734 43.5424 50.1217 42.9192C47.0658 41.3977 46.474 41.1949 46.0891 41.5376C45.9943 41.6219 45.7054 41.967 45.447 42.3043C44.6591 43.3331 44.0438 43.9928 43.8203 44.0487C43.572 44.1106 43.0088 43.9046 41.8846 43.3403C39.8945 42.3415 38.3056 40.9956 36.9257 39.1396C36.2864 38.2797 35.8445 37.5303 35.8445 37.3059C35.8445 37.2019 36.1758 36.6869 36.5807 36.1617C37.3586 35.1527 37.6067 34.7474 37.6067 34.4859C37.6067 34.3401 35.9241 30.203 35.6841 29.7586C35.4351 29.2977 35.1813 29.2041 34.1805 29.2042C33.4002 29.2042 33.1815 29.2356 32.8616 29.393Z" fill="white"/>
</svg>
