<svg width="78" height="74" viewBox="0 0 78 74" fill="none" xmlns="http://www.w3.org/2000/svg">
<path fill-rule="evenodd" clip-rule="evenodd" d="M38.655 0.108234C38.5956 0.167624 38.547 0.325188 38.547 0.458249C38.547 0.59131 38.2664 1.07211 37.9235 1.52663C37.108 2.60751 37.1123 2.59842 36.9298 3.5636C36.7179 4.68374 36.9761 5.80973 37.6665 6.77734C38.5467 8.01092 38.7183 8.47176 38.5391 9.12197C38.4535 9.43305 38.2303 9.82622 38.0431 9.9958C37.5888 10.4075 36.9977 11.619 36.8801 12.3795L36.7851 12.9944L38.1093 12.9475C39.2866 12.9056 39.4401 12.8644 39.4923 12.5759C39.5245 12.3974 39.8298 11.8861 40.1706 11.4397C40.9618 10.4031 41.1628 9.86809 41.1767 8.76206C41.191 7.62163 40.9254 6.82586 40.2224 5.90239C39.9141 5.49736 39.5909 4.97891 39.5041 4.75027C39.3091 4.23604 39.5532 3.41042 40.0272 2.98105C40.4755 2.57473 41.0678 1.35998 41.1839 0.60851L41.2779 0H40.0204C39.3287 0 38.7142 0.0486808 38.655 0.108234ZM30.8867 2.70454C30.8273 2.76393 30.7788 2.9215 30.7788 3.05456C30.7788 3.18762 30.4981 3.66842 30.1552 4.12294C29.3397 5.20382 29.3441 5.19473 29.1615 6.15991C28.9497 7.28005 29.2078 8.40604 29.8982 9.37365C30.7785 10.6072 30.95 11.0681 30.7708 11.7183C30.6852 12.0294 30.4621 12.4225 30.2748 12.5921C29.8205 13.0038 29.2295 14.2153 29.1118 14.9758L29.0168 15.5907L30.341 15.5438C31.5184 15.5019 31.6718 15.4607 31.7241 15.1722C31.7563 14.9937 32.0615 14.4824 32.4023 14.036C33.1936 12.9994 33.3946 12.4644 33.4085 11.3584C33.4227 10.2179 33.1572 9.42217 32.4541 8.4987C32.1458 8.09367 31.8226 7.57522 31.7359 7.34659C31.5409 6.83235 31.7849 6.00673 32.259 5.57736C32.7072 5.17104 33.2996 3.95629 33.4156 3.20482L33.5096 2.59631H32.2522C31.5605 2.59631 30.946 2.64499 30.8867 2.70454ZM23.8934 17.2744C23.5017 17.6669 23.496 17.7132 23.496 20.5198V23.3668H20.6566C17.8574 23.3668 17.8113 23.3725 17.4198 23.7652C17.1625 24.023 17.0225 24.3476 17.0225 24.6859C17.0225 25.1386 17.3031 25.4919 19.1232 27.3302L21.2237 29.4519L22.1536 28.521L23.0835 27.5902L22.2844 26.7766L21.4852 25.9631H23.3881C25.1926 25.9631 25.3115 25.9425 25.6881 25.5647C26.0649 25.1871 26.0855 25.0679 26.0855 23.2597V21.3529L28.4041 23.6581C30.4588 25.7006 30.7846 25.9631 31.2643 25.9631C31.744 25.9631 32.0698 25.7006 34.1245 23.6581L36.4431 21.3529V23.2597C36.4431 25.0679 36.4637 25.1871 36.8404 25.5647C37.2285 25.954 37.2959 25.9631 39.7906 25.9631H42.3434L40.8929 27.4243L39.4423 28.8856L40.373 29.8178L41.3038 30.7501L44.0523 27.9819C46.4744 25.5427 46.8008 25.1514 46.8008 24.6886C46.8008 24.3474 46.6616 24.0238 46.4035 23.7652C46.0063 23.3668 46.0058 23.3668 42.5194 23.3668H39.0325V20.5198C39.0325 17.7132 39.0269 17.6669 38.6352 17.2744C38.3773 17.0156 38.0546 16.876 37.7147 16.876C37.2523 16.876 36.8456 17.2208 34.2277 19.8318L31.2643 22.7873L28.3009 19.8318C25.683 17.2208 25.2763 16.876 24.8139 16.876C24.474 16.876 24.1513 17.0156 23.8934 17.2744ZM0.269947 24.8678C0.213141 25.2472 0.15407 25.8096 0.138534 26.1179L0.110374 26.6786L6.74446 27.6155C10.3931 28.1309 13.5936 28.6418 13.8565 28.7511C14.1194 28.8603 14.5689 29.1559 14.8553 29.4081C15.3661 29.8577 16.4761 31.4402 16.3556 31.5468C16.3217 31.5765 12.7985 31.1023 8.52598 30.493C4.25344 29.8837 0.674867 29.3818 0.573394 29.3779C0.392458 29.3709 0.311054 29.6818 0.1039 31.1716L0 31.9177L2.76598 32.2991C5.37887 32.6593 5.53196 32.6999 5.53196 33.0322C5.53196 33.4098 4.55818 40.2986 4.49587 40.3618C4.47548 40.3825 3.57356 40.2769 2.49167 40.127C1.40994 39.977 0.490047 39.8891 0.447807 39.9316C0.320926 40.0586 0.0139181 42.1959 0.101958 42.3388C0.146788 42.4114 0.98414 42.5663 1.96294 42.683C2.94158 42.7999 3.83331 42.9516 3.94449 43.0205C4.10164 43.1179 3.88332 45.0315 2.96132 51.6333C2.30944 56.3015 1.73815 60.3211 1.69202 60.5658C1.61385 60.9794 1.56514 61.0039 1.00178 60.9135C0.329179 60.8058 0.371905 60.7233 0.105519 62.6404L0.0035605 63.3751L5.78136 64.1819C8.95906 64.6257 11.5776 65.0619 11.6003 65.1512C11.6229 65.2404 11.7258 65.8585 11.8289 66.5248C12.3509 69.8977 15.0709 72.8757 18.431 73.7532C19.8925 74.1349 21.9523 74.0685 23.4598 73.591C24.9586 73.1162 26.6801 71.9738 27.6085 70.8376C28.2429 70.0614 29.3208 68.0869 29.3217 67.6996C29.3221 67.5531 29.4818 67.5153 29.8482 67.5748C32.2054 67.9575 33.9947 68.142 34.4846 68.0529C35.8362 67.8074 37.1651 66.6801 37.5375 65.4632C37.6367 65.1395 37.9563 63.1218 38.2479 60.9794C38.5849 58.5056 38.8196 57.2238 38.8913 57.4667C38.9532 57.677 39.123 59.3095 39.2685 61.0944C39.4988 63.9213 39.5864 64.4511 39.9477 65.2036C40.3936 66.1318 41.2329 66.8634 42.231 67.1937C42.7945 67.3801 44.7367 67.33 46.9222 67.0726C47.6535 66.9866 47.7718 67.0111 47.7718 67.2488C47.7718 68.2484 49.4511 70.8921 50.7296 71.9055C55.0392 75.3211 61.0358 74.4208 64.023 69.9097C64.6838 68.9116 65.4022 67.0372 65.4112 66.2871C65.4145 66.0193 65.4706 65.7172 65.536 65.6156C65.6108 65.4996 67.8539 65.2404 71.5621 64.9194C74.811 64.6382 77.5744 64.3926 77.7029 64.3736C77.8819 64.347 77.9274 64.1114 77.8971 63.3657C77.8328 61.7771 77.8265 61.7692 76.7226 61.8696C75.8417 61.9496 75.7628 61.9295 75.6954 61.6066C75.6364 61.3232 74.1473 44.3077 74.1505 43.9533C74.151 43.8968 74.643 43.8032 75.2439 43.7452C75.8447 43.6871 76.7089 43.5985 77.1643 43.5481L77.9923 43.4562L77.9253 42.7015C77.7704 40.9586 77.7338 40.8625 77.2575 40.9537C77.0178 40.9996 76.1622 41.0842 75.3561 41.1416L73.8903 41.246L73.5616 37.4584C73.3808 35.3752 73.2758 33.6237 73.3281 33.5659C73.3805 33.508 74.4428 33.3738 75.689 33.2673C76.9351 33.1609 77.9602 33.0622 77.9669 33.0478C78.0211 32.9313 77.7694 30.6723 77.6937 30.5965C77.6399 30.5425 75.5645 30.6806 73.0819 30.9034C70.5993 31.1262 65.1816 31.601 61.0426 31.9586C51.0764 32.8198 50.9371 32.838 50.0466 33.39C48.7451 34.1968 48.5072 34.7953 47.7744 39.1071C47.4179 41.2043 47.1258 43.1693 47.1253 43.4739C47.1233 44.7224 48.314 45.9145 49.5765 45.9281C49.8746 45.9313 54.9061 45.5169 60.7577 45.0069C66.6092 44.497 71.4357 44.1188 71.4831 44.1663C71.5788 44.2622 73.1706 62.0349 73.0915 62.124C73.0304 62.1928 66.5064 62.7921 65.7794 62.7957C65.342 62.7978 65.2391 62.7254 65.1491 62.352C64.6738 60.3769 62.5074 57.7874 60.5226 56.8217C58.575 55.8741 56.7024 55.6328 54.65 56.0647C51.1004 56.812 48.2308 59.7393 47.6048 63.2515C47.3697 64.5706 47.5449 64.4891 44.5351 64.6769C42.8893 64.7794 42.8247 64.7706 42.4884 64.399C42.2795 64.168 42.0973 63.6828 42.0306 63.1798L41.9197 62.3444L42.5396 62.2535C42.8806 62.2034 43.7587 62.1156 44.4912 62.0582L45.8228 61.9538L45.7228 60.7128C45.6678 60.0303 45.6027 59.4476 45.5784 59.4182C45.554 59.3887 44.7147 59.4466 43.7134 59.547C41.7043 59.7484 41.6258 59.7211 41.6283 58.8227C41.6296 58.3678 41.7891 58.2411 44.0601 56.8928C45.3968 56.0991 46.5603 55.3189 46.6456 55.1591C46.9997 54.4959 46.8197 54.0274 45.804 52.9668L44.8074 51.9262L45.804 50.8856C46.8299 49.8143 47.0003 49.3578 46.632 48.6677C46.5391 48.4936 45.3727 47.8038 44.04 47.1344C41.6746 45.9466 41.6194 45.9072 41.7221 45.4737C41.7801 45.2295 43.001 42.1462 44.4355 38.6219C46.838 32.719 47.101 32.156 47.7718 31.4775C48.2135 31.0308 48.7624 30.6629 49.1667 30.5425C49.5334 30.4333 54.0123 29.978 59.1198 29.5304C64.2274 29.0831 70.4326 28.5354 72.9092 28.3136C75.386 28.0918 77.4734 27.9103 77.5478 27.9103C77.6225 27.9103 77.731 27.6001 77.7893 27.2207C77.8476 26.8413 77.933 26.3039 77.9791 26.0262C78.0973 25.3169 77.8031 25.2748 74.7179 25.5592C73.2938 25.6905 67.067 26.2369 60.8807 26.7735C54.6945 27.3099 49.3145 27.825 48.9252 27.9181C47.2046 28.3295 45.5648 29.5966 44.8065 31.1009C44.2031 32.2978 39.5661 43.6782 39.2805 44.6632C38.9463 45.8161 38.5483 48.1168 38.5436 48.9242L38.5399 49.5733L38.0489 48.7289C36.5393 46.1325 34.1534 44.6174 30.8073 44.1303C30.0664 44.0224 29.5202 43.8794 29.5935 43.8126C29.9037 43.5297 36.125 39.4315 36.2439 39.4315C36.3156 39.4315 36.733 39.7966 37.1714 40.2428C37.6098 40.6891 38.0468 41.0542 38.1424 41.0542C38.3595 41.0542 39.8417 39.5598 39.8417 39.3409C39.8417 39.1214 37.4245 36.7558 36.954 36.5148C36.7454 36.4081 36.3947 36.366 36.1745 36.4215C35.9544 36.4769 33.7045 37.9069 31.1746 39.5996C28.6449 41.292 26.5197 42.6754 26.4517 42.6736C26.3837 42.6717 24.3633 39.4771 21.9617 35.5743C19.2314 31.1374 17.3203 28.201 16.8616 27.7383C15.4303 26.2941 15.0068 26.1739 7.64978 25.123C4.03722 24.607 0.921994 24.1833 0.727141 24.1815C0.433727 24.1788 0.355236 24.2964 0.269947 24.8678ZM8.12138 33.2436C8.12138 33.3209 7.89966 34.9726 7.62874 36.914C7.35783 38.8554 7.16314 40.5248 7.19615 40.6238C7.25635 40.8051 23.4988 43.1822 23.4931 43.0089C23.4915 42.9602 22.3081 41.023 20.8633 38.7043L18.2363 34.4883L13.4621 33.8012C8.25198 33.0514 8.12138 33.0377 8.12138 33.2436ZM60.8097 34.5713C56.0086 35.0023 51.9129 35.3971 51.7084 35.4486C51.5038 35.5 51.2316 35.7053 51.1036 35.9047C50.8877 36.2409 49.6038 43.2737 49.7356 43.3985C49.7681 43.4293 50.4502 43.3933 51.2514 43.3181C52.0525 43.2432 56.857 42.8088 61.9278 42.3528C66.9989 41.8967 71.1823 41.489 71.2243 41.4469C71.3106 41.3605 70.7484 34.0634 70.6409 33.8737C70.5423 33.6998 70.4357 33.7074 60.8097 34.5713ZM6.66483 43.5567C6.66483 43.6979 6.11507 47.7283 5.44312 52.5135C4.77116 57.2986 4.25522 61.2476 4.29649 61.289C4.37093 61.3636 11.9027 62.4822 11.9333 62.4233C11.9421 62.4064 12.2081 61.8371 12.5248 61.1582C13.6064 58.8387 15.7872 56.9843 18.3062 56.2419C19.414 55.9154 21.8186 55.9064 23.0092 56.2239C26.3237 57.1083 29.0329 60.0348 29.5184 63.2549C29.7942 65.0837 29.6567 64.9709 31.9788 65.2768C34.6512 65.6289 34.9939 65.4837 35.231 63.8983C35.3586 63.0449 35.4797 63.1071 33.0665 62.7863L31.5512 62.5849L31.6624 61.4339C31.7236 60.8011 31.8325 60.2224 31.9044 60.1481C31.9764 60.0738 32.8215 60.1302 33.7825 60.2733C34.7435 60.4165 35.5842 60.4773 35.6509 60.4084C35.7174 60.3394 35.8231 59.7538 35.8858 59.1066C35.9772 58.1603 35.9558 57.9297 35.7762 57.9276C35.6535 57.9261 34.4101 57.7527 33.0131 57.5422C30.0512 57.0956 29.5698 56.8814 29.0147 55.7626L28.6263 54.9796L28.8916 53.1098C29.2041 50.9073 29.5001 50.3196 30.5545 49.8078C31.286 49.4527 31.2971 49.4523 33.2591 49.7155C36.033 50.0877 35.9136 50.1153 35.2902 49.245C34.6574 48.3615 33.9728 47.8179 32.8398 47.2991C32.1327 46.9752 29.9709 46.6275 19.7738 45.1967C13.0534 44.254 7.35475 43.4415 7.10989 43.3913C6.77375 43.3225 6.66483 43.3629 6.66483 43.5567ZM8.8804 46.6069C8.83218 46.8105 8.74365 47.3874 8.68377 47.889L8.57485 48.8009L9.11685 48.896C11.152 49.2527 13.5072 49.5113 13.6242 49.3908C13.7 49.3127 13.8118 48.7339 13.8725 48.1046L13.983 46.9604L11.7401 46.6701C10.5064 46.5103 9.37806 46.3476 9.23256 46.3083C9.05859 46.2612 8.93818 46.3635 8.8804 46.6069ZM53.3268 48.2597C52.2429 48.359 51.3065 48.4902 51.246 48.551C51.1853 48.6119 51.1873 49.177 51.2504 49.8071L51.3651 50.9526H52.028C52.6972 50.9526 56.3955 50.6221 56.4708 50.5554C56.4931 50.5357 56.4643 49.9597 56.4066 49.2755L56.3018 48.0317L55.7995 48.0554C55.5232 48.0684 54.4106 48.1603 53.3268 48.2597ZM41.0492 49.5683C40.9884 50.0564 41.0298 51.5906 41.1413 52.9779L41.3441 55.5L42.09 55.0652C42.5001 54.8258 42.9597 54.554 43.1112 54.461C43.3531 54.3125 43.2795 54.1795 42.5043 53.3646C41.3292 52.1294 41.3211 51.739 42.4456 50.5468L43.2692 49.6737L42.2882 49.1772C41.7488 48.9043 41.2743 48.6808 41.2335 48.6808C41.1929 48.6808 41.1099 49.0802 41.0492 49.5683ZM31.4634 53.3326C31.3659 54.0289 31.306 54.6184 31.3302 54.6426C31.4477 54.7606 36.295 55.3741 36.3863 55.2826C36.4441 55.2247 36.5258 54.639 36.5679 53.9812L36.6445 52.7849L34.4803 52.5041C33.29 52.3494 32.1643 52.1878 31.9783 52.1448C31.6686 52.0731 31.6258 52.1717 31.4634 53.3326ZM19.6119 58.6075C14.0071 59.4875 12.3109 67.0057 16.9795 70.276C18.2282 71.1508 19.3493 71.4508 21.0617 71.3687C22.2522 71.3117 22.6567 71.2158 23.5336 70.7831C26.0189 69.5563 27.5512 66.6249 27.0706 64.0171C26.3947 60.3514 23.211 58.0423 19.6119 58.6075ZM54.9736 58.6456C52.6752 59.2167 50.9293 60.9049 50.2742 63.1901C49.1562 67.09 52.0047 71.1318 56.0361 71.3658C59.4532 71.5641 62.2195 69.3762 62.8432 65.9818C63.6645 61.5123 59.4079 57.544 54.9736 58.6456ZM19.5258 63.8124C19.4841 63.9241 19.4318 64.4889 19.4096 65.0678L19.3692 66.1202L20.4815 66.2567C21.0932 66.3318 21.6522 66.3328 21.7237 66.259C21.7954 66.1852 21.904 65.6065 21.9652 64.9732L22.0764 63.8215L21.2083 63.717C19.9494 63.5653 19.6111 63.5846 19.5258 63.8124ZM55.5601 63.7286L55.0138 63.7956L55.1151 64.5365C55.1708 64.9441 55.2164 65.5221 55.2164 65.8209V66.364L56.4706 66.2624C57.1604 66.2064 57.7519 66.1376 57.7851 66.1094C57.8181 66.0813 57.7937 65.5074 57.7307 64.8339L57.6163 63.6096L56.8615 63.6356C56.4462 63.6499 55.8607 63.6917 55.5601 63.7286Z" fill="black"/>
<path fill-rule="evenodd" clip-rule="evenodd" d="M38.6559 0.108234C38.5965 0.167624 38.548 0.325188 38.548 0.458249C38.548 0.59131 38.2673 1.07211 37.9244 1.52663C37.1089 2.60751 37.1133 2.59842 36.9307 3.5636C36.7189 4.68374 36.977 5.80973 37.6674 6.77735C38.5476 8.01092 38.7192 8.47176 38.54 9.12198C38.4544 9.43305 38.2312 9.82622 38.044 9.9958C37.5897 10.4075 36.9987 11.619 36.881 12.3795L36.786 12.9944L38.1102 12.9475C39.2876 12.9056 39.441 12.8644 39.4933 12.5759C39.5255 12.3974 39.8307 11.8861 40.1715 11.4397C40.9628 10.4031 41.1638 9.86809 41.1777 8.76206C41.1919 7.62163 40.9263 6.82586 40.2233 5.90239C39.915 5.49736 39.5918 4.97891 39.5051 4.75028C39.3101 4.23604 39.5541 3.41042 40.0281 2.98105C40.4764 2.57473 41.0688 1.35998 41.1848 0.60851L41.2788 0H40.0213C39.3296 0 38.7151 0.0486808 38.6559 0.108234ZM30.8877 2.70454C30.8283 2.76394 30.7797 2.9215 30.7797 3.05456C30.7797 3.18762 30.4991 3.66843 30.1561 4.12294C29.3406 5.20382 29.345 5.19473 29.1625 6.15991C28.9506 7.28006 29.2087 8.40604 29.8991 9.37366C30.7794 10.6072 30.9509 11.0681 30.7718 11.7183C30.6862 12.0294 30.463 12.4225 30.2757 12.5921C29.8215 13.0038 29.2304 14.2153 29.1128 14.9758L29.0178 15.5907L30.3419 15.5438C31.5193 15.5019 31.6727 15.4607 31.725 15.1722C31.7572 14.9937 32.0624 14.4824 32.4033 14.036C33.1945 12.9994 33.3955 12.4644 33.4094 11.3584C33.4237 10.2179 33.1581 9.42217 32.4551 8.4987C32.1468 8.09367 31.8236 7.57522 31.7368 7.34659C31.5418 6.83236 31.7859 6.00673 32.2599 5.57736C32.7082 5.17104 33.3005 3.95629 33.4165 3.20482L33.5106 2.59631H32.2531C31.5614 2.59631 30.9469 2.64499 30.8877 2.70454ZM23.8943 17.2744C23.5026 17.6669 23.497 17.7132 23.497 20.5198V23.3668H20.6575C17.8584 23.3668 17.8122 23.3725 17.4208 23.7652C17.1634 24.023 17.0234 24.3476 17.0234 24.6859C17.0234 25.1386 17.3041 25.4919 19.1241 27.3302L21.2246 29.4519L22.1545 28.521L23.0845 27.5902L22.2853 26.7766L21.4861 25.9631H23.389C25.1935 25.9631 25.3125 25.9425 25.6891 25.5647C26.0658 25.1871 26.0864 25.0679 26.0864 23.2597V21.3529L28.4051 23.6581C30.4598 25.7006 30.7855 25.9631 31.2652 25.9631C31.7449 25.9631 32.0707 25.7006 34.1254 23.6581L36.4441 21.3529V23.2597C36.4441 25.0679 36.4646 25.1871 36.8414 25.5647C37.2295 25.954 37.2968 25.9631 39.7915 25.9631H42.3444L40.8938 27.4243L39.4433 28.8856L40.374 29.8178L41.3047 30.7501L44.0532 27.9819C46.4753 25.5427 46.8017 25.1514 46.8017 24.6886C46.8017 24.3474 46.6625 24.0238 46.4044 23.7652C46.0073 23.3668 46.0068 23.3668 42.5203 23.3668H39.0335V20.5198C39.0335 17.7132 39.0278 17.6669 38.6362 17.2744C38.3782 17.0156 38.0555 16.876 37.7156 16.876C37.2533 16.876 36.8466 17.2208 34.2287 19.8318L31.2652 22.7873L28.3018 19.8318C25.6839 17.2208 25.2772 16.876 24.8148 16.876C24.475 16.876 24.1523 17.0156 23.8943 17.2744Z" fill="#EDBC18"/>
</svg>
