<svg width="53" height="71" viewBox="0 0 53 71" fill="none" xmlns="http://www.w3.org/2000/svg">
<path fill-rule="evenodd" clip-rule="evenodd" d="M2.55922 0.116808C1.60841 0.406542 0.755561 1.12908 0.257666 2.06676C0.0132845 2.52687 0 3.06129 0 12.3946V22.2373L0.305961 22.8104C0.695504 23.5398 1.2893 24.1348 1.96225 24.4696C2.44174 24.7082 2.89618 24.7363 6.84945 24.7729C10.6462 24.8082 11.286 24.7836 11.8112 24.5828C12.6457 24.2633 13.3387 23.6137 13.7204 22.7928C14.0388 22.1078 14.0431 22.0349 14.0443 17.2813L14.0457 12.4639H17.7792H21.5126L21.8125 13.0528C22.2031 13.8197 23.5795 15.1632 24.2077 15.3908L24.701 15.5695V35.4764V55.3832L24.2077 55.5619C23.5795 55.7895 22.2031 57.133 21.8125 57.8999L21.5126 58.4888H17.7792H14.0457L14.0443 53.6714C14.0431 48.9178 14.0388 48.8449 13.7204 48.1599C13.3387 47.339 12.6457 46.6894 11.8112 46.37C11.286 46.1691 10.6462 46.1446 6.84945 46.1798C2.89618 46.2164 2.44174 46.2445 1.96225 46.4831C1.2893 46.8179 0.695504 47.4129 0.305961 48.1423L0 48.7154V58.5581C0 68.3837 0.000553881 68.4017 0.299181 68.9553C0.651914 69.6089 1.3304 70.2776 2.00653 70.6379C2.44104 70.8694 2.91113 70.9008 6.57311 70.9418C9.23459 70.9715 10.8961 70.9336 11.3473 70.833C12.3249 70.6146 13.2375 69.9017 13.6813 69.0093C14.0421 68.2842 14.0457 68.2467 14.0457 65.1851V62.0931H17.7813H21.5169L21.8172 62.7333C22.7139 64.6442 25.0495 65.8483 27.2733 65.546C28.8425 65.3326 30.5342 64.1156 31.1828 62.7333L31.4831 62.0931H35.2187H38.9543V65.1851C38.9543 68.2467 38.9579 68.2842 39.3187 69.0093C39.7625 69.9017 40.6751 70.6146 41.6527 70.833C42.1039 70.9336 43.7654 70.9715 46.4269 70.9418C50.0889 70.9008 50.559 70.8694 50.9935 70.6379C51.6696 70.2776 52.3481 69.6089 52.7008 68.9553C52.9994 68.4017 53 68.3837 53 58.5581V48.7154L52.694 48.1423C52.3045 47.4129 51.7107 46.8179 51.0378 46.4831C50.5583 46.2445 50.1038 46.2164 46.1505 46.1798C42.3538 46.1446 41.714 46.1691 41.1887 46.37C40.3543 46.6894 39.6613 47.339 39.2796 48.1599C38.9612 48.8449 38.9569 48.9178 38.9557 53.6714L38.9543 58.4888H35.2208H31.4874L31.1875 57.8999C30.7969 57.133 29.4205 55.7895 28.7923 55.5619L28.299 55.3832V35.4764V15.5695L28.7923 15.3908C29.4205 15.1632 30.7969 13.8197 31.1875 13.0528L31.4874 12.4639H35.2208H38.9543L38.9557 17.2813C38.9569 22.0349 38.9612 22.1078 39.2796 22.7928C39.6613 23.6137 40.3543 24.2633 41.1887 24.5828C41.714 24.7836 42.3538 24.8082 46.1505 24.7729C50.1038 24.7363 50.5583 24.7082 51.0378 24.4696C51.7107 24.1348 52.3045 23.5398 52.694 22.8104L53 22.2373V12.3946C53 3.06129 52.9867 2.52687 52.7423 2.06676C52.3827 1.38942 51.7151 0.709724 51.0627 0.356359C50.5372 0.071892 50.302 0.0542861 46.4269 0.0108952C43.7654 -0.0187714 42.1039 0.0190744 41.6527 0.119719C40.6751 0.33806 39.7625 1.05103 39.3187 1.94338C38.9579 2.66855 38.9543 2.70598 38.9543 5.7676V8.85958H35.2187H31.4831L31.1828 8.2194C30.5342 6.83713 28.8425 5.6201 27.2733 5.40675C25.0495 5.1044 22.7139 6.30853 21.8172 8.2194L21.5169 8.85958H17.7813H14.0457V5.7676C14.0457 2.70598 14.0421 2.66855 13.6813 1.94338C13.2612 1.09872 12.3545 0.360656 11.4589 0.134136C10.7944 -0.0340206 3.10306 -0.0488539 2.55922 0.116808ZM3.52872 12.4639V21.3362H7.05744H10.5862V12.4639V3.59168H7.05744H3.52872V12.4639ZM42.4138 12.4639V21.3362H45.9426H49.4713V12.4639V3.59168H45.9426H42.4138V12.4639ZM25.6746 9.11494C24.6779 9.65032 24.4576 10.8791 25.1998 11.7626C26.1433 12.8859 27.9616 12.351 28.2392 10.8682C28.4128 9.94103 27.4766 8.85958 26.5 8.85958C26.3074 8.85958 25.936 8.97451 25.6746 9.11494ZM3.52872 58.4888V67.361H7.05744H10.5862V58.4888V49.6165H7.05744H3.52872V58.4888ZM42.4138 58.4888V67.361H45.9426H49.4713V58.4888V49.6165H45.9426H42.4138V58.4888ZM25.9926 58.6443C25.4422 58.7996 24.8779 59.4594 24.7608 60.0845C24.5872 61.0117 25.5234 62.0931 26.5 62.0931C27.042 62.0931 27.7662 61.6358 28.0536 61.112C28.774 59.799 27.463 58.2294 25.9926 58.6443Z" fill="black"/>
<mask id="mask0_96_898" style="mask-type:alpha" maskUnits="userSpaceOnUse" x="0" y="0" width="53" height="71">
<path fill-rule="evenodd" clip-rule="evenodd" d="M2.55922 0.116808C1.60841 0.406542 0.755561 1.12908 0.257666 2.06676C0.0132845 2.52687 0 3.06129 0 12.3946V22.2373L0.305961 22.8104C0.695504 23.5398 1.2893 24.1348 1.96225 24.4696C2.44174 24.7082 2.89618 24.7363 6.84945 24.7729C10.6462 24.8082 11.286 24.7836 11.8112 24.5828C12.6457 24.2633 13.3387 23.6137 13.7204 22.7928C14.0388 22.1078 14.0431 22.0349 14.0443 17.2813L14.0457 12.4639H17.7792H21.5126L21.8125 13.0528C22.2031 13.8197 23.5795 15.1632 24.2077 15.3908L24.701 15.5695V35.4764V55.3832L24.2077 55.5619C23.5795 55.7895 22.2031 57.133 21.8125 57.8999L21.5126 58.4888H17.7792H14.0457L14.0443 53.6714C14.0431 48.9178 14.0388 48.8449 13.7204 48.1599C13.3387 47.339 12.6457 46.6894 11.8112 46.37C11.286 46.1691 10.6462 46.1446 6.84945 46.1798C2.89618 46.2164 2.44174 46.2445 1.96225 46.4831C1.2893 46.8179 0.695504 47.4129 0.305961 48.1423L0 48.7154V58.5581C0 68.3837 0.000553881 68.4017 0.299181 68.9553C0.651914 69.6089 1.3304 70.2776 2.00653 70.6379C2.44104 70.8694 2.91113 70.9008 6.57311 70.9418C9.23459 70.9715 10.8961 70.9336 11.3473 70.833C12.3249 70.6146 13.2375 69.9017 13.6813 69.0093C14.0421 68.2842 14.0457 68.2467 14.0457 65.1851V62.0931H17.7813H21.5169L21.8172 62.7333C22.7139 64.6442 25.0495 65.8483 27.2733 65.546C28.8425 65.3326 30.5342 64.1156 31.1828 62.7333L31.4831 62.0931H35.2187H38.9543V65.1851C38.9543 68.2467 38.9579 68.2842 39.3187 69.0093C39.7625 69.9017 40.6751 70.6146 41.6527 70.833C42.1039 70.9336 43.7654 70.9715 46.4269 70.9418C50.0889 70.9008 50.559 70.8694 50.9935 70.6379C51.6696 70.2776 52.3481 69.6089 52.7008 68.9553C52.9994 68.4017 53 68.3837 53 58.5581V48.7154L52.694 48.1423C52.3045 47.4129 51.7107 46.8179 51.0378 46.4831C50.5583 46.2445 50.1038 46.2164 46.1505 46.1798C42.3538 46.1446 41.714 46.1691 41.1887 46.37C40.3543 46.6894 39.6613 47.339 39.2796 48.1599C38.9612 48.8449 38.9569 48.9178 38.9557 53.6714L38.9543 58.4888H35.2208H31.4874L31.1875 57.8999C30.7969 57.133 29.4205 55.7895 28.7923 55.5619L28.299 55.3832V35.4764V15.5695L28.7923 15.3908C29.4205 15.1632 30.7969 13.8197 31.1875 13.0528L31.4874 12.4639H35.2208H38.9543L38.9557 17.2813C38.9569 22.0349 38.9612 22.1078 39.2796 22.7928C39.6613 23.6137 40.3543 24.2633 41.1887 24.5828C41.714 24.7836 42.3538 24.8082 46.1505 24.7729C50.1038 24.7363 50.5583 24.7082 51.0378 24.4696C51.7107 24.1348 52.3045 23.5398 52.694 22.8104L53 22.2373V12.3946C53 3.06129 52.9867 2.52687 52.7423 2.06676C52.3827 1.38942 51.7151 0.709724 51.0627 0.356359C50.5372 0.071892 50.302 0.0542861 46.4269 0.0108952C43.7654 -0.0187714 42.1039 0.0190744 41.6527 0.119719C40.6751 0.33806 39.7625 1.05103 39.3187 1.94338C38.9579 2.66855 38.9543 2.70598 38.9543 5.7676V8.85958H35.2187H31.4831L31.1828 8.2194C30.5342 6.83713 28.8425 5.6201 27.2733 5.40675C25.0495 5.1044 22.7139 6.30853 21.8172 8.2194L21.5169 8.85958H17.7813H14.0457V5.7676C14.0457 2.70598 14.0421 2.66855 13.6813 1.94338C13.2612 1.09872 12.3545 0.360656 11.4589 0.134136C10.7944 -0.0340206 3.10306 -0.0488539 2.55922 0.116808ZM3.52872 12.4639V21.3362H7.05744H10.5862V12.4639V3.59168H7.05744H3.52872V12.4639ZM42.4138 12.4639V21.3362H45.9426H49.4713V12.4639V3.59168H45.9426H42.4138V12.4639ZM25.6746 9.11494C24.6779 9.65032 24.4576 10.8791 25.1998 11.7626C26.1433 12.8859 27.9616 12.351 28.2392 10.8682C28.4128 9.94103 27.4766 8.85958 26.5 8.85958C26.3074 8.85958 25.936 8.97451 25.6746 9.11494ZM3.52872 58.4888V67.361H7.05744H10.5862V58.4888V49.6165H7.05744H3.52872V58.4888ZM42.4138 58.4888V67.361H45.9426H49.4713V58.4888V49.6165H45.9426H42.4138V58.4888ZM25.9926 58.6443C25.4422 58.7996 24.8779 59.4594 24.7608 60.0845C24.5872 61.0117 25.5234 62.0931 26.5 62.0931C27.042 62.0931 27.7662 61.6358 28.0536 61.112C28.774 59.799 27.463 58.2294 25.9926 58.6443Z" fill="black"/>
</mask>
<g mask="url(#mask0_96_898)">
<rect x="21" y="4" width="11" height="62" fill="#EDBC18"/>
</g>
</svg>
