<svg width="92" height="59" viewBox="0 0 92 59" fill="none" xmlns="http://www.w3.org/2000/svg">
<rect width="71" height="59" fill="#EDBC18"/>
<path d="M20.2056 30H17.4045L21.6726 17.6364H25.0412L29.3033 30H26.5021L23.4052 20.4616H23.3086L20.2056 30ZM20.0305 25.1403H26.647V27.1808H20.0305V25.1403ZM30.7914 30V17.6364H39.1223V19.7915H33.4054V22.7376H38.6937V24.8928H33.4054V27.8448H39.1465V30H30.7914ZM45.5834 30H41.2006V17.6364H45.6196C46.8632 17.6364 47.9337 17.8839 48.8312 18.3789C49.7287 18.8699 50.4189 19.5762 50.9019 20.4979C51.3889 21.4195 51.6324 22.5223 51.6324 23.8061C51.6324 25.094 51.3889 26.2008 50.9019 27.1264C50.4189 28.0521 49.7247 28.7624 48.8192 29.2575C47.9176 29.7525 46.839 30 45.5834 30ZM43.8145 27.7603H45.4747C46.2474 27.7603 46.8974 27.6235 47.4246 27.3498C47.9559 27.0721 48.3543 26.6435 48.6199 26.0639C48.8896 25.4804 49.0244 24.7277 49.0244 23.8061C49.0244 22.8925 48.8896 22.146 48.6199 21.5664C48.3543 20.9869 47.9579 20.5603 47.4307 20.2866C46.9034 20.0129 46.2535 19.8761 45.4807 19.8761H43.8145V27.7603ZM22.5721 45.169C21.6706 45.169 20.8677 45.0141 20.1634 44.7042C19.4631 44.3903 18.9097 43.9596 18.5032 43.4123C18.1007 42.8609 17.8935 42.225 17.8814 41.5046H20.5135C20.5296 41.8065 20.6282 42.0721 20.8093 42.3015C20.9944 42.5269 21.2399 42.7019 21.5458 42.8267C21.8517 42.9515 22.1958 43.0138 22.5781 43.0138C22.9766 43.0138 23.3287 42.9434 23.6346 42.8026C23.9405 42.6617 24.1799 42.4665 24.353 42.217C24.526 41.9674 24.6126 41.6797 24.6126 41.3537C24.6126 41.0237 24.52 40.7319 24.3349 40.4783C24.1538 40.2208 23.8922 40.0195 23.5501 39.8746C23.212 39.7298 22.8095 39.6573 22.3427 39.6573H21.1896V37.7376H22.3427C22.7371 37.7376 23.0852 37.6692 23.3871 37.5323C23.6929 37.3955 23.9304 37.2063 24.0994 36.9648C24.2685 36.7193 24.353 36.4336 24.353 36.1076C24.353 35.7977 24.2785 35.526 24.1296 35.2926C23.9847 35.0552 23.7795 34.87 23.5138 34.7372C23.2522 34.6044 22.9464 34.538 22.5962 34.538C22.2421 34.538 21.9181 34.6024 21.6243 34.7312C21.3305 34.8559 21.0951 35.035 20.918 35.2685C20.7409 35.5019 20.6463 35.7756 20.6342 36.0895H18.1289C18.141 35.3771 18.3442 34.7493 18.7386 34.206C19.133 33.6626 19.6643 33.238 20.3324 32.9322C21.0045 32.6223 21.7631 32.4673 22.6083 32.4673C23.4615 32.4673 24.2081 32.6223 24.848 32.9322C25.4879 33.2421 25.985 33.6606 26.3391 34.1879C26.6973 34.7111 26.8744 35.2987 26.8704 35.9506C26.8744 36.6429 26.6591 37.2204 26.2244 37.6832C25.7938 38.1461 25.2324 38.4399 24.5401 38.5646V38.6612C25.4497 38.7779 26.1419 39.0939 26.6168 39.609C27.0958 40.1201 27.3332 40.7601 27.3292 41.5288C27.3332 42.2331 27.13 42.8589 26.7195 43.4062C26.313 43.9536 25.7515 44.3842 25.0352 44.6982C24.3188 45.0121 23.4978 45.169 22.5721 45.169ZM33.6816 32.4673C34.3174 32.4673 34.9292 32.574 35.5168 32.7873C36.1084 33.0006 36.6356 33.3407 37.0985 33.8075C37.5653 34.2744 37.9336 34.8942 38.2032 35.6669C38.4769 36.4356 38.6157 37.3794 38.6198 38.4982C38.6198 39.5487 38.501 40.4864 38.2636 41.3114C38.0302 42.1325 37.6941 42.8307 37.2554 43.4062C36.8167 43.9818 36.2875 44.4205 35.6677 44.7223C35.0479 45.0201 34.3557 45.169 33.591 45.169C32.766 45.169 32.0375 45.0101 31.4056 44.6921C30.7738 44.3701 30.2646 43.9335 29.8783 43.3821C29.4959 42.8267 29.2645 42.2029 29.184 41.5107H31.7618C31.8624 41.9614 32.0737 42.3116 32.3957 42.5611C32.7177 42.8066 33.1161 42.9293 33.591 42.9293C34.3959 42.9293 35.0077 42.5792 35.4262 41.8789C35.8448 41.1746 36.0561 40.2107 36.0601 38.9872H35.9756C35.7905 39.3494 35.5409 39.6613 35.227 39.9229C34.9131 40.1805 34.5529 40.3797 34.1464 40.5206C33.7439 40.6615 33.3153 40.7319 32.8605 40.7319C32.1321 40.7319 31.4821 40.5608 30.9106 40.2188C30.3391 39.8767 29.8883 39.4058 29.5583 38.8061C29.2283 38.2064 29.0633 37.5223 29.0633 36.7536C29.0593 35.9245 29.2504 35.186 29.6368 34.538C30.0232 33.89 30.5625 33.3829 31.2547 33.0167C31.951 32.6464 32.7599 32.4633 33.6816 32.4673ZM33.6997 34.5199C33.2932 34.5199 32.931 34.6165 32.613 34.8097C32.2991 35.0028 32.0496 35.2624 31.8644 35.5884C31.6833 35.9144 31.5948 36.2786 31.5988 36.6811C31.5988 37.0876 31.6874 37.4538 31.8644 37.7798C32.0455 38.1018 32.291 38.3594 32.6009 38.5526C32.9149 38.7417 33.2731 38.8363 33.6755 38.8363C33.9774 38.8363 34.2571 38.7799 34.5146 38.6673C34.7722 38.5546 34.9956 38.3996 35.1847 38.2024C35.3779 38.0012 35.5289 37.7698 35.6375 37.5082C35.7462 37.2466 35.8005 36.9689 35.8005 36.6751C35.7965 36.2847 35.7039 35.9265 35.5228 35.6005C35.3417 35.2745 35.0922 35.0129 34.7742 34.8157C34.4563 34.6185 34.0981 34.5199 33.6997 34.5199ZM44.9042 32.4673C45.5401 32.4673 46.1518 32.574 46.7394 32.7873C47.3311 33.0006 47.8583 33.3407 48.3211 33.8075C48.788 34.2744 49.1562 34.8942 49.4259 35.6669C49.6995 36.4356 49.8384 37.3794 49.8424 38.4982C49.8424 39.5487 49.7237 40.4864 49.4862 41.3114C49.2528 42.1325 48.9168 42.8307 48.4781 43.4062C48.0394 43.9818 47.5102 44.4205 46.8904 44.7223C46.2706 45.0201 45.5783 45.169 44.8137 45.169C43.9886 45.169 43.2602 45.0101 42.6283 44.6921C41.9964 44.3701 41.4873 43.9335 41.1009 43.3821C40.7186 42.8267 40.4872 42.2029 40.4067 41.5107H42.9845C43.0851 41.9614 43.2964 42.3116 43.6183 42.5611C43.9403 42.8066 44.3387 42.9293 44.8137 42.9293C45.6186 42.9293 46.2303 42.5792 46.6489 41.8789C47.0674 41.1746 47.2787 40.2107 47.2828 38.9872H47.1982C47.0131 39.3494 46.7636 39.6613 46.4497 39.9229C46.1357 40.1805 45.7755 40.3797 45.3691 40.5206C44.9666 40.6615 44.538 40.7319 44.0832 40.7319C43.3547 40.7319 42.7048 40.5608 42.1333 40.2188C41.5618 39.8767 41.111 39.4058 40.781 38.8061C40.451 38.2064 40.286 37.5223 40.286 36.7536C40.2819 35.9245 40.4731 35.186 40.8595 34.538C41.2458 33.89 41.7851 33.3829 42.4774 33.0167C43.1736 32.6464 43.9826 32.4633 44.9042 32.4673ZM44.9223 34.5199C44.5158 34.5199 44.1536 34.6165 43.8357 34.8097C43.5218 35.0028 43.2722 35.2624 43.0871 35.5884C42.906 35.9144 42.8174 36.2786 42.8215 36.6811C42.8215 37.0876 42.91 37.4538 43.0871 37.7798C43.2682 38.1018 43.5137 38.3594 43.8236 38.5526C44.1375 38.7417 44.4957 38.8363 44.8982 38.8363C45.2 38.8363 45.4797 38.7799 45.7373 38.6673C45.9949 38.5546 46.2182 38.3996 46.4074 38.2024C46.6006 38.0012 46.7515 37.7698 46.8602 37.5082C46.9688 37.2466 47.0232 36.9689 47.0232 36.6751C47.0191 36.2847 46.9266 35.9265 46.7455 35.6005C46.5644 35.2745 46.3148 35.0129 45.9969 34.8157C45.6789 34.6185 45.3208 34.5199 44.9223 34.5199Z" fill="black"/>
<path d="M92 17C80.8 17 73.3333 5.66667 71 0V17H92Z" fill="#896C0A"/>
</svg>
