<svg width="66" height="66" viewBox="0 0 66 66" fill="none" xmlns="http://www.w3.org/2000/svg">
<path fill-rule="evenodd" clip-rule="evenodd" d="M30.5598 0.0899715C30.3326 0.11654 29.5581 0.204229 28.8388 0.285035C25.4309 0.667452 21.6045 1.82296 18.3231 3.46028C8.48905 8.36756 1.87309 17.5255 0.242129 28.4881C-0.0490648 30.4453 -0.0859633 35.3929 0.177006 37.2374C0.717677 41.0315 1.74574 44.3864 3.36321 47.635C4.13201 49.179 5.30257 51.1697 5.85357 51.8699C6.09423 52.1759 6.10236 52.2417 5.92351 52.4393C5.81226 52.5622 5.55866 53.0179 5.35998 53.4519C4.64047 55.0231 4.78145 57.0445 5.71245 58.5058C5.92957 58.8465 6.96726 59.9771 8.01845 61.0181C10.2215 63.1997 10.3987 63.2751 11.3352 62.4291C11.6286 62.1641 11.9108 61.9473 11.9624 61.9473C12.0142 61.9473 12.7325 62.616 13.5587 63.4334L15.0609 64.9197L15.8227 64.1581L16.5845 63.3964L15.0378 61.8455L13.4911 60.2947L14.2806 59.5053L15.07 58.716L16.6227 60.2641L18.1754 61.8122L18.9258 61.0525L19.676 60.2929L18.1367 58.7454L16.5975 57.198L17.1421 56.6183C18.0726 55.6277 18.0136 55.4846 15.7247 53.174C14.0988 51.5327 13.596 51.1107 12.7892 50.7111C11.4182 50.0318 10.1714 49.9412 8.75477 50.418L7.73951 50.7598L6.92472 49.5049C5.31593 47.0278 3.87427 43.7104 3.09762 40.6989C2.39986 37.9928 2.20476 36.3181 2.20545 33.0388C2.20614 29.5055 2.47241 27.5468 3.37766 24.4135C6.31025 14.2627 14.511 6.15826 24.6767 3.36433C30.7182 1.70389 36.8723 1.85394 42.7311 3.80443C43.746 4.14224 44.6231 4.36938 44.6801 4.30895C44.8854 4.09172 45.4754 2.5454 45.3845 2.46266C45.0085 2.11989 41.4178 1.03858 39.2727 0.622024C36.5758 0.0985063 32.5806 -0.145563 30.5598 0.0899715ZM50.1433 1.89193L49.3538 2.68127L50.9005 4.23214L52.4472 5.783L51.6578 6.57234L50.8683 7.36168L49.3157 5.81356L47.7629 4.26545L47.0126 5.02519L46.2623 5.78479L47.8016 7.33222L49.3409 8.87965L48.7962 9.45933C47.8524 10.4641 47.9118 10.6036 50.2905 12.9684C52.0009 14.6688 52.4833 15.068 53.285 15.4471C54.1514 15.8566 54.3567 15.8982 55.4799 15.891C56.4065 15.8851 56.9041 15.8095 57.4527 15.5911L58.1866 15.299L59.0076 16.5632C60.6224 19.0499 62.063 22.3629 62.8407 25.3788C63.547 28.1179 63.7356 29.7543 63.7314 33.1077C63.7271 36.505 63.4987 38.2294 62.6407 41.3442C59.7524 51.8279 51.2889 60.1383 40.7481 62.8407C37.6809 63.627 36.2769 63.7999 32.9692 63.7981C28.976 63.796 26.1295 63.3303 22.7339 62.1235C21.9886 61.8586 21.3284 61.6952 21.2667 61.7602C21.0529 61.9854 20.4613 63.5308 20.5538 63.6222C20.743 63.8091 23.59 64.731 25.1846 65.1218C28.0489 65.8237 29.5715 65.9971 32.9003 65.9999C35.1255 66.002 36.3495 65.9379 37.5126 65.7584C44.9081 64.6176 51.2534 61.4507 56.3071 56.3784C58.9594 53.7163 60.8529 51.065 62.5543 47.6307C67.1413 38.3729 67.1489 27.6288 62.5751 18.4427C61.8063 16.8987 60.6358 14.908 60.0848 14.2077C59.8441 13.9017 59.836 13.8359 60.0148 13.6384C60.1261 13.5155 60.3797 13.0598 60.5784 12.6258C61.2979 11.0545 61.1569 9.03314 60.2259 7.57189C60.0088 7.23118 58.9711 6.10072 57.9199 5.05961C55.7056 2.86669 55.5432 2.79938 54.5769 3.67228L54.0173 4.17776L52.475 2.64025L50.9327 1.10259L50.1433 1.89193ZM53.2791 8.1166L50.9406 10.4616L52.3153 11.8536C53.8593 13.4169 54.4401 13.7597 55.5487 13.7621C57.4417 13.7664 58.8573 12.3591 58.85 10.4803C58.8456 9.33998 58.4852 8.70303 56.9644 7.14831L55.6176 5.77144L53.2791 8.1166ZM30.9728 12.2012C21.5442 13.2243 14.1736 20.0338 12.3665 29.3909C12.0234 31.1675 12.0241 34.8479 12.3681 36.6868C13.1892 41.0779 15.0502 44.6 18.2283 47.7775C21.4062 50.955 24.9289 52.8158 29.3206 53.6368C31.3538 54.0169 35.0006 53.983 36.9619 53.5657C41.3874 52.6243 44.5847 50.9023 47.7101 47.7775C50.8881 44.6 52.7492 41.0779 53.5703 36.6868C53.9258 34.7857 53.9258 31.2919 53.5703 29.3909C52.7492 24.9998 50.8881 21.4777 47.7101 18.3002C44.6018 15.1924 41.2194 13.3689 36.9759 12.5133C35.6809 12.2522 32.1803 12.0702 30.9728 12.2012ZM30.1698 14.5235C26.0978 15.1886 22.6146 16.9604 19.7514 19.8231C17.0904 22.4838 15.3148 25.8186 14.5606 29.5723C14.2292 31.2215 14.2292 34.8562 14.5606 36.5054C16.0913 44.1241 21.8822 49.9141 29.5021 51.4445C31.1515 51.7759 34.7868 51.7759 36.4362 51.4445C44.0522 49.9149 49.8426 44.1256 51.3785 36.5054C51.7077 34.8715 51.7057 31.2362 51.3744 29.5684C49.873 22.011 44.0038 16.1211 36.5147 14.6564C34.9146 14.3433 31.6867 14.2758 30.1698 14.5235ZM32.3796 21.076C32.0577 21.2633 25.2591 34.8596 25.2591 35.3163C25.2591 35.5193 25.4129 35.8099 25.6234 36.0051C25.9864 36.3416 25.9977 36.3427 28.9277 36.3427H31.8677V40.4098V44.4771L32.2057 44.8149C32.5629 45.1721 33.0843 45.2482 33.5319 45.0087C33.8703 44.8277 40.6793 31.2552 40.6793 30.7617C40.6793 30.5687 40.5271 30.2588 40.3413 30.073C40.0034 29.735 40.003 29.735 37.0369 29.735H34.0706V25.6679V21.6006L33.7326 21.2628C33.3756 20.9057 32.807 20.8272 32.3796 21.076ZM29.9749 30.4883L28.151 34.1401H30.7514C34.2181 34.1401 33.9799 33.9383 34.0706 36.9534L34.1395 39.2411L35.9634 35.5894L37.7873 31.9376H35.1869C31.7203 31.9376 31.9585 32.1394 31.8677 29.1242L31.7989 26.8366L29.9749 30.4883ZM9.16932 52.4996C7.93364 52.9467 7.08305 54.2054 7.08829 55.579C7.09269 56.7398 7.44584 57.3671 8.97396 58.9294L10.3207 60.3062L12.6592 57.9611L14.9977 55.616L13.623 54.224C12.8669 53.4585 12.0004 52.7162 11.6975 52.5746C11.0653 52.279 9.87631 52.2438 9.16932 52.4996Z" fill="black"/>
<path fill-rule="evenodd" clip-rule="evenodd" d="M32.3803 21.076C32.0584 21.2634 25.2598 34.8597 25.2598 35.3163C25.2598 35.5193 25.4136 35.8099 25.6241 36.0051C25.9871 36.3416 25.9984 36.3427 28.9284 36.3427H31.8684V40.4098V44.4771L32.2064 44.8149C32.5636 45.1721 33.085 45.2483 33.5326 45.0087C33.871 44.8277 40.68 31.2552 40.68 30.7617C40.68 30.5687 40.5278 30.2588 40.342 30.073C40.0041 29.735 40.0037 29.735 37.0376 29.735H34.0713V25.6679V21.6006L33.7333 21.2628C33.3763 20.9057 32.8077 20.8273 32.3803 21.076ZM29.9756 30.4883L28.1517 34.1401H30.7521C34.2188 34.1401 33.9806 33.9383 34.0713 36.9535L34.1402 39.2411L35.9641 35.5894L37.788 31.9376H35.1876C31.721 31.9376 31.9592 32.1394 31.8684 29.1243L31.7996 26.8366L29.9756 30.4883Z" fill="#EDBC18"/>
</svg>
