<svg width="61" height="69" viewBox="0 0 61 69" fill="none" xmlns="http://www.w3.org/2000/svg">
<path fill-rule="evenodd" clip-rule="evenodd" d="M13.3721 0.209807C9.3902 1.08655 6.49119 4.73268 6.48108 8.87654L6.47876 9.85497L4.80662 9.91508C3.33759 9.96791 3.04985 10.0191 2.43737 10.3357C1.41224 10.8658 0.981582 11.2831 0.463832 12.2482C0.0402683 13.0378 0 13.214 0 14.2793C0 15.3446 0.0402683 15.5208 0.463832 16.3104C0.981582 17.2755 1.41224 17.6929 2.43737 18.223C3.04985 18.5395 3.33759 18.5907 4.80662 18.6436L6.47876 18.7037V19.3047C6.47876 19.7211 6.42157 19.9056 6.2923 19.9056C6.18979 19.9056 5.67491 20.1225 5.14815 20.3873C3.98434 20.9727 3.19577 21.7962 2.611 23.0372L2.17897 23.9538L2.13556 28.0666C2.08424 32.9203 2.11345 33.0988 3.12697 34.1133C3.9741 34.9614 4.51314 35.1379 6.25572 35.1379H7.57077V37.0088C7.57077 39.3374 7.70004 39.8057 8.58989 40.7003C9.36358 41.4781 9.98494 41.7248 11.1698 41.7248H11.9388V51.6052C11.9388 60.6563 11.9201 61.4855 11.7158 61.4855C10.6748 61.4855 9.14341 62.6951 8.82877 63.7657C8.73745 64.0764 8.66279 65.0209 8.66279 65.8646C8.66279 67.3106 8.68203 67.4182 8.9979 67.7356L9.33287 68.0724H15.2148H21.0968L21.4318 67.7356C21.7477 67.4182 21.7669 67.3106 21.7669 65.8646C21.7669 65.0209 21.6922 64.0764 21.6009 63.7657C21.2863 62.6951 19.7549 61.4855 18.7139 61.4855C18.5096 61.4855 18.4909 60.6563 18.4909 51.6052V41.7248H19.2599C20.4448 41.7248 21.0661 41.4781 21.8398 40.7003C22.7297 39.8057 22.8589 39.3374 22.8589 37.0088V35.1379H30.503H38.1471V37.0088C38.1471 39.3374 38.2763 39.8057 39.1662 40.7003C39.9399 41.4781 40.5612 41.7248 41.7461 41.7248H42.5151V51.6052C42.5151 60.6563 42.4964 61.4855 42.2921 61.4855C41.2511 61.4855 39.7197 62.6951 39.4051 63.7657C39.3138 64.0764 39.2391 65.0209 39.2391 65.8646C39.2391 67.3106 39.2583 67.4182 39.5742 67.7356L39.9092 68.0724H45.7912H51.6731L52.0081 67.7356C52.324 67.4182 52.3432 67.3106 52.3432 65.8646C52.3432 65.0209 52.2686 64.0764 52.1772 63.7657C51.8626 62.6951 50.3312 61.4855 49.2902 61.4855C49.0859 61.4855 49.0672 60.6563 49.0672 51.6052V41.7248H49.8362C51.0211 41.7248 51.6424 41.4781 52.4161 40.7003C53.306 39.8057 53.4352 39.3374 53.4352 37.0088V35.1379H54.7503C56.4929 35.1379 57.0319 34.9614 57.879 34.1133C58.8926 33.0988 58.9218 32.9203 58.8704 28.0666L58.827 23.9538L58.395 23.0372C57.8102 21.7962 57.0217 20.9727 55.8579 20.3873C55.3311 20.1225 54.8162 19.9056 54.7137 19.9056C54.5844 19.9056 54.5272 19.7211 54.5272 19.3047V18.7037L56.1994 18.6464C57.7847 18.5922 57.9162 18.5653 58.7316 18.1268C59.6886 17.6122 60.1024 17.1824 60.6377 16.1466C60.9466 15.5489 61 15.2741 61 14.2793C61 13.2846 60.9466 13.0097 60.6377 12.4121C60.1024 11.3763 59.6886 10.9465 58.7316 10.4319C57.9178 9.99426 57.7825 9.96626 56.2182 9.91274L54.5648 9.8562L54.4942 8.46499C54.3729 6.07449 53.5653 4.26145 51.858 2.54624C50.724 1.40725 49.1268 0.524607 47.6339 0.212277C46.2886 -0.0691759 14.6495 -0.0715088 13.3721 0.209807ZM13.5921 2.42027C11.2848 3.04396 9.47511 4.88926 8.86645 7.23859C8.70128 7.87602 8.66279 9.13425 8.66279 13.8965V19.7684H9.7477H10.8326L10.8738 14.1764L10.9151 8.58438L11.3471 7.6677C11.9482 6.3919 12.7221 5.59735 13.9645 4.98011L14.9959 4.46756H30.503H46.0101L47.0415 4.98011C48.2839 5.59735 49.0578 6.3919 49.6589 7.6677L50.091 8.58438L50.1322 14.1764L50.1734 19.7684H51.2583H52.3432V13.8965C52.3432 9.13425 52.3047 7.87602 52.1396 7.23859C51.523 4.85893 49.7096 3.02997 47.3552 2.4134C46.1825 2.10643 14.7296 2.11274 13.5921 2.42027ZM15.2148 6.77394C14.5449 6.98623 13.4022 8.17572 13.1968 8.87475C13.0794 9.27436 13.0308 10.9503 13.0308 14.604V19.7684H30.503H47.9752V14.604C47.9752 10.9503 47.9266 9.27436 47.8092 8.87475C47.5877 8.12097 46.4569 6.98417 45.7071 6.76145C44.9428 6.53448 15.9331 6.54642 15.2148 6.77394ZM3.40066 12.2768C2.12164 12.8368 1.71923 14.5879 2.62165 15.6663C3.15646 16.3052 3.69291 16.475 5.17763 16.475H6.47876V14.2793V12.0837L5.14788 12.089C4.35289 12.0923 3.64936 12.1678 3.40066 12.2768ZM54.5272 14.2793V16.4992L56.0192 16.4527C57.6314 16.4026 57.9353 16.2834 58.5456 15.4615C58.9402 14.9302 58.9402 13.6284 58.5456 13.0971C57.9353 12.2752 57.6314 12.156 56.0192 12.1059L54.5272 12.0594V14.2793ZM6.47876 22.1434C5.80882 22.3557 4.66616 23.5452 4.46073 24.2442C4.366 24.5666 4.29474 25.6121 4.29474 26.68V28.551H7.27347C10.8269 28.551 11.2143 28.4633 12.1161 27.4548C12.9001 26.5783 13.0308 26.0606 13.0308 23.835V21.9641L9.99367 21.978C8.20045 21.9863 6.76078 22.0541 6.47876 22.1434ZM15.1945 24.27L15.1466 26.576L14.6368 27.6127C14.0228 28.8614 13.2322 29.6395 11.9634 30.2437L11.0516 30.678L7.67315 30.7229L4.29474 30.7677V31.5181C4.29474 32.1319 4.35576 32.3299 4.62985 32.6054L4.96483 32.9422H30.503H56.0412L56.3762 32.6054C56.6502 32.3299 56.7113 32.1319 56.7113 31.5181V30.7677L53.3329 30.7229L49.9544 30.678L49.0672 30.2512C47.7674 29.6259 46.9825 28.8599 46.3743 27.6232L45.8594 26.576L45.8115 24.27L45.7636 21.9641H30.503H15.2424L15.1945 24.27ZM47.9752 23.835C47.9752 26.1636 48.1044 26.6318 48.9943 27.5264C49.9487 28.4859 50.2511 28.551 53.7582 28.551H56.7113V26.68C56.7113 24.4545 56.5805 23.9367 55.7966 23.0602C54.8947 22.0517 54.5073 21.9641 50.9539 21.9641H47.9752V23.835ZM19.5829 25.2575V26.3553H30.503H41.4231V25.2575V24.1597H30.503H19.5829V25.2575ZM19.5829 29.6488V30.7466H30.503H41.4231V29.6488V28.551H30.503H19.5829V29.6488ZM9.7548 36.9966C9.7548 38.7873 9.76708 38.8679 10.0899 39.1923L10.4249 39.5292H15.2148H20.0048L20.3398 39.1923C20.6626 38.8679 20.6749 38.7873 20.6749 36.9966V35.1379H15.2148H9.7548V36.9966ZM40.3311 36.9966C40.3311 38.7873 40.3434 38.8679 40.6662 39.1923L41.0012 39.5292H45.7912H50.5811L50.9161 39.1923C51.2389 38.8679 51.2512 38.7873 51.2512 36.9966V35.1379H45.7912H40.3311V36.9966ZM29.411 39.5292V40.627H30.503H31.595V39.5292V38.4313H30.503H29.411V39.5292ZM14.1228 51.6052V61.4855H15.2148H16.3069V51.6052V41.7248H15.2148H14.1228V51.6052ZM44.6991 51.6052V61.4855H45.7912H46.8832V51.6052V41.7248H45.7912H44.6991V51.6052ZM29.411 43.9204V45.0182H30.503H31.595V43.9204V42.8226H30.503H29.411V43.9204ZM24.2922 45.0523C23.9168 45.1286 23.5914 45.2065 23.5691 45.2255C23.4982 45.2857 23.8543 47.1403 23.9604 47.2629C24.0165 47.3278 24.4971 47.3024 25.0303 47.2066C26.1142 47.0119 26.0801 47.0732 25.8383 45.7545C25.6582 44.7712 25.6629 44.7734 24.2922 45.0523ZM35.3525 45.1898C35.1318 46.167 35.0138 46.751 35.0108 46.8814C35.008 47.0113 36.4068 47.3511 36.9448 47.3511C37.0822 47.3511 37.1943 47.079 37.3045 46.4777C37.5437 45.1722 37.5685 45.2222 36.5957 45.042C35.4494 44.8296 35.4334 44.8315 35.3525 45.1898ZM29.411 48.3117V49.4095H30.503H31.595V48.3117V47.2139H30.503H29.411V48.3117ZM25.1453 49.4493C24.2652 49.6084 24.2824 49.5694 24.5206 50.8689C24.7021 51.8597 24.6983 51.8579 26.0494 51.5851L26.8282 51.4279L26.7439 50.8625C26.4903 49.1625 26.5314 49.1987 25.1453 49.4493ZM34.5335 49.5811C34.3128 50.5583 34.1948 51.1423 34.1918 51.2727C34.1889 51.4026 35.5878 51.7424 36.1258 51.7424C36.2632 51.7424 36.3753 51.4703 36.4854 50.8689C36.7247 49.5635 36.7494 49.6134 35.7767 49.4333C34.6304 49.2208 34.6144 49.2228 34.5335 49.5811ZM29.411 52.703V53.8008H30.503H31.595V52.703V51.6052H30.503H29.411V52.703ZM25.9643 53.8406C25.3011 53.9604 25.1804 54.0268 25.1855 54.269C25.1958 54.7707 25.5169 56.1468 25.627 56.1618C25.6853 56.1698 26.1642 56.0988 26.6911 56.0041L27.6492 55.832L27.5639 55.2602C27.3091 53.5528 27.351 53.5899 25.9643 53.8406ZM33.7184 53.9566C33.4959 54.9364 33.3758 55.5338 33.3728 55.6752C33.3701 55.8061 35.1794 56.2428 35.4169 56.1687C35.4998 56.1427 35.8124 54.6696 35.8205 54.2655C35.8255 54.0271 35.7231 53.9607 35.2464 53.8934C34.9274 53.8484 34.4696 53.7712 34.2292 53.7218C33.8469 53.6431 33.7829 53.6725 33.7184 53.9566ZM29.411 57.0943V58.1921H27.0161C24.6551 58.1921 24.6162 58.1969 24.286 58.529L23.9509 58.8657V63.1323V67.3988L24.286 67.7356L24.621 68.0724H30.503H36.385L36.72 67.7356L37.0551 67.3988V63.1323V58.8657L36.72 58.529C36.3898 58.1969 36.3509 58.1921 33.9899 58.1921H31.595V57.0943V55.9964H30.503H29.411V57.0943ZM26.135 63.1323V65.8768H30.503H34.871V63.1323V60.3877H30.503H26.135V63.1323ZM11.1819 64.0181C10.9067 64.2946 10.8468 64.4908 10.8468 65.1159V65.8768H15.2148H19.5829V65.1159C19.5829 64.4908 19.523 64.2946 19.2478 64.0181L18.9128 63.6812H15.2148H11.5169L11.1819 64.0181ZM41.7582 64.0181C41.483 64.2946 41.4231 64.4908 41.4231 65.1159V65.8768H45.7912H50.1592V65.1159C50.1592 64.4908 50.0993 64.2946 49.8241 64.0181L49.4891 63.6812H45.7912H42.0932L41.7582 64.0181Z" fill="black"/>
<path fill-rule="evenodd" clip-rule="evenodd" d="M29.4117 39.5282V40.6261H30.5037H31.5957V39.5282V38.4304H30.5037H29.4117V39.5282ZM29.4117 43.9195V45.0173H30.5037H31.5957V43.9195V42.8217H30.5037H29.4117V43.9195ZM24.2929 45.0514C23.9175 45.1277 23.5921 45.2056 23.5698 45.2245C23.4988 45.2848 23.855 47.1394 23.961 47.262C24.0171 47.3269 24.4978 47.3015 25.0309 47.2057C26.1149 47.011 26.0808 47.0723 25.839 45.7536C25.6588 44.7703 25.6636 44.7725 24.2929 45.0514ZM35.3532 45.1889C35.1324 46.1661 35.0145 46.7501 35.0115 46.8805C35.0086 47.0104 36.4075 47.3502 36.9455 47.3502C37.0829 47.3502 37.195 47.0781 37.3051 46.4767C37.5444 45.1713 37.5691 45.2213 36.5964 45.0411C35.4501 44.8286 35.4341 44.8306 35.3532 45.1889ZM29.4117 48.3108V49.4086H30.5037H31.5957V48.3108V47.213H30.5037H29.4117V48.3108ZM25.146 49.4484C24.2658 49.6075 24.283 49.5685 24.5212 50.868C24.7028 51.8588 24.699 51.857 26.0501 51.5842L26.8289 51.427L26.7446 50.8616C26.491 49.1616 26.532 49.1978 25.146 49.4484ZM34.5342 49.5801C34.3134 50.5573 34.1955 51.1414 34.1925 51.2717C34.1896 51.4017 35.5885 51.7415 36.1264 51.7415C36.2639 51.7415 36.376 51.4694 36.4861 50.868C36.7254 49.5626 36.7501 49.6125 35.7774 49.4324C34.6311 49.2199 34.6151 49.2218 34.5342 49.5801ZM29.4117 52.7021V53.7999H30.5037H31.5957V52.7021V51.6043H30.5037H29.4117V52.7021ZM25.965 53.8397C25.3018 53.9595 25.1811 54.0259 25.1861 54.2681C25.1965 54.7698 25.5176 56.1459 25.6277 56.1609C25.686 56.1688 26.1649 56.0979 26.6917 56.0032L27.6499 55.8311L27.5645 55.2593C27.3098 53.5519 27.3517 53.589 25.965 53.8397ZM33.7191 53.9556C33.4966 54.9354 33.3765 55.5329 33.3735 55.6743C33.3708 55.8052 35.1801 56.2418 35.4176 56.1677C35.5005 56.1418 35.813 54.6687 35.8212 54.2645C35.8261 54.0262 35.7238 53.9598 35.2471 53.8925C34.9281 53.8475 34.4703 53.7702 34.2299 53.7208C33.8476 53.6422 33.7835 53.6716 33.7191 53.9556ZM29.4117 57.0933V58.1912H27.0168C24.6558 58.1912 24.6169 58.196 24.2867 58.5281L23.9516 58.8648V63.1313V67.3979L24.2867 67.7346L24.6217 68.0715H30.5037H36.3857L36.7206 67.7346L37.0558 67.3979V63.1313V58.8648L36.7206 58.5281C36.3904 58.196 36.3515 58.1912 33.9906 58.1912H31.5957V57.0933V55.9955H30.5037H29.4117V57.0933ZM26.1356 63.1313V65.8759H30.5037H34.8717V63.1313V60.3868H30.5037H26.1356V63.1313Z" fill="#EDBC18"/>
</svg>
