<svg width="54" height="73" viewBox="0 0 54 73" fill="none" xmlns="http://www.w3.org/2000/svg">
<path fill-rule="evenodd" clip-rule="evenodd" d="M9.80366 0.24927C9.52931 0.384417 9.12387 0.732198 8.90267 1.02232L8.50023 1.54969L8.45774 7.54936C8.42245 12.5147 8.45173 13.6047 8.62712 13.8725C8.76888 14.0887 9.76522 14.5637 11.6354 15.3062L14.4317 16.4166V19.0185V21.6203H8.78044C4.78232 21.6203 2.94836 21.6738 2.51108 21.8029C1.68623 22.0467 0.442271 23.2906 0.198555 24.1155C-0.0661849 25.0115 -0.0661849 68.6844 0.198555 69.5804C0.442271 70.4053 1.68623 71.6492 2.51108 71.8929C3.40411 72.1568 36.2712 72.1568 37.1642 71.8929C37.989 71.6492 39.233 70.4053 39.4767 69.5804C39.7415 68.6844 39.7415 25.0115 39.4767 24.1155C39.233 23.2906 37.989 22.0467 37.1642 21.8029C36.7223 21.6725 34.7638 21.6203 30.2942 21.6203H24.0422V19.0185V16.4166L26.8336 15.3082C28.5317 14.6338 29.7081 14.0814 29.8369 13.8972C29.982 13.6902 30.0488 13.1596 30.0488 12.215V10.8351L31.6754 10.7842C33.17 10.7375 33.3448 10.7007 33.8316 10.3289C34.7691 9.61321 34.8805 9.17278 34.8266 6.39775C34.7793 3.96538 34.7766 3.94842 34.3462 3.3847C33.7449 2.59709 33.1733 2.39932 31.4989 2.39932H30.0863L29.9913 1.9239C29.8599 1.26693 29.207 0.456646 28.6072 0.206022C28.1977 0.034835 26.4821 -0.00270585 19.2042 0.000147267C11.2697 0.00315055 10.248 0.0301799 9.80366 0.24927ZM10.8278 7.40385V12.4084L13.6192 13.5167C15.3172 14.1911 16.4936 14.7436 16.6225 14.9277C16.8 15.181 16.8344 16.9211 16.8344 25.6332V36.0361H19.237H21.6396V25.6332C21.6396 16.9211 21.674 15.181 21.8515 14.9277C21.9803 14.7436 23.1567 14.1911 24.8548 13.5167L27.6462 12.4084V7.40385V2.39932H19.237H10.8278V7.40385ZM30.0488 6.60392V8.40589H31.2501H32.4514V6.60392V4.80195H31.2501H30.0488V6.60392ZM2.78724 24.3916L2.41858 24.7601V46.8479V68.9358L2.78724 69.3043L3.15574 69.6729H19.8376H36.5195L36.888 69.3043L37.2567 68.9358V46.8479V24.7601L36.888 24.3916L36.5195 24.023H30.2808H24.0422V25.2243V26.4256H28.4769C33.4368 26.4256 33.6173 26.4559 34.3462 27.4116L34.779 27.9789L34.8182 46.973C34.8571 65.7861 34.8545 65.9729 34.5533 66.5812C34.386 66.9189 34.0642 67.3303 33.8382 67.4955C33.4347 67.7906 33.1905 67.7959 19.8376 67.7959C6.48473 67.7959 6.24056 67.7906 5.83707 67.4955C5.61107 67.3303 5.29017 66.9204 5.12379 66.5846C4.82541 65.9825 4.82121 65.7173 4.82121 47.161C4.82121 26.219 4.74418 27.7445 5.84398 26.9052L6.37391 26.5007L10.4028 26.4562L14.4317 26.4118V25.2174V24.023H8.79381H3.15574L2.78724 24.3916ZM45.8431 24.2756C45.5687 24.4107 45.1633 24.7585 44.9421 25.0483C44.5404 25.5743 44.5395 25.5815 44.4937 28.6129C44.4414 32.0628 44.5155 32.4122 45.4501 33.1256L46.017 33.5584L49.0668 33.6045C52.5054 33.6565 52.8565 33.5794 53.5955 32.6104L54 32.0802V28.8282V25.5763L53.5672 25.009C52.8774 24.1045 52.5161 24.0225 49.2371 24.0264C46.8645 24.0291 46.2515 24.0742 45.8431 24.2756ZM46.8672 28.8282V31.2309H49.2698H51.6725V28.8282V26.4256H49.2698H46.8672V28.8282ZM7.22384 47.1483V65.4683H19.8376H32.4514V47.1483V28.8282H28.2468H24.0422V30.0295V31.2309H26.6769C29.2741 31.2309 29.3169 31.2361 29.6802 31.5995L30.0488 31.968V44.4453V56.9226L29.6802 57.2911C29.3252 57.6463 29.237 57.6598 27.2775 57.6598H25.2435V60.2944C25.2435 62.8916 25.2383 62.9344 24.8749 63.2977L24.5064 63.6663H18.0357H11.5649L11.1964 63.2977L10.8278 62.9292V58.8611V54.793L11.1964 54.4245C11.5597 54.0611 11.6025 54.0558 14.1997 54.0558H16.8344V51.4212C16.8344 48.824 16.8396 48.7812 17.203 48.4179C17.558 48.0628 17.6461 48.0493 19.6056 48.0493H21.6396V45.6466V43.244H16.0017H10.3636L9.99512 42.8753L9.62647 42.5068V37.2374V31.968L9.99512 31.5995C10.3501 31.2444 10.4383 31.2309 12.3977 31.2309H14.4317V30.0295V28.8282H10.8278H7.22384V47.1483ZM12.0291 37.2374V40.8414H17.667H23.3051L23.6736 41.21L24.0422 41.5785V45.6466V49.7147L23.6736 50.0832C23.3186 50.4384 23.2304 50.4519 21.271 50.4519H19.237V53.0865C19.237 56.6532 19.4317 56.4585 15.865 56.4585H13.2304V58.8611V61.2637H18.0357H22.8409V58.6291C22.8409 56.0318 22.8462 55.989 23.2096 55.6258C23.5646 55.2707 23.6527 55.2571 25.6122 55.2571H27.6462V44.4453V33.6335H25.8574H24.0688L24.0179 35.2601C23.9712 36.7547 23.9344 36.9294 23.5626 37.4163C22.8232 38.3847 22.4721 38.4617 19.034 38.4098L15.9841 38.3637L15.4173 37.9309C14.6272 37.3278 14.4317 36.7595 14.4317 35.0649V33.6335H13.2304H12.0291V37.2374ZM45.8431 36.2887C45.5687 36.4238 45.1633 36.7716 44.9421 37.0614C44.5404 37.5875 44.5395 37.5947 44.4937 40.626C44.4414 44.0759 44.5155 44.4253 45.4501 45.1388L46.017 45.5715L49.0668 45.6176C52.5054 45.6696 52.8565 45.5926 53.5955 44.6236L54 44.0933V40.8414V37.5894L53.5672 37.0221C52.8774 36.1177 52.5161 36.0357 49.2371 36.0396C46.8645 36.0423 46.2515 36.0873 45.8431 36.2887ZM46.8672 40.8414V43.244H49.2698H51.6725V40.8414V38.4387H49.2698H46.8672V40.8414ZM45.8431 48.3018C45.5687 48.437 45.1633 48.7848 44.9421 49.0746C44.5404 49.6006 44.5395 49.6078 44.4937 52.6392C44.4414 56.0891 44.5155 56.4385 45.4501 57.1519L46.017 57.5847L49.0668 57.6308C52.5054 57.6827 52.8565 57.6057 53.5955 56.6367L54 56.1065V52.8545V49.6026L53.5672 49.0352C52.8774 48.1308 52.5161 48.0488 49.2371 48.0527C46.8645 48.0554 46.2515 48.1005 45.8431 48.3018ZM46.8672 52.8545V55.2571H49.2698H51.6725V52.8545V50.4519H49.2698H46.8672V52.8545ZM45.8431 60.315C45.5687 60.4501 45.1633 60.7979 44.9421 61.0877C44.5404 61.6137 44.5395 61.621 44.4937 64.6523C44.4414 68.1022 44.5155 68.4516 45.4501 69.1651L46.017 69.5978L49.0668 69.6439C52.5054 69.6959 52.8565 69.6189 53.5955 68.6498L54 68.1196V64.8677V61.6157L53.5672 61.0484C52.8774 60.1439 52.5161 60.0619 49.2371 60.0659C46.8645 60.0686 46.2515 60.1136 45.8431 60.315ZM46.8672 64.8677V67.2703H49.2698H51.6725V64.8677V62.465H49.2698H46.8672V64.8677Z" fill="black"/>
<path fill-rule="evenodd" clip-rule="evenodd" d="M45.8424 24.2756C45.568 24.4108 45.1626 24.7585 44.9414 25.0484C44.5397 25.5744 44.5388 25.5816 44.493 28.613C44.4407 32.0628 44.5148 32.4123 45.4494 33.1257L46.0163 33.5585L49.0661 33.6046C52.5047 33.6565 52.8558 33.5795 53.5948 32.6105L53.9993 32.0803V28.8283V25.5763L53.5665 25.009C52.8767 24.1046 52.5154 24.0226 49.2364 24.0265C46.8638 24.0292 46.2508 24.0742 45.8424 24.2756ZM46.8665 28.8283V31.2309H49.2691H51.6717V28.8283V26.4257H49.2691H46.8665V28.8283ZM45.8424 36.2888C45.568 36.4239 45.1626 36.7717 44.9414 37.0615C44.5397 37.5875 44.5388 37.5947 44.493 40.6261C44.4407 44.076 44.5148 44.4254 45.4494 45.1388L46.0163 45.5716L49.0661 45.6177C52.5047 45.6697 52.8558 45.5926 53.5948 44.6236L53.9993 44.0934V40.8414V37.5895L53.5665 37.0222C52.8767 36.1177 52.5154 36.0357 49.2364 36.0396C46.8638 36.0423 46.2508 36.0874 45.8424 36.2888ZM46.8665 40.8414V43.2441H49.2691H51.6717V40.8414V38.4388H49.2691H46.8665V40.8414ZM45.8424 48.3019C45.568 48.437 45.1626 48.7848 44.9414 49.0746C44.5397 49.6007 44.5388 49.6079 44.493 52.6392C44.4407 56.0891 44.5148 56.4385 45.4494 57.152L46.0163 57.5847L49.0661 57.6308C52.5047 57.6828 52.8558 57.6058 53.5948 56.6368L53.9993 56.1065V52.8546V49.6026L53.5665 49.0353C52.8767 48.1309 52.5154 48.0489 49.2364 48.0528C46.8638 48.0555 46.2508 48.1005 45.8424 48.3019ZM46.8665 52.8546V55.2572H49.2691H51.6717V52.8546V50.4519H49.2691H46.8665V52.8546ZM45.8424 60.315C45.568 60.4502 45.1626 60.798 44.9414 61.0878C44.5397 61.6138 44.5388 61.621 44.493 64.6524C44.4407 68.1022 44.5148 68.4517 45.4494 69.1651L46.0163 69.5979L49.0661 69.644C52.5047 69.6959 52.8558 69.6189 53.5948 68.6499L53.9993 68.1197V64.8677V61.6158L53.5665 61.0484C52.8767 60.144 52.5154 60.062 49.2364 60.0659C46.8638 60.0686 46.2508 60.1137 45.8424 60.315ZM46.8665 64.8677V67.2703H49.2691H51.6717V64.8677V62.4651H49.2691H46.8665V64.8677Z" fill="#EDBC18"/>
</svg>
