<svg width="65" height="65" viewBox="0 0 65 65" fill="none" xmlns="http://www.w3.org/2000/svg">
<path fill-rule="evenodd" clip-rule="evenodd" d="M28.9112 0.136777C21.5141 0.971578 14.7147 4.28664 9.39221 9.65316C6.11505 12.9574 3.59393 16.8929 1.96822 21.2424C-0.109614 26.8014 -0.573876 33.6188 0.726231 39.4802C1.90792 44.8073 4.83982 50.4579 8.40282 54.2751C8.78799 54.6877 9.10304 55.0821 9.10304 55.1518C9.10304 55.2215 8.71136 55.4656 8.23264 55.6944C7.13365 56.2193 6.90131 56.474 6.9603 57.0885C7.00454 57.551 7.08724 57.613 8.87388 58.5276L10.7413 59.4832L11.5676 61.2228C12.4772 63.1373 12.8466 63.5339 13.4922 63.2885C13.7795 63.1794 14.0552 62.7762 14.623 61.635L15.3738 60.1258L16.106 60.5597C19.8512 62.7783 24.6712 64.3521 29.3439 64.8818C31.4741 65.1232 35.7373 64.9794 37.9477 64.5914C44.7749 63.3934 50.6379 60.3511 55.5148 55.4761C60.48 50.5129 63.5293 44.5395 64.7241 37.4356C65.0945 35.2325 65.0914 29.7444 64.718 27.5097C63.9843 23.116 62.3846 18.827 60.2216 15.4537L59.5715 14.4398L60.8299 13.8504C63.4454 12.6251 63.4067 12.0918 60.6 10.6831L58.9125 9.83599L58.045 8.07215C56.7442 5.42727 56.1711 5.28953 55.1377 7.37306L54.5628 8.53233L53.4701 7.60402C48.6288 3.4913 42.3882 0.826615 35.9653 0.129406C34.3473 -0.0463413 30.4977 -0.0422946 28.9112 0.136777ZM30.2847 2.00222C23.0001 2.53278 16.186 5.65591 10.9367 10.8701C7.15563 14.6257 4.26075 19.6231 2.95356 24.6514C0.621986 33.6196 2.42857 43.1357 7.85542 50.4711C8.81388 51.7664 10.6727 53.8863 10.8501 53.8863C10.9216 53.8863 11.3377 53.1736 11.7748 52.3026C12.2119 51.4315 12.7028 50.6474 12.8659 50.5603C13.5526 50.1927 14.0077 50.6723 14.968 52.7763L15.6817 54.34L17.4167 55.2127C19.4332 56.227 19.6577 56.3979 19.6577 56.9187C19.6577 57.407 19.2522 57.7793 18.0844 58.3627L17.1618 58.8237L17.6506 59.1245C19.3567 60.1743 23.3643 61.6829 25.9927 62.2648C36.0764 64.4969 46.6315 61.4226 54.0105 54.1044C56.5357 51.6 58.2904 49.189 59.8493 46.0817C62.069 41.6574 63.0746 37.3718 63.0711 32.3515C63.0672 26.8466 61.666 21.7511 58.8015 16.8251L58.2192 15.824L57.7184 16.8251C57.0996 18.0619 56.8672 18.3321 56.4226 18.3321C55.7844 18.3321 55.571 18.0726 54.7374 16.281L53.9095 14.5021L52.2903 13.7576C49.5735 12.5086 49.5092 11.9624 51.9395 10.779L53.3524 10.0911L52.6614 9.47755C46.6837 4.17059 38.4197 1.40979 30.2847 2.00222ZM29.7064 7.58306C29.4678 7.6179 28.5895 7.7737 27.7545 7.92921C21.9441 9.0113 16.3436 12.4395 12.7352 17.1229L11.8295 18.2985L11.4849 17.9539C11.052 17.5212 10.5427 17.5138 10.1556 17.9347C9.99108 18.1136 9.55646 18.861 9.18965 19.5958L8.52283 20.9318L7.18628 21.5989C5.58616 22.3977 5.34384 22.5946 5.34384 23.0964C5.34384 23.6921 5.59889 23.9095 7.12483 24.6138C8.26055 25.1382 8.52962 25.3197 8.47077 25.5223C7.56524 28.6411 7.26277 32.8307 7.71879 35.9364C8.5383 41.5175 10.9585 46.3352 14.9051 50.241C18.8317 54.127 23.5719 56.4848 29.0841 57.2934C31.3178 57.6212 35.1382 57.5192 37.365 57.0725C45.6801 55.4042 52.5356 49.7182 55.7746 41.8038C58.139 36.0261 58.1391 28.9662 55.7746 23.1882C52.9364 16.2525 47.2681 10.9611 40.2046 8.65388C37.7749 7.86013 36.0665 7.602 32.9595 7.55878C31.4089 7.5371 29.945 7.54809 29.7064 7.58306ZM55.9485 10.2028C55.489 11.0882 55.357 11.2232 54.5141 11.6686L53.5856 12.1593L54.2972 12.5164C55.2726 13.0058 55.4795 13.2136 55.9821 14.208L56.4179 15.0701L56.7777 14.3525C57.2858 13.3394 57.5883 13.0575 58.6534 12.605L59.5902 12.207L58.6517 11.7341C57.6182 11.2133 57.2646 10.8451 56.8654 9.87501C56.719 9.51903 56.5666 9.22781 56.5269 9.22766C56.4871 9.22766 56.2269 9.66645 55.9485 10.2028ZM30.153 9.5199C24.6435 10.1503 19.6969 12.5884 15.8975 16.546C14.5287 17.9717 12.8605 20.2276 12.8617 20.651C12.862 20.789 13.3689 21.12 14.1894 21.5181C16.2523 22.5191 16.6638 22.9977 16.1242 23.7679C16.0097 23.9312 15.2443 24.372 14.4232 24.7475L12.9302 25.4303L12.1625 26.9397C11.3311 28.5743 11.0567 28.794 10.2338 28.4837C9.86211 28.3434 9.81715 28.3616 9.73589 28.685C9.68688 28.8807 9.68254 29.0766 9.72649 29.1205C9.7703 29.1643 12.95 28.4551 16.7924 27.5443L23.7784 25.8883L24.7424 24.9331C27.4248 22.2752 30.9744 21.1708 34.6038 21.865C36.7828 22.2818 38.5141 23.1987 40.1781 24.8173L41.2732 25.8825L43.2251 26.3535C50.151 28.0247 55.2532 29.1923 55.3235 29.1221C55.4633 28.9825 55.07 27.1504 54.5433 25.4863C51.9502 17.2947 44.9028 11.1892 36.3586 9.73207C34.7252 9.45342 31.6522 9.34849 30.153 9.5199ZM10.282 21.6381C10.0356 22.183 9.81686 22.4203 9.31631 22.6856C8.96048 22.8744 8.66929 23.0723 8.66929 23.1252C8.66929 23.1782 8.98362 23.4521 9.36763 23.7339C9.79112 24.0446 10.1698 24.4764 10.3294 24.8303C10.4743 25.1513 10.6381 25.4141 10.6935 25.4141C10.7489 25.4141 10.9138 25.1487 11.0601 24.8242C11.2738 24.3506 11.4945 24.1496 12.1811 23.8031C12.6514 23.5658 12.9938 23.3295 12.9424 23.2779C12.8907 23.2263 12.5426 23.0192 12.1685 22.8177C11.6279 22.5262 11.4164 22.2958 11.1358 21.6924C10.9416 21.2752 10.7418 20.9337 10.6916 20.9337C10.6414 20.9337 10.4571 21.2506 10.282 21.6381ZM30.431 23.7685C27.2564 24.5356 24.5373 27.2791 23.7866 30.4726C23.3189 32.462 23.5831 34.5934 24.5389 36.5428C25.2762 38.0463 26.9733 39.7428 28.4774 40.4798C31.1415 41.785 33.91 41.785 36.5742 40.4798C38.0783 39.7428 39.7754 38.0463 40.5127 36.5428C41.8184 33.8797 41.8184 31.1123 40.5127 28.4492C39.7754 26.9456 38.0783 25.2492 36.5742 24.5122C34.6362 23.5626 32.4019 23.2922 30.431 23.7685ZM31.3324 27.2963C29.7334 27.6996 28.4232 28.7871 27.7056 30.3062C27.3077 31.1488 27.2516 31.4193 27.2516 32.496C27.2516 33.5727 27.3077 33.8432 27.7056 34.6858C28.2819 35.9057 29.1147 36.7382 30.3352 37.3143C31.1781 37.7121 31.4486 37.7681 32.5258 37.7681C33.603 37.7681 33.8735 37.7121 34.7164 37.3143C35.9368 36.7382 36.7696 35.9057 37.346 34.6858C37.7439 33.8432 37.8 33.5727 37.8 32.496C37.8 31.4193 37.7439 31.1488 37.346 30.3062C36.7754 29.0983 35.9366 28.2525 34.7661 27.705C33.7558 27.2324 32.2812 27.0568 31.3324 27.2963ZM42.7858 28.9393C43.341 30.5519 43.4856 32.673 43.191 34.8768C43.1544 35.1501 43.4042 35.1824 49.1989 35.6501C52.5242 35.9184 55.2732 36.1099 55.3076 36.0754C55.3421 36.0409 55.4421 35.3027 55.5295 34.435C55.6789 32.9539 55.6586 31.4354 55.4873 31.264C55.4455 31.2223 52.6532 30.5404 49.282 29.7488C45.9109 28.9571 43.0098 28.2755 42.835 28.2338L42.5172 28.1584L42.7858 28.9393ZM15.8985 29.7713C12.5189 30.5655 9.66331 31.2447 9.55299 31.2806C9.38701 31.3347 9.37009 31.7518 9.45554 33.6915C9.51222 34.9815 9.60331 36.0832 9.65782 36.1397C9.75946 36.2452 21.6387 35.3334 21.7616 35.2105C21.7992 35.1731 21.7577 34.6282 21.6695 33.9998C21.4317 32.3054 21.7088 30.0156 22.3284 28.5576C22.4009 28.3867 22.3722 28.3084 22.2396 28.3161C22.1317 28.3224 19.2782 28.9773 15.8985 29.7713ZM31.1522 29.4464C29.0065 30.4417 28.5257 33.2924 30.2309 34.9095C32.3559 36.9248 35.8449 35.4249 35.8449 32.496C35.8449 31.142 35.0312 29.9111 33.7955 29.396C33.0703 29.0936 31.8633 29.1166 31.1522 29.4464ZM16.0678 37.6327C12.8608 37.8937 10.2083 38.136 10.1733 38.1709C10.0459 38.2981 11.0147 40.9894 11.7189 42.4645C14.1489 47.5549 18.7307 51.8723 23.9082 53.9506C25.1277 54.4401 27.8843 55.265 27.9586 55.1625C27.9777 55.1363 27.6407 52.1008 27.2096 48.4169L26.4259 41.719L25.0244 40.3233C24.1662 39.4684 23.4291 38.5791 23.1224 38.0286C22.7086 37.2855 22.559 37.1321 22.2603 37.1438C22.0615 37.1517 19.2749 37.3717 16.0678 37.6327ZM41.835 38.0965C41.4997 38.6797 40.7415 39.6054 39.9496 40.3983L38.6251 41.7245L37.8416 48.4196C37.4107 52.102 37.0736 55.1361 37.0924 55.1619C37.1752 55.2767 39.9588 54.4336 41.2732 53.8957C46.4941 51.7596 50.8801 47.6019 53.3327 42.4645C54.0355 40.9921 55.0057 38.2983 54.8788 38.1714C54.8295 38.1221 50.4802 37.7561 42.4128 37.1222C42.4034 37.1215 42.1434 37.56 41.835 38.0965ZM36.0038 42.8469C35.7298 42.9621 34.9165 43.1586 34.1965 43.2837C32.6804 43.5467 31.3756 43.4746 29.6953 43.0346C29.0857 42.8751 28.5663 42.7651 28.541 42.7904C28.4816 42.8498 29.9306 55.3854 30.0057 55.4614C30.0897 55.5465 34.9459 55.5607 35.0304 55.4761C35.1066 55.4 36.597 42.7321 36.5369 42.6723C36.5176 42.6531 36.2778 42.7317 36.0038 42.8469ZM12.6708 54.7818C12.1675 55.8839 12.1531 55.8992 11.1122 56.4231L10.0616 56.9519L11.0643 57.4787C12.0093 57.975 12.0994 58.0672 12.63 59.0798L13.1932 60.1543L13.6818 59.1853C14.1492 58.2585 14.2173 58.1931 15.2514 57.6818C15.8459 57.3877 16.3323 57.1083 16.3323 57.0609C16.3323 57.0133 15.9421 56.7882 15.4652 56.5602C14.3902 56.0467 14.142 55.786 13.6053 54.6064L13.1789 53.6695L12.6708 54.7818Z" fill="black"/>
<mask id="mask0_99_963" style="mask-type:alpha" maskUnits="userSpaceOnUse" x="0" y="0" width="65" height="65">
<path fill-rule="evenodd" clip-rule="evenodd" d="M28.9112 0.136777C21.5141 0.971578 14.7147 4.28664 9.39221 9.65316C6.11505 12.9574 3.59393 16.8929 1.96822 21.2424C-0.109614 26.8014 -0.573876 33.6188 0.726231 39.4802C1.90792 44.8073 4.83982 50.4579 8.40282 54.2751C8.78799 54.6877 9.10304 55.0821 9.10304 55.1518C9.10304 55.2215 8.71136 55.4656 8.23264 55.6944C7.13365 56.2193 6.90131 56.474 6.9603 57.0885C7.00454 57.551 7.08724 57.613 8.87388 58.5276L10.7413 59.4832L11.5676 61.2228C12.4772 63.1373 12.8466 63.5339 13.4922 63.2885C13.7795 63.1794 14.0552 62.7762 14.623 61.635L15.3738 60.1258L16.106 60.5597C19.8512 62.7783 24.6712 64.3521 29.3439 64.8818C31.4741 65.1232 35.7373 64.9794 37.9477 64.5914C44.7749 63.3934 50.6379 60.3511 55.5148 55.4761C60.48 50.5129 63.5293 44.5395 64.7241 37.4356C65.0945 35.2325 65.0914 29.7444 64.718 27.5097C63.9843 23.116 62.3846 18.827 60.2216 15.4537L59.5715 14.4398L60.8299 13.8504C63.4454 12.6251 63.4067 12.0918 60.6 10.6831L58.9125 9.83599L58.045 8.07215C56.7442 5.42727 56.1711 5.28953 55.1377 7.37306L54.5628 8.53233L53.4701 7.60402C48.6288 3.4913 42.3882 0.826615 35.9653 0.129406C34.3473 -0.0463413 30.4977 -0.0422946 28.9112 0.136777ZM30.2847 2.00222C23.0001 2.53278 16.186 5.65591 10.9367 10.8701C7.15563 14.6257 4.26075 19.6231 2.95356 24.6514C0.621986 33.6196 2.42857 43.1357 7.85542 50.4711C8.81388 51.7664 10.6727 53.8863 10.8501 53.8863C10.9216 53.8863 11.3377 53.1736 11.7748 52.3026C12.2119 51.4315 12.7028 50.6474 12.8659 50.5603C13.5526 50.1927 14.0077 50.6723 14.968 52.7763L15.6817 54.34L17.4167 55.2127C19.4332 56.227 19.6577 56.3979 19.6577 56.9187C19.6577 57.407 19.2522 57.7793 18.0844 58.3627L17.1618 58.8237L17.6506 59.1245C19.3567 60.1743 23.3643 61.6829 25.9927 62.2648C36.0764 64.4969 46.6315 61.4226 54.0105 54.1044C56.5357 51.6 58.2904 49.189 59.8493 46.0817C62.069 41.6574 63.0746 37.3718 63.0711 32.3515C63.0672 26.8466 61.666 21.7511 58.8015 16.8251L58.2192 15.824L57.7184 16.8251C57.0996 18.0619 56.8672 18.3321 56.4226 18.3321C55.7844 18.3321 55.571 18.0726 54.7374 16.281L53.9095 14.5021L52.2903 13.7576C49.5735 12.5086 49.5092 11.9624 51.9395 10.779L53.3524 10.0911L52.6614 9.47755C46.6837 4.17059 38.4197 1.40979 30.2847 2.00222ZM29.7064 7.58306C29.4678 7.6179 28.5895 7.7737 27.7545 7.92921C21.9441 9.0113 16.3436 12.4395 12.7352 17.1229L11.8295 18.2985L11.4849 17.9539C11.052 17.5212 10.5427 17.5138 10.1556 17.9347C9.99108 18.1136 9.55646 18.861 9.18965 19.5958L8.52283 20.9318L7.18628 21.5989C5.58616 22.3977 5.34384 22.5946 5.34384 23.0964C5.34384 23.6921 5.59889 23.9095 7.12483 24.6138C8.26055 25.1382 8.52962 25.3197 8.47077 25.5223C7.56524 28.6411 7.26277 32.8307 7.71879 35.9364C8.5383 41.5175 10.9585 46.3352 14.9051 50.241C18.8317 54.127 23.5719 56.4848 29.0841 57.2934C31.3178 57.6212 35.1382 57.5192 37.365 57.0725C45.6801 55.4042 52.5356 49.7182 55.7746 41.8038C58.139 36.0261 58.1391 28.9662 55.7746 23.1882C52.9364 16.2525 47.2681 10.9611 40.2046 8.65388C37.7749 7.86013 36.0665 7.602 32.9595 7.55878C31.4089 7.5371 29.945 7.54809 29.7064 7.58306ZM55.9485 10.2028C55.489 11.0882 55.357 11.2232 54.5141 11.6686L53.5856 12.1593L54.2972 12.5164C55.2726 13.0058 55.4795 13.2136 55.9821 14.208L56.4179 15.0701L56.7777 14.3525C57.2858 13.3394 57.5883 13.0575 58.6534 12.605L59.5902 12.207L58.6517 11.7341C57.6182 11.2133 57.2646 10.8451 56.8654 9.87501C56.719 9.51903 56.5666 9.22781 56.5269 9.22766C56.4871 9.22766 56.2269 9.66645 55.9485 10.2028ZM30.153 9.5199C24.6435 10.1503 19.6969 12.5884 15.8975 16.546C14.5287 17.9717 12.8605 20.2276 12.8617 20.651C12.862 20.789 13.3689 21.12 14.1894 21.5181C16.2523 22.5191 16.6638 22.9977 16.1242 23.7679C16.0097 23.9312 15.2443 24.372 14.4232 24.7475L12.9302 25.4303L12.1625 26.9397C11.3311 28.5743 11.0567 28.794 10.2338 28.4837C9.86211 28.3434 9.81715 28.3616 9.73589 28.685C9.68688 28.8807 9.68254 29.0766 9.72649 29.1205C9.7703 29.1643 12.95 28.4551 16.7924 27.5443L23.7784 25.8883L24.7424 24.9331C27.4248 22.2752 30.9744 21.1708 34.6038 21.865C36.7828 22.2818 38.5141 23.1987 40.1781 24.8173L41.2732 25.8825L43.2251 26.3535C50.151 28.0247 55.2532 29.1923 55.3235 29.1221C55.4633 28.9825 55.07 27.1504 54.5433 25.4863C51.9502 17.2947 44.9028 11.1892 36.3586 9.73207C34.7252 9.45342 31.6522 9.34849 30.153 9.5199ZM10.282 21.6381C10.0356 22.183 9.81686 22.4203 9.31631 22.6856C8.96048 22.8744 8.66929 23.0723 8.66929 23.1252C8.66929 23.1782 8.98362 23.4521 9.36763 23.7339C9.79112 24.0446 10.1698 24.4764 10.3294 24.8303C10.4743 25.1513 10.6381 25.4141 10.6935 25.4141C10.7489 25.4141 10.9138 25.1487 11.0601 24.8242C11.2738 24.3506 11.4945 24.1496 12.1811 23.8031C12.6514 23.5658 12.9938 23.3295 12.9424 23.2779C12.8907 23.2263 12.5426 23.0192 12.1685 22.8177C11.6279 22.5262 11.4164 22.2958 11.1358 21.6924C10.9416 21.2752 10.7418 20.9337 10.6916 20.9337C10.6414 20.9337 10.4571 21.2506 10.282 21.6381ZM30.431 23.7685C27.2564 24.5356 24.5373 27.2791 23.7866 30.4726C23.3189 32.462 23.5831 34.5934 24.5389 36.5428C25.2762 38.0463 26.9733 39.7428 28.4774 40.4798C31.1415 41.785 33.91 41.785 36.5742 40.4798C38.0783 39.7428 39.7754 38.0463 40.5127 36.5428C41.8184 33.8797 41.8184 31.1123 40.5127 28.4492C39.7754 26.9456 38.0783 25.2492 36.5742 24.5122C34.6362 23.5626 32.4019 23.2922 30.431 23.7685ZM31.3324 27.2963C29.7334 27.6996 28.4232 28.7871 27.7056 30.3062C27.3077 31.1488 27.2516 31.4193 27.2516 32.496C27.2516 33.5727 27.3077 33.8432 27.7056 34.6858C28.2819 35.9057 29.1147 36.7382 30.3352 37.3143C31.1781 37.7121 31.4486 37.7681 32.5258 37.7681C33.603 37.7681 33.8735 37.7121 34.7164 37.3143C35.9368 36.7382 36.7696 35.9057 37.346 34.6858C37.7439 33.8432 37.8 33.5727 37.8 32.496C37.8 31.4193 37.7439 31.1488 37.346 30.3062C36.7754 29.0983 35.9366 28.2525 34.7661 27.705C33.7558 27.2324 32.2812 27.0568 31.3324 27.2963ZM42.7858 28.9393C43.341 30.5519 43.4856 32.673 43.191 34.8768C43.1544 35.1501 43.4042 35.1824 49.1989 35.6501C52.5242 35.9184 55.2732 36.1099 55.3076 36.0754C55.3421 36.0409 55.4421 35.3027 55.5295 34.435C55.6789 32.9539 55.6586 31.4354 55.4873 31.264C55.4455 31.2223 52.6532 30.5404 49.282 29.7488C45.9109 28.9571 43.0098 28.2755 42.835 28.2338L42.5172 28.1584L42.7858 28.9393ZM15.8985 29.7713C12.5189 30.5655 9.66331 31.2447 9.55299 31.2806C9.38701 31.3347 9.37009 31.7518 9.45554 33.6915C9.51222 34.9815 9.60331 36.0832 9.65782 36.1397C9.75946 36.2452 21.6387 35.3334 21.7616 35.2105C21.7992 35.1731 21.7577 34.6282 21.6695 33.9998C21.4317 32.3054 21.7088 30.0156 22.3284 28.5576C22.4009 28.3867 22.3722 28.3084 22.2396 28.3161C22.1317 28.3224 19.2782 28.9773 15.8985 29.7713ZM31.1522 29.4464C29.0065 30.4417 28.5257 33.2924 30.2309 34.9095C32.3559 36.9248 35.8449 35.4249 35.8449 32.496C35.8449 31.142 35.0312 29.9111 33.7955 29.396C33.0703 29.0936 31.8633 29.1166 31.1522 29.4464ZM16.0678 37.6327C12.8608 37.8937 10.2083 38.136 10.1733 38.1709C10.0459 38.2981 11.0147 40.9894 11.7189 42.4645C14.1489 47.5549 18.7307 51.8723 23.9082 53.9506C25.1277 54.4401 27.8843 55.265 27.9586 55.1625C27.9777 55.1363 27.6407 52.1008 27.2096 48.4169L26.4259 41.719L25.0244 40.3233C24.1662 39.4684 23.4291 38.5791 23.1224 38.0286C22.7086 37.2855 22.559 37.1321 22.2603 37.1438C22.0615 37.1517 19.2749 37.3717 16.0678 37.6327ZM41.835 38.0965C41.4997 38.6797 40.7415 39.6054 39.9496 40.3983L38.6251 41.7245L37.8416 48.4196C37.4107 52.102 37.0736 55.1361 37.0924 55.1619C37.1752 55.2767 39.9588 54.4336 41.2732 53.8957C46.4941 51.7596 50.8801 47.6019 53.3327 42.4645C54.0355 40.9921 55.0057 38.2983 54.8788 38.1714C54.8295 38.1221 50.4802 37.7561 42.4128 37.1222C42.4034 37.1215 42.1434 37.56 41.835 38.0965ZM36.0038 42.8469C35.7298 42.9621 34.9165 43.1586 34.1965 43.2837C32.6804 43.5467 31.3756 43.4746 29.6953 43.0346C29.0857 42.8751 28.5663 42.7651 28.541 42.7904C28.4816 42.8498 29.9306 55.3854 30.0057 55.4614C30.0897 55.5465 34.9459 55.5607 35.0304 55.4761C35.1066 55.4 36.597 42.7321 36.5369 42.6723C36.5176 42.6531 36.2778 42.7317 36.0038 42.8469ZM12.6708 54.7818C12.1675 55.8839 12.1531 55.8992 11.1122 56.4231L10.0616 56.9519L11.0643 57.4787C12.0093 57.975 12.0994 58.0672 12.63 59.0798L13.1932 60.1543L13.6818 59.1853C14.1492 58.2585 14.2173 58.1931 15.2514 57.6818C15.8459 57.3877 16.3323 57.1083 16.3323 57.0609C16.3323 57.0133 15.9421 56.7882 15.4652 56.5602C14.3902 56.0467 14.142 55.786 13.6053 54.6064L13.1789 53.6695L12.6708 54.7818Z" fill="black"/>
</mask>
<g mask="url(#mask0_99_963)">
<path d="M23.4998 25L9.49977 29C8.69977 34.2 9.8331 37.5 10.4998 38.5L27.9998 55C31.9998 56.2 35.6664 55.5 36.9998 55L54.9998 38C55.7998 35.2 55.6664 32.5 55.4998 31.5V29L41.9998 25L38.9998 21L29.9998 18.5L23.4998 25Z" fill="#EDBC18"/>
</g>
</svg>
