<svg width="75" height="75" viewBox="0 0 75 75" fill="none" xmlns="http://www.w3.org/2000/svg">
<path fill-rule="evenodd" clip-rule="evenodd" d="M17.7438 0.181115C17.4939 0.272064 13.7666 2.37653 9.46082 4.85791C1.15765 9.64316 0.568618 10.0557 0.17791 11.3596C-0.0587027 12.1492 -0.059328 12.9253 0.176191 13.6024C0.448436 14.3856 7.31911 26.2759 7.68435 26.5959C8.1646 27.0166 8.96978 26.95 9.35705 26.4576C9.53521 26.2312 9.68102 25.8772 9.68102 25.6711C9.68102 25.465 9.08714 24.2614 8.36121 22.9966C7.05953 20.7287 7.04609 20.6941 7.38444 20.5063C7.57307 20.4014 10.9274 18.4647 14.8384 16.2024C22.4991 11.7711 22.5738 11.7156 22.1763 10.7561C21.9553 10.2226 21.6007 9.99242 20.9997 9.99242C20.6255 9.99242 17.7904 11.5801 7.56135 17.518C6.69632 18.0201 5.92272 18.4289 5.84224 18.4262C5.76175 18.4237 5.43668 17.9652 5.12005 17.4073L4.5443 16.3932L4.88563 16.1759C5.19804 15.9772 18.9122 8.0575 20.9531 6.89737C21.63 6.51248 21.8664 6.44263 21.9808 6.59327C22.2856 6.99457 31.4352 22.9496 31.4272 23.0657C31.4227 23.1321 30.8597 23.3068 30.1763 23.4538C24.6994 24.6319 19.0439 27.8915 15.205 32.0825L14.2434 33.1325L13.7025 32.2277C13.4049 31.7301 12.8683 30.8144 12.5099 30.1927C11.8452 29.0396 11.5231 28.7446 10.9296 28.7446C10.5139 28.7446 9.68102 29.5534 9.68102 29.9572C9.68102 30.2615 12.7818 35.7848 13.2333 36.2845C13.3859 36.4536 13.7067 36.558 14.0734 36.558C14.6243 36.558 14.7438 36.4663 15.7529 35.2688C16.3506 34.5598 17.3622 33.4655 18.0011 32.8373L19.1626 31.6948L21.0461 34.9469L22.9296 38.1988L21.2283 39.9328C19.6705 41.5205 19.5269 41.7167 19.5269 42.257C19.5269 42.7845 19.6617 42.9852 20.8017 44.153L22.0766 45.4589L21.599 46.517C21.3363 47.0988 21.0384 47.8387 20.9372 48.1609L20.7529 48.7469H18.8825C17.1051 48.7469 16.993 48.766 16.6286 49.1306C16.121 49.638 16.121 50.3562 16.6286 50.8636C17.0046 51.2396 17.0627 51.2472 19.5684 51.2472C22.5953 51.2472 22.6117 51.2393 23.1242 49.5191C23.3048 48.9121 23.7957 47.7145 24.2149 46.8573C25.1413 44.9631 25.1263 44.8799 23.5858 43.3513L22.497 42.2709L23.3117 41.4459C23.7599 40.9923 24.1744 40.621 24.233 40.621C24.3634 40.621 26.7581 44.8351 27.1144 45.6919C27.2982 46.1335 27.3556 46.6447 27.316 47.489L27.2608 48.6688L25.5038 51.7246C24.5373 53.4054 23.7465 54.9309 23.7465 55.1149C23.7465 55.6123 24.3079 56.139 25.6754 56.9249C26.8126 57.5784 26.9381 57.703 27.4156 58.6517C28.1367 60.0848 29.3647 61.5689 30.5926 62.4912C31.9801 63.5332 32.8455 63.5468 33.2654 62.5332C33.5367 61.8782 33.2765 61.3714 32.2975 60.6482C31.071 59.7421 30.2313 58.7131 29.4848 57.2009C28.8624 55.9404 28.7682 55.8317 27.8097 55.2702C27.251 54.943 26.8173 54.5901 26.8458 54.486C26.9147 54.2338 29.0845 50.4692 29.2033 50.3959C29.2545 50.3642 29.7492 50.6047 30.3027 50.9302L31.3092 51.5219L31.3176 53.377C31.3258 55.125 31.3544 55.2907 31.8146 56.2478C33.2491 59.2311 36.583 60.5503 39.7207 59.3765C40.2005 59.1971 40.925 58.7579 41.3309 58.4007L42.0688 57.7513L43.0754 58.2887C43.629 58.5843 44.1396 58.8966 44.2099 58.9825C44.3446 59.1469 42.0526 63.2714 41.8235 63.2768C41.752 63.2785 41.2654 63.0289 40.742 62.7223L39.7905 62.1648L38.2152 62.264C36.4353 62.376 36.0315 62.5176 35.7836 63.1158C35.5606 63.6538 35.7806 64.2644 36.3264 64.6219C36.6522 64.8354 36.9668 64.8702 37.9594 64.8021L39.1887 64.7179L40.5285 65.4834C41.9769 66.311 42.7387 66.4532 43.165 65.9755C43.4521 65.6537 47.6333 58.4637 48.3114 57.1256C48.9364 55.8923 49.2705 54.2398 49.1367 53.0443C49.0789 52.5286 48.7226 51.2757 48.3448 50.2598C47.6064 48.2747 47.4515 46.8978 47.8391 45.7621C47.9387 45.47 49.3529 42.9239 50.9817 40.1042C52.6104 37.2847 54.0165 34.783 54.1062 34.5453C54.3544 33.8875 54.1369 33.3054 53.5356 33.0187C52.7889 32.6627 52.2644 32.9582 51.5527 34.1363C49.2772 37.9021 45.5761 44.5733 45.3712 45.2784C45.1921 45.8944 45.1417 46.5528 45.1907 47.6354C45.25 48.9415 45.3464 49.3622 45.9287 50.8566C46.7737 53.0254 46.8519 54.381 46.2133 55.7981C45.9954 56.2813 45.7563 56.7143 45.6818 56.7604C45.6072 56.8065 45.0934 56.5778 44.5398 56.2523L43.5334 55.6606L43.5249 53.8055C43.5171 52.1206 43.4771 51.8667 43.0889 51.0381C42.3026 49.3601 40.9716 48.1817 39.2678 47.6556C37.2911 47.045 35.3074 47.4046 33.6088 48.6813L32.6632 49.392L31.6444 48.8224C31.0842 48.5091 30.5931 48.2 30.5533 48.1356C30.4123 47.9075 31.5668 46.414 32.2231 45.975C33.2227 45.3068 33.5739 45.1906 35.6401 44.8438C38.0995 44.4311 39.2729 43.8881 40.5469 42.5734C41.323 41.7724 42.1663 40.4197 45.4411 34.7222C47.617 30.9363 49.4365 27.7996 49.4841 27.7518C49.5901 27.646 51.0507 28.3735 52.4688 29.2384C54.754 30.6323 57.4744 33.0768 59.5275 35.5813C60.2546 36.4683 60.3829 36.558 60.9233 36.558C61.2929 36.558 61.6113 36.4544 61.763 36.2845C62.187 35.8101 74.6448 14.1334 74.8489 13.5149C75.2687 12.2431 74.7912 10.678 73.6965 9.73676C72.9899 9.12935 58.0602 0.473181 57.2069 0.176115C56.525 -0.0612565 55.7528 -0.0585999 54.9442 0.183616C53.723 0.54944 53.0891 1.40985 49.7047 7.29413C46.9286 12.1206 46.5506 12.8582 46.6414 13.2712C46.769 13.8521 47.2551 14.2117 47.9132 14.2117C48.5246 14.2117 48.8734 13.8227 49.8458 12.0562C50.2326 11.3537 50.6019 10.7777 50.6664 10.7763C50.7544 10.7744 67.7697 20.5352 67.9267 20.6776C67.9537 20.7023 62.9115 29.4914 61.3926 32.0672L60.7695 33.1239L59.4997 31.7826C57.1333 29.2828 53.9198 26.9644 50.7835 25.4939C49.1291 24.7182 46.1994 23.7178 44.7666 23.4391C44.2509 23.3388 43.744 23.2291 43.6403 23.1954C43.5229 23.1571 44.0396 22.1141 45.0077 20.4352C45.9148 18.862 46.5638 17.5627 46.5638 17.3197C46.5638 16.7566 46.1239 16.2647 45.5152 16.1472C45.0992 16.0669 44.9382 16.1267 44.5719 16.4983C44.0033 17.0751 40.1562 23.7601 40.1562 24.1713C40.1562 24.6677 40.7443 25.2873 41.296 25.3723C43.3893 25.695 44.9416 26.0169 45.9689 26.3414L47.171 26.7211L45.4775 29.6471C44.5461 31.2565 43.4963 33.0654 43.145 33.6671L42.506 34.7609L42.5033 34.0116C42.5011 33.4266 42.4164 33.1781 42.1168 32.8787L41.7333 32.495H37.4994H33.2656L32.882 32.8787C32.5824 33.1781 32.4977 33.4266 32.4955 34.0116L32.4929 34.7609L31.8542 33.6671C31.503 33.0654 30.4546 31.256 29.5246 29.6463L27.8336 26.7192L29.0329 26.3404C30.0577 26.0168 31.6107 25.6949 33.7028 25.3723C34.2578 25.2869 34.8426 24.6669 34.8426 24.1642C34.8426 23.9887 31.982 18.8824 28.4858 12.8168C21.7309 1.09763 21.3876 0.582881 20.0546 0.183616C19.2898 -0.0454734 18.3702 -0.0465674 17.7438 0.181115ZM10.7023 7.02144C6.40751 9.50361 2.80315 11.6581 2.69282 11.809C2.38682 12.2275 2.45058 12.757 2.89911 13.5224L3.30623 14.217L3.79774 13.9237C4.55181 13.4738 6.7443 12.2049 12.8848 8.6646C15.9792 6.88049 18.9885 5.14373 19.5722 4.80509L20.6333 4.1894L20.2934 3.61402C19.8296 2.82846 19.4132 2.48998 18.9235 2.49998C18.6784 2.50498 15.3413 4.34035 10.7023 7.02144ZM55.3541 2.76501C54.9364 3.1349 54.3383 4.1683 54.4901 4.25768C54.5574 4.29722 58.2343 6.41966 62.661 8.97417C67.0877 11.5287 70.9307 13.7533 71.2011 13.9179L71.6926 14.217L72.0997 13.5224C72.575 12.7116 72.6147 12.1825 72.2334 11.7439C71.7926 11.2368 56.5052 2.49154 56.0596 2.49154C55.8414 2.49154 55.5239 2.61468 55.3541 2.76501ZM53.0127 6.59686C52.9313 6.7025 52.6442 7.18146 52.3748 7.66121L51.8847 8.53334L60.4593 13.4822C65.1754 16.2039 69.0946 18.4303 69.1685 18.4295C69.2426 18.4287 69.5606 17.9751 69.8754 17.4214C70.2911 16.6902 70.398 16.3758 70.2661 16.2722C70.1662 16.1938 68.6779 15.3219 66.9588 14.335C65.2397 13.3478 61.5827 11.2401 58.8321 9.65113C52.6137 6.05899 53.1927 6.36293 53.0127 6.59686ZM17.7046 17.5613C16.7472 17.8607 16.136 18.3595 15.6163 19.2654C15.2394 19.9228 15.1536 20.2531 15.1523 21.0534C15.15 22.6756 15.8511 23.8147 17.2543 24.468C19.164 25.3572 21.4756 24.4704 22.2856 22.5379C22.4014 22.2613 22.4956 21.5933 22.4948 21.0534C22.4922 19.3632 21.5056 18.0415 19.8815 17.5527C19.0153 17.2922 18.5595 17.2939 17.7046 17.5613ZM55.0563 17.5613C54.0989 17.8607 53.4877 18.3595 52.968 19.2654C52.5911 19.9228 52.5053 20.2531 52.504 21.0534C52.5017 22.6756 53.2028 23.8147 54.606 24.468C56.5156 25.3572 58.8272 24.4704 59.6372 22.5379C59.753 22.2613 59.8473 21.5933 59.8465 21.0534C59.8438 19.3632 58.8572 18.0415 57.2331 17.5527C56.367 17.2922 55.9111 17.2939 55.0563 17.5613ZM18.0633 20.1613C17.1965 20.8429 17.7337 22.3376 18.8455 22.3376C19.9155 22.3376 20.4285 20.8256 19.5839 20.1613C19.3574 19.9831 19.0153 19.8373 18.8236 19.8373C18.6318 19.8373 18.2897 19.9831 18.0633 20.1613ZM55.4149 20.1613C54.5482 20.8429 55.0853 22.3376 56.1971 22.3376C57.2672 22.3376 57.7801 20.8256 56.9356 20.1613C56.7091 19.9831 56.367 19.8373 56.1753 19.8373C55.9835 19.8373 55.6414 19.9831 55.4149 20.1613ZM24.2738 28.2539C22.8777 28.9903 21.2491 30.0341 21.2474 30.1938C21.2466 30.2602 22.976 33.3086 25.0905 36.9679C27.2051 40.6271 29.0739 43.9347 29.2435 44.3181L29.552 45.0152L30.2513 44.3705C31.0306 43.6524 32.5781 42.855 33.4786 42.7078C34.2417 42.5831 34.2991 42.461 33.8476 41.9235C33.643 41.6799 31.7349 38.4567 29.6074 34.7609C27.4801 31.0652 25.6603 27.957 25.5635 27.8539C25.4281 27.7098 25.1307 27.802 24.2738 28.2539ZM34.9683 36.9878L34.9054 38.9802L35.3994 39.7699C35.9469 40.6452 37.102 41.7149 37.4994 41.7149C37.8969 41.7149 39.0519 40.6452 39.5994 39.7699L40.0934 38.9802L40.0306 36.9878L39.9678 34.9953H37.4994H35.0311L34.9683 36.9878ZM53.8201 41.1696C53.2332 41.4264 50.3793 44.3188 50.1766 44.8624C50.0461 45.2123 50.1407 45.5219 50.7966 46.8939C51.2222 47.7842 51.7129 48.9873 51.8868 49.5675C52.359 51.1411 52.5281 51.2472 54.5638 51.2472H56.2534V53.7475V56.2478H54.5343C52.481 56.2478 52.3696 56.3183 51.8897 57.9183C51.7142 58.5035 51.2222 59.7109 50.7966 60.6011C49.8647 62.5504 49.8695 62.5787 51.4164 64.1425L52.5015 65.2395L50.7405 66.9952L48.9795 68.751L47.8979 67.661C46.3677 66.1193 46.2849 66.1044 44.3903 67.0308C43.533 67.4499 42.3353 67.9407 41.7283 68.1214C40.1028 68.6055 40 68.7655 40 70.8103V72.4997H37.4994H34.9989V70.8103C34.9989 68.7747 34.8928 68.6057 33.319 68.1336C32.7387 67.9596 31.5375 67.4699 30.6497 67.0455C28.6932 66.1104 28.6289 66.1215 27.101 67.661L26.0193 68.751L24.2583 66.9952L22.4973 65.2395L23.5824 64.1425C25.1321 62.5759 25.1404 62.5301 24.2172 60.6424C23.7968 59.7828 23.3048 58.5829 23.1242 57.976C22.64 56.3506 22.48 56.2478 20.435 56.2478H18.7454V55.225C18.7454 54.3473 18.6911 54.1477 18.3618 53.8186C18.12 53.5767 17.7996 53.435 17.4952 53.435C17.1907 53.435 16.8704 53.5767 16.6286 53.8186C16.2635 54.1835 16.2449 54.2938 16.2449 56.0915C16.2449 57.8893 16.2635 57.9996 16.6286 58.3645C16.993 58.729 17.1051 58.7481 18.8825 58.7481H20.7529L20.9372 59.3341C21.0384 59.6565 21.3363 60.3963 21.599 60.978L22.0766 62.0361L20.8017 63.3421C19.6538 64.518 19.5269 64.7079 19.5269 65.2487C19.5269 65.8197 19.671 65.9933 22.4617 68.7838C25.2525 71.5743 25.4261 71.7184 25.9971 71.7184C26.538 71.7184 26.7279 71.5915 27.9039 70.4437L29.21 69.1688L30.2682 69.6464C30.85 69.9091 31.59 70.2069 31.9123 70.3082L32.4984 70.4924V72.3627C32.4984 74.1399 32.5174 74.2519 32.882 74.6164L33.2656 75H37.4994H41.7333L42.1168 74.6164C42.4814 74.2519 42.5005 74.1401 42.5005 72.3611C42.5005 70.5549 42.5128 70.4856 42.8521 70.3852C43.0456 70.328 43.7884 70.0338 44.5028 69.7314L45.802 69.1817L47.1015 70.4501C48.2711 71.5915 48.4611 71.7184 49.0017 71.7184C49.5728 71.7184 49.7464 71.5743 52.5371 68.7838C55.3279 65.9933 55.472 65.8197 55.472 65.2487C55.472 64.7082 55.3451 64.5182 54.2036 63.3486L52.935 62.0493L53.4848 60.7502C53.7873 60.0359 54.0815 59.2932 54.1387 59.0997C54.2391 58.7604 54.3085 58.7481 56.1148 58.7481C57.8939 58.7481 58.0058 58.729 58.3703 58.3645L58.7539 57.981V53.7475V49.5141L58.3703 49.1306C58.0058 48.766 57.8937 48.7469 56.1163 48.7469H54.2459L54.0617 48.1609C53.9604 47.8387 53.6625 47.0988 53.3998 46.517L52.9222 45.4589L54.1972 44.153C55.253 43.0713 55.472 42.7614 55.472 42.3487C55.472 41.6708 55.2499 41.3083 54.722 41.1242C54.4041 41.0134 54.1478 41.0263 53.8201 41.1696ZM35.852 50.2107C34.4472 50.8648 33.7458 52.0057 33.753 53.6253C33.7696 57.3079 38.476 58.689 40.5427 55.6176C41.1897 54.6562 41.2926 53.0729 40.7792 51.9808C39.9115 50.1349 37.7118 49.3447 35.852 50.2107Z" fill="black"/>
<mask id="mask0_99_950" style="mask-type:alpha" maskUnits="userSpaceOnUse" x="0" y="0" width="75" height="75">
<path fill-rule="evenodd" clip-rule="evenodd" d="M17.7438 0.181115C17.4939 0.272064 13.7666 2.37653 9.46082 4.85791C1.15765 9.64316 0.568618 10.0557 0.17791 11.3596C-0.0587027 12.1492 -0.059328 12.9253 0.176191 13.6024C0.448436 14.3856 7.31911 26.2759 7.68435 26.5959C8.1646 27.0166 8.96978 26.95 9.35705 26.4576C9.53521 26.2312 9.68102 25.8772 9.68102 25.6711C9.68102 25.465 9.08714 24.2614 8.36121 22.9966C7.05953 20.7287 7.04609 20.6941 7.38444 20.5063C7.57307 20.4014 10.9274 18.4647 14.8384 16.2024C22.4991 11.7711 22.5738 11.7156 22.1763 10.7561C21.9553 10.2226 21.6007 9.99242 20.9997 9.99242C20.6255 9.99242 17.7904 11.5801 7.56135 17.518C6.69632 18.0201 5.92272 18.4289 5.84224 18.4262C5.76175 18.4237 5.43668 17.9652 5.12005 17.4073L4.5443 16.3932L4.88563 16.1759C5.19804 15.9772 18.9122 8.0575 20.9531 6.89737C21.63 6.51248 21.8664 6.44263 21.9808 6.59327C22.2856 6.99457 31.4352 22.9496 31.4272 23.0657C31.4227 23.1321 30.8597 23.3068 30.1763 23.4538C24.6994 24.6319 19.0439 27.8915 15.205 32.0825L14.2434 33.1325L13.7025 32.2277C13.4049 31.7301 12.8683 30.8144 12.5099 30.1927C11.8452 29.0396 11.5231 28.7446 10.9296 28.7446C10.5139 28.7446 9.68102 29.5534 9.68102 29.9572C9.68102 30.2615 12.7818 35.7848 13.2333 36.2845C13.3859 36.4536 13.7067 36.558 14.0734 36.558C14.6243 36.558 14.7438 36.4663 15.7529 35.2688C16.3506 34.5598 17.3622 33.4655 18.0011 32.8373L19.1626 31.6948L21.0461 34.9469L22.9296 38.1988L21.2283 39.9328C19.6705 41.5205 19.5269 41.7167 19.5269 42.257C19.5269 42.7845 19.6617 42.9852 20.8017 44.153L22.0766 45.4589L21.599 46.517C21.3363 47.0988 21.0384 47.8387 20.9372 48.1609L20.7529 48.7469H18.8825C17.1051 48.7469 16.993 48.766 16.6286 49.1306C16.121 49.638 16.121 50.3562 16.6286 50.8636C17.0046 51.2396 17.0627 51.2472 19.5684 51.2472C22.5953 51.2472 22.6117 51.2393 23.1242 49.5191C23.3048 48.9121 23.7957 47.7145 24.2149 46.8573C25.1413 44.9631 25.1263 44.8799 23.5858 43.3513L22.497 42.2709L23.3117 41.4459C23.7599 40.9923 24.1744 40.621 24.233 40.621C24.3634 40.621 26.7581 44.8351 27.1144 45.6919C27.2982 46.1335 27.3556 46.6447 27.316 47.489L27.2608 48.6688L25.5038 51.7246C24.5373 53.4054 23.7465 54.9309 23.7465 55.1149C23.7465 55.6123 24.3079 56.139 25.6754 56.9249C26.8126 57.5784 26.9381 57.703 27.4156 58.6517C28.1367 60.0848 29.3647 61.5689 30.5926 62.4912C31.9801 63.5332 32.8455 63.5468 33.2654 62.5332C33.5367 61.8782 33.2765 61.3714 32.2975 60.6482C31.071 59.7421 30.2313 58.7131 29.4848 57.2009C28.8624 55.9404 28.7682 55.8317 27.8097 55.2702C27.251 54.943 26.8173 54.5901 26.8458 54.486C26.9147 54.2338 29.0845 50.4692 29.2033 50.3959C29.2545 50.3642 29.7492 50.6047 30.3027 50.9302L31.3092 51.5219L31.3176 53.377C31.3258 55.125 31.3544 55.2907 31.8146 56.2478C33.2491 59.2311 36.583 60.5503 39.7207 59.3765C40.2005 59.1971 40.925 58.7579 41.3309 58.4007L42.0688 57.7513L43.0754 58.2887C43.629 58.5843 44.1396 58.8966 44.2099 58.9825C44.3446 59.1469 42.0526 63.2714 41.8235 63.2768C41.752 63.2785 41.2654 63.0289 40.742 62.7223L39.7905 62.1648L38.2152 62.264C36.4353 62.376 36.0315 62.5176 35.7836 63.1158C35.5606 63.6538 35.7806 64.2644 36.3264 64.6219C36.6522 64.8354 36.9668 64.8702 37.9594 64.8021L39.1887 64.7179L40.5285 65.4834C41.9769 66.311 42.7387 66.4532 43.165 65.9755C43.4521 65.6537 47.6333 58.4637 48.3114 57.1256C48.9364 55.8923 49.2705 54.2398 49.1367 53.0443C49.0789 52.5286 48.7226 51.2757 48.3448 50.2598C47.6064 48.2747 47.4515 46.8978 47.8391 45.7621C47.9387 45.47 49.3529 42.9239 50.9817 40.1042C52.6104 37.2847 54.0165 34.783 54.1062 34.5453C54.3544 33.8875 54.1369 33.3054 53.5356 33.0187C52.7889 32.6627 52.2644 32.9582 51.5527 34.1363C49.2772 37.9021 45.5761 44.5733 45.3712 45.2784C45.1921 45.8944 45.1417 46.5528 45.1907 47.6354C45.25 48.9415 45.3464 49.3622 45.9287 50.8566C46.7737 53.0254 46.8519 54.381 46.2133 55.7981C45.9954 56.2813 45.7563 56.7143 45.6818 56.7604C45.6072 56.8065 45.0934 56.5778 44.5398 56.2523L43.5334 55.6606L43.5249 53.8055C43.5171 52.1206 43.4771 51.8667 43.0889 51.0381C42.3026 49.3601 40.9716 48.1817 39.2678 47.6556C37.2911 47.045 35.3074 47.4046 33.6088 48.6813L32.6632 49.392L31.6444 48.8224C31.0842 48.5091 30.5931 48.2 30.5533 48.1356C30.4123 47.9075 31.5668 46.414 32.2231 45.975C33.2227 45.3068 33.5739 45.1906 35.6401 44.8438C38.0995 44.4311 39.2729 43.8881 40.5469 42.5734C41.323 41.7724 42.1663 40.4197 45.4411 34.7222C47.617 30.9363 49.4365 27.7996 49.4841 27.7518C49.5901 27.646 51.0507 28.3735 52.4688 29.2384C54.754 30.6323 57.4744 33.0768 59.5275 35.5813C60.2546 36.4683 60.3829 36.558 60.9233 36.558C61.2929 36.558 61.6113 36.4544 61.763 36.2845C62.187 35.8101 74.6448 14.1334 74.8489 13.5149C75.2687 12.2431 74.7912 10.678 73.6965 9.73676C72.9899 9.12935 58.0602 0.473181 57.2069 0.176115C56.525 -0.0612565 55.7528 -0.0585999 54.9442 0.183616C53.723 0.54944 53.0891 1.40985 49.7047 7.29413C46.9286 12.1206 46.5506 12.8582 46.6414 13.2712C46.769 13.8521 47.2551 14.2117 47.9132 14.2117C48.5246 14.2117 48.8734 13.8227 49.8458 12.0562C50.2326 11.3537 50.6019 10.7777 50.6664 10.7763C50.7544 10.7744 67.7697 20.5352 67.9267 20.6776C67.9537 20.7023 62.9115 29.4914 61.3926 32.0672L60.7695 33.1239L59.4997 31.7826C57.1333 29.2828 53.9198 26.9644 50.7835 25.4939C49.1291 24.7182 46.1994 23.7178 44.7666 23.4391C44.2509 23.3388 43.744 23.2291 43.6403 23.1954C43.5229 23.1571 44.0396 22.1141 45.0077 20.4352C45.9148 18.862 46.5638 17.5627 46.5638 17.3197C46.5638 16.7566 46.1239 16.2647 45.5152 16.1472C45.0992 16.0669 44.9382 16.1267 44.5719 16.4983C44.0033 17.0751 40.1562 23.7601 40.1562 24.1713C40.1562 24.6677 40.7443 25.2873 41.296 25.3723C43.3893 25.695 44.9416 26.0169 45.9689 26.3414L47.171 26.7211L45.4775 29.6471C44.5461 31.2565 43.4963 33.0654 43.145 33.6671L42.506 34.7609L42.5033 34.0116C42.5011 33.4266 42.4164 33.1781 42.1168 32.8787L41.7333 32.495H37.4994H33.2656L32.882 32.8787C32.5824 33.1781 32.4977 33.4266 32.4955 34.0116L32.4929 34.7609L31.8542 33.6671C31.503 33.0654 30.4546 31.256 29.5246 29.6463L27.8336 26.7192L29.0329 26.3404C30.0577 26.0168 31.6107 25.6949 33.7028 25.3723C34.2578 25.2869 34.8426 24.6669 34.8426 24.1642C34.8426 23.9887 31.982 18.8824 28.4858 12.8168C21.7309 1.09763 21.3876 0.582881 20.0546 0.183616C19.2898 -0.0454734 18.3702 -0.0465674 17.7438 0.181115ZM10.7023 7.02144C6.40751 9.50361 2.80315 11.6581 2.69282 11.809C2.38682 12.2275 2.45058 12.757 2.89911 13.5224L3.30623 14.217L3.79774 13.9237C4.55181 13.4738 6.7443 12.2049 12.8848 8.6646C15.9792 6.88049 18.9885 5.14373 19.5722 4.80509L20.6333 4.1894L20.2934 3.61402C19.8296 2.82846 19.4132 2.48998 18.9235 2.49998C18.6784 2.50498 15.3413 4.34035 10.7023 7.02144ZM55.3541 2.76501C54.9364 3.1349 54.3383 4.1683 54.4901 4.25768C54.5574 4.29722 58.2343 6.41966 62.661 8.97417C67.0877 11.5287 70.9307 13.7533 71.2011 13.9179L71.6926 14.217L72.0997 13.5224C72.575 12.7116 72.6147 12.1825 72.2334 11.7439C71.7926 11.2368 56.5052 2.49154 56.0596 2.49154C55.8414 2.49154 55.5239 2.61468 55.3541 2.76501ZM53.0127 6.59686C52.9313 6.7025 52.6442 7.18146 52.3748 7.66121L51.8847 8.53334L60.4593 13.4822C65.1754 16.2039 69.0946 18.4303 69.1685 18.4295C69.2426 18.4287 69.5606 17.9751 69.8754 17.4214C70.2911 16.6902 70.398 16.3758 70.2661 16.2722C70.1662 16.1938 68.6779 15.3219 66.9588 14.335C65.2397 13.3478 61.5827 11.2401 58.8321 9.65113C52.6137 6.05899 53.1927 6.36293 53.0127 6.59686ZM17.7046 17.5613C16.7472 17.8607 16.136 18.3595 15.6163 19.2654C15.2394 19.9228 15.1536 20.2531 15.1523 21.0534C15.15 22.6756 15.8511 23.8147 17.2543 24.468C19.164 25.3572 21.4756 24.4704 22.2856 22.5379C22.4014 22.2613 22.4956 21.5933 22.4948 21.0534C22.4922 19.3632 21.5056 18.0415 19.8815 17.5527C19.0153 17.2922 18.5595 17.2939 17.7046 17.5613ZM55.0563 17.5613C54.0989 17.8607 53.4877 18.3595 52.968 19.2654C52.5911 19.9228 52.5053 20.2531 52.504 21.0534C52.5017 22.6756 53.2028 23.8147 54.606 24.468C56.5156 25.3572 58.8272 24.4704 59.6372 22.5379C59.753 22.2613 59.8473 21.5933 59.8465 21.0534C59.8438 19.3632 58.8572 18.0415 57.2331 17.5527C56.367 17.2922 55.9111 17.2939 55.0563 17.5613ZM18.0633 20.1613C17.1965 20.8429 17.7337 22.3376 18.8455 22.3376C19.9155 22.3376 20.4285 20.8256 19.5839 20.1613C19.3574 19.9831 19.0153 19.8373 18.8236 19.8373C18.6318 19.8373 18.2897 19.9831 18.0633 20.1613ZM55.4149 20.1613C54.5482 20.8429 55.0853 22.3376 56.1971 22.3376C57.2672 22.3376 57.7801 20.8256 56.9356 20.1613C56.7091 19.9831 56.367 19.8373 56.1753 19.8373C55.9835 19.8373 55.6414 19.9831 55.4149 20.1613ZM24.2738 28.2539C22.8777 28.9903 21.2491 30.0341 21.2474 30.1938C21.2466 30.2602 22.976 33.3086 25.0905 36.9679C27.2051 40.6271 29.0739 43.9347 29.2435 44.3181L29.552 45.0152L30.2513 44.3705C31.0306 43.6524 32.5781 42.855 33.4786 42.7078C34.2417 42.5831 34.2991 42.461 33.8476 41.9235C33.643 41.6799 31.7349 38.4567 29.6074 34.7609C27.4801 31.0652 25.6603 27.957 25.5635 27.8539C25.4281 27.7098 25.1307 27.802 24.2738 28.2539ZM34.9683 36.9878L34.9054 38.9802L35.3994 39.7699C35.9469 40.6452 37.102 41.7149 37.4994 41.7149C37.8969 41.7149 39.0519 40.6452 39.5994 39.7699L40.0934 38.9802L40.0306 36.9878L39.9678 34.9953H37.4994H35.0311L34.9683 36.9878ZM53.8201 41.1696C53.2332 41.4264 50.3793 44.3188 50.1766 44.8624C50.0461 45.2123 50.1407 45.5219 50.7966 46.8939C51.2222 47.7842 51.7129 48.9873 51.8868 49.5675C52.359 51.1411 52.5281 51.2472 54.5638 51.2472H56.2534V53.7475V56.2478H54.5343C52.481 56.2478 52.3696 56.3183 51.8897 57.9183C51.7142 58.5035 51.2222 59.7109 50.7966 60.6011C49.8647 62.5504 49.8695 62.5787 51.4164 64.1425L52.5015 65.2395L50.7405 66.9952L48.9795 68.751L47.8979 67.661C46.3677 66.1193 46.2849 66.1044 44.3903 67.0308C43.533 67.4499 42.3353 67.9407 41.7283 68.1214C40.1028 68.6055 40 68.7655 40 70.8103V72.4997H37.4994H34.9989V70.8103C34.9989 68.7747 34.8928 68.6057 33.319 68.1336C32.7387 67.9596 31.5375 67.4699 30.6497 67.0455C28.6932 66.1104 28.6289 66.1215 27.101 67.661L26.0193 68.751L24.2583 66.9952L22.4973 65.2395L23.5824 64.1425C25.1321 62.5759 25.1404 62.5301 24.2172 60.6424C23.7968 59.7828 23.3048 58.5829 23.1242 57.976C22.64 56.3506 22.48 56.2478 20.435 56.2478H18.7454V55.225C18.7454 54.3473 18.6911 54.1477 18.3618 53.8186C18.12 53.5767 17.7996 53.435 17.4952 53.435C17.1907 53.435 16.8704 53.5767 16.6286 53.8186C16.2635 54.1835 16.2449 54.2938 16.2449 56.0915C16.2449 57.8893 16.2635 57.9996 16.6286 58.3645C16.993 58.729 17.1051 58.7481 18.8825 58.7481H20.7529L20.9372 59.3341C21.0384 59.6565 21.3363 60.3963 21.599 60.978L22.0766 62.0361L20.8017 63.3421C19.6538 64.518 19.5269 64.7079 19.5269 65.2487C19.5269 65.8197 19.671 65.9933 22.4617 68.7838C25.2525 71.5743 25.4261 71.7184 25.9971 71.7184C26.538 71.7184 26.7279 71.5915 27.9039 70.4437L29.21 69.1688L30.2682 69.6464C30.85 69.9091 31.59 70.2069 31.9123 70.3082L32.4984 70.4924V72.3627C32.4984 74.1399 32.5174 74.2519 32.882 74.6164L33.2656 75H37.4994H41.7333L42.1168 74.6164C42.4814 74.2519 42.5005 74.1401 42.5005 72.3611C42.5005 70.5549 42.5128 70.4856 42.8521 70.3852C43.0456 70.328 43.7884 70.0338 44.5028 69.7314L45.802 69.1817L47.1015 70.4501C48.2711 71.5915 48.4611 71.7184 49.0017 71.7184C49.5728 71.7184 49.7464 71.5743 52.5371 68.7838C55.3279 65.9933 55.472 65.8197 55.472 65.2487C55.472 64.7082 55.3451 64.5182 54.2036 63.3486L52.935 62.0493L53.4848 60.7502C53.7873 60.0359 54.0815 59.2932 54.1387 59.0997C54.2391 58.7604 54.3085 58.7481 56.1148 58.7481C57.8939 58.7481 58.0058 58.729 58.3703 58.3645L58.7539 57.981V53.7475V49.5141L58.3703 49.1306C58.0058 48.766 57.8937 48.7469 56.1163 48.7469H54.2459L54.0617 48.1609C53.9604 47.8387 53.6625 47.0988 53.3998 46.517L52.9222 45.4589L54.1972 44.153C55.253 43.0713 55.472 42.7614 55.472 42.3487C55.472 41.6708 55.2499 41.3083 54.722 41.1242C54.4041 41.0134 54.1478 41.0263 53.8201 41.1696ZM35.852 50.2107C34.4472 50.8648 33.7458 52.0057 33.753 53.6253C33.7696 57.3079 38.476 58.689 40.5427 55.6176C41.1897 54.6562 41.2926 53.0729 40.7792 51.9808C39.9115 50.1349 37.7118 49.3447 35.852 50.2107Z" fill="black"/>
</mask>
<g mask="url(#mask0_99_950)">
<path d="M34.5 26C27.3 26 19.1667 33 16 36.5V42L7.5 40.5L-1.5 30L-6.5 16L-2 3.5L2.5 -1.5L14 -4L45.5 -11L58.5 -9L75 4L82.5 9.5L77 33L63.5 42.5L60 36C56.8 31.2 50.6667 28.3333 48 27.5L34.5 26Z" fill="#EDBC18"/>
</g>
</svg>
