<svg width="74" height="74" viewBox="0 0 74 74" fill="none" xmlns="http://www.w3.org/2000/svg">
<path fill-rule="evenodd" clip-rule="evenodd" d="M48.7498 0.167567C48.1091 0.477843 48.1046 0.542731 48.1535 8.74359C48.1946 15.6464 48.229 16.6436 48.4515 17.3949C49.2228 20 51.1564 22.3793 53.4309 23.5225L54.1898 23.9041V24.8855V25.867H50.5039H46.818V25.289V24.7109H45.5894H44.3607V25.5458V26.3805L42.1771 27.4606C40.9761 28.0546 39.8703 28.6956 39.7199 28.8852C39.4913 29.1731 39.4462 29.4757 39.4462 30.721C39.4462 31.576 39.5205 32.3752 39.6203 32.5941C39.7533 32.8859 40.3346 33.2466 42.0775 34.1192L44.3607 35.2623V36.1285V36.9948H45.5811H46.8014L46.8459 36.3806L46.8903 35.7664L50.3232 35.7276C53.3595 35.6934 53.7561 35.7151 53.7561 35.9152C53.7561 36.3336 52.4651 40.6434 52.2342 40.9957C51.9668 41.4037 51.1915 41.907 50.8291 41.9077C50.6078 41.9083 50.5762 42.0642 50.5762 43.1564V44.4044L51.2257 44.3154C52.7024 44.1131 54.2236 42.8825 54.7181 41.4905L54.9803 40.7522H57.0804H59.1803L60.2764 46.2438L61.3723 51.7354H59.6602H57.9479V52.9638V54.1922H59.8965C61.798 54.1922 61.847 54.2 61.9223 54.5173C61.9648 54.6963 62.2201 55.9462 62.4897 57.2951C63.1134 60.4155 63.1054 60.4064 65.1832 60.4064H66.6206V61.7143C66.6206 63.0872 66.4263 63.729 65.9393 63.9649C65.7973 64.0337 62.8191 64.1229 59.3211 64.1631C53.1891 64.2335 52.9369 64.2472 52.2853 64.5484C50.7979 65.2357 49.6947 66.6816 49.4455 68.2708C49.0941 70.5109 50.2002 72.5566 52.2933 73.5378L53.1057 73.9186L63.549 73.9593L73.9923 74V72.767V71.5341H63.9049H53.8174L53.1808 71.209C51.46 70.3299 51.3399 68.1893 52.9442 66.9908C53.3296 66.7029 53.5629 66.6904 59.8011 66.6206C66.2076 66.5489 66.2647 66.5456 66.9454 66.2104C67.8241 65.7779 68.5926 64.8777 68.8643 63.9632C68.9894 63.5422 69.0778 62.6562 69.0778 61.8252V60.4064H70.5298C71.8788 60.4064 72.007 60.3812 72.3366 60.0516C72.5809 59.8075 72.6915 59.5361 72.6915 59.1809C72.6915 58.8971 71.9109 53.9858 70.9569 48.267C70.0029 42.5482 69.2224 37.8171 69.2224 37.7533C69.2224 37.6896 70.2048 37.1514 71.4056 36.5573C72.6063 35.9634 73.6796 35.349 73.7906 35.1922C74.0447 34.8334 74.0784 30.8384 73.8319 30.2975C73.5573 29.6951 73.2057 29.6256 70.2401 29.5879L67.4276 29.5522L66.958 28.0449C66.2948 25.9166 66.3429 25.9494 63.7984 25.8925L61.7061 25.8456V24.8735V23.9015L62.3671 23.5803C64.8118 22.3929 66.7724 19.9206 67.488 17.1234C67.7593 16.0629 67.7766 15.5285 67.7723 8.39357C67.7675 0.375381 67.78 0.529002 67.0999 0.1667C66.6813 -0.0561439 49.2104 -0.0552768 48.7498 0.167567ZM50.5762 3.68379V4.91218H57.9479H65.3197V3.68379V2.4554H57.9479H50.5762V3.68379ZM50.5762 11.503C50.5762 15.8558 50.661 16.6054 51.3089 17.977C52.053 19.5525 53.742 21.1029 55.3546 21.6908C56.5723 22.1346 56.7041 22.3783 56.77 24.3051L56.8235 25.867H58.0362H59.2488V24.2892C59.2488 23.4214 59.2899 22.6046 59.3399 22.4741C59.39 22.3436 60.0567 21.9385 60.8215 21.5739C63.0649 20.5046 64.5219 18.8016 65.1235 16.5457C65.263 16.0227 65.3168 14.6559 65.318 11.596L65.3197 7.36895H57.9479H50.5762V11.503ZM53.0334 11.0541V12.2825H54.262H55.4907V11.0541V9.82573H54.262H53.0334V11.0541ZM53.0866 15.414C53.3878 17.6117 55.4878 19.6528 57.4475 19.6528H57.9479V18.4429V17.233L57.3505 17.1375C56.5642 17.0118 55.8484 16.3009 55.6098 15.4085L55.4307 14.7393H54.2125H52.9941L53.0866 15.414ZM18.1005 16.2479C17.7685 16.3518 17.2724 16.5755 16.9978 16.745C15.7934 17.4893 15.4585 18.0604 10.9823 27.0031C6.69378 35.5706 6.63293 35.6811 6.16706 35.7531C5.90746 35.7931 5.40199 35.8629 5.04366 35.9081C3.56093 36.0951 1.94839 37.1816 1.00047 38.632C-0.061068 40.2562 -0.0285455 39.6687 0.0172751 56.4322L0.0578921 71.3174L0.370397 71.8954C0.738841 72.5768 1.44754 73.274 2.15379 73.6496C2.61777 73.8964 3.12628 73.9223 8.29692 73.9623C12.3478 73.9936 14.1089 73.9574 14.5554 73.8332C15.4286 73.5903 16.2307 72.9645 16.7069 72.1544L17.1141 71.4619L17.1864 67.1986L17.2587 62.9354L32.0383 62.8986L46.818 62.8619V61.634V60.4064L26.112 60.4049L5.40603 60.4035L4.68331 60.0516C4.28582 59.8579 3.85507 59.6137 3.72614 59.5086C3.44601 59.2805 2.73196 58.2501 2.73196 58.0739C2.73196 58.0051 12.5592 57.9496 24.775 57.9496H46.818V56.7212V55.4928H24.6304H2.44287L2.44374 48.5199C2.44418 43.8749 2.4978 41.355 2.60419 40.9717C2.84384 40.1089 3.5258 39.2179 4.29044 38.7684L4.9724 38.3677L16.03 38.2954L27.0877 38.2232V36.9948V35.7664L18.2346 35.7291L9.38158 35.692L13.3511 27.7556C15.5343 23.3907 17.5148 19.5981 17.7524 19.3275C17.9917 19.0551 18.4367 18.76 18.7501 18.6662C19.1648 18.5419 22.8317 18.4967 32.4887 18.4967H45.6616V17.2683V16.0399L32.1829 16.0496C21.5194 16.0573 18.5781 16.0987 18.1005 16.2479ZM24.7027 22.1819V23.4102H25.9313H27.16V22.1819V20.9535H25.9313H24.7027V22.1819ZM29.5778 23.4825L29.0414 24.5664L32.6527 26.3728C34.639 27.3664 36.3153 28.1793 36.378 28.1793C36.4407 28.1793 36.7272 27.7038 37.0149 27.1229L37.5377 26.0665L33.8658 24.2325C31.8462 23.2238 30.176 22.3986 30.1541 22.3986C30.1322 22.3986 29.8729 22.8864 29.5778 23.4825ZM20.9446 25.9393V27.1677H22.1732H23.4018V25.9393V24.7109H22.1732H20.9446V25.9393ZM46.818 30.7738V33.2259L53.2463 33.2678L59.6747 33.3096L60.0032 33.6381C60.2898 33.9248 60.6357 35.486 62.7248 45.922L65.118 57.8773L67.6146 57.9169C69.946 57.9539 70.1067 57.9395 70.0408 57.7002C70.0021 57.5591 69.9299 57.1837 69.8805 56.8657C69.6514 55.3915 69.7381 55.4928 68.7051 55.4928H67.7769V54.2644V53.0361H68.4997C69.3129 53.0361 69.2812 53.1181 69.03 51.6632L68.8552 50.6515L67.7379 50.6093L66.6206 50.5671V49.3448V48.1225H67.4879C68.4777 48.1225 68.4417 48.1966 68.1902 46.6742L68.0254 45.676L66.7086 45.6348L65.392 45.5935L65.35 44.4012L65.308 43.209H66.4799C67.5262 43.209 67.6444 43.1818 67.5825 42.9561C67.5444 42.817 67.4727 42.443 67.4232 42.1251C67.3738 41.8072 67.2979 41.3681 67.2546 41.1496L67.1758 40.7522H65.6696H64.1633V39.5238V38.2954H65.4655H66.7676L66.6748 37.5048C66.5362 36.3267 66.7064 36.1554 69.3001 34.862L71.5351 33.7475V32.9232V32.0987L68.7935 32.0539C66.3952 32.0146 66.0197 31.9767 65.7942 31.7517C65.6524 31.6102 65.3034 30.7973 65.0185 29.9453L64.5004 28.3961L55.6592 28.3588L46.818 28.3216V30.7738ZM43.0237 29.7779C41.9722 30.3154 41.9035 30.3794 41.9035 30.8223C41.9035 31.2703 41.9656 31.325 43.1321 31.9035L44.3607 32.5126V30.8518C44.3607 29.9383 44.312 29.1941 44.2523 29.1981C44.1926 29.202 43.6398 29.463 43.0237 29.7779ZM23.4018 30.8528V32.0812H24.6304H25.8591V30.8528V29.6244H24.6304H23.4018V30.8528ZM28.3163 30.8528V32.0812H32.6527H36.989V30.8528V29.6244H32.6527H28.3163V30.8528ZM32.6154 35.3418L29.0366 37.1416L29.5607 38.1882C29.8489 38.7638 30.1026 39.2549 30.1244 39.2793C30.2068 39.3719 37.4226 35.6865 37.4226 35.5518C37.4226 35.2711 36.4896 33.5265 36.3436 33.5342C36.2613 33.5384 34.5836 34.3519 32.6154 35.3418ZM56.4585 35.7957C56.3529 35.9707 55.7798 37.9421 55.7798 38.1304C55.7798 38.2431 56.2396 38.2954 57.2317 38.2954H58.6838L58.5859 37.7738C58.532 37.4871 58.4141 36.918 58.3236 36.5093L58.1591 35.7664L57.3436 35.7235C56.8951 35.6998 56.4967 35.7323 56.4585 35.7957ZM7.24782 40.9681C6.44068 41.3188 5.83027 41.8778 5.39317 42.6664L4.9724 43.4257L4.92398 46.4896C4.86457 50.2405 4.99105 50.856 6.03581 51.9006C7.12741 52.992 7.53633 53.0603 12.6614 53.0079C16.9204 52.9642 16.9775 52.9598 17.6712 52.6055C18.4788 52.1931 18.9842 51.6473 19.4135 50.7238C19.6922 50.1246 19.7159 49.818 19.7155 46.8219C19.7151 43.225 19.6759 43.027 18.7593 41.9833C18.4916 41.6784 17.9469 41.2774 17.5488 41.0919C16.8382 40.7611 16.7421 40.7551 12.2719 40.7593C8.67042 40.7626 7.62031 40.8062 7.24782 40.9681ZM24.3414 41.0966C23.4728 41.5071 22.9416 42.0466 22.5463 42.9199C22.278 43.5123 22.2515 43.8635 22.2486 46.8626C22.2452 50.3953 22.2897 50.6661 23.0324 51.6397C23.2349 51.9052 23.7424 52.3117 24.1601 52.5431L24.9195 52.9638L35.8688 53.0034L46.818 53.0431V51.8111V50.5793H36.2567C28.5047 50.5793 25.6116 50.5346 25.3798 50.4112C24.8543 50.1313 24.7121 49.8232 24.7073 48.9535L24.7027 48.1225H35.7604H46.818V46.8941V45.6657H35.7604H24.7027V44.7921C24.7027 44.0571 24.7591 43.862 25.0576 43.5637L25.4123 43.209H36.1152H46.818V41.9806V40.7522L35.941 40.7536L25.0641 40.7551L24.3414 41.0966ZM7.82499 43.4974C7.38846 43.9039 7.3318 44.3905 7.38384 47.2901C7.44686 50.8069 7.00339 50.4952 12.0218 50.5499C14.1857 50.5736 16.1043 50.5557 16.2857 50.5102C16.4671 50.4647 16.744 50.2991 16.9009 50.1421C17.167 49.8761 17.1864 49.6511 17.1864 46.8324V43.808L16.8055 43.5085C16.4404 43.2212 16.2542 43.209 12.2797 43.209C8.33711 43.209 8.11942 43.2231 7.82499 43.4974ZM2.44287 66.2038V70.6893L2.86538 71.1117C3.23136 71.4776 3.39571 71.5341 4.09401 71.5341H4.90013V67.1264C4.90013 63.6447 4.86125 62.7186 4.7154 62.7186C4.61379 62.7186 4.0609 62.4936 3.48677 62.2185L2.44287 61.7183V66.2038ZM7.35738 67.1986V71.5341H8.58601H9.81464V67.1986V62.8632H8.58601H7.35738V67.1986ZM12.2719 67.1986V71.5341H13.0018C13.7906 71.5341 14.4959 71.2513 14.6394 70.8773C14.6887 70.7487 14.7291 68.8928 14.7291 66.7532V62.8632H13.5005H12.2719V67.1986Z" fill="black"/>
<path fill-rule="evenodd" clip-rule="evenodd" d="M48.7489 0.167567C48.1081 0.477843 48.1037 0.542731 48.1525 8.74359C48.1937 15.6464 48.2281 16.6436 48.4506 17.3949C49.2219 20 51.1554 22.3793 53.43 23.5225L54.1888 23.9041V24.8855V25.867H50.503H46.8171V25.289V24.7109H45.5884H44.3598V25.5458V26.3805L42.1762 27.4606C40.9752 28.0546 39.8694 28.6956 39.7189 28.8852C39.4904 29.1731 39.4453 29.4757 39.4453 30.721C39.4453 31.576 39.5196 32.3752 39.6193 32.5941C39.7523 32.8859 40.3337 33.2466 42.0766 34.1192L44.3598 35.2623V36.1285V36.9948H45.5802H46.8005L46.845 36.3806L46.8893 35.7664L50.3223 35.7276C53.3586 35.6934 53.7552 35.7151 53.7552 35.9152C53.7552 36.3336 52.4641 40.6434 52.2333 40.9957C51.9659 41.4037 51.1906 41.907 50.8282 41.9077C50.6069 41.9083 50.5752 42.0642 50.5752 43.1564V44.4044L51.2248 44.3154C52.7015 44.1131 54.2227 42.8825 54.7172 41.4905L54.9794 40.7522H57.0794H59.1794L60.2755 46.2438L61.3714 51.7354H59.6593H57.947V52.9638V54.1922H59.8956C61.7971 54.1922 61.8461 54.2 61.9214 54.5173C61.9639 54.6963 62.2192 55.9462 62.4887 57.2951C63.1124 60.4155 63.1045 60.4064 65.1823 60.4064H66.6197V61.7143C66.6197 63.0872 66.4254 63.729 65.9384 63.9649C65.7963 64.0337 62.8181 64.1229 59.3202 64.1631C53.1882 64.2335 52.9359 64.2472 52.2843 64.5484C50.797 65.2357 49.6938 66.6816 49.4446 68.2708C49.0932 70.5109 50.1993 72.5566 52.2924 73.5378L53.1048 73.9186L63.5481 73.9593L73.9914 74V72.767V71.5341H63.904H53.8165L53.1799 71.209C51.4591 70.3299 51.339 68.1893 52.9433 66.9908C53.3287 66.7029 53.562 66.6904 59.8002 66.6206C66.2067 66.5489 66.2638 66.5456 66.9445 66.2104C67.8231 65.7779 68.5917 64.8777 68.8634 63.9632C68.9885 63.5422 69.0769 62.6562 69.0769 61.8252V60.4064H70.5289C71.8779 60.4064 72.0061 60.3812 72.3357 60.0516C72.58 59.8075 72.6905 59.5361 72.6905 59.1809C72.6905 58.8971 71.91 53.9858 70.956 48.267C70.002 42.5482 69.2215 37.8171 69.2215 37.7533C69.2215 37.6896 70.2039 37.1514 71.4047 36.5573C72.6054 35.9634 73.6786 35.349 73.7896 35.1922C74.0438 34.8334 74.0774 30.8384 73.831 30.2975C73.5564 29.6951 73.2048 29.6256 70.2392 29.5879L67.4267 29.5522L66.957 28.0449C66.2939 25.9166 66.342 25.9494 63.7974 25.8925L61.7052 25.8456V24.8735V23.9015L62.3662 23.5803C64.8108 22.3929 66.7714 19.9206 67.4871 17.1234C67.7584 16.0629 67.7757 15.5285 67.7714 8.39357C67.7666 0.375381 67.7791 0.529002 67.099 0.1667C66.6804 -0.0561439 49.2094 -0.0552768 48.7489 0.167567ZM50.5752 3.68379V4.91218H57.947H65.3188V3.68379V2.4554H57.947H50.5752V3.68379ZM50.5752 11.503C50.5752 15.8558 50.6601 16.6054 51.3079 17.977C52.052 19.5525 53.741 21.1029 55.3537 21.6908C56.5714 22.1346 56.7032 22.3783 56.7691 24.3051L56.8226 25.867H58.0353H59.2479V24.2892C59.2479 23.4214 59.2889 22.6046 59.339 22.4741C59.3891 22.3436 60.0558 21.9385 60.8205 21.5739C63.064 20.5046 64.521 18.8016 65.1226 16.5457C65.2621 16.0227 65.3159 14.6559 65.317 11.596L65.3188 7.36895H57.947H50.5752V11.503ZM53.0325 11.0541V12.2825H54.2611H55.4897V11.0541V9.82573H54.2611H53.0325V11.0541ZM53.0857 15.414C53.3869 17.6117 55.4869 19.6528 57.4466 19.6528H57.947V18.4429V17.233L57.3496 17.1375C56.5633 17.0118 55.8475 16.3009 55.6088 15.4085L55.4298 14.7393H54.2115H52.9932L53.0857 15.414ZM46.8171 30.7738V33.2259L53.2454 33.2678L59.6737 33.3096L60.0023 33.6381C60.2889 33.9248 60.6348 35.486 62.7239 45.922L65.1171 57.8773L67.6137 57.9169C69.945 57.9539 70.1058 57.9395 70.0399 57.7002C70.0011 57.5591 69.929 57.1837 69.8796 56.8657C69.6505 55.3915 69.7372 55.4928 68.7041 55.4928H67.776V54.2644V53.0361H68.4987C69.3119 53.0361 69.2803 53.1181 69.0291 51.6632L68.8543 50.6515L67.737 50.6093L66.6197 50.5671V49.3448V48.1225H67.4869C68.4768 48.1225 68.4408 48.1966 68.1893 46.6742L68.0245 45.676L66.7077 45.6348L65.391 45.5935L65.3491 44.4012L65.3071 43.209H66.479C67.5252 43.209 67.6435 43.1818 67.5816 42.9561C67.5434 42.817 67.4718 42.443 67.4223 42.1251C67.3729 41.8072 67.297 41.3681 67.2536 41.1496L67.1749 40.7522H65.6687H64.1624V39.5238V38.2954H65.4646H66.7667L66.6739 37.5048C66.5352 36.3267 66.7055 36.1554 69.2992 34.862L71.5342 33.7475V32.9232V32.0987L68.7926 32.0539C66.3943 32.0146 66.0188 31.9767 65.7933 31.7517C65.6515 31.6102 65.3024 30.7973 65.0175 29.9453L64.4995 28.3961L55.6583 28.3588L46.8171 28.3216V30.7738ZM43.0228 29.7779C41.9712 30.3154 41.9026 30.3794 41.9026 30.8223C41.9026 31.2703 41.9647 31.325 43.1312 31.9035L44.3598 32.5126V30.8518C44.3598 29.9383 44.3111 29.1941 44.2514 29.1981C44.1917 29.202 43.6388 29.463 43.0228 29.7779ZM56.4576 35.7957C56.352 35.9707 55.7788 37.9421 55.7788 38.1304C55.7788 38.2431 56.2386 38.2954 57.2308 38.2954H58.6829L58.585 37.7738C58.5311 37.4871 58.4132 36.918 58.3227 36.5093L58.1582 35.7664L57.3427 35.7235C56.8941 35.6998 56.4958 35.7323 56.4576 35.7957Z" fill="#EDBC18"/>
</svg>
