<svg width="71" height="71" viewBox="0 0 71 71" fill="none" xmlns="http://www.w3.org/2000/svg">
<path fill-rule="evenodd" clip-rule="evenodd" d="M7.99986 0.151034C1.44837 1.52449 -1.94112 8.72346 1.1634 14.6704C2.063 16.3936 3.77489 18.0868 5.44292 18.903C5.8678 19.1108 6.2144 19.3205 6.21329 19.3688C6.21218 19.4171 6.11252 19.7378 5.99176 20.0814C5.74399 20.7867 5.80159 21.7756 6.12737 22.4056C6.2398 22.6231 7.60745 24.459 9.16652 26.4856L12.0012 30.17L11.6826 30.5404C11.2346 31.0614 11.0651 31.7664 11.235 32.4027C11.4192 33.0921 13.9947 35.6891 14.6081 35.8041C15.4532 35.9622 15.9347 35.7617 16.903 34.8481C17.9128 33.8953 18.2941 33.8013 17.5307 34.6931C15.9548 36.5346 16.5408 39.3141 18.7355 40.408C20.0282 41.0523 21.3992 40.8709 22.9324 39.8527L23.7174 39.3314L24.5061 40.0841C24.9398 40.498 25.3184 40.8485 25.3472 40.8628C25.3761 40.8772 25.1646 41.0955 24.8774 41.3477C24.1221 42.0109 23.7072 42.9885 23.7093 44.0992C23.7121 45.5939 24.3777 46.7125 25.6482 47.3579C27.0622 48.0764 28.2413 47.9381 29.8914 46.8607C30.4633 46.4873 30.9648 46.1817 31.0058 46.1817C31.0467 46.1817 31.4511 46.5082 31.9044 46.9074L32.7286 47.6331L32.0978 48.1724C29.3805 50.4956 30.8745 54.7893 34.4001 54.7893C35.3178 54.7893 36.0641 54.4893 37.2978 53.6246L38.3673 52.8751L39.229 53.6586L40.0907 54.4422L39.2893 55.0669C38.2066 55.9108 37.7237 56.8509 37.7256 58.1114C37.728 59.6739 38.4821 60.8498 39.8757 61.4641C41.3662 62.1211 42.3039 61.9412 44.3218 60.6109L45.7591 59.6634L47.011 60.8001L48.2629 61.9367L47.8684 62.3543C47.332 62.9224 47.163 63.2878 47.163 63.8805C47.163 64.6088 47.4165 64.992 48.784 66.3317C50.1632 67.6827 50.4061 67.8394 51.119 67.8394C51.8569 67.8394 52.0673 67.692 53.8554 65.9226L55.4814 64.3135L56.4445 65.2434C57.5 66.2626 57.8399 66.3711 58.4569 65.8857C59.1064 65.3748 58.9704 64.8715 57.8878 63.7804L56.953 62.8382L59.9037 59.8897L62.8544 56.9412L65.5552 59.6592C68.6944 62.8185 68.8808 63.1094 68.884 64.8546C68.8858 65.8267 68.835 66.0573 68.4772 66.7036C67.5233 68.4257 65.6943 69.2611 63.8472 68.8179C63.4532 68.7234 62.7681 68.3824 62.277 68.0366C61.1205 67.222 60.5636 67.2583 60.2167 68.171C60.0116 68.7105 60.3118 69.2111 61.2122 69.8314C63.912 71.6912 67.3542 71.2981 69.4753 68.8879C71.1314 67.0062 71.4621 64.425 70.3511 62.0504C69.9779 61.253 69.5306 60.7345 67.1166 58.3016L64.3151 55.4782L65.9262 53.8495C66.8123 52.9538 67.6066 52.0844 67.6911 51.9177C67.904 51.4983 67.8838 50.6846 67.6493 50.2356C67.3474 49.6575 64.8949 47.3236 64.4797 47.2195L64.1106 47.1267L64.4381 46.6081C66.0267 44.0911 64.3054 40.9121 61.3515 40.9075C60.2974 40.9058 59.8965 41.0634 58.3913 42.0713C57.7519 42.4995 57.1659 42.843 57.0889 42.8348C57.0118 42.8266 56.6365 42.4751 56.2548 42.0537L55.5608 41.2876L55.9772 40.9928C57.3591 40.0143 57.9911 38.8996 57.9885 37.4453C57.9858 35.9179 56.9007 34.4655 55.4375 34.0308C54.0805 33.6277 53.1589 33.8406 51.545 34.93L50.4634 35.6598L49.7154 34.9211C49.3041 34.5147 48.9699 34.1177 48.9728 34.0387C48.9757 33.9597 49.2235 33.7255 49.5233 33.5179C50.1457 33.0876 50.677 32.3161 50.897 31.5236C51.5459 29.186 49.7808 26.8893 47.3321 26.8855C46.3209 26.8839 45.8347 27.0612 44.6584 27.8601L43.8049 28.4397L43.3205 27.9744C43.054 27.7184 42.7185 27.346 42.5751 27.147L42.3143 26.7852L42.9152 26.1578C44.8296 24.1596 44.0062 20.7775 41.4181 20.0088C40.1488 19.6319 39.1339 19.8243 37.8575 20.6841L37.1049 21.1909L36.8012 20.8791C36.6341 20.7077 35.9342 19.9459 35.246 19.1864L33.9945 17.8053L34.8664 16.8809C36.3651 15.292 36.2782 14.6685 34.2803 12.6792C33.2394 11.6427 32.7879 11.2881 32.396 11.1998C31.7922 11.0636 31.1021 11.2234 30.6046 11.6148C30.412 11.7664 30.2154 11.8903 30.1679 11.8903C30.1203 11.8903 28.4667 10.6463 26.4933 9.12579C24.5198 7.60531 22.7113 6.26115 22.4745 6.1387C21.773 5.77579 20.8902 5.71706 20.0869 5.97987C19.6933 6.10857 19.3579 6.19478 19.3415 6.17132C19.3253 6.148 19.1051 5.75399 18.8525 5.29585C17.503 2.84825 15.4904 1.20935 12.8086 0.374275C11.5591 -0.0147311 9.29269 -0.119965 7.99986 0.151034ZM8.29745 2.24059C4.02238 3.2063 1.34871 7.37152 2.25566 11.6525C2.72108 13.8497 4.3762 15.9956 6.42455 17.0578C6.95951 17.3352 7.53305 17.7072 7.6992 17.8847C8.32383 18.5515 8.45097 19.4145 8.06621 20.376C7.88673 20.825 7.86785 21.0407 7.98195 21.3431C8.06273 21.5572 9.33406 23.301 10.8072 25.2184L13.4855 28.7045L14.9439 27.2458L16.4023 25.7872L15.1185 24.46C14.4125 23.73 13.7146 22.8679 13.5676 22.5441C13.2417 21.8261 13.2159 20.677 13.5099 19.9732C13.798 19.2834 19.129 13.9237 19.8967 13.552C20.638 13.1931 21.7774 13.1974 22.5814 13.5623C22.9291 13.72 23.7546 14.3906 24.4941 15.1161L25.7954 16.3924L27.2586 14.9288L28.7219 13.4652L25.0684 10.6536C21.0823 7.58615 21.3831 7.73526 20.021 8.15134C18.7706 8.53312 17.905 8.01209 17.0458 6.36041C15.7245 3.82035 13.2492 2.23156 10.3994 2.09454C9.64151 2.05802 8.86739 2.11189 8.29745 2.24059ZM8.09424 4.40205C5.6335 5.27142 4.13329 7.41525 4.13329 10.0625C4.13329 11.4053 4.41229 11.8903 5.18446 11.8903C5.99689 11.8903 6.21537 11.5284 6.21537 10.1822C6.21537 9.22284 6.2752 8.90936 6.57168 8.31419C6.98519 7.48439 7.68005 6.82688 8.55091 6.44163C9.32614 6.09857 10.8734 6.14841 11.6847 6.54228C13.0134 7.18743 13.7757 8.45871 13.7719 10.0226C13.7699 10.8544 13.7057 11.1146 13.3443 11.758C12.8229 12.6861 11.9973 13.3429 10.9803 13.6386C10.3081 13.8341 10.0711 13.8395 9.09767 13.6814L7.98417 13.5005L7.65492 13.8833C7.05986 14.5752 7.32248 15.332 8.25318 15.6067C11.0773 16.4404 14.0416 15.1427 15.3062 12.5193C16.7109 9.60518 15.4798 6.11273 12.5374 4.66389C11.6851 4.2442 11.4368 4.18853 10.2517 4.15132C9.17873 4.11759 8.76231 4.16604 8.09424 4.40205ZM22.5254 22.58L13.2267 31.8812L14.1634 32.8181L15.1 33.7549L24.4321 24.4211L33.7641 15.0874L32.868 14.183C32.3751 13.6856 31.9387 13.2787 31.898 13.2787C31.8575 13.2787 27.6397 17.4643 22.5254 22.58ZM18.0524 18.0375C14.7262 21.3645 14.7987 21.1078 16.6623 22.9641L17.9482 24.2448L21.1049 21.0853L24.2618 17.9256L22.9743 16.6434C21.1128 14.7893 21.3742 14.7153 18.0524 18.0375ZM25.8554 25.9133C19.4018 32.3692 19.222 32.5635 19.5585 32.7167C19.8812 32.8639 20.4288 32.5189 27.6289 27.6326L35.353 22.3907L34.7766 21.7567C34.4595 21.4079 33.8173 20.7053 33.3494 20.1951L32.4988 19.2677L25.8554 25.9133ZM39.5233 22.1376C39.2592 22.2759 34.6081 25.3971 29.1877 29.0738C22.9864 33.28 19.2167 35.9225 19.0202 36.2008C18.2497 37.2926 19.0403 38.6848 20.431 38.6848C20.8258 38.6848 21.4024 38.3573 23.457 36.9662C38.5381 26.7548 41.4313 24.7592 41.6448 24.4214C41.9496 23.9388 41.9584 23.0198 41.662 22.5966C41.4252 22.2584 40.6889 21.8862 40.2566 21.8862C40.1175 21.8862 39.7876 21.9994 39.5233 22.1376ZM38.0019 29.5927C36.7422 30.4574 33.4181 32.7162 30.615 34.6125C27.812 36.5086 25.5361 38.1189 25.5575 38.1909C25.579 38.2628 25.9534 38.6333 26.3895 39.0141L27.1826 39.7068L29.1613 38.3629C31.3653 36.8658 31.7889 36.7338 32.3007 37.3847C32.7969 38.0155 32.6052 38.5429 31.6428 39.1949C31.2849 39.4373 29.9615 40.3312 28.7019 41.1816C25.9367 43.048 25.787 43.1974 25.787 44.0883C25.787 45.1784 26.6748 45.9252 27.6815 45.6819C28.3388 45.5231 48.5373 31.7562 48.7682 31.3097C49.024 30.8149 49.0212 30.3062 48.7601 29.8011C48.465 29.2304 48.022 28.9666 47.3582 28.9666C46.6905 28.9666 46.7913 28.9046 40.3359 33.29C35.6263 36.4895 35.4668 36.5636 34.8467 35.8424C34.4751 35.4103 34.5035 34.9057 34.9222 34.5029C35.051 34.379 36.7042 33.2312 38.5959 31.9523L42.0355 29.6269L41.3027 28.8456C40.8996 28.4159 40.5073 28.0545 40.431 28.0426C40.3546 28.0306 39.2615 28.7282 38.0019 29.5927ZM40.0105 40.0152C36.1192 42.6558 32.9354 44.8639 32.9354 44.9222C32.9354 44.9804 33.2955 45.3572 33.7357 45.7595L34.536 46.4912L35.5401 45.8022C36.0924 45.4231 39.1991 43.3154 42.4436 41.1181C45.6882 38.9208 48.4209 37.0506 48.5161 36.9622C48.6517 36.8361 48.5157 36.6294 47.8874 36.0077L47.0857 35.2142L40.0105 40.0152ZM51.2935 37.6261C49.8997 38.571 45.2926 41.6922 41.0556 44.562C36.2578 47.8116 33.234 49.9468 33.0396 50.2225C32.2692 51.3149 33.0597 52.7068 34.4504 52.7068C34.8451 52.7068 35.4219 52.3793 37.4763 50.9885C52.1357 41.0643 55.4521 38.7766 55.6642 38.442C55.969 37.9611 55.9777 37.0417 55.6814 36.6186C55.4243 36.2514 54.6981 35.9082 54.1781 35.9082C53.9588 35.9082 52.8795 36.551 51.2935 37.6261ZM46.9806 47.0433L40.205 51.645L41.0261 52.4663L41.8473 53.2877L48.5305 48.754C52.2062 46.2604 55.2137 44.1564 55.2137 44.0781C55.2137 44 54.8857 43.5997 54.485 43.1888L53.7563 42.4415L46.9806 47.0433ZM50.5638 49.8695C44.9907 53.649 40.2905 56.8991 40.1186 57.0919C39.7014 57.5603 39.6845 58.6231 40.0862 59.1337C40.4239 59.5633 41.2123 59.8476 41.7152 59.7214C41.9171 59.6707 46.6964 56.4987 52.3356 52.6725C59.4153 47.8689 62.6505 45.5965 62.788 45.3308C63.0434 44.8369 63.0404 44.3279 62.7795 43.8231C62.4769 43.2378 62.039 42.988 61.3249 42.9932C60.7272 42.9975 60.2027 43.3328 50.5638 49.8695ZM56.5635 56.563L49.2419 63.8869L50.1825 64.8204L51.123 65.754L58.4446 58.43L65.7662 51.1061L64.8256 50.1726L63.8851 49.2389L56.5635 56.563ZM53.9936 54.0483C48.6738 57.6734 47.5967 58.4605 47.7321 58.6239C47.8222 58.7325 48.3129 59.1909 48.8224 59.6428L49.7491 60.4646L55.1528 55.0585C58.1248 52.0852 60.5256 49.6564 60.4877 49.6613C60.4499 49.6661 57.5276 51.6403 53.9936 54.0483ZM64.0973 64.091C63.5421 64.6463 63.8776 65.6438 64.6838 65.8346C64.9886 65.9068 65.1461 65.84 65.496 65.49C65.8493 65.1367 65.9126 64.9853 65.8357 64.6775C65.7838 64.4694 65.6428 64.1898 65.5224 64.0563C65.2226 63.7235 64.4458 63.7424 64.0973 64.091Z" fill="black"/>
<mask id="mask0_99_932" style="mask-type:alpha" maskUnits="userSpaceOnUse" x="0" y="0" width="71" height="71">
<path fill-rule="evenodd" clip-rule="evenodd" d="M7.99986 0.151034C1.44837 1.52449 -1.94112 8.72346 1.1634 14.6704C2.063 16.3936 3.77489 18.0868 5.44292 18.903C5.8678 19.1108 6.2144 19.3205 6.21329 19.3688C6.21218 19.4171 6.11252 19.7378 5.99176 20.0814C5.74399 20.7867 5.80159 21.7756 6.12737 22.4056C6.2398 22.6231 7.60745 24.459 9.16652 26.4856L12.0012 30.17L11.6826 30.5404C11.2346 31.0614 11.0651 31.7664 11.235 32.4027C11.4192 33.0921 13.9947 35.6891 14.6081 35.8041C15.4532 35.9622 15.9347 35.7617 16.903 34.8481C17.9128 33.8953 18.2941 33.8013 17.5307 34.6931C15.9548 36.5346 16.5408 39.3141 18.7355 40.408C20.0282 41.0523 21.3992 40.8709 22.9324 39.8527L23.7174 39.3314L24.5061 40.0841C24.9398 40.498 25.3184 40.8485 25.3472 40.8628C25.3761 40.8772 25.1646 41.0955 24.8774 41.3477C24.1221 42.0109 23.7072 42.9885 23.7093 44.0992C23.7121 45.5939 24.3777 46.7125 25.6482 47.3579C27.0622 48.0764 28.2413 47.9381 29.8914 46.8607C30.4633 46.4873 30.9648 46.1817 31.0058 46.1817C31.0467 46.1817 31.4511 46.5082 31.9044 46.9074L32.7286 47.6331L32.0978 48.1724C29.3805 50.4956 30.8745 54.7893 34.4001 54.7893C35.3178 54.7893 36.0641 54.4893 37.2978 53.6246L38.3673 52.8751L39.229 53.6586L40.0907 54.4422L39.2893 55.0669C38.2066 55.9108 37.7237 56.8509 37.7256 58.1114C37.728 59.6739 38.4821 60.8498 39.8757 61.4641C41.3662 62.1211 42.3039 61.9412 44.3218 60.6109L45.7591 59.6634L47.011 60.8001L48.2629 61.9367L47.8684 62.3543C47.332 62.9224 47.163 63.2878 47.163 63.8805C47.163 64.6088 47.4165 64.992 48.784 66.3317C50.1632 67.6827 50.4061 67.8394 51.119 67.8394C51.8569 67.8394 52.0673 67.692 53.8554 65.9226L55.4814 64.3135L56.4445 65.2434C57.5 66.2626 57.8399 66.3711 58.4569 65.8857C59.1064 65.3748 58.9704 64.8715 57.8878 63.7804L56.953 62.8382L59.9037 59.8897L62.8544 56.9412L65.5552 59.6592C68.6944 62.8185 68.8808 63.1094 68.884 64.8546C68.8858 65.8267 68.835 66.0573 68.4772 66.7036C67.5233 68.4257 65.6943 69.2611 63.8472 68.8179C63.4532 68.7234 62.7681 68.3824 62.277 68.0366C61.1205 67.222 60.5636 67.2583 60.2167 68.171C60.0116 68.7105 60.3118 69.2111 61.2122 69.8314C63.912 71.6912 67.3542 71.2981 69.4753 68.8879C71.1314 67.0062 71.4621 64.425 70.3511 62.0504C69.9779 61.253 69.5306 60.7345 67.1166 58.3016L64.3151 55.4782L65.9262 53.8495C66.8123 52.9538 67.6066 52.0844 67.6911 51.9177C67.904 51.4983 67.8838 50.6846 67.6493 50.2356C67.3474 49.6575 64.8949 47.3236 64.4797 47.2195L64.1106 47.1267L64.4381 46.6081C66.0267 44.0911 64.3054 40.9121 61.3515 40.9075C60.2974 40.9058 59.8965 41.0634 58.3913 42.0713C57.7519 42.4995 57.1659 42.843 57.0889 42.8348C57.0118 42.8266 56.6365 42.4751 56.2548 42.0537L55.5608 41.2876L55.9772 40.9928C57.3591 40.0143 57.9911 38.8996 57.9885 37.4453C57.9858 35.9179 56.9007 34.4655 55.4375 34.0308C54.0805 33.6277 53.1589 33.8406 51.545 34.93L50.4634 35.6598L49.7154 34.9211C49.3041 34.5147 48.9699 34.1177 48.9728 34.0387C48.9757 33.9597 49.2235 33.7255 49.5233 33.5179C50.1457 33.0876 50.677 32.3161 50.897 31.5236C51.5459 29.186 49.7808 26.8893 47.3321 26.8855C46.3209 26.8839 45.8347 27.0612 44.6584 27.8601L43.8049 28.4397L43.3205 27.9744C43.054 27.7184 42.7185 27.346 42.5751 27.147L42.3143 26.7852L42.9152 26.1578C44.8296 24.1596 44.0062 20.7775 41.4181 20.0088C40.1488 19.6319 39.1339 19.8243 37.8575 20.6841L37.1049 21.1909L36.8012 20.8791C36.6341 20.7077 35.9342 19.9459 35.246 19.1864L33.9945 17.8053L34.8664 16.8809C36.3651 15.292 36.2782 14.6685 34.2803 12.6792C33.2394 11.6427 32.7879 11.2881 32.396 11.1998C31.7922 11.0636 31.1021 11.2234 30.6046 11.6148C30.412 11.7664 30.2154 11.8903 30.1679 11.8903C30.1203 11.8903 28.4667 10.6463 26.4933 9.12579C24.5198 7.60531 22.7113 6.26115 22.4745 6.1387C21.773 5.77579 20.8902 5.71706 20.0869 5.97987C19.6933 6.10857 19.3579 6.19478 19.3415 6.17132C19.3253 6.148 19.1051 5.75399 18.8525 5.29585C17.503 2.84825 15.4904 1.20935 12.8086 0.374275C11.5591 -0.0147311 9.29269 -0.119965 7.99986 0.151034ZM8.29745 2.24059C4.02238 3.2063 1.34871 7.37152 2.25566 11.6525C2.72108 13.8497 4.3762 15.9956 6.42455 17.0578C6.95951 17.3352 7.53305 17.7072 7.6992 17.8847C8.32383 18.5515 8.45097 19.4145 8.06621 20.376C7.88673 20.825 7.86785 21.0407 7.98195 21.3431C8.06273 21.5572 9.33406 23.301 10.8072 25.2184L13.4855 28.7045L14.9439 27.2458L16.4023 25.7872L15.1185 24.46C14.4125 23.73 13.7146 22.8679 13.5676 22.5441C13.2417 21.8261 13.2159 20.677 13.5099 19.9732C13.798 19.2834 19.129 13.9237 19.8967 13.552C20.638 13.1931 21.7774 13.1974 22.5814 13.5623C22.9291 13.72 23.7546 14.3906 24.4941 15.1161L25.7954 16.3924L27.2586 14.9288L28.7219 13.4652L25.0684 10.6536C21.0823 7.58615 21.3831 7.73526 20.021 8.15134C18.7706 8.53312 17.905 8.01209 17.0458 6.36041C15.7245 3.82035 13.2492 2.23156 10.3994 2.09454C9.64151 2.05802 8.86739 2.11189 8.29745 2.24059ZM8.09424 4.40205C5.6335 5.27142 4.13329 7.41525 4.13329 10.0625C4.13329 11.4053 4.41229 11.8903 5.18446 11.8903C5.99689 11.8903 6.21537 11.5284 6.21537 10.1822C6.21537 9.22284 6.2752 8.90936 6.57168 8.31419C6.98519 7.48439 7.68005 6.82688 8.55091 6.44163C9.32614 6.09857 10.8734 6.14841 11.6847 6.54228C13.0134 7.18743 13.7757 8.45871 13.7719 10.0226C13.7699 10.8544 13.7057 11.1146 13.3443 11.758C12.8229 12.6861 11.9973 13.3429 10.9803 13.6386C10.3081 13.8341 10.0711 13.8395 9.09767 13.6814L7.98417 13.5005L7.65492 13.8833C7.05986 14.5752 7.32248 15.332 8.25318 15.6067C11.0773 16.4404 14.0416 15.1427 15.3062 12.5193C16.7109 9.60518 15.4798 6.11273 12.5374 4.66389C11.6851 4.2442 11.4368 4.18853 10.2517 4.15132C9.17873 4.11759 8.76231 4.16604 8.09424 4.40205ZM22.5254 22.58L13.2267 31.8812L14.1634 32.8181L15.1 33.7549L24.4321 24.4211L33.7641 15.0874L32.868 14.183C32.3751 13.6856 31.9387 13.2787 31.898 13.2787C31.8575 13.2787 27.6397 17.4643 22.5254 22.58ZM18.0524 18.0375C14.7262 21.3645 14.7987 21.1078 16.6623 22.9641L17.9482 24.2448L21.1049 21.0853L24.2618 17.9256L22.9743 16.6434C21.1128 14.7893 21.3742 14.7153 18.0524 18.0375ZM25.8554 25.9133C19.4018 32.3692 19.222 32.5635 19.5585 32.7167C19.8812 32.8639 20.4288 32.5189 27.6289 27.6326L35.353 22.3907L34.7766 21.7567C34.4595 21.4079 33.8173 20.7053 33.3494 20.1951L32.4988 19.2677L25.8554 25.9133ZM39.5233 22.1376C39.2592 22.2759 34.6081 25.3971 29.1877 29.0738C22.9864 33.28 19.2167 35.9225 19.0202 36.2008C18.2497 37.2926 19.0403 38.6848 20.431 38.6848C20.8258 38.6848 21.4024 38.3573 23.457 36.9662C38.5381 26.7548 41.4313 24.7592 41.6448 24.4214C41.9496 23.9388 41.9584 23.0198 41.662 22.5966C41.4252 22.2584 40.6889 21.8862 40.2566 21.8862C40.1175 21.8862 39.7876 21.9994 39.5233 22.1376ZM38.0019 29.5927C36.7422 30.4574 33.4181 32.7162 30.615 34.6125C27.812 36.5086 25.5361 38.1189 25.5575 38.1909C25.579 38.2628 25.9534 38.6333 26.3895 39.0141L27.1826 39.7068L29.1613 38.3629C31.3653 36.8658 31.7889 36.7338 32.3007 37.3847C32.7969 38.0155 32.6052 38.5429 31.6428 39.1949C31.2849 39.4373 29.9615 40.3312 28.7019 41.1816C25.9367 43.048 25.787 43.1974 25.787 44.0883C25.787 45.1784 26.6748 45.9252 27.6815 45.6819C28.3388 45.5231 48.5373 31.7562 48.7682 31.3097C49.024 30.8149 49.0212 30.3062 48.7601 29.8011C48.465 29.2304 48.022 28.9666 47.3582 28.9666C46.6905 28.9666 46.7913 28.9046 40.3359 33.29C35.6263 36.4895 35.4668 36.5636 34.8467 35.8424C34.4751 35.4103 34.5035 34.9057 34.9222 34.5029C35.051 34.379 36.7042 33.2312 38.5959 31.9523L42.0355 29.6269L41.3027 28.8456C40.8996 28.4159 40.5073 28.0545 40.431 28.0426C40.3546 28.0306 39.2615 28.7282 38.0019 29.5927ZM40.0105 40.0152C36.1192 42.6558 32.9354 44.8639 32.9354 44.9222C32.9354 44.9804 33.2955 45.3572 33.7357 45.7595L34.536 46.4912L35.5401 45.8022C36.0924 45.4231 39.1991 43.3154 42.4436 41.1181C45.6882 38.9208 48.4209 37.0506 48.5161 36.9622C48.6517 36.8361 48.5157 36.6294 47.8874 36.0077L47.0857 35.2142L40.0105 40.0152ZM51.2935 37.6261C49.8997 38.571 45.2926 41.6922 41.0556 44.562C36.2578 47.8116 33.234 49.9468 33.0396 50.2225C32.2692 51.3149 33.0597 52.7068 34.4504 52.7068C34.8451 52.7068 35.4219 52.3793 37.4763 50.9885C52.1357 41.0643 55.4521 38.7766 55.6642 38.442C55.969 37.9611 55.9777 37.0417 55.6814 36.6186C55.4243 36.2514 54.6981 35.9082 54.1781 35.9082C53.9588 35.9082 52.8795 36.551 51.2935 37.6261ZM46.9806 47.0433L40.205 51.645L41.0261 52.4663L41.8473 53.2877L48.5305 48.754C52.2062 46.2604 55.2137 44.1564 55.2137 44.0781C55.2137 44 54.8857 43.5997 54.485 43.1888L53.7563 42.4415L46.9806 47.0433ZM50.5638 49.8695C44.9907 53.649 40.2905 56.8991 40.1186 57.0919C39.7014 57.5603 39.6845 58.6231 40.0862 59.1337C40.4239 59.5633 41.2123 59.8476 41.7152 59.7214C41.9171 59.6707 46.6964 56.4987 52.3356 52.6725C59.4153 47.8689 62.6505 45.5965 62.788 45.3308C63.0434 44.8369 63.0404 44.3279 62.7795 43.8231C62.4769 43.2378 62.039 42.988 61.3249 42.9932C60.7272 42.9975 60.2027 43.3328 50.5638 49.8695ZM56.5635 56.563L49.2419 63.8869L50.1825 64.8204L51.123 65.754L58.4446 58.43L65.7662 51.1061L64.8256 50.1726L63.8851 49.2389L56.5635 56.563ZM53.9936 54.0483C48.6738 57.6734 47.5967 58.4605 47.7321 58.6239C47.8222 58.7325 48.3129 59.1909 48.8224 59.6428L49.7491 60.4646L55.1528 55.0585C58.1248 52.0852 60.5256 49.6564 60.4877 49.6613C60.4499 49.6661 57.5276 51.6403 53.9936 54.0483ZM64.0973 64.091C63.5421 64.6463 63.8776 65.6438 64.6838 65.8346C64.9886 65.9068 65.1461 65.84 65.496 65.49C65.8493 65.1367 65.9126 64.9853 65.8357 64.6775C65.7838 64.4694 65.6428 64.1898 65.5224 64.0563C65.2226 63.7235 64.4458 63.7424 64.0973 64.091Z" fill="black"/>
</mask>
<g mask="url(#mask0_99_932)">
<path d="M30.5 8L10 28L7.5 28.5L7 31.5L9 35.5L37.5 62L62 45L64 41L30.5 8Z" fill="#EDBC18"/>
</g>
</svg>
