<svg width="63" height="63" viewBox="0 0 63 63" fill="none" xmlns="http://www.w3.org/2000/svg">
<path fill-rule="evenodd" clip-rule="evenodd" d="M13.5675 0.16871C12.9272 0.371695 11.8352 1.50904 11.6388 2.17744C11.5195 2.5838 11.4802 5.62805 11.4802 14.4786V26.2396H8.77023H6.06025L3.25842 27.362C1.68772 27.9913 0.356278 28.603 0.2283 28.7543C0.016568 29.0047 0 29.5796 0 36.6942C0 41.2073 0.050226 44.4586 0.122108 44.5937C0.189293 44.7198 1.05722 45.3655 2.05091 46.0284L3.85748 47.2336H7.66891H11.4802V53.7462C11.4802 58.476 11.5237 60.4066 11.6388 60.7988C11.8506 61.5196 12.9313 62.6065 13.6479 62.8195C14.3816 63.0374 47.9977 63.0515 48.856 62.8342C49.1705 62.7545 49.6681 62.4825 49.9616 62.2298L50.4954 61.7703L51.1378 62.3747C52.1117 63.2909 52.3912 63.2428 53.6178 61.9472C54.1559 61.3789 56.0127 59.4422 57.744 57.6437C59.4754 55.8452 61.1034 54.0411 61.3617 53.6349C61.6202 53.2285 61.9938 52.4339 62.1919 51.869C62.5512 50.8447 62.5523 50.831 62.594 46.7663C62.6328 42.9856 62.6187 42.6704 62.3992 42.411C62.143 42.1079 52.5744 37.7863 52.1597 37.7863C52.0218 37.7863 51.7357 37.8764 51.524 37.9865L51.1391 38.1866V34.6597V31.1327L56.6705 25.8646C59.7127 22.9672 62.3838 20.388 62.6063 20.1332C63.291 19.3488 63.2193 19.1909 61.2829 17.2242C59.5668 15.481 59.2338 15.246 58.715 15.4116C58.5663 15.4591 56.8156 17.0514 54.8245 18.9499L51.2043 22.4018L51.1391 12.3476C51.0775 2.85239 51.0603 2.26587 50.8291 1.79797C50.5084 1.14873 49.5898 0.345321 48.9465 0.151521C48.2402 -0.061305 14.2411 -0.0447724 13.5675 0.16871ZM13.8878 2.41874L13.5675 2.74073V14.4799V26.2192L16.7311 26.2622L19.8947 26.3052L20.7167 26.7536C21.6328 27.2531 22.028 27.6653 22.5384 28.653C22.8336 29.2245 22.8846 29.4873 22.8846 30.4384C22.8846 31.3896 22.8336 31.6524 22.5384 32.2238C22.028 33.2116 21.6328 33.6237 20.7167 34.1233L19.8947 34.5716L16.7311 34.6146L13.5675 34.6577V47.4467V60.2355L13.8878 60.5575L14.2079 60.8796H31.3038C48.3955 60.8796 48.3995 60.8796 48.6684 60.6092C48.8163 60.4604 48.9191 60.2581 48.8967 60.1595C48.8744 60.061 47.6791 58.7509 46.2406 57.2481C43.394 54.2746 43.1096 53.9359 42.5991 52.9117C41.8559 51.4202 41.8371 51.2804 41.7818 46.8399C41.7394 43.4381 41.7627 42.6628 41.9133 42.4582C42.014 42.3215 43.6467 41.5147 45.5415 40.6652L48.9866 39.1207L49.0217 36.127L49.0569 33.1331L48.4346 33.7305C48.0924 34.0591 46.6087 35.475 45.1376 36.8771L42.4627 39.4265L38.6884 41.698C36.6125 42.9474 34.7512 44.0023 34.5522 44.0424C34.0302 44.1473 33.3347 43.4461 33.4394 42.9201C33.4794 42.7186 34.5313 40.8463 35.7769 38.7595L38.0415 34.9652L43.5451 29.7168L49.0488 24.4683L49.0502 13.6046L49.0518 2.74073L48.7315 2.41874L48.4114 2.09661H31.3097H14.2079L13.8878 2.41874ZM24.6564 6.56845C23.4889 7.09999 22.9138 7.93502 22.7024 9.40591C22.6319 9.89625 22.5731 10.3417 22.5717 10.3958C22.5702 10.4498 21.9526 10.4942 21.1992 10.4942H19.8295V11.5439V12.5936H21.0803H22.3311L22.2579 13.0856C22.2176 13.3563 22.1468 13.8606 22.1003 14.2063C22.0258 14.7612 21.9606 14.8635 21.5424 15.0799C20.9132 15.4055 20.425 15.9411 20.1009 16.6612C19.8626 17.1909 19.8349 17.5202 19.8323 19.8606C19.8305 21.5338 19.8863 22.6633 19.9881 23.0097C20.2888 24.0334 21.7524 25.1899 22.7473 25.1899C22.9193 25.1899 22.9604 25.3326 22.9604 25.9292C22.9604 27.0681 23.195 27.6654 23.9344 28.4091C25.2542 29.7366 26.9285 29.7366 28.2484 28.4091C28.9878 27.6654 29.2224 27.0681 29.2224 25.9292V25.1899H31.3097H33.397V25.9292C33.397 27.0681 33.6315 27.6654 34.371 28.4091C35.6908 29.7366 37.3651 29.7366 38.6849 28.4091C39.4243 27.6654 39.6589 27.0681 39.6589 25.9292C39.6589 25.3326 39.7 25.1899 39.8721 25.1899C40.8669 25.1899 42.3305 24.0334 42.6312 23.0097C42.733 22.6633 42.7888 21.5338 42.787 19.8606C42.7844 17.5202 42.7567 17.1909 42.5184 16.6612C42.1943 15.9411 41.7062 15.4055 41.077 15.0799C40.6587 14.8635 40.5935 14.7612 40.519 14.2063C40.4726 13.8606 40.4017 13.3563 40.3614 13.0856L40.2882 12.5936H41.539H42.7899V11.5439V10.4942H41.4201C40.6667 10.4942 40.0491 10.4498 40.0477 10.3958C40.0462 10.3417 39.9874 9.89625 39.917 9.40591C39.7055 7.93502 39.1304 7.09999 37.963 6.56845C37.3994 6.3118 37.1335 6.30117 31.3097 6.30117C25.4858 6.30117 25.2199 6.3118 24.6564 6.56845ZM25.3385 8.48257C24.9889 8.62402 24.8051 9.32495 24.5354 11.5439C24.382 12.8068 24.2292 13.9877 24.196 14.1681C24.1576 14.3764 24.2547 14.2699 24.4617 13.8767C24.8891 13.0652 25.5486 12.4149 26.3892 11.9756C26.973 11.6706 27.2274 11.6201 28.1787 11.6201C29.13 11.6201 29.3844 11.6706 29.9682 11.9756C30.8645 12.4439 31.5314 13.1319 31.9232 13.9928L32.242 14.693H35.3748H38.5078L38.4318 14.2009C38.3901 13.9304 38.2368 12.7346 38.0913 11.5439C37.8094 9.23822 37.6745 8.7219 37.3014 8.52102C37.0612 8.39177 25.6536 8.35517 25.3385 8.48257ZM27.3961 13.7906C27.0351 13.9355 26.4828 14.4156 26.4828 14.5846C26.4828 14.6442 27.2459 14.693 28.1787 14.693C29.1115 14.693 29.8746 14.6442 29.8746 14.5846C29.8746 14.405 29.312 13.9325 28.9203 13.7833C28.4717 13.6123 27.8331 13.6155 27.3961 13.7906ZM22.237 17.1145C21.9194 17.4339 21.9168 17.4568 21.9168 19.9415C21.9168 22.4261 21.9194 22.4491 22.237 22.7684L22.5572 23.0905H31.3097H40.0621L40.3823 22.7684C40.7 22.4491 40.7026 22.4261 40.7026 19.9415C40.7026 17.4568 40.7 17.4339 40.3823 17.1145L40.0621 16.7924H31.3097H22.5572L22.237 17.1145ZM57.8805 18.9286L56.7291 20.0071L57.4924 20.7611L58.2557 21.5151L59.3591 20.3995L60.4625 19.284L59.7472 18.567L59.0318 17.8502L57.8805 18.9286ZM24.0041 19.9415V20.9912H26.0914H28.1787V19.9415V18.8918H26.0914H24.0041V19.9415ZM34.4406 19.9415V20.9912H36.5279H38.6152V19.9415V18.8918H36.5279H34.4406V19.9415ZM52.703 23.8499C51.3747 25.1281 48.0675 28.294 45.3539 30.8852L40.4197 35.5964L41.1453 36.3262L41.8709 37.0561L42.2978 36.6553C43.4093 35.6117 55.5801 24.0349 56.0933 23.533L56.6774 22.9621L55.9673 22.2391C55.5769 21.8414 55.2261 21.5182 55.1877 21.5209C55.1494 21.5236 54.0312 22.5716 52.703 23.8499ZM25.0477 25.9175C25.0477 26.7931 25.4253 27.2893 26.0914 27.2893C26.7575 27.2893 27.135 26.7931 27.135 25.9175V25.1899H26.0914H25.0477V25.9175ZM35.4843 25.9175C35.4843 26.7931 35.8618 27.2893 36.5279 27.2893C37.1941 27.2893 37.5716 26.7931 37.5716 25.9175V25.1899H36.5279H35.4843V25.9175ZM4.20724 29.2264L2.08731 30.0927V36.8088V43.525L3.30056 44.3296L4.51368 45.1342H7.99701H11.4802V39.8857V34.6372H10.8932C10.4839 34.6372 10.3061 34.6915 10.3061 34.8165C10.3061 35.2464 9.34998 36.8743 8.79528 37.3883C8.06876 38.062 6.82277 38.662 5.90318 38.7812L5.21828 38.8699V37.8032C5.21828 36.9038 5.25167 36.7366 5.43144 36.7366C6.81859 36.7366 8.34924 35.1014 8.34924 33.6197C8.34924 33.4015 8.46144 33.0835 8.59855 32.9132L8.84772 32.6034L14.1988 32.5378C19.3464 32.4747 19.5636 32.462 19.9099 32.2017C20.5943 31.6873 20.8079 31.2681 20.8079 30.4384C20.8079 29.6086 20.5943 29.1894 19.9098 28.6752C19.5581 28.4109 19.3945 28.4041 12.9385 28.3825L6.32716 28.3602L4.20724 29.2264ZM29.711 34.2623L27.7864 35.7175L24.1352 35.695L20.484 35.6727L20.1568 36.0018L19.8295 36.331V39.8857V43.4404L20.1497 43.7624L20.4699 44.0845H24.0041H27.5383L27.8584 43.7624C28.1777 43.4414 28.1787 43.4317 28.1787 40.7472V38.0542L30.537 36.2698C32.0997 35.0873 32.8718 34.4239 32.8257 34.3032C32.7311 34.0553 31.7931 32.7993 31.7059 32.8038C31.6672 32.8058 30.7697 33.4621 29.711 34.2623ZM38.4777 38.344C38.1705 38.8672 37.8264 39.4406 37.7127 39.6182C37.5993 39.7958 37.5651 39.9084 37.6368 39.8685C38.5612 39.3532 40.0503 38.4029 40.0503 38.3281C40.0503 38.2151 39.2263 37.3927 39.1131 37.3927C39.0709 37.3927 38.785 37.8207 38.4777 38.344ZM21.9168 39.8857V41.9851H24.0041H26.0914V40.8V39.6147L25.361 40.1694L24.6305 40.724L24.3837 40.4033C24.2479 40.2269 23.9768 39.8542 23.7813 39.5753L23.4259 39.0681L23.7542 38.788C23.9348 38.6339 24.2851 38.3484 24.5326 38.1533L24.9825 37.7986L23.4496 37.7925L21.9168 37.7863V39.8857ZM47.9026 41.886L43.818 43.7301L43.8594 47.1549C43.8971 50.2669 43.9262 50.6469 44.1779 51.3181C44.3303 51.7243 44.6088 52.2845 44.797 52.5629C45.1596 53.0997 52.0367 60.3548 52.1828 60.3548C52.3289 60.3548 59.2059 53.0997 59.5686 52.5629C60.3729 51.3725 60.4565 50.8902 60.5057 47.1571L60.5508 43.7347L56.4208 41.8758C54.1493 40.8534 52.2224 40.0226 52.1389 40.0295C52.0554 40.0363 50.1491 40.8719 47.9026 41.886ZM54.7584 47.332L52.1852 49.9201L51.0744 48.8086L49.9636 47.6972L49.2141 48.4521L48.4647 49.2073L50.1056 50.8447C51.5559 52.2918 51.7978 52.4821 52.1875 52.4821C52.5888 52.4821 52.9072 52.2023 55.7354 49.3647L58.8423 46.2475L58.087 45.4957L57.3316 44.744L54.7584 47.332ZM29.711 46.8587L27.7864 48.3138L24.1352 48.2914L20.484 48.2691L20.1568 48.5982L19.8295 48.9274V52.4821V56.0367L20.1497 56.3587L20.4699 56.6809H24.0041H27.5383L27.8584 56.3587C28.1777 56.0378 28.1787 56.0281 28.1787 53.3436V50.6506L30.537 48.8661C32.0997 47.6836 32.8718 47.0202 32.8257 46.8995C32.7311 46.6517 31.7931 45.3957 31.7059 45.4002C31.6672 45.4021 30.7697 46.0584 29.711 46.8587ZM21.9168 52.4821V54.5815H24.0041H26.0914V53.3963V52.2111L25.361 52.7657L24.6305 53.3204L24.3837 52.9997C24.2479 52.8232 23.9768 52.4506 23.7813 52.1716L23.4259 51.6645L23.7542 51.3843C23.9348 51.2303 24.2851 50.9448 24.5326 50.7497L24.9825 50.395L23.4496 50.3888L21.9168 50.3827V52.4821Z" fill="black"/>
<path fill-rule="evenodd" clip-rule="evenodd" d="M24.655 6.56855C23.4876 7.10009 22.9125 7.93512 22.701 9.40601C22.6306 9.89635 22.5718 10.3418 22.5703 10.3959C22.5689 10.4499 21.9513 10.4943 21.1979 10.4943H19.8281V11.544V12.5937H21.0789H22.3298L22.2566 13.0857C22.2163 13.3564 22.1454 13.8607 22.099 14.2064C22.0245 14.7613 21.9593 14.8636 21.541 15.08C20.9118 15.4056 20.4237 15.9412 20.0996 16.6613C19.8613 17.191 19.8336 17.5203 19.831 19.8607C19.8292 21.5339 19.885 22.6634 19.9868 23.0098C20.2875 24.0335 21.7511 25.19 22.7459 25.19C22.918 25.19 22.9591 25.3327 22.9591 25.9293C22.9591 27.0682 23.1937 27.6655 23.9331 28.4092C25.2529 29.7367 26.9272 29.7367 28.247 28.4092C28.9865 27.6655 29.221 27.0682 29.221 25.9293V25.19H31.3083H33.3956V25.9293C33.3956 27.0682 33.6302 27.6655 34.3696 28.4092C35.6895 29.7367 37.3638 29.7367 38.6836 28.4092C39.423 27.6655 39.6576 27.0682 39.6576 25.9293C39.6576 25.3327 39.6987 25.19 39.8707 25.19C40.8656 25.19 42.3292 24.0335 42.6299 23.0098C42.7317 22.6634 42.7875 21.5339 42.7857 19.8607C42.7831 17.5203 42.7554 17.191 42.5171 16.6613C42.193 15.9412 41.7048 15.4056 41.0756 15.08C40.6574 14.8636 40.5922 14.7613 40.5177 14.2064C40.4712 13.8607 40.4004 13.3564 40.3601 13.0857L40.2869 12.5937H41.5377H42.7885V11.544V10.4943H41.4187C40.6654 10.4943 40.0478 10.4499 40.0463 10.3959C40.0449 10.3418 39.9861 9.89635 39.9156 9.40601C39.7042 7.93512 39.1291 7.10009 37.9616 6.56855C37.3981 6.3119 37.1322 6.30127 31.3083 6.30127C25.4845 6.30127 25.2186 6.3119 24.655 6.56855ZM25.3372 8.48267C24.9876 8.62412 24.8038 9.32505 24.5341 11.544C24.3807 12.8069 24.2279 13.9878 24.1946 14.1682C24.1563 14.3765 24.2534 14.27 24.4604 13.8768C24.8878 13.0653 25.5472 12.415 26.3879 11.9757C26.9717 11.6707 27.2261 11.6202 28.1774 11.6202C29.1287 11.6202 29.383 11.6707 29.9668 11.9757C30.8632 12.444 31.5301 13.132 31.9219 13.9929L32.2407 14.6931H35.3735H38.5064L38.4305 14.201C38.3888 13.9305 38.2355 12.7347 38.09 11.544C37.8081 9.23832 37.6732 8.722 37.3001 8.52112C37.0599 8.39187 25.6522 8.35527 25.3372 8.48267ZM27.3948 13.7907C27.0338 13.9356 26.4814 14.4157 26.4814 14.5847C26.4814 14.6443 27.2446 14.6931 28.1774 14.6931C29.1101 14.6931 29.8733 14.6443 29.8733 14.5847C29.8733 14.4051 29.3106 13.9326 28.919 13.7834C28.4704 13.6124 27.8318 13.6156 27.3948 13.7907ZM22.2357 17.1146C21.918 17.434 21.9154 17.4569 21.9154 19.9416C21.9154 22.4262 21.918 22.4492 22.2357 22.7685L22.5558 23.0906H31.3083H40.0608L40.381 22.7685C40.6986 22.4492 40.7012 22.4262 40.7012 19.9416C40.7012 17.4569 40.6986 17.434 40.381 17.1146L40.0608 16.7925H31.3083H22.5558L22.2357 17.1146ZM24.0027 19.9416V20.9913H26.0901H28.1774V19.9416V18.8919H26.0901H24.0027V19.9416ZM34.4393 19.9416V20.9913H36.5266H38.6139V19.9416V18.8919H36.5266H34.4393V19.9416ZM25.0464 25.9176C25.0464 26.7932 25.4239 27.2894 26.0901 27.2894C26.7562 27.2894 27.1337 26.7932 27.1337 25.9176V25.19H26.0901H25.0464V25.9176ZM35.483 25.9176C35.483 26.7932 35.8605 27.2894 36.5266 27.2894C37.1927 27.2894 37.5703 26.7932 37.5703 25.9176V25.19H36.5266H35.483V25.9176Z" fill="#EDBC18"/>
</svg>
