<svg width="73" height="64" viewBox="0 0 73 64" fill="none" xmlns="http://www.w3.org/2000/svg">
<path fill-rule="evenodd" clip-rule="evenodd" d="M33.5102 0.0973885C27.4557 1.04874 22.811 3.8331 20.8602 7.6807C19.9761 9.42432 20.0117 8.41601 20.0117 31.7544C20.0117 45.9576 19.9584 53.2787 19.8548 53.2787C19.7683 53.2787 19.4183 53.5311 19.0767 53.8395C17.5023 55.2612 17.6633 57.6928 19.4106 58.8777C20.3252 59.4979 22.9279 60.6367 25.0573 61.3483C31.3042 63.4354 38.5721 63.7808 45.2024 62.3053C48.6825 61.5309 53.5374 59.6234 54.6289 58.6017C55.6901 57.6083 56.0168 56.1603 55.4574 54.9295C55.1813 54.3218 54.1694 53.2787 53.8562 53.2787C53.7594 53.2787 53.7043 45.4817 53.7043 31.7544C53.7043 8.41601 53.7399 9.42432 52.8558 7.6807C51.1046 4.22696 47.3513 1.71765 42.0536 0.458828C40.6648 0.128701 39.9223 0.057106 37.4091 0.0103722C35.7638 -0.0201543 34.0093 0.0190268 33.5102 0.0973885ZM34.1028 2.24746C31.6637 2.56342 28.8672 3.45782 26.9645 4.53049C25.3056 5.46595 23.5247 7.24373 22.8388 8.6492C22.1416 10.078 22.0142 11.9374 22.5157 13.3649C23.6817 16.6838 27.5219 19.2719 32.8631 20.3389C34.9656 20.7589 39.0811 20.719 41.2352 20.2579C46.146 19.2066 49.5104 16.9968 50.982 13.8557C51.371 13.0252 51.4214 12.7375 51.4214 11.3442C51.4214 9.97679 51.3679 9.65736 51.0122 8.90522C49.0638 4.78383 43.3553 2.08995 36.7243 2.16265C35.5423 2.17555 34.3626 2.21379 34.1028 2.24746ZM33.3308 4.4375C29.2972 5.16541 26.1709 6.99889 25.0366 9.30175C24.5864 10.2158 24.5486 10.4101 24.6023 11.5318C24.6775 13.1013 25.1042 14.0008 26.3588 15.2355C28.8009 17.6386 33.8342 18.9909 38.6439 18.5362C42.6029 18.1618 45.5362 17.0201 47.4647 15.1029C48.7216 13.8532 49.0604 13.0538 49.0571 11.3442C49.0538 9.63109 48.7669 8.9798 47.4263 7.64277C45.8615 6.08183 43.3706 4.95645 40.3334 4.43797C38.5067 4.12609 35.057 4.12594 33.3308 4.4375ZM33.5508 6.62014C31.075 7.08873 29.2394 7.90319 27.921 9.11764C27.0442 9.92549 26.7817 10.438 26.7817 11.3426C26.7817 13.4774 29.2555 15.2618 33.473 16.1693C34.0157 16.286 35.4561 16.3726 36.858 16.3726C38.2599 16.3726 39.7003 16.286 40.243 16.1693C42.6353 15.6546 44.7788 14.6993 45.886 13.6546C46.8797 12.7169 47.2015 11.325 46.6789 10.2245C46.0514 8.9027 43.7681 7.4807 41.2626 6.85129C39.5139 6.41196 35.3152 6.28608 33.5508 6.62014ZM11.8085 13.3031C9.90978 13.6656 8.50461 15.5406 8.72692 17.4155C8.956 19.3498 10.3701 20.6705 12.3712 20.8189C13.1861 20.8793 13.4428 20.8263 14.1853 20.4439C15.2768 19.8818 15.9916 18.9582 16.2325 17.799C16.7691 15.2155 14.4003 12.8084 11.8085 13.3031ZM11.827 15.6284C10.7557 16.1729 10.5728 17.2839 11.4154 18.1261C11.8181 18.5286 12.0858 18.6611 12.4962 18.6611C13.5859 18.6611 14.3717 17.5749 14.0302 16.5405C13.7117 15.576 12.7299 15.1694 11.827 15.6284ZM22.2159 35.1474V53.1179L23.472 53.7491C24.1628 54.0962 24.8359 54.3802 24.9677 54.3802C25.1807 54.3802 25.2073 52.4657 25.2073 37.0846V19.789L24.5382 19.2771C24.1701 18.9956 23.497 18.4079 23.0425 17.9711L22.2159 17.1769V35.1474ZM50.5528 18.0742C50.0749 18.5269 49.4171 19.1096 49.0908 19.3692L48.4975 19.8412L48.5426 37.1949L48.5874 54.5487L50.0438 53.8403L51.5001 53.1319V35.1883C51.5001 25.3195 51.4823 17.2463 51.4607 17.2481C51.4392 17.2498 51.0305 17.6216 50.5528 18.0742ZM2.60558 21.3949C1.08044 22.1048 0.189323 23.6534 0.379985 25.2628C0.617565 27.2678 2.17041 28.6344 4.19512 28.6207C7.02419 28.6017 8.75999 25.7155 7.49573 23.1328C6.58713 21.2769 4.47332 20.5257 2.60558 21.3949ZM27.4502 38.1927L27.4902 55.3983L28.4708 55.6628C29.01 55.8082 29.6653 55.9742 29.9271 56.0316L30.4029 56.1361V39.0901L30.4027 22.0442L29.1827 21.6228C28.5115 21.391 27.8383 21.1531 27.6864 21.0942C27.4239 20.9926 27.4121 21.8448 27.4502 38.1927ZM44.6914 21.5485L43.3142 22.0442L43.3138 39.0901L43.3131 56.1361L43.7889 56.0316C44.0507 55.9742 44.706 55.8082 45.2453 55.6628L46.2258 55.3983L46.2658 38.2098C46.2878 28.7562 46.2524 21.0285 46.1871 21.0371C46.1217 21.0458 45.4487 21.2758 44.6914 21.5485ZM32.6071 39.5484V56.5383L33.5749 56.6395C34.107 56.695 34.8155 56.7405 35.1493 56.7405H35.7559V39.843V22.9453L35.0868 22.855C34.7187 22.8055 34.0102 22.7184 33.5124 22.6618L32.6071 22.5587V39.5484ZM39.7707 22.6985C39.5109 22.7293 38.9972 22.794 38.6292 22.8418L37.9601 22.929V39.8583V56.7875L39.3909 56.6861C40.1778 56.6303 40.8863 56.5448 40.9654 56.496C41.0504 56.4434 41.1089 49.5153 41.1089 39.5011V22.5949L40.676 22.6185C40.4379 22.6314 40.0305 22.6675 39.7707 22.6985ZM58.7424 22.9815C58.6125 23.013 57.9944 23.1219 57.3687 23.2237C56.7125 23.3305 56.0631 23.5411 55.8337 23.7214C55.3343 24.114 55.3056 24.8248 55.7707 25.2896C56.1248 25.6435 56.3539 25.6424 58.3488 25.2759C60.5563 24.8704 62.1854 25.2158 65.1823 26.7246L67.4497 27.8662H68.8822C70.1354 27.8662 70.4278 27.8107 71.221 27.4212C72.7736 26.6593 73.4467 25.2962 72.6061 24.616C72.05 24.1659 71.5758 24.2567 70.8954 24.9436C69.7629 26.0869 68.5994 26.0214 65.9848 24.6676C63.6507 23.4589 62.3671 23.0676 60.4743 22.9877C59.6517 22.9529 58.8723 22.9502 58.7424 22.9815ZM3.29549 23.4937C2.15294 24.2021 2.31983 25.7854 3.59306 26.3171C4.63343 26.7516 5.69853 26.034 5.73128 24.8767C5.76765 23.5958 4.39129 22.8143 3.29549 23.4937ZM12.6844 25.752C12.0115 25.9476 10.9322 26.915 10.5262 27.6864C10.0806 28.5334 10.0529 30.1221 10.4687 30.9718C11.1273 32.3173 12.4205 33.1284 13.9159 33.1341C14.9907 33.1382 15.6479 32.893 16.4507 32.1887C18.1345 30.711 18.1903 28.3089 16.5781 26.7043C15.5467 25.6778 14.1311 25.3316 12.6844 25.752ZM13.1016 28.0072C12.3465 28.4255 12.1083 29.3266 12.5348 30.151C13.1595 31.3584 14.9616 31.1851 15.4621 29.8693C15.9623 28.5545 14.3747 27.302 13.1016 28.0072ZM57.3255 32.8998C55.9417 33.2095 55.6193 33.3739 55.5053 33.8279C55.3609 34.4027 55.4691 34.7223 55.9223 35.0601C56.3126 35.3512 56.3797 35.3534 57.5293 35.1161C59.0471 34.8028 60.9298 34.7994 62.1139 35.1076C62.6191 35.239 64.0611 35.8587 65.3185 36.4845C67.5933 37.6166 67.6107 37.6221 68.8807 37.6198C69.8728 37.6179 70.3322 37.5373 70.9442 37.2572C71.8218 36.8558 72.5137 36.2624 72.8464 35.6258C73.4694 34.4343 71.8035 33.465 70.9997 34.5514C70.5429 35.1688 69.4952 35.566 68.6232 35.4521C68.2544 35.4039 67.1734 34.9599 66.2209 34.4653C63.5154 33.0606 62.632 32.801 60.3168 32.7306C58.9671 32.6896 58.0273 32.7426 57.3255 32.8998ZM2.496 35.5553C-0.172478 36.5507 -0.87278 40.1116 1.236 41.9621C2.021 42.6508 2.71989 42.9092 3.81269 42.9145C4.96989 42.92 5.94776 42.4796 6.68223 41.622C8.2631 39.776 7.66514 36.8388 5.47811 35.7085C4.80883 35.3627 3.23016 35.2815 2.496 35.5553ZM3.06421 37.6995C2.27196 38.019 1.95283 39.294 2.47758 40.0427C2.61881 40.2442 2.97305 40.5088 3.26479 40.6305C4.26581 41.0486 5.37325 40.2532 5.36617 39.1212C5.35893 37.9713 4.18614 37.247 3.06421 37.6995ZM13.433 41.6751C12.7041 41.9084 11.5177 43.0004 11.1758 43.7527C10.6102 44.9974 10.8631 46.6978 11.7717 47.7588C13.259 49.4953 15.976 49.5347 17.4675 47.8412C18.1508 47.0655 18.4389 46.2652 18.4338 45.1568C18.423 42.735 15.8082 40.9144 13.433 41.6751ZM58.3304 42.4456C55.9982 42.7391 55.2439 43.2078 55.495 44.2078C55.6635 44.8784 56.1851 45.0256 57.5221 44.7792C59.1028 44.4879 61.1407 44.5175 62.2718 44.8481C62.7841 44.9979 64.0995 45.5692 65.195 46.1179C67.3906 47.2175 68.461 47.497 69.7089 47.2962C71.093 47.0737 72.3799 46.2657 72.8171 45.3447C73.0545 44.8446 73.0574 44.7425 72.8456 44.3331C72.646 43.9472 72.2267 43.6912 71.7803 43.6824C71.7207 43.6811 71.348 43.9603 70.9522 44.3027C69.5549 45.5113 68.7449 45.4635 65.8572 44.002C63.7412 42.931 62.912 42.6341 61.4455 42.422C60.2422 42.2481 59.8784 42.2508 58.3304 42.4456ZM13.8361 43.9255C12.942 44.4105 12.8034 45.564 13.5406 46.3884C13.9181 46.8107 14.1108 46.8989 14.6587 46.8989C15.2066 46.8989 15.3993 46.8107 15.7769 46.3884C17.028 44.9889 15.4853 43.031 13.8361 43.9255ZM4.97603 49.1715C2.0336 49.924 0.976847 53.46 3.06941 55.5514C5.90005 58.3803 10.5144 55.6455 9.39637 51.8015C8.86264 49.9668 6.75953 48.7153 4.97603 49.1715ZM5.08828 51.4667C4.47741 51.736 4.04208 52.6108 4.18803 53.2753C4.32375 53.8926 4.92077 54.3922 5.63744 54.4883C6.14267 54.556 6.33885 54.4965 6.74961 54.1511C8.21461 52.9192 6.83794 50.6947 5.08828 51.4667ZM20.4841 55.4817C20.076 55.8895 20.0829 56.4969 20.5006 56.9144C21.1313 57.5447 24.9096 59.1102 27.5072 59.8175C30.399 60.6049 32.1692 60.8454 35.7665 60.9398C39.497 61.0376 41.279 60.8968 44.2852 60.2665C47.4529 59.6021 52.2169 57.83 53.1441 56.9712C53.6292 56.5219 53.6649 55.9144 53.232 55.4817C52.7873 55.0373 52.4463 55.0837 51.0637 55.7767C49.3466 56.637 47.0459 57.4697 44.909 58.0039C37.6495 59.8188 29.0412 58.9848 22.8238 55.864C21.2676 55.0829 20.937 55.029 20.4841 55.4817Z" fill="black"/>
<path fill-rule="evenodd" clip-rule="evenodd" d="M33.5103 0.0973885C27.4558 1.04874 22.8112 3.8331 20.8603 7.6807C19.9763 9.42432 20.0118 8.416 20.0118 31.7544C20.0118 45.9576 19.9585 53.2787 19.8549 53.2787C19.7684 53.2787 19.4184 53.5311 19.0768 53.8395C17.5024 55.2612 17.6634 57.6928 19.4107 58.8777C20.3253 59.4979 22.928 60.6367 25.0574 61.3483C31.3044 63.4354 38.5722 63.7808 45.2025 62.3053C48.6826 61.5309 53.5375 59.6234 54.6291 58.6017C55.6902 57.6083 56.0169 56.1603 55.4575 54.9295C55.1814 54.3218 54.1695 53.2787 53.8563 53.2787C53.7595 53.2787 53.7044 45.4817 53.7044 31.7544C53.7044 8.416 53.74 9.42432 52.8559 7.6807C51.1047 4.22696 47.3515 1.71765 42.0537 0.458828C40.6649 0.128701 39.9224 0.057106 37.4092 0.0103722C35.7639 -0.0201543 34.0094 0.0190268 33.5103 0.0973885ZM34.1029 2.24746C31.6638 2.56342 28.8673 3.45782 26.9646 4.53049C25.3057 5.46595 23.5248 7.24373 22.8389 8.6492C22.1417 10.078 22.0143 11.9374 22.5158 13.3649C23.6818 16.6838 27.522 19.2719 32.8632 20.3389C34.9657 20.7589 39.0812 20.719 41.2353 20.2579C46.1461 19.2066 49.5105 16.9968 50.9821 13.8557C51.3711 13.0252 51.4215 12.7375 51.4215 11.3442C51.4215 9.97679 51.368 9.65736 51.0123 8.90522C49.064 4.78383 43.3554 2.08995 36.7245 2.16265C35.5424 2.17555 34.3627 2.21379 34.1029 2.24746ZM33.3309 4.4375C29.2973 5.16541 26.171 6.99889 25.0368 9.30175C24.5865 10.2158 24.5487 10.4101 24.6024 11.5318C24.6776 13.1013 25.1043 14.0008 26.359 15.2355C28.801 17.6386 33.8343 18.9909 38.644 18.5362C42.603 18.1618 45.5363 17.0201 47.4648 15.1029C48.7217 13.8532 49.0605 13.0538 49.0572 11.3442C49.0539 9.63109 48.767 8.9798 47.4264 7.64277C45.8616 6.08183 43.3707 4.95645 40.3335 4.43797C38.5069 4.12609 35.0571 4.12594 33.3309 4.4375ZM33.5509 6.62014C31.0751 7.08873 29.2395 7.90319 27.9211 9.11764C27.0443 9.92549 26.7818 10.438 26.7818 11.3426C26.7818 13.4774 29.2556 15.2618 33.4731 16.1693C34.0158 16.286 35.4563 16.3726 36.8581 16.3726C38.26 16.3726 39.7004 16.286 40.2431 16.1693C42.6355 15.6546 44.7789 14.6993 45.8862 13.6546C46.8798 12.7169 47.2016 11.325 46.679 10.2245C46.0515 8.9027 43.7682 7.4807 41.2627 6.85129C39.514 6.41196 35.3153 6.28608 33.5509 6.62014ZM22.216 35.1474V53.1179L23.4721 53.7491C24.163 54.0962 24.836 54.3802 24.9678 54.3802C25.1808 54.3802 25.2074 52.4657 25.2074 37.0846V19.789L24.5383 19.2771C24.1702 18.9956 23.4971 18.4079 23.0426 17.9711L22.216 17.1769V35.1474ZM50.5529 18.0742C50.075 18.5269 49.4173 19.1096 49.0909 19.3692L48.4976 19.8412L48.5427 37.1949L48.5875 54.5487L50.0439 53.8403L51.5002 53.1319V35.1883C51.5002 25.3195 51.4824 17.2463 51.4608 17.2481C51.4393 17.2498 51.0306 17.6216 50.5529 18.0742ZM27.4503 38.1927L27.4903 55.3983L28.4709 55.6628C29.0101 55.8082 29.6654 55.9742 29.9272 56.0316L30.403 56.1361V39.0901L30.4028 22.0442L29.1828 21.6228C28.5117 21.391 27.8384 21.1531 27.6865 21.0942C27.424 20.9926 27.4122 21.8448 27.4503 38.1927ZM44.6915 21.5485L43.3143 22.0442L43.3139 39.0901L43.3132 56.1361L43.789 56.0316C44.0509 55.9742 44.7061 55.8082 45.2454 55.6628L46.2259 55.3983L46.2659 38.2098C46.2879 28.7562 46.2525 21.0285 46.1872 21.0371C46.1218 21.0458 45.4488 21.2758 44.6915 21.5485ZM32.6072 39.5484V56.5383L33.575 56.6395C34.1071 56.695 34.8156 56.7405 35.1494 56.7405H35.756V39.843V22.9453L35.0869 22.855C34.7188 22.8055 34.0103 22.7184 33.5125 22.6618L32.6072 22.5587V39.5484ZM39.7708 22.6985C39.511 22.7293 38.9973 22.794 38.6293 22.8418L37.9602 22.929V39.8583V56.7875L39.391 56.6861C40.1779 56.6303 40.8864 56.5448 40.9655 56.496C41.0505 56.4434 41.1091 49.5153 41.1091 39.5011V22.5949L40.6761 22.6185C40.438 22.6314 40.0306 22.6675 39.7708 22.6985ZM20.4842 55.4817C20.0761 55.8895 20.083 56.4969 20.5007 56.9144C21.1314 57.5447 24.9097 59.1102 27.5073 59.8175C30.3991 60.6049 32.1693 60.8454 35.7666 60.9398C39.4972 61.0376 41.2791 60.8968 44.2853 60.2665C47.453 59.6021 52.217 57.83 53.1442 56.9712C53.6293 56.5219 53.665 55.9144 53.2321 55.4817C52.7875 55.0373 52.4464 55.0837 51.0638 55.7767C49.3467 56.637 47.046 57.4697 44.9091 58.0039C37.6496 59.8188 29.0413 58.9848 22.8239 55.864C21.2678 55.0829 20.9371 55.029 20.4842 55.4817Z" fill="#EDBC18"/>
</svg>
