<svg width="67" height="66" viewBox="0 0 67 66" fill="none" xmlns="http://www.w3.org/2000/svg">
<path fill-rule="evenodd" clip-rule="evenodd" d="M40.3134 0.242265C39.87 0.476536 39.2928 1.1115 39.2881 1.37009C39.2802 1.79758 39.0733 1.81379 37.3851 1.51951C35.085 1.11843 29.5714 1.08522 27.3303 1.45898C21.4988 2.43162 16.379 4.704 11.9046 8.30552C10.274 9.61793 7.76285 12.2064 6.52322 13.8523C3.18325 18.2871 1.10579 23.2621 0.252789 28.8689C-0.0338526 30.7525 -0.07032 35.5271 0.187697 37.3664C0.781762 41.6004 2.06322 45.5352 3.95547 48.9362C9.87247 59.5707 21.1845 65.9996 33.2121 65.5636C38.2232 65.3819 42.6798 64.2283 46.9761 62.0007C50.0135 60.4258 52.1545 58.8702 54.6934 56.3934C58.0767 53.0928 60.3927 49.637 62.2148 45.171C62.4081 44.6969 62.4387 44.6781 62.8788 44.7606C64.0047 44.9719 64.9738 44.3777 65.4114 43.2077C65.9431 41.7865 66.7386 37.4642 66.7386 35.997C66.7386 35.6801 66.7974 35.3846 66.8693 35.3401C66.9473 35.2919 67 34.4429 67 33.233C67 31.9153 66.9542 31.2349 66.8693 31.2874C66.7892 31.337 66.7375 31.1248 66.736 30.7395C66.7297 29.1846 66.0282 25.3692 65.3611 23.2612L65.0551 22.2943L65.3697 21.8817C66.2904 20.6745 66.7558 18.6857 66.4927 17.0837C65.9775 13.9474 63.3682 11.6677 60.1682 11.5582L59.1528 11.5235L58.0033 10.2279C53.9658 5.67834 48.5187 2.14807 42.7143 0.319135C41.4331 -0.0845632 40.9607 -0.099728 40.3134 0.242265ZM41.2071 2.02544C41.1591 2.07329 41.1199 3.51591 41.1199 5.23111C41.1199 8.34277 41.1206 8.34997 41.414 8.46893C41.5758 8.53443 42.3028 8.84857 43.0298 9.16691C49.4681 11.9861 54.8203 17.7756 57.1861 24.4796C57.9969 26.7772 58.6347 29.9691 58.6347 31.7291C58.6347 32.6891 58.3683 33.0523 57.664 33.0523C57.0685 33.0523 56.675 32.5657 56.6718 31.8254C56.6678 30.9624 56.3105 28.6805 55.9655 27.3171C54.4585 21.36 50.7741 16.2333 45.4986 12.7531C44.3998 12.0281 41.5646 10.5665 41.2573 10.5665C41.1726 10.5665 41.1199 10.9696 41.1199 11.6171V12.6675L41.7268 12.9277C42.0605 13.0708 42.8791 13.5089 43.5458 13.9015C49.5775 17.4519 53.5471 23.4153 54.527 30.3983C54.7748 32.1645 54.7145 35.5626 54.4061 37.2106L54.2271 38.166L55.1268 38.6191C55.7927 38.9544 56.0434 39.0278 56.0919 38.9014C56.128 38.8075 56.2649 38.0997 56.3962 37.3287C56.6667 35.7413 56.867 35.4055 57.544 35.4055C58.5613 35.4055 58.6988 36.0706 58.1927 38.543C58.0234 39.3699 57.8919 40.0515 57.9004 40.0578C57.9089 40.0641 59.1455 40.6998 60.6484 41.4706C62.7178 42.5319 63.4067 42.8305 63.4872 42.7012C63.6298 42.4718 64.2006 40.0525 64.4373 38.6738C65.2714 33.8158 64.8721 28.2371 63.3509 23.4955C63.1294 22.8049 62.9481 22.12 62.9481 21.9735C62.9481 21.8271 63.1845 21.4213 63.4734 21.072C65.0274 19.193 64.9202 16.5707 63.2199 14.8702C62.1918 13.8419 61.3777 13.5507 59.6389 13.5895L58.3349 13.6187L57.9293 13.1593C55.9398 10.9062 55.3 10.2265 54.2674 9.26914C51.1466 6.37553 46.9306 3.85359 42.9026 2.47058C41.1391 1.86503 41.3199 1.91249 41.2071 2.02544ZM28.4928 3.31066C23.0299 4.00432 17.8089 6.19603 13.3886 9.6514C12.0514 10.6967 9.82136 12.8999 8.7144 14.2694C5.18804 18.6319 2.93295 23.9192 2.15288 29.6533C1.90245 31.4939 1.9397 35.6557 2.22373 37.5625C3.23566 44.359 6.21174 50.2062 11.0781 54.9596C12.8241 56.665 13.9341 57.5605 15.8555 58.8142C19.3527 61.0963 23.5817 62.6702 27.9838 63.3281C30.103 63.6449 34.1771 63.6476 36.3491 63.3338C44.5794 62.1442 51.7229 57.862 56.6855 51.1432C58.3219 48.9277 60.8618 43.9608 60.5156 43.6533C60.4517 43.5966 58.8886 42.7791 57.042 41.8368L53.685 40.1237L53.4639 40.804C53.0956 41.9384 51.9055 44.3475 51.1121 45.565C44.2877 56.0369 30.4569 59.0214 19.9772 52.2837C18.7889 51.5198 18.3768 51.0893 18.3768 50.6122C18.3768 50.2121 18.9255 49.6552 19.3196 49.6552C19.4853 49.6552 20.1058 49.9799 20.6984 50.3768C24.588 52.9814 28.8715 54.1184 33.6696 53.82C42.3963 53.2772 49.9109 46.9853 52.1071 38.3822C54.0643 30.7152 51.3837 22.5682 45.2372 17.5021C38.924 12.2986 30.0184 11.3387 22.8287 15.0866C16.8546 18.2008 12.7644 23.9466 11.8478 30.5121C11.6144 32.1845 11.6671 35.1258 11.9613 36.8464C12.5632 40.3658 14.0993 43.6823 16.4635 46.5669C17.2726 47.5541 17.3781 47.9771 16.9339 48.4539C16.7574 48.6436 16.5123 48.7401 16.2075 48.7401C15.8276 48.7401 15.6518 48.6355 15.1996 48.14C12.9806 45.7099 11.0006 41.7852 10.2262 38.2816C9.31304 34.1503 9.52309 30.1647 10.8657 26.1463C13.6095 17.9343 21.0195 11.9575 29.6884 10.9643C32.2774 10.6677 35.3901 10.8901 37.829 11.5461C38.4991 11.7264 39.0726 11.8738 39.1034 11.8738C39.1341 11.8738 39.1593 10.0835 39.1593 7.89528C39.1593 4.22068 39.1418 3.91137 38.9306 3.84509C38.8048 3.80574 37.996 3.64847 37.1333 3.49552C35.0888 3.13339 30.6395 3.03809 28.4928 3.31066ZM43.6034 5.33726C43.2937 5.64696 43.2644 6.21421 43.5377 6.60457C43.6454 6.75844 43.9929 6.9833 44.3097 7.10423C44.8067 7.29405 44.9364 7.30006 45.2545 7.1475C46.0448 6.76864 46.0005 5.76005 45.175 5.33883C44.5178 5.0035 43.9376 5.00298 43.6034 5.33726ZM30.9828 15.3887C30.0188 15.8266 29.2255 17.0431 29.2255 18.0836C29.2255 19.1241 30.0188 20.3405 30.9828 20.7785C32.2125 21.3371 33.8487 20.8706 34.6477 19.7334C35.0099 19.2181 35.042 19.0834 35.042 18.0836C35.042 17.0862 35.0091 16.9473 34.6491 16.428C33.8675 15.3003 32.2109 14.8307 30.9828 15.3887ZM58.7533 15.7078C57.8948 16.161 57.4164 16.9195 57.3561 17.9229C57.3159 18.5929 57.3629 18.8414 57.6216 19.3255C58.4264 20.8317 60.4845 21.2385 61.7807 20.1476C62.9302 19.1803 63.0249 17.3524 61.9851 16.208C61.226 15.3723 59.8049 15.1524 58.7533 15.7078ZM31.5666 17.3477C30.9208 17.8707 31.3357 19.0641 32.1633 19.0641C32.6629 19.0641 33.1468 18.5817 33.1468 18.0836C33.1468 17.2747 32.2007 16.8342 31.5666 17.3477ZM59.5046 17.6037C59.2208 17.9173 59.2301 18.3172 59.5273 18.5862C60.0077 19.0212 60.726 18.72 60.726 18.0836C60.726 17.4357 59.9371 17.1257 59.5046 17.6037ZM41.6655 21.4583C41.1793 21.976 41.2902 22.4254 42.0975 23.2073C42.9292 24.0132 43.4762 24.1273 43.9727 23.5986C44.4643 23.0752 44.3497 22.626 43.5261 21.8469C42.6806 21.0473 42.1549 20.9374 41.6655 21.4583ZM20.6841 22.0612C19.8469 22.9391 19.755 23.3305 20.2662 23.8416C20.7882 24.3639 21.252 24.2729 21.9889 23.5038C22.3361 23.1416 22.6694 22.757 22.7298 22.6491C22.8951 22.3535 22.7057 21.7043 22.3893 21.4827C21.8508 21.1054 21.4735 21.2334 20.6841 22.0612ZM30.7257 23.3766C29.3114 23.5845 27.5407 24.261 27.137 24.7476C26.8864 25.0495 26.9175 25.6812 27.198 25.9911C27.5036 26.3288 28.1656 26.3336 28.8138 26.0029C30.3875 25.1998 32.8652 25.0534 34.6486 25.658C37.1821 26.5169 39.0351 28.3614 39.8842 30.8696C40.1882 31.7679 40.2473 32.1631 40.2499 33.3138C40.2549 35.6102 39.5308 37.3802 37.9184 39.0126C33.9837 42.996 27.4755 41.9256 24.9284 36.8762C23.7573 34.5543 23.8831 31.5331 25.2477 29.219C25.7797 28.3168 25.8088 27.9236 25.3755 27.4903C24.6718 26.7864 23.9519 27.2532 23.1408 28.9395C22.3588 30.5659 22.1235 31.7794 22.2052 33.7657C22.2529 34.9257 22.3561 35.7216 22.5277 36.2552C23.6204 39.652 26.3106 42.2269 29.6924 43.1129C31.0816 43.4767 33.2354 43.4793 34.6617 43.1188C41.2308 41.4581 44.3037 33.8832 40.7743 28.0504C40.1446 27.0096 38.5417 25.4037 37.5083 24.7783C35.4866 23.5547 33.0042 23.0416 30.7257 23.3766ZM30.3755 27.5526C29.2908 27.8994 28.5749 28.3629 27.7543 29.2493C25.4775 31.709 25.5508 35.2808 27.927 37.6573C30.8983 40.6292 35.8203 39.7584 37.6983 35.9284C38.1709 34.9644 38.179 34.9216 38.179 33.3791C38.179 31.8432 38.1691 31.7898 37.7049 30.8299C36.8988 29.1627 35.7566 28.1326 34.0915 27.5717C33.0578 27.2233 31.4311 27.215 30.3755 27.5526ZM30.71 29.5333C28.549 30.3645 27.4952 32.9354 28.4604 35.022C29.6839 37.667 33.2586 38.2916 35.1553 36.1918C36.2094 35.0251 36.5408 33.5392 36.0788 32.0531C35.7532 31.0062 34.5776 29.8089 33.5565 29.4841C32.64 29.1926 31.5465 29.2116 30.71 29.5333ZM15.69 30.6842C14.5748 31.1908 13.7797 32.6532 13.9951 33.8015C14.1957 34.8707 14.7667 35.5966 15.7627 36.0482C16.5826 36.42 17.3891 36.3964 18.2324 35.9761C20.4706 34.8606 20.3817 31.5995 18.0869 30.6407C17.4347 30.3683 16.342 30.388 15.69 30.6842ZM45.9617 30.8538C44.2228 31.9112 44.0159 34.2459 45.5453 35.5552C46.7257 36.5658 48.2667 36.5678 49.3842 35.5601C50.448 34.601 50.6912 33.2811 50.0407 31.9981C49.5113 30.9539 48.8249 30.5199 47.6144 30.4637C46.7433 30.4234 46.6231 30.4518 45.9617 30.8538ZM6.45479e-07 33.3791C0.000131353 34.5296 0.0201296 34.9827 0.0444412 34.3862C0.0686221 33.7895 0.0684914 32.8482 0.0440491 32.2945C0.0196068 31.7406 -0.000130062 32.2287 6.45479e-07 33.3791ZM16.2855 32.6601C15.8607 33.085 15.8921 33.6406 16.3648 34.0655C16.7716 34.431 17.0669 34.437 17.5096 34.0886C18.2002 33.5453 17.8131 32.3987 16.939 32.3987C16.7211 32.3987 16.4307 32.5149 16.2855 32.6601ZM46.7998 32.7196C46.1682 33.3512 46.561 34.2812 47.4592 34.2812C48.3317 34.2812 48.7186 33.4424 48.1686 32.7431C47.8145 32.2928 47.2364 32.2828 46.7998 32.7196ZM61.1657 36.6014C60.8147 36.775 60.6294 37.1774 60.5196 38.0052C60.4423 38.5883 60.4678 38.6888 60.7698 38.9909C61.6084 39.8297 62.5528 39.0329 62.5552 37.4848C62.5563 36.7561 61.811 36.2822 61.1657 36.6014ZM20.6391 42.6041C20.2118 42.7657 19.9002 43.3134 20.0029 43.7227C20.1191 44.1859 21.2302 45.3111 21.6739 45.4151C21.9589 45.4819 22.109 45.4195 22.4255 45.103C22.643 44.8855 22.8209 44.5875 22.8209 44.4408C22.8209 44.0685 21.7908 42.8434 21.3176 42.6532C21.0787 42.5573 20.8137 42.5381 20.6391 42.6041ZM42.9498 42.8148C42.842 42.8551 42.4449 43.1879 42.0675 43.5545C41.2743 44.3249 41.1819 44.7613 41.7022 45.2816C42.1648 45.7444 42.5744 45.6872 43.3013 45.0588C44.1134 44.3567 44.2477 44.1726 44.2527 43.7541C44.2603 43.1283 43.5268 42.5995 42.9498 42.8148ZM31.5895 45.7514C29.8208 46.0772 28.7522 48.0897 29.4774 49.7293C29.8176 50.4988 30.1783 50.9067 30.8002 51.2258C31.9125 51.7964 33.135 51.6601 34.068 50.8615C34.7572 50.2715 35.1008 49.5343 35.1045 48.6378C35.1125 46.7113 33.5124 45.3971 31.5895 45.7514ZM31.4571 48.0387C31.1064 48.4846 31.115 48.7735 31.4923 49.2122C32.0972 49.9156 33.1468 49.5241 33.1468 48.5948C33.1468 47.734 31.995 47.3549 31.4571 48.0387Z" fill="black"/>
<path fill-rule="evenodd" clip-rule="evenodd" d="M31.1295 15.3335C30.1684 15.7704 29.3775 16.9838 29.3775 18.0218C29.3775 19.0597 30.1684 20.2732 31.1295 20.71C32.3555 21.2673 33.9868 20.802 34.7834 19.6675C35.1445 19.1535 35.1766 19.0191 35.1766 18.0218C35.1766 17.0269 35.1438 16.8883 34.7849 16.3703C34.0056 15.2454 32.3539 14.7769 31.1295 15.3335ZM31.7116 17.2877C31.0677 17.8095 31.4813 18.9998 32.3065 18.9998C32.8046 18.9998 33.287 18.5186 33.287 18.0218C33.287 17.2149 32.3438 16.7755 31.7116 17.2877ZM41.7803 21.3881C41.2955 21.9046 41.4062 22.3529 42.211 23.1329C43.0402 23.9367 43.5856 24.0506 44.0807 23.5232C44.5708 23.001 44.4565 22.553 43.6354 21.7759C42.7924 20.9781 42.2682 20.8686 41.7803 21.3881ZM20.8615 21.9896C20.0268 22.8653 19.9352 23.2557 20.4448 23.7656C20.9653 24.2866 21.4277 24.1959 22.1624 23.4287C22.5085 23.0673 22.8409 22.6836 22.9011 22.576C23.0659 22.2812 22.8771 21.6336 22.5616 21.4125C22.0247 21.0362 21.6486 21.1638 20.8615 21.9896ZM30.8731 23.3018C29.4631 23.5091 27.6977 24.184 27.2951 24.6694C27.0453 24.9705 27.0763 25.6006 27.356 25.9098C27.6607 26.2467 28.3207 26.2515 28.967 25.9216C30.536 25.1205 33.0063 24.9744 34.7843 25.5775C37.3103 26.4343 39.1578 28.2743 40.0043 30.7763C40.3075 31.6723 40.3664 32.0666 40.369 33.2144C40.3739 35.5052 39.652 37.2708 38.0444 38.8992C34.1214 42.8728 27.6326 41.805 25.0931 36.7681C23.9255 34.4519 24.051 31.4381 25.4115 29.1297C25.9419 28.2298 25.971 27.8375 25.539 27.4054C24.8373 26.7031 24.1195 27.1688 23.3109 28.8509C22.5312 30.4734 22.2966 31.6838 22.3781 33.6652C22.4257 34.8224 22.5285 35.6163 22.6996 36.1486C23.789 39.537 26.4712 42.1056 29.843 42.9893C31.228 43.3523 33.3753 43.3549 34.7974 42.9952C41.3469 41.3386 44.4107 33.7825 40.8918 27.964C40.2639 26.9258 38.6659 25.3239 37.6356 24.7C35.6198 23.4794 33.1448 22.9675 30.8731 23.3018ZM30.524 27.4674C29.4425 27.8134 28.7287 28.2757 27.9106 29.16C25.6406 31.6136 25.7137 35.1765 28.0828 37.5473C31.0453 40.5118 35.9525 39.6432 37.8249 35.8226C38.2961 34.861 38.3042 34.8183 38.3042 33.2796C38.3042 31.7474 38.2943 31.6942 37.8316 30.7366C37.0279 29.0735 35.889 28.0461 34.2289 27.4865C33.1982 27.1389 31.5764 27.1307 30.524 27.4674ZM30.8575 29.4433C28.7029 30.2724 27.6523 32.837 28.6146 34.9185C29.8345 37.5569 33.3985 38.18 35.2896 36.0854C36.3405 34.9215 36.671 33.4392 36.2103 31.9569C35.8857 30.9126 34.7136 29.7182 33.6955 29.3942C32.7818 29.1034 31.6915 29.1223 30.8575 29.4433ZM15.8823 30.5914C14.7704 31.0967 13.9777 32.5555 14.1924 33.701C14.3925 34.7675 14.9617 35.4916 15.9547 35.942C16.7722 36.3129 17.5763 36.2895 18.4171 35.8702C20.6486 34.7574 20.56 31.5044 18.272 30.5479C17.6218 30.2762 16.5323 30.2959 15.8823 30.5914ZM46.0637 30.7605C44.33 31.8153 44.1237 34.1442 45.6485 35.4503C46.8254 36.4585 48.3619 36.4604 49.476 35.4552C50.5366 34.4984 50.7792 33.1818 50.1306 31.902C49.6028 30.8604 48.9183 30.4274 47.7115 30.3714C46.843 30.3312 46.7231 30.3595 46.0637 30.7605ZM16.476 32.5624C16.0525 32.9862 16.0837 33.5404 16.5551 33.9643C16.9607 34.3289 17.255 34.3349 17.6964 33.9874C18.385 33.4454 17.999 32.3016 17.1276 32.3016C16.9104 32.3016 16.6208 32.4175 16.476 32.5624ZM46.8993 32.6217C46.2696 33.2517 46.6612 34.1794 47.5568 34.1794C48.4267 34.1794 48.8124 33.3427 48.264 32.6452C47.911 32.1959 47.3346 32.186 46.8993 32.6217ZM20.8166 42.4818C20.3906 42.643 20.0799 43.1894 20.1824 43.5977C20.2982 44.0597 21.4059 45.1822 21.8484 45.2859C22.1324 45.3525 22.2822 45.2903 22.5977 44.9746C22.8145 44.7576 22.9919 44.4604 22.9919 44.314C22.9919 43.9426 21.9649 42.7206 21.4931 42.5308C21.2549 42.4351 20.9907 42.4159 20.8166 42.4818ZM43.0608 42.692C42.9533 42.7322 42.5574 43.0642 42.1812 43.4299C41.3903 44.1984 41.2981 44.6337 41.8169 45.1527C42.2781 45.6144 42.6866 45.5574 43.4112 44.9305C44.2209 44.2301 44.3549 44.0464 44.3598 43.629C44.3674 43.0047 43.636 42.4772 43.0608 42.692ZM31.7344 45.6214C29.9709 45.9464 28.9056 47.9539 29.6286 49.5895C29.9678 50.3571 30.3273 50.7639 30.9474 51.0823C32.0564 51.6515 33.2753 51.5155 34.2055 50.7188C34.8926 50.1303 35.2352 49.3949 35.2389 48.5007C35.2468 46.5789 33.6515 45.268 31.7344 45.6214ZM31.6024 47.903C31.2527 48.3479 31.2613 48.6361 31.6374 49.0736C32.2405 49.7753 33.287 49.3847 33.287 48.4578C33.287 47.599 32.1386 47.2209 31.6024 47.903Z" fill="#EDBC18"/>
</svg>
