<svg width="56" height="61" viewBox="0 0 56 61" fill="none" xmlns="http://www.w3.org/2000/svg">
<path fill-rule="evenodd" clip-rule="evenodd" d="M53.2796 0.303819C51.0776 0.812267 49.5316 1.38306 48.707 1.99183C48.1756 2.38415 47.6479 3.30441 47.4957 4.10438L47.358 4.82828L37.2538 14.9338C29.1371 23.0518 27.1498 25.1009 27.1498 25.3525C27.1498 25.8288 27.4267 26.1207 27.8783 26.1207C28.2385 26.1207 29.1563 25.2394 38.2317 16.1772L48.1896 6.23358L48.9528 7.00256L49.7161 7.77154L39.8969 17.5689C34.4965 22.9574 29.9988 27.5145 29.9022 27.696C29.7 28.0758 29.8251 28.5701 30.1556 28.6968C30.8437 28.9604 30.6113 29.1724 41.1312 18.6807L51.2523 8.58682L51.9231 8.44853C53.0772 8.21066 53.8894 7.56331 54.4721 6.41683C55.0033 5.37164 55.9586 1.84031 55.9987 0.77356C56.0317 -0.100391 55.4584 -0.199484 53.2796 0.303819ZM53.5828 1.84986C52.5426 2.10366 50.6194 2.721 50.1947 2.93731C49.6073 3.23655 49.1349 3.81322 49.0331 4.3556C48.9532 4.78075 48.9846 4.82816 50.0572 5.89919C51.1297 6.97035 51.1772 7.00171 51.603 6.92184C52.1483 6.81969 52.7238 6.34799 53.0269 5.75466C53.2997 5.22061 53.827 3.61087 54.0125 2.74598C54.0847 2.40914 54.173 2.03702 54.2088 1.91919C54.2811 1.68132 54.2758 1.68083 53.5828 1.84986ZM23.6626 26.0858C23.465 26.1447 23.0156 26.4768 22.664 26.8236L22.0245 27.4541L21.6472 27.1755C21.1871 26.8359 20.1448 26.7219 19.4667 26.9372C19.0837 27.0589 17.2377 28.8362 9.81582 36.2297C4.76841 41.2578 0.496574 45.6105 0.322889 45.9024C-0.0308586 46.497 -0.107275 47.4864 0.160121 48.0113C0.371217 48.4255 12.5314 60.5933 12.9629 60.8219C13.4269 61.0679 14.5157 61.0571 15.0265 60.8016C15.5468 60.5413 33.4335 42.7412 33.9095 42.01C34.2947 41.4184 34.3885 40.5161 34.1355 39.8372C34.0648 39.6476 32.7569 38.2409 31.229 36.7114L28.451 33.9304L29.1406 33.2084C29.9272 32.385 30.0946 31.879 29.8522 31.0596C29.732 30.6534 29.2897 30.1342 27.6591 28.485C25.2295 26.0276 24.7738 25.7541 23.6626 26.0858ZM23.62 28.0733L23.1054 28.5968L25.2229 30.7088L27.3403 32.8207L27.8708 32.2808C28.2524 31.8925 28.3806 31.6756 28.3274 31.508C28.2253 31.1871 24.5379 27.5498 24.3146 27.5498C24.2155 27.5498 23.9029 27.7853 23.62 28.0733ZM10.8199 37.5507C4.75602 43.6061 1.51415 46.928 1.51415 47.0861C1.51415 47.417 13.6303 59.5192 13.9614 59.5192C14.1134 59.5192 15.8305 57.8947 18.6414 55.0916L23.0812 50.664L22.4591 49.8552C21.4368 48.5262 21.0169 47.3158 21.0169 45.6977C21.0169 45.2437 21.1002 44.553 21.2019 44.163C21.5879 42.6829 21.9328 42.1867 24.0805 40.0209C25.824 38.2628 26.1828 37.9576 26.648 37.8368C27.8392 37.5275 28.3646 37.8096 30.4952 39.9025L32.1846 41.5621L32.4424 41.3047C33.0431 40.7048 33.1294 40.8086 26.7052 34.4056C23.408 31.1193 20.5788 28.3917 20.4179 28.3441C20.1558 28.2668 19.1647 29.2175 10.8199 37.5507ZM25.8431 40.4358L24.6921 41.563L25.3628 42.2425C26.1678 43.058 26.5311 43.8026 26.5311 44.6369C26.5311 45.5821 26.1706 46.1994 24.8154 47.5747L23.592 48.8162L23.9333 49.1428L24.2747 49.4694L27.6429 46.1043L31.0111 42.7392L29.2967 41.0238C28.0449 39.7713 27.5031 39.3086 27.2883 39.3086C27.0825 39.3086 26.6482 39.6474 25.8431 40.4358ZM9.32199 41.615C9.21037 41.7382 9.11899 41.9986 9.11899 42.1938C9.11899 42.4932 9.55529 42.9843 11.9124 45.3382C14.3424 47.7647 14.7549 48.1278 15.0825 48.1278C15.5447 48.1278 15.8652 47.7989 15.8652 47.3249C15.8652 47.0255 15.4289 46.5345 13.0718 44.1805C10.6418 41.754 10.2293 41.3909 9.90168 41.3909C9.69254 41.3909 9.43472 41.4905 9.32199 41.615ZM23.3059 43.1835C22.7665 44.0103 22.5756 44.8229 22.6341 46.0446C22.6631 46.6478 22.7265 47.1811 22.7752 47.2297C22.8855 47.3399 24.5291 45.7361 24.7671 45.2861C25.1282 44.6032 24.9333 43.9847 24.1046 43.1835L23.6148 42.7101L23.3059 43.1835ZM7.11414 43.8198C6.6522 44.3294 6.78467 44.5127 9.76393 47.4857C12.0151 49.7322 12.6836 50.3326 12.934 50.3326C13.3404 50.3326 13.6574 49.9821 13.6574 49.5328C13.6574 49.2378 13.2082 48.731 10.8704 46.3884C8.42352 43.9365 8.03665 43.5957 7.70032 43.5957C7.48481 43.5957 7.22821 43.6938 7.11414 43.8198ZM5.31657 45.7733C4.96798 45.8854 4.70328 46.2067 4.70328 46.5177C4.70328 46.7606 5.31952 47.4472 7.49376 49.6269C9.02859 51.1655 10.4089 52.4558 10.5611 52.4943C11.0005 52.6054 11.4495 52.2382 11.4495 51.768C11.4495 51.414 11.1513 51.0758 8.65902 48.6023C7.12419 47.079 5.78574 45.8061 5.68455 45.7734C5.58335 45.7408 5.41777 45.7407 5.31657 45.7733Z" fill="black"/>
<path fill-rule="evenodd" clip-rule="evenodd" d="M53.2792 0.303819C51.0772 0.812267 49.5312 1.38306 48.7066 1.99183C48.1752 2.38415 47.6475 3.30441 47.4953 4.10438L47.3576 4.82828L37.2534 14.9338C29.1367 23.0518 27.1494 25.1009 27.1494 25.3525C27.1494 25.8288 27.4263 26.1207 27.8779 26.1207C28.2381 26.1207 29.1559 25.2394 38.2313 16.1772L48.1892 6.23358L48.9524 7.00256L49.7157 7.77154L39.8965 17.5689C34.4961 22.9574 29.9984 27.5145 29.9018 27.696C29.6996 28.0758 29.8247 28.5701 30.1552 28.6968C30.8433 28.9604 30.6108 29.1724 41.1308 18.6807L51.2519 8.58682L51.9227 8.44853C53.0768 8.21066 53.889 7.56331 54.4716 6.41683C55.0029 5.37164 55.9581 1.84031 55.9983 0.77356C56.0313 -0.100391 55.4579 -0.199484 53.2792 0.303819ZM53.5824 1.84986C52.5422 2.10366 50.6189 2.721 50.1943 2.93731C49.6069 3.23655 49.1345 3.81322 49.0327 4.3556C48.9527 4.78075 48.9841 4.82816 50.0568 5.89919C51.1293 6.97035 51.1768 7.00171 51.6025 6.92184C52.1479 6.81969 52.7234 6.34799 53.0265 5.75466C53.2993 5.22061 53.8266 3.61087 54.012 2.74598C54.0843 2.40914 54.1726 2.03702 54.2084 1.91919C54.2807 1.68132 54.2754 1.68083 53.5824 1.84986Z" fill="#EDBC18"/>
</svg>
