<svg width="63" height="63" viewBox="0 0 63 63" fill="none" xmlns="http://www.w3.org/2000/svg">
<path fill-rule="evenodd" clip-rule="evenodd" d="M14.0644 0.0987938C13.2741 0.285758 12.1205 0.964854 11.5589 1.57392C11.2735 1.88353 10.8588 2.51903 10.6375 2.98587L10.2351 3.8349L10.1985 11.3299L10.1619 18.825L7.57805 21.4343C4.17796 24.8682 3.17327 26.4044 2.38065 29.382C2.11708 30.372 2.10882 30.6683 2.06648 40.5986L2.02299 50.7984H1.01156H0V56.8992V63H11.1887H22.3774V56.8992V50.7984H21.3602H20.3431L20.3444 49.305C20.3461 47.0836 20.2167 47.2735 24.939 42.5706L28.9253 38.6007L44.0621 38.5669L59.199 38.5332L60.1597 38.0585C61.3169 37.4868 62.0376 36.7508 62.5976 35.5693L63 34.7202V19.2776V3.8349L62.5976 2.98587C62.0376 1.80435 61.3169 1.06831 60.1597 0.496617L59.1989 0.0218983L36.8785 0.00207071C23.6875 -0.0097496 14.3561 0.0299056 14.0644 0.0987938ZM14.2402 2.15807C13.6161 2.35469 12.5518 3.4564 12.3605 4.10385C12.1369 4.86009 12.1369 33.695 12.3605 34.4513C12.5833 35.2054 13.622 36.2112 14.4024 36.4288C15.6738 36.7832 17.109 36.357 18.4882 35.2153L19.2399 34.5931L17.3846 34.5296C15.3717 34.4607 15.1637 34.3913 14.5659 33.5909C14.3049 33.2414 14.3037 33.181 14.3037 19.2901V5.34027L14.6463 4.89148C15.3658 3.9484 13.4811 4.01958 36.7888 4.05618C57.6902 4.0891 57.7051 4.08923 58.056 4.35118C58.2491 4.49531 58.525 4.77112 58.6692 4.96419C58.9302 5.31371 58.9314 5.37396 58.9314 19.2776C58.9314 33.1812 58.9302 33.2414 58.6692 33.5909C58.525 33.784 58.2491 34.0598 58.056 34.2039C57.7072 34.4644 57.6162 34.4663 44.1271 34.4995L30.5492 34.533L30.4813 35.3256C30.4441 35.7616 30.3729 36.2184 30.3233 36.3408C30.2377 36.5517 30.954 36.5632 44.3132 36.5632C54.9964 36.5632 58.5196 36.5259 58.9166 36.4086C59.615 36.2023 60.6683 35.1494 60.8747 34.4513C61.0951 33.7052 61.0984 4.85793 60.8781 4.12266C60.7949 3.84532 60.4796 3.34341 60.1773 3.00723C59.183 1.90171 61.2698 1.9903 36.5631 2.00491C21.0008 2.01419 14.5568 2.05842 14.2402 2.15807ZM16.2745 11.1432V16.2272H18.3088H20.3431V11.1432V6.05915H18.3088H16.2745V11.1432ZM22.3774 11.1432V16.2272H24.4117H26.446V11.1432V6.05915H24.4117H22.3774V11.1432ZM28.4803 11.1432V16.2272H30.5146H32.5489V11.1432V6.05915H30.5146H28.4803V11.1432ZM34.5832 11.1432V16.2272H36.6176H38.6519V11.1432V6.05915H36.6176H34.5832V11.1432ZM40.6862 11.1432V16.2272H42.7205H44.7548V11.1432V6.05915H42.7205H40.6862V11.1432ZM46.7891 11.1432V16.2272H48.8234H50.8577V11.1432V6.05915H48.8234H46.7891V11.1432ZM52.892 11.1432V16.2272H54.9263H56.9606V11.1432V6.05915H54.9263H52.892V11.1432ZM16.2745 19.2776V20.2944H36.6176H56.9606V19.2776V18.2608H36.6176H16.2745V19.2776ZM8.25268 23.6886C5.82512 26.1491 5.21139 27.0805 4.48463 29.4078L4.1355 30.5259L4.0971 40.6622L4.05857 50.7984H11.1837H18.3088L18.3103 49.305C18.3118 47.7232 18.4653 46.9101 18.9395 45.9686C19.1338 45.5831 20.6714 43.9468 23.6575 40.9481C26.6244 37.9688 28.1523 36.3435 28.2839 36.0271C28.578 35.3195 28.529 34.6517 28.1264 33.8812C27.4964 32.6758 25.9699 32.162 24.7296 32.7376C24.4498 32.8675 23.0481 33.9841 21.6145 35.2188C18.802 37.6416 17.9343 38.1866 16.427 38.4777C14.028 38.941 11.7745 37.8466 10.7147 35.7039L10.2351 34.7341L10.1715 28.2712L10.108 21.8081L8.25268 23.6886ZM16.2745 27.412V32.496H18.3088H20.3431V27.412V22.328H18.3088H16.2745V27.412ZM22.3774 27.1002V31.8724L22.8542 31.491C23.5901 30.9021 24.4596 30.5759 25.503 30.4969L26.446 30.4256V26.3769V22.328H24.4117H22.3774V27.1002ZM28.4803 26.7583V31.1886L29.1342 31.8423L29.7881 32.496H31.1685H32.5489V27.412V22.328H30.5146H28.4803V26.7583ZM34.5832 27.412V32.496H36.6176H38.6519V27.412V22.328H36.6176H34.5832V27.412ZM40.6862 27.412V32.496H42.7205H44.7548V27.412V22.328H42.7205H40.6862V27.412ZM46.7891 27.412V32.496H48.8234H50.8577V27.412V22.328H48.8234H46.7891V27.412ZM52.892 27.412V32.496H54.9263H56.9606V27.412V22.328H54.9263H52.892V27.412ZM38.6519 46.2195V51.8086L36.741 51.8437L34.8303 51.8787L38.2067 57.2805C40.0637 60.2515 41.6372 62.6822 41.7033 62.6822C41.7694 62.6822 43.343 60.2515 45.1999 57.2805L48.5764 51.8787L46.6656 51.8437L44.7548 51.8086V49.2699V46.7312H43.7376H42.7205V50.29V53.8488H43.8012C44.3956 53.8488 44.8819 53.8773 44.8819 53.9121C44.8819 54.0767 41.8089 58.8692 41.7033 58.8692C41.5978 58.8692 38.5247 54.0767 38.5247 53.9121C38.5247 53.8773 39.011 53.8488 39.6054 53.8488H40.6862V47.2396V40.6304H39.669H38.6519V46.2195ZM52.468 46.3156L49.0711 51.7516L50.9816 51.7867L52.892 51.8218V54.3605V56.8992H53.9092H54.9263V53.3404V49.7816H53.8456C53.2512 49.7816 52.7649 49.7531 52.7649 49.7183C52.7649 49.5537 55.838 44.7611 55.9435 44.7611C56.049 44.7611 59.1221 49.5537 59.1221 49.7183C59.1221 49.7531 58.6358 49.7816 58.0414 49.7816H56.9606V56.3908V63H57.9778H58.995V57.4109V51.8218L60.9058 51.7867L62.8165 51.7516L59.4406 46.3499C57.5838 43.3789 56.0196 40.9328 55.9647 40.9138C55.9098 40.895 54.3363 43.3258 52.468 46.3156ZM42.7205 43.6808V44.6976H43.7376H44.7548V43.6808V42.664H43.7376H42.7205V43.6808ZM2.03431 56.8992V60.9664H11.1887H20.3431V56.8992V52.832H11.1887H2.03431V56.8992ZM52.892 59.9496V60.9664H53.9092H54.9263V59.9496V58.9328H53.9092H52.892V59.9496Z" fill="black"/>
<path fill-rule="evenodd" clip-rule="evenodd" d="M38.6517 46.2195V51.8086L36.7408 51.8437L34.8301 51.8787L38.2065 57.2805C40.0635 60.2515 41.637 62.6822 41.7031 62.6822C41.7692 62.6822 43.3428 60.2515 45.1997 57.2805L48.5762 51.8787L46.6654 51.8437L44.7546 51.8086V49.2699V46.7312H43.7374H42.7203V50.29V53.8488H43.801C44.3954 53.8488 44.8817 53.8773 44.8817 53.9121C44.8817 54.0767 41.8086 58.8692 41.7031 58.8692C41.5976 58.8692 38.5245 54.0767 38.5245 53.9121C38.5245 53.8773 39.0108 53.8488 39.6052 53.8488H40.686V47.2396V40.6304H39.6688H38.6517V46.2195ZM52.4678 46.3156L49.0709 51.7516L50.9813 51.7867L52.8918 51.8218V54.3605V56.8992H53.909H54.9261V53.3404V49.7816H53.8454C53.251 49.7816 52.7647 49.7531 52.7647 49.7183C52.7647 49.5537 55.8378 44.7611 55.9433 44.7611C56.0488 44.7611 59.1219 49.5537 59.1219 49.7183C59.1219 49.7531 58.6356 49.7816 58.0412 49.7816H56.9604V56.3908V63H57.9776H58.9947V57.4109V51.8218L60.9056 51.7867L62.8163 51.7516L59.4404 46.3499C57.5836 43.3789 56.0194 40.9327 55.9645 40.9138C55.9096 40.895 54.336 43.3258 52.4678 46.3156ZM42.7203 43.6808V44.6976H43.7374H44.7546V43.6808V42.664H43.7374H42.7203V43.6808ZM52.8918 59.9496V60.9664H53.909H54.9261V59.9496V58.9328H53.909H52.8918V59.9496Z" fill="#EDBC18"/>
</svg>
