<svg width="63" height="63" viewBox="0 0 63 63" fill="none" xmlns="http://www.w3.org/2000/svg">
<path fill-rule="evenodd" clip-rule="evenodd" d="M19.6795 0.159635C9.91655 0.860288 2.31534 3.81742 0.444487 7.64291L0 8.55187V31.503V54.4541L0.439326 55.347C1.60732 57.7209 4.95949 59.8106 9.79146 61.1772C23.3747 65.0186 42.8133 62.4996 47.3823 56.3058C48.5854 54.6748 48.5019 56.5253 48.5019 31.503C48.5019 6.48066 48.5854 8.33114 47.3823 6.70017C44.0071 2.12465 31.9533 -0.721294 19.6795 0.159635ZM56.2801 1.46959C55.844 1.85347 51.6066 9.35054 51.2814 10.3134C51.0767 10.9201 51.0067 11.5919 51.0067 12.9532C51.0067 14.7567 51.0137 14.7934 51.5737 15.9238C52.2565 17.3024 53.1357 18.1613 54.5468 18.8284C55.4638 19.2619 55.6988 19.3078 57.003 19.3078C58.3072 19.3078 58.5422 19.2619 59.4592 18.8284C60.8702 18.1613 61.7495 17.3024 62.4323 15.9238C62.9923 14.7934 62.9993 14.7567 62.9993 12.9532C62.9993 11.5919 62.9293 10.9201 62.7245 10.3134C62.3994 9.35054 58.162 1.85347 57.7259 1.46959C57.5603 1.32386 57.235 1.20448 57.003 1.20448C56.771 1.20448 56.4457 1.32386 56.2801 1.46959ZM19.8106 2.5773C16.2113 2.84302 12.0521 3.5973 9.35229 4.47414C5.1705 5.83227 2.35299 7.93105 2.35299 9.68806C2.35299 10.9379 3.84584 12.4578 6.2216 13.6269C15.2211 18.0554 33.2049 18.0554 42.2044 13.6269C44.5801 12.4578 46.073 10.9379 46.073 9.68806C46.073 7.42128 41.6558 4.82788 35.6602 3.57473C30.7681 2.55231 25.0349 2.19145 19.8106 2.5773ZM20.4938 4.99952C16.072 5.45172 12.903 6.51944 11.6008 7.99589C9.90122 9.92272 11.1869 12.0213 14.8232 13.2557C19.2499 14.7582 27.2496 14.9314 32.2991 13.6341C34.7 13.0173 36.1404 12.2612 37.0296 11.151C37.4298 10.6514 37.496 10.444 37.496 9.68806C37.496 8.93211 37.4298 8.72472 37.0296 8.2251C35.8578 6.76229 33.5545 5.82485 29.6425 5.21827C27.7772 4.92908 22.4319 4.80122 20.4938 4.99952ZM55.2985 7.83228C53.5464 10.9185 53.3618 11.3966 53.3606 12.8518C53.3592 14.2816 53.6142 14.9515 54.493 15.8287C55.6056 16.9389 56.793 17.2192 58.2645 16.7188C59.1233 16.4268 60.2014 15.301 60.4658 14.4201C60.6899 13.6741 60.6982 12.0847 60.4824 11.2787C60.32 10.6723 57.1762 4.99179 57.003 4.99179C56.9524 4.99179 56.1855 6.27009 55.2985 7.83228ZM20.5697 7.42582C18.8096 7.61989 16.9647 7.97165 15.826 8.33008C14.6001 8.71624 13.3589 9.39962 13.3589 9.68867C13.3589 10.0095 14.9724 10.8279 16.3284 11.1948C18.6929 11.8347 20.4553 12.0188 24.213 12.0188C27.9706 12.0188 29.7331 11.8347 32.0976 11.1948C33.4546 10.8276 35.0671 10.0094 35.0671 9.68806C35.0671 9.3669 33.4549 8.54869 32.1002 8.18207C31.4702 8.01149 30.2747 7.76502 29.4436 7.63428C27.6295 7.34887 22.3857 7.2257 20.5697 7.42582ZM54.9468 10.06C54.1937 10.8114 54.7273 12.1119 55.7886 12.1119C56.4126 12.1119 57.003 11.5228 57.003 10.9C57.003 10.2772 56.4126 9.68806 55.7886 9.68806C55.4928 9.68806 55.1816 9.82547 54.9468 10.06ZM57.3757 13.6958C56.6226 14.4472 57.1562 15.7478 58.2174 15.7478C58.8415 15.7478 59.4319 15.1586 59.4319 14.5358C59.4319 13.913 58.8415 13.3239 58.2174 13.3239C57.9217 13.3239 57.6105 13.4613 57.3757 13.6958ZM2.78351 14.641C3.14723 15.319 4.73998 16.5337 6.2216 17.2627C15.2211 21.6913 33.2049 21.6913 42.2044 17.2627C43.686 16.5337 45.2787 15.319 45.6425 14.641C45.8136 14.3218 45.812 14.3216 45.3941 14.5949C42.2549 16.6475 38.2286 17.9794 32.79 18.7643C21.4513 20.4006 9.30902 18.6993 3.03186 14.5949C2.61394 14.3216 2.61242 14.3218 2.78351 14.641ZM2.35299 33.9464C2.35299 52.4826 2.20452 50.6521 3.82489 52.0934C4.61003 52.7918 7.10693 54.1752 8.08365 54.4531L8.42521 54.5503V37.6689V20.7876L7.47642 20.4428C5.90539 19.8718 4.46035 19.1638 3.37767 18.4343L2.35299 17.7441V33.9464ZM45.4079 18.1959C44.4379 18.8979 43.0493 19.6178 41.4809 20.2321L40.0008 20.8119V37.681V54.5503L40.3423 54.4531C41.319 54.1752 43.8159 52.7918 44.6011 52.0934C46.2254 50.6486 46.08 52.487 46.0358 33.9578L45.9971 17.7696L45.4079 18.1959ZM10.8541 38.4716C10.8541 47.8036 10.9054 55.4391 10.968 55.4396C11.0305 55.44 11.8674 55.6032 12.8276 55.8022C13.7877 56.0013 14.8296 56.2085 15.1426 56.2628L15.7119 56.3616V39.4012V22.4409L14.6113 22.2604C14.0059 22.1612 12.9445 21.9505 12.2524 21.7923C11.5603 21.634 10.9626 21.5045 10.9241 21.5045C10.8857 21.5045 10.8541 29.1397 10.8541 38.4716ZM36.1297 21.8064C35.4618 21.9573 34.4201 22.1618 33.8147 22.2609L32.7141 22.4409V39.4012V56.3616L33.2834 56.2628C33.5965 56.2085 34.6382 56.0013 35.5984 55.8022C36.5586 55.6032 37.3953 55.44 37.458 55.4396C37.5207 55.4391 37.5719 47.8036 37.5719 38.4716C37.5719 29.1397 37.5207 21.5107 37.458 21.5181C37.3953 21.5257 36.7977 21.6554 36.1297 21.8064ZM18.1408 39.6492V56.6164L18.7859 56.7024C19.1409 56.7497 20.2337 56.8338 21.2148 56.8892L22.9985 56.9901V40.0229V23.0558L21.2148 22.9549C20.2337 22.8994 19.1409 22.8153 18.7859 22.7681L18.1408 22.682V39.6492ZM29.4503 22.7934C29.3668 22.8226 28.4274 22.8923 27.363 22.9482L25.4274 23.0499V40.0201V56.9901L27.2111 56.8892C28.1923 56.8338 29.2851 56.7497 29.64 56.7024L30.2852 56.6164V39.6663V22.7164L29.9437 22.7284C29.7557 22.7349 29.5338 22.7643 29.4503 22.7934ZM56.2801 23.2845C55.844 23.6684 51.6066 31.1655 51.2814 32.1283C51.0767 32.7351 51.0067 33.4068 51.0067 34.7681C51.0067 36.5716 51.0137 36.6083 51.5737 37.7387C52.2565 39.1173 53.1357 39.9763 54.5468 40.6433C55.4638 41.0769 55.6988 41.1228 57.003 41.1228C58.3072 41.1228 58.5422 41.0769 59.4592 40.6433C60.8702 39.9763 61.7495 39.1173 62.4323 37.7387C62.9923 36.6083 62.9993 36.5716 62.9993 34.7681C62.9993 33.4068 62.9293 32.7351 62.7245 32.1283C62.3994 31.1655 58.162 23.6684 57.7259 23.2845C57.5603 23.1386 57.235 23.0194 57.003 23.0194C56.771 23.0194 56.4457 23.1386 56.2801 23.2845ZM55.2985 29.6472C53.5464 32.7334 53.3618 33.2115 53.3606 34.6668C53.3592 36.0965 53.6142 36.7664 54.493 37.6436C55.6056 38.7539 56.793 39.0341 58.2645 38.5338C59.1233 38.2417 60.2014 37.1159 60.4658 36.235C60.6899 35.4891 60.6982 33.8996 60.4824 33.0937C60.32 32.4872 57.1762 26.8067 57.003 26.8067C56.9524 26.8067 56.1855 28.085 55.2985 29.6472ZM54.9468 31.8749C54.7118 32.1093 54.5741 32.4198 54.5741 32.7149C54.5741 33.01 54.7118 33.3206 54.9468 33.555C55.1816 33.7895 55.4928 33.9269 55.7886 33.9269C56.0843 33.9269 56.3955 33.7895 56.6303 33.555C56.8653 33.3206 57.003 33.01 57.003 32.7149C57.003 32.4198 56.8653 32.1093 56.6303 31.8749C56.3955 31.6404 56.0843 31.503 55.7886 31.503C55.4928 31.503 55.1816 31.6404 54.9468 31.8749ZM57.3757 35.5107C57.1407 35.7451 57.003 36.0556 57.003 36.3507C57.003 36.6459 57.1407 36.9564 57.3757 37.1908C57.6105 37.4253 57.9217 37.5627 58.2174 37.5627C58.5132 37.5627 58.8244 37.4253 59.0592 37.1908C59.2942 36.9564 59.4319 36.6459 59.4319 36.3507C59.4319 36.0556 59.2942 35.7451 59.0592 35.5107C58.8244 35.2762 58.5132 35.1388 58.2174 35.1388C57.9217 35.1388 57.6105 35.2762 57.3757 35.5107ZM56.2801 45.0994C55.844 45.4833 51.6066 52.9804 51.2814 53.9433C51.0767 54.55 51.0067 55.2217 51.0067 56.583C51.0067 58.3866 51.0137 58.4232 51.5737 59.5536C52.2565 60.9322 53.1357 61.7912 54.5468 62.4582C55.4638 62.8918 55.6988 62.9377 57.003 62.9377C58.3072 62.9377 58.5422 62.8918 59.4592 62.4582C60.8702 61.7912 61.7495 60.9322 62.4323 59.5536C62.9923 58.4232 62.9993 58.3866 62.9993 56.583C62.9993 55.2217 62.9293 54.55 62.7245 53.9433C62.3994 52.9804 58.162 45.4833 57.7259 45.0994C57.5603 44.9537 57.235 44.8343 57.003 44.8343C56.771 44.8343 56.4457 44.9537 56.2801 45.0994ZM55.2985 51.4621C53.5464 54.5483 53.3618 55.0265 53.3606 56.4817C53.3592 57.9115 53.6142 58.5814 54.493 59.4585C55.6056 60.5688 56.793 60.8491 58.2645 60.3487C59.1233 60.0566 60.2014 58.9309 60.4658 58.0499C60.6899 57.304 60.6982 55.7145 60.4824 54.9086C60.32 54.3022 57.1762 48.6216 57.003 48.6216C56.9524 48.6216 56.1855 49.8999 55.2985 51.4621ZM54.9468 53.6898C54.7118 53.9242 54.5741 54.2347 54.5741 54.5299C54.5741 54.825 54.7118 55.1355 54.9468 55.3699C55.1816 55.6044 55.4928 55.7418 55.7886 55.7418C56.0843 55.7418 56.3955 55.6044 56.6303 55.3699C56.8653 55.1355 57.003 54.825 57.003 54.5299C57.003 54.2347 56.8653 53.9242 56.6303 53.6898C56.3955 53.4553 56.0843 53.3179 55.7886 53.3179C55.4928 53.3179 55.1816 53.4553 54.9468 53.6898ZM2.78351 54.635C3.14723 55.3131 4.73998 56.5277 6.2216 57.2567C15.2211 61.6853 33.2049 61.6853 42.2044 57.2567C43.6739 56.5336 45.2783 55.314 45.6349 54.6489C45.8208 54.3025 45.8829 54.2755 44.5604 55.1148C40.5729 57.645 32.3117 59.3746 24.213 59.3746C15.4556 59.3746 7.65571 57.6123 3.03186 54.5889C2.61394 54.3156 2.61242 54.3158 2.78351 54.635ZM57.3757 57.3256C57.1407 57.56 57.003 57.8706 57.003 58.1657C57.003 58.4608 57.1407 58.7713 57.3757 59.0057C57.6105 59.2402 57.9217 59.3776 58.2174 59.3776C58.5132 59.3776 58.8244 59.2402 59.0592 59.0057C59.2942 58.7713 59.4319 58.4608 59.4319 58.1657C59.4319 57.8706 59.2942 57.56 59.0592 57.3256C58.8244 57.0911 58.5132 56.9537 58.2174 56.9537C57.9217 56.9537 57.6105 57.0911 57.3757 57.3256Z" fill="black"/>
<path fill-rule="evenodd" clip-rule="evenodd" d="M56.2812 1.47019C55.8451 1.85407 51.6077 9.35113 51.2826 10.314C51.0778 10.9207 51.0078 11.5925 51.0078 12.9538C51.0078 14.7573 51.0148 14.794 51.5748 15.9244C52.2576 17.303 53.1369 18.1619 54.5479 18.829C55.465 19.2625 55.7 19.3084 57.0041 19.3084C58.3083 19.3084 58.5433 19.2625 59.4603 18.829C60.8714 18.1619 61.7506 17.303 62.4335 15.9244C62.9935 14.794 63.0005 14.7573 63.0005 12.9538C63.0005 11.5925 62.9305 10.9207 62.7257 10.314C62.4005 9.35113 58.1632 1.85407 57.727 1.47019C57.5614 1.32445 57.2361 1.20508 57.0041 1.20508C56.7722 1.20508 56.4469 1.32445 56.2812 1.47019ZM55.2997 7.83288C53.5475 10.9191 53.3629 11.3972 53.3617 12.8524C53.3603 14.2822 53.6154 14.9521 54.4942 15.8293C55.6068 16.9395 56.7942 17.2198 58.2656 16.7194C59.1244 16.4274 60.2025 15.3016 60.467 14.4207C60.691 13.6747 60.6994 12.0853 60.4835 11.2793C60.3211 10.6729 57.1773 4.99239 57.0041 4.99239C56.9536 4.99239 56.1867 6.27069 55.2997 7.83288ZM54.9479 10.0606C54.1948 10.812 54.7284 12.1125 55.7897 12.1125C56.4138 12.1125 57.0041 11.5234 57.0041 10.9006C57.0041 10.2778 56.4138 9.68866 55.7897 9.68866C55.494 9.68866 55.1828 9.82606 54.9479 10.0606ZM57.3768 13.6964C56.6237 14.4478 57.1573 15.7484 58.2186 15.7484C58.8427 15.7484 59.433 15.1592 59.433 14.5364C59.433 13.9136 58.8427 13.3245 58.2186 13.3245C57.9229 13.3245 57.6117 13.4619 57.3768 13.6964ZM56.2812 23.2851C55.8451 23.669 51.6077 31.1661 51.2826 32.1289C51.0778 32.7357 51.0078 33.4074 51.0078 34.7687C51.0078 36.5722 51.0148 36.6089 51.5748 37.7393C52.2576 39.1179 53.1369 39.9769 54.5479 40.6439C55.465 41.0775 55.7 41.1234 57.0041 41.1234C58.3083 41.1234 58.5433 41.0775 59.4603 40.6439C60.8714 39.9769 61.7506 39.1179 62.4335 37.7393C62.9935 36.6089 63.0005 36.5722 63.0005 34.7687C63.0005 33.4074 62.9305 32.7357 62.7257 32.1289C62.4005 31.1661 58.1632 23.669 57.727 23.2851C57.5614 23.1392 57.2361 23.02 57.0041 23.02C56.7722 23.02 56.4469 23.1392 56.2812 23.2851ZM55.2997 29.6478C53.5475 32.734 53.3629 33.2121 53.3617 34.6674C53.3603 36.0971 53.6154 36.767 54.4942 37.6442C55.6068 38.7545 56.7942 39.0347 58.2656 38.5344C59.1244 38.2423 60.2025 37.1165 60.467 36.2356C60.691 35.4897 60.6994 33.9002 60.4835 33.0943C60.3211 32.4878 57.1773 26.8073 57.0041 26.8073C56.9536 26.8073 56.1867 28.0856 55.2997 29.6478ZM54.9479 31.8755C54.7129 32.1099 54.5752 32.4204 54.5752 32.7155C54.5752 33.0106 54.7129 33.3212 54.9479 33.5556C55.1828 33.7901 55.494 33.9275 55.7897 33.9275C56.0854 33.9275 56.3966 33.7901 56.6315 33.5556C56.8664 33.3212 57.0041 33.0106 57.0041 32.7155C57.0041 32.4204 56.8664 32.1099 56.6315 31.8755C56.3966 31.641 56.0854 31.5036 55.7897 31.5036C55.494 31.5036 55.1828 31.641 54.9479 31.8755ZM57.3768 35.5113C57.1418 35.7457 57.0041 36.0562 57.0041 36.3513C57.0041 36.6465 57.1418 36.957 57.3768 37.1914C57.6117 37.4259 57.9229 37.5633 58.2186 37.5633C58.5143 37.5633 58.8255 37.4259 59.0603 37.1914C59.2953 36.957 59.433 36.6465 59.433 36.3513C59.433 36.0562 59.2953 35.7457 59.0603 35.5113C58.8255 35.2768 58.5143 35.1394 58.2186 35.1394C57.9229 35.1394 57.6117 35.2768 57.3768 35.5113ZM56.2812 45.1C55.8451 45.4839 51.6077 52.981 51.2826 53.9439C51.0778 54.5506 51.0078 55.2223 51.0078 56.5836C51.0078 58.3871 51.0148 58.4238 51.5748 59.5542C52.2576 60.9328 53.1369 61.7918 54.5479 62.4588C55.465 62.8924 55.7 62.9383 57.0041 62.9383C58.3083 62.9383 58.5433 62.8924 59.4603 62.4588C60.8714 61.7918 61.7506 60.9328 62.4335 59.5542C62.9935 58.4238 63.0005 58.3871 63.0005 56.5836C63.0005 55.2223 62.9305 54.5506 62.7257 53.9439C62.4005 52.981 58.1632 45.4839 57.727 45.1C57.5614 44.9543 57.2361 44.8349 57.0041 44.8349C56.7722 44.8349 56.4469 44.9543 56.2812 45.1ZM55.2997 51.4627C53.5475 54.5489 53.3629 55.027 53.3617 56.4823C53.3603 57.9121 53.6154 58.582 54.4942 59.4591C55.6068 60.5694 56.7942 60.8497 58.2656 60.3493C59.1244 60.0572 60.2025 58.9315 60.467 58.0505C60.691 57.3046 60.6994 55.7151 60.4835 54.9092C60.3211 54.3028 57.1773 48.6222 57.0041 48.6222C56.9536 48.6222 56.1867 49.9005 55.2997 51.4627ZM54.9479 53.6904C54.7129 53.9248 54.5752 54.2353 54.5752 54.5304C54.5752 54.8256 54.7129 55.1361 54.9479 55.3705C55.1828 55.605 55.494 55.7424 55.7897 55.7424C56.0854 55.7424 56.3966 55.605 56.6315 55.3705C56.8664 55.1361 57.0041 54.8256 57.0041 54.5304C57.0041 54.2353 56.8664 53.9248 56.6315 53.6904C56.3966 53.4559 56.0854 53.3185 55.7897 53.3185C55.494 53.3185 55.1828 53.4559 54.9479 53.6904ZM57.3768 57.3262C57.1418 57.5606 57.0041 57.8712 57.0041 58.1663C57.0041 58.4614 57.1418 58.7719 57.3768 59.0063C57.6117 59.2408 57.9229 59.3782 58.2186 59.3782C58.5143 59.3782 58.8255 59.2408 59.0603 59.0063C59.2953 58.7719 59.433 58.4614 59.433 58.1663C59.433 57.8712 59.2953 57.5606 59.0603 57.3262C58.8255 57.0917 58.5143 56.9543 58.2186 56.9543C57.9229 56.9543 57.6117 57.0917 57.3768 57.3262Z" fill="#EDBC18"/>
</svg>
