<svg width="57" height="72" viewBox="0 0 57 72" fill="none" xmlns="http://www.w3.org/2000/svg">
<path fill-rule="evenodd" clip-rule="evenodd" d="M2.1314 0.123322C1.32027 0.280833 0.766742 0.720394 0.350431 1.53779L0 2.22596V11.8565V21.4868L0.358686 22.1673C0.603831 22.6323 0.93199 22.9616 1.39549 23.2075C2.04574 23.5526 2.21908 23.5674 5.60689 23.5674C8.9947 23.5674 9.16805 23.5526 9.81829 23.2075C10.707 22.7361 11.2138 21.8081 11.2138 20.652V19.8171H13.9034H16.593L21.4182 21.5855L26.2434 23.3539L27.0322 24.6364C28.0041 26.2162 28.9144 27.1654 29.9028 27.6299L30.6576 27.9846L30.1028 28.8231L29.5479 29.6616H19.809H10.0701L8.38526 31.4195C6.70709 33.1704 6.42597 33.6015 6.61006 34.1428C6.66332 34.2994 7.46371 35.2186 8.38853 36.1854C10.462 38.3529 10.5185 38.3654 12.0402 36.9874L13.096 36.0314L14.0882 36.9874C15.3269 38.1807 15.7037 38.2285 16.5944 37.3052C16.933 36.9542 17.3985 36.5306 17.6287 36.3639L18.0473 36.0607L19.0502 37.002L20.0532 37.9434H24.8058H29.5586L30.3238 39.0762C33.311 43.4989 39.5342 44.4019 43.693 41.0161C45.3112 39.6986 46.3568 38.0418 46.89 35.9501C47.5153 33.4976 47.1385 31.4237 45.5175 28.3932C45.4892 28.3401 45.6848 28.2529 45.9524 28.1991C46.6363 28.0619 47.2653 27.5719 47.5616 26.9456C47.781 26.4815 47.8143 25.6292 47.8143 20.4895V14.5679L47.2776 13.7158C46.9823 13.247 46.7897 12.8467 46.8493 12.8262C46.909 12.8056 48.8357 12.5113 51.131 12.1723C53.9768 11.7519 55.4631 11.4644 55.8034 11.2686C56.4281 10.909 57.0045 9.79819 57 8.96298C56.995 8.03385 56.519 7.11551 55.8147 6.67642L55.2123 6.30061L47.8143 6.21232L40.4163 6.12404L30.2928 4.76817L20.1692 3.41214L15.6915 3.41104L11.2138 3.40979V2.81788C11.2138 2.09205 10.6559 0.954159 10.1014 0.549289C9.87514 0.383965 9.38454 0.189577 9.01121 0.117228C8.18778 -0.0423135 2.96106 -0.0377821 2.1314 0.123322ZM2.35412 2.37254C2.2264 2.52676 2.18902 5.16163 2.21815 11.9435L2.25833 21.3016H5.60689H8.95545L8.99563 11.9435C9.02476 5.16163 8.98738 2.52676 8.85967 2.37254C8.60315 2.06236 2.61063 2.06236 2.35412 2.37254ZM11.2138 11.6135V17.6295H14.0794H16.9448L22.295 19.5804C25.3773 20.7042 27.7332 21.6482 27.8532 21.8071C27.9675 21.9588 28.4931 22.7841 29.0213 23.6411C29.8956 25.0603 30.0609 25.2402 30.8742 25.6569C31.9716 26.2191 32.5778 26.119 33.1479 25.2813C33.4872 24.7828 33.5113 24.6204 33.4484 23.2549C33.3562 21.2518 33.0928 20.735 31.1385 18.7233C30.262 17.8209 29.4167 16.8013 29.2602 16.4575C28.6472 15.1104 29.0175 13.4953 30.181 12.4431C31.1913 11.5291 31.6428 11.4567 34.9246 11.6828C38.2241 11.9102 38.9285 12.0333 39.1567 12.4232C39.2482 12.5795 39.9539 14.0785 40.725 15.7544L42.1271 18.8015L42.2062 21.9789L42.2853 25.1564L42.794 25.6119C43.2598 26.0293 43.4006 26.0676 44.4683 26.0676H45.6339V20.6097V15.1517L43.6632 11.9763C42.5794 10.2298 41.6075 8.70733 41.5036 8.59295C41.3773 8.45404 37.7889 7.92369 30.6653 6.99128L20.0158 5.59744H15.6149H11.2138V11.6135ZM44.0764 8.48998C44.0764 8.55467 45.2104 10.4473 45.4207 10.7334C45.4951 10.8347 54.5843 9.48739 54.7194 9.35503C54.7909 9.28487 54.8259 9.06111 54.7972 8.85781L54.7451 8.48826L49.4107 8.44716C46.4769 8.4245 44.0764 8.44388 44.0764 8.48998ZM31.5318 14.1066C31.265 14.3741 31.1494 14.663 31.1494 15.0621C31.1494 15.5789 31.3132 15.8028 32.8407 17.3742C33.7708 18.3311 34.6822 19.4106 34.866 19.7732C35.3487 20.7253 35.6611 22.2184 35.6637 23.5851L35.6661 24.7748L36.4837 24.6225C36.9334 24.5387 37.9147 24.5123 38.6642 24.5639L40.027 24.6578L40.0301 22.1203L40.0332 19.5828L38.8336 16.8832C37.9183 14.8227 37.5579 14.1663 37.3122 14.1111C36.8625 14.01 33.3937 13.7266 32.583 13.7245C32.0789 13.7235 31.8197 13.8175 31.5318 14.1066ZM36.1157 26.9193C34.224 27.4427 32.3801 28.9504 31.5727 30.6343C31.3368 31.1262 31.0094 31.6009 30.8452 31.689C30.6505 31.7936 27.1504 31.8492 20.7681 31.8492H10.9892L10.0891 32.7429C9.59417 33.2343 9.18907 33.7118 9.18907 33.804C9.18907 33.8964 9.50259 34.2806 9.88588 34.658L10.5829 35.3441L11.5857 34.378C12.8212 33.1876 13.1217 33.1523 14.1407 34.0773C14.544 34.4433 15.0316 34.8763 15.2246 35.0393L15.5753 35.3358L16.5738 34.3739C17.9188 33.078 18.0838 33.0894 19.6143 34.5838L20.8147 35.7557H25.6808C28.7071 35.7557 30.6597 35.8163 30.8452 35.9159C31.0094 36.004 31.3377 36.4743 31.5749 36.9611C32.4435 38.7439 34.1971 40.1624 36.1906 40.6951C38.4854 41.3081 41.1965 40.5523 42.8952 38.8261C46.7947 34.8636 44.9902 28.3322 39.6076 26.9257C38.5443 26.6479 37.1064 26.6453 36.1157 26.9193ZM35.7125 31.5832C34.278 33.0224 33.9528 33.4324 33.9528 33.8025C33.9528 34.1725 34.278 34.5825 35.7125 36.0217C37.1469 37.4608 37.5556 37.7871 37.9244 37.7871C38.2932 37.7871 38.7019 37.4608 40.1363 36.0217C41.5707 34.5825 41.8959 34.1725 41.8959 33.8025C41.8959 33.4324 41.5707 33.0224 40.1363 31.5832C38.7019 30.1441 38.2932 29.8178 37.9244 29.8178C37.5556 29.8178 37.1469 30.1441 35.7125 31.5832ZM37.2559 33.1443L36.5999 33.815L37.2684 34.4731L37.9369 35.1313L38.5929 34.4606L39.2489 33.79L38.5804 33.1318L37.9119 32.4736L37.2559 33.1443ZM2.84067 39.5583C1.49252 40.0488 0.471602 41.5345 0.468799 43.0104C0.467553 43.6436 0.774063 44.5041 2.19463 47.8545C4.07683 52.294 4.42399 52.9786 5.27437 53.9276C6.00171 54.739 14.1354 61.2877 15.2632 61.9697C17.0728 63.0638 17.3684 63.1005 24.4297 63.1075L30.76 63.1138L32.4732 63.772L34.1865 64.4303L34.2281 65.0549C34.2508 65.3985 34.3087 65.8554 34.3569 66.0702C34.4545 66.5076 39.2328 71.4326 39.9024 71.7861C40.4445 72.0722 41.6376 72.0711 42.1763 71.7839C42.8265 71.4372 56.189 57.9239 56.3732 57.4267C56.6629 56.6445 56.5667 55.8657 56.0885 55.1236C55.4349 54.1093 51.4115 50.1873 50.7326 49.9028C49.5877 49.4227 48.6353 49.7193 47.3991 50.9408L46.5944 51.7358L45.9974 51.368C45.6689 51.1656 44.1206 50.1728 42.5568 49.1616C39.1993 46.9908 38.4874 46.6119 37.1876 46.3045C34.9412 45.7731 33.2743 46.0858 30.3344 47.5901L28.2681 48.6472L22.5054 48.7253L16.7428 48.8035L16.0145 49.233C15.6139 49.4693 15.086 49.9063 14.8411 50.2042L14.3963 50.7458L12.221 49.0286L10.0457 47.3116L8.68305 44.1586C7.23554 40.8093 6.81144 40.171 5.68477 39.6466C4.97425 39.3158 3.62221 39.2739 2.84067 39.5583ZM3.10295 41.9941C2.8184 42.2796 2.64614 42.6165 2.64365 42.8926C2.64147 43.1356 3.42799 45.1899 4.3916 47.4581C5.82291 50.8269 6.26788 51.7204 6.82219 52.339C7.82816 53.4614 15.9787 59.955 16.9764 60.4288L17.833 60.8355L24.608 60.9136L31.383 60.9918L33.539 61.8364L35.695 62.6808L40.3575 58.003L45.0199 53.3252L41.6978 51.1866C37.3375 48.3794 37.2366 48.3347 35.261 48.3347H33.6879L31.2115 49.5848L28.7353 50.8348L22.937 50.913L17.1389 50.9911L16.7305 51.401C15.9029 52.2318 16.0743 53.718 17.0492 54.1637C17.3346 54.2941 18.7309 54.3507 21.6664 54.3507C26.5711 54.3507 26.7805 54.3999 26.7861 55.5528C26.7907 56.5082 26.6304 56.5385 21.5752 56.5368C17.156 56.5354 17.0365 56.5271 16.2668 56.1674C15.3207 55.7253 14.434 54.7354 14.1791 53.8363C14.0093 53.2378 13.7355 52.977 11.1323 50.9341L8.27219 48.6892L7.55575 47.0477C7.16156 46.1448 6.54433 44.7035 6.18409 43.8447C5.39523 41.9644 5.02284 41.5373 4.172 41.5373C3.70133 41.5373 3.45213 41.6438 3.10295 41.9941ZM43.0245 58.4532C39.4057 62.0847 36.4448 65.1621 36.4448 65.2918C36.4448 65.6519 40.6764 69.8205 41.042 69.8205C41.4097 69.8205 54.3557 56.9024 54.3557 56.5357C54.3557 56.2788 50.0105 51.8505 49.7585 51.8505C49.6736 51.8505 46.6433 54.8217 43.0245 58.4532Z" fill="black"/>
<path fill-rule="evenodd" clip-rule="evenodd" d="M2.84062 39.5583C1.49248 40.0488 0.471557 41.5345 0.468754 43.0104C0.467508 43.6435 0.774018 44.5041 2.19459 47.8545C4.07679 52.294 4.42395 52.9785 5.27433 53.9275C6.00167 54.739 14.1354 61.2877 15.2632 61.9696C17.0728 63.0638 17.3684 63.1005 24.4296 63.1075L30.76 63.1138L32.4732 63.7719L34.1864 64.4303L34.228 65.0548C34.2507 65.3984 34.3087 65.8554 34.3568 66.0702C34.4545 66.5076 39.2328 71.4326 39.9023 71.7861C40.4445 72.0722 41.6375 72.0711 42.1762 71.7839C42.8265 71.4371 56.189 57.9239 56.3732 57.4267C56.6629 56.6444 56.5666 55.8656 56.0885 55.1235C55.4348 54.1093 51.4114 50.1873 50.7325 49.9027C49.5876 49.4227 48.6352 49.7193 47.3991 50.9408L46.5943 51.7358L45.9973 51.368C45.6689 51.1656 44.1206 50.1727 42.5567 49.1616C39.1993 46.9908 38.4874 46.6119 37.1875 46.3045C34.9412 45.7731 33.2742 46.0857 30.3343 47.5901L28.268 48.6472L22.5054 48.7253L16.7428 48.8034L16.0145 49.233C15.6139 49.4692 15.0859 49.9063 14.8411 50.2041L14.3963 50.7457L12.221 49.0286L10.0456 47.3116L8.68301 44.1586C7.23549 40.8093 6.81139 40.171 5.68472 39.6466C4.9742 39.3158 3.62216 39.2739 2.84062 39.5583ZM3.1029 41.9941C2.81835 42.2795 2.6461 42.6164 2.6436 42.8926C2.64142 43.1355 3.42795 45.1899 4.39155 47.458C5.82287 50.8268 6.26784 51.7203 6.82214 52.339C7.82811 53.4614 15.9787 59.955 16.9764 60.4287L17.833 60.8355L24.608 60.9136L31.383 60.9917L33.539 61.8363L35.695 62.6808L40.3574 58.0029L45.0199 53.3251L41.6978 51.1866C37.3375 48.3793 37.2366 48.3346 35.2609 48.3346H33.6879L31.2115 49.5847L28.7353 50.8348L22.937 50.9129L17.1388 50.9911L16.7305 51.4009C15.9028 52.2318 16.0743 53.718 17.0491 54.1636C17.3346 54.2941 18.7309 54.3507 21.6664 54.3507C26.571 54.3507 26.7805 54.3999 26.7861 55.5528C26.7906 56.5082 26.6304 56.5385 21.5751 56.5368C17.156 56.5353 17.0365 56.5271 16.2668 56.1674C15.3206 55.7253 14.434 54.7354 14.179 53.8363C14.0092 53.2378 13.7354 52.977 11.1323 50.934L8.27215 48.6892L7.55571 47.0477C7.16151 46.1448 6.54429 44.7035 6.18405 43.8447C5.39519 41.9644 5.0228 41.5373 4.17195 41.5373C3.70128 41.5373 3.45209 41.6437 3.1029 41.9941ZM43.0244 58.4531C39.4057 62.0846 36.4448 65.162 36.4448 65.2917C36.4448 65.6519 40.6764 69.8205 41.0419 69.8205C41.4097 69.8205 54.3557 56.9024 54.3557 56.5357C54.3557 56.2788 50.0105 51.8505 49.7585 51.8505C49.6736 51.8505 46.6432 54.8216 43.0244 58.4531Z" fill="#EDBC18"/>
</svg>
