<svg width="16" height="16" viewBox="0 0 16 16" fill="none" xmlns="http://www.w3.org/2000/svg">
<path d="M4.10742 2.72239V1.16357" stroke="#888888" stroke-width="1.5" stroke-linecap="round" stroke-linejoin="round"/>
<path d="M11.8848 2.72239V1.16357" stroke="#888888" stroke-width="1.5" stroke-linecap="round" stroke-linejoin="round"/>
<path d="M12.5721 1.94312H3.42031C2.08158 1.94312 1 3.0252 1 4.36457V12.7489C1 14.0882 2.08158 15.1703 3.42031 15.1703H12.5797C13.9184 15.1703 15 14.0882 15 12.7489V4.36457C14.9924 3.0252 13.9109 1.94312 12.5721 1.94312Z" stroke="#888888" stroke-width="1.5" stroke-linecap="round" stroke-linejoin="round"/>
<path d="M1 5.0603H14.9924" stroke="#888888" stroke-width="1.5" stroke-linecap="round" stroke-linejoin="round"/>
<path d="M12.5317 8.16283C12.9495 8.16283 13.2881 7.82404 13.2881 7.40612C13.2881 6.9882 12.9495 6.64941 12.5317 6.64941C12.114 6.64941 11.7754 6.9882 11.7754 7.40612C11.7754 7.82404 12.114 8.16283 12.5317 8.16283Z" fill="#888888"/>
<path d="M9.50635 8.16283C9.92407 8.16283 10.2627 7.82404 10.2627 7.40612C10.2627 6.9882 9.92407 6.64941 9.50635 6.64941C9.08863 6.64941 8.75 6.9882 8.75 7.40612C8.75 7.82404 9.08863 8.16283 9.50635 8.16283Z" fill="#888888"/>
<path d="M6.48291 8.16283C6.90063 8.16283 7.23926 7.82404 7.23926 7.40612C7.23926 6.9882 6.90063 6.64941 6.48291 6.64941C6.06519 6.64941 5.72656 6.9882 5.72656 7.40612C5.72656 7.82404 6.06519 8.16283 6.48291 8.16283Z" fill="#888888"/>
<path d="M3.45361 8.16283C3.87133 8.16283 4.20996 7.82404 4.20996 7.40612C4.20996 6.9882 3.87133 6.64941 3.45361 6.64941C3.03589 6.64941 2.69727 6.9882 2.69727 7.40612C2.69727 7.82404 3.03589 8.16283 3.45361 8.16283Z" fill="#888888"/>
<path d="M12.5317 10.8035C12.9495 10.8035 13.2881 10.4647 13.2881 10.0467C13.2881 9.62883 12.9495 9.29004 12.5317 9.29004C12.114 9.29004 11.7754 9.62883 11.7754 10.0467C11.7754 10.4647 12.114 10.8035 12.5317 10.8035Z" fill="#888888"/>
<path d="M9.50635 10.8037C9.92407 10.8037 10.2627 10.4649 10.2627 10.047C10.2627 9.62907 9.92407 9.29028 9.50635 9.29028C9.08863 9.29028 8.75 9.62907 8.75 10.047C8.75 10.4649 9.08863 10.8037 9.50635 10.8037Z" fill="#888888"/>
<path d="M6.48291 10.8035C6.90063 10.8035 7.23926 10.4647 7.23926 10.0467C7.23926 9.62883 6.90063 9.29004 6.48291 9.29004C6.06519 9.29004 5.72656 9.62883 5.72656 10.0467C5.72656 10.4647 6.06519 10.8035 6.48291 10.8035Z" fill="#888888"/>
<path d="M3.45361 10.8037C3.87133 10.8037 4.20996 10.4649 4.20996 10.047C4.20996 9.62907 3.87133 9.29028 3.45361 9.29028C3.03589 9.29028 2.69727 9.62907 2.69727 10.047C2.69727 10.4649 3.03589 10.8037 3.45361 10.8037Z" fill="#888888"/>
<path d="M9.50635 13.437C9.92407 13.437 10.2627 13.0982 10.2627 12.6803C10.2627 12.2624 9.92407 11.9236 9.50635 11.9236C9.08863 11.9236 8.75 12.2624 8.75 12.6803C8.75 13.0982 9.08863 13.437 9.50635 13.437Z" fill="#888888"/>
<path d="M6.48291 13.4365C6.90063 13.4365 7.23926 13.0977 7.23926 12.6798C7.23926 12.2619 6.90063 11.9231 6.48291 11.9231C6.06519 11.9231 5.72656 12.2619 5.72656 12.6798C5.72656 13.0977 6.06519 13.4365 6.48291 13.4365Z" fill="#888888"/>
<path d="M3.45361 13.4368C3.87133 13.4368 4.20996 13.098 4.20996 12.68C4.20996 12.2621 3.87133 11.9233 3.45361 11.9233C3.03589 11.9233 2.69727 12.2621 2.69727 12.68C2.69727 13.098 3.03589 13.4368 3.45361 13.4368Z" fill="#888888"/>
</svg>
