<svg width="76" height="52" viewBox="0 0 76 52" fill="none" xmlns="http://www.w3.org/2000/svg">
<path fill-rule="evenodd" clip-rule="evenodd" d="M34.0109 0.148183C32.9704 0.45187 32.1413 0.929537 31.3752 1.66691L30.6713 2.34403L29.4839 2.37083C27.5388 2.41466 26.1134 3.29462 25.2954 4.95638C24.9417 5.67511 24.8831 5.97405 24.8849 7.05317C24.8866 8.13525 24.9439 8.41998 25.293 9.08422C26.0458 10.516 27.3597 11.468 28.9273 11.7172C29.5426 11.8149 29.5582 11.8315 29.5582 12.3861C29.5582 12.9531 29.5556 12.9554 28.7789 13.1164C27.7336 13.3332 26.6504 13.8598 25.887 14.5223C25.0986 15.2068 18.8716 25.4593 18.8716 26.0731C18.8716 26.2901 19.0334 26.6249 19.236 26.8269L19.6002 27.1904H28.9645H38.3287L38.6929 26.8269L39.0573 26.4635V20.0831V13.7027L38.6929 13.3394C38.3939 13.0409 38.1816 12.9759 37.5055 12.9759H36.6825V12.3402V11.7046L37.4848 11.4326C38.49 11.0917 39.5547 10.2972 40.268 9.35562C43.0578 5.67333 40.4758 0.237172 35.8289 0.00959221C35.144 -0.0238711 34.4087 0.0320981 34.0109 0.148183ZM34.4204 2.52571C33.664 2.79504 33.2223 3.10125 32.8049 3.64584C31.6552 5.14532 31.5512 5.19448 30.2945 4.83319C29.3288 4.55542 28.5815 4.73502 27.908 5.40696C27.0213 6.29166 26.9502 7.6145 27.7389 8.54969C28.2709 9.18031 28.9147 9.42225 30.0607 9.42225C30.5873 9.42225 31.1263 9.46371 31.2584 9.5142C31.7416 9.69914 31.9329 10.3871 31.9329 11.9388C31.9329 13.3284 31.9586 13.4592 32.2973 13.7969C32.6924 14.1912 33.3367 14.2694 33.727 13.9706C34.1863 13.6188 34.3077 13.1377 34.3077 11.6695C34.3077 9.80057 34.448 9.5832 35.7705 9.40271C36.8424 9.25657 37.3623 9.01744 38.0069 8.37438C38.7821 7.60102 38.9772 7.0973 38.9772 5.86863C38.9772 4.6105 38.7741 4.11077 37.9309 3.29388C37.0224 2.41362 35.6057 2.10371 34.4204 2.52571ZM41.7965 9.78576C41.3543 10.2269 41.3208 10.881 41.7156 11.3677L41.9991 11.7173L46.9476 11.8019C51.599 11.8814 51.9516 11.9065 52.8197 12.2213C54.4923 12.8278 56.0404 14.0084 57.0125 15.419C57.2369 15.7447 58.7729 18.3766 60.4254 21.2677C63.6297 26.8735 64.19 27.6427 65.5511 28.3052C65.9593 28.5039 67.4495 28.9657 68.8626 29.3314C70.4245 29.7357 71.6177 30.1285 71.9053 30.3331L72.3786 30.67L70.8436 30.744C69.456 30.8109 69.2815 30.8516 69.0254 31.1676C68.8697 31.3598 68.7439 31.6597 68.7459 31.8339C68.7479 32.0081 69.045 33.3167 69.4061 34.7417C69.9059 36.7133 70.1395 37.3948 70.3837 37.592C70.6385 37.7978 70.9919 37.8512 72.0983 37.8512H73.4918V39.87C73.4918 42.3826 73.3513 42.8878 72.3837 43.853C71.4128 44.8215 70.9129 44.9586 68.354 44.9581L66.2932 44.9578L66.2864 43.5884C66.2787 42.0436 66.0298 41.1161 65.236 39.6754C63.8543 37.1676 60.9406 35.4774 58.0113 35.4844C55.0453 35.4913 52.1194 37.2563 50.7486 39.8654C48.2844 44.555 50.5486 49.9925 55.6809 51.7105C56.8877 52.1145 59.1442 52.0927 60.5109 51.6637C62.3572 51.0842 64.1374 49.6967 65.1164 48.0743L65.5511 47.3538L68.4454 47.3036L71.3397 47.2536L72.3311 46.7849C72.8763 46.5273 73.627 46.0363 73.9993 45.694C74.7099 45.0405 75.7182 43.2563 75.7182 42.6523C75.7182 42.4644 75.7952 42.2632 75.8895 42.2052C76.1367 42.0527 75.9297 32.8611 75.6555 31.8244C75.2112 30.144 74.1216 28.7732 72.631 28.0198C72.2246 27.8143 70.8065 27.374 69.48 27.0413C66.8517 26.3821 66.4647 26.2281 65.8218 25.5868C65.586 25.3515 63.9282 22.6133 62.1378 19.5018C59.8565 15.5372 58.643 13.5806 58.0821 12.9621C56.5267 11.2476 54.4285 10.0665 52.1733 9.63591C51.3527 9.47941 49.866 9.42225 46.6072 9.42225H42.1607L41.7965 9.78576ZM23.662 11.7731C22.2807 12.8623 21.5777 13.8862 18.3718 19.4768C16.6158 22.5391 14.9913 25.22 14.7619 25.4344C14.0463 26.1025 13.4664 26.2928 10.7485 26.7516C7.85552 27.2401 6.41654 27.6722 5.07879 28.4544C3.15135 29.5814 1.46347 31.5739 0.584644 33.7598L0.100483 34.9639L0.0503159 38.9316L0 42.899L0.443493 43.8443C1.06688 45.1732 1.92121 46.0388 3.26267 46.7005L4.38372 47.2536L7.28616 47.3036L10.1888 47.3538L10.634 48.0998C11.598 49.7152 13.3119 51.0393 15.3094 51.7123C16.442 52.0939 18.9264 52.0939 20.059 51.7123C22.0649 51.0365 23.7831 49.7053 24.7344 48.0897L25.1796 47.3335L29.7268 47.3305L34.274 47.3276L34.3782 48.0309C34.508 48.9072 35.2528 50.3317 35.8378 50.823C36.0808 51.0269 36.6206 51.3732 37.0377 51.5927L37.7957 51.9917H42.0258C46.2283 51.9917 46.2608 51.9893 46.998 51.6251C49.6977 50.2913 50.5443 47.0403 48.8369 44.5645C48.3586 43.8709 47.4472 43.1829 46.6118 42.8847C46.2071 42.7402 46.0306 42.5641 45.8857 42.1603C45.0406 39.8043 42.3369 38.4816 39.9902 39.2763C38.3156 39.8434 37.1622 41.1372 36.7726 42.8856C36.7272 43.0891 36.4597 43.4107 36.1782 43.6001C35.8966 43.7897 35.5109 44.1723 35.3209 44.4506L34.9756 44.9564L30.4487 44.9566L25.9218 44.9567L25.9131 43.588C25.8967 40.955 24.9923 39.6195 23.7932 40.4574C23.2439 40.8412 23.1536 41.2944 23.4201 42.3312C23.9064 44.2238 23.3488 46.3566 21.9802 47.8377C21.5894 48.2606 20.9299 48.7252 20.2312 49.0696C19.1714 49.5921 19.0311 49.6226 17.6842 49.6226C16.3372 49.6226 16.197 49.5921 15.1372 49.0696C13.7863 48.4036 12.9448 47.5463 12.2912 46.1697C11.8664 45.2752 11.8214 45.046 11.8214 43.774C11.8214 42.5019 11.8664 42.2727 12.2912 41.3782C12.9126 40.0695 13.7551 39.187 15.012 38.5281C16.5278 37.7335 16.8781 37.0336 16.1324 36.2899C15.629 35.7875 15.101 35.8281 13.8191 36.4679C11.1105 37.8197 9.25546 40.9616 9.39869 43.9552L9.44663 44.9592L7.3859 44.9588C4.82706 44.9584 4.32658 44.8211 3.35618 43.853C2.39023 42.8894 2.24804 42.3808 2.24804 39.8906V37.8923L3.59291 37.8159C4.75077 37.75 5.08829 37.6651 6.02084 37.2052C7.89589 36.2808 9.13182 34.5126 9.32195 32.4826C9.40685 31.5753 9.38741 31.486 9.02837 31.1276C8.66992 30.7701 8.55014 30.744 7.26404 30.743L5.88444 30.7421L6.32971 30.4461C7.15332 29.8988 8.31578 29.5673 10.9809 29.1194C12.4387 28.8744 13.9255 28.5714 14.285 28.4463C15.2479 28.1109 16.4315 27.2465 16.9936 26.4681C17.2653 26.0917 18.7723 23.5353 20.3422 20.7875C23.3055 15.6004 24.1095 14.3919 25.0958 13.6422C25.7802 13.1219 26.0525 12.5859 25.9133 12.0327C25.6694 11.0631 24.7036 10.9518 23.662 11.7731ZM63.7617 12.1428C62.4872 12.735 61.6179 14.0332 61.6179 15.345C61.6179 17.1367 63.3415 18.8986 65.0944 18.8986C67.4459 18.8986 69.2129 16.5947 68.5847 14.3476C68.4442 13.8444 68.1724 13.4284 67.6372 12.8968C66.4799 11.7472 65.1645 11.4912 63.7617 12.1428ZM41.8055 13.3302L41.4321 13.7027V20.0831V26.4635L41.7965 26.8269C42.0261 27.0561 42.3304 27.1904 42.6195 27.1904C42.9086 27.1904 43.2129 27.0561 43.4425 26.8269L43.8069 26.4635V20.9042V15.345H47.4632C49.8088 15.345 51.3256 15.4066 51.6945 15.5169C52.8106 15.8505 53.3289 16.4971 55.8942 20.7582L58.3402 24.8213H56.4377H54.5353L54.457 23.5691C54.3905 22.5054 54.3017 22.1765 53.8679 21.3851C52.0069 17.9912 47.1381 18.1374 45.4455 21.6378C45.1629 22.2224 45.0856 22.6275 45.078 23.5627C45.0661 25.0391 45.5136 26.1002 46.5767 27.1162L47.2935 27.8016L47.3826 29.1617C47.5126 31.1509 48.1097 32.1341 49.5955 32.805C50.931 33.408 52.2622 33.128 53.3853 32.0076C54.3026 31.0924 54.4935 30.5086 54.4935 28.6169V27.1904H57.6913C60.8888 27.1904 60.8892 27.1904 61.2535 26.8269C61.4555 26.6255 61.6179 26.2901 61.6179 26.0745C61.6179 25.6074 55.7632 15.7963 54.9021 14.8202C54.5316 14.4006 53.9209 13.9673 53.1933 13.6084L52.0609 13.0499L47.1199 13.0039L42.1788 12.9578L41.8055 13.3302ZM64.357 14.5239C63.6207 15.2583 64.1424 16.5295 65.18 16.5295C65.7902 16.5295 66.3674 15.9537 66.3674 15.345C66.3674 14.7363 65.7902 14.1604 65.18 14.1604C64.8909 14.1604 64.5866 14.2947 64.357 14.5239ZM28.445 15.6978C28.0368 15.8903 27.5249 16.2394 27.3074 16.4738C27.09 16.7081 25.8404 18.682 24.5304 20.8605L22.1488 24.8213H29.4157H36.6825V20.0831V15.345H36.1812C35.9055 15.345 35.5926 15.4498 35.4861 15.5779C35.1662 15.9624 34.185 16.3924 33.4216 16.4826C32.5786 16.5822 31.5907 16.2917 30.8463 15.7253C30.2077 15.2394 29.4359 15.2305 28.445 15.6978ZM4.39188 19.2501C3.11736 19.8422 2.24804 21.1405 2.24804 22.4522C2.24804 24.244 3.97169 26.0058 5.72459 26.0058C8.07608 26.0058 9.84307 23.7019 9.21494 21.4548C9.07438 20.9517 8.80261 20.5356 8.2674 20.0041C7.11013 18.8545 5.79464 18.5985 4.39188 19.2501ZM4.98721 21.6312C4.75745 21.8602 4.62283 22.1638 4.62283 22.4522C4.62283 22.7406 4.75745 23.0442 4.98721 23.2732C5.7234 24.0078 6.99762 23.4874 6.99762 22.4522C6.99762 21.8435 6.4204 21.2677 5.81023 21.2677C5.5211 21.2677 5.21683 21.402 4.98721 21.6312ZM48.7612 21.4722C48.1921 21.7293 47.5517 22.5408 47.427 23.1626C47.2514 24.0389 47.4844 24.6324 48.3561 25.5289C49.4404 26.6443 49.6321 27.0499 49.7016 28.3749C49.7791 29.8523 49.8386 30.0903 50.219 30.4437C50.6628 30.8564 51.3069 30.8269 51.7617 30.3732L52.1334 30.0025L52.089 26.3859C52.0473 23.002 52.0247 22.743 51.7384 22.3609C51.5701 22.1361 51.2578 21.8222 51.0445 21.6633C50.5492 21.2945 49.3725 21.1959 48.7612 21.4722ZM26.0702 28.504C25.5171 28.6499 24.6732 29.0745 24.3177 29.3858C24.1154 29.563 23.6963 29.6243 22.6108 29.6357C20.9287 29.6533 20.0838 29.972 19.0907 30.9626C18.1182 31.9328 17.7664 32.8158 17.7621 34.2976C17.7587 35.4529 17.8 35.6328 18.2656 36.4892C18.8287 37.5255 19.3069 37.9873 20.3765 38.5279C21.8156 39.2555 23.7024 39.1214 25.0428 38.1964C25.5673 37.8344 25.7571 37.7938 26.9638 37.7859C28.1686 37.7781 28.4021 37.7284 29.2962 37.2893C30.3604 36.7667 30.983 36.1363 31.5151 35.0426C31.7701 34.5182 31.8431 34.0965 31.8491 33.1131C31.8556 32.0248 31.8028 31.7522 31.4578 31.0983C30.8695 29.9831 30.4184 29.5155 29.4174 28.9833C28.4601 28.4741 26.9845 28.263 26.0702 28.504ZM34.6721 28.7384C34.4424 28.9675 34.3077 29.271 34.3077 29.5595C34.3077 29.8479 34.4424 30.1514 34.6721 30.3805C35.0151 30.7227 35.1327 30.744 36.6825 30.744C38.2324 30.744 38.3499 30.7227 38.6929 30.3805C38.9227 30.1514 39.0573 29.8479 39.0573 29.5595C39.0573 29.271 38.9227 28.9675 38.6929 28.7384C38.3499 28.3962 38.2324 28.3749 36.6825 28.3749C35.1327 28.3749 35.0151 28.3962 34.6721 28.7384ZM57.2326 28.7384C57.0029 28.9675 56.8683 29.271 56.8683 29.5595C56.8683 29.8479 57.0029 30.1514 57.2326 30.3805C57.5757 30.7227 57.6932 30.744 59.2431 30.744C60.7929 30.744 60.9105 30.7227 61.2535 30.3805C61.4832 30.1514 61.6179 29.8479 61.6179 29.5595C61.6179 29.271 61.4832 28.9675 61.2535 28.7384C60.9105 28.3962 60.7929 28.3749 59.2431 28.3749C57.6932 28.3749 57.5757 28.3962 57.2326 28.7384ZM26.2186 30.9522C25.9737 31.0603 25.5213 31.4312 25.2133 31.7765C24.604 32.4598 24.4538 32.4804 23.0957 32.0665C22.2132 31.7978 21.4444 31.9922 20.7836 32.6514C19.1107 34.3203 20.6104 37.0409 22.9608 36.601C23.3119 36.5354 23.7383 36.2577 24.2374 35.7702C25.0561 34.9704 25.335 34.9013 26.2331 35.2756C27.7821 35.9213 29.5582 34.7851 29.5582 33.1483C29.5582 31.4156 27.7952 30.2563 26.2186 30.9522ZM3.37221 33.4462C3.14497 33.7929 2.80255 34.575 2.62682 35.149C2.53079 35.4629 2.56671 35.4822 3.2505 35.4822C4.41934 35.4822 5.27293 35.1095 6.03108 34.2683C7.02167 33.1692 6.97862 33.1131 5.14573 33.1131C3.69681 33.1131 3.57584 33.1357 3.37221 33.4462ZM71.746 34.2976L72.0442 35.4822H72.7681H73.4918V34.2976V33.1131H72.4699H71.4479L71.746 34.2976ZM56.6631 38.0064C55.7239 38.2419 54.3872 39.0311 53.7383 39.7333C53.4051 40.094 52.9209 40.8344 52.6627 41.3782C52.2373 42.2739 52.1929 42.5009 52.1929 43.7817C52.1929 45.1165 52.2241 45.2588 52.7473 46.3148C53.4149 47.6625 54.2743 48.5019 55.6542 49.154C56.5508 49.5778 56.7805 49.6226 58.0557 49.6226C59.3308 49.6226 59.5605 49.5778 60.4572 49.154C61.8371 48.5019 62.6965 47.6625 63.3641 46.3148C63.8879 45.2576 63.9184 45.1177 63.9184 43.774C63.9184 42.4302 63.8879 42.2903 63.3641 41.2331C62.3612 39.2086 60.5793 38.0206 58.3895 37.9167C57.7569 37.8866 56.98 37.9271 56.6631 38.0064ZM16.4968 40.4139C15.7683 40.6429 14.5259 41.9264 14.3025 42.6806C13.4985 45.3953 15.9681 47.9261 18.684 47.1705C19.6572 46.8998 20.8176 45.7422 21.0889 44.7713C21.8534 42.0364 19.2358 39.5527 16.4968 40.4139ZM56.8886 40.423C55.1885 41.0368 54.1637 43.0283 54.651 44.7713C54.9223 45.7422 56.0827 46.8998 57.0559 47.1705C59.3084 47.7971 61.6179 46.0344 61.6179 43.6885C61.6179 42.8426 61.2554 42.0697 60.5097 41.3258C59.4624 40.281 58.1726 39.9594 56.8886 40.423ZM40.4674 41.6057C39.6092 42.002 39.0573 42.8704 39.0573 43.8247C39.0573 44.4419 38.7308 44.892 38.021 45.2533C37.1469 45.6981 36.7567 46.3463 36.7567 47.3538C36.7567 48.2619 37.0068 48.7425 37.7786 49.3173C38.168 49.6072 38.3817 49.6226 42.0258 49.6226C45.6699 49.6226 45.8837 49.6072 46.273 49.3173C47.0518 48.7372 47.2949 48.264 47.2949 47.3276C47.2949 45.9956 46.5721 45.197 45.1653 44.9752C44.178 44.8195 43.9463 44.5883 43.7901 43.6034C43.5858 42.3137 42.8153 41.5482 41.6286 41.4558C41.2127 41.4234 40.7261 41.4863 40.4674 41.6057ZM16.8612 42.9529C16.1248 43.6873 16.6466 44.9585 17.6842 44.9585C18.2944 44.9585 18.8716 44.3827 18.8716 43.774C18.8716 43.1653 18.2944 42.5894 17.6842 42.5894C17.3951 42.5894 17.0908 42.7237 16.8612 42.9529ZM57.2326 42.9529C57.0029 43.182 56.8683 43.4855 56.8683 43.774C56.8683 44.0624 57.0029 44.3659 57.2326 44.595C57.4623 44.8242 57.7665 44.9585 58.0557 44.9585C58.3448 44.9585 58.6491 44.8242 58.8787 44.595C59.1084 44.3659 59.2431 44.0624 59.2431 43.774C59.2431 43.4855 59.1084 43.182 58.8787 42.9529C58.6491 42.7237 58.3448 42.5894 58.0557 42.5894C57.7665 42.5894 57.4623 42.7237 57.2326 42.9529Z" fill="black"/>
<path fill-rule="evenodd" clip-rule="evenodd" d="M63.7617 12.1428C62.4872 12.7349 61.6179 14.0332 61.6179 15.3449C61.6179 17.1367 63.3415 18.8985 65.0944 18.8985C67.4459 18.8985 69.2129 16.5946 68.5848 14.3475C68.4442 13.8444 68.1724 13.4283 67.6372 12.8968C66.4799 11.7472 65.1645 11.4912 63.7617 12.1428ZM64.357 14.5239C63.6207 15.2583 64.1424 16.5295 65.18 16.5295C65.7902 16.5295 66.3674 15.9536 66.3674 15.3449C66.3674 14.7362 65.7902 14.1604 65.18 14.1604C64.8909 14.1604 64.5866 14.2947 64.357 14.5239ZM4.39189 19.25C3.11737 19.8422 2.24805 21.1404 2.24805 22.4522C2.24805 24.2439 3.9717 26.0058 5.72459 26.0058C8.07609 26.0058 9.84308 23.7019 9.21495 21.4548C9.07439 20.9516 8.80262 20.5356 8.2674 20.004C7.11014 18.8544 5.79465 18.5984 4.39189 19.25ZM4.98722 21.6311C4.75746 21.8602 4.62284 22.1637 4.62284 22.4522C4.62284 22.7406 4.75746 23.0441 4.98722 23.2732C5.72341 24.0078 6.99763 23.4873 6.99763 22.4522C6.99763 21.8435 6.42041 21.2676 5.81024 21.2676C5.5211 21.2676 5.21683 21.4019 4.98722 21.6311ZM26.0702 28.504C25.5172 28.6498 24.6732 29.0745 24.3177 29.3857C24.1154 29.563 23.6963 29.6243 22.6109 29.6357C20.9288 29.6533 20.0838 29.9719 19.0907 30.9625C18.1182 31.9328 17.7664 32.8157 17.7621 34.2976C17.7587 35.4528 17.8 35.6327 18.2656 36.4891C18.8287 37.5254 19.3069 37.9873 20.3765 38.5279C21.8156 39.2555 23.7024 39.1213 25.0428 38.1963C25.5673 37.8343 25.7572 37.7937 26.9638 37.7859C28.1686 37.7781 28.4021 37.7283 29.2962 37.2893C30.3604 36.7666 30.983 36.1363 31.5151 35.0425C31.7701 34.5182 31.8432 34.0965 31.8491 33.113C31.8556 32.0247 31.8028 31.7521 31.4578 31.0983C30.8695 29.983 30.4184 29.5154 29.4175 28.9833C28.4601 28.4741 26.9845 28.2629 26.0702 28.504ZM26.2186 30.9521C25.9737 31.0602 25.5213 31.4311 25.2133 31.7764C24.604 32.4598 24.4538 32.4803 23.0958 32.0665C22.2132 31.7977 21.4444 31.9922 20.7836 32.6514C19.1107 34.3202 20.6104 37.0408 22.9608 36.6009C23.3119 36.5353 23.7383 36.2577 24.2374 35.7701C25.0561 34.9704 25.335 34.9012 26.2332 35.2756C27.7821 35.9213 29.5582 34.785 29.5582 33.1483C29.5582 31.4156 27.7952 30.2562 26.2186 30.9521Z" fill="#EDBC18"/>
</svg>
