<svg width="86" height="49" viewBox="0 0 86 49" fill="none" xmlns="http://www.w3.org/2000/svg">
<path fill-rule="evenodd" clip-rule="evenodd" d="M11.7291 0.752452C11.263 1.16627 10.5995 1.64502 10.2548 1.81602C9.91006 1.98702 9.17492 2.3572 8.62105 2.63828C7.16236 3.37882 6.06351 3.58925 4.30539 3.4644C2.85995 3.36187 2.79936 3.37211 2.38127 3.79012L1.94958 4.22172L2.03552 8.11C2.15015 13.2881 2.63991 15.7983 4.15718 18.9833C4.43429 19.5649 4.64576 20.0533 4.62697 20.0684C4.60817 20.0835 4.17262 20.2164 3.65903 20.3637C1.9657 20.8495 0.574136 22.2359 0.131878 23.8779C0.0231176 24.282 -0.0220314 26.8936 0.0101939 30.9286L0.0612172 37.3373L0.507839 38.1764C1.04174 39.1797 1.80491 39.9301 2.83058 40.4606C3.51671 40.8155 3.84903 40.8571 6.46162 40.9145L9.33739 40.9778L9.44112 41.7586C9.57858 42.7946 10.3956 44.4947 11.3285 45.6858L12.0841 46.6507H7.57054C3.06958 46.6507 3.05598 46.6517 2.69194 47.039C2.21863 47.5429 2.22786 48.1771 2.71544 48.6352L3.10399 49H42.9678H82.8316L83.1967 48.6117C83.67 48.1078 83.6608 47.4736 83.1732 47.0155C82.8044 46.6691 82.6332 46.6507 79.8033 46.6507H76.822L77.571 45.7945C78.5252 44.7041 79.3033 43.1969 79.5641 41.9339L79.7684 40.9452H82.475C85.1319 40.9452 85.1886 40.9377 85.5686 40.5331L85.9558 40.1211L85.9917 32.1007C86.0115 27.6895 85.9946 25.2887 85.954 26.7654L85.8801 29.4503L85.6482 28.3596C84.8425 24.5738 81.7912 21.4576 77.9206 20.4679C76.7362 20.165 76.0445 20.137 69.7685 20.137H62.9105L57.5093 15.6062L52.108 11.0753H38.0013L23.8945 11.0755V7.64937C23.8945 4.23665 23.8928 4.22155 23.4798 3.78139C23.0808 3.35633 23.017 3.34375 21.7926 3.45047C21.0138 3.51843 20.1327 3.4837 19.5217 3.36086C18.2599 3.1073 15.7131 1.89758 14.7534 1.09596C13.9327 0.410459 13.2128 0 12.831 0C12.691 0 12.1952 0.338637 11.7291 0.752452ZM12.4924 3.0083C12.0309 3.5181 9.39983 4.96947 8.21941 5.36533C7.62929 5.56335 6.51533 5.76975 5.74377 5.82412L4.34114 5.92313L4.34449 8.12175C4.35221 13.4045 5.51702 17.6452 7.77548 20.6144C8.96328 22.1759 10.5719 23.4856 12.1702 24.1924L12.9387 24.5324L14.1366 23.9353C17.0825 22.467 19.0991 20.0309 20.2676 16.5291C21.0117 14.2991 21.4668 11.5267 21.5788 8.54144L21.677 5.92363L20.2681 5.82915C19.4932 5.7773 18.3684 5.57929 17.7683 5.38916C16.7796 5.07603 13.8776 3.49931 13.2234 2.9197C12.8822 2.61731 12.8419 2.62217 12.4924 3.0083ZM16.0829 9.66307C15.6713 10.0861 14.2259 11.4868 12.8706 12.7757L10.4065 15.1194L9.60963 14.356C8.69692 13.4814 8.1266 13.3772 7.5593 13.9808C6.90405 14.6782 7.06786 15.0875 8.60058 16.5833C9.37398 17.3379 10.1341 17.9555 10.2901 17.9555C10.861 17.9555 11.3753 17.5158 14.8731 14.0377C18.7024 10.2298 18.8496 10.0084 18.0513 9.25865C17.4431 8.6876 16.9291 8.79315 16.0829 9.66307ZM23.3774 13.8861C22.8999 16.0055 22.2431 18.0599 21.6892 19.1666C21.4712 19.6018 21.293 19.9982 21.293 20.0475C21.293 20.0967 22.9546 20.137 24.9854 20.137H28.6779V16.7808V13.4247H26.0796H23.4813L23.3774 13.8861ZM31.0277 16.7808V20.137H45.2474C59.1049 20.137 59.4588 20.1291 59.1362 19.8257C58.9542 19.6544 57.1676 18.1441 55.1661 16.4695L51.527 13.4247H41.2773H31.0277V16.7808ZM3.91314 22.7224C3.32805 22.9771 2.53803 23.8486 2.40409 24.3871C2.35408 24.5876 2.33528 27.4836 2.36213 30.8227C2.40896 36.6525 2.42474 36.9121 2.75706 37.3568C3.56437 38.4375 3.79096 38.5073 6.67948 38.5652L9.33018 38.6184L9.44145 37.7788C9.61483 36.4726 10.7385 34.4081 11.9181 33.2287C13.575 31.5721 16.1181 30.5366 18.5125 30.5436C22.5749 30.5554 26.5568 33.755 27.3775 37.6671L27.5724 38.5959H44.8025H62.0324L62.1403 37.8085C62.1997 37.3756 62.5457 36.407 62.9092 35.6562C64.3416 32.6976 67.5053 30.7201 70.8208 30.7114C72.0243 30.7082 74.1118 31.2424 75.2236 31.8379C77.2159 32.9052 79.114 35.428 79.5641 37.6072L79.7684 38.5959H81.665H83.5616V35.4075V32.2192H81.7445C80.0623 32.2192 79.9005 32.1903 79.5626 31.8309C79.0893 31.3269 79.0985 30.6928 79.5861 30.2347C79.9351 29.9071 80.1578 29.8699 81.768 29.8699C82.7546 29.8699 83.5616 29.8103 83.5616 29.7373C83.5616 29.257 82.9637 27.4746 82.5294 26.6599C81.9026 25.4842 80.4168 24.0268 79.2335 23.4274C77.2735 22.4343 78.9925 22.4863 48.0888 22.4863H19.7357L18.4496 23.7029C17.0822 24.996 15.8769 25.7903 14.2944 26.441C13.0844 26.9384 12.764 26.9431 11.6732 26.4791C10.0898 25.8057 8.83572 24.9715 7.5269 23.7212C6.24326 22.4952 6.22749 22.4863 5.32954 22.4928C4.83207 22.4965 4.19478 22.5997 3.91314 22.7224ZM0.0534966 30.4572C0.0533288 33.9644 0.0756515 35.423 0.102842 33.6986C0.130199 31.9742 0.130199 29.1047 0.103009 27.3219C0.0758193 25.5391 0.0534966 26.95 0.0534966 30.4572ZM28.875 25.7273C28.4017 26.2313 28.4109 26.8654 28.8985 27.3235C29.2628 27.6657 29.4485 27.6884 31.8904 27.6884C34.3947 27.6884 34.5077 27.6736 34.8588 27.3C35.3321 26.7961 35.3229 26.162 34.8353 25.7039C34.4709 25.3617 34.2853 25.339 31.8434 25.339C29.339 25.339 29.2261 25.3538 28.875 25.7273ZM16.5934 33.1594C12.4241 34.2747 10.3854 38.9498 12.3328 42.9294C13.9461 46.2263 18.1503 47.5632 21.5991 45.8763C24.8614 44.2806 26.2332 40.0583 24.5841 36.6884C23.1543 33.7664 19.8234 32.2954 16.5934 33.1594ZM69.1154 33.2769C67.294 33.7936 65.4268 35.4745 64.7439 37.212C64.2054 38.582 64.2066 40.9618 64.7462 42.3355C65.2788 43.6909 66.667 45.1501 68.0901 45.8506C69.1117 46.3535 69.3368 46.399 70.8022 46.399C72.2482 46.399 72.507 46.3485 73.5214 45.8679C75.0818 45.1288 76.0536 44.1775 76.8085 42.6501C77.4008 41.452 77.4354 41.2934 77.4354 39.7705C77.4354 38.2477 77.4008 38.0891 76.8085 36.891C75.6766 34.601 73.6661 33.2557 71.1832 33.1267C70.4128 33.0867 69.5699 33.148 69.1154 33.2769ZM17.0471 35.3037C14.1834 36.3711 12.9555 39.4019 14.3493 41.9621C15.2326 43.5847 16.5698 44.3755 18.4397 44.3814C19.514 44.3848 19.8133 44.3178 20.4816 43.925C23.7449 42.0069 23.7639 37.5407 20.5169 35.6383C19.5985 35.1001 18.0053 34.9464 17.0471 35.3037ZM69.4207 35.301C69.0743 35.4304 68.529 35.7358 68.2087 35.9801C65.4355 38.0948 65.7177 42.1346 68.7638 43.925C69.4321 44.3178 69.7314 44.3848 70.8057 44.3814C72.6877 44.3755 74.0014 43.592 74.9255 41.924C75.351 41.156 75.4213 40.8507 75.4213 39.7705C75.4213 38.6904 75.351 38.3851 74.9255 37.6171C74.3787 36.6302 73.7978 36.0742 72.7604 35.545C71.8935 35.1028 70.2698 34.9842 69.4207 35.301ZM17.2477 37.8022C15.7405 38.8088 15.7754 40.8526 17.3158 41.7916C18.3786 42.4395 19.7302 42.0343 20.3124 40.8932C20.9017 39.7385 20.5219 38.436 19.3957 37.7495C18.6864 37.3172 17.9466 37.3353 17.2477 37.8022ZM69.8497 37.7495C68.7235 38.436 68.3437 39.7385 68.933 40.8932C69.5152 42.0343 70.8668 42.4395 71.9296 41.7916C73.47 40.8526 73.5049 38.8088 71.9977 37.8022C71.2989 37.3353 70.559 37.3172 69.8497 37.7495ZM27.3775 41.874C27.1116 43.1411 26.2964 44.7388 25.3834 45.7824L24.6237 46.6507H44.8005H64.9773L64.184 45.8027C63.2897 44.8469 62.2942 42.8549 62.1368 41.706L62.0324 40.9452H44.8025H27.5724L27.3775 41.874Z" fill="black"/>
<path fill-rule="evenodd" clip-rule="evenodd" d="M16.0825 9.66312C15.6709 10.0862 14.2255 11.4869 12.8702 12.7758L10.4061 15.1194L9.60923 14.356C8.69652 13.4814 8.1262 13.3772 7.5589 13.9808C6.90365 14.6782 7.06746 15.0875 8.60018 16.5834C9.37358 17.338 10.1337 17.9555 10.2897 17.9555C10.8606 17.9555 11.3749 17.5159 14.8727 14.0377C18.702 10.2298 18.8492 10.0085 18.0509 9.2587C17.4427 8.68765 16.9287 8.7932 16.0825 9.66312Z" fill="#EDBC18"/>
</svg>
